<svg width="10" height="18" viewBox="0 0 10 18" fill="none" xmlns="http://www.w3.org/2000/svg">
<path d="M8.01844 17.6438L0.25347 9.66491C0.161304 9.56992 0.0958668 9.46702 0.0571572 9.3562C0.0184475 9.24538 -0.000600038 9.12665 1.44009e-05 9C1.44009e-05 8.87335 0.0193692 8.75462 0.0580788 8.6438C0.0967885 8.53298 0.161919 8.43008 0.25347 8.33509L8.01844 0.332454C8.23349 0.110818 8.50231 0 8.82489 0C9.14747 0 9.42396 0.118734 9.65438 0.356201C9.88479 0.593668 10 0.870712 10 1.18734C10 1.50396 9.88479 1.781 9.65438 2.01847L2.88019 9L9.65438 15.9815C9.86943 16.2032 9.97696 16.4764 9.97696 16.8013C9.97696 17.1261 9.86175 17.407 9.63134 17.6438C9.40092 17.8813 9.13211 18 8.82489 18C8.51767 18 8.24885 17.8813 8.01844 17.6438Z" fill="black"/>
</svg>
