<svg width="42" height="42" viewBox="0 0 42 42" fill="none" xmlns="http://www.w3.org/2000/svg">
<circle cx="21" cy="21" r="21" fill="#32B28E"/>
<path d="M27.419 13.4114C27.6077 13.5486 27.6848 13.7315 27.6505 13.9602L25.4555 27.1309C25.4269 27.2967 25.3354 27.4253 25.1811 27.5168C25.101 27.5625 25.0124 27.5854 24.9153 27.5854C24.8524 27.5854 24.7838 27.5711 24.7095 27.5425L20.8252 25.9562L18.7502 28.4857C18.6473 28.6172 18.5072 28.6829 18.33 28.6829C18.2557 28.6829 18.1928 28.6715 18.1414 28.6486C18.0328 28.6086 17.9456 28.5414 17.8799 28.4471C17.8141 28.3528 17.7813 28.2485 17.7813 28.1341V25.1416L25.1896 16.061L16.0235 23.9926L12.6365 22.6035C12.425 22.5234 12.3107 22.3662 12.2936 22.1319C12.2821 21.9032 12.3736 21.7346 12.5679 21.626L26.836 13.3942C26.9217 13.3428 27.0132 13.3171 27.1103 13.3171C27.2247 13.3171 27.3276 13.3485 27.419 13.4114Z" fill="white"/>
</svg>
