<svg width="8" height="15" viewBox="0 0 8 15" fill="none" xmlns="http://www.w3.org/2000/svg">
<path d="M1.58525 0.296834L7.79722 6.94591C7.87096 7.02507 7.92331 7.11082 7.95427 7.20317C7.98524 7.29552 8.00048 7.39446 7.99999 7.5C7.99999 7.60554 7.98451 7.70449 7.95354 7.79683C7.92257 7.88918 7.87047 7.97494 7.79722 8.05409L1.58525 14.723C1.41321 14.9077 1.19815 15 0.94009 15C0.682025 15 0.460828 14.9011 0.276496 14.7032C0.092165 14.5053 -8.90241e-07 14.2744 -8.67174e-07 14.0106C-8.44108e-07 13.7467 0.0921651 13.5158 0.276497 13.3179L5.69584 7.5L0.276498 1.68206C0.104455 1.49736 0.0184333 1.26966 0.0184334 0.998945C0.0184334 0.728233 0.110599 0.494195 0.294931 0.296834C0.479262 0.098945 0.694316 3.14991e-07 0.940091 3.36477e-07C1.18587 3.57964e-07 1.40092 0.098945 1.58525 0.296834Z" fill="#ACACAC"/>
</svg>
