<svg width="265" height="47" viewBox="0 0 265 47" fill="none" xmlns="http://www.w3.org/2000/svg">
<path d="M56.8887 1.66406V3.79297C56.8789 6.23438 56.8789 8.64648 56.2441 12.3281L53.7246 12.1133C54.3984 8.69531 54.3984 6.15625 54.4082 3.79297V3.65625H44.3496V1.66406H56.8887ZM42.6699 15.4727V13.4219H58.8809V15.4727H42.6699ZM74.8379 0.0429688V10.5703H72.3379V0.0429688H74.8379ZM60.873 3.01172V1.05859H69.1152V6.39062H63.334V7.93359C66.3027 7.92383 68.4023 7.8457 70.7949 7.44531L71.1074 9.4375C68.3828 9.87695 65.9805 9.96484 62.4551 9.96484H60.8926V4.49609H66.6348V3.01172H60.873ZM62.9238 17.6016V11.3516H74.8379V17.6016H62.9238ZM65.3848 15.6094H72.3965V13.3242H65.3848V15.6094ZM85.3457 0.277344C89.4375 0.277344 91.8008 1.35156 91.8105 3.30469C91.8008 5.28711 89.4375 6.35156 85.3457 6.35156C81.2441 6.35156 78.8613 5.28711 78.8613 3.30469C78.8613 1.35156 81.2441 0.277344 85.3457 0.277344ZM77.2402 9.16406V7.19141H93.4512V9.16406H77.2402ZM79.1152 12.0156V10.1992H91.4785V14.7305H81.5762V15.8047H91.9473V17.6797H79.1348V12.9922H89.0176V12.0156H79.1152ZM81.4785 3.30469C81.4688 4.17383 82.7383 4.51562 85.3457 4.51562C87.9727 4.51562 89.2324 4.17383 89.2324 3.30469C89.2324 2.51367 87.9727 2.09375 85.3457 2.09375C82.7383 2.09375 81.4688 2.51367 81.4785 3.30469ZM115.385 9.14453V11.0977H108.686V13.9688H106.225V11.0977H99.1152V9.14453H115.385ZM101.029 17.4844V12.5625H103.49V15.4922H113.588V17.4844H101.029ZM101.205 7.89453V0.589844H103.666V2.44531H110.795V0.589844H113.275V7.89453H101.205ZM103.666 5.92188H110.795V4.30078H103.666V5.92188ZM123.08 2.79688C123.07 5.01367 124.311 7.16211 127.123 8.05078L125.795 10.0234C123.891 9.37891 122.582 8.09961 121.83 6.48828C121.049 8.24609 119.652 9.62305 117.65 10.3359L116.303 8.34375C119.281 7.39648 120.551 5.07227 120.561 2.64062V0.941406H123.08V2.79688ZM119.193 13.3828V11.4102H131.4V17.7969H128.92V13.3828H119.193ZM125.58 5.375V3.32422H128.92V0.0234375H131.4V10.6094H128.92V5.375H125.58ZM147.729 0.0234375V6.97656H150.346V9.02734H147.729V17.7969H145.268V0.0234375H147.729ZM133.607 4.67188V2.67969H137.631V0.296875H140.131V2.67969H144.057V4.67188H133.607ZM134.33 9.90625C134.32 7.42578 136.254 5.6582 138.881 5.66797C141.469 5.6582 143.412 7.42578 143.412 9.90625C143.412 12.3867 141.469 14.1348 138.881 14.1445C136.254 14.1348 134.32 12.3867 134.33 9.90625ZM136.713 9.90625C136.713 11.2832 137.621 12.1035 138.881 12.0938C140.121 12.1035 141.029 11.2832 141.029 9.90625C141.029 8.53906 140.121 7.69922 138.881 7.67969C137.621 7.69922 136.713 8.53906 136.713 9.90625ZM165.639 1.56641V3.24609C165.629 5.47266 165.629 7.97266 164.916 11.7422L162.416 11.4883C163.1 8.12891 163.129 5.62891 163.139 3.53906H152.67V1.56641H165.639ZM150.99 15.6289V13.5977H156.791V7.48438H159.271V13.5977H167.201V15.6289H150.99ZM179.35 11.4297C179.35 12.8555 179.955 14.3398 181.391 15.3164C182.865 14.2715 183.51 12.748 183.51 11.4297V10.8242H185.971V11.4297C185.951 13.2852 186.938 14.9941 189.311 15.7266L188.1 17.543C186.4 16.9668 185.287 15.8828 184.672 14.5059C184.086 15.8828 183.051 17.0742 181.459 17.6992C179.789 17.0938 178.744 15.9414 178.168 14.5742C177.533 15.8926 176.439 16.9668 174.818 17.543L173.588 15.7266C175.922 14.9258 176.918 13.1582 176.928 11.4297V10.8242H179.35V11.4297ZM173.158 5.21875C173.158 2.69922 175.248 0.941406 178.021 0.941406C180.785 0.941406 182.875 2.69922 182.885 5.21875C182.875 7.68945 180.785 9.4668 178.021 9.45703C175.248 9.4668 173.158 7.68945 173.158 5.21875ZM175.6 5.21875C175.58 6.55664 176.596 7.39648 178.021 7.38672C179.408 7.39648 180.414 6.55664 180.424 5.21875C180.414 3.8418 179.408 3.03125 178.021 3.03125C176.596 3.03125 175.58 3.8418 175.6 5.21875ZM185.268 10.082V0.0429688H187.768V10.082H185.268ZM195.072 1.27344C197.475 1.27344 199.271 3.24609 199.623 6.44922H202.709V0.0234375H205.17V17.8359H202.709V8.44141H199.652C199.389 11.8594 197.553 13.9492 195.072 13.9492C192.377 13.9492 190.443 11.5078 190.463 7.60156C190.443 3.72461 192.377 1.27344 195.072 1.27344ZM192.846 7.60156C192.836 10.248 193.744 11.6934 195.072 11.6836C196.41 11.6934 197.299 10.248 197.299 7.60156C197.299 4.96484 196.41 3.51953 195.072 3.51953C193.744 3.51953 192.836 4.96484 192.846 7.60156ZM223.725 13.6758V15.7266H207.455V13.6758H211.088V9.32031C209.711 8.49023 208.881 7.23047 208.881 5.66797C208.881 2.78711 211.693 0.892578 215.561 0.882812C219.408 0.892578 222.25 2.78711 222.26 5.66797C222.25 7.20117 221.449 8.44141 220.111 9.27148V13.6758H223.725ZM211.342 5.66797C211.342 7.40625 213.012 8.48047 215.561 8.48047C218.07 8.48047 219.789 7.40625 219.799 5.66797C219.789 3.88086 218.07 2.8457 215.561 2.85547C213.012 2.8457 211.342 3.88086 211.342 5.66797ZM213.549 13.6758H217.592V10.2188C216.957 10.3457 216.273 10.4141 215.561 10.4141C214.848 10.4141 214.174 10.3457 213.549 10.2285V13.6758ZM227.045 16.1758C226.127 16.1758 225.385 15.4434 225.404 14.5352C225.385 13.6367 226.127 12.9043 227.045 12.9141C227.914 12.9043 228.666 13.6367 228.666 14.5352C228.666 15.4434 227.914 16.1758 227.045 16.1758Z" fill="#1D4C5C"/>
<path d="M11.6743 33.1787V46.2012H10.5464V33.1787H11.6743ZM0.878418 40.2686C3.47852 40.2539 6.73047 40.2319 9.60889 39.917L9.66748 40.7959C8.41504 40.9717 7.11865 41.0742 5.84424 41.1401V45.791H4.70166V41.1914C3.40527 41.2427 2.15283 41.25 1.0249 41.25L0.878418 40.2686ZM2.12354 38.6133V33.9111H8.43701V34.8486H3.28076V37.6465H8.61279V38.6133H2.12354ZM25.8247 43.6084V44.5752H13.9009V43.6084H19.2622V41.1475H15.395V37.1338H23.188V35.083H15.3657V34.1309H24.3159V38.0713H16.5376V40.1953H24.6235V41.1475H20.3901V43.6084H25.8247ZM36.9429 33.1641V38.4668H39.0522V39.4336H36.9429V46.1865H35.8003V33.1641H36.9429ZM26.9526 42.8027C30.3145 41.1328 32.1455 38.6206 32.4092 35.5371H27.5532V34.5703H33.5737C33.5664 38.2544 31.8379 41.6162 27.5972 43.7109L26.9526 42.8027ZM50.5952 33.1641V46.1865H49.438V33.1641H50.5952ZM39.9897 42.8027C43.5127 41.1328 45.3145 38.6353 45.5708 35.5225H40.5903V34.585H46.7427C46.728 38.3276 44.9849 41.6455 40.6196 43.7402L39.9897 42.8027ZM67.353 33.1641V46.2158H66.2104V38.9648H63.0903V42.9199H57.0845V34.1895H58.2417V37.5879H61.9624V34.1895H63.0903V38.0127H66.2104V33.1641H67.353ZM58.2417 41.9678H61.9624V38.5107H58.2417V41.9678ZM81.3862 40.3857V41.3232H69.5063V40.3857H81.3862ZM71.0591 45.9082V42.2754H72.2017V44.9414H80.1411V45.9082H71.0591ZM71.0884 39.1553V33.6621H79.9067V34.585H72.2456V35.9473H79.5552V36.8408H72.2456V38.2471H79.98V39.1553H71.0884ZM88.4175 33.3984C91.3105 33.3984 93.0098 34.1968 93.0171 35.6396C93.0098 37.1191 91.3105 37.9175 88.4175 37.9248C85.5098 37.9175 83.8032 37.1191 83.8032 35.6396C83.8032 34.1968 85.5098 33.3984 88.4175 33.3984ZM82.4849 39.7412V38.8037H94.3501V39.7412H82.4849ZM83.9204 41.748V40.8691H92.8267V43.7842H85.0923V45.1318H93.2222V46.04H83.9497V42.9346H91.6987V41.748H83.9204ZM85.0044 35.6396C84.9897 36.5479 86.2568 37.0459 88.4175 37.0459C90.5781 37.0459 91.8379 36.5479 91.8452 35.6396C91.8379 34.7827 90.5781 34.27 88.4175 34.2627C86.2568 34.27 84.9897 34.7827 85.0044 35.6396ZM109.731 37.5586V38.5107H100.751V33.8379H101.894V37.5586H109.731ZM99.2134 41.4404V40.4736H111.137V41.4404H105.688V46.1865H104.545V41.4404H99.2134ZM124.101 43.5791V44.5459H112.177V43.5791H124.101ZM113.642 35.1123V34.1602H122.592V38.1006H114.814V40.2393H122.9V41.1621H113.671V37.1631H121.464V35.1123H113.642ZM129.799 37.1631C129.807 39.375 131.411 41.6235 133.33 42.4512L132.685 43.3594C131.162 42.6709 129.851 41.1694 129.243 39.3677C128.635 41.2793 127.316 42.9346 125.83 43.6816L125.141 42.7734C127.009 41.8799 128.635 39.4189 128.642 37.1631V35.4639H125.566V34.5117H132.905V35.4639H129.799V37.1631ZM134.721 46.1865V33.1641H135.878V46.1865H134.721ZM145.502 33.9111C147.451 33.9185 148.886 35.1562 148.886 36.9141C148.886 38.6938 147.451 39.9243 145.502 39.9316C143.562 39.9243 142.111 38.6938 142.119 36.9141C142.111 35.1562 143.562 33.9185 145.502 33.9111ZM143.247 36.9141C143.239 38.1079 144.221 38.9795 145.502 38.9795C146.792 38.9795 147.766 38.1079 147.758 36.9141C147.766 35.7422 146.792 34.8779 145.502 34.8779C144.221 34.8779 143.239 35.7422 143.247 36.9141ZM143.261 45.835V41.0889H144.375V44.8901C145.129 44.8608 146.132 44.751 147.055 44.4434L147.231 45.3662C145.964 45.7837 144.726 45.8423 143.876 45.835H143.261ZM146.777 42.041V41.1475H149.516V39.9902H150.644V41.1475H153.354V42.041H146.777ZM147.641 44.3262C147.634 43.1982 148.623 42.4805 150.058 42.4805C151.486 42.4805 152.49 43.1982 152.504 44.3262C152.49 45.4541 151.486 46.1572 150.058 46.1572C148.623 46.1572 147.634 45.4541 147.641 44.3262ZM148.667 44.3262C148.667 44.9414 149.245 45.3296 150.058 45.3369C150.871 45.3296 151.45 44.9414 151.45 44.3262C151.45 43.7256 150.871 43.3228 150.058 43.3154C149.245 43.3228 148.667 43.7256 148.667 44.3262ZM150.908 39.6826V33.1641H152.05V36.1084H154.013V37.0605H152.05V39.6826H150.908ZM165.351 39.2725V40.21H161.323V43.5791H166.757V44.5459H154.833V43.5791H160.195V40.21H156.357V34.2334H165.219V35.1709H157.514V39.2725H165.351ZM179.707 40.3418V41.2939H167.783V40.3418H173.173V38.9648H169.335V35.7861H177.011V34.4385H169.292V33.501H178.168V36.6504H170.478V38.042H178.447V38.9648H174.301V40.3418H179.707ZM169.116 43.2275V42.29H178.242V46.0693H177.084V43.2275H169.116ZM191.103 35.0098C191.096 36.7529 193.417 38.2324 195.688 38.5693L195.263 39.4775C193.234 39.1333 191.25 38.0493 190.458 36.4819C189.667 38.0493 187.683 39.1333 185.683 39.4775L185.229 38.5693C187.492 38.2324 189.807 36.7529 189.814 35.0098V34.9219H185.639V33.9844H195.263V34.9219H191.103V35.0098ZM184.526 41.543V40.5908H196.391V41.543H191V46.1865H189.873V41.543H184.526ZM201.752 34.1162C203.796 34.1235 205.246 35.3687 205.253 37.1777C205.246 38.9941 203.796 40.2319 201.752 40.2393C199.694 40.2319 198.229 38.9941 198.237 37.1777C198.229 35.3687 199.694 34.1235 201.752 34.1162ZM197.563 42.3633C199.965 42.3706 203.283 42.3486 206.162 41.9238L206.25 42.7734C203.269 43.3301 200.068 43.3447 197.724 43.3447L197.563 42.3633ZM199.365 37.1777C199.357 38.3936 200.361 39.2285 201.752 39.2285C203.129 39.2285 204.133 38.3936 204.125 37.1777C204.133 35.9692 203.129 35.127 201.752 35.127C200.361 35.127 199.357 35.9692 199.365 37.1777ZM207.026 46.2158V33.1641H208.168V46.2158H207.026ZM216.958 35.4199V36.3574H210.424V35.4199H213.134V33.5596H214.277V35.4199H216.958ZM210.893 40.1953C210.893 38.4668 212.072 37.2437 213.691 37.2363C215.332 37.2437 216.503 38.4668 216.518 40.1953C216.503 41.9458 215.332 43.1763 213.691 43.1836C212.072 43.1763 210.893 41.9458 210.893 40.1953ZM211.918 40.1953C211.918 41.3525 212.658 42.1802 213.691 42.1729C214.731 42.1802 215.493 41.3525 215.493 40.1953C215.493 39.0527 214.731 38.2178 213.691 38.2031C212.658 38.2178 211.918 39.0527 211.918 40.1953ZM217.631 45.542V33.4863H218.715V38.6572H220.444V33.1641H221.542V46.1865H220.444V39.6094H218.715V45.542H217.631ZM229.995 35.0098C229.987 36.7529 232.309 38.2324 234.58 38.5693L234.155 39.4775C232.126 39.1333 230.141 38.0493 229.35 36.4819C228.559 38.0493 226.574 39.1333 224.575 39.4775L224.121 38.5693C226.384 38.2324 228.698 36.7529 228.706 35.0098V34.9219H224.531V33.9844H234.155V34.9219H229.995V35.0098ZM223.417 41.543V40.5908H235.283V41.543H229.892V46.1865H228.764V41.543H223.417ZM240.249 36.8701C240.249 38.9429 241.259 41.1768 242.988 42.2021L242.329 43.0957C241.069 42.334 240.168 40.9424 239.714 39.353C239.238 41.0889 238.271 42.583 236.967 43.374L236.235 42.5098C238.037 41.4551 239.135 39.1479 239.135 36.9141V34.3945H240.249V36.8701ZM241.552 38.8184V37.8369H243.764V33.4424H244.848V45.5273H243.764V38.8184H241.552ZM246.43 46.1865V33.1641H247.543V46.1865H246.43ZM261.269 43.5498V44.5166H249.345V43.5498H252.304V40.0415C251.191 39.4629 250.517 38.5254 250.517 37.3389C250.517 35.3247 252.495 33.999 255.278 33.9844C258.061 33.999 260.039 35.3247 260.039 37.3389C260.039 38.5034 259.387 39.4263 258.31 40.0049V43.5498H261.269ZM251.63 37.3389C251.623 38.7964 253.139 39.7705 255.278 39.7705C257.395 39.7705 258.925 38.7964 258.925 37.3389C258.925 35.8813 257.395 34.9219 255.278 34.9365C253.139 34.9219 251.623 35.8813 251.63 37.3389ZM253.432 43.5498H257.153V40.4517C256.589 40.5981 255.959 40.6787 255.278 40.6787C254.611 40.6787 253.989 40.6055 253.432 40.459V43.5498ZM263.686 45.0879C263.173 45.0806 262.734 44.6558 262.749 44.1357C262.734 43.623 263.173 43.1982 263.686 43.1982C264.206 43.1982 264.631 43.623 264.624 44.1357C264.631 44.6558 264.206 45.0806 263.686 45.0879Z" fill="#696969"/>
</svg>
