<svg width="340" height="196" viewBox="0 0 340 196" fill="none" xmlns="http://www.w3.org/2000/svg">
<rect y="35" width="340" height="87" rx="8" fill="#EEEEEE"/>
<path d="M161.315 52.9121V65.1621H160.071V52.9121H161.315ZM150.624 61.7852C152.36 60.7393 153.242 58.5107 153.249 56.3301V55.3457H150.993V54.293H156.599V55.3457H154.493V56.3301C154.493 58.4219 155.341 60.5205 157.063 61.5117L156.284 62.4688C155.115 61.7715 154.315 60.5205 153.885 59.0439C153.447 60.6436 152.613 62.0107 151.417 62.7559L150.624 61.7852ZM155.696 58.3125V57.2461H157.597V53.1719H158.827V64.5469H157.597V58.3125H155.696ZM167.399 56.0293C167.386 58.2646 168.739 60.5205 170.64 61.3613L169.86 62.3867C168.452 61.7168 167.338 60.3428 166.764 58.668C166.196 60.4658 165.068 61.9424 163.599 62.6602L162.806 61.5664C164.733 60.7119 166.087 58.3672 166.087 56.0293V53.9375H167.399V56.0293ZM171.747 65.1895V52.9121H173.046V65.1895H171.747ZM178.323 53.8281C179.991 53.835 181.201 55.2432 181.399 57.5059H183.929V52.9121H185.214V65.1895H183.929V58.5586H181.413C181.27 60.9512 180.032 62.4346 178.323 62.4277C176.498 62.4346 175.206 60.7666 175.22 58.1211C175.206 55.5029 176.498 53.835 178.323 53.8281ZM176.45 58.1211C176.457 60.0693 177.216 61.2656 178.323 61.2656C179.431 61.2656 180.189 60.0693 180.196 58.1211C180.189 56.2002 179.431 54.9971 178.323 54.9902C177.216 54.9971 176.457 56.2002 176.45 58.1211Z" fill="black"/>
<path d="M168.731 90.4521V92.9912H165.582V104.197H162.457V82.0293H165.582V90.4521H168.731ZM148.761 98.7773V84.1533H151.861V96.2017C154.706 96.1528 157.757 95.8843 160.968 95.2373L161.285 97.8252C157.562 98.582 153.961 98.7773 150.689 98.7773H148.761ZM189.972 94.4561V96.9463H181.28V104.222H178.204V96.9463H169.635V94.4561H189.972ZM172.027 92.0635V83.1035H187.53V92.0635H172.027ZM175.104 89.6221H184.43V85.5693H175.104V89.6221Z" fill="#1D4C5C"/>
<path d="M120.529 193.674C120.457 193.518 120.419 193.231 120.474 193.193C120.737 192.99 120.58 192.522 120.605 192.172C120.618 191.986 120.622 191.784 120.618 191.602C120.61 191.45 120.597 191.303 120.58 191.151C120.546 190.851 120.491 190.556 120.436 190.261C120.318 189.67 120.204 189.083 120.111 188.493C119.823 185.974 119.311 183.489 118.698 181.033C118.584 180.619 118.389 180.24 118.508 179.725C118.601 179.337 118.389 178.746 118.093 178.455C117.797 178.147 117.683 177.822 117.603 177.476C117.501 177.004 117.632 176.455 117.104 176.139C117.053 176.109 117.002 175.978 117.024 175.932C117.239 175.442 116.884 175.058 116.74 174.649C116.495 173.961 116.131 173.316 115.861 172.637C115.717 172.265 115.446 171.966 115.501 171.476C115.539 171.168 115.26 170.649 114.989 170.489C114.634 170.286 114.545 169.987 114.38 169.713C112.579 166.476 110.443 163.43 108.007 160.641C107.821 160.426 107.677 160.164 107.538 159.907C107.25 159.409 106.726 159.046 106.299 158.633C106.201 158.54 106.007 158.477 105.994 158.388C105.927 157.819 105.373 157.646 105.081 157.262C104.789 156.886 104.539 156.46 104.197 156.135C103.723 155.722 103.326 155.152 102.636 155.059C102.188 154.658 101.71 154.295 101.237 153.924C100.759 153.557 100.302 153.169 99.7988 152.84C99.5704 152.679 99.4055 152.519 99.3294 152.245C99.2998 152.139 99.0587 151.983 98.9657 152.009C98.5935 152.106 98.4117 151.815 98.1579 151.671C97.1176 151.139 96.2972 150.177 95.0623 150.004C94.9524 149.988 94.872 149.802 94.7663 149.705C94.669 149.616 94.5421 149.477 94.4449 149.485C93.9416 149.519 93.4468 149.245 93.2438 148.962C92.9689 148.57 92.601 148.431 92.2458 148.266C91.7214 148.009 91.1801 147.785 90.643 147.553C90.1017 147.334 89.5688 147.089 88.9852 146.954C88.3763 146.798 87.7757 146.595 87.1837 146.346C86.5832 146.11 85.9869 145.848 85.4117 145.519C84.8831 145.211 84.2868 145.038 83.6821 144.882C83.0731 144.739 82.4641 144.574 81.8594 144.443C81.5549 144.372 81.2419 144.498 81.0009 144.452C80.6118 144.372 80.227 144.292 79.8337 144.211C79.4404 144.144 79.0386 144.072 78.6242 144C78.214 143.924 77.7911 143.849 77.3513 143.773C76.9072 143.714 76.4505 143.654 75.9684 143.591C75.5835 143.57 75.1775 143.524 74.7546 143.465C74.3317 143.422 73.8919 143.38 73.4394 143.338C72.9869 143.3 72.526 143.266 72.0565 143.262C71.5871 143.279 71.1093 143.321 70.6356 143.401C70.0858 143.498 69.7729 143.6 69.608 143.861C69.5572 143.861 69.5107 143.861 69.4599 143.861C69.4473 143.861 69.4303 143.861 69.4176 143.861C69.4473 143.806 69.4642 143.735 69.4599 143.638C69.4515 142.688 68.6776 142.114 67.6499 142.325C67.4596 142.363 67.2059 142.414 67.0706 142.33C66.635 142.051 66.1825 142.22 65.73 142.203C65.2859 142.19 64.8376 142.102 64.3894 142.093C63.7085 142.089 63.0403 142.254 62.3679 142.346C61.6913 142.435 61.0231 142.524 60.3253 142.427C60.228 142.414 60.1138 142.49 60.0081 142.536C59.8051 142.625 59.6148 142.752 59.4034 142.802C58.6844 142.962 57.9613 143.114 57.2339 143.262C56.5065 143.406 55.8045 143.638 55.1659 144.047C54.3793 144.093 53.8042 144.798 52.9753 144.722C52.8696 144.709 52.6962 144.76 52.6497 144.836C52.3198 145.351 51.7108 145.3 51.2456 145.553C50.6155 145.891 49.8585 145.95 49.313 146.519C49.017 146.844 48.4334 146.886 48.0993 147.304C47.9935 147.439 47.5664 147.329 47.2619 147.456C44.9571 148.481 42.8934 149.907 40.6055 151.009C39.8231 151.376 39.1507 151.937 38.4487 152.456C37.7636 152.996 37.0912 153.549 36.275 153.92C36.0085 154.047 35.9113 154.481 35.6702 154.688C35.0147 155.257 34.4142 155.882 33.8518 156.544C33.2766 157.194 32.693 157.823 32.0544 158.413C31.6231 158.806 31.2213 159.24 30.8492 159.692C30.7265 159.84 30.7096 160.105 30.5701 160.207C29.9865 160.633 29.4451 161.063 29.2844 161.831C29.2337 162.067 29.0011 162.371 28.7896 162.456C28.206 162.692 27.9481 163.211 27.6182 163.662C27.2122 164.185 26.8443 164.742 26.4552 165.282C25.6517 165.514 25.8547 166.405 25.4318 166.907C24.9878 167.417 24.7721 168.071 24.5395 168.721C24.2519 169.502 23.7698 170.24 23.3469 170.987C22.8944 171.746 22.7041 172.594 22.4377 173.413C22.0402 174.544 21.2874 175.586 21.2789 176.843C21.2789 176.944 21.2197 177.113 21.1521 177.143C20.7588 177.299 20.763 177.691 20.67 177.999C20.2936 179.185 19.7607 180.354 19.7946 181.632C19.8157 181.923 19.6677 182.231 19.6 182.531C19.5324 182.83 19.4816 183.138 19.3843 183.43C19.2871 183.725 19.0037 184.054 19.0799 184.286C19.1856 184.624 19.0672 184.881 19.0376 185.172C19.0249 185.299 18.8811 185.408 18.8261 185.539C18.7542 185.708 18.6781 185.889 18.6696 186.071C18.6358 186.434 18.9445 186.847 18.7077 187.138C18.399 187.518 18.7373 187.868 18.6062 188.231C18.4836 188.585 18.4793 188.991 18.4582 189.374C18.4371 189.645 18.4455 189.919 18.3905 190.18C18.3313 190.459 18.1453 190.72 18.1283 190.995C18.1156 191.248 18.0818 191.442 18.0734 191.746C18.0734 192.071 18.0818 192.4 18.1495 192.703C18.2594 193.18 18.0353 193.914 18.0015 194.568C17.993 194.682 18.0226 194.771 18.0522 194.851L18.103 194.965L18.1283 195.024C18.1537 195.024 18.196 195.011 18.2298 195.007C18.3863 194.982 18.6274 194.944 18.6443 194.99C18.8261 195.353 19.655 195.113 20.1498 195.172C21.3635 195.286 21.9936 194.948 22.7675 195.391C22.8521 195.442 23.0424 195.446 23.0974 195.391C23.4823 195.024 23.9517 195.218 24.383 195.18C25.6433 195.07 26.9331 195.395 28.1807 194.965C28.3287 194.914 28.5359 195.003 28.7135 195.037C28.8869 195.075 29.0518 195.142 29.2252 195.172C30.0372 195.315 30.8492 194.817 31.6654 195.172C31.7161 195.193 31.8345 195.172 31.8684 195.13C32.101 194.826 32.4308 195.011 32.7099 194.952C33.3908 194.817 34.0082 195.176 34.6722 195.176H41.9884C42.2083 195.172 42.4789 195.197 42.6312 195.087C42.868 194.923 42.9695 194.999 43.2021 195.1C44.2974 195.568 45.4942 195.509 46.6107 195.349C47.4607 195.231 48.2346 195.062 49.0635 195.383C49.2918 195.471 49.6344 195.484 49.8501 195.383C50.7931 194.94 51.7785 195.281 52.7385 195.189C52.9246 195.172 53.2417 195.433 53.3052 195.37C53.7069 194.995 54.1763 195.227 54.6035 195.184C55.0179 195.142 55.4408 195.163 55.8595 195.18C56.2655 195.197 56.7518 195.117 57.0563 195.307C57.5426 195.611 57.8048 195.108 58.1854 195.176C58.2235 195.184 58.2785 195.159 58.2954 195.176C58.7521 195.674 59.1454 195.214 59.5641 195.096C59.6952 195.058 59.877 194.927 59.9447 194.973C60.4395 195.277 60.9343 195.446 61.501 195.172C62.0676 195.623 62.7358 195.362 63.349 195.378C64.9857 195.421 66.6265 195.391 68.2631 195.391C69.8998 195.391 71.5406 195.421 73.1772 195.383C74.7843 195.345 76.3913 195.248 77.9983 195.163C78.2055 195.151 78.4085 195.028 78.62 195.02C79.0555 195.003 79.4911 195.016 79.9225 195.041C80.172 195.058 80.4892 195.239 80.6541 195.146C81.2589 194.8 81.8974 195.007 82.5149 194.948C83.0223 194.897 83.551 195.066 84.0288 194.737C84.1557 194.649 84.4687 194.649 84.5786 194.737C84.9804 195.07 85.4371 194.919 85.8685 194.94C86.4774 194.965 87.0864 194.935 87.6954 194.948C88.3255 194.965 88.8964 194.687 89.5435 194.699C91.8652 194.754 94.1911 194.695 96.5171 194.733C97.4771 194.75 98.4624 194.509 99.4013 194.931C99.5028 194.978 99.6761 194.881 99.8157 194.851C99.9468 194.822 100.15 194.716 100.196 194.758C100.518 195.087 100.911 194.931 101.266 194.935L105.609 194.948C106.117 194.952 106.637 194.834 107.128 195.146C107.271 195.239 107.631 195.206 107.762 195.092C108.007 194.881 108.257 194.957 108.506 194.944C108.925 194.927 109.348 194.91 109.762 194.944C110.189 194.982 110.617 195.163 111.039 195.142C112.304 195.087 113.56 195.163 114.841 194.99C115.662 194.876 116.499 194.855 117.341 194.872C118.419 194.902 119.502 194.931 120.576 194.961H120.669C120.669 194.961 120.673 194.91 120.677 194.889V194.725C120.686 194.615 120.69 194.509 120.682 194.4C120.669 194.176 120.627 193.931 120.5 193.657L120.529 193.674Z" fill="#E37354"/>
<path d="M96.9697 177.498C114.506 179.897 131.951 170.715 140.384 154.652L119.419 143.635C115.642 150.831 107.954 154.959 100.287 153.91L96.9733 177.498H96.9697Z" fill="#E37354"/>
<path d="M99.9688 178.291C100.884 178.345 101.633 178.309 102.378 178.37C102.494 178.378 102.624 178.522 102.773 178.522C103.066 178.519 103.362 178.566 103.659 178.566C103.952 178.559 104.245 178.533 104.524 178.436C105.132 178.218 105.736 178.161 106.333 178.237C106.901 178.327 107.44 178.182 107.99 178.15C108.174 178.135 108.359 178.139 108.536 177.951C108.666 177.813 108.927 177.763 109.158 177.94C109.202 177.972 109.278 177.922 109.335 177.893C109.397 177.864 109.458 177.766 109.513 177.784C110.106 178.041 110.613 177.658 111.166 177.618C111.304 177.607 111.43 177.484 111.589 177.665C111.629 177.712 111.763 177.69 111.792 177.632C111.868 177.48 111.966 177.433 112.092 177.404C112.646 177.281 113.207 177.187 113.746 176.999C114.086 177.184 114.353 176.974 114.639 176.883C114.853 176.818 115.037 176.659 115.236 176.543C115.435 176.428 115.721 176.522 115.851 176.229C115.873 176.182 115.978 176.229 116.039 176.211C116.318 176.156 116.622 176.131 116.835 175.946C116.948 175.852 117.056 175.762 117.183 175.711C117.993 175.382 118.818 175.089 119.621 174.734L121.991 173.606C122.128 173.537 122.248 173.454 122.461 173.515C122.628 173.562 122.874 173.428 122.921 173.258C122.993 172.983 123.192 172.965 123.351 172.86C123.641 172.669 123.959 172.524 124.245 172.332C124.415 172.22 124.686 172.224 124.697 171.898C124.697 171.865 124.755 171.833 124.787 171.847C124.954 171.905 125.059 171.858 125.142 171.779C125.222 171.692 125.279 171.576 125.363 171.496C125.486 171.381 125.623 171.294 125.847 171.301C126.065 171.308 126.318 171.16 126.376 170.954C126.455 170.679 126.651 170.617 126.817 170.502C127.823 169.847 128.727 169.054 129.682 168.334C129.907 168.161 130.167 168.034 130.42 167.897C130.659 167.741 130.894 167.578 131.072 167.347C131.155 167.238 131.336 167.213 131.296 166.985C131.289 166.938 131.383 166.88 131.448 166.887C131.68 166.909 131.748 166.753 131.875 166.627C132.157 166.341 132.428 166.041 132.718 165.762C133 165.476 133.271 165.183 133.601 164.955C134.111 164.594 134.48 164.112 134.925 163.696C135.069 163.555 135.124 163.327 135.225 163.146C135.33 162.973 135.464 162.824 135.598 162.676C135.677 162.586 135.71 162.459 135.902 162.466C136.006 162.466 136.13 162.35 136.122 162.253C136.09 161.927 136.314 161.786 136.462 161.594L137.106 160.78C137.323 160.509 137.504 160.212 137.696 159.926C137.79 159.785 137.989 159.691 137.881 159.431C137.866 159.395 137.982 159.358 138.036 159.319C138.094 159.279 138.195 159.25 138.195 159.188C138.195 158.646 138.604 158.356 138.85 157.973C139.143 157.502 139.4 157.01 139.686 156.537L140.156 155.719C140.319 155.429 140.482 155.14 140.63 154.858C140.674 154.778 140.731 154.699 140.797 154.615C140.822 154.576 140.887 154.525 140.883 154.496L140.811 154.42C140.717 154.315 140.605 154.203 140.428 154.116C140.084 153.95 139.765 153.758 139.422 153.595C139.306 153.541 139.183 153.45 139.078 153.4C138.984 153.356 138.879 153.338 138.738 153.4C138.662 153.432 138.532 153.364 138.506 153.28C138.416 152.966 138.137 152.955 137.942 152.814C137.703 152.64 137.367 152.633 137.229 152.275C137.193 152.177 136.998 152.228 136.889 152.181C136.698 152.101 136.513 152.014 136.336 151.906C136.253 151.855 136.209 151.732 136.122 151.678C135.478 151.269 134.838 150.853 134.179 150.477C133.507 150.093 132.812 149.749 132.125 149.391C131.437 149.033 130.761 148.653 130.062 148.32C129.798 148.194 129.61 147.883 129.219 148.045C129.075 147.745 128.811 147.741 128.499 147.832C128.456 147.843 128.423 147.723 128.38 147.669C128.246 147.503 128.235 147.123 127.877 147.34C127.863 147.347 127.848 147.322 127.83 147.318C127.646 147.278 127.707 146.898 127.4 146.985C127.211 147.04 127.031 146.88 126.857 146.801C126.676 146.721 126.491 146.638 126.332 146.522C126.166 146.399 125.895 146.446 125.851 146.117C125.844 146.063 125.623 146.16 125.551 146.11C125.182 145.842 124.654 145.842 124.408 145.35C124.35 145.238 124.205 145.169 124.078 145.176C123.622 145.202 123.355 144.923 123.04 144.659C122.624 144.312 122.143 144.011 121.528 144.069C121.397 144.084 121.329 144.109 121.285 143.95C121.271 143.899 121.235 143.859 121.188 143.831C121.141 143.802 121.094 143.78 121.021 143.744L119.943 143.176L119.404 142.893C119.317 142.85 119.22 142.789 119.136 142.763L118.984 143.027L118.38 144.08L118.08 144.605L117.845 144.952C117.675 145.202 117.729 145.585 117.472 145.791C117.371 145.878 117.378 146.074 117.136 146.027C117.103 146.019 117.056 146.052 117.052 146.081C117.02 146.529 116.51 146.602 116.354 146.953C116.318 147.025 116.304 147.116 116.267 147.188C116.231 147.264 116.217 147.376 116.141 147.405C115.83 147.51 115.623 147.709 115.432 147.93C115.229 148.139 115.041 148.364 114.806 148.534C114.643 148.646 114.581 148.903 114.278 148.82C114.23 148.805 114.165 148.863 114.162 148.914C114.107 149.369 113.662 149.413 113.442 149.695C113.33 149.847 113.058 149.811 113.08 150.118C113.08 150.158 113.008 150.176 112.961 150.187C112.877 150.205 112.765 150.176 112.707 150.223C112.545 150.354 112.44 150.603 112.241 150.636C111.991 150.665 111.828 150.806 111.64 150.911C111.532 150.969 111.485 151.135 111.387 151.225C111.296 151.309 111.177 151.356 111.072 151.417C110.916 151.497 110.728 151.533 110.609 151.66C110.479 151.79 110.236 151.602 110.146 151.855C110.074 152.047 109.82 151.898 109.657 151.931C109.578 151.949 109.509 152.007 109.444 152.065C109.393 152.108 109.372 152.21 109.317 152.228C109.191 152.26 109.089 152.354 108.916 152.296C108.796 152.257 108.692 152.459 108.568 152.528C108.445 152.597 108.304 152.618 108.171 152.662C108.037 152.705 107.906 152.799 107.769 152.778C107.165 152.698 106.658 152.966 106.101 153.06C105.96 153.085 105.783 153.031 105.7 153.273C105.685 153.317 105.602 153.331 105.558 153.313C104.98 153.063 104.473 153.425 103.92 153.349C103.529 153.302 103.156 153.226 102.762 153.237C102.57 153.248 102.375 153.27 102.183 153.273C102.085 153.273 101.991 153.273 101.894 153.262C101.846 153.259 101.799 153.248 101.752 153.241C101.713 153.233 101.619 153.208 101.553 153.19C101.079 153.052 100.526 152.915 100.07 152.933C99.9616 152.937 99.8313 152.908 99.6902 152.864L99.4695 152.792L99.3574 152.756C99.3321 152.741 99.332 152.756 99.3248 152.77L99.3067 152.803C99.2199 152.98 99.1656 153.233 99.3103 153.628C99.2416 154.113 99.1584 154.597 99.1077 155.089L99.086 155.245L99.0643 155.372C99.0499 155.437 99.039 155.498 99.0318 155.563C99.0173 155.694 99.0318 155.824 99.1294 155.965C99.1982 156.066 99.1692 156.243 99.0788 156.33C98.793 156.616 98.8183 156.931 98.8943 157.271C98.9124 157.351 98.7821 157.43 98.7677 157.517C98.717 157.781 98.6591 158.049 98.6555 158.32C98.6446 159.127 98.2648 159.872 98.1526 160.661C98.1309 160.806 97.9247 160.943 97.9536 161.077C98.1418 161.902 97.7185 162.662 97.7836 163.465C97.8777 164.648 97.534 165.769 97.429 166.92C97.4146 167.068 97.5882 167.253 97.5231 167.318C97.3169 167.513 97.429 167.785 97.2735 167.947C96.9913 168.244 97.1034 168.591 96.9985 168.91C96.9225 169.141 97.0455 169.416 96.7453 169.597C96.7019 169.622 96.6982 169.706 96.7236 169.753C96.9262 170.136 96.5029 170.426 96.5752 170.787C96.1773 171.399 96.293 172.101 96.1338 172.755C96.1085 172.853 96.0289 172.936 95.9819 173.027C95.9566 173.074 95.9059 173.124 95.924 173.168C96.1628 173.816 95.8227 174.402 95.8263 175.02C95.8263 175.226 95.8878 175.436 95.8914 175.639C95.8951 175.845 95.7865 176.044 95.9602 176.261C96.0144 176.33 95.9674 176.442 95.9312 176.525C95.7323 176.974 96.1085 177.383 96.7923 177.484C97.0383 177.52 97.0673 177.426 97.1722 177.339C97.3784 177.169 97.5195 176.992 97.534 176.753C97.5448 176.569 97.4978 176.355 97.7547 176.225C97.7981 176.203 97.8017 176.116 97.7764 176.069C97.6099 175.726 97.827 175.393 97.7257 175.075C97.6461 174.829 97.704 174.622 97.6895 174.398C97.6787 174.21 97.8306 174.036 97.6389 173.823C97.5738 173.75 97.7872 173.595 97.8162 173.468C97.8813 173.168 97.9355 172.864 97.9464 172.56C97.979 171.627 98.4565 170.773 98.4963 169.843C98.8943 169.232 98.7098 168.512 98.9522 167.879C99.2452 167.115 99.2561 166.312 99.4478 165.534C99.4876 165.375 99.4985 165.245 99.4406 165.089C99.4044 164.988 99.361 164.883 99.3718 164.785C99.4116 164.409 99.4912 164.036 99.5166 163.66C99.531 163.458 99.7155 163.255 99.4551 163.038C99.4189 163.009 99.437 162.918 99.4768 162.882C99.8096 162.593 99.683 162.213 99.7698 161.873C99.8024 161.743 99.8096 161.616 99.7264 161.46C99.6359 161.29 99.683 161.052 99.8096 160.903C99.9037 160.791 99.9218 160.686 99.9616 160.57C100.124 160.1 99.9037 159.557 100.32 159.134C100.048 158.841 100.193 158.548 100.302 158.309C100.511 157.846 100.598 157.365 100.656 156.88L100.736 156.149L100.779 155.784C100.797 155.665 100.819 155.524 100.83 155.487C100.859 155.375 100.75 155.191 100.75 155.021C100.75 154.934 100.757 154.854 100.768 154.778L100.79 154.666L100.801 154.612C100.801 154.612 100.801 154.59 100.808 154.59L100.841 154.597C100.92 154.612 100.967 154.514 101.159 154.757C101.174 154.775 101.192 154.789 101.199 154.785C101.25 154.753 101.3 154.673 101.391 154.699C101.474 154.72 101.564 154.883 101.619 154.927C101.647 154.984 101.868 154.988 102.017 154.995C102.172 155.003 102.342 155.057 102.469 154.858C102.592 155.107 102.773 154.984 102.932 155.006C103.08 155.028 103.229 155.013 103.384 154.999L103.894 154.963C104.064 154.952 104.234 154.919 104.404 154.934C104.639 154.959 104.878 155.01 105.113 154.999C105.363 154.988 105.609 154.952 105.851 154.89C106.155 154.822 106.438 154.67 106.727 154.558C106.846 154.511 106.966 154.547 107.107 154.605C107.291 154.681 107.57 154.883 107.689 154.503C107.711 154.427 107.859 154.398 107.953 154.416C108.319 154.485 108.652 154.395 108.97 154.279C109.288 154.16 109.582 153.971 109.914 153.899C110.164 153.526 110.555 153.541 110.927 153.429C111.481 153.277 112.053 153.049 112.447 152.626C112.66 152.409 112.899 152.249 113.145 152.097C113.38 151.931 113.619 151.775 113.84 151.587C113.963 151.482 114.162 151.461 114.14 151.197C114.133 151.135 114.245 151.081 114.317 151.066C114.824 150.969 115.142 150.625 115.406 150.209C115.54 149.985 115.804 149.862 116.068 149.739C116.463 149.55 116.734 149.174 117.02 148.845C116.94 148.512 117.251 148.603 117.407 148.613C117.617 148.628 117.722 148.555 117.83 148.443C117.975 148.302 118.055 148.11 118.322 148.074C118.46 148.053 118.583 147.861 118.576 147.713C118.561 147.514 118.644 147.51 118.796 147.459C118.977 147.394 118.876 147.112 118.995 146.956C119.125 146.79 119.386 146.663 119.245 146.341C119.234 146.312 119.27 146.262 119.306 146.251C119.542 146.175 119.625 145.99 119.686 145.799L119.733 145.654C119.733 145.629 119.722 145.618 119.722 145.603C119.719 145.574 119.73 145.549 119.762 145.556C119.715 145.343 119.791 144.974 119.979 145.198L120.211 145.346L120.272 145.383L120.457 145.477C120.58 145.538 120.706 145.592 120.837 145.643C121.26 145.81 121.77 145.828 122.103 146.157C122.805 146.844 123.731 147.105 124.538 147.59C124.708 147.691 124.849 147.915 125.142 147.745C125.182 147.72 125.261 147.767 125.279 147.817C125.421 148.19 125.714 148.252 126.065 148.233C126.148 148.23 126.267 148.299 126.274 148.378C126.292 148.61 126.459 148.61 126.578 148.668C126.723 148.736 126.994 148.682 127.034 148.816C127.117 149.102 127.331 148.943 127.486 148.982C127.584 149.004 127.653 149.105 127.725 149.181C127.761 149.218 127.772 149.322 127.805 149.315C128.199 149.246 128.308 149.702 128.633 149.76C128.702 149.771 128.764 149.811 128.836 149.814C129.374 149.853 129.892 150.065 130.392 150.451C130.782 150.256 130.808 150.856 131.177 150.748C131.31 150.708 131.473 150.82 131.553 150.94C131.9 151.471 132.519 151.522 132.975 151.862C133.069 151.935 133.257 151.765 133.3 152.003C133.315 152.094 133.583 152 133.691 152.065C133.85 152.162 134.082 152.137 134.14 152.427C134.161 152.546 134.346 152.557 134.444 152.629C134.581 152.731 134.773 152.731 134.834 152.98C134.867 153.114 135.059 153.219 135.192 153.186C135.757 153.056 135.956 153.545 136.253 153.852C136.343 153.946 136.401 154.015 136.542 154.026C136.737 154.037 137.001 154.055 137.07 154.221C137.197 154.511 137.443 154.55 137.649 154.67C137.826 154.775 138.014 154.869 138.199 154.963L138.326 155.024C138.347 155.035 138.365 155.05 138.38 155.064C138.412 155.1 138.47 155.111 138.514 155.136C138.535 155.151 138.55 155.165 138.546 155.183C138.557 155.198 138.474 155.238 138.412 155.263C138.253 155.335 138.17 155.292 138.47 155.397C138.499 155.411 138.315 155.39 138.311 155.393L138.293 155.415L138.282 155.426L138.228 155.52L138.011 155.893C137.866 156.142 137.729 156.392 137.595 156.649C137.537 156.768 137.721 157.057 137.439 157.025C137.143 156.989 137.501 157.387 137.175 157.304C137.128 157.293 137.063 157.394 137.056 157.463C136.951 158.204 136.343 158.635 136.028 159.25C135.952 159.398 135.746 159.478 135.883 159.742C135.388 159.89 135.576 160.621 134.95 160.65C134.823 160.932 134.433 161.026 134.498 161.45C134.509 161.518 134.386 161.551 134.386 161.623C134.393 161.866 133.955 161.645 134.006 161.981C134.02 162.079 133.973 162.159 133.912 162.235C133.843 162.307 133.756 162.372 133.695 162.445C133.579 162.578 133.456 162.701 133.337 162.832L132.942 163.255C132.812 163.396 132.693 163.552 132.544 163.675C132.244 163.928 131.85 164.069 131.632 164.416C131.611 164.456 131.531 164.478 131.484 164.456C131.097 164.257 131.115 164.55 131.101 164.727C131.086 164.876 131.05 164.973 130.96 165.057C130.71 165.277 130.457 165.494 130.229 165.737C130.095 165.881 129.852 165.925 129.885 166.247C129.896 166.345 129.766 166.442 129.664 166.457C129.19 166.547 128.944 166.92 128.59 167.159C128.427 167.264 128.282 167.39 128.138 167.517C128.025 167.611 127.805 167.564 127.794 167.788C127.414 167.879 127.117 168.078 126.839 168.309C126.564 168.541 126.278 168.761 125.974 168.953C125.363 169.322 124.784 169.742 124.198 170.158C124.053 170.263 123.807 170.241 123.811 170.556C123.811 170.614 123.698 170.675 123.637 170.65C123.471 170.574 123.362 170.549 123.362 170.776C123.362 170.82 123.253 170.831 123.188 170.824C123.007 170.802 122.899 170.878 122.819 171.041C122.754 171.167 122.638 171.287 122.512 171.297C122.164 171.319 121.853 171.348 121.716 171.757C121.698 171.808 121.521 171.699 121.466 171.739C121.246 171.894 120.931 171.873 120.79 172.187C120.732 172.314 120.555 172.325 120.442 172.405C120.251 172.546 119.983 172.506 119.798 172.69C119.61 172.878 119.335 172.933 119.1 173.049C118.865 173.164 118.63 173.28 118.38 173.367L117.646 173.653L116.911 173.939L116.177 174.224C115.934 174.322 115.688 174.416 115.435 174.488C115.262 174.546 115.106 174.622 114.965 174.781C114.596 175.183 114.028 175.317 113.297 175.313C113.243 175.313 113.196 175.342 113.145 175.357C112.82 175.469 112.479 175.516 112.147 175.592C111.81 175.664 111.481 175.744 111.155 175.852C110.869 175.95 110.602 176.135 110.298 176.182C110.099 176.211 109.918 176.301 109.69 176.167C109.502 176.048 109.31 176.326 109.079 176.102C108.992 176.019 108.811 176.051 108.728 176.138C108.456 176.435 108.113 176.348 107.798 176.417C107.436 176.493 107.071 176.54 106.705 176.576C106.524 176.59 106.351 176.677 106.148 176.482C106.05 176.384 105.841 176.471 105.714 176.565C105.522 176.713 105.312 176.703 105.117 176.656C104.697 176.558 104.701 176.533 104.299 176.717C104.252 176.739 104.198 176.742 104.147 176.746C103.894 176.76 103.637 176.811 103.384 176.822C103.127 176.826 102.874 176.815 102.628 176.746C102.215 176.63 101.818 176.616 101.409 176.605C101.246 176.601 101.065 176.475 100.917 176.746C100.895 176.786 100.805 176.779 100.765 176.746C100.602 176.594 100.428 176.561 100.247 176.554C100.07 176.54 99.8892 176.558 99.7119 176.54C99.3718 176.504 99.0788 176.232 98.7279 176.258C98.3986 176.283 98.0694 176.207 97.7402 176.174C97.2409 176.131 97.1107 176.279 97.013 177.014C96.9298 177.622 97.0419 177.763 97.4471 177.933C98.3046 178.291 99.2271 178.171 99.9435 178.32L99.9688 178.291Z" fill="#E37354"/>
<path d="M152.682 141.658C152.695 141.379 152.649 141.096 152.598 140.818C152.518 140.48 152.479 140.113 152.441 139.755C152.416 139.383 152.26 139.054 152.15 138.712C152.065 138.476 152.04 138.219 151.951 137.978C151.871 137.738 151.777 137.497 151.634 137.291C151.613 137.257 151.587 137.185 151.596 137.16C151.638 137.016 151.562 136.881 151.494 136.763C151.376 136.531 151.274 136.286 151.164 136.05C151.109 135.932 151.05 135.814 150.987 135.7C150.911 135.59 150.83 135.489 150.741 135.392C150.661 135.303 150.606 135.173 150.538 135.063C150.471 134.953 150.399 134.843 150.34 134.729C150.285 134.611 150.234 134.455 150.154 134.4C150.039 134.32 149.984 134.219 149.908 134.122C149.874 134.08 149.87 134.016 149.841 133.966C149.807 133.898 149.764 133.827 149.718 133.772C149.616 133.658 149.456 133.59 149.401 133.459C149.337 133.282 149.172 133.257 149.084 133.126C148.999 132.995 148.872 132.886 148.762 132.763C148.686 132.679 148.606 132.599 148.53 132.519C148.449 132.43 148.398 132.32 148.31 132.24C148.157 132.105 148.022 131.957 147.84 131.848C147.696 131.755 147.565 131.586 147.413 131.464C147.358 131.422 147.282 131.405 147.214 131.371C147.176 131.35 147.117 131.32 147.109 131.299C147.049 131.126 146.859 131.067 146.736 130.953C146.487 130.742 146.136 130.654 145.933 130.379C145.912 130.35 145.84 130.303 145.81 130.308C145.713 130.308 145.633 130.274 145.552 130.223C145.468 130.181 145.387 130.13 145.303 130.097C144.808 129.89 144.356 129.548 143.802 129.498C143.738 129.489 143.662 129.434 143.599 129.401C143.535 129.367 143.472 129.325 143.408 129.287C143.1 129.109 142.715 129.185 142.41 128.995C142.389 128.983 142.338 128.979 142.326 128.987C142.207 129.046 142.085 128.958 141.966 128.945C141.679 128.907 141.433 128.789 141.154 128.738C140.896 128.704 140.643 128.645 140.38 128.628L139.602 128.586C139.078 128.544 138.575 128.561 138.063 128.552C137.97 128.552 137.86 128.544 137.792 128.574C137.695 128.62 137.648 128.599 137.551 128.569C137.094 128.434 136.591 128.451 136.126 128.489C135.771 128.523 135.445 128.565 135.098 128.472C135.001 128.447 134.857 128.443 134.768 128.472C134.371 128.595 133.961 128.498 133.559 128.519C133.479 128.523 133.347 128.447 133.322 128.468C133.153 128.574 132.958 128.506 132.777 128.519C132.603 128.531 132.426 128.523 132.252 128.519C132.083 128.515 131.876 128.536 131.753 128.481C131.55 128.392 131.44 128.536 131.279 128.514C131.263 128.514 131.241 128.514 131.233 128.514C131.043 128.375 130.878 128.502 130.704 128.536C130.649 128.544 130.573 128.582 130.544 128.569C130.336 128.481 130.129 128.434 129.892 128.51C129.656 128.379 129.376 128.451 129.118 128.447C128.433 128.43 127.748 128.434 127.059 128.43C126.721 128.422 126.37 128.43 126.019 128.451C125.668 128.477 125.317 128.46 124.97 128.527L123.951 128.704C123.617 128.776 123.287 128.89 122.957 128.979C122.872 129.004 122.796 129.059 122.712 129.08C122.53 129.122 122.361 129.194 122.183 129.244C122.081 129.278 121.938 129.274 121.878 129.32C121.671 129.506 121.388 129.519 121.16 129.658C120.973 129.763 120.749 129.814 120.606 129.987C120.567 130.033 120.449 130.088 120.394 130.088C120.195 130.071 120.043 130.202 119.887 130.295L119.218 130.692C118.982 130.818 118.842 131.042 118.614 131.194L118.017 131.624L117.468 132.114C117.091 132.43 116.766 132.797 116.431 133.156C116.14 133.438 115.966 133.831 115.624 134.071C115.586 134.097 115.565 134.173 115.535 134.223C115.51 134.274 115.48 134.358 115.459 134.367C115.294 134.417 115.256 134.594 115.171 134.721L114.685 135.506L114.275 136.333C114.177 136.527 114.106 136.734 113.962 136.898C113.915 136.945 113.869 137.092 113.881 137.156C113.903 137.274 113.843 137.367 113.81 137.468C113.755 137.637 113.691 137.805 113.623 137.966C113.568 138.139 113.471 138.299 113.429 138.476L113.234 139.261C113.196 139.527 113.158 139.797 113.141 140.067C113.129 140.24 113.112 140.417 113.091 140.59C113.086 140.767 113.078 140.944 113.065 141.122C113.048 141.476 112.989 141.835 113.002 142.185C113.002 142.341 112.985 142.48 113.061 142.615C113.082 142.653 113.095 142.75 113.082 142.771C113.01 142.885 113.057 143.016 113.057 143.134C113.04 143.392 113.099 143.636 113.154 143.885C113.209 144.13 113.268 144.375 113.31 144.619C113.357 144.881 113.437 145.134 113.497 145.392C113.568 145.645 113.611 145.911 113.708 146.159L113.974 146.911C114.021 147.033 114.059 147.164 114.114 147.286L114.283 147.645C114.359 147.809 114.457 147.957 114.473 148.164C114.486 148.32 114.609 148.552 114.74 148.657C114.867 148.771 114.943 148.894 115.011 149.024C115.104 149.202 115.129 149.421 115.323 149.535C115.345 149.543 115.378 149.59 115.378 149.611C115.383 149.801 115.552 149.932 115.653 150.079C115.835 150.328 116.009 150.581 116.22 150.805C116.33 150.931 116.461 151.033 116.52 151.214C116.558 151.328 116.723 151.51 116.833 151.56C116.977 151.623 117.066 151.712 117.163 151.805C118.284 152.877 119.582 153.771 121.007 154.396L121.324 154.573C121.532 154.687 121.79 154.746 122.026 154.826C122.077 154.843 122.162 154.843 122.183 154.868C122.331 155.033 122.559 155.02 122.745 155.087C122.931 155.159 123.113 155.244 123.308 155.294C123.435 155.328 123.566 155.374 123.697 155.404C123.828 155.425 123.963 155.429 124.094 155.395C124.593 155.471 125.088 155.568 125.596 155.573C125.714 155.577 125.807 155.594 125.9 155.649C125.934 155.67 126.057 155.674 126.082 155.653C126.188 155.577 126.319 155.619 126.442 155.619C126.924 155.594 127.414 155.687 127.888 155.568C127.93 155.556 127.998 155.594 128.057 155.602C128.112 155.611 128.184 155.628 128.218 155.611C128.391 155.53 128.628 155.539 128.755 155.585C128.932 155.649 129.089 155.64 129.25 155.636C129.732 155.623 130.21 155.64 130.696 155.602C131.208 155.56 131.749 155.573 132.286 155.644C132.777 155.712 133.305 155.661 133.813 155.67C133.94 155.67 134.054 155.619 134.155 155.615C134.811 155.602 135.462 155.615 136.265 155.615C136.904 155.585 137.691 155.67 138.473 155.568C138.697 155.539 138.82 155.505 138.887 155.433H138.959C138.959 155.433 138.972 155.433 138.981 155.433C138.968 155.45 138.959 155.467 138.959 155.497C138.959 155.763 139.285 155.919 139.716 155.847C139.797 155.834 139.902 155.817 139.957 155.839C140.139 155.906 140.334 155.881 140.52 155.86C140.706 155.847 140.892 155.855 141.078 155.839C141.361 155.809 141.645 155.771 141.92 155.695C142.195 155.623 142.474 155.56 142.761 155.552C142.799 155.552 142.85 155.522 142.892 155.505L143.138 155.391C143.704 155.151 144.347 155.049 144.838 154.657C145.146 154.556 145.375 154.307 145.696 154.227C145.738 154.218 145.802 154.18 145.819 154.151C145.937 153.957 146.17 153.889 146.352 153.763C146.601 153.598 146.876 153.467 147.066 153.21C147.172 153.071 147.392 152.978 147.51 152.805C147.548 152.75 147.713 152.725 147.815 152.632C148.208 152.282 148.618 151.948 148.957 151.543C149.134 151.349 149.312 151.155 149.498 150.965C149.671 150.767 149.836 150.56 150.018 150.37C150.141 150.24 150.255 150.096 150.365 149.953C150.471 149.805 150.555 149.64 150.648 149.484C150.826 149.164 151.046 148.868 151.245 148.564C151.312 148.467 151.317 148.299 151.371 148.181C151.532 147.851 151.672 147.518 151.769 147.168C151.866 146.818 152.002 146.484 152.116 146.138C152.192 145.906 152.247 145.666 152.302 145.425C152.319 145.345 152.302 145.252 152.327 145.185C152.458 144.911 152.505 144.628 152.463 144.328C152.446 144.236 152.471 144.075 152.513 143.999C152.577 143.894 152.606 143.78 152.627 143.662C152.64 143.544 152.636 143.425 152.644 143.307C152.666 143.029 152.678 142.75 152.691 142.472C152.873 142.206 152.661 141.944 152.678 141.67L152.682 141.658Z" fill="#EBA1B8"/>
<path d="M108.062 126.524C108.134 126.225 108.138 125.917 108.113 125.634C108.083 125.33 108.058 125.031 108.028 124.731C107.99 124.436 107.952 124.136 107.91 123.845C107.855 123.25 107.728 122.672 107.631 122.086C107.529 121.499 107.36 120.925 107.212 120.339C107.022 119.765 106.836 119.178 106.582 118.605C105.948 117.145 105.186 115.752 104.324 114.423C104.281 113.761 104.214 113.103 104.205 112.445C104.184 111.242 103.892 110.023 104.155 108.833C104.201 108.613 104.163 108.17 104.066 108.04C103.791 107.668 103.863 107.208 103.829 106.791C103.711 105.208 103.524 103.614 103.533 102.048C103.541 100.529 102.856 99.099 103.207 97.5758C103.228 97.483 103.22 97.2889 103.186 97.2509C102.814 96.8459 102.928 96.2214 102.894 95.6982C102.831 94.7784 102.763 93.8797 102.865 92.9304C102.966 91.9853 102.738 90.9094 102.704 89.8967C102.687 89.4073 102.696 88.9221 102.704 88.4326L102.67 87.0656C102.649 86.5804 102.628 86.0952 102.607 85.61C102.564 84.8631 102.518 84.1163 102.476 83.3695L100.171 84.9096L98.0944 86.3188C97.7053 86.5888 97.3205 86.8251 96.9737 87.2302C96.6227 87.6479 95.9926 88.0824 95.3498 88.247C95.2144 88.2808 94.9649 88.3736 94.9438 88.4242C94.7112 88.9854 94.0811 89.2301 93.5947 89.5423C93.0661 89.8799 92.7193 90.3229 92.2626 90.6689C91.531 91.23 90.7063 91.6393 89.8859 92.0739C88.761 92.673 87.6699 93.4536 86.6338 94.2299C85.6527 94.9599 84.5447 95.3733 83.5678 96.2088C82.5275 97.099 81.2545 97.7994 80.0831 98.5927C77.9686 98.0863 75.8414 97.6602 73.6677 97.445C71.79 97.272 69.8827 97.1834 68.0008 97.2889C67.5526 97.3016 67.1043 97.3353 66.656 97.3817L65.3196 97.521C64.4316 97.656 63.5435 97.753 62.6596 97.9007C61.3994 98.0821 60.1476 98.3057 58.9 98.5716C58.3925 98.2931 57.8766 98.0273 57.3903 97.715C56.1935 96.9556 55.0263 96.1455 53.8506 95.3607C53.0006 94.7953 52.1632 94.2088 51.3005 93.6688C50.9537 93.4494 50.3194 93.3228 50.2221 93.1498C49.8753 92.5338 49.2156 92.3144 48.7039 91.9346C47.4986 91.0444 46.1665 90.382 44.9063 89.6014C43.8702 88.9643 42.851 88.2976 41.836 87.6183C40.4954 86.707 39.1506 85.7914 37.81 84.88L36.7189 84.1459C36.6174 85.8209 36.5159 87.496 36.4187 89.171C36.3425 90.2638 36.2241 91.3524 35.9915 92.4283C35.8647 93.0063 35.8943 93.6645 35.8562 94.2848C35.8097 94.9641 35.8731 95.7235 35.6913 96.2974C35.501 96.9092 35.6617 97.3775 35.6236 97.9049C35.3952 101.01 35.2388 104.124 34.9808 107.225C34.7863 109.563 34.7609 111.917 34.5072 114.255C33.5852 115.698 32.7775 117.221 32.1178 118.811C31.1536 121.191 30.5404 123.723 30.3331 126.288C30.1428 128.87 30.4473 131.486 31.0943 133.988C31.7625 136.49 32.7902 138.87 33.987 141.152C34.5833 142.245 35.4375 143.346 36.2876 144.346C37.1883 145.473 38.3936 146.511 39.1802 147.46C39.62 147.945 40.0471 148.325 40.4827 148.65C40.9268 148.967 41.3539 149.258 41.7937 149.604C43.0963 150.591 44.4538 151.498 45.862 152.321C47.283 153.118 48.725 153.878 50.2263 154.506C53.2078 155.814 56.333 156.734 59.5005 157.418C62.63 158.063 65.8356 158.329 69.0285 158.346C72.2256 158.371 75.41 158.101 78.5902 157.709C80.3918 157.477 82.4936 157.046 84.0964 156.165C84.8915 155.971 85.6484 155.688 86.4054 155.414C87.1455 155.101 87.8898 154.806 88.6003 154.439C90.0424 153.755 91.4041 152.928 92.8039 152.127C94.4363 151.165 96.056 150.127 97.5573 148.941C99.0544 147.751 100.437 146.405 101.511 144.87C101.613 144.73 101.854 144.469 101.947 144.414C102.281 144.224 102.594 143.912 102.869 143.549C103.144 143.182 103.406 142.785 103.685 142.448C103.897 142.165 104.104 141.878 104.303 141.591L104.599 141.157L104.861 140.705C105.03 140.401 105.199 140.098 105.368 139.798C105.512 139.486 105.66 139.174 105.804 138.861L106.015 138.393L106.197 137.912L106.552 136.954L106.853 135.98L107.005 135.494L107.132 135.001C107.212 134.684 107.292 134.368 107.373 134.047C107.432 133.722 107.495 133.397 107.555 133.073C107.694 132.423 107.737 131.752 107.83 131.094C107.889 130.263 107.863 129.423 107.737 128.697C107.673 128.263 107.576 128.035 107.466 127.959C107.466 127.946 107.466 127.938 107.466 127.925C107.466 127.9 107.466 127.874 107.466 127.849C107.576 127.756 107.69 127.579 107.8 127.351C107.91 127.119 108.007 126.836 108.079 126.537L108.062 126.524Z" fill="#EBA1B8"/>
<path d="M25.0511 115.44C25.0638 115.364 25.0934 115.293 25.1315 115.221C25.326 114.892 25.7489 114.778 26.083 114.972C26.9373 115.461 27.1952 116.056 27.4024 116.529C27.5716 116.917 27.6858 117.174 28.1383 117.436C28.5908 117.698 28.8741 117.668 29.297 117.617C29.8172 117.558 30.46 117.487 31.3143 117.98C32.1685 118.47 32.4223 119.06 32.6295 119.537C32.7986 119.925 32.9128 120.183 33.3653 120.444C33.8178 120.706 34.1012 120.676 34.5241 120.626C35.0442 120.567 35.6871 120.495 36.5413 120.984C37.3956 121.474 37.6493 122.065 37.8565 122.541C38.0257 122.929 38.1399 123.187 38.5924 123.448C38.9265 123.638 39.0407 124.064 38.8461 124.394C38.6516 124.723 38.2287 124.837 37.8946 124.643C37.0403 124.153 36.7866 123.562 36.5794 123.086C36.4102 122.697 36.296 122.44 35.8435 122.178C35.391 121.917 35.1077 121.946 34.6848 121.997C34.1646 122.056 33.5218 122.128 32.6675 121.638C31.8133 121.149 31.5596 120.558 31.3523 120.081C31.1832 119.693 31.069 119.436 30.6165 119.174C30.164 118.913 29.8806 118.942 29.4577 118.993C28.9376 119.052 28.2948 119.124 27.4405 118.63C26.5862 118.141 26.3283 117.546 26.1211 117.073C25.9519 116.685 25.8377 116.428 25.3852 116.166C25.123 116.014 24.9961 115.719 25.0469 115.44H25.0511Z" fill="#1D4C5C"/>
<path d="M23.0763 134.562C23.0256 134.503 22.9875 134.435 22.9621 134.359C22.8353 134.001 23.0214 133.604 23.385 133.473C24.3112 133.14 24.9329 133.326 25.4277 133.473C25.8336 133.596 26.1043 133.676 26.5991 133.499C27.0939 133.321 27.2504 133.085 27.4872 132.731C27.779 132.3 28.1384 131.76 29.0646 131.427C29.9907 131.094 30.6082 131.279 31.1072 131.427C31.5132 131.549 31.7838 131.63 32.2786 131.452C32.7734 131.275 32.9299 131.043 33.1667 130.689C33.4585 130.258 33.818 129.718 34.7441 129.385C35.6703 129.052 36.2877 129.237 36.7867 129.385C37.1927 129.507 37.4634 129.587 37.9582 129.41C38.3219 129.279 38.7152 129.465 38.8463 129.828C38.9731 130.187 38.7871 130.583 38.4234 130.714C37.4972 131.047 36.8798 130.862 36.3808 130.714C35.9748 130.592 35.7041 130.511 35.2093 130.689C34.7145 130.866 34.5581 131.098 34.3212 131.452C34.0294 131.883 33.67 132.423 32.7438 132.756C31.8177 133.089 31.2002 132.904 30.7012 132.756C30.2952 132.634 30.0246 132.554 29.5298 132.731C29.035 132.908 28.8785 133.14 28.6417 133.494C28.3499 133.925 27.9904 134.465 27.0643 134.798C26.1381 135.132 25.5207 134.946 25.0217 134.798C24.6157 134.676 24.345 134.596 23.8502 134.773C23.5669 134.874 23.2582 134.781 23.0763 134.562Z" fill="#1D4C5C"/>
<path d="M113.213 115.44C113.201 115.364 113.171 115.293 113.133 115.221C112.939 114.892 112.516 114.778 112.182 114.972C111.327 115.461 111.069 116.056 110.862 116.529C110.693 116.917 110.579 117.174 110.126 117.436C109.674 117.698 109.39 117.668 108.967 117.617C108.447 117.558 107.805 117.487 106.95 117.98C106.096 118.47 105.842 119.06 105.635 119.537C105.466 119.925 105.352 120.183 104.899 120.444C104.447 120.706 104.163 120.676 103.74 120.626C103.22 120.567 102.577 120.495 101.723 120.984C100.869 121.474 100.615 122.065 100.408 122.541C100.239 122.929 100.125 123.187 99.6722 123.448C99.3381 123.638 99.2239 124.064 99.4184 124.394C99.6129 124.723 100.036 124.837 100.37 124.643C101.224 124.153 101.478 123.562 101.685 123.086C101.854 122.697 101.968 122.44 102.421 122.178C102.874 121.917 103.157 121.946 103.58 121.997C104.1 122.056 104.743 122.128 105.597 121.638C106.451 121.149 106.705 120.558 106.912 120.081C107.081 119.693 107.196 119.436 107.648 119.174C108.101 118.913 108.384 118.942 108.807 118.993C109.327 119.052 109.97 119.124 110.824 118.63C111.678 118.141 111.936 117.546 112.143 117.073C112.313 116.685 112.427 116.428 112.879 116.166C113.142 116.014 113.268 115.719 113.218 115.44H113.213Z" fill="#1D4C5C"/>
<path d="M115.188 134.562C115.239 134.503 115.277 134.435 115.303 134.359C115.429 134.001 115.243 133.604 114.88 133.473C113.954 133.14 113.332 133.326 112.837 133.473C112.431 133.596 112.16 133.676 111.666 133.499C111.171 133.321 111.014 133.085 110.778 132.731C110.486 132.3 110.126 131.76 109.2 131.427C108.274 131.094 107.657 131.279 107.158 131.427C106.752 131.549 106.481 131.63 105.986 131.452C105.491 131.275 105.335 131.043 105.098 130.689C104.806 130.258 104.447 129.718 103.521 129.385C102.594 129.052 101.977 129.237 101.478 129.385C101.072 129.507 100.801 129.587 100.307 129.41C99.9428 129.279 99.5495 129.465 99.4184 129.828C99.2916 130.187 99.4777 130.583 99.8413 130.714C100.767 131.047 101.385 130.862 101.884 130.714C102.29 130.592 102.561 130.511 103.055 130.689C103.55 130.866 103.707 131.098 103.943 131.452C104.235 131.883 104.595 132.423 105.521 132.756C106.447 133.089 107.064 132.904 107.563 132.756C107.969 132.634 108.24 132.554 108.735 132.731C109.23 132.908 109.386 133.14 109.623 133.494C109.915 133.925 110.274 134.465 111.2 134.798C112.127 135.132 112.744 134.946 113.243 134.798C113.649 134.676 113.92 134.596 114.414 134.773C114.698 134.874 115.007 134.781 115.188 134.562Z" fill="#1D4C5C"/>
<path d="M69.9589 128.752C72.8878 128.752 75.2621 126.957 75.2621 124.744C75.2621 122.53 72.8878 120.735 69.9589 120.735C67.0301 120.735 64.6558 122.53 64.6558 124.744C64.6558 126.957 67.0301 128.752 69.9589 128.752Z" fill="#1D4C5C"/>
<path d="M73.968 122.6C73.6635 122.288 73.304 122.01 72.9065 121.807C72.7627 121.723 72.6231 121.617 72.4286 121.63C72.3356 121.63 72.2256 121.478 72.0776 121.427C71.6801 121.296 71.2698 121.187 70.8469 121.14C70.4367 121.098 70.0265 121.115 69.6205 121.153C69.2188 121.178 68.7959 121.195 68.4322 121.339C68.1235 121.469 67.8105 121.478 67.523 121.621C67.2269 121.782 66.9224 121.946 66.6306 122.102C66.4107 122.208 66.2035 122.334 66.0428 122.507C65.9498 122.626 65.8863 122.752 65.7891 122.874C65.6918 122.984 65.548 123.09 65.5818 123.258C65.5818 123.271 65.5311 123.313 65.5015 123.334C65.3577 123.427 65.2816 123.613 65.2774 123.744C65.2858 123.879 65.2393 123.976 65.2139 124.085C65.1505 124.389 65.1209 124.697 65.1463 125.005C65.1632 125.233 65.1759 125.474 65.2477 125.701C65.3239 125.942 65.5015 126.149 65.5861 126.372C65.6791 126.596 65.8314 126.777 66.0047 126.942C66.0935 127.043 66.1908 127.178 66.3473 127.161C66.36 127.161 66.398 127.191 66.4107 127.216C66.6349 127.566 67.0704 127.617 67.413 127.798C67.7682 128.005 68.1827 128.106 68.5929 128.191C68.7028 128.212 68.8128 128.267 68.927 128.203C68.965 128.182 69.0835 128.191 69.1342 128.216C69.426 128.372 69.7643 128.317 70.0773 128.33C70.441 128.343 70.7962 128.262 71.1683 128.275C71.3291 128.288 71.5447 128.258 71.6927 128.102C71.7604 128.035 71.9423 128.035 72.0649 127.971C72.1622 127.925 72.2467 127.849 72.3398 127.803C72.4201 127.765 72.5216 127.765 72.6104 127.744C72.6358 127.739 72.6696 127.722 72.6908 127.706C73.0925 127.368 73.6 127.208 73.9426 126.807C74.2767 126.414 74.56 125.988 74.7249 125.516C74.7799 125.389 74.8011 125.25 74.8687 125.132C74.9237 125.009 74.9829 124.891 75.0971 124.794C75.1986 124.706 75.2959 124.697 75.3466 124.836C75.3804 124.938 75.4185 125.06 75.4143 125.182C75.3889 125.368 75.3931 125.571 75.3381 125.752C75.2663 126.136 75.1436 126.533 74.873 126.849C74.7799 126.938 74.7292 127.09 74.5938 127.111C74.5769 127.111 74.5389 127.149 74.5262 127.17C74.2682 127.672 73.748 127.946 73.2871 128.216C72.898 128.457 72.5174 128.727 72.0564 128.824C71.845 129.005 71.5363 129.064 71.2741 129.073C70.3564 129.123 69.4429 129.191 68.5421 128.997C67.6371 128.811 66.7533 128.457 65.9921 127.895C65.8652 127.798 65.7172 127.752 65.6072 127.596C65.5142 127.436 65.3154 127.309 65.1843 127.144C65.0617 126.997 64.9137 126.853 64.846 126.68C64.6853 126.334 64.5584 125.98 64.4442 125.621C64.3597 125.254 64.2835 124.874 64.3301 124.495C64.385 123.735 64.7191 123.031 65.1589 122.444C65.4211 122.081 65.7214 121.727 66.1062 121.486C66.2669 121.385 66.4065 121.221 66.6264 121.225C66.6898 121.225 66.7998 121.06 66.914 121.01C67.1846 120.866 67.4722 120.765 67.7598 120.664C68.1658 120.541 68.576 120.453 68.9946 120.389C69.1215 120.372 69.2484 120.343 69.371 120.318C69.4979 120.301 69.6248 120.28 69.7559 120.271C70.0265 120.242 70.3014 120.271 70.5678 120.292C70.737 120.318 70.9062 120.351 71.0753 120.385L71.5701 120.512C71.9084 120.605 72.2806 120.668 72.5808 120.837C73.1264 121.157 73.6931 121.431 74.1667 121.858C74.6361 122.28 75.0294 122.79 75.3085 123.372C75.3847 123.541 75.4185 123.714 75.4481 123.887C75.4566 124.064 75.4862 124.229 75.4946 124.406C75.5073 124.579 75.2536 124.79 75.1563 124.727C75.1394 124.714 75.1182 124.693 75.1098 124.668C75.0083 124.364 74.8518 124.128 74.7461 123.824C74.5981 123.364 74.3147 122.95 73.9637 122.596L73.968 122.6Z" fill="#1D4C5C"/>
<path d="M69.0242 132.296C69.0242 132.178 69.0369 132.06 69.0157 131.942C69.0073 131.9 69.1045 131.853 68.91 131.807C68.8127 131.786 69.0453 131.739 69.0326 131.701C69.0073 131.592 69.0411 131.478 69.0199 131.368C68.9988 131.258 68.9184 131.153 68.8931 131.047C68.8719 130.942 68.9777 130.832 68.8592 130.727C68.7577 130.638 68.9396 130.558 68.8973 130.474C68.8508 130.385 68.8212 130.288 68.91 130.199C68.9734 130.136 69.0495 130.073 69.0115 130.005C68.9861 129.967 68.8719 129.929 68.8804 129.883C68.8888 129.841 68.9861 129.798 68.7577 129.76C68.7408 129.76 68.7789 129.739 68.8127 129.731C68.9607 129.689 68.9523 129.634 68.8508 129.596C68.7535 129.562 68.7662 129.528 68.762 129.495C68.7493 129.402 68.7408 129.313 68.762 129.22C68.7789 129.153 68.8635 129.085 68.8846 129.018C68.9058 128.946 68.8043 128.87 68.9142 128.807C69.0242 128.739 69.0199 128.676 69.0199 128.613C69.0199 128.575 69.1257 128.533 68.8931 128.503C68.8719 128.503 68.8762 128.486 68.8931 128.482C69.1933 128.377 68.8 128.275 68.8719 128.17C68.948 128.06 68.8931 127.95 68.8846 127.836C68.8846 127.807 68.948 127.777 68.7831 127.748C68.7239 127.739 68.7197 127.706 68.762 127.693C68.9903 127.613 68.8508 127.524 68.8888 127.44C68.9311 127.343 68.8254 127.25 69.003 127.153C69.0791 127.111 69.1172 127.056 68.9058 127.01C68.8085 126.988 68.9058 126.942 68.8846 126.904C68.8677 126.874 68.7662 126.849 68.7662 126.82C68.7662 126.794 68.8508 126.769 68.8888 126.748C68.9015 126.739 68.9015 126.731 68.8888 126.723C68.6478 126.583 68.9692 126.444 68.9058 126.301C68.8381 126.157 68.8677 126.014 68.9015 125.875C68.9184 125.794 68.9861 125.714 69.4005 125.664C69.5866 125.638 69.7854 125.638 69.9038 125.672C69.9926 125.697 70.073 125.723 70.0941 125.752C70.1279 125.799 70.1787 125.841 70.2125 125.887C70.2844 125.976 70.4747 126.069 70.3732 126.161C70.3394 126.191 70.4493 126.225 70.2675 126.25C70.2421 126.25 70.2294 126.267 70.2421 126.271C70.5297 126.398 70.3394 126.524 70.3605 126.655C70.3775 126.765 70.6058 126.87 70.5085 126.976C70.7369 127.035 70.6946 127.107 70.627 127.166C70.3859 127.381 70.5466 127.596 70.517 127.811C70.4832 128.031 70.517 128.246 70.5043 128.465C70.5043 128.503 70.6312 128.533 70.5297 128.579C70.4367 128.621 70.5085 128.672 70.5085 128.718C70.5085 128.761 70.5593 128.807 70.5001 128.849C70.2633 129.018 70.4071 129.191 70.3775 129.364C70.3521 129.533 70.3309 129.706 70.3859 129.874C70.4197 129.98 70.5466 130.081 70.5001 130.187C70.4789 130.233 70.6016 130.279 70.3901 130.322C70.3309 130.334 70.4916 130.376 70.5001 130.406C70.517 130.478 70.5043 130.549 70.5043 130.621C70.5043 130.718 70.4874 130.82 70.5085 130.917C70.5212 130.976 70.61 131.035 70.6312 131.098C70.6523 131.161 70.6523 131.225 70.6312 131.288C70.6058 131.368 70.5255 131.448 70.5043 131.528C70.4832 131.613 70.5804 131.697 70.4832 131.777C70.2971 131.925 70.3901 132.073 70.369 132.22C70.3478 132.368 70.3309 132.511 70.3775 132.659C70.4028 132.744 70.221 132.819 70.221 132.9C70.221 132.938 69.6881 132.988 69.5063 132.971C69.4724 132.971 69.4344 132.963 69.4217 132.954C69.2525 132.874 68.9903 132.803 69.0073 132.71C69.0326 132.575 69.0157 132.44 69.0157 132.305L69.0242 132.296Z" fill="#1D4C5C"/>
<path d="M64.1269 117.466C65.1056 117.466 65.8989 116.67 65.8989 115.689C65.8989 114.708 65.1056 113.913 64.1269 113.913C63.1483 113.913 62.355 114.708 62.355 115.689C62.355 116.67 63.1483 117.466 64.1269 117.466Z" fill="#1D4C5C"/>
<path d="M66.0684 115.993C66.0557 116.086 66.0303 116.153 66.0261 116.229C66.0261 116.242 66.0769 116.267 66.0684 116.284C66.0473 116.339 66.0726 116.415 65.9923 116.449C65.9077 116.482 65.8696 116.529 65.8866 116.6C65.9035 116.672 65.857 116.71 65.84 116.765C65.8358 116.782 65.8358 116.807 65.7724 116.79C65.7259 116.778 65.7047 116.795 65.7597 116.858C65.7681 116.871 65.7512 116.866 65.7428 116.866C65.7343 116.866 65.7005 116.854 65.7047 116.866C65.7724 116.984 65.6624 116.976 65.6455 117.035C65.6455 117.052 65.6032 117.035 65.6582 117.103C65.6709 117.119 65.6667 117.132 65.6497 117.124C65.6032 117.098 65.5905 117.098 65.5821 117.107C65.544 117.153 65.4975 117.187 65.4552 117.229C65.506 117.33 65.4467 117.318 65.4214 117.335C65.4002 117.347 65.3622 117.335 65.3283 117.33C65.2987 117.33 65.3156 117.398 65.2438 117.33C65.2311 117.322 65.2438 117.347 65.2395 117.356C65.2184 117.377 65.2141 117.423 65.1719 117.406C65.1507 117.398 65.1296 117.389 65.1169 117.398C64.9646 117.487 64.8039 117.554 64.6348 117.6C64.6221 117.6 64.6052 117.596 64.6009 117.66C64.6009 117.71 64.5713 117.719 64.5502 117.676C64.5164 117.605 64.5037 117.638 64.4825 117.638C64.4487 117.638 64.4149 117.651 64.381 117.651C64.3599 117.651 64.343 117.706 64.3134 117.6C64.3134 117.592 64.3049 117.592 64.3049 117.6C64.2922 117.706 64.2626 117.622 64.2415 117.609C64.2246 117.6 64.2076 117.6 64.195 117.655C64.178 117.706 64.1484 117.714 64.1315 117.664C64.1104 117.592 64.0892 117.613 64.0723 117.613C63.9539 117.605 63.844 117.588 63.7255 117.571C63.6748 117.562 63.5944 117.638 63.5479 117.588C63.5395 117.575 63.5099 117.609 63.5226 117.533C63.5226 117.516 63.5141 117.525 63.5014 117.537C63.4633 117.596 63.4591 117.567 63.4422 117.558C63.3703 117.52 63.3153 117.449 63.2181 117.47C63.1377 117.487 63.0996 117.432 63.0362 117.415C63.0151 117.406 63.0235 117.356 63.0151 117.335C63.0066 117.314 62.9855 117.305 62.9685 117.297C62.9559 117.292 62.9601 117.267 62.9136 117.309C62.8882 117.33 62.8671 117.326 62.8797 117.301C62.9178 117.217 62.8755 117.229 62.8586 117.212C62.8121 117.162 62.7529 117.124 62.7106 117.069C62.7021 117.056 62.6556 117.069 62.7106 116.997C62.719 116.989 62.6894 116.997 62.681 117.001C62.6683 117.001 62.6429 117.014 62.6514 117.001C62.7106 116.892 62.6302 116.9 62.6091 116.862C62.5499 116.773 62.4822 116.689 62.4442 116.588C62.4357 116.558 62.3511 116.571 62.3427 116.541C62.3342 116.512 62.3131 116.491 62.3088 116.461C62.3088 116.44 62.2581 116.436 62.3427 116.385C62.3638 116.373 62.3596 116.36 62.3342 116.36C62.2412 116.368 62.275 116.33 62.2539 116.314C62.2242 116.292 62.2792 116.246 62.1735 116.242C62.1439 116.242 62.1904 116.212 62.1946 116.2C62.1946 116.179 62.1946 116.157 62.1862 116.136C62.182 116.128 62.1439 116.124 62.1397 116.115C62.1016 116.044 62.0635 115.968 62.0424 115.887C62.0297 115.807 62.0255 115.723 62.0339 115.639C62.0339 115.554 62.0339 115.474 62.0593 115.394C62.0678 115.364 62.0001 115.318 62.1312 115.314C62.0593 115.271 62.1143 115.255 62.2031 115.25C62.2158 115.25 62.182 115.233 62.1735 115.225C62.1439 115.2 62.0255 115.145 62.1693 115.158C62.1735 115.158 62.1693 115.158 62.1693 115.153C62.1946 115.141 62.0593 115.09 62.1481 115.09C62.2031 115.09 62.1904 115.06 62.2031 115.044C62.2158 115.027 62.2285 115.01 62.2242 114.985C62.2242 114.959 62.2877 114.963 62.1989 114.904C62.1862 114.896 62.2581 114.904 62.2581 114.896C62.2581 114.841 62.3638 114.841 62.2708 114.744C62.2496 114.723 62.2623 114.706 62.2877 114.706C62.3892 114.714 62.3638 114.66 62.3596 114.605C62.3511 114.533 62.3723 114.47 62.5118 114.504C62.5414 114.512 62.5626 114.52 62.5287 114.482C62.5076 114.457 62.5245 114.453 62.5287 114.444C62.6006 114.352 62.681 114.259 62.774 114.183C62.7994 114.162 62.884 114.217 62.8882 114.166C62.8882 114.145 62.9347 114.179 62.8882 114.103C62.884 114.094 62.884 114.082 62.8882 114.086C62.9812 114.141 62.9263 114.006 62.9855 114.014C62.9982 114.014 63.0151 114.027 63.0278 114.031C63.0404 114.035 63.0616 114.052 63.0616 114.031C63.0489 113.896 63.1504 113.938 63.1885 113.888C63.2011 113.871 63.2477 113.909 63.2181 113.807C63.2138 113.79 63.2223 113.79 63.235 113.799C63.3238 113.896 63.3153 113.79 63.3661 113.807C63.3915 113.816 63.3872 113.744 63.438 113.837C63.4464 113.85 63.4464 113.837 63.4507 113.828C63.4507 113.816 63.4507 113.778 63.4591 113.778C63.4803 113.778 63.5225 113.82 63.531 113.782C63.5395 113.736 63.5691 113.744 63.5902 113.736C63.6029 113.731 63.6283 113.774 63.6452 113.778C63.6579 113.786 63.6706 113.774 63.6833 113.769C63.7002 113.765 63.7171 113.744 63.7382 113.761C63.7594 113.782 63.7551 113.672 63.789 113.74C63.8144 113.79 63.8143 113.693 63.8313 113.677C63.8397 113.668 63.8482 113.677 63.8609 113.689C63.8693 113.698 63.8778 113.731 63.8862 113.727C63.8989 113.719 63.9158 113.736 63.9243 113.689C63.9328 113.655 63.9539 113.71 63.9708 113.719C63.9877 113.727 64.0004 113.719 64.0131 113.719C64.0258 113.719 64.0427 113.74 64.0554 113.715C64.1104 113.601 64.1738 113.668 64.233 113.66C64.2499 113.66 64.2711 113.622 64.2753 113.715C64.2753 113.731 64.2838 113.731 64.288 113.723C64.3557 113.596 64.4064 113.71 64.4656 113.681C64.5121 113.66 64.5629 113.617 64.6009 113.643C64.639 113.664 64.6728 113.698 64.7278 113.668C64.7701 113.643 64.8124 113.622 64.8378 113.655C64.8589 113.689 64.9562 113.529 64.9308 113.685C64.9646 113.698 64.9942 113.706 65.0238 113.727C65.045 113.744 65.0915 113.723 65.0746 113.816C65.0704 113.85 65.0873 113.854 65.1084 113.833C65.1845 113.761 65.2015 113.807 65.2099 113.866C65.2099 113.879 65.2438 113.845 65.2522 113.85C65.2818 113.862 65.3114 113.871 65.3283 113.896C65.3749 113.98 65.5102 113.942 65.5821 114.006C65.5948 114.018 65.6582 113.976 65.654 113.997C65.6413 114.141 65.7893 114.124 65.7978 114.238C65.8062 114.398 65.9373 114.457 65.9838 114.579C65.9881 114.596 65.9331 114.647 65.9542 114.643C66.0261 114.63 65.9881 114.681 66.043 114.677C66.1403 114.668 66.1022 114.731 66.1403 114.752C66.1657 114.769 66.1234 114.82 66.2291 114.803C66.246 114.803 66.246 114.812 66.2376 114.82C66.1614 114.896 66.3095 114.879 66.2799 114.934C66.4236 114.968 66.3644 115.073 66.4067 115.145C66.4152 115.153 66.4406 115.162 66.4575 115.17C66.4659 115.174 66.4828 115.179 66.4744 115.183C66.3644 115.28 66.4744 115.335 66.449 115.415C66.4406 115.44 66.411 115.466 66.3983 115.491C66.3856 115.516 66.4194 115.537 66.3433 115.567C66.3179 115.575 66.3306 115.588 66.3433 115.596C66.3983 115.651 66.2333 115.693 65.9627 115.689C65.8654 115.689 65.8612 115.681 65.8231 115.672C65.7512 115.655 65.7047 115.643 65.7132 115.622C65.7174 115.605 65.747 115.588 65.654 115.579C65.6371 115.579 65.6413 115.571 65.654 115.567C65.7385 115.533 65.6667 115.512 65.7174 115.482C65.7597 115.457 65.7428 115.44 65.7597 115.419C65.7724 115.402 65.7216 115.394 65.802 115.364C65.8274 115.352 65.7555 115.352 65.747 115.343C65.7343 115.318 65.7216 115.297 65.7259 115.267C65.747 115.179 65.5821 115.149 65.5948 115.069C65.4637 115.069 65.5398 114.976 65.4637 114.955C65.3664 114.938 65.3749 114.862 65.3114 114.837C65.2987 114.833 65.2945 114.82 65.3114 114.795C65.3241 114.778 65.3368 114.757 65.3326 114.752C65.3199 114.723 65.2945 114.71 65.2818 114.681C65.2734 114.664 65.2184 114.693 65.2903 114.605C65.2987 114.592 65.2903 114.588 65.2818 114.596C65.1845 114.655 65.2141 114.588 65.1803 114.579C65.1676 114.579 65.1634 114.567 65.1803 114.529C65.2015 114.487 65.1803 114.478 65.1465 114.499C65.1211 114.516 65.1127 114.512 65.1 114.512C65.0492 114.52 65.0831 114.402 64.9731 114.491C65.0281 114.381 64.9858 114.398 64.952 114.411C64.8293 114.461 64.8082 114.36 64.732 114.347C64.7151 114.347 64.7194 114.288 64.7067 114.271C64.694 114.255 64.6728 114.25 64.6517 114.25C64.639 114.25 64.6432 114.208 64.6052 114.288C64.6052 114.293 64.6009 114.297 64.6009 114.297C64.5967 114.28 64.5967 114.246 64.584 114.246C64.5713 114.246 64.546 114.305 64.5333 114.314C64.5164 114.331 64.5037 114.326 64.4952 114.326C64.4825 114.326 64.4698 114.343 64.4783 114.263C64.4487 114.356 64.4445 114.305 64.436 114.309C64.4233 114.314 64.4149 114.305 64.4064 114.305H64.3726C64.3726 114.305 64.3514 114.288 64.3387 114.297C64.3218 114.309 64.3007 114.339 64.2838 114.347C64.2669 114.356 64.2499 114.356 64.2372 114.347C64.2161 114.335 64.1992 114.305 64.178 114.284C64.1696 114.276 64.1611 114.301 64.1527 114.335C64.14 114.377 64.1315 114.478 64.1146 114.347C64.1146 114.322 64.1019 114.331 64.0977 114.347C64.0639 114.487 64.0131 114.368 63.9751 114.415C63.9412 114.318 63.9243 114.385 63.9074 114.415C63.8778 114.457 63.8524 114.487 63.8017 114.436C63.7467 114.381 63.7255 114.432 63.6833 114.423C63.6706 114.423 63.6748 114.461 63.6325 114.377C63.624 114.36 63.6156 114.368 63.6198 114.377C63.624 114.474 63.5944 114.461 63.5352 114.423C63.5056 114.402 63.5056 114.444 63.5056 114.482C63.5056 114.541 63.4633 114.525 63.438 114.537C63.3703 114.449 63.4211 114.55 63.438 114.592C63.4676 114.651 63.4676 114.664 63.4591 114.668C63.4507 114.677 63.4295 114.668 63.4591 114.731C63.476 114.765 63.4591 114.765 63.4337 114.736C63.3957 114.698 63.4084 114.719 63.4211 114.752C63.438 114.79 63.3661 114.714 63.3618 114.727C63.3534 114.74 63.383 114.79 63.2984 114.71C63.29 114.702 63.29 114.71 63.2942 114.714C63.3576 114.82 63.2223 114.706 63.2392 114.761C63.0954 114.723 63.1208 114.854 63.0447 114.887C63.0108 114.9 62.9178 114.883 62.9474 114.938C63.0066 115.048 62.9093 115.069 62.9009 115.136C62.9009 115.149 62.9389 115.183 62.8332 115.153C62.8163 115.153 62.8163 115.153 62.8332 115.162C62.922 115.221 62.884 115.225 62.8121 115.221C62.7952 115.221 62.7909 115.229 62.8163 115.242C62.8882 115.276 62.8544 115.271 62.8501 115.28C62.8459 115.288 62.7782 115.284 62.8121 115.305C62.8882 115.339 62.7952 115.322 62.7782 115.33C62.7656 115.335 62.7867 115.347 62.7952 115.356C62.7994 115.36 62.8332 115.373 62.8248 115.373C62.7233 115.373 62.8544 115.423 62.8163 115.436C62.8078 115.436 62.8078 115.444 62.7952 115.449C62.6641 115.482 62.6598 115.487 62.719 115.558C62.5795 115.567 62.7825 115.605 62.6768 115.617C62.6387 115.622 62.6471 115.638 62.6768 115.651C62.7952 115.693 62.7064 115.736 62.7402 115.774C62.7486 115.782 62.6556 115.795 62.7317 115.799C62.7613 115.799 62.681 115.82 62.6852 115.833C62.6937 115.845 62.6429 115.866 62.736 115.871C62.774 115.871 62.7444 115.887 62.7529 115.896C62.7656 115.904 62.7317 115.925 62.8078 115.921C62.8501 115.921 62.8501 115.934 62.8163 115.947C62.681 116.006 62.8163 116.01 62.8755 116.018C62.8924 116.018 62.9093 116.022 62.8882 116.039C62.8628 116.06 62.8248 116.09 62.8713 116.086C62.9516 116.077 62.9263 116.103 62.9347 116.115C62.9516 116.136 62.9474 116.17 62.9685 116.191C62.9939 116.212 62.9728 116.259 63.0531 116.255C63.0954 116.255 63.1377 116.25 63.0404 116.326C63.032 116.335 63.0912 116.305 63.0954 116.309C63.1208 116.339 63.1377 116.368 63.1546 116.402C63.1546 116.411 63.0658 116.491 63.1504 116.44C63.235 116.385 63.0827 116.516 63.1842 116.444C63.1969 116.436 63.2011 116.444 63.1969 116.453C63.125 116.571 63.235 116.537 63.2434 116.596C63.2434 116.609 63.29 116.584 63.2265 116.664C63.3238 116.596 63.1927 116.799 63.3322 116.676C63.3322 116.714 63.4041 116.647 63.3492 116.757C63.3407 116.773 63.3618 116.757 63.3576 116.773C63.3322 116.833 63.4464 116.685 63.4041 116.773C63.3788 116.824 63.4126 116.807 63.4211 116.816C63.4295 116.824 63.4422 116.828 63.4507 116.837L63.4845 116.858C63.4845 116.858 63.5056 116.879 63.5226 116.875C63.5564 116.875 63.6114 116.816 63.624 116.854C63.624 116.858 63.6367 116.845 63.6452 116.828C63.7171 116.685 63.6917 116.773 63.6833 116.82C63.6748 116.858 63.6748 116.879 63.6833 116.879C63.7044 116.883 63.7298 116.887 63.7467 116.904C63.7594 116.913 63.7847 116.871 63.7678 116.968C63.7636 116.997 63.7763 116.993 63.789 116.976C63.844 116.883 63.8566 116.951 63.8862 116.942C63.8989 116.942 63.9116 116.942 63.9243 116.946C63.9328 116.946 63.9539 116.883 63.9539 116.946C64.0173 116.828 64.0512 116.913 64.1019 116.9C64.1484 116.892 64.195 116.892 64.2415 116.9C64.2542 116.9 64.2626 116.849 64.2838 116.955C64.2838 116.976 64.2965 116.972 64.2965 116.951C64.2965 116.892 64.2965 116.862 64.3134 116.938C64.3134 116.951 64.3218 116.938 64.3218 116.921C64.3218 116.879 64.3345 116.883 64.3514 116.921C64.3641 116.951 64.3768 116.968 64.381 116.942C64.3895 116.883 64.398 116.828 64.4402 116.93C64.4445 116.942 64.436 116.871 64.4402 116.875C64.4614 116.883 64.4614 116.824 64.5037 116.9C64.5206 116.93 64.5248 116.904 64.5333 116.908C64.5544 116.917 64.5502 116.858 64.5756 116.883C64.6009 116.908 64.6094 116.879 64.6263 116.871C64.6432 116.866 64.6601 116.858 64.6728 116.849L64.7194 116.828C64.7194 116.828 64.7532 116.816 64.7659 116.803L64.8124 116.773C64.8124 116.773 64.842 116.752 64.8589 116.748C64.8674 116.74 64.8843 116.748 64.9181 116.769C65.0069 116.837 65.0408 116.799 65.0196 116.698C65.0196 116.689 65.0238 116.693 65.0281 116.689C65.0661 116.655 65.0873 116.613 65.138 116.592C65.1634 116.584 65.2141 116.6 65.2226 116.579C65.2268 116.567 65.248 116.563 65.2057 116.512C65.1676 116.47 65.2564 116.512 65.1845 116.444C65.1592 116.419 65.1676 116.411 65.193 116.423C65.2903 116.461 65.2564 116.415 65.2776 116.398C65.2987 116.381 65.3114 116.356 65.3199 116.33C65.3241 116.318 65.3579 116.322 65.2903 116.271C65.2564 116.246 65.2903 116.246 65.3241 116.255C65.3791 116.263 65.3749 116.246 65.3622 116.225C65.3326 116.179 65.3199 116.179 65.3875 116.174C65.396 116.174 65.396 116.174 65.4002 116.166C65.4129 116.132 65.4637 116.111 65.4256 116.06C65.3918 116.022 65.396 115.993 65.4002 115.968C65.4002 115.955 65.3579 115.934 65.4637 115.947C65.4806 115.947 65.4763 115.942 65.4637 115.934C65.3537 115.887 65.4171 115.875 65.4171 115.854C65.4171 115.828 65.3326 115.799 65.3537 115.778C65.3749 115.757 65.3579 115.736 65.3622 115.714C65.3622 115.681 65.4298 115.676 65.7174 115.676C65.9542 115.676 66.005 115.689 66.0557 115.731C66.1614 115.824 66.0726 115.909 66.0896 115.98L66.0684 115.993Z" fill="#1B4A5A"/>
<path d="M74.1372 117.466C75.1158 117.466 75.9091 116.67 75.9091 115.689C75.9091 114.708 75.1158 113.913 74.1372 113.913C73.1586 113.913 72.3652 114.708 72.3652 115.689C72.3652 116.67 73.1586 117.466 74.1372 117.466Z" fill="#1D4C5C"/>
<path d="M76.0784 115.993C76.0657 116.086 76.0404 116.153 76.0361 116.229C76.0361 116.242 76.0869 116.267 76.0784 116.284C76.0573 116.339 76.0826 116.415 76.0023 116.449C75.9177 116.482 75.8797 116.529 75.8966 116.6C75.9135 116.672 75.867 116.71 75.8501 116.765C75.8458 116.782 75.8458 116.807 75.7824 116.79C75.7359 116.778 75.7147 116.795 75.7697 116.858C75.7782 116.871 75.7612 116.866 75.7528 116.866C75.7443 116.866 75.7105 116.854 75.7147 116.866C75.7824 116.984 75.6724 116.976 75.6555 117.035C75.6555 117.052 75.6132 117.035 75.6682 117.103C75.6809 117.119 75.6767 117.132 75.6597 117.124C75.6132 117.098 75.6005 117.098 75.5921 117.107C75.554 117.153 75.5075 117.187 75.4652 117.229C75.516 117.33 75.4568 117.318 75.4314 117.335C75.4102 117.347 75.3722 117.335 75.3383 117.33C75.3087 117.33 75.3257 117.398 75.2538 117.33C75.2411 117.322 75.2538 117.347 75.2495 117.356C75.2284 117.377 75.2242 117.423 75.1819 117.406C75.1607 117.398 75.1396 117.389 75.1269 117.398C74.9746 117.487 74.8139 117.554 74.6448 117.6C74.6279 117.6 74.6152 117.596 74.611 117.66C74.611 117.71 74.5814 117.719 74.5602 117.676C74.5264 117.605 74.5137 117.638 74.4925 117.638C74.4587 117.638 74.4249 117.651 74.3911 117.651C74.3699 117.651 74.353 117.706 74.3234 117.6C74.3234 117.592 74.3149 117.592 74.3149 117.6C74.3022 117.706 74.2726 117.622 74.2515 117.609C74.2346 117.6 74.2177 117.6 74.205 117.655C74.1881 117.706 74.1585 117.714 74.1415 117.664C74.1204 117.592 74.0992 117.613 74.0823 117.613C73.9639 117.605 73.854 117.588 73.7356 117.571C73.6848 117.562 73.6045 117.638 73.5579 117.588C73.5495 117.575 73.5199 117.609 73.5326 117.533C73.5326 117.516 73.5241 117.525 73.5114 117.537C73.4734 117.596 73.4691 117.567 73.4522 117.558C73.3803 117.52 73.3253 117.449 73.2281 117.47C73.1477 117.487 73.1097 117.432 73.0462 117.415C73.0251 117.406 73.0335 117.356 73.0251 117.335C73.0166 117.314 72.9955 117.305 72.9786 117.297C72.9659 117.292 72.9701 117.267 72.9236 117.309C72.8982 117.33 72.8771 117.326 72.8898 117.301C72.9278 117.217 72.8855 117.229 72.8686 117.212C72.8221 117.162 72.7629 117.124 72.7206 117.069C72.7121 117.056 72.6656 117.069 72.7206 116.997C72.729 116.989 72.6994 116.997 72.691 117.001C72.6783 117.001 72.6529 117.014 72.6614 117.001C72.7206 116.892 72.6402 116.9 72.6191 116.862C72.5599 116.773 72.4922 116.689 72.4542 116.588C72.4457 116.558 72.3611 116.571 72.3527 116.541C72.3442 116.512 72.3231 116.491 72.3188 116.461C72.3188 116.44 72.2681 116.436 72.3527 116.385C72.3738 116.373 72.3696 116.36 72.3442 116.36C72.2512 116.368 72.285 116.33 72.2639 116.314C72.2343 116.292 72.2892 116.246 72.1835 116.242C72.1539 116.242 72.2004 116.212 72.2047 116.2C72.2047 116.179 72.2047 116.157 72.1962 116.136C72.192 116.128 72.1539 116.124 72.1497 116.115C72.1116 116.044 72.0736 115.968 72.0524 115.887C72.0397 115.807 72.0355 115.723 72.044 115.639C72.044 115.554 72.044 115.474 72.0693 115.394C72.0778 115.364 72.0101 115.318 72.1412 115.314C72.0693 115.271 72.1243 115.255 72.2131 115.25C72.2258 115.25 72.192 115.233 72.1835 115.225C72.1581 115.2 72.0355 115.145 72.1793 115.158C72.1835 115.158 72.1793 115.158 72.1793 115.153C72.2047 115.141 72.0693 115.09 72.1581 115.09C72.2131 115.09 72.2004 115.06 72.2131 115.044C72.2258 115.027 72.2385 115.01 72.2343 114.985C72.2343 114.959 72.2977 114.963 72.2089 114.904C72.1962 114.896 72.2681 114.904 72.2681 114.896C72.2681 114.841 72.3738 114.841 72.2808 114.744C72.2596 114.723 72.2723 114.706 72.2977 114.706C72.3992 114.714 72.3738 114.66 72.3696 114.605C72.3611 114.533 72.3823 114.47 72.5218 114.504C72.5514 114.512 72.5726 114.52 72.5387 114.482C72.5176 114.457 72.5345 114.453 72.5387 114.444C72.6106 114.352 72.691 114.259 72.784 114.183C72.8094 114.162 72.894 114.217 72.8982 114.166C72.8982 114.145 72.9447 114.179 72.8982 114.103C72.894 114.094 72.894 114.082 72.8982 114.086C72.9912 114.141 72.9363 114.006 72.9955 114.014C73.0082 114.014 73.0251 114.027 73.0378 114.031C73.0505 114.035 73.0716 114.052 73.0716 114.031C73.0589 113.896 73.1604 113.938 73.1985 113.888C73.2112 113.871 73.2577 113.909 73.2281 113.807C73.2238 113.79 73.2323 113.79 73.245 113.799C73.3338 113.896 73.3253 113.79 73.3761 113.807C73.4015 113.816 73.3972 113.744 73.448 113.837C73.4564 113.85 73.4564 113.837 73.4607 113.828C73.4607 113.816 73.4607 113.778 73.4691 113.778C73.4903 113.778 73.5326 113.82 73.541 113.782C73.5495 113.736 73.5791 113.744 73.6002 113.736C73.6129 113.731 73.6383 113.774 73.6552 113.778C73.6679 113.786 73.6806 113.774 73.6933 113.769C73.7102 113.765 73.7271 113.744 73.7482 113.761C73.7694 113.782 73.7652 113.672 73.799 113.74C73.8244 113.79 73.8244 113.693 73.8413 113.677C73.8497 113.668 73.8582 113.677 73.8709 113.689C73.8793 113.698 73.8878 113.731 73.8963 113.727C73.9089 113.719 73.9259 113.736 73.9343 113.689C73.9428 113.655 73.9639 113.71 73.9808 113.719C73.9978 113.727 74.0104 113.719 74.0231 113.719C74.0358 113.719 74.0527 113.74 74.0654 113.715C74.1204 113.601 74.1838 113.668 74.243 113.66C74.2599 113.66 74.2811 113.622 74.2853 113.715C74.2853 113.731 74.2938 113.731 74.3022 113.723C74.3699 113.596 74.4206 113.71 74.4799 113.681C74.5264 113.66 74.5771 113.617 74.6152 113.643C74.6532 113.664 74.6871 113.698 74.7421 113.668C74.7843 113.643 74.8266 113.622 74.852 113.655C74.8732 113.689 74.9704 113.529 74.945 113.685C74.9789 113.698 75.0085 113.706 75.0381 113.727C75.0592 113.744 75.1057 113.723 75.0888 113.816C75.0846 113.85 75.1015 113.854 75.1227 113.833C75.1988 113.761 75.2157 113.807 75.2242 113.866C75.2242 113.879 75.258 113.845 75.2664 113.85C75.2961 113.862 75.3257 113.871 75.3426 113.896C75.3891 113.98 75.5244 113.942 75.5963 114.006C75.609 114.018 75.6724 113.976 75.6682 113.997C75.6555 114.141 75.8035 114.124 75.812 114.238C75.8204 114.398 75.9515 114.457 75.9981 114.579C76.0023 114.596 75.9473 114.647 75.9685 114.643C76.0404 114.63 76.0023 114.681 76.0573 114.677C76.1545 114.668 76.1165 114.731 76.1545 114.752C76.1799 114.769 76.1376 114.82 76.2433 114.803C76.2603 114.803 76.2603 114.812 76.2518 114.82C76.1757 114.896 76.3237 114.879 76.2941 114.934C76.4379 114.968 76.3787 115.073 76.421 115.145C76.4294 115.153 76.4548 115.162 76.4717 115.17C76.4802 115.174 76.4971 115.179 76.4886 115.183C76.3787 115.28 76.4886 115.335 76.4633 115.415C76.4548 115.44 76.4252 115.466 76.4125 115.491C76.3998 115.516 76.4337 115.537 76.3575 115.567C76.3322 115.575 76.3448 115.588 76.3575 115.596C76.4125 115.651 76.2476 115.693 75.9769 115.689C75.8797 115.689 75.8754 115.681 75.8374 115.672C75.7655 115.655 75.719 115.643 75.7274 115.622C75.7316 115.605 75.7612 115.588 75.6682 115.579C75.6513 115.579 75.6555 115.571 75.6682 115.567C75.7528 115.533 75.6809 115.512 75.7316 115.482C75.7739 115.457 75.757 115.44 75.7739 115.419C75.7866 115.402 75.7359 115.394 75.8162 115.364C75.8416 115.352 75.7697 115.352 75.7612 115.343C75.7486 115.318 75.7359 115.297 75.7401 115.267C75.7612 115.179 75.5963 115.149 75.609 115.069C75.4779 115.069 75.554 114.976 75.4779 114.955C75.3806 114.938 75.3891 114.862 75.3257 114.837C75.313 114.833 75.3087 114.82 75.3257 114.795C75.3383 114.778 75.351 114.757 75.3468 114.752C75.3341 114.723 75.3087 114.71 75.2961 114.681C75.2876 114.664 75.2326 114.693 75.3045 114.605C75.313 114.592 75.3045 114.588 75.2961 114.596C75.1988 114.655 75.2284 114.588 75.1946 114.579C75.1819 114.579 75.1776 114.567 75.1946 114.529C75.2157 114.487 75.1946 114.478 75.1607 114.499C75.1354 114.516 75.1269 114.512 75.1142 114.512C75.0635 114.52 75.0973 114.402 74.9873 114.491C75.0423 114.381 75 114.398 74.9662 114.411C74.8435 114.461 74.8224 114.36 74.7463 114.347C74.7294 114.347 74.7336 114.288 74.7209 114.271C74.7082 114.255 74.6871 114.25 74.6659 114.25C74.6532 114.25 74.6575 114.208 74.6194 114.288C74.6194 114.293 74.6152 114.297 74.6152 114.297C74.611 114.28 74.611 114.246 74.5983 114.246C74.5856 114.246 74.5602 114.305 74.5475 114.314C74.5306 114.331 74.5179 114.326 74.5095 114.326C74.4968 114.326 74.4841 114.343 74.4925 114.263C74.4629 114.356 74.4587 114.305 74.4503 114.309C74.4376 114.314 74.4291 114.305 74.4206 114.305H74.3868C74.3868 114.305 74.3657 114.288 74.353 114.297C74.3361 114.309 74.3149 114.339 74.298 114.347C74.2811 114.356 74.2642 114.356 74.2515 114.347C74.2303 114.335 74.2134 114.305 74.1923 114.284C74.1838 114.276 74.1754 114.301 74.1669 114.335C74.1542 114.377 74.1458 114.478 74.1288 114.347C74.1288 114.322 74.1162 114.331 74.1119 114.347C74.0781 114.487 74.0274 114.368 73.9893 114.415C73.9555 114.318 73.9385 114.385 73.9216 114.415C73.892 114.457 73.8667 114.487 73.8159 114.436C73.7609 114.381 73.7398 114.432 73.6975 114.423C73.6848 114.423 73.689 114.461 73.6467 114.377C73.6383 114.36 73.6298 114.368 73.6341 114.377C73.6383 114.474 73.6087 114.461 73.5495 114.423C73.5199 114.402 73.5199 114.444 73.5199 114.482C73.5199 114.541 73.4776 114.525 73.4522 114.537C73.3845 114.449 73.4353 114.55 73.4522 114.592C73.4818 114.651 73.4818 114.664 73.4734 114.668C73.4649 114.677 73.4437 114.668 73.4734 114.731C73.4903 114.765 73.4734 114.765 73.448 114.736C73.4099 114.698 73.4226 114.719 73.4353 114.752C73.4522 114.79 73.3803 114.714 73.3761 114.727C73.3676 114.74 73.3972 114.79 73.3127 114.71C73.3042 114.702 73.3042 114.71 73.3084 114.714C73.3719 114.82 73.2365 114.706 73.2534 114.761C73.1097 114.723 73.135 114.854 73.0589 114.887C73.0251 114.9 72.932 114.883 72.9616 114.938C73.0209 115.048 72.9236 115.069 72.9151 115.136C72.9151 115.149 72.9532 115.183 72.8475 115.153C72.8305 115.153 72.8305 115.153 72.8475 115.162C72.9363 115.221 72.9024 115.225 72.8263 115.221C72.8094 115.221 72.8052 115.229 72.8305 115.242C72.9024 115.276 72.8686 115.271 72.8644 115.28C72.8602 115.288 72.7925 115.284 72.8263 115.305C72.9024 115.339 72.8094 115.322 72.7925 115.33C72.7798 115.335 72.8009 115.347 72.8094 115.356C72.8136 115.36 72.8475 115.373 72.839 115.373C72.7375 115.373 72.8686 115.423 72.8305 115.436C72.8221 115.436 72.8221 115.444 72.8094 115.449C72.6783 115.482 72.6741 115.487 72.7333 115.558C72.5937 115.567 72.7967 115.605 72.691 115.617C72.6529 115.622 72.6614 115.638 72.691 115.651C72.8094 115.693 72.7206 115.736 72.7544 115.774C72.7629 115.782 72.6698 115.795 72.746 115.799C72.7756 115.799 72.6952 115.82 72.6995 115.833C72.7079 115.845 72.6572 115.866 72.7502 115.871C72.7883 115.871 72.7587 115.887 72.7671 115.896C72.7798 115.904 72.746 115.925 72.8221 115.921C72.8644 115.921 72.8644 115.934 72.8305 115.947C72.6952 116.006 72.8305 116.01 72.8898 116.018C72.9067 116.018 72.9236 116.022 72.9024 116.039C72.8771 116.06 72.839 116.09 72.8855 116.086C72.9659 116.077 72.9405 116.103 72.949 116.115C72.9659 116.136 72.9616 116.17 72.9828 116.191C73.0082 116.212 72.987 116.259 73.0674 116.255C73.1097 116.255 73.152 116.25 73.0547 116.326C73.0462 116.335 73.1054 116.305 73.1097 116.309C73.135 116.339 73.1519 116.368 73.1689 116.402C73.1689 116.411 73.0801 116.491 73.1646 116.44C73.2492 116.385 73.097 116.516 73.1985 116.444C73.2112 116.436 73.2154 116.444 73.2112 116.453C73.1393 116.571 73.2492 116.537 73.2577 116.596C73.2577 116.609 73.3042 116.584 73.2408 116.664C73.338 116.596 73.2069 116.799 73.3465 116.676C73.3465 116.714 73.4184 116.647 73.3634 116.757C73.3549 116.773 73.3761 116.757 73.3719 116.773C73.3465 116.833 73.4607 116.685 73.4184 116.773C73.393 116.824 73.4268 116.807 73.4353 116.816C73.4437 116.824 73.4564 116.828 73.4649 116.837L73.4987 116.858C73.4987 116.858 73.5199 116.879 73.5368 116.875C73.5706 116.875 73.6256 116.816 73.6383 116.854C73.6383 116.858 73.651 116.845 73.6594 116.828C73.7313 116.685 73.7059 116.773 73.6975 116.82C73.689 116.858 73.689 116.879 73.6975 116.879C73.7186 116.883 73.744 116.887 73.7609 116.904C73.7736 116.913 73.799 116.871 73.7821 116.968C73.7778 116.997 73.7905 116.993 73.8032 116.976C73.8582 116.883 73.8709 116.951 73.9005 116.942C73.9132 116.942 73.9259 116.942 73.9385 116.946C73.947 116.946 73.9682 116.883 73.9682 116.946C74.0316 116.828 74.0654 116.913 74.1162 116.9C74.1627 116.892 74.2092 116.892 74.2557 116.9C74.2684 116.9 74.2769 116.849 74.298 116.955C74.298 116.976 74.3107 116.972 74.3107 116.951C74.3107 116.892 74.3107 116.862 74.3276 116.938C74.3276 116.951 74.3361 116.938 74.3361 116.921C74.3361 116.879 74.3488 116.883 74.3657 116.921C74.3784 116.951 74.391 116.968 74.3953 116.942C74.408 116.883 74.4122 116.828 74.4545 116.93C74.4587 116.942 74.4503 116.871 74.4545 116.875C74.4756 116.883 74.4756 116.824 74.5179 116.9C74.5348 116.93 74.5391 116.904 74.5475 116.908C74.5687 116.917 74.5644 116.858 74.5898 116.883C74.6152 116.908 74.6236 116.879 74.6406 116.871C74.6575 116.866 74.6744 116.858 74.6871 116.849L74.7336 116.828C74.7336 116.828 74.7674 116.816 74.7801 116.803L74.8266 116.773C74.8266 116.773 74.8562 116.752 74.8732 116.748C74.8858 116.74 74.8985 116.748 74.9324 116.769C75.0212 116.837 75.055 116.799 75.0339 116.698C75.0339 116.689 75.0381 116.693 75.0423 116.689C75.0804 116.655 75.1015 116.613 75.1523 116.592C75.1776 116.584 75.2284 116.6 75.2369 116.579C75.2411 116.567 75.2622 116.563 75.2199 116.512C75.1819 116.47 75.2707 116.512 75.1988 116.444C75.1734 116.419 75.1819 116.411 75.2072 116.423C75.3045 116.461 75.2707 116.415 75.2918 116.398C75.313 116.381 75.3257 116.356 75.3341 116.33C75.3383 116.318 75.3722 116.322 75.3045 116.271C75.2707 116.246 75.3045 116.246 75.3383 116.255C75.3933 116.263 75.3891 116.246 75.3764 116.225C75.3468 116.179 75.3341 116.179 75.4018 116.174C75.4102 116.174 75.4102 116.174 75.4145 116.166C75.4272 116.132 75.4779 116.111 75.4398 116.06C75.406 116.022 75.4102 115.993 75.4145 115.968C75.4145 115.955 75.3722 115.934 75.4779 115.947C75.4948 115.947 75.4906 115.942 75.4779 115.934C75.3679 115.887 75.4314 115.875 75.4314 115.854C75.4314 115.828 75.3468 115.799 75.3679 115.778C75.3891 115.757 75.3722 115.736 75.3764 115.714C75.3764 115.681 75.4441 115.676 75.7316 115.676C75.9685 115.676 76.0192 115.689 76.07 115.731C76.1757 115.824 76.0869 115.909 76.1038 115.98L76.0784 115.993Z" fill="#1B4A5A"/>
<path d="M123.675 2.09766V4.01367C123.666 6.21094 123.666 8.38184 123.095 11.6953L120.827 11.502C121.434 8.42578 121.434 6.14062 121.442 4.01367V3.89062H112.39V2.09766H123.675ZM110.878 14.5254V12.6797H125.468V14.5254H110.878ZM139.829 0.638672V10.1133H137.579V0.638672H139.829ZM127.261 3.31055V1.55273H134.679V6.35156H129.476V7.74023C132.147 7.73145 134.037 7.66113 136.19 7.30078L136.472 9.09375C134.02 9.48926 131.857 9.56836 128.685 9.56836H127.278V4.64648H132.446V3.31055H127.261ZM129.106 16.4414V10.8164H139.829V16.4414H129.106ZM131.321 14.6484H137.632V12.5918H131.321V14.6484ZM159.534 0.638672V9.65625H157.284V0.638672H159.534ZM146.087 7.61719C148.768 6.80859 149.937 4.76074 149.937 2.76562V1.21875H152.274V2.76562C152.257 4.70801 153.435 6.57129 156.019 7.37109L154.929 9.07617C153.101 8.53125 151.835 7.42383 151.114 5.99121C150.385 7.54688 149.084 8.77734 147.177 9.375L146.087 7.61719ZM148.812 16.4414V10.3945H159.534V16.4414H148.812ZM151.026 14.6484H157.337V12.1699H151.026V14.6484ZM175.108 0.621094V16.6523H172.876V0.621094H175.108ZM162.54 3.76758V1.95703H170.151V8.12695H164.878V11.0625C167.321 11.0449 169.387 10.9219 171.733 10.5352L171.927 12.3457C169.299 12.8115 166.917 12.9082 163.999 12.9082H162.558V6.35156H167.866V3.76758H162.54ZM187.87 2.39648V4.1543H184.021V6.70312H187.237V8.4082H184.021V11.2822C185.734 11.2559 186.991 11.168 188.485 10.9219L188.679 12.7324C186.842 13.0664 185.312 13.084 182.966 13.084H181.894V2.39648H187.87ZM187.993 8.25V6.45703H189.786V0.902344H191.878V15.8965H189.786V8.25H187.993ZM193.108 16.6172V0.621094H195.271V16.6172H193.108ZM205.378 2.73047C205.369 5.07715 207.452 7.58203 211.073 8.19727L210.089 10.0605C207.294 9.50684 205.229 7.93359 204.191 5.88574C203.137 7.91602 201.062 9.49805 198.294 10.0605L197.327 8.19727C200.887 7.56445 202.97 5.05078 202.987 2.73047V1.57031H205.378V2.73047ZM196.958 14.6484V12.8027H211.601V14.6484H196.958ZM225.558 8.88281V10.6582H214.237V1.79883H225.435V3.60938H216.522V5.29688H225.065V7.05469H216.522V8.88281H225.558ZM212.515 14.7539V12.9258H227.157V14.7539H212.515Z" fill="#1D4C5C"/>
</svg>
