<svg width="215" height="216" viewBox="0 0 215 216" fill="none" xmlns="http://www.w3.org/2000/svg">
<path d="M108.075 213.587C166.319 213.587 213.535 166.072 213.535 107.46C213.535 48.8468 166.319 1.33177 108.075 1.33177C49.8319 1.33177 2.61621 48.8468 2.61621 107.46C2.61621 166.072 49.8319 213.587 108.075 213.587Z" fill="#35BA95"/>
<path d="M212.535 123.911C212.317 125.117 212.117 126.271 211.917 127.386C211.814 127.94 211.729 128.489 211.62 129.02C211.5 129.551 211.38 130.071 211.26 130.591C211.026 131.626 210.797 132.626 210.569 133.62C210.34 134.609 210.037 135.563 209.78 136.534C209.614 137.134 209.494 137.826 209.283 138.586C208.837 140.083 208.306 141.586 207.82 143.083C207.694 143.455 207.574 143.832 207.443 144.197C207.3 144.563 207.157 144.923 207.014 145.283C206.729 146.003 206.437 146.712 206.14 147.409C205.529 148.94 204.786 150.409 204.123 151.9C203.477 153.398 202.74 154.826 202.054 156.243C201.723 156.912 201.397 157.581 201.066 158.243C200.7 158.889 200.34 159.535 199.974 160.175C199.243 161.455 198.54 162.752 197.729 163.986C197.203 164.826 196.688 165.661 196.037 166.524C195.574 167.158 194.706 168.312 194.186 169.255C194.083 169.438 193.808 169.792 193.608 170.049C193.397 170.329 193.117 170.644 192.98 170.861C192.18 172.072 191.26 173.232 190.346 174.404C190.117 174.695 189.888 174.992 189.648 175.278L188.917 176.118C188.431 176.684 187.951 177.244 187.471 177.804C186.991 178.358 186.46 178.958 186.1 179.472C186.008 179.61 185.523 180.13 185.357 180.267C184.917 180.627 184.511 181.038 184.031 181.547C183.014 182.673 181.9 183.701 180.808 184.753L179.162 186.324L177.448 187.821C176.94 188.364 176.357 188.896 175.751 189.427C175.145 189.958 174.477 190.427 173.859 190.93C172.917 191.661 171.974 192.387 170.997 193.067C170.002 193.741 169.002 194.57 167.996 195.136C167.836 195.227 167.482 195.524 167.208 195.724C165.951 196.547 164.654 197.439 163.436 198.17C162.819 198.559 162.162 198.873 161.539 199.244L158.493 201.004L155.368 202.616C154.848 202.884 154.328 203.159 153.802 203.416L152.202 204.147C151.133 204.627 150.07 205.13 148.996 205.593C146.807 206.439 144.659 207.387 142.419 208.09C141.305 208.462 140.207 208.867 139.082 209.204L135.699 210.17C135.304 210.285 134.922 210.393 134.533 210.507C134.139 210.61 133.744 210.713 133.333 210.856C132.687 211.073 131.247 211.41 130.596 211.496C129.556 211.65 128.59 211.856 127.596 212.027C126.681 212.193 125.767 212.353 124.853 212.519C123.944 212.707 123.013 212.776 122.093 212.902C121.001 213.033 119.79 213.267 118.818 213.239C118.721 213.233 118.378 213.256 118.258 213.279C117.053 213.513 115.858 213.485 114.635 213.559C114.19 213.582 113.75 213.627 113.293 213.65C112.835 213.667 112.373 213.702 111.887 213.747C110.944 213.839 109.367 213.89 108.492 213.839C107.327 213.759 106.252 213.73 105.161 213.707C98.7208 213.525 92.2921 212.765 85.9834 211.433C84.492 211.107 83.012 210.782 81.5319 210.456C80.0633 210.062 78.5947 209.662 77.1204 209.216C76.4175 209.016 75.6518 208.776 75.0575 208.479C74.9375 208.416 74.3775 208.239 74.1489 208.187C73.326 207.999 72.5432 207.702 71.646 207.387C67.6459 205.81 63.6344 204.09 59.8744 202.176C59.1372 201.81 58.4058 201.444 57.6743 201.084C56.9657 200.679 56.2629 200.279 55.5543 199.873L53.4457 198.656C52.7485 198.239 52.0799 197.787 51.3885 197.359C50.4799 196.77 49.5827 196.141 48.6856 195.507C47.8284 194.873 46.9427 194.25 46.0627 193.633C45.5426 193.256 45.0226 192.878 44.4855 192.553C44.194 192.376 43.4626 191.816 43.194 191.558C42.7369 191.124 42.2454 190.707 41.7311 190.296C41.2168 189.89 40.6911 189.49 40.2111 189.05C37.3939 186.633 34.6453 184.124 32.0967 181.421C31.4681 180.758 30.7252 180.061 30.2566 179.381C30.1938 179.29 29.7995 178.941 29.5766 178.69C29.3366 178.427 29.0223 178.118 28.8623 177.907C28.1366 176.941 27.348 175.998 26.5366 175.055C25.7708 174.084 24.9937 173.107 24.2337 172.141C20.6393 167.392 17.4049 162.364 14.6449 157.083C14.2677 156.341 13.8906 155.655 13.5192 154.975C13.1477 154.295 12.7591 153.626 12.4448 152.883C11.8163 151.455 11.142 150.038 10.542 148.598C10.1419 147.563 9.66193 146.495 9.40479 145.489C9.33621 145.215 9.03906 144.472 8.89049 144.175C8.36476 143.055 8.00476 141.74 7.57046 140.517C7.01045 139.032 6.69045 137.42 6.13043 135.963C5.98186 135.569 5.82757 134.763 5.66185 134.146C5.41614 133.06 5.1647 131.969 4.91898 130.883C4.79898 130.363 4.63326 129.866 4.50755 129.34C4.27897 128.334 4.11897 127.317 3.92468 126.3C3.74753 125.283 3.52467 124.277 3.38181 123.254L2.97609 120.186C2.83894 119.163 2.69608 118.14 2.63894 117.106C2.48465 115.008 2.2675 112.911 2.26179 110.803L2.1875 107.648C2.19893 106.597 2.23893 105.545 2.26179 104.494C2.30179 103.442 2.27893 102.385 2.37036 101.339L2.60465 98.1908L2.72465 96.6137L2.91894 95.0479L3.32467 91.9164C3.54181 90.3507 3.78753 88.6535 4.19897 87.2478C4.31897 85.7906 4.72469 84.5677 5.10756 83.3563C5.1647 83.1848 5.22185 82.722 5.27899 82.3905C5.36471 81.8648 5.45042 81.3505 5.53614 80.8191C5.65614 80.2991 5.81043 79.7733 6.06186 79.2305C6.07901 79.1905 6.11329 79.0476 6.14186 78.9562C6.4333 78.0247 6.4333 77.3161 6.88474 76.1504C7.16474 75.4247 7.55903 74.2361 7.89047 73.2475C8.25619 72.236 8.55905 71.1903 8.94763 70.2017C9.33621 69.1674 9.85622 68.0874 10.1019 67.0702C10.1477 66.9102 10.5134 66.1788 10.7134 65.7445C11.6963 63.4873 12.7991 61.2187 13.7934 59.0015C14.0106 58.4872 14.4106 57.71 14.7077 57.2015C15.2392 56.2814 15.7992 55.4129 16.2963 54.5043C16.8164 53.6071 17.2735 52.6699 17.845 51.7385C18.5878 50.5099 19.3707 49.247 20.1764 48.0013C21.0279 46.7898 21.9193 45.6127 22.7993 44.5212C23.1765 44.0583 23.3422 43.8526 23.6736 43.3383C23.8851 43.0012 24.3194 42.4583 24.6622 42.0183C28.4966 37.0696 32.7652 32.4581 37.4053 28.2523C38.6968 27.138 39.9597 26.1723 41.2797 25.0294C41.834 24.5665 42.5369 24.0979 42.9369 23.6351C42.994 23.5722 43.2226 23.3779 43.3369 23.2979C43.7712 23.0008 44.1883 22.6865 44.5998 22.3608C45.0112 22.035 45.4398 21.7379 45.8569 21.4236C46.6912 20.795 47.5198 20.1607 48.3827 19.5779C48.7484 19.3207 49.1141 19.1036 49.497 18.8807C49.8856 18.6464 50.3484 18.3893 50.657 18.1664C51.9599 17.235 53.3028 16.3149 54.7371 15.5321C56.16 14.732 57.56 13.8806 59.0058 13.1549C59.9829 12.6349 61.0915 12.1491 61.903 11.572C62.023 11.4806 62.4687 11.2748 62.6687 11.2063C63.5659 10.892 64.4744 10.4862 65.383 10.0691L66.7488 9.4348C67.2059 9.23479 67.6745 9.05765 68.1317 8.88621C69.0745 8.53764 70.0917 8.03477 70.9831 7.82905C71.0974 7.80619 71.4689 7.64048 71.6974 7.53762C72.1032 7.37761 72.4917 7.20047 72.886 7.06903C73.9946 6.6976 75.2175 6.36616 76.1775 5.98901C77.3661 5.53758 78.5376 5.269 79.7033 4.92042C80.3719 4.72613 81.0576 4.5947 81.7491 4.41755C82.4062 4.28041 83.0805 4.10898 83.7491 3.95469C84.7034 3.73183 85.6863 3.48039 86.5949 3.29753C87.5435 3.13753 88.2692 2.87467 89.3321 2.77752C90.1435 2.70895 91.0407 2.4118 91.9378 2.23465C92.3836 2.16608 92.8693 2.12037 93.3207 2.08036C93.6693 2.04608 94.0065 2.05179 94.3207 2.00608C95.0465 1.90322 95.7494 1.84036 96.5208 1.68036C97.0522 1.55464 98.018 1.56035 98.7951 1.51464C99.5666 1.4575 100.355 1.39464 101.132 1.33749C101.909 1.28035 102.755 1.22892 103.464 1.19463C105.018 1.08606 106.595 1.0232 108.172 0.994629C109.75 1.04034 111.338 1.08034 112.91 1.12606C113.721 1.12035 114.658 1.18892 115.344 1.34892C115.47 1.37749 115.927 1.41749 116.167 1.42321C116.915 1.43464 117.67 1.46892 118.43 1.51464C119.19 1.54893 119.95 1.68036 120.71 1.77179L122.99 2.08036L124.127 2.22894C124.504 2.2918 124.881 2.35466 125.253 2.41751C127.39 2.77181 129.516 3.03467 131.659 3.60039C132.704 3.85754 133.767 4.09755 134.813 4.37184C135.853 4.6747 136.887 4.96042 137.893 5.21757C139.556 5.60615 141.156 6.1433 142.727 6.70331C143.493 6.99475 144.282 7.16618 145.03 7.44047C145.785 7.70333 146.527 7.98905 147.236 8.38335C148.008 8.69764 148.79 8.98336 149.556 9.31479L151.83 10.3548C152.47 10.6405 153.116 10.9377 153.756 11.2234C154.396 11.5206 154.996 11.8748 155.579 12.2349C156.002 12.5034 156.859 12.9377 157.362 13.1549C157.768 13.3263 158.162 13.5034 158.551 13.692C158.933 13.892 159.305 14.1035 159.682 14.3206C160.431 14.7549 161.162 15.2121 161.916 15.6806C162.271 15.9092 162.762 16.1092 163.174 16.3606C164.414 17.1492 165.659 17.9435 166.876 18.7493C167.785 19.3493 168.648 20.0121 169.539 20.6293C170.414 21.2693 171.334 21.8408 172.174 22.5208C173.882 23.8465 175.631 25.1151 177.237 26.578C177.842 27.1037 178.574 27.6123 179.088 28.0923C179.871 28.8352 180.62 29.6238 181.402 30.3724C182.174 31.1381 182.991 31.8581 183.728 32.6638C185.231 34.241 186.768 35.7782 188.094 37.4582C192.111 42.3097 195.883 47.3613 199.083 52.7842C199.483 53.4985 199.82 54.2928 200.037 54.6128C200.717 55.6129 201.34 56.8357 201.837 57.71C202.306 58.4872 202.723 59.2872 203.129 60.0872L203.729 61.2873L204.283 62.5044C204.832 63.6816 205.34 64.9845 205.946 66.0245C206.026 66.1788 206.186 66.5959 206.26 66.8245C206.546 67.7388 206.906 68.6188 207.277 69.4931C207.46 69.9331 207.654 70.3674 207.826 70.8074C207.986 71.2532 208.134 71.7046 208.272 72.156C208.906 73.8418 209.563 75.5504 210.014 77.3276C210.506 79.0933 211.02 80.8591 211.409 82.642C211.535 83.162 211.683 83.6648 211.82 84.1791C211.889 84.442 211.98 84.7449 212.02 84.9677C212.523 88.2364 213.237 91.585 213.557 94.9222C213.615 95.4708 213.666 96.0137 213.723 96.5622C213.752 97.1108 213.78 97.6537 213.809 98.208C213.877 99.3223 214.003 100.465 213.975 101.517C213.975 101.842 214.009 102.488 214.032 102.957C214.169 105.522 213.986 107.437 213.626 107.471C213.495 107.482 213.472 106.957 213.409 106.408C213.289 105.345 213.203 104.3 213.18 103.014C213.186 102.014 213.112 100.917 212.929 100.037C212.895 99.888 212.866 99.4309 212.866 99.1909C212.855 98.3337 212.803 97.4194 212.723 96.528C212.609 95.6365 212.495 94.7508 212.432 93.9393C212.317 92.6936 212.215 91.545 212.003 90.3735C211.849 89.3849 211.603 88.3735 211.54 87.3678C211.517 87.0306 211.266 86.0706 211.083 85.3906C210.694 83.7848 210.346 82.1562 209.952 80.5562C208.717 75.6933 206.946 71.076 205.1 66.4359C204.311 64.8359 203.557 63.1844 202.814 61.5215C201.991 59.9044 201.203 58.2643 200.329 56.71L198.689 53.9328L197.877 52.5442L197.008 51.1899L195.277 48.4813C194.666 47.6013 194.037 46.7327 193.414 45.8641C192.894 45.1555 192.506 44.5612 192.066 43.9212C191.774 43.504 191.466 43.064 191.14 42.6412L189.254 40.2297C188.591 39.4525 187.928 38.6811 187.265 37.9039C186.563 37.0696 185.711 36.1953 185.14 35.401C185.065 35.2867 184.723 34.9324 184.563 34.7896C183.894 34.1896 183.237 33.5267 182.591 32.841C181.928 32.1724 181.242 31.5095 180.562 30.8638C180.042 30.3724 179.551 29.8981 179.031 29.3209C178.46 28.7038 177.442 27.858 176.751 27.3152C176.225 26.9094 175.779 26.5266 175.294 26.1151C174.265 25.2923 173.219 24.4522 172.179 23.6179C171.157 22.7608 170.059 22.0122 168.962 21.3379C168.459 20.8807 167.859 20.4122 167.242 19.9721C166.631 19.5264 165.956 19.155 165.379 18.795C164.248 18.1264 163.151 17.3892 162.008 16.7378L158.585 14.7663C157.436 14.1206 156.253 13.5377 155.088 12.9263C154.499 12.6291 153.928 12.3034 153.328 12.0348L151.528 11.2234C150.362 10.7205 149.248 10.0691 148.042 9.61194C146.79 9.09765 145.516 8.60049 144.247 8.10334C143.562 7.87477 142.779 7.54904 142.202 7.48047C142.162 7.48047 142.036 7.44047 141.962 7.4119C141.236 7.14332 140.505 6.84617 139.785 6.61188C139.139 6.38902 138.504 6.32616 137.836 6.1433C137.036 5.9433 136.207 5.70329 135.39 5.47472C134.996 5.36614 134.59 5.25186 134.196 5.14328C133.802 5.04614 133.436 4.93756 133.122 4.81185C132.464 4.7947 131.561 4.5147 130.767 4.34327C130.013 4.18326 129.259 3.97755 128.493 3.85754L125.916 3.39468C125.053 3.25182 124.196 3.0461 123.333 2.97181C122.15 2.84609 120.99 2.72609 119.807 2.60038C119.498 2.56609 119.184 2.52609 118.87 2.48609L117.927 2.4118C117.298 2.36037 116.67 2.30894 116.041 2.25751C115.258 2.18322 114.475 2.11465 113.698 2.04036C112.915 1.98322 112.133 1.96608 111.35 1.92608C110.698 1.8975 110.144 1.92036 109.51 1.94893C109.087 1.96608 108.612 2.00608 108.104 2.01179C107.595 2.04608 107.058 2.04608 106.51 1.97179C106.292 1.94322 105.527 1.97179 105.104 2.00608C104.264 2.07465 103.418 2.11465 102.567 2.16037C101.721 2.24037 100.864 2.30323 100.012 2.36608L97.4465 2.54323C96.5951 2.64038 95.7493 2.75466 94.9093 2.87467C93.9722 2.9261 93.0522 3.02895 92.1264 3.16039C91.2121 3.34325 90.2921 3.53182 89.3378 3.7204C88.6349 3.85754 87.9263 3.99469 87.212 4.13755C86.4977 4.29184 85.7892 4.4747 85.0749 4.64042C84.3606 4.80042 83.652 4.96614 82.9434 5.12614C82.5891 5.20043 82.2405 5.28043 81.8919 5.35472C81.5491 5.44615 81.2062 5.53186 80.8691 5.62329C79.4347 5.99473 78.0119 6.37188 76.6118 6.80046C75.2232 7.26904 73.8461 7.73191 72.4575 8.20049C71.6746 8.45763 70.8746 8.85764 70.1774 8.99479C70.0174 9.02907 69.4403 9.26336 69.1317 9.40622C68.5945 9.65194 68.0517 9.89195 67.5088 10.1205C66.9716 10.3548 66.4459 10.6177 65.903 10.852C64.8287 11.3377 63.743 11.8006 62.6173 12.2634C61.463 12.812 60.2001 13.5206 58.9658 14.2063C58.0286 14.7035 57.0914 15.2921 56.1143 15.8464C55.1485 16.4178 54.1371 16.9378 53.1999 17.5435C52.3085 17.9378 51.7599 18.475 51.3828 18.795C50.8742 19.2236 50.3656 19.5721 49.7084 20.0007C48.8799 20.5779 48.0627 21.1436 47.3084 21.8008C46.9255 22.1379 45.9941 22.7893 45.5141 23.0636C44.8912 23.4636 44.6969 23.6579 44.1998 24.1151C43.6112 24.6522 42.8797 25.0522 42.0969 25.6808C41.674 26.0066 41.2454 26.3951 40.8283 26.7723C40.4054 27.1437 39.9768 27.4866 39.5711 27.738C39.4968 27.7837 39.2511 28.0009 39.1482 28.1037C37.7368 29.4923 36.1939 30.7209 34.811 32.1324C30.4909 36.1553 26.6966 40.8069 23.1822 45.5612C22.4622 46.5441 21.7307 47.5384 21.0107 48.5213C20.3364 49.5385 19.6678 50.5613 19.0507 51.6014C18.3821 52.6757 17.7935 53.8014 17.1707 54.8986C16.5592 56.0072 15.8963 57.0872 15.3478 58.2301L13.6163 61.613C13.0849 62.7616 12.5706 63.9216 12.0563 65.0759C11.8448 65.5673 11.6105 66.0931 11.3991 66.6188C11.1934 67.1445 10.9762 67.6474 10.7248 68.0703C10.6562 68.1845 10.4791 68.6474 10.4162 68.8531C10.1877 69.6246 9.9248 70.3732 9.62765 71.1046C9.35907 71.8532 9.08478 72.5903 8.78192 73.3446C8.63334 73.7104 8.40477 74.4018 8.36476 74.6418C8.25619 75.3104 7.9419 76.0304 7.75904 76.7276C7.51903 77.5619 7.11903 78.6419 7.0276 79.1562C6.84473 80.2533 6.51901 80.8076 6.32472 81.6248C6.19901 82.1277 6.09615 82.6934 5.99329 83.2248C5.94186 83.4763 5.919 83.802 5.87329 83.9391C5.62185 84.7563 5.43328 85.5792 5.29042 86.4078C5.1647 87.2421 5.05041 88.0764 4.87898 88.8992C4.81041 89.2535 4.73041 89.6307 4.66183 89.9793C4.55326 90.465 4.46183 90.8936 4.37611 91.2764C4.29611 91.6593 4.2504 92.0022 4.19897 92.3164C4.09611 92.945 4.01611 93.4707 3.94182 94.0308C3.80467 95.1508 3.60467 96.3965 3.4961 98.9109C3.22181 100.271 3.31324 101.899 3.17038 103.391C3.10752 103.934 3.09037 104.991 3.10752 105.671C3.1418 106.42 3.10752 107.174 3.14752 107.928C3.17038 108.682 3.19323 109.442 3.21609 110.203L3.26181 112.483C3.27324 113.243 3.36467 113.997 3.42181 114.745C3.47895 115.374 3.39324 115.86 3.55324 116.654C3.62181 116.951 3.56467 117.997 3.6561 118.677C3.78753 119.666 3.85039 120.717 4.09611 121.688C4.19897 122.083 4.26754 122.974 4.36469 123.631C4.53612 124.523 4.65041 125.431 4.90755 126.317C5.05041 126.797 5.25042 127.94 5.30756 128.511C5.45042 129.683 5.71328 130.786 5.98757 131.866C6.26187 132.94 6.5533 133.992 6.90188 135.032C7.10188 135.66 7.24474 136.1 7.40475 136.769C7.63332 137.706 7.9019 138.98 8.2219 139.66C8.74191 140.883 9.10764 142.1 9.52479 143.317C9.89622 144.369 10.3305 145.397 10.7248 146.438C11.1362 147.472 11.5134 148.523 11.9991 149.529C12.5191 150.689 13.0391 151.843 13.5592 153.003C14.1192 154.146 14.7192 155.272 15.342 156.398C15.9821 157.621 16.9649 159.158 17.5592 160.546C17.6278 160.701 18.005 161.181 18.2107 161.535C19.0164 162.918 19.9193 164.238 20.765 165.592C21.1822 166.272 21.645 166.924 22.1079 167.575L23.4851 169.535C23.6965 169.838 23.8851 170.175 24.0851 170.501C24.2908 170.821 24.5194 171.112 24.7765 171.341C25.3308 171.827 25.5937 172.604 26.0965 172.975C26.1708 173.027 26.5823 173.558 26.7766 173.838C27.3023 174.615 27.9251 175.33 28.5309 176.061C29.148 176.781 29.7652 177.507 30.3823 178.227C31.6909 179.615 33.011 180.992 34.3196 182.358C34.971 182.993 35.7596 183.667 36.1882 184.267C36.6282 184.638 37.0625 185.044 37.4968 185.461C37.9368 185.867 38.3882 186.278 38.8339 186.684C39.7311 187.501 40.6225 188.313 41.5597 188.953C42.834 190.01 44.3026 191.016 45.4569 192.124C45.6512 192.296 46.1369 192.593 46.3598 192.787C47.1312 193.438 47.7884 193.598 48.7084 194.421C49.2227 194.913 50.3656 195.587 51.2456 196.153L53.6914 197.73L56.4629 199.336C57.3829 199.873 58.3029 200.427 59.2629 200.884C60.2286 201.359 61.1829 201.827 62.143 202.296C63.103 202.77 64.103 203.164 65.0916 203.65C65.303 203.753 65.6802 203.902 65.7716 203.913C66.5373 204.022 67.4745 204.599 68.1488 204.913C68.7088 205.193 69.1888 205.41 69.8231 205.656C70.6803 205.987 71.5317 206.347 72.4003 206.656C73.2689 206.953 74.1432 207.256 75.0118 207.553C76.0404 207.913 77.1547 208.233 78.1204 208.627C78.4176 208.753 79.2633 208.987 79.749 209.096C81.9891 209.645 84.3148 210.193 86.6006 210.725C87.6406 210.942 88.6978 211.107 89.7435 211.307C90.5378 211.456 91.3493 211.507 92.1321 211.736C94.0979 211.89 96.0751 212.17 98.0637 212.365L101.052 212.61L102.549 212.73C103.047 212.765 103.549 212.759 104.047 212.776C106.03 212.799 108.012 212.919 109.995 212.822L112.973 212.747C113.967 212.73 114.955 212.616 115.944 212.553C116.933 212.479 118.035 212.33 118.927 212.399C119.098 212.405 119.807 212.313 120.013 212.256C120.578 212.107 121.007 212.01 121.664 212.033C121.784 212.033 122.321 211.947 122.607 211.89C123.407 211.73 124.127 211.656 124.961 211.547C125.613 211.473 126.493 211.342 127.121 211.193C127.961 211.005 128.784 210.822 129.601 210.639C130.419 210.439 131.236 210.273 132.093 210.147C132.304 210.119 132.853 209.89 133.23 209.81C133.59 209.725 133.956 209.639 134.322 209.559L135.402 209.239C136.122 209.033 136.842 208.833 137.573 208.684C138.167 208.553 139.024 208.307 139.739 208.067C140.973 207.673 142.116 207.199 143.425 206.799C144.093 206.61 144.762 206.336 145.442 206.062C146.122 205.787 146.808 205.513 147.482 205.239C148.848 204.73 150.156 204.102 151.482 203.502L153.465 202.599L155.408 201.604C156.693 200.93 158.008 200.307 159.253 199.547C160.505 198.81 161.785 198.119 163.014 197.336L166.676 194.97C167.511 194.381 168.282 193.844 169.145 193.296C169.699 192.947 170.277 192.564 170.877 192.153C171.459 191.718 172.059 191.25 172.694 190.753C173.317 190.25 173.974 189.718 174.665 189.164C175.339 188.593 176.014 187.947 176.728 187.295C176.934 187.107 177.162 186.913 177.385 186.724C178.842 185.513 180.151 184.141 181.528 182.844C182.225 182.204 182.865 181.507 183.517 180.821C184.168 180.141 184.825 179.461 185.477 178.781C186.597 177.57 187.705 176.335 188.808 175.05C189.517 174.204 190.174 173.347 190.791 172.427C191.288 171.649 192.22 170.735 192.706 169.764C192.894 169.415 193.494 168.569 193.826 168.169C194.368 167.495 194.928 166.798 195.397 166.044C195.871 165.289 196.351 164.535 196.826 163.786C197.969 162.101 198.917 160.289 199.934 158.529C200.449 157.672 200.9 156.781 201.277 155.826C201.454 155.358 202.037 154.301 202.409 153.666C202.98 152.683 203.403 151.632 203.82 150.649C204.26 149.592 204.471 149.066 204.706 148.552C204.911 148.026 205.129 147.512 205.58 146.478C205.689 146.232 205.797 145.958 205.9 145.695C206.157 145.043 206.42 144.38 206.677 143.723C206.906 143.055 207.134 142.386 207.363 141.717C207.803 140.375 208.3 139.06 208.609 137.729C208.889 136.626 209.18 135.54 209.477 134.454C209.78 133.374 209.986 132.272 210.249 131.174C210.443 130.3 210.626 129.277 210.917 128.563C210.957 128.46 211.043 127.957 211.066 127.74C211.152 126.797 211.306 125.831 211.483 124.86C211.569 124.374 211.672 123.888 211.746 123.397C211.809 122.906 211.877 122.414 211.94 121.934C212.163 120.048 212.312 118.317 212.449 116.38C212.615 114.568 212.763 112.717 212.769 110.877C212.837 108.082 212.94 107.482 213.329 107.494C213.649 107.5 213.7 108.214 213.712 110.477C213.775 112.877 213.546 115.277 213.38 117.568C213.357 117.854 213.335 118.14 213.312 118.42C213.277 118.7 213.237 118.98 213.203 119.254C213.135 119.808 213.06 120.351 212.992 120.883C212.855 121.951 212.723 122.974 212.603 123.94L212.535 123.911Z" fill="#35BA95"/>
<path d="M93.6701 34.8126C93.5718 33.2835 93.2525 31.8404 92.8288 30.4035C92.7612 30.1763 92.6507 29.9613 92.5586 29.8692C92.4358 29.7464 92.2945 29.7894 92.1471 29.9368C92.1471 29.9061 92.141 29.8754 92.1348 29.8447C92.1348 29.8324 92.1287 29.8201 92.1287 29.8017C92.3621 29.8754 92.5463 29.6297 92.6445 29.0955C92.7367 28.5612 92.7981 27.9533 92.7428 27.3085C92.6691 26.676 92.5402 25.9944 92.3621 25.2943C92.1226 24.6188 91.8585 23.9127 91.5392 23.2126C91.1646 22.5433 90.8023 21.8493 90.3724 21.2107C88.8065 18.8772 86.7739 16.8323 84.4159 15.2725C82.0639 13.7066 79.3927 12.6259 76.6355 12.1346C74.1914 11.6925 71.7044 11.5451 69.2358 11.7907C68.0015 11.889 66.7672 12.1162 65.582 12.4846C65.2811 12.5767 64.9864 12.675 64.6977 12.7794L64.2617 12.9452L64.0468 13.0311L63.9363 13.0741C63.9363 13.0741 63.8933 13.0926 63.9117 13.0864C63.881 13.111 63.8442 13.1478 63.7828 13.2154C63.7398 13.2154 63.6907 13.2031 63.6047 13.1662H63.5863C63.5863 13.1662 63.574 13.1478 63.6108 13.2031L63.574 13.154C63.531 13.0926 63.4819 13.025 63.4327 12.9575C63.3406 12.8224 63.2547 12.6873 63.1871 12.5644C62.9476 12.1346 62.7265 11.6925 62.4564 11.2872C62.1862 10.8819 61.9344 10.452 61.5905 10.1081C61.1913 9.70283 60.7738 9.31596 60.3194 8.97822C59.8527 8.65276 59.4044 8.30887 58.95 7.96499C58.3789 7.57198 57.7771 7.01316 57.1446 6.61401C56.8375 6.40522 56.5366 6.20258 56.2603 6.04291C55.9717 5.90168 55.7076 5.785 55.4927 5.72973C53.5829 5.22005 51.6301 4.3849 50.0949 3.88749C48.3018 3.27341 46.3859 3.03392 44.4884 3.06462C42.5847 3.13217 40.724 3.46992 38.8879 3.93048C37.2913 4.37876 35.7316 5.05424 34.2823 5.88325C32.8393 6.72454 31.4391 7.61496 30.082 8.5545C29.5478 8.86154 28.7188 9.80109 28.5407 10.1573C28.3012 10.6731 28.0003 11.1705 27.6257 11.631C27.2634 12.0977 26.9134 12.589 26.5756 13.068C25.6054 14.6032 24.8132 16.2551 24.2298 17.9806C23.9781 18.8526 23.6956 19.7185 23.5359 20.6089L23.407 21.2168L23.3947 21.3028C23.3824 21.3704 23.3701 21.4502 23.3456 21.4993L23.1613 21.4563L23.0754 21.4318C23.0262 21.4256 23.0999 21.4195 22.842 21.4011C20.7419 21.2598 18.6601 21.6344 16.7258 22.2915C15.7371 22.5494 14.8099 22.9854 13.8457 23.3047C13.3729 23.4889 12.9123 23.7039 12.4334 23.8881L11.7087 24.1521L10.9964 24.4592C10.7631 24.5513 10.2902 24.8276 10.2227 24.9259C9.49192 25.976 8.05497 26.7988 7.01717 27.7998C5.21177 29.5622 3.76254 31.5457 2.39315 33.7625C1.01146 35.9793 0.36668 39.0006 0.127188 41.7885C-0.118444 44.4659 -0.0508947 47.2109 0.710565 49.8391C1.68081 53.3517 3.63973 56.5879 6.21273 59.167C7.16455 60.082 8.09795 60.954 9.39366 61.5865C10.0384 61.9304 10.8306 62.3295 11.6289 62.7962C12.0403 63.005 12.4518 63.2384 12.8448 63.4779C13.2501 63.7112 13.6554 63.9261 14.0238 64.1718C14.3309 64.3928 15.0002 64.6876 15.123 64.6876C15.3073 64.6876 15.4976 64.6876 15.688 64.7122C15.774 64.7122 15.9029 64.7429 15.9459 64.7367C15.9827 64.7306 16.0196 64.7244 16.0564 64.7183C16.21 64.706 16.3696 64.7244 16.5231 64.7613C16.5845 64.8165 16.5723 64.8964 16.5907 64.9762C16.646 65.1604 16.7074 65.3508 16.7626 65.535C16.8179 65.7315 16.8916 65.9219 16.9776 66.1061C17.3337 66.8921 17.6776 67.6229 18.1566 68.2493C18.3777 68.5686 18.5987 68.8879 18.8198 69.2011C19.047 69.5143 19.3049 69.8029 19.5321 70.1222C21.0428 72.1118 22.6824 74.0032 24.6904 75.5875C25.0404 75.8454 25.3966 76.1095 25.7528 76.3735C26.1274 76.613 26.5142 76.8341 26.9011 77.0613L27.4845 77.3991C27.6871 77.5034 27.8898 77.5894 28.0986 77.6815L29.339 78.2281L30.6286 78.6579L31.2795 78.8667L31.9427 79.0141C32.3848 79.1062 32.827 79.2044 33.2691 79.2966C33.7174 79.3457 34.1595 79.401 34.6078 79.4501L35.2342 79.5238C35.443 79.5422 35.6517 79.5422 35.8605 79.5545C36.2781 79.579 36.6895 79.6036 37.101 79.6282C37.9238 79.6527 38.7528 79.6282 39.5819 79.6036C40.4047 79.4992 41.246 79.4562 42.0689 79.2659C42.904 79.1001 43.7269 78.8421 44.5498 78.5044C46.4289 77.7245 48.3141 76.7727 50.0519 75.5568C50.9239 74.955 51.7591 74.2857 52.5328 73.5611C52.9258 73.2049 53.2881 72.8119 53.6566 72.4311L54.1786 71.8293L54.3075 71.6758L54.3935 71.5776L54.4487 71.4977C54.5409 71.3688 54.5716 71.3135 54.6207 71.2214L55.6094 71.6942C56.4384 72.0934 57.2981 72.4311 58.1701 72.7198C59.9202 73.2909 61.7256 73.6593 63.5556 73.7944C67.8603 74.1567 72.2816 73.254 76.046 71.1354C77.4154 70.3556 79.0734 69.7599 79.6383 68.9984C80.1849 68.237 80.8174 67.6229 81.3884 66.9597C81.6771 66.6281 82.0087 66.3395 82.2789 65.9956C82.5552 65.6578 82.8254 65.3201 83.0833 64.9762C85.7607 61.218 87.3512 56.6186 87.2652 51.9761V50.9936C87.2345 50.6681 87.1915 50.3427 87.1608 50.0172L87.124 49.6795C87.124 49.6795 87.1178 49.6365 87.124 49.6119L87.2038 49.5382L87.3635 49.3908C87.4678 49.3172 88.0512 48.6847 88.4749 48.2364C88.8925 47.7328 89.3346 47.2477 89.7092 46.7073C91.2813 44.6072 92.448 42.2184 93.2095 39.7068C93.713 37.9997 93.8113 36.3662 93.7069 34.8433L93.6701 34.8126Z" fill="#FFCD7D"/>
<path d="M64.2434 84.4119C64.2188 84.0311 64.2864 83.6504 64.1636 83.2635C63.9425 82.588 63.6354 81.9433 63.2179 81.3722C62.7942 80.7888 62.2231 80.3651 61.6765 79.8799C61.3818 79.6097 60.9519 79.4931 60.5773 79.3457C60.2089 79.2044 59.8343 79.0632 59.4413 78.9895C59.1281 78.9404 58.8088 78.9158 58.4956 78.9527C58.1947 78.9711 57.9061 79.0816 57.6175 79.143C57.1446 79.2597 56.6718 79.3887 56.2358 79.6097C56.0761 79.6834 55.9165 79.7633 55.7691 79.8554C55.6156 79.9413 55.4682 80.0396 55.3331 80.1501C55.2225 80.2422 55.1304 80.451 55.0629 80.4633C54.805 80.494 54.6822 80.7089 54.5286 80.8625C54.1418 81.2064 53.933 81.6976 53.7119 82.1398C53.368 82.8889 53.1347 83.6872 53.0794 84.5101C53.0241 85.3453 53.2636 86.1436 53.4171 86.9726C53.4601 87.1752 53.5891 87.3656 53.6935 87.5498C53.8163 87.7524 53.9882 87.949 54.0558 88.1393C54.1295 88.3543 54.2953 88.4279 54.4181 88.5569C55.1182 89.3736 56.07 89.9447 57.0894 90.2702C58.1149 90.5895 59.1772 90.4912 60.2457 90.3807C60.5528 90.3562 60.9089 90.2518 61.1116 89.9754C61.6458 89.8219 61.9897 89.3798 62.3766 89.042C62.831 88.6429 63.353 88.2191 63.4819 87.5866C63.4819 87.5559 63.5249 87.513 63.5495 87.513C63.7337 87.4823 63.7276 87.2919 63.8135 87.1752C64.0837 86.7945 64.0776 86.3155 64.1267 85.8918C64.1329 85.683 64.139 85.4681 64.1267 85.2593C64.1206 85.1242 64.0653 84.9952 64.01 84.8785C63.9732 84.811 63.9241 84.7803 63.8749 84.768C63.8749 84.768 63.8749 84.768 63.8749 84.7619C63.8749 84.7619 63.8749 84.7557 63.8749 84.7496C64.0346 84.7066 64.2434 84.5408 64.2372 84.3996L64.2434 84.4119Z" fill="#FFCD7D"/>
<path d="M71.9438 91.9896C71.649 91.5782 71.2376 91.2957 70.8753 90.9211C70.6788 90.7123 70.3656 90.6509 70.1016 90.5404C69.8436 90.436 69.5796 90.3193 69.2971 90.264C69.076 90.2272 68.8488 90.2026 68.6216 90.2395C68.4067 90.2579 68.2041 90.3562 68.0014 90.3991C67.6698 90.4851 67.3321 90.5772 67.025 90.7307C66.7978 90.8351 66.5829 90.9579 66.3925 91.1176C66.3127 91.1852 66.2758 91.3571 66.2206 91.3571C66.0056 91.3448 65.9381 91.5168 65.8276 91.6212C65.5451 91.8607 65.4223 92.223 65.2749 92.5361C65.0477 93.0642 64.8757 93.6231 64.8328 94.2064C64.7898 94.796 64.9863 95.3425 65.0477 95.9443C65.0661 96.0917 65.1705 96.2206 65.238 96.3557C65.324 96.497 65.4591 96.6259 65.4898 96.7794C65.5205 96.9452 65.6618 96.9821 65.7477 97.0742C66.239 97.6514 66.9206 98.0506 67.6391 98.2901C68.3698 98.5234 69.1129 98.419 69.8805 98.3883C70.1016 98.3883 70.3656 98.3146 70.4823 98.0751C70.8692 97.983 71.0902 97.6269 71.3543 97.3874C71.6675 97.1049 72.0728 96.8286 72.1096 96.3557C72.1096 96.3373 72.1403 96.3066 72.1649 96.3066C72.3245 96.3066 72.3061 96.1592 72.3675 96.0794C72.5763 95.8215 72.5333 95.4714 72.5517 95.1705C72.5517 95.0232 72.5395 94.8758 72.5272 94.7284C72.5149 94.6363 72.4596 94.5442 72.4044 94.4643C72.3675 94.4152 72.3184 94.3968 72.2631 94.3907C72.2631 94.3907 72.2631 94.3907 72.2631 94.3845C72.4289 94.3538 72.6377 94.2371 72.6316 94.1389C72.6131 93.8748 72.7053 93.5985 72.607 93.3283C72.4412 92.8555 72.2324 92.4072 71.9438 91.9958V91.9896Z" fill="#FFCD7D"/>
<path d="M177.609 181.86L159.628 194.013C166.611 190.23 172.555 186.122 177.609 181.86Z" fill="#E37354"/>
<path d="M177.191 183.168C176.927 183.346 176.694 183.469 176.51 183.666C176.479 183.696 176.577 183.924 176.534 183.948C176.356 184.046 176.307 184.353 175.994 184.237C175.65 184.108 175.453 184.2 175.386 184.476C175.325 184.734 175.14 184.796 175.011 184.955C174.968 185.011 174.944 185.084 174.735 184.9C174.581 184.765 174.489 184.796 174.631 185.127C174.655 185.189 174.594 185.146 174.557 185.133C174.52 185.115 174.41 185.004 174.422 185.06C174.569 185.612 174.176 185.385 174.09 185.6C174.066 185.655 173.937 185.551 174.103 185.87C174.145 185.95 174.115 185.993 174.053 185.932C173.9 185.766 173.845 185.754 173.808 185.778C173.654 185.901 173.482 186.005 173.323 186.116C173.507 186.558 173.298 186.447 173.212 186.503C173.145 186.546 172.991 186.454 172.874 186.423C172.758 186.392 172.856 186.681 172.561 186.386C172.512 186.337 172.561 186.46 172.543 186.478C172.481 186.558 172.481 186.742 172.316 186.669C172.23 186.632 172.15 186.595 172.113 186.619C171.597 186.951 171.094 187.295 170.59 187.645C170.547 187.676 170.473 187.657 170.578 187.915C170.658 188.112 170.584 188.179 170.43 188.026C170.185 187.78 170.209 187.934 170.142 187.952C170.019 187.989 169.951 188.105 169.829 188.136C169.755 188.155 169.829 188.4 169.509 188.044C169.478 188.007 169.46 188.026 169.478 188.062C169.663 188.48 169.393 188.21 169.288 188.21C169.214 188.21 169.171 188.247 169.245 188.462C169.313 188.677 169.245 188.763 169.073 188.603C168.834 188.388 168.834 188.511 168.772 188.548C168.41 188.763 168.054 188.99 167.722 189.254C167.563 189.377 167.636 189.831 167.372 189.806C167.311 189.806 167.366 189.978 167.145 189.727C167.102 189.678 167.09 189.727 167.12 189.806C167.237 190.077 167.133 190.015 167.071 190.04C166.801 190.144 166.469 190.163 166.396 190.543C166.341 190.844 166.113 190.881 165.972 191.053C165.929 191.108 165.745 190.967 165.659 190.967C165.573 190.967 165.53 191.022 165.481 191.084C165.45 191.114 165.364 191.065 165.481 191.305C165.542 191.434 165.512 191.501 165.432 191.422C165.149 191.145 165.161 191.323 165.088 191.36C164.873 191.477 164.689 191.636 164.474 191.753C164.418 191.784 164.474 191.98 164.204 191.673C164.167 191.63 164.21 191.759 164.216 191.802C164.216 191.851 164.259 191.962 164.216 191.925C163.792 191.581 163.823 191.925 163.682 191.993C163.332 192.171 163.049 192.447 162.693 192.607C162.595 192.65 162.705 192.987 162.607 193.03C162.509 193.073 162.447 193.159 162.349 193.19C162.275 193.215 162.318 193.411 162.03 193.104C161.95 193.024 161.913 193.055 161.956 193.153C162.116 193.534 161.925 193.411 161.888 193.509C161.845 193.632 161.612 193.479 161.766 193.89C161.809 194.001 161.637 193.841 161.594 193.853C161.514 193.866 161.446 193.896 161.397 193.952C161.373 193.982 161.428 194.123 161.409 194.154C161.244 194.388 161.09 194.639 160.894 194.83C160.746 194.971 160.568 195.075 160.396 195.186L158.941 192.791L159.125 192.693C159.365 192.564 159.586 192.404 159.844 192.318C159.942 192.287 159.88 191.95 160.237 192.392C160.157 192.054 160.329 192.189 160.58 192.478C160.617 192.521 160.568 192.367 160.562 192.312C160.55 192.152 160.335 191.63 160.697 192.122C160.709 192.14 160.703 192.109 160.716 192.122C160.814 192.165 160.55 191.606 160.802 191.888C160.961 192.066 160.98 191.937 161.047 191.925C161.115 191.907 161.188 191.894 161.225 191.815C161.262 191.735 161.471 191.943 161.299 191.507C161.268 191.44 161.477 191.692 161.489 191.655C161.569 191.483 161.919 191.759 161.784 191.207C161.753 191.078 161.809 191.065 161.895 191.139C162.214 191.415 162.22 191.17 162.263 190.973C162.324 190.715 162.46 190.55 162.908 190.955C163.006 191.041 163.067 191.114 162.994 190.918C162.945 190.789 163 190.795 163.031 190.777L164.068 190.15C164.161 190.095 164.48 190.414 164.492 190.218C164.492 190.138 164.658 190.298 164.498 189.96C164.474 189.911 164.48 189.88 164.498 189.899C164.842 190.193 164.633 189.604 164.842 189.684C164.885 189.702 164.953 189.757 165.002 189.782C165.051 189.806 165.137 189.88 165.125 189.813C165.02 189.254 165.413 189.481 165.518 189.254C165.555 189.18 165.751 189.34 165.561 188.922C165.53 188.861 165.561 188.849 165.604 188.892C165.997 189.285 165.886 188.861 166.07 188.916C166.162 188.941 166.07 188.652 166.359 189.002C166.396 189.045 166.396 188.996 166.39 188.959C166.39 188.898 166.328 188.756 166.353 188.75C166.426 188.732 166.629 188.891 166.605 188.732C166.574 188.535 166.678 188.554 166.74 188.505C166.777 188.474 166.924 188.621 166.985 188.634C167.047 188.646 167.065 188.591 167.102 188.572C167.157 188.535 167.17 188.437 167.274 188.486C167.384 188.541 167.17 188.118 167.397 188.351C167.575 188.523 167.391 188.13 167.409 188.056C167.421 188.02 167.477 188.044 167.526 188.069C167.563 188.087 167.667 188.198 167.673 188.179C167.698 188.13 167.784 188.179 167.716 187.983C167.667 187.848 167.857 188.026 167.919 188.026C167.98 188.026 168.005 187.977 168.048 187.946C168.091 187.915 168.183 187.964 168.164 187.848C168.072 187.344 168.398 187.467 168.533 187.307C168.57 187.264 168.533 187.098 168.791 187.405C168.84 187.461 168.864 187.448 168.852 187.405C168.699 186.834 169.116 187.086 169.184 186.847C169.233 186.675 169.227 186.423 169.374 186.38C169.515 186.343 169.693 186.349 169.693 186.116C169.693 185.925 169.693 185.741 169.841 185.766C169.982 185.784 169.607 185.078 170.08 185.569C170.166 185.508 170.24 185.428 170.344 185.391C170.43 185.361 170.406 185.164 170.707 185.434C170.817 185.532 170.86 185.483 170.811 185.361C170.658 184.955 170.811 184.992 171.032 185.09C171.081 185.115 170.995 184.937 171.014 184.912C171.075 184.839 171.13 184.759 171.241 184.746C171.566 184.722 171.517 184.188 171.732 184.016C171.775 183.985 171.628 183.696 171.714 183.733C172.236 183.973 172.15 183.389 172.543 183.463C173.126 183.567 173.255 183.07 173.636 182.904C173.685 182.88 173.937 183.113 173.894 183.021C173.771 182.738 173.998 182.886 173.906 182.665C173.746 182.272 174.004 182.419 174.029 182.266C174.047 182.155 174.287 182.315 174.06 181.903C174.029 181.842 174.06 181.836 174.103 181.866C174.471 182.13 174.164 181.553 174.379 181.633C174.225 181.08 174.637 181.216 174.741 180.976C174.76 180.939 174.71 180.835 174.698 180.761C174.692 180.724 174.661 180.657 174.698 180.681C175.214 180.976 175.103 180.503 175.361 180.485C175.447 180.479 175.595 180.552 175.687 180.552C175.779 180.552 175.742 180.399 176.018 180.62C176.104 180.687 176.098 180.62 176.098 180.571C176.074 180.288 176.639 180.773 177.4 181.664C177.676 181.989 177.664 182.026 177.738 182.173C177.879 182.45 177.953 182.646 177.867 182.677C177.799 182.702 177.658 182.646 177.873 182.996C177.91 183.058 177.873 183.064 177.83 183.033C177.511 182.824 177.597 183.131 177.357 183.009C177.173 182.917 177.148 183.002 177.038 182.99C176.946 182.984 177.032 183.193 176.743 182.947C176.645 182.867 176.798 183.156 176.774 183.193C176.712 183.291 176.639 183.377 176.522 183.402C176.16 183.475 176.289 184.157 175.932 184.237C176.074 184.789 175.582 184.568 175.558 184.918C175.527 185.342 175.196 185.379 175.054 185.668C175.024 185.723 174.981 185.747 174.858 185.668C174.778 185.618 174.692 185.569 174.661 185.582C174.539 185.649 174.459 185.766 174.324 185.809C174.25 185.833 174.348 186.091 173.998 185.741C173.949 185.692 173.931 185.717 173.955 185.772C174.158 186.233 173.875 186.073 173.808 186.196C173.783 186.245 173.734 186.257 173.587 186.147C173.427 186.024 173.372 186.097 173.427 186.269C173.47 186.404 173.445 186.429 173.433 186.484C173.39 186.724 172.948 186.429 173.163 187.006C172.782 186.638 172.795 186.84 172.795 186.994C172.795 187.59 172.303 187.51 172.076 187.786C172.021 187.854 171.818 187.719 171.726 187.731C171.628 187.743 171.56 187.811 171.505 187.884C171.474 187.921 171.327 187.811 171.517 188.148C171.53 188.173 171.536 188.191 171.53 188.191C171.45 188.167 171.327 188.081 171.302 188.136C171.278 188.185 171.394 188.419 171.394 188.498C171.394 188.597 171.351 188.634 171.315 188.677C171.272 188.713 171.278 188.818 171.044 188.566C171.253 188.934 171.075 188.799 171.051 188.855C171.026 188.91 170.971 188.916 170.928 188.947L170.786 189.045C170.737 189.076 170.67 189.082 170.645 189.149C170.615 189.242 170.633 189.413 170.596 189.493C170.553 189.579 170.479 189.628 170.387 189.641C170.271 189.653 170.111 189.604 169.982 189.604C169.927 189.604 169.957 189.708 170.007 189.856C170.068 190.052 170.252 190.451 169.871 190.015C169.798 189.929 169.773 189.985 169.792 190.064C169.933 190.678 169.466 190.402 169.368 190.666C169.024 190.371 169.067 190.666 169.024 190.832C168.963 191.084 168.828 191.256 168.533 191.145C168.22 191.022 168.14 191.262 167.919 191.28C167.857 191.28 167.894 191.452 167.642 191.151C167.587 191.084 167.563 191.127 167.575 191.188C167.661 191.618 167.47 191.606 167.188 191.464C167.041 191.391 167.047 191.581 167.047 191.759C167.047 192.023 166.826 191.968 166.703 192.048C166.39 191.673 166.611 192.115 166.691 192.312C166.801 192.57 166.789 192.637 166.752 192.668C166.697 192.711 166.598 192.668 166.703 192.975C166.758 193.129 166.672 193.135 166.555 193.012C166.396 192.846 166.433 192.944 166.476 193.098C166.525 193.276 166.242 192.92 166.193 192.975C166.144 193.03 166.199 193.282 165.88 192.883C165.849 192.846 165.837 192.865 165.849 192.901C166.003 193.411 165.505 192.84 165.505 193.104C164.873 192.815 164.775 193.436 164.332 193.466C164.148 193.479 163.817 193.239 163.798 193.516C163.749 194.099 163.282 193.976 163.037 194.222C162.982 194.271 163.024 194.51 162.724 194.117C162.681 194.062 162.656 194.087 162.674 194.142C162.803 194.584 162.644 194.516 162.398 194.302C162.337 194.252 162.3 194.283 162.349 194.394C162.478 194.707 162.361 194.615 162.318 194.633C162.263 194.652 162.054 194.431 162.103 194.596C162.22 194.946 161.981 194.615 161.901 194.584C161.852 194.566 161.864 194.664 161.858 194.731C161.858 194.762 161.907 194.903 161.882 194.879C161.581 194.572 161.778 195.149 161.594 195.057C161.557 195.038 161.538 195.057 161.495 195.026C160.998 194.676 160.998 194.67 160.838 195.075C160.47 194.596 160.802 195.419 160.494 195.069C160.384 194.94 160.341 195.008 160.359 195.137C160.378 195.266 160.372 195.352 160.347 195.407L158.708 192.711C158.763 192.521 159.008 192.613 159.07 192.429C159.088 192.379 159.334 192.693 159.199 192.392C159.15 192.281 159.401 192.533 159.432 192.496C159.475 192.441 159.653 192.582 159.487 192.226C159.42 192.079 159.543 192.152 159.555 192.097C159.579 192.023 159.715 192.115 159.58 191.815C159.506 191.649 159.567 191.606 159.684 191.71C160.169 192.152 159.966 191.593 159.96 191.329C159.96 191.25 159.948 191.182 160.04 191.237C160.169 191.317 160.341 191.415 160.273 191.237C160.157 190.906 160.304 190.979 160.359 190.912C160.458 190.801 160.617 190.771 160.709 190.648C160.82 190.507 161.047 190.556 161.01 190.193C160.992 190.003 160.998 189.8 161.379 190.181C161.422 190.224 161.287 189.954 161.311 189.942C161.471 189.806 161.643 189.678 161.839 189.592C161.882 189.573 162.22 189.972 162.024 189.604C161.815 189.205 162.349 189.905 162.079 189.438C162.042 189.37 162.079 189.352 162.128 189.383C162.65 189.714 162.613 189.205 162.902 189.186C162.969 189.186 162.902 188.965 163.196 189.309C163.043 188.812 163.755 189.567 163.43 188.818C163.596 188.867 163.454 188.456 163.841 188.836C163.903 188.898 163.86 188.769 163.921 188.824C164.124 189.008 163.7 188.308 164.007 188.615C164.179 188.787 164.173 188.621 164.24 188.597C164.302 188.572 164.345 188.529 164.4 188.492L164.572 188.376C164.627 188.339 164.707 188.327 164.744 188.253C164.818 188.105 164.744 187.762 164.94 187.786C164.959 187.786 164.947 187.725 164.91 187.651C164.56 187.049 164.836 187.332 164.99 187.467C165.119 187.584 165.192 187.633 165.229 187.602C165.327 187.528 165.413 187.436 165.536 187.405C165.61 187.387 165.548 187.16 165.849 187.485C165.941 187.584 165.972 187.528 165.948 187.43C165.819 186.969 166.101 187.105 166.187 186.963C166.23 186.902 166.298 186.871 166.359 186.847C166.408 186.822 166.285 186.546 166.488 186.754C166.39 186.147 166.813 186.3 166.998 186.097C167.176 185.901 167.415 185.778 167.642 185.655C167.698 185.625 167.642 185.397 167.943 185.754C168.005 185.821 168.035 185.79 167.999 185.704C167.888 185.477 167.839 185.348 168.066 185.606C168.109 185.655 168.097 185.575 168.078 185.508C168.017 185.324 168.072 185.318 168.213 185.428C168.324 185.514 168.416 185.545 168.398 185.44C168.349 185.158 168.312 184.912 168.674 185.256C168.717 185.299 168.576 185.017 168.606 185.017C168.723 185.017 168.662 184.746 168.95 185.004C169.067 185.109 169.055 184.98 169.116 184.986C169.227 184.998 169.153 184.74 169.307 184.814C169.466 184.888 169.485 184.734 169.564 184.679L169.804 184.519L170.043 184.36L170.283 184.2L170.522 184.04C170.602 183.985 170.676 183.93 170.762 183.881C170.817 183.85 170.903 183.856 171.057 183.973C171.462 184.267 171.597 184.096 171.603 183.647C171.603 183.617 171.634 183.623 171.646 183.61C171.855 183.469 172.008 183.26 172.285 183.224C172.408 183.211 172.616 183.322 172.684 183.23C172.733 183.168 172.831 183.193 172.727 182.91C172.641 182.677 172.948 182.978 172.764 182.579C172.696 182.431 172.758 182.401 172.856 182.487C173.194 182.781 173.163 182.53 173.28 182.487C173.415 182.444 173.519 182.364 173.611 182.259C173.654 182.21 173.795 182.296 173.648 181.959C173.574 181.793 173.709 181.848 173.832 181.946C174.023 182.094 174.06 182.02 174.066 181.897C174.072 181.639 174.047 181.609 174.324 181.744C174.354 181.762 174.373 181.75 174.391 181.744C174.545 181.639 174.796 181.676 174.821 181.394C174.839 181.154 174.956 181.062 175.073 180.97C175.122 180.933 175.06 180.724 175.361 181.08C175.404 181.13 175.429 181.105 175.41 181.05C175.232 180.565 175.49 180.712 175.595 180.632C175.693 180.558 175.558 180.153 175.724 180.165C175.877 180.178 175.932 180.043 176.037 179.981C176.19 179.883 176.381 180.086 177.081 181.13C177.664 181.989 177.75 182.204 177.75 182.468C177.75 183.027 177.296 182.916 177.161 183.168H177.191Z" fill="#E37354"/>
<path d="M139.542 100.052C100.093 100.052 68.1118 124.806 68.1118 155.338V194.639C68.818 197.2 70.4208 201.671 74.1605 205.945C76.7089 208.855 79.374 210.679 81.3207 211.784C92.4355 213.774 120.763 217.237 151.75 202.696C193.218 183.23 209.528 145.544 213.17 136.492C207.797 129.768 197.087 118.149 179.936 109.743C163.141 101.508 147.955 100.175 139.542 100.059V100.052Z" fill="#E37354"/>
<path d="M129.477 101.465C127.985 101.612 126.64 101.833 125.357 101.999C124.086 102.226 122.882 102.441 121.685 102.699C121.316 102.791 120.948 103.117 120.481 103.215C118.608 103.583 116.778 104.314 114.936 104.535C113.935 104.683 112.946 104.898 111.988 105.168C111.042 105.475 110.128 105.837 109.256 106.242C107.622 107.065 105.933 107.649 104.331 108.453C103.79 108.723 103.262 108.987 102.556 109.036C102.04 109.067 101.236 109.442 100.818 110.05C100.738 110.166 100.462 110.222 100.265 110.283C100.057 110.344 99.768 110.338 99.6513 110.455C99.0065 111.118 98.2389 111.579 97.4345 111.996C96.6546 112.445 95.844 112.856 95.1132 113.378C94.7448 113.63 94.2597 113.777 94.143 114.287C94.1123 114.416 93.7623 114.674 93.6087 114.674C93.2035 114.674 92.8841 114.833 92.5341 115.073C91.0419 116.141 89.5558 117.228 88.1496 118.407C87.7381 119.316 86.8661 119.838 86.1477 120.477C85.8775 120.716 85.5827 120.925 85.2818 121.128L84.4037 121.766C83.8264 122.221 83.4641 122.952 82.7027 123.185C82.5799 123.222 82.4816 123.51 82.3465 123.67C81.757 124.37 81.2043 125.144 80.5595 125.721C80.2218 126.01 79.8779 126.298 79.5954 126.642C76.0031 131.057 73.1414 136.074 71.2992 141.448C71.115 141.908 70.9615 142.356 71.0597 142.928C71.1457 143.382 70.9 144.223 70.5869 144.549C70.114 145.077 70.114 145.697 69.9605 146.287L69.7579 147.103L69.6228 147.932C69.5368 148.485 69.4508 149.044 69.3403 149.59C69.2236 150.247 69.4078 151.009 68.8797 151.549C68.8306 151.605 68.806 151.813 68.849 151.887C69.2052 152.661 68.849 153.349 68.7508 154.092C68.6955 154.632 68.6648 155.166 68.8981 155.768C69.1131 156.351 69.1499 157.322 68.9166 157.862C68.6095 158.58 68.7078 159.244 68.7016 159.919C68.6771 163.898 68.6648 167.878 68.7016 171.851C68.7139 173.73 69.1254 175.591 68.9657 177.488C68.9289 177.942 69.1008 178.434 68.7753 178.839C68.7078 178.925 68.7508 179.287 68.8306 179.429C69.1254 179.944 69.0087 180.46 68.9964 181.05C68.935 183.696 68.7569 186.392 69.0332 188.99C69.1438 190.003 69.1683 191.004 69.1806 192.005L69.1929 193.503V194.252L69.2113 194.48L69.285 194.688C69.4815 195.284 69.4754 195.978 69.6596 196.617C69.8377 197.231 70.1017 197.826 70.3781 198.404C70.5439 198.747 70.6237 199.14 71.0229 199.362C71.2378 199.478 71.5141 199.945 71.5264 200.191C71.5326 201.032 72.0852 201.652 72.4967 202.309C73.6941 204.182 75.1556 205.877 76.7645 207.4C77.1637 207.781 77.7409 208.02 77.8637 208.646C77.8821 208.732 78.2076 208.831 78.3918 208.923C78.5883 209.021 78.8647 209.089 78.9568 209.23C79.3805 209.868 79.97 210.341 80.6087 210.728C80.7683 210.826 80.9341 210.919 81.0999 211.011L81.5175 211.226C81.671 211.25 81.8123 211.262 81.9842 211.287L82.543 211.379C86.1415 212.036 89.7892 212.392 93.4307 212.736C94.45 212.822 95.365 212.54 96.3537 212.62C97.3117 212.675 98.2696 212.663 99.2214 212.724C99.8969 212.773 100.615 212.607 101.242 213.006C101.414 213.117 101.905 213.111 102.108 213.006C102.863 212.601 103.692 212.81 104.49 212.749C105.454 212.644 106.468 212.859 107.401 212.392C107.653 212.27 108.162 212.472 108.555 212.478C109.237 212.497 109.919 212.429 110.6 212.368C110.926 212.331 111.233 212.159 111.558 212.116L113.431 211.895C114.058 211.821 114.678 211.698 115.298 211.606L119.026 211.035C120.284 210.808 121.549 210.599 122.814 210.397C123.447 210.304 124.079 210.182 124.7 210.047L126.579 209.654C129.096 209.181 131.547 208.419 134.04 207.842C134.973 207.596 135.864 206.958 136.877 207.228C137.62 206.645 138.418 206.602 139.284 206.724C139.407 206.743 139.622 206.509 139.806 206.399C140.377 206.049 140.758 205.294 141.636 205.619C141.667 205.631 141.747 205.576 141.802 205.564C142.391 205.435 142.563 204.71 143.405 204.796C143.926 204.845 144.614 204.489 145.216 204.287C145.842 204.084 146.444 203.814 147.021 203.513C147.617 203.193 148.403 203.163 148.796 202.487C148.858 202.377 149.441 202.475 149.705 202.334C151.044 201.658 152.603 201.339 153.69 200.197C153.936 199.939 154.421 199.712 154.796 199.65C156.122 199.398 157.099 198.631 158.192 197.876C158.916 197.378 159.647 196.844 160.445 196.42C161.231 195.984 162.079 195.659 162.951 195.431C163.325 195.339 163.51 195.333 163.712 194.965C163.847 194.719 164.222 194.523 164.51 194.338C167.716 192.257 170.848 190.064 173.826 187.669C174.649 187.037 175.674 186.755 176.387 185.938C176.682 185.606 177.222 185.44 177.265 184.925C177.265 184.851 177.394 184.716 177.474 184.679C178.72 184.163 179.261 182.849 180.329 182.137C180.55 181.977 180.796 181.86 181.023 181.707C181.256 181.547 181.563 181.406 181.692 181.197C182.761 179.484 184.45 178.335 185.739 176.819C186.169 176.297 186.851 175.922 186.931 175.179C186.943 175.069 187.152 174.854 187.287 174.804C188.466 174.319 189 173.085 189.903 172.287C190.357 171.863 190.572 171.145 191.272 171.016C191.358 170.997 191.487 170.782 191.561 170.641C191.69 170.402 191.745 170.107 191.917 169.923C192.384 169.382 193.065 168.934 193.342 168.357C193.692 167.644 194.201 167.116 194.637 166.514C194.889 166.171 195.313 165.962 195.614 165.642C195.902 165.348 196.129 164.985 196.375 164.641C196.731 164.156 197.032 163.61 197.45 163.211C197.886 162.799 197.763 162.136 198.395 161.792C198.881 161.522 198.85 160.81 199.126 160.324C199.261 160.085 199.47 159.864 199.66 159.661C199.808 159.508 200.047 159.416 200.146 159.25C200.373 158.863 200.68 158.55 200.784 158.04C200.846 157.69 201.374 157.328 201.656 156.941C201.939 156.554 202.178 156.136 202.43 155.731C202.682 155.32 203.026 154.927 203.161 154.503C203.756 152.636 204.96 151.089 205.844 149.375C206.065 148.933 206.194 148.356 206.747 148.166C206.845 148.129 206.986 147.883 207.011 147.736C207.367 145.857 208.626 144.365 209.271 142.608C209.738 141.362 210.075 140.097 210.659 138.881C210.8 138.586 210.941 138.291 211.088 137.99L211.414 137.29C211.488 137.131 211.549 136.971 211.592 136.817C211.592 136.781 211.635 136.738 211.604 136.707L211.506 136.615C211.438 136.553 211.365 136.498 211.291 136.449L210.96 136.222C210.929 136.21 210.824 136.105 210.726 136.019L210.45 135.749C210.088 135.387 209.756 135 209.461 134.588C208.884 133.772 207.662 133.594 207.502 132.433C206.833 131.684 206.102 130.984 205.433 130.235C204.849 129.614 204.119 129.135 203.805 128.269C203.689 127.962 203.253 127.563 202.927 127.434C201.877 126.998 201.202 126.237 200.539 125.365C200.379 125.162 200.017 125.089 199.789 124.904C199.095 124.346 198.395 123.793 197.757 123.179C195.81 121.386 193.483 120.157 191.321 118.69C190.922 118.413 190.314 118.364 190.001 118.07C189.055 117.155 187.968 116.412 186.82 115.773C186.255 115.447 185.684 115.128 185.125 114.784C184.56 114.465 184.001 114.127 183.479 113.746C180.366 111.517 176.792 110.123 173.316 108.607C172.868 108.404 172.5 107.913 172.248 107.919C171.462 107.937 170.774 107.403 170.129 107.391C168.956 107.415 168.035 106.801 166.985 106.556C166.218 106.396 165.493 105.886 164.67 106.113C164.553 106.144 164.302 106.058 164.179 105.966C163.19 105.254 161.925 105.542 160.875 105.082C159.764 105.082 158.701 104.848 157.627 104.627L156.024 104.253C155.49 104.142 154.949 104.044 154.409 103.976C154.09 103.94 153.764 103.989 153.445 104.001C153.279 104.007 153.082 104.05 152.953 103.989C151.093 103.117 148.999 103.289 147.028 102.945C146.377 102.834 145.744 102.632 145.087 102.521C144.424 102.411 143.73 102.521 143.116 102.128C142.926 102.005 142.533 102.048 142.25 102.079C140.703 102.232 139.567 101.502 139.554 100.329C139.554 99.9051 139.88 99.8867 140.224 99.7393C140.893 99.4446 141.55 99.2726 142.354 99.3402C142.981 99.3831 143.65 99.5612 144.234 99.1928C144.332 99.1314 144.614 99.1621 144.762 99.2235C145.806 99.6656 147.034 99.4691 148.016 99.8314C148.772 100.102 149.49 100.126 150.215 100.304C150.823 100.452 151.498 100.31 152.057 100.777C152.247 100.931 152.898 100.71 153.334 100.765C154.36 100.875 155.379 101.066 156.374 101.299C159.389 102.061 162.521 102.22 165.487 103.252C167.777 103.399 169.841 104.584 172.008 105.131C172.665 105.303 173.316 105.499 173.955 105.714C174.594 105.935 175.214 106.199 175.84 106.451C177.099 106.949 178.309 107.532 179.562 108.042C180.071 108.257 180.477 108.441 180.851 108.791C181.097 109.012 181.355 109.251 181.649 109.411C182.214 109.712 182.785 110.001 183.357 110.289C183.928 110.584 184.48 110.909 185.027 111.235C185.61 111.591 186.421 111.726 186.691 112.463C186.728 112.567 186.992 112.721 187.139 112.739C188.343 112.911 189.252 113.765 190.253 114.373C190.64 114.6 190.99 114.852 191.297 115.263C191.634 115.705 192.328 116.148 192.875 116.326C193.292 116.455 193.593 116.663 193.943 116.86C194.674 117.259 195.294 117.83 195.945 118.358C196.596 118.886 197.278 119.353 198.088 119.636C198.42 120.581 199.366 121.079 200.09 121.551C202.94 123.302 205.156 125.825 207.527 128.122C208.092 128.687 208.491 129.418 209.013 130.032C209.547 130.689 210.155 131.303 210.732 131.929C211.039 132.261 211.26 132.771 211.782 132.789C211.819 132.789 211.887 132.838 211.917 132.881C212.182 133.293 212.39 133.766 212.722 134.109C212.882 134.281 213.023 134.337 213.299 134.552C213.551 134.736 213.815 134.938 214.054 135.178C214.343 135.467 214.619 135.774 214.896 136.093L215 136.21C215 136.253 214.969 136.302 214.957 136.351L214.847 136.639L214.619 137.217C214.472 137.585 214.337 137.978 214.165 138.34C214.122 138.433 214.079 138.518 214.03 138.604C213.987 138.672 213.956 138.709 213.913 138.764C213.833 138.856 213.735 138.942 213.618 139.004C213.846 139.538 213.416 140.005 213.244 140.484C213.072 140.938 212.851 141.38 212.654 141.822L211.967 143.321C211.727 143.818 211.463 144.303 211.267 144.813C210.99 145.513 210.8 146.237 210.505 146.925C210.18 147.65 209.817 148.362 209.412 149.044C208.89 149.891 208.319 150.702 207.766 151.525C207.539 151.869 207.459 152.225 207.398 152.642C207.312 153.201 207.336 153.999 206.501 154.306C206.335 154.368 206.121 154.798 206.047 155.068C205.457 157.187 203.879 158.802 202.823 160.674C201.81 161.424 201.386 162.517 200.778 163.591C200.342 164.39 199.839 165.176 199.298 165.925C198.764 166.68 198.174 167.393 197.523 168.013C196.179 169.339 195.147 170.862 193.888 172.219C193.532 172.594 193.292 173.128 192.709 173.214C192.574 173.232 192.341 173.546 192.248 173.748C191.579 175.142 190.517 176.162 189.289 177.101C188.632 177.592 188.134 178.366 187.631 179.115C186.857 180.227 185.709 181.148 184.701 182.13C183.928 182.198 183.922 182.88 183.836 183.248C183.725 183.739 183.473 184.046 183.117 184.39C182.663 184.845 182.122 185.189 181.864 185.846C181.729 186.183 181.164 186.638 180.79 186.742C180.292 186.883 180.231 187.08 180.004 187.473C179.734 187.934 179.04 187.927 178.567 188.351C178.063 188.806 177.609 189.506 176.829 189.493C176.761 189.493 176.596 189.622 176.546 189.714C175.877 190.893 174.44 191.084 173.587 192.017C170.264 193.792 167.427 196.316 164.136 198.115C162.779 198.852 161.237 199.294 160.046 200.264C158.757 201.222 157.375 202.039 155.938 202.745L153.77 203.771C153.052 204.121 152.327 204.465 151.603 204.79C150.995 205.079 150.368 205.594 149.613 205.392C149.508 205.361 149.226 205.496 149.128 205.601C148.379 206.411 147.421 206.7 146.364 206.798C146.106 206.817 145.677 206.988 145.578 207.148C145.302 207.609 144.792 207.658 144.369 207.805C143.853 207.989 143.067 207.965 142.821 208.241C142.287 208.831 141.783 208.585 141.268 208.702C140.948 208.782 140.635 208.984 140.328 209.138C140.181 209.211 140.033 209.414 139.935 209.408C138.781 209.334 137.958 210.225 136.889 210.384C136.662 210.415 136.429 210.501 136.208 210.519C134.936 210.655 134.285 210.642 133.592 210.796C132.898 210.943 132.155 211.207 130.656 211.741C129.686 211.398 128.888 212.46 127.868 212.202C127.5 212.11 126.861 212.282 126.468 212.491C125.596 212.933 124.675 213.191 123.723 213.32C122.771 213.455 121.82 213.547 120.892 213.774C120.505 213.872 120.149 213.522 119.695 213.928C119.523 214.081 118.835 213.835 118.405 213.891C117.785 213.983 117.103 213.848 116.532 214.308C116.299 214.499 115.728 214.437 115.316 214.517C114.752 214.621 114.168 214.566 113.622 214.922C113.327 215.119 112.59 215.186 112.222 215.057C110.692 214.523 109.378 215.242 108.003 215.5C107.591 215.586 107.303 215.653 106.861 215.573C106.247 215.457 105.424 215.309 104.957 215.518C104.128 215.88 103.317 215.727 102.507 215.751C101.801 215.77 101.094 215.764 100.388 215.758C99.682 215.733 98.9758 215.702 98.2758 215.702C97.4713 215.702 96.673 215.659 95.8686 215.616C95.0641 215.567 94.2597 215.555 93.4307 215.665C92.5464 215.794 91.3735 215.831 90.4769 215.217C90.3787 215.15 89.9672 215.408 89.7093 215.383C87.689 215.193 85.6687 214.947 83.6729 214.603C83.2062 214.529 82.7887 213.921 82.2974 214.265C82.0333 214.45 81.8184 214.302 81.6096 214.167C81.5543 214.136 81.5114 214.1 81.45 214.075C81.3578 214.044 81.2657 214.014 81.1736 214.001C80.9955 213.971 80.8052 213.983 80.5841 214.081C80.5104 214.136 80.3262 214.014 80.0928 213.891C79.8718 213.768 79.5893 213.584 79.5402 213.522C78.6006 212.632 77.5751 211.889 76.5557 211.115C75.5425 210.341 74.5354 209.537 73.6941 208.579C73.295 208.125 72.6625 207.75 72.687 207.087C71.9993 206.669 71.5817 205.945 71.1825 205.244C70.7834 204.538 70.3842 203.857 69.6535 203.427C69.1868 202.426 68.2411 201.572 68.2595 200.381C68.2595 200.191 67.9893 199.902 67.977 199.693C67.9586 198.987 67.0313 198.913 67.1357 197.992C67.191 197.47 66.7734 196.696 66.5831 196.033L66.448 195.573C66.3988 195.37 66.3006 195.088 66.2576 194.854V193.706V191.716C66.2576 191.053 66.2883 190.384 66.2515 189.727C66.1716 188.388 65.8462 187.08 65.9751 185.717C65.9874 185.569 65.926 185.318 65.8462 185.262C65.1523 184.802 65.5391 184.12 65.7418 183.66C65.9137 183.273 65.9936 182.941 65.9874 182.523C65.9813 181.381 65.9506 180.233 65.9935 179.091C66.0181 178.415 65.797 177.691 66.233 177.046C66.3681 176.843 66.3374 176.303 66.2392 175.996C65.7848 174.565 66.055 173.073 65.9874 171.617C65.9567 170.954 65.9751 170.291 65.9874 169.628C65.9997 169.124 65.6988 168.621 65.9874 168.117C65.4286 165.667 65.7909 163.155 65.7295 160.674C65.6988 159.44 65.6926 158.206 65.6926 156.972C65.6926 156.345 65.6926 155.75 65.7111 155.105L65.7909 153.152C65.8032 152.501 65.6558 151.752 66.1778 151.218C66.276 151.113 66.3129 150.653 66.2392 150.505C66.0242 150.1 65.926 149.793 66.3006 149.418C66.3743 149.351 66.362 148.989 66.3251 148.792C66.2269 148.239 66.3251 147.773 66.5831 147.251C66.6813 147.048 66.7734 146.815 66.841 146.569C66.9147 146.33 66.9699 146.084 66.9699 145.869C66.9761 144.721 66.9638 143.597 67.7805 142.651C67.8788 142.535 67.6884 142.08 67.7805 141.841C68.0937 140.92 68.2165 139.906 68.8981 139.126C69.1868 138.813 69.2482 138.218 69.4999 137.788C69.9052 137.045 69.9912 136.203 70.4825 135.448C71.0167 134.711 71.3606 133.79 71.7905 132.949C72.251 132.126 72.7362 131.315 73.209 130.499C73.7003 129.694 74.2407 128.92 74.7565 128.134C75.2784 127.348 75.868 126.618 76.4206 125.856C76.9672 125.095 77.6058 124.401 78.1892 123.664C78.7726 122.927 79.4296 122.258 80.0621 121.564C80.5043 121.079 80.9587 120.673 81.5666 120.348C83.0834 119.488 84.4897 118.07 86.1661 116.197C86.2889 116.062 86.4547 115.957 86.5959 115.84L88.0022 114.692L89.4514 113.599C90.4094 112.856 91.4288 112.217 92.4604 111.597C93.357 111.038 94.3886 110.707 95.2852 110.105C95.8686 109.712 96.5011 109.448 96.9739 108.852C97.3731 108.355 98.288 108.33 98.6872 107.618C98.8346 107.366 99.4364 107.078 99.7925 107.047C100.972 106.936 101.899 106.218 102.955 105.813C103.557 105.567 104.146 105.315 104.742 105.045L106.535 104.302C107.125 104.062 107.757 103.94 108.248 103.399C108.488 103.129 109.256 102.988 109.747 102.976C110.508 102.963 111.159 102.662 111.786 102.386C113.112 101.76 113.094 101.723 114.543 101.563C114.715 101.551 114.899 101.502 115.071 101.459C115.937 101.232 116.821 101.047 117.687 100.832C118.559 100.636 119.431 100.445 120.254 100.145C121.623 99.6288 123.029 99.42 124.436 99.1437C124.994 99.0331 125.627 98.7568 126.167 99.1437C126.247 99.1989 126.566 99.1436 126.695 99.07C127.254 98.7384 127.868 98.591 128.489 98.5173C129.115 98.4559 129.754 98.462 130.374 98.3945C130.976 98.3331 131.54 98.1734 132.112 98.026C132.689 97.9032 133.266 97.7927 133.892 97.805C134.476 97.8172 135.059 97.7865 135.649 97.7497C136.238 97.719 136.828 97.6944 137.411 97.6821C139.198 97.6514 139.579 97.9216 139.573 99.1743C139.573 100.212 139.131 100.445 137.743 100.691C134.82 101.182 131.866 101.084 129.502 101.471L129.477 101.465Z" fill="#E37354"/>
<path d="M108.27 158.84C108.449 158.375 108.53 157.87 108.601 157.369C108.656 156.752 108.799 156.109 108.937 155.48C109.104 154.836 109.024 154.19 109.031 153.549C109.022 153.101 109.124 152.651 109.109 152.193C109.109 151.74 109.087 151.28 108.961 150.848C108.944 150.779 108.941 150.643 108.97 150.605C109.123 150.386 109.07 150.114 109.022 149.876C108.953 149.416 108.919 148.944 108.866 148.482C108.84 148.25 108.806 148.017 108.763 147.788C108.696 147.559 108.617 147.342 108.522 147.127C108.436 146.932 108.416 146.679 108.364 146.455C108.311 146.231 108.251 146.005 108.215 145.778C108.189 145.547 108.191 145.254 108.086 145.115C107.938 144.915 107.902 144.712 107.828 144.505C107.794 144.414 107.823 144.305 107.802 144.202C107.782 144.069 107.751 143.923 107.703 143.804C107.596 143.554 107.362 143.349 107.342 143.096C107.335 142.76 107.07 142.624 106.993 142.352C106.924 142.083 106.771 141.825 106.654 141.556C106.573 141.37 106.482 141.188 106.398 141.009C106.312 140.814 106.288 140.599 106.183 140.413C106.001 140.099 105.855 139.772 105.609 139.483C105.418 139.245 105.292 138.885 105.103 138.591C105.033 138.489 104.914 138.417 104.818 138.322C104.766 138.265 104.682 138.181 104.68 138.141C104.677 137.814 104.388 137.606 104.245 137.344C103.941 136.846 103.397 136.497 103.208 135.918C103.189 135.856 103.093 135.737 103.04 135.727C102.876 135.672 102.759 135.57 102.651 135.438C102.532 135.319 102.424 135.188 102.3 135.083C101.578 134.453 101.005 133.618 100.095 133.219C99.9922 133.169 99.8942 133.033 99.8058 132.94C99.7174 132.847 99.6338 132.74 99.5478 132.64C99.1249 132.165 98.4299 132.076 98.0214 131.583C97.9927 131.549 97.9091 131.513 97.8828 131.52C97.6488 131.554 97.4911 131.334 97.2976 131.246C96.8319 131.019 96.4831 130.68 96.0388 130.437C95.6208 130.234 95.2243 129.99 94.7896 129.814L93.4951 129.302C92.6305 128.935 91.7683 128.679 90.9061 128.375C90.7485 128.323 90.567 128.246 90.4357 128.258C90.2446 128.282 90.1777 128.22 90.0296 128.115C89.3321 127.628 88.47 127.372 87.6603 127.174C87.0394 127.03 86.4639 126.918 85.9288 126.564C85.7783 126.466 85.5371 126.378 85.3699 126.378C84.6273 126.361 83.9871 125.964 83.2945 125.773C83.156 125.735 82.9768 125.532 82.9219 125.553C82.5757 125.637 82.2843 125.412 81.969 125.331C81.6681 125.254 81.3719 125.14 81.0806 125.035C80.7964 124.932 80.4334 124.851 80.2566 124.688C79.9627 124.424 79.6954 124.604 79.435 124.478C79.4064 124.468 79.3705 124.456 79.3562 124.452C79.1125 124.108 78.7615 124.229 78.4487 124.189C78.3507 124.172 78.2003 124.193 78.1573 124.155C77.8563 123.888 77.5314 123.692 77.0873 123.687C76.76 123.331 76.2465 123.295 75.8119 123.142C74.6607 122.727 73.4976 122.347 72.3321 121.95C71.7637 121.744 71.1642 121.56 70.5576 121.398C69.9486 121.242 69.3634 121.015 68.7378 120.934L66.9109 120.658C66.3043 120.591 65.6811 120.597 65.0721 120.561C64.9145 120.556 64.7546 120.606 64.5993 120.594C64.2674 120.563 63.9403 120.589 63.6107 120.574C63.4197 120.574 63.1785 120.486 63.052 120.531C62.596 120.728 62.1088 120.59 61.6432 120.696C61.2683 120.77 60.86 120.729 60.5186 120.941C60.4279 120.998 60.1963 121.024 60.1031 120.993C59.7759 120.852 59.4441 120.988 59.1265 121.057L57.7703 121.351C57.2976 121.432 56.9348 121.732 56.462 121.86L55.2086 122.252L54.0006 122.771C53.1841 123.094 52.4249 123.532 51.6562 123.951C51.0021 124.265 50.4866 124.832 49.7704 125.046C49.6916 125.067 49.6128 125.184 49.5341 125.253C49.4625 125.324 49.3646 125.45 49.324 125.453C49.016 125.445 48.8514 125.724 48.6365 125.891L47.3691 126.946L46.2068 128.115C45.9323 128.389 45.6937 128.698 45.3571 128.896C45.252 128.948 45.0898 129.172 45.0755 129.287C45.0446 129.499 44.8918 129.622 44.7773 129.775C44.5888 130.03 44.3859 130.28 44.1807 130.513C43.9898 130.775 43.7344 130.992 43.5626 131.268L42.7895 132.488C42.5749 132.917 42.3578 133.353 42.1765 133.801C42.0573 134.087 41.9285 134.377 41.7949 134.659C41.6876 134.956 41.5731 135.252 41.4515 135.545C41.2226 136.136 40.9196 136.71 40.7432 137.31C40.655 137.575 40.5477 137.801 40.6003 138.073C40.6147 138.149 40.5813 138.321 40.5479 138.35C40.3617 138.502 40.3667 138.75 40.2999 138.95C40.1258 139.376 40.0878 139.824 40.0403 140.277C39.9951 140.723 39.9572 141.171 39.8905 141.61C39.8215 142.079 39.8146 142.553 39.7695 143.023C39.7482 143.492 39.6697 143.967 39.6938 144.443L39.7208 145.866C39.7305 146.1 39.721 146.343 39.745 146.581L39.829 147.285C39.865 147.606 39.9463 147.912 39.8581 148.271C39.7914 148.543 39.8681 149.006 40.0306 149.258C40.1811 149.523 40.241 149.773 40.2817 150.033C40.3392 150.386 40.2582 150.772 40.5234 151.075C40.5545 151.101 40.5856 151.199 40.5737 151.235C40.4735 151.559 40.6862 151.876 40.7747 152.184C40.9421 152.708 41.0928 153.235 41.3247 153.733C41.4395 154.01 41.6044 154.256 41.6022 154.596C41.6023 154.811 41.7792 155.212 41.9369 155.359C42.1447 155.548 42.2451 155.748 42.3575 155.96C43.6506 158.409 45.3448 160.659 47.4065 162.522L47.8437 163.001C48.1304 163.311 48.5341 163.557 48.89 163.827C48.9665 163.884 49.1098 163.932 49.1313 163.987C49.2891 164.349 49.6831 164.457 49.9602 164.676C50.235 164.903 50.4954 165.149 50.7964 165.345C50.9922 165.473 51.1881 165.626 51.3935 165.75C51.6037 165.86 51.8306 165.944 52.0718 165.961C52.8744 166.371 53.6578 166.815 54.5152 167.109C54.7135 167.183 54.8616 167.264 54.9882 167.41C55.0336 167.465 55.239 167.541 55.2939 167.52C55.5159 167.451 55.7142 167.596 55.922 167.666C56.7531 167.895 57.5318 168.33 58.401 168.397C58.4798 168.4 58.573 168.502 58.6685 168.55C58.7569 168.595 58.8692 168.665 58.936 168.655C59.2751 168.617 59.6716 168.765 59.8603 168.916C60.1255 169.123 60.3953 169.197 60.67 169.281C61.4939 169.532 62.294 169.831 63.1395 170.041C64.0303 170.259 64.9402 170.586 65.8096 171.011C66.6026 171.403 67.5269 171.616 68.3819 171.917C68.5968 171.989 68.8189 171.967 68.9932 172.017C70.111 172.366 71.2072 172.756 72.5685 173.21C73.6671 173.521 74.9521 174.108 76.3349 174.379C76.7313 174.455 76.9582 174.467 77.1133 174.384L77.2351 174.425C77.2351 174.425 77.2566 174.432 77.271 174.437C77.2399 174.458 77.2161 174.482 77.1994 174.532C77.0492 174.982 77.5127 175.431 78.284 175.553C78.4273 175.577 78.616 175.608 78.6972 175.675C78.9671 175.892 79.311 175.959 79.6382 176.029C79.9606 176.112 80.2711 176.232 80.5959 176.308C81.0926 176.418 81.5941 176.514 82.1028 176.541C82.609 176.575 83.1177 176.625 83.6097 176.773C83.6742 176.795 83.7768 176.773 83.858 176.769L84.3379 176.714C85.434 176.627 86.5803 176.819 87.6331 176.431C88.2134 176.434 88.741 176.141 89.3308 176.187C89.4072 176.197 89.5361 176.168 89.5815 176.128C89.8918 175.866 90.324 175.883 90.7036 175.771C91.2193 175.633 91.759 175.567 92.2268 175.239C92.4846 175.063 92.9097 175.03 93.208 174.803C93.3035 174.732 93.5973 174.782 93.8217 174.682C94.6859 174.311 95.5692 173.978 96.3713 173.483C96.7819 173.255 97.1925 173.026 97.6151 172.81C98.0209 172.572 98.4172 172.315 98.8326 172.096C99.1143 171.944 99.3888 171.765 99.6561 171.584C99.9187 171.394 100.155 171.163 100.401 170.951C100.883 170.508 101.422 170.132 101.931 169.729C102.1 169.603 102.203 169.32 102.363 169.15C102.821 168.684 103.246 168.198 103.608 167.659C103.971 167.121 104.389 166.633 104.778 166.111C105.038 165.761 105.267 165.385 105.496 165.008C105.57 164.882 105.594 164.715 105.675 164.615C106.052 164.225 106.29 163.772 106.388 163.24C106.412 163.074 106.545 162.816 106.66 162.712C106.827 162.569 106.942 162.392 107.044 162.204C107.133 162.011 107.192 161.809 107.273 161.613C107.466 161.153 107.645 160.689 107.824 160.224C108.282 159.877 108.072 159.314 108.256 158.859L108.27 158.84Z" fill="#EBA1B8"/>
<path d="M200.232 169.147C200.152 168.655 199.966 168.179 199.774 167.711C199.508 167.151 199.306 166.524 199.106 165.911C198.925 165.272 198.529 164.755 198.211 164.199C197.975 163.817 197.836 163.377 197.591 162.99C197.362 162.599 197.11 162.213 196.782 161.905C196.733 161.854 196.662 161.738 196.667 161.691C196.688 161.425 196.505 161.217 196.343 161.036C196.05 160.674 195.782 160.284 195.503 159.912C195.363 159.726 195.216 159.541 195.063 159.366C194.889 159.202 194.711 159.055 194.52 158.919C194.347 158.794 194.202 158.585 194.044 158.419C193.885 158.252 193.718 158.087 193.573 157.91C193.433 157.724 193.286 157.47 193.126 157.404C192.897 157.306 192.763 157.15 192.594 157.008C192.519 156.947 192.488 156.838 192.418 156.761C192.334 156.655 192.233 156.546 192.132 156.467C191.912 156.306 191.607 156.247 191.462 156.039C191.286 155.753 190.988 155.77 190.784 155.574C190.588 155.377 190.326 155.232 190.088 155.059C189.924 154.94 189.754 154.83 189.591 154.718C189.418 154.593 189.289 154.42 189.104 154.313C188.788 154.133 188.497 153.925 188.139 153.801C187.853 153.692 187.561 153.446 187.25 153.289C187.138 153.235 186.999 153.234 186.868 153.2C186.794 153.177 186.68 153.148 186.657 153.114C186.49 152.833 186.135 152.801 185.879 152.647C185.365 152.371 184.719 152.346 184.262 151.942C184.214 151.899 184.072 151.844 184.021 151.862C183.852 151.898 183.699 151.869 183.539 151.811C183.376 151.768 183.217 151.709 183.057 151.682C182.116 151.504 181.198 151.074 180.212 151.191C180.098 151.2 179.944 151.132 179.821 151.097C179.698 151.061 179.571 151.011 179.446 150.968C178.841 150.773 178.197 151.048 177.595 150.829C177.553 150.815 177.463 150.826 177.444 150.846C177.259 150.993 177.012 150.884 176.8 150.905C176.284 150.946 175.811 150.83 175.305 150.845C174.842 150.881 174.377 150.872 173.912 150.94L172.537 151.154C171.605 151.275 170.732 151.491 169.835 151.666C169.673 151.7 169.477 151.726 169.37 151.803C169.217 151.92 169.128 151.9 168.947 151.885C168.099 151.818 167.226 152.034 166.428 152.273C165.82 152.463 165.266 152.658 164.626 152.624C164.447 152.616 164.194 152.662 164.05 152.746C163.4 153.107 162.648 153.089 161.954 153.275C161.815 153.312 161.558 153.228 161.521 153.274C161.265 153.521 160.9 153.475 160.587 153.565C160.288 153.651 159.975 153.702 159.671 153.759C159.373 153.814 159.019 153.928 158.785 153.878C158.397 153.798 158.258 154.089 157.97 154.112C157.94 154.118 157.903 154.126 157.888 154.129C157.504 153.957 157.263 154.239 156.973 154.362C156.88 154.397 156.761 154.492 156.704 154.481C156.309 154.403 155.93 154.398 155.545 154.619C155.082 154.478 154.621 154.707 154.169 154.795C152.966 155.019 151.77 155.28 150.564 155.528C149.97 155.639 149.36 155.783 148.755 155.95C148.151 156.125 147.531 156.225 146.95 156.472L145.235 157.159C144.678 157.408 144.144 157.729 143.601 158.006C143.462 158.082 143.349 158.206 143.209 158.274C142.907 158.415 142.638 158.603 142.347 158.757C142.182 158.854 141.929 158.9 141.843 159.003C141.55 159.404 141.059 159.531 140.712 159.859C140.426 160.112 140.053 160.283 139.866 160.639C139.817 160.734 139.63 160.874 139.534 160.894C139.18 160.938 138.963 161.223 138.724 161.443L137.703 162.384C137.337 162.693 137.176 163.135 136.833 163.485L135.95 164.458L135.171 165.517C134.631 166.209 134.198 166.971 133.747 167.721C133.342 168.323 133.184 169.073 132.675 169.62C132.618 169.678 132.609 169.819 132.576 169.918C132.55 170.016 132.53 170.175 132.496 170.197C132.227 170.347 132.226 170.671 132.125 170.923L131.566 172.474L131.156 174.071C131.058 174.446 131.009 174.834 130.818 175.175C130.754 175.273 130.728 175.548 130.773 175.654C130.854 175.853 130.785 176.037 130.763 176.226C130.73 176.542 130.682 176.86 130.623 177.165C130.591 177.488 130.48 177.804 130.472 178.129L130.423 179.572C130.455 180.051 130.488 180.537 130.559 181.015C130.601 181.322 130.637 181.638 130.664 181.948C130.722 182.259 130.773 182.572 130.817 182.886C130.918 183.512 130.948 184.16 131.1 184.767C131.157 185.04 131.179 185.289 131.362 185.497C131.413 185.556 131.472 185.721 131.457 185.762C131.374 185.988 131.503 186.199 131.547 186.405C131.613 186.861 131.807 187.267 131.995 187.682C132.182 188.089 132.376 188.494 132.541 188.906C132.719 189.346 132.953 189.759 133.152 190.186C133.371 190.602 133.544 191.051 133.806 191.45L134.549 192.663C134.676 192.86 134.791 193.074 134.932 193.268L135.361 193.832C135.555 194.091 135.779 194.313 135.886 194.668C135.966 194.936 136.266 195.296 136.534 195.432C136.798 195.584 136.976 195.769 137.143 195.973C137.371 196.248 137.497 196.622 137.879 196.749C137.919 196.756 137.995 196.824 138.003 196.861C138.081 197.191 138.425 197.357 138.657 197.577C139.067 197.945 139.463 198.323 139.915 198.635C140.154 198.816 140.421 198.944 140.592 199.239C140.7 199.424 141.056 199.68 141.267 199.728C141.541 199.785 141.729 199.907 141.934 200.033C144.289 201.491 146.888 202.572 149.61 203.135L150.229 203.328C150.634 203.45 151.106 203.457 151.55 203.51C151.645 203.521 151.792 203.489 151.839 203.526C152.158 203.758 152.553 203.652 152.903 203.701C153.254 203.757 153.603 203.837 153.962 203.853C154.196 203.865 154.442 203.898 154.682 203.901C154.919 203.889 155.157 203.846 155.374 203.739C156.274 203.687 157.174 203.673 158.062 203.492C158.271 203.456 158.44 203.451 158.623 203.512C158.689 203.537 158.905 203.499 158.942 203.452C159.098 203.28 159.343 203.306 159.557 203.26C160.39 203.037 161.282 203.018 162.066 202.636C162.135 202.598 162.267 202.639 162.374 202.632C162.473 202.627 162.605 202.63 162.657 202.587C162.931 202.383 163.348 202.31 163.586 202.344C163.92 202.389 164.191 202.316 164.47 202.249C165.307 202.049 166.149 201.901 166.984 201.655C167.863 201.391 168.813 201.213 169.778 201.139C170.66 201.076 171.565 200.791 172.455 200.618C172.676 200.571 172.857 200.44 173.033 200.395C174.173 200.13 175.316 199.911 176.72 199.614C177.825 199.326 179.23 199.182 180.56 198.715C180.94 198.58 181.142 198.476 181.234 198.325L181.359 198.299C181.359 198.299 181.381 198.294 181.396 198.291C181.38 198.325 181.372 198.358 181.383 198.409C181.481 198.874 182.108 199.026 182.835 198.741C182.971 198.689 183.149 198.62 183.253 198.637C183.596 198.687 183.926 198.571 184.243 198.465C184.564 198.374 184.892 198.32 185.211 198.222C185.695 198.065 186.176 197.894 186.628 197.659C187.082 197.432 187.546 197.218 188.045 197.097C188.112 197.083 188.19 197.012 188.257 196.967L188.644 196.677C189.545 196.047 190.63 195.632 191.342 194.765C191.844 194.474 192.151 193.954 192.682 193.695C192.753 193.665 192.85 193.575 192.869 193.517C193.004 193.134 193.385 192.93 193.656 192.641C194.031 192.261 194.463 191.931 194.7 191.411C194.833 191.128 195.183 190.885 195.325 190.539C195.372 190.429 195.65 190.323 195.793 190.124C196.351 189.366 196.944 188.632 197.385 187.799C197.623 187.394 197.862 186.989 198.117 186.588C198.346 186.178 198.558 185.755 198.805 185.356C198.971 185.082 199.117 184.789 199.256 184.498C199.386 184.201 199.473 183.882 199.578 183.575C199.769 182.949 200.044 182.351 200.279 181.747C200.361 181.552 200.306 181.256 200.358 181.029C200.517 180.394 200.638 179.76 200.678 179.112C200.718 178.465 200.831 177.832 200.902 177.185C200.949 176.752 200.956 176.311 200.963 175.871C200.963 175.724 200.899 175.568 200.918 175.441C201.046 174.913 201.023 174.402 200.838 173.894C200.774 173.738 200.759 173.449 200.804 173.301C200.876 173.093 200.886 172.883 200.879 172.669C200.857 172.457 200.806 172.253 200.777 172.043C200.711 171.549 200.63 171.057 200.549 170.566C200.768 170.034 200.302 169.656 200.23 169.17L200.232 169.147Z" fill="#EBA1B8"/>
<path d="M199.287 88.5041C199.393 88.0632 199.399 87.61 199.362 87.194C199.318 86.7469 199.281 86.3061 199.237 85.8653C199.181 85.4307 199.125 84.9898 199.063 84.5614C198.982 83.686 198.796 82.8354 198.652 81.9724C198.503 81.1093 198.254 80.2649 198.036 79.4019C197.756 78.5575 197.482 77.6945 197.109 76.8501C196.176 74.7018 195.055 72.6529 193.786 70.6971C193.724 69.7223 193.624 68.7537 193.612 67.7851C193.58 66.0156 193.151 64.2213 193.537 62.4704C193.605 62.1475 193.549 61.4956 193.406 61.3031C193.002 60.7567 193.108 60.08 193.058 59.4653C192.883 57.137 192.61 54.79 192.622 52.4866C192.635 50.2514 191.626 48.1466 192.143 45.9052C192.174 45.7686 192.162 45.483 192.112 45.4271C191.564 44.831 191.732 43.9121 191.682 43.1422C191.589 41.7887 191.49 40.4662 191.639 39.0692C191.788 37.6785 191.452 36.0952 191.402 34.6051C191.377 33.8849 191.39 33.1708 191.402 32.4506L191.353 30.4389C191.321 29.7249 191.29 29.0109 191.259 28.2969C191.197 27.1979 191.129 26.099 191.066 25L187.675 27.2662L184.619 29.34C184.047 29.7373 183.48 30.085 182.97 30.6811C182.453 31.2958 181.526 31.9353 180.58 32.1774C180.381 32.2271 180.014 32.3637 179.983 32.4382C179.641 33.264 178.713 33.6241 177.998 34.0835C177.22 34.5802 176.71 35.2322 176.037 35.7413C174.961 36.5671 173.747 37.1693 172.54 37.8088C170.885 38.6905 169.279 39.8391 167.754 40.9816C166.311 42.0557 164.68 42.6642 163.243 43.8935C161.712 45.2036 159.839 46.2342 158.115 47.4015C155.003 46.6564 151.873 46.0294 148.674 45.7127C145.911 45.4581 143.104 45.3278 140.335 45.483C139.675 45.5016 139.016 45.5513 138.356 45.6196L136.39 45.8245C135.083 46.0231 133.776 46.1659 132.475 46.3833C130.621 46.6502 128.779 46.9793 126.943 47.3705C126.196 46.9607 125.437 46.5695 124.721 46.1101C122.96 44.9925 121.242 43.8004 119.512 42.6455C118.262 41.8135 117.029 40.9505 115.76 40.1558C115.25 39.8329 114.316 39.6467 114.173 39.3921C113.663 38.4856 112.692 38.1627 111.939 37.604C110.165 36.2939 108.205 35.3191 106.35 34.1705C104.826 33.2329 103.326 32.2519 101.832 31.2523C99.8597 29.9112 97.8807 28.5639 95.908 27.2228L94.3024 26.1424C94.1531 28.6073 94.0037 31.0722 93.8606 33.5372C93.7486 35.1453 93.5743 36.7471 93.232 38.3304C93.0453 39.181 93.0889 40.1496 93.0329 41.0623C92.9644 42.0619 93.0578 43.1795 92.7902 44.0239C92.5102 44.9242 92.7466 45.6134 92.6906 46.3895C92.3546 50.9592 92.1243 55.5413 91.7447 60.1048C91.4584 63.5445 91.4211 67.009 91.0477 70.4487C89.6911 72.5722 88.5024 74.8136 87.5316 77.1543C86.1127 80.6561 85.2104 84.3814 84.9054 88.1564C84.6254 91.9562 85.0735 95.8057 86.0256 99.4875C87.0089 103.169 88.5211 106.671 90.2823 110.03C91.1597 111.638 92.4168 113.259 93.6677 114.73C94.9932 116.388 96.7668 117.915 97.9243 119.312C98.5715 120.026 99.2 120.585 99.841 121.063C100.494 121.529 101.123 121.957 101.77 122.466C103.687 123.919 105.685 125.254 107.757 126.465C109.848 127.638 111.97 128.756 114.179 129.681C118.567 131.606 123.165 132.959 127.827 133.965C132.432 134.915 137.149 135.306 141.847 135.331C146.552 135.368 151.238 134.971 155.918 134.394C158.569 134.052 161.662 133.419 164.02 132.121C165.19 131.836 166.304 131.42 167.418 131.016C168.507 130.557 169.603 130.122 170.648 129.582C172.77 128.576 174.774 127.359 176.834 126.179C179.236 124.764 181.62 123.236 183.829 121.492C186.032 119.741 188.067 117.76 189.647 115.5C189.797 115.295 190.152 114.91 190.288 114.83C190.78 114.55 191.241 114.091 191.645 113.557C192.05 113.017 192.435 112.433 192.846 111.936C193.157 111.52 193.462 111.098 193.755 110.676L194.19 110.036L194.576 109.372C194.825 108.925 195.074 108.478 195.323 108.037C195.535 107.578 195.752 107.118 195.964 106.659L196.275 105.97L196.543 105.262L197.065 103.852L197.507 102.418L197.731 101.704L197.918 100.978C198.036 100.512 198.155 100.046 198.273 99.5744C198.36 99.0963 198.453 98.6183 198.54 98.1402C198.746 97.184 198.808 96.1968 198.945 95.2282C199.032 94.0051 198.995 92.7695 198.808 91.7016C198.715 91.0621 198.571 90.7268 198.41 90.6151C198.41 90.5964 198.41 90.584 198.41 90.5654C198.41 90.5281 198.41 90.4909 198.41 90.4536C198.571 90.317 198.74 90.0563 198.901 89.721C199.063 89.3795 199.206 88.9635 199.312 88.5227L199.287 88.5041Z" fill="#EBA1B8"/>
<path d="M77.1328 72.1935C77.1514 72.0817 77.195 71.9762 77.251 71.8706C77.5373 71.3863 78.1596 71.2187 78.6512 71.5043C79.9083 72.2245 80.2879 73.1 80.5928 73.7954C80.8418 74.3666 81.0098 74.7453 81.6757 75.1303C82.3415 75.5152 82.7585 75.4718 83.3808 75.3972C84.1463 75.3103 85.0922 75.2048 86.3493 75.9312C87.6063 76.6514 87.9797 77.5207 88.2847 78.2223C88.5336 78.7935 88.7016 79.1722 89.3675 79.5572C90.0334 79.9421 90.4503 79.8987 91.0726 79.8242C91.8381 79.7372 92.784 79.6317 94.0411 80.3519C95.2982 81.0721 95.6716 81.9414 95.9765 82.643C96.2254 83.2142 96.3934 83.5929 97.0593 83.9779C97.5509 84.2573 97.719 84.8844 97.4327 85.3687C97.1464 85.8529 96.5241 86.0206 96.0325 85.735C94.7754 85.0147 94.402 84.1455 94.0971 83.4439C93.8482 82.8727 93.6801 82.494 93.0143 82.109C92.3484 81.7241 91.9314 81.7675 91.3091 81.842C90.5437 81.929 89.5978 82.0345 88.3407 81.3143C87.0836 80.594 86.7102 79.7248 86.4053 79.0232C86.1563 78.452 85.9883 78.0733 85.3224 77.6883C84.6566 77.3034 84.2396 77.3468 83.6173 77.4213C82.8518 77.5083 81.9059 77.6138 80.6488 76.8874C79.3918 76.1671 79.0122 75.2917 78.7072 74.5963C78.4583 74.0251 78.2903 73.6464 77.6244 73.2614C77.2386 73.0379 77.0519 72.6033 77.1265 72.1935H77.1328Z" fill="#1D4C5C"/>
<path d="M74.2266 100.332C74.1519 100.245 74.0959 100.146 74.0585 100.034C73.8718 99.5061 74.1457 98.9225 74.6809 98.73C76.0437 98.2395 76.9585 98.5127 77.6866 98.73C78.2841 98.9101 78.6824 99.028 79.4105 98.7673C80.1386 98.5065 80.3688 98.1588 80.7173 97.6373C81.1467 97.004 81.6757 96.2092 83.0386 95.7187C84.4014 95.2282 85.31 95.5014 86.0443 95.7187C86.6418 95.8988 87.0401 96.0167 87.7682 95.756C88.4963 95.4952 88.7265 95.1537 89.075 94.6322C89.5044 93.9989 90.0334 93.2041 91.3963 92.7136C92.7591 92.2231 93.6677 92.4963 94.4021 92.7136C94.9995 92.8937 95.3978 93.0117 96.1259 92.7509C96.6611 92.5584 97.2398 92.8316 97.4327 93.3656C97.6194 93.8933 97.3456 94.477 96.8104 94.6694C95.4475 95.1599 94.539 94.8867 93.8046 94.6694C93.2072 94.4894 92.8089 94.3714 92.0808 94.6322C91.3527 94.893 91.1224 95.2344 90.774 95.756C90.3446 96.3893 89.8156 97.184 88.4527 97.6745C87.0898 98.165 86.1813 97.8918 85.4469 97.6745C84.8495 97.4945 84.4512 97.3765 83.7231 97.6373C82.995 97.898 82.7647 98.2395 82.4162 98.7611C81.9868 99.3944 81.4579 100.189 80.095 100.68C78.7321 101.17 77.8236 100.897 77.0892 100.68C76.4918 100.5 76.0935 100.382 75.3654 100.642C74.9485 100.791 74.4942 100.655 74.2266 100.332Z" fill="#1D4C5C"/>
<path d="M206.867 72.1935C206.848 72.0817 206.805 71.9762 206.749 71.8706C206.463 71.3863 205.84 71.2187 205.349 71.5043C204.092 72.2245 203.712 73.1 203.407 73.7954C203.158 74.3666 202.99 74.7453 202.324 75.1303C201.658 75.5152 201.241 75.4718 200.619 75.3972C199.854 75.3103 198.908 75.2048 197.651 75.9312C196.394 76.6514 196.02 77.5207 195.715 78.2223C195.466 78.7935 195.298 79.1722 194.632 79.5572C193.967 79.9421 193.55 79.8987 192.927 79.8242C192.162 79.7372 191.216 79.6317 189.959 80.3519C188.702 81.0721 188.328 81.9414 188.023 82.643C187.774 83.2142 187.606 83.5929 186.941 83.9779C186.449 84.2573 186.281 84.8844 186.567 85.3687C186.853 85.8529 187.476 86.0206 187.967 85.735C189.224 85.0147 189.598 84.1455 189.903 83.4439C190.152 82.8727 190.32 82.494 190.986 82.109C191.651 81.7241 192.068 81.7675 192.691 81.842C193.456 81.929 194.402 82.0345 195.659 81.3143C196.916 80.594 197.29 79.7248 197.595 79.0232C197.844 78.452 198.012 78.0733 198.677 77.6883C199.343 77.3034 199.76 77.3468 200.383 77.4213C201.148 77.5083 202.094 77.6138 203.351 76.8874C204.608 76.1671 204.988 75.2917 205.293 74.5963C205.542 74.0251 205.71 73.6464 206.375 73.2614C206.761 73.0379 206.948 72.6033 206.873 72.1935H206.867Z" fill="#1D4C5C"/>
<path d="M209.773 100.332C209.848 100.245 209.904 100.146 209.942 100.034C210.128 99.5061 209.854 98.9225 209.319 98.73C207.956 98.2395 207.042 98.5127 206.313 98.73C205.716 98.9101 205.318 99.028 204.59 98.7673C203.861 98.5065 203.631 98.1588 203.283 97.6373C202.853 97.004 202.324 96.2092 200.962 95.7187C199.599 95.2282 198.69 95.5014 197.956 95.7187C197.358 95.8988 196.96 96.0167 196.232 95.756C195.504 95.4952 195.274 95.1537 194.925 94.6322C194.496 93.9989 193.967 93.2041 192.604 92.7136C191.241 92.2231 190.332 92.4963 189.598 92.7136C189.001 92.8937 188.602 93.0117 187.874 92.7509C187.339 92.5584 186.76 92.8316 186.567 93.3656C186.381 93.8933 186.654 94.477 187.19 94.6694C188.553 95.1599 189.461 94.8867 190.195 94.6694C190.793 94.4894 191.191 94.3714 191.919 94.6322C192.647 94.893 192.878 95.2344 193.226 95.756C193.656 96.3893 194.184 97.184 195.547 97.6745C196.91 98.165 197.819 97.8918 198.553 97.6745C199.151 97.4945 199.549 97.3765 200.277 97.6373C201.005 97.898 201.235 98.2395 201.584 98.7611C202.013 99.3944 202.542 100.189 203.905 100.68C205.268 101.17 206.177 100.897 206.911 100.68C207.508 100.5 207.907 100.382 208.635 100.642C209.052 100.791 209.506 100.655 209.773 100.332Z" fill="#1D4C5C"/>
<path d="M143.217 91.7822C147.527 91.7822 151.021 89.1414 151.021 85.8838C151.021 82.6262 147.527 79.9854 143.217 79.9854C138.907 79.9854 135.413 82.6262 135.413 85.8838C135.413 89.1414 138.907 91.7822 143.217 91.7822Z" fill="#1D4C5C"/>
<path d="M149.116 82.7297C148.668 82.2703 148.139 81.8605 147.554 81.5625C147.342 81.4383 147.137 81.2831 146.851 81.3017C146.714 81.3017 146.552 81.0782 146.334 81.0037C145.749 80.8112 145.146 80.6498 144.523 80.5815C143.92 80.5194 143.316 80.5442 142.719 80.6001C142.127 80.6374 141.505 80.6622 140.97 80.8733C140.516 81.0658 140.055 81.0782 139.632 81.2893C139.196 81.5252 138.748 81.7674 138.319 81.9971C137.995 82.1523 137.69 82.3386 137.454 82.5931C137.317 82.767 137.224 82.9532 137.08 83.1333C136.937 83.2947 136.726 83.45 136.775 83.6983C136.775 83.7169 136.701 83.779 136.657 83.8101C136.446 83.9467 136.334 84.2199 136.327 84.4123C136.34 84.611 136.271 84.7538 136.234 84.9152C136.141 85.3623 136.097 85.8155 136.134 86.2688C136.159 86.604 136.178 86.958 136.284 87.2932C136.396 87.6471 136.657 87.9514 136.782 88.2804C136.919 88.6095 137.143 88.8765 137.398 89.1186C137.528 89.2676 137.672 89.4663 137.902 89.4415C137.921 89.4415 137.977 89.485 137.995 89.5222C138.325 90.0375 138.966 90.112 139.47 90.379C139.993 90.6833 140.603 90.8323 141.206 90.9564C141.368 90.9875 141.53 91.0682 141.698 90.9751C141.754 90.944 141.928 90.9564 142.003 90.9937C142.432 91.2234 142.93 91.1427 143.391 91.1613C143.926 91.18 144.449 91.062 144.996 91.0806C145.233 91.0993 145.55 91.0558 145.768 90.8261C145.867 90.7267 146.135 90.7267 146.316 90.6336C146.459 90.5653 146.583 90.4535 146.72 90.3852C146.838 90.3294 146.988 90.3294 147.118 90.2983C147.156 90.2921 147.205 90.2673 147.237 90.2424C147.828 89.7457 148.575 89.5098 149.079 88.9199C149.57 88.3425 149.987 87.7154 150.23 87.02C150.311 86.8338 150.342 86.6289 150.442 86.455C150.522 86.275 150.61 86.1011 150.778 85.9583C150.927 85.8279 151.07 85.8155 151.145 86.0204C151.195 86.1694 151.251 86.3495 151.244 86.5295C151.207 86.8027 151.213 87.1008 151.132 87.3677C151.026 87.9327 150.846 88.5164 150.448 88.982C150.311 89.1124 150.236 89.3359 150.037 89.367C150.012 89.367 149.956 89.4229 149.937 89.4539C149.558 90.1928 148.792 90.5963 148.114 90.9937C147.542 91.3476 146.981 91.745 146.303 91.8878C145.992 92.1548 145.538 92.2417 145.152 92.2541C143.801 92.3286 142.457 92.4279 141.132 92.1423C139.8 91.8691 138.499 91.3476 137.379 90.5218C137.192 90.379 136.975 90.3107 136.813 90.081C136.676 89.8451 136.383 89.6588 136.19 89.4167C136.01 89.1993 135.792 88.9882 135.693 88.7337C135.456 88.2246 135.269 87.703 135.101 87.1753C134.977 86.6351 134.865 86.0763 134.933 85.5175C135.014 84.3999 135.506 83.363 136.153 82.5C136.539 81.966 136.981 81.4445 137.547 81.0906C137.784 80.9416 137.989 80.6994 138.313 80.7056C138.406 80.7056 138.568 80.4635 138.736 80.389C139.134 80.1779 139.557 80.0289 139.98 79.8799C140.578 79.6998 141.181 79.5694 141.798 79.4763C141.984 79.4515 142.171 79.408 142.351 79.3707C142.538 79.3459 142.725 79.3149 142.918 79.3024C143.316 79.259 143.721 79.3024 144.113 79.3335C144.361 79.3707 144.61 79.4204 144.859 79.4701L145.587 79.6564C146.085 79.7929 146.633 79.8861 147.075 80.1344C147.878 80.6063 148.711 81.0099 149.408 81.637C150.099 82.2579 150.678 83.0091 151.089 83.8659C151.201 84.1143 151.251 84.3689 151.294 84.6234C151.307 84.8842 151.35 85.1263 151.363 85.3871C151.381 85.6417 151.008 85.9521 150.865 85.859C150.84 85.8404 150.809 85.8093 150.796 85.7721C150.647 85.325 150.417 84.9773 150.261 84.5303C150.043 83.8535 149.626 83.2451 149.11 82.7235L149.116 82.7297Z" fill="#1D4C5C"/>
<path d="M141.841 96.9979C141.841 96.824 141.86 96.6502 141.829 96.4763C141.816 96.4142 141.959 96.3459 141.673 96.2776C141.53 96.2466 141.872 96.1783 141.853 96.1224C141.816 95.961 141.866 95.7933 141.835 95.6319C141.804 95.4705 141.685 95.3153 141.648 95.16C141.617 95.0048 141.773 94.8434 141.598 94.6882C141.449 94.5578 141.717 94.4398 141.654 94.3156C141.586 94.1852 141.542 94.0424 141.673 93.9121C141.766 93.8189 141.878 93.7258 141.822 93.6265C141.785 93.5706 141.617 93.5147 141.629 93.4464C141.642 93.3843 141.785 93.3222 141.449 93.2663C141.424 93.2663 141.48 93.2353 141.53 93.2229C141.748 93.1608 141.735 93.0801 141.586 93.0242C141.443 92.9745 141.461 92.9249 141.455 92.8752C141.436 92.7386 141.424 92.6082 141.455 92.4716C141.48 92.3723 141.605 92.2729 141.636 92.1736C141.667 92.068 141.517 91.9563 141.679 91.8631C141.841 91.7638 141.835 91.6707 141.835 91.5775C141.835 91.5217 141.99 91.4596 141.648 91.4161C141.617 91.4161 141.623 91.3913 141.648 91.3851C142.09 91.2298 141.511 91.0808 141.617 90.9256C141.729 90.7642 141.648 90.6027 141.636 90.4351C141.636 90.3916 141.729 90.3482 141.486 90.3047C141.399 90.2923 141.393 90.2426 141.455 90.224C141.791 90.106 141.586 89.9757 141.642 89.8515C141.704 89.7087 141.548 89.5721 141.81 89.4293C141.922 89.3672 141.978 89.2865 141.667 89.2182C141.524 89.1871 141.667 89.1188 141.636 89.063C141.611 89.0195 141.461 88.9822 141.461 88.9388C141.461 88.9015 141.586 88.8643 141.642 88.8332C141.661 88.8208 141.661 88.8084 141.642 88.796C141.287 88.5911 141.76 88.3862 141.667 88.1751C141.567 87.964 141.611 87.7529 141.661 87.548C141.685 87.43 141.785 87.3121 142.395 87.2376C142.669 87.2003 142.961 87.2003 143.135 87.25C143.266 87.2872 143.384 87.3245 143.415 87.3679C143.465 87.4362 143.54 87.4983 143.59 87.5666C143.695 87.697 143.976 87.8336 143.826 87.9702C143.776 88.0137 143.938 88.0633 143.671 88.1006C143.633 88.1006 143.615 88.1254 143.633 88.1316C144.056 88.3179 143.776 88.5042 143.808 88.6966C143.832 88.8581 144.168 89.0133 144.025 89.1685C144.361 89.2554 144.299 89.361 144.2 89.4479C143.845 89.7646 144.081 90.0812 144.038 90.3979C143.988 90.7207 144.038 91.0374 144.019 91.3602C144.019 91.4161 144.206 91.4596 144.056 91.5279C143.92 91.59 144.025 91.6645 144.025 91.7328C144.025 91.7948 144.1 91.8631 144.013 91.9252C143.664 92.1736 143.876 92.4281 143.832 92.6827C143.795 92.9311 143.764 93.1856 143.845 93.434C143.895 93.5892 144.081 93.7382 144.013 93.8934C143.982 93.9617 144.162 94.03 143.851 94.0921C143.764 94.1107 144 94.1728 144.013 94.2163C144.038 94.3218 144.019 94.4274 144.019 94.5329C144.019 94.6757 143.994 94.8248 144.025 94.9676C144.044 95.0545 144.175 95.1414 144.206 95.2345C144.237 95.3277 144.237 95.4208 144.206 95.5139C144.168 95.6319 144.05 95.7499 144.019 95.8678C143.988 95.992 144.131 96.1162 143.988 96.2342C143.714 96.4515 143.851 96.6688 143.82 96.8861C143.789 97.1034 143.764 97.3145 143.832 97.5318C143.87 97.656 143.602 97.7678 143.602 97.8857C143.602 97.9416 142.818 98.0161 142.55 97.9913C142.501 97.9913 142.445 97.9789 142.426 97.9664C142.177 97.8485 141.791 97.7429 141.816 97.6063C141.853 97.4076 141.829 97.209 141.829 97.0103L141.841 96.9979Z" fill="#1D4C5C"/>
<path d="M138.862 71.6625C138.79 71.8764 138.678 72.0764 138.606 72.2902C138.573 72.373 138.408 72.3661 138.626 72.6076C138.731 72.7317 138.389 72.6076 138.356 72.6696C138.277 72.8697 138.112 73.0076 138.001 73.187C137.902 73.3664 137.836 73.6009 137.711 73.7802C137.573 73.9458 137.316 73.9458 137.251 74.2079C137.191 74.4494 136.909 74.2838 136.803 74.4218C136.685 74.5804 136.534 74.6977 136.323 74.6356C136.172 74.5942 136.021 74.5045 135.928 74.608C135.869 74.6701 135.849 74.8771 135.764 74.884C135.678 74.884 135.567 74.7529 135.567 75.1323C135.567 75.1668 135.521 75.1047 135.494 75.0633C135.369 74.8495 135.277 74.877 135.225 75.0495C135.172 75.2151 135.106 75.2013 135.04 75.222C134.856 75.2702 134.672 75.2702 134.488 75.2358C134.35 75.2082 134.225 75.0495 134.1 75.0012C133.968 74.9529 133.79 75.084 133.698 74.884C133.606 74.6839 133.501 74.6563 133.383 74.6218C133.317 74.6011 133.297 74.4218 133.126 74.7529C133.113 74.7874 133.087 74.7667 133.087 74.7391C133.073 74.2148 132.666 74.7322 132.521 74.5114C132.389 74.3045 132.172 74.2631 131.981 74.1458C131.935 74.1114 131.948 73.9872 131.751 74.1734C131.679 74.2355 131.626 74.2079 131.639 74.132C131.731 73.7388 131.481 73.8009 131.396 73.6354C131.324 73.4491 131.06 73.4284 131.166 73.0904C131.205 72.9525 131.199 72.8352 130.876 72.9594C130.725 73.0145 130.804 72.8421 130.738 72.8076C130.685 72.7731 130.528 72.8145 130.488 72.7662C130.455 72.7248 130.547 72.6145 130.58 72.5317C130.587 72.511 130.58 72.4903 130.56 72.4903C130.093 72.4213 130.429 71.9246 130.245 71.7177C130.054 71.4832 130.028 71.1796 130.028 70.8968C130.034 70.7382 130.12 70.5519 130.751 70.4001C131.034 70.3312 131.343 70.3105 131.534 70.3381C131.672 70.3587 131.804 70.3794 131.843 70.407C131.902 70.4553 131.988 70.4967 132.047 70.5312C132.185 70.614 132.481 70.6278 132.356 70.7588C132.317 70.8071 132.488 70.7795 132.225 70.9037C132.185 70.9175 132.172 70.9382 132.192 70.9382C132.652 70.9037 132.422 71.1314 132.521 71.2417C132.6 71.3383 132.948 71.221 132.876 71.3935C133.198 71.2279 133.179 71.2969 133.126 71.4142C132.962 71.8212 133.297 71.8005 133.415 71.9453C133.547 72.1109 133.744 72.1661 133.922 72.2557C133.955 72.2764 134.04 72.0833 134.027 72.2488C134.021 72.4075 134.1 72.304 134.139 72.3178C134.179 72.3316 134.231 72.2557 134.251 72.3592C134.336 72.78 134.554 72.5593 134.705 72.5938C134.869 72.6351 135.047 72.642 135.185 72.511C135.271 72.4282 135.297 72.2075 135.409 72.242C135.461 72.2558 135.415 72.0557 135.593 72.3592C135.646 72.442 135.573 72.1868 135.593 72.1592C135.632 72.0971 135.705 72.0902 135.757 72.0557C135.83 72.0005 135.928 71.9798 135.974 71.8832C136.001 71.8281 135.961 71.6901 135.974 71.6211C135.988 71.5521 136.027 71.5176 136.086 71.5038C136.159 71.4832 136.297 71.5038 136.369 71.4694C136.442 71.4211 136.356 71.2693 136.527 71.2969C136.843 71.3314 136.79 71.1107 136.876 70.9865C136.955 70.8554 137.027 70.7106 136.988 70.5519C136.974 70.4622 137.251 70.4346 137.264 70.3381C137.264 70.3036 138.106 70.3105 138.382 70.3587C138.435 70.3656 138.494 70.3863 138.507 70.3932C138.751 70.545 139.139 70.752 139.086 70.9175C138.994 71.1589 138.961 71.4211 138.876 71.6625H138.862Z" fill="#1D4C5C"/>
<path d="M153.693 71.6625C153.621 71.8764 153.509 72.0764 153.437 72.2902C153.404 72.373 153.239 72.3661 153.456 72.6076C153.562 72.7317 153.22 72.6076 153.187 72.6696C153.108 72.8697 152.943 73.0076 152.831 73.187C152.733 73.3664 152.667 73.6009 152.542 73.7802C152.404 73.9458 152.147 73.9458 152.081 74.2079C152.022 74.4494 151.739 74.2838 151.634 74.4218C151.516 74.5804 151.364 74.6977 151.154 74.6356C151.003 74.5942 150.851 74.5045 150.759 74.608C150.7 74.6701 150.68 74.8771 150.595 74.884C150.516 74.884 150.397 74.7529 150.397 75.1323C150.397 75.1668 150.351 75.1047 150.325 75.0633C150.2 74.8495 150.108 74.877 150.055 75.0495C150.003 75.2151 149.937 75.2013 149.871 75.222C149.687 75.2702 149.503 75.2702 149.319 75.2358C149.18 75.2082 149.055 75.0495 148.93 75.0012C148.799 74.9529 148.621 75.084 148.529 74.884C148.437 74.6839 148.332 74.6563 148.213 74.6218C148.148 74.6011 148.128 74.4218 147.957 74.7529C147.944 74.7874 147.917 74.7667 147.917 74.7391C147.904 74.2148 147.496 74.7322 147.352 74.5114C147.22 74.3045 147.003 74.2631 146.812 74.1458C146.766 74.1114 146.779 73.9872 146.582 74.1734C146.51 74.2355 146.457 74.2079 146.47 74.132C146.562 73.7388 146.312 73.8009 146.227 73.6354C146.154 73.4491 145.891 73.4284 145.996 73.0904C146.036 72.9525 146.029 72.8352 145.707 72.9594C145.556 73.0145 145.635 72.8421 145.569 72.8076C145.516 72.7731 145.358 72.8145 145.319 72.7662C145.286 72.7248 145.378 72.6145 145.411 72.5317C145.418 72.511 145.411 72.4903 145.391 72.4903C144.924 72.4213 145.26 71.9246 145.075 71.7177C144.885 71.4832 144.858 71.1796 144.858 70.8968C144.865 70.7382 144.95 70.5519 145.582 70.4001C145.865 70.3312 146.174 70.3105 146.365 70.3381C146.503 70.3587 146.635 70.3794 146.674 70.407C146.733 70.4553 146.819 70.4967 146.878 70.5312C147.016 70.614 147.312 70.6278 147.187 70.7588C147.148 70.8071 147.319 70.7795 147.056 70.9037C147.016 70.9175 147.003 70.9382 147.023 70.9382C147.483 70.9037 147.253 71.1314 147.352 71.2417C147.431 71.3383 147.779 71.221 147.707 71.3935C148.029 71.2279 148.009 71.2969 147.957 71.4142C147.792 71.8212 148.128 71.8005 148.246 71.9453C148.378 72.1109 148.575 72.1661 148.753 72.2557C148.786 72.2764 148.871 72.0833 148.858 72.2488C148.851 72.4075 148.93 72.304 148.97 72.3178C149.009 72.3316 149.062 72.2557 149.082 72.3592C149.167 72.78 149.384 72.5593 149.536 72.5938C149.7 72.6351 149.878 72.642 150.016 72.511C150.101 72.4282 150.128 72.2075 150.24 72.242C150.292 72.2558 150.246 72.0557 150.424 72.3592C150.476 72.442 150.404 72.1868 150.424 72.1592C150.463 72.0971 150.536 72.0902 150.588 72.0557C150.661 72.0005 150.759 71.9798 150.805 71.8832C150.832 71.8281 150.792 71.6901 150.805 71.6211C150.818 71.5521 150.858 71.5176 150.917 71.5038C150.989 71.4832 151.128 71.5038 151.2 71.4694C151.272 71.4211 151.187 71.2693 151.358 71.2969C151.674 71.3314 151.621 71.1107 151.706 70.9865C151.785 70.8554 151.858 70.7106 151.818 70.5519C151.805 70.4622 152.081 70.4346 152.095 70.3381C152.095 70.3036 152.937 70.3105 153.213 70.3587C153.266 70.3656 153.325 70.3863 153.338 70.3932C153.581 70.545 153.969 70.752 153.917 70.9175C153.825 71.1589 153.792 71.4211 153.706 71.6625H153.693Z" fill="#1D4C5C"/>
</svg>
