<svg width="45" height="47" viewBox="0 0 45 47" fill="none" xmlns="http://www.w3.org/2000/svg">
<path d="M44.9851 24.6974C44.9599 24.381 44.7832 24.0985 44.675 23.8161C44.6101 23.6503 44.5524 23.3942 44.455 23.3603C44.3829 23.334 44.3 23.3189 44.2206 23.3151C44.2206 23.3151 44.2206 23.3114 44.2206 23.3076C44.2206 23.3001 44.2206 23.2925 44.2206 23.285C44.52 23.2059 44.7363 22.8745 44.7616 22.3848C44.776 22.1739 44.9058 21.9818 44.7543 21.7107C44.6786 21.5751 44.8084 21.2399 44.8012 20.9875C44.794 20.7954 44.7111 20.6109 44.6606 20.4188C44.6498 20.3774 44.639 20.3284 44.6462 20.2945C44.7616 19.7936 44.5452 19.3115 44.5019 18.8218C44.4586 18.336 44.4118 17.8501 44.3108 17.3718C44.0548 16.2908 43.705 15.2325 43.2867 14.208C43.1424 13.8728 43.0559 13.4962 42.753 13.2401C42.6231 13.1346 42.4753 12.8032 42.4789 12.6262C42.4825 12.3625 42.3599 12.1817 42.2553 11.9859C42.0317 11.5641 41.8082 11.1422 41.5485 10.743L41.1735 10.1366L40.7732 9.54905C40.2684 9.40593 40.3729 8.78825 40.0232 8.51707C39.9041 8.42291 39.8392 8.23459 39.6517 8.19316C39.5616 8.17433 39.3813 7.98224 39.3777 7.91068C39.3777 7.61314 39.1469 7.44742 38.9738 7.27793C38.3247 6.59245 37.708 5.85048 36.8858 5.35709C36.4026 5.08591 35.9663 4.64524 35.5227 4.27614C35.0612 3.8656 34.4878 3.73001 34.001 3.39857C33.7161 3.22155 33.4168 3.07467 33.2329 2.78466C32.2448 2.34022 31.3793 1.67734 30.3696 1.27058C30.0884 1.16135 29.8395 1.20655 29.5763 1.14252C29.259 1.06343 29.0462 0.867575 28.7757 0.743285C28.7289 0.720687 28.6459 0.698089 28.6171 0.713154C28.3755 0.848743 28.1339 0.671724 27.8958 0.626528C27.5713 0.5625 27.2359 0.50977 26.9835 0.283788C26.1613 0.404312 25.3752 0.0615727 24.5602 0.0540399C24.3619 0.0540399 24.1094 -0.0401192 23.9688 0.0201426C23.7164 0.121835 23.4495 0.140666 23.1791 0.140666C22.9086 0.140666 22.6346 0.114302 22.3713 0.197162C22.1045 0.276256 21.8124 0.291321 21.5095 0.287555C21.2065 0.291321 20.8964 0.295087 20.6007 0.317686C20.4312 0.328985 20.1968 0.400546 20.1103 0.347817C19.8687 0.200928 19.6271 0.332751 19.3891 0.328985C19.1511 0.317686 18.9131 0.291321 18.6787 0.325218C17.4778 0.487172 16.2878 0.762117 15.1303 1.15382C14.8526 1.23668 14.5894 1.37227 14.3189 1.46643C14.0629 1.55682 13.8357 1.69241 13.5292 1.69994C13.302 1.69994 12.945 1.87696 12.7611 2.05398C12.588 2.23477 12.5014 2.37789 12.2598 2.31009C12.1841 2.58881 11.8884 2.63024 11.6828 2.76582C10.702 3.34961 9.67064 3.84301 8.76551 4.59251C8.53832 4.78836 8.35441 5.03694 8.15608 5.27046C7.96135 5.50397 7.74138 5.70736 7.41683 5.79775C7.36634 5.80905 7.29422 5.92204 7.26898 5.98984C7.15358 6.34011 6.83985 6.63388 6.60906 6.73934C6.29894 6.88623 6.11503 7.12351 5.9203 7.35326C5.23875 8.18563 4.62932 9.07826 4.05234 9.98595C3.16524 11.3569 2.38272 12.8107 1.78771 14.3474C1.70117 14.5809 1.60741 14.8031 1.59298 15.0894C1.57495 15.5376 1.2468 16.0046 1.3081 16.4942C1.09895 16.739 0.994371 17.0404 0.918643 17.353C0.846521 17.6656 0.821278 17.9932 0.734732 18.2983C0.345274 19.7559 0.381335 21.2813 0.100059 22.7652C0.0459678 23.0477 0.0820287 23.3641 0.0856348 23.6654C0.0856348 23.9592 0.146938 24.332 0.0495738 24.5279C-0.119913 24.8932 0.20103 25.0251 0.182999 25.3226C0.146938 25.7934 0.269546 26.2793 0.323637 26.7576C0.384941 27.202 0.395759 27.7142 0.565246 28.0758C0.803248 28.5165 0.821278 28.9082 0.835703 29.3526C0.839309 29.4355 0.864552 29.5635 0.907825 29.6087C1.23237 29.9213 1.16746 30.4486 1.39465 30.7876C1.63986 31.1831 1.80214 31.5974 1.94999 32.0267C2.02571 32.2603 2.03293 32.5164 2.11587 32.7499C2.20241 33.0022 2.28535 33.2998 2.44042 33.4768C2.82266 33.8836 2.98494 34.4071 3.28064 34.8628C3.46815 35.1716 3.57994 35.5332 3.91892 35.7441C4.07037 35.8383 4.18577 36.1735 4.25789 36.3995C4.36607 36.7422 4.71226 36.9946 4.70504 37.3674C4.92141 37.4767 5.08729 37.6462 5.23875 37.8608C5.45151 38.1772 5.72557 38.4446 5.95275 38.7535C6.15109 39.0284 6.454 39.2092 6.56218 39.5632C6.68479 39.9625 7.1644 39.8947 7.35192 40.2449C7.4024 40.3391 7.56107 40.4107 7.58631 40.4935C7.72335 40.889 8.08035 41.1037 8.36884 41.3636C9.40379 42.2675 10.5361 43.0434 11.7009 43.7439C12.0362 43.9548 12.3788 44.1431 12.7142 44.3578C13.0532 44.5612 13.4029 44.7458 13.7491 44.9378C13.7744 44.9529 13.8176 44.9604 13.8249 44.9755C14.052 45.3333 14.51 45.3446 14.8454 45.5329C15.188 45.7099 15.5017 45.9359 15.8948 46.0414C16.4068 46.1619 16.9009 46.354 17.4201 46.4519C17.9106 46.5649 18.3938 46.6817 18.9167 46.6553C19.4035 46.6252 19.9444 46.7984 20.4637 46.8286C20.6728 46.8399 20.8892 46.7457 21.0911 46.7608C21.3255 46.7871 21.5527 46.8888 21.7943 46.9114C22.0395 46.934 22.2703 46.9152 22.5192 46.8286C22.6526 46.7758 22.9807 47.0056 23.2079 46.9114C23.72 46.7043 24.2537 46.757 24.7802 46.693C25.2345 46.6176 25.6961 46.58 26.1505 46.5009C26.2911 46.4745 26.4859 46.4858 26.5688 46.4143C26.9366 46.1054 27.4126 46.1431 27.8345 46.015C28.3033 45.8832 28.7721 45.7401 29.2445 45.6196C29.3599 45.5819 29.5114 45.6422 29.6087 45.5932C30.4093 45.1751 30.3949 45.1751 31.4334 44.8889C31.6029 44.8361 31.758 44.6893 31.9166 44.5838C31.9816 44.5386 32.0537 44.4444 32.1042 44.4444C32.3999 44.452 32.6487 44.3013 32.8975 44.1582C33.1463 44.0151 33.3771 43.8494 33.6295 43.7778C34.2318 43.6271 34.7006 43.243 35.1802 42.904C36.6839 41.7816 38.2562 40.6367 39.2911 39.002C40.0917 38.1621 40.6939 37.1641 41.444 36.2526C42.1003 35.4654 42.5114 34.4523 42.9621 33.5069C42.9874 33.4504 43.0342 33.3826 43.0306 33.345C42.9729 32.8817 43.3372 32.5352 43.4021 32.1134C43.4742 31.684 43.5824 31.2848 43.7158 30.8705L43.9249 30.2565L44.1053 29.6313C44.2315 29.217 44.3144 28.7877 44.3829 28.3621C44.5163 27.5146 44.9166 26.7538 44.9022 25.9742C44.9635 25.4921 45.0212 25.0891 44.9924 24.7124L44.9851 24.6974Z" fill="#E37354"/>
<path d="M19.7027 15.9181C19.7027 15.9181 19.6955 15.9106 19.6883 15.9068C19.6739 15.8993 19.6486 15.8955 19.645 15.8842C19.6054 15.8239 19.6594 15.726 19.5368 15.6959C19.5621 15.6469 19.4323 15.662 19.5008 15.5942C19.508 15.5866 19.508 15.5754 19.4936 15.5791C19.4034 15.5942 19.4395 15.549 19.4178 15.5339C19.3854 15.5151 19.4178 15.4586 19.3349 15.4661C19.288 15.4699 19.3205 15.4247 19.2592 15.436C19.2411 15.4398 19.288 15.3946 19.2844 15.3795C19.2447 15.2665 19.133 15.2175 19.1257 15.0744C19.1185 14.9727 18.9923 14.9878 19.0031 14.8597C19.0031 14.8371 18.9527 14.8748 18.9418 14.8673C18.8841 14.8108 18.7651 14.8447 18.7255 14.7693C18.711 14.7467 18.6858 14.7354 18.6606 14.7279C18.6533 14.7279 18.6245 14.7543 18.6245 14.743C18.6209 14.6903 18.6065 14.6488 18.5379 14.7129C18.5163 14.7317 18.5019 14.7279 18.5091 14.6978C18.5235 14.6149 18.4839 14.6375 18.4658 14.6187C18.4442 14.5999 18.4153 14.5923 18.3865 14.581C18.4081 14.4417 18.3252 14.581 18.3072 14.5547C18.2855 14.5245 18.2495 14.5396 18.2134 14.566C18.1701 14.5961 18.1377 14.566 18.1052 14.5434C18.0728 14.5208 18.0259 14.5622 17.9898 14.5773C17.9357 14.6036 17.8961 14.5019 17.8384 14.6149C17.8348 14.6225 17.8275 14.6225 17.8275 14.6074C17.8203 14.5245 17.8023 14.5584 17.7915 14.5584C17.741 14.566 17.6869 14.5095 17.64 14.6074C17.6292 14.63 17.6148 14.6112 17.604 14.6112C17.5932 14.6112 17.5787 14.6187 17.5679 14.6112C17.5535 14.6036 17.5355 14.5547 17.5282 14.5848C17.521 14.6262 17.5066 14.6112 17.4958 14.6187C17.4922 14.6187 17.4814 14.5923 17.4742 14.5848C17.4669 14.5773 17.4561 14.566 17.4489 14.5735C17.4345 14.5848 17.4345 14.6752 17.4128 14.63C17.384 14.5697 17.3912 14.6639 17.3696 14.6488C17.3515 14.6338 17.3371 14.6488 17.3227 14.6564C17.3119 14.6564 17.3047 14.6677 17.2902 14.6639C17.2758 14.6564 17.2542 14.6187 17.2434 14.6262C17.2253 14.6338 17.2001 14.6262 17.1929 14.6677C17.1857 14.7016 17.1532 14.6601 17.1316 14.6639C17.1244 14.6639 17.128 14.694 17.1244 14.7091C17.1244 14.7166 17.1208 14.7279 17.1135 14.7166C17.0703 14.6375 17.0703 14.7016 17.0522 14.6903C17.009 14.6752 17.0162 14.7693 16.9404 14.6827C16.9332 14.6714 16.9224 14.6752 16.926 14.6903C16.9513 14.7806 16.9116 14.7467 16.9008 14.7618C16.8683 14.8108 16.7818 14.7731 16.7926 14.8899C16.7926 14.9049 16.7746 14.8899 16.7637 14.8899C16.7529 14.8861 16.7385 14.8748 16.7277 14.8748C16.6808 14.8673 16.7277 14.9878 16.6447 14.9388C16.6411 14.9388 16.6375 14.9426 16.6447 14.9539C16.6808 15.0179 16.6447 14.9916 16.6447 15.0104C16.6447 15.0556 16.569 15.0029 16.5474 15.0255C16.4717 15.097 16.4031 15.1761 16.3382 15.259C16.3346 15.2665 16.3202 15.274 16.3382 15.2929C16.3635 15.3268 16.3454 15.3192 16.3238 15.3117C16.2048 15.2816 16.1832 15.3381 16.194 15.4021C16.2012 15.4511 16.2192 15.5 16.1327 15.4925C16.111 15.4925 16.1002 15.5038 16.1183 15.5264C16.1976 15.613 16.1038 15.613 16.1074 15.662C16.1074 15.6695 16.0461 15.662 16.057 15.6695C16.1363 15.7222 16.075 15.7185 16.0786 15.7411C16.0786 15.7637 16.0714 15.7787 16.0606 15.7938C16.0497 15.8089 16.0606 15.8352 16.0137 15.8352C15.938 15.8352 16.0533 15.8804 16.0317 15.8917V15.8955C15.9127 15.8842 16.0137 15.9294 16.0353 15.9558C16.0425 15.9633 16.0714 15.9784 16.0606 15.9784C15.9848 15.9784 15.938 15.9972 15.9993 16.0348C15.8875 16.0386 15.9452 16.08 15.938 16.1064C15.9163 16.178 15.9199 16.2533 15.9163 16.3249C15.9091 16.4002 15.9163 16.4717 15.9235 16.5471C15.938 16.6186 15.974 16.6864 16.0065 16.7505C16.0101 16.758 16.0425 16.7618 16.0461 16.7693C16.0533 16.7881 16.057 16.807 16.0533 16.8258C16.0533 16.8371 16.0137 16.8634 16.0353 16.8634C16.1219 16.8634 16.0786 16.9049 16.1038 16.9275C16.1219 16.9425 16.093 16.9802 16.1723 16.9689C16.194 16.9689 16.1976 16.9764 16.1796 16.9915C16.111 17.0367 16.1507 17.0442 16.1507 17.0593C16.1543 17.0857 16.1724 17.1045 16.1796 17.1309C16.1868 17.1572 16.2589 17.1459 16.2661 17.1723C16.2986 17.2627 16.3599 17.338 16.4067 17.4171C16.4248 17.4548 16.4933 17.4435 16.4428 17.5414C16.4356 17.5527 16.4608 17.5414 16.468 17.5414C16.4789 17.5414 16.5005 17.5301 16.4933 17.5376C16.4428 17.6017 16.4825 17.5904 16.4933 17.6017C16.5294 17.6506 16.5798 17.6845 16.6195 17.7297C16.6339 17.7448 16.67 17.7335 16.6375 17.8088C16.6303 17.8314 16.6447 17.8352 16.6664 17.8163C16.7061 17.7787 16.7024 17.8013 16.7133 17.805C16.7277 17.8126 16.7457 17.8201 16.7529 17.8389C16.7637 17.8578 16.7529 17.903 16.771 17.9105C16.8251 17.9256 16.8575 17.9745 16.926 17.9595C17.009 17.9406 17.0558 18.0047 17.1171 18.0386C17.1316 18.0461 17.1352 18.0725 17.1676 18.0197C17.1748 18.0047 17.1857 18.0009 17.1857 18.016C17.1748 18.0837 17.1965 18.0536 17.2073 18.0649C17.247 18.1101 17.3119 18.0423 17.3588 18.0499C17.4561 18.0649 17.5535 18.08 17.6545 18.0875C17.6725 18.0875 17.6869 18.0687 17.7049 18.1327C17.7194 18.1779 17.7446 18.1704 17.759 18.1252C17.7735 18.08 17.7843 18.0762 17.7987 18.0837C17.8167 18.095 17.842 18.1704 17.8528 18.0762C17.8528 18.0687 17.86 18.0649 17.86 18.0762C17.8852 18.1704 17.8997 18.1176 17.9177 18.1214C17.9465 18.1214 17.9754 18.1101 18.0042 18.1101C18.0223 18.1101 18.0295 18.08 18.0619 18.144C18.08 18.1854 18.1052 18.1741 18.1052 18.1289C18.1052 18.0725 18.1196 18.08 18.1341 18.0762C18.2783 18.0348 18.4153 17.9745 18.5452 17.8954C18.556 17.8879 18.574 17.8954 18.592 17.903C18.6281 17.918 18.6353 17.8766 18.6497 17.8578C18.6497 17.854 18.6461 17.8276 18.6533 17.8352C18.7146 17.8917 18.6966 17.8276 18.7255 17.8352C18.7507 17.8352 18.7868 17.8502 18.8048 17.8389C18.8264 17.8239 18.8733 17.8389 18.8336 17.7448C18.8697 17.7109 18.9094 17.677 18.9418 17.6356C18.949 17.628 18.9599 17.6243 18.9995 17.6506C19.014 17.6582 19.0212 17.6506 19.0067 17.6318C18.9635 17.5753 18.9923 17.5866 18.9959 17.5715C19.0103 17.5188 19.1005 17.5263 19.0464 17.4209C19.0428 17.4133 19.068 17.4209 19.0789 17.4209C19.0861 17.4209 19.1041 17.4209 19.0933 17.4133C19.0464 17.3568 19.0644 17.3418 19.1041 17.3531C19.1582 17.3681 19.1582 17.3493 19.1618 17.3305C19.1762 17.2815 19.2123 17.2438 19.2015 17.1836C19.187 17.1196 19.2195 17.0744 19.2916 17.048C19.3601 17.0216 19.3349 16.9501 19.3565 16.9011C19.3601 16.8898 19.3169 16.8634 19.3205 16.8521C19.3205 16.7844 19.3493 16.7241 19.3565 16.6412C19.3421 16.5772 19.4142 16.4981 19.3277 16.419C19.3024 16.3964 19.2736 16.3851 19.2123 16.3776C19.2123 16.3776 19.2123 16.3738 19.2123 16.3701C19.2267 16.3701 19.2411 16.3701 19.2664 16.3701C19.4936 16.3701 19.6378 16.3324 19.5909 16.2872C19.5837 16.2797 19.5693 16.2684 19.5909 16.2608C19.6558 16.2382 19.6306 16.2156 19.6378 16.193C19.6486 16.1704 19.6775 16.1478 19.6811 16.1252C19.6991 16.0537 19.609 16.0047 19.7027 15.9181Z" fill="#1D4C5C"/>
<path d="M28.2384 15.9181C28.2384 15.9181 28.2312 15.9106 28.2239 15.9068C28.2095 15.8993 28.1843 15.8955 28.1807 15.8842C28.141 15.8239 28.1951 15.726 28.0725 15.6959C28.0977 15.6469 27.9679 15.662 28.0364 15.5942C28.0436 15.5866 28.0436 15.5754 28.0292 15.5791C27.9355 15.5942 27.9751 15.549 27.9535 15.5339C27.921 15.5151 27.9535 15.4586 27.8705 15.4661C27.8237 15.4699 27.8561 15.4247 27.7948 15.436C27.7768 15.4398 27.8237 15.3946 27.8201 15.3795C27.7804 15.2665 27.6686 15.2175 27.6614 15.0744C27.6542 14.9727 27.528 14.9878 27.5388 14.8597C27.5388 14.8371 27.4883 14.8748 27.4775 14.8673C27.4198 14.8108 27.3008 14.8447 27.2611 14.7693C27.2467 14.7467 27.2214 14.7354 27.1962 14.7279C27.189 14.7279 27.1601 14.7543 27.1601 14.743C27.1565 14.6903 27.1421 14.6488 27.0736 14.7129C27.052 14.7317 27.0375 14.7279 27.0447 14.6978C27.0592 14.6149 27.0195 14.6375 27.0015 14.6187C26.9798 14.5999 26.951 14.5923 26.9221 14.581C26.9438 14.4417 26.8608 14.581 26.8428 14.5547C26.8212 14.5245 26.7851 14.5396 26.749 14.566C26.7058 14.5961 26.6733 14.566 26.6409 14.5434C26.6084 14.5208 26.5615 14.5622 26.5255 14.5773C26.4714 14.6036 26.4317 14.5019 26.374 14.6149C26.3704 14.6225 26.3632 14.6225 26.3596 14.6074C26.3524 14.5245 26.3343 14.5584 26.3235 14.5584C26.273 14.566 26.219 14.5095 26.1721 14.6074C26.1613 14.63 26.1468 14.6112 26.136 14.6112C26.1252 14.6112 26.1108 14.6187 26.1 14.6112C26.0855 14.6036 26.0675 14.5547 26.0603 14.5848C26.0531 14.6262 26.0386 14.6112 26.0278 14.6187C26.0242 14.6187 26.0134 14.5923 26.0062 14.5848C25.999 14.5773 25.9882 14.566 25.981 14.5735C25.9665 14.5848 25.9665 14.6752 25.9449 14.63C25.916 14.5697 25.9233 14.6639 25.9016 14.6488C25.8836 14.6338 25.8692 14.6488 25.8547 14.6564C25.8439 14.6564 25.8367 14.6677 25.8223 14.6639C25.8079 14.6564 25.7862 14.6187 25.7754 14.6262C25.7574 14.6338 25.7321 14.6262 25.7249 14.6677C25.7177 14.7016 25.6853 14.6601 25.6636 14.6639C25.6564 14.6639 25.66 14.694 25.6564 14.7091C25.6564 14.7166 25.6528 14.7279 25.6456 14.7166C25.6023 14.6375 25.6023 14.7016 25.5843 14.6903C25.541 14.6752 25.5482 14.7693 25.4725 14.6827C25.4653 14.6714 25.4545 14.6752 25.4581 14.6903C25.4833 14.7806 25.4436 14.7467 25.4328 14.7618C25.4004 14.8108 25.3138 14.7731 25.3246 14.8899C25.3246 14.9049 25.3066 14.8899 25.2958 14.8899C25.285 14.8861 25.2706 14.8748 25.2597 14.8748C25.2129 14.8673 25.2597 14.9878 25.1768 14.9388C25.1732 14.9388 25.1696 14.9426 25.1768 14.9539C25.2129 15.0179 25.1768 14.9916 25.1768 15.0104C25.1768 15.0556 25.1011 15.0029 25.0794 15.0255C25.0037 15.097 24.9352 15.1761 24.8703 15.259C24.8667 15.2665 24.8522 15.274 24.8703 15.2929C24.8955 15.3268 24.8775 15.3192 24.8558 15.3117C24.7368 15.2816 24.7152 15.3381 24.726 15.4021C24.7332 15.4511 24.7513 15.5 24.6647 15.4925C24.6431 15.4925 24.6323 15.5038 24.6503 15.5264C24.7296 15.613 24.6359 15.613 24.6395 15.662C24.6395 15.6695 24.5782 15.662 24.589 15.6695C24.6683 15.7222 24.607 15.7185 24.6106 15.7411C24.6106 15.7637 24.6034 15.7787 24.5926 15.7938C24.5818 15.8089 24.5926 15.8352 24.5457 15.8352C24.47 15.8352 24.5854 15.8804 24.5638 15.8917V15.8955C24.4448 15.8842 24.5457 15.9294 24.5674 15.9558C24.5746 15.9633 24.6034 15.9784 24.5926 15.9784C24.5169 15.9784 24.47 15.9972 24.5313 16.0348C24.4195 16.0386 24.4772 16.08 24.47 16.1064C24.4484 16.178 24.452 16.2533 24.4484 16.3249C24.4411 16.4002 24.4484 16.4717 24.4556 16.5471C24.47 16.6186 24.5061 16.6864 24.5385 16.7505C24.5421 16.758 24.5746 16.7618 24.5782 16.7693C24.5854 16.7881 24.589 16.807 24.5854 16.8258C24.5854 16.8371 24.5457 16.8634 24.5674 16.8634C24.6539 16.8634 24.6106 16.9049 24.6359 16.9275C24.6539 16.9425 24.6251 16.9802 24.7044 16.9689C24.726 16.9689 24.7296 16.9764 24.7116 16.9915C24.6431 17.0367 24.6828 17.0442 24.6828 17.0593C24.6864 17.0857 24.7044 17.1045 24.7116 17.1309C24.7188 17.1572 24.7909 17.1459 24.7982 17.1723C24.8306 17.2627 24.8919 17.338 24.9388 17.4171C24.9568 17.4548 25.0253 17.4435 24.9749 17.5414C24.9676 17.5527 24.9929 17.5414 25.0001 17.5414C25.0109 17.5414 25.0325 17.5301 25.0253 17.5376C24.9749 17.6017 25.0145 17.5904 25.0253 17.6017C25.0614 17.6506 25.1119 17.6845 25.1515 17.7297C25.166 17.7448 25.202 17.7335 25.1696 17.8088C25.1624 17.8314 25.1768 17.8352 25.1984 17.8163C25.2381 17.7787 25.2345 17.8013 25.2453 17.805C25.2597 17.8126 25.2778 17.8201 25.285 17.8389C25.2958 17.8578 25.285 17.903 25.303 17.9105C25.3571 17.9256 25.3896 17.9745 25.4581 17.9595C25.541 17.9406 25.5879 18.0047 25.6492 18.0386C25.6636 18.0461 25.6672 18.0725 25.6997 18.0197C25.7069 18.0047 25.7177 18.0009 25.7177 18.016C25.7069 18.0837 25.7285 18.0536 25.7393 18.0649C25.779 18.1101 25.8439 18.0423 25.8908 18.0499C25.9882 18.0649 26.0855 18.08 26.1865 18.0875C26.2045 18.0875 26.219 18.0687 26.237 18.1327C26.2514 18.1779 26.2767 18.1704 26.2911 18.1252C26.3055 18.08 26.3163 18.0762 26.3307 18.0837C26.3488 18.095 26.374 18.1704 26.3848 18.0762C26.3848 18.0687 26.392 18.0649 26.392 18.0762C26.4173 18.1704 26.4317 18.1176 26.4497 18.1214C26.4786 18.1214 26.5074 18.1101 26.5363 18.1101C26.5543 18.1101 26.5615 18.08 26.594 18.144C26.612 18.1854 26.6373 18.1741 26.6373 18.1289C26.6373 18.0725 26.6517 18.08 26.6661 18.0762C26.8104 18.0348 26.9474 17.9745 27.0772 17.8954C27.088 17.8879 27.1061 17.8954 27.1241 17.903C27.1601 17.918 27.1674 17.8766 27.1818 17.8578C27.1818 17.854 27.1782 17.8276 27.1854 17.8352C27.2467 17.8917 27.2287 17.8276 27.2575 17.8352C27.2828 17.8352 27.3188 17.8502 27.3368 17.8389C27.3585 17.8239 27.4054 17.8389 27.3657 17.7448C27.4018 17.7109 27.4414 17.677 27.4739 17.6356C27.4811 17.628 27.4919 17.6243 27.5316 17.6506C27.546 17.6582 27.5532 17.6506 27.5388 17.6318C27.4955 17.5753 27.5244 17.5866 27.528 17.5715C27.5424 17.5188 27.6325 17.5263 27.5785 17.4209C27.5748 17.4133 27.6001 17.4209 27.6109 17.4209C27.6181 17.4209 27.6361 17.4209 27.6253 17.4133C27.5785 17.3568 27.5965 17.3418 27.6362 17.3531C27.6902 17.3681 27.6902 17.3493 27.6938 17.3305C27.7083 17.2815 27.7443 17.2438 27.7335 17.1836C27.7191 17.1196 27.7515 17.0744 27.8237 17.048C27.8922 17.0216 27.8669 16.9501 27.8886 16.9011C27.8922 16.8898 27.8489 16.8634 27.8525 16.8521C27.8525 16.7844 27.8814 16.7241 27.8886 16.6412C27.8742 16.5772 27.9463 16.4981 27.8597 16.419C27.8345 16.3964 27.8056 16.3851 27.7443 16.3776C27.7443 16.3776 27.7443 16.3738 27.7443 16.3701C27.7588 16.3701 27.7732 16.3701 27.7984 16.3701C28.0256 16.3701 28.1699 16.3324 28.123 16.2872C28.1158 16.2797 28.1013 16.2684 28.123 16.2608C28.1879 16.2382 28.1626 16.2156 28.1699 16.193C28.1807 16.1704 28.2095 16.1478 28.2131 16.1252C28.2312 16.0537 28.141 16.0047 28.2348 15.9181H28.2384Z" fill="#1D4C5C"/>
<path d="M20.5286 24.6748C20.4781 24.6522 20.4853 24.6033 20.5394 24.5807C20.6187 24.5468 20.5935 24.5167 20.5935 24.4828C20.5935 24.415 20.5935 24.3434 20.5827 24.2794L20.5574 24.0798C20.323 24.0572 20.626 23.9442 20.5322 23.899C20.4997 23.8839 20.543 23.85 20.4637 23.8425C20.4276 23.8425 20.406 23.8086 20.4312 23.7935C20.543 23.737 20.4925 23.7069 20.4781 23.6768C20.4312 23.5525 20.4565 23.4056 20.3086 23.3152C20.2221 23.2662 20.2329 23.1721 20.2257 23.0892C20.2257 22.9988 20.0778 22.9762 20.0562 22.9009C20.0418 22.8595 20.0093 22.8218 20.085 22.7427C19.9696 22.6372 20.0382 22.4376 19.9769 22.302C19.9588 22.2644 19.8759 22.2794 19.8398 22.2568C19.8002 22.2305 19.8506 22.1589 19.8579 22.1062C19.8579 22.0986 19.8543 22.0873 19.8398 22.0911C19.7172 22.1363 19.7533 22.0685 19.7316 22.0422C19.7028 22.0083 19.6631 21.9781 19.7316 21.884C19.5225 21.8953 19.5766 21.722 19.4864 21.6542C19.4648 21.6392 19.4864 21.5789 19.4359 21.594C19.2665 21.6392 19.3097 21.5111 19.1979 21.5111C19.0862 21.5111 19.0898 21.3981 19.0429 21.3341C19.0285 21.3152 18.9852 21.3115 19.0104 21.2776C19.0789 21.1797 19.0104 21.1947 19.0068 21.1571C19.0068 21.1194 19.0212 21.0591 19.0068 21.0328C18.9311 20.8821 18.8445 20.7428 18.7508 20.6072C18.74 20.5883 18.7292 20.5808 18.7111 20.562C18.6895 20.5394 18.6678 20.5168 18.6498 20.4904C18.6138 20.4377 18.5597 20.4264 18.5633 20.3096C18.5633 20.223 18.4911 20.159 18.4298 20.174C18.3685 20.1853 18.3289 20.223 18.3397 20.0799C18.2568 20.1891 18.2387 20.0874 18.1991 20.0535C18.1089 19.9782 18.026 19.8614 17.9358 19.7371L17.8673 19.643C17.8421 19.6279 17.8204 19.6618 17.7952 19.6693C17.7447 19.6995 17.6942 19.7371 17.6437 19.7861C17.5319 19.8916 17.4995 20.1966 17.3372 20.0686C17.3228 20.061 17.3083 20.0987 17.3047 20.1288C17.2939 20.287 17.229 20.3322 17.1569 20.3096C17.0595 20.2795 17.0163 20.3398 16.973 20.3887C16.8756 20.4942 16.8684 20.5281 16.8215 20.5959C16.7819 20.6561 16.7422 20.7126 16.6989 20.7691C16.5691 20.9386 16.4068 21.0742 16.2806 21.2474C16.2626 21.2738 16.2373 21.2926 16.259 21.3604C16.295 21.4659 16.1616 21.4433 16.2301 21.5751C16.039 21.5149 16.0895 21.6693 16.021 21.7182C15.8623 21.8425 15.8695 22.0836 15.6279 22.1551C15.581 22.1702 15.5846 22.2229 15.563 22.2531C15.5378 22.2832 15.545 22.3435 15.4728 22.3284C15.3394 22.302 15.5089 22.4263 15.4656 22.4489C15.4007 22.4828 15.3971 22.5544 15.3683 22.6109C15.3394 22.6636 15.2601 22.6937 15.3034 22.7766C15.3575 22.8745 15.3034 22.9047 15.2204 22.931C15.206 22.9348 15.1916 22.9498 15.206 22.9649C15.3286 23.0779 15.1771 23.0817 15.2204 23.157C15.2709 23.2436 15.2601 23.3039 15.2276 23.3566C15.2096 23.3867 15.1447 23.3943 15.1231 23.4206C15.0978 23.4508 15.0581 23.4809 15.0906 23.5223C15.1699 23.624 15.1086 23.6805 15.1086 23.7596C15.1086 23.8086 15.0437 23.8462 15.1411 23.9216C15.1844 23.9555 15.1303 23.9894 15.0798 24.0082C15.0041 24.0383 15.0906 24.1137 14.9391 24.1287C15.0041 24.1702 15.0185 24.2078 15.0077 24.2417C14.9896 24.2907 14.9968 24.3472 14.9824 24.3999C14.968 24.4451 15.0221 24.4978 14.9175 24.5355C14.8021 24.5807 15.0437 24.6372 14.968 24.6861C14.9464 24.7012 14.986 24.7238 14.9608 24.7351C14.8346 24.7841 14.8887 24.8481 14.8887 24.9046C14.8814 25.1042 14.9283 25.3076 14.9572 25.5147C14.9824 25.6315 14.9644 25.7671 14.986 25.8914C14.986 25.8951 14.9968 25.8989 14.9896 25.9027C14.8634 26.0157 14.9896 26.0383 14.986 26.1098C14.9788 26.1852 14.9464 26.2718 14.9932 26.3245C15.0509 26.3923 15.0798 26.4789 15.1339 26.543C15.1844 26.607 15.2204 26.6786 15.325 26.6974C15.426 26.7087 15.4296 26.8179 15.4945 26.8669C15.5197 26.8857 15.5918 26.8593 15.6135 26.8819C15.6351 26.9083 15.6171 26.9799 15.6351 27.0138C15.6532 27.0477 15.6892 27.059 15.7577 27.0401C15.7938 27.0288 15.7289 27.1832 15.7938 27.1606C15.938 27.1041 15.9525 27.2134 16.0246 27.2473C16.0859 27.2774 16.1364 27.3264 16.1941 27.364C16.2121 27.3753 16.2193 27.4168 16.2482 27.3942C16.378 27.2887 16.3888 27.4055 16.4537 27.4243C16.5222 27.4469 16.5835 27.4846 16.6448 27.5222C16.6593 27.5335 16.652 27.6051 16.6701 27.6051C16.8251 27.5712 16.8143 27.5749 16.9405 27.7143C16.9622 27.7369 17.0018 27.703 17.0343 27.6917C17.0487 27.6879 17.0703 27.654 17.074 27.6691C17.1136 27.8612 17.2398 27.703 17.3011 27.816C17.3769 27.9441 17.4742 27.9177 17.568 27.9139C17.8493 27.9026 18.1846 28.0005 18.4154 27.7331C18.5921 27.7181 18.7292 27.5938 18.9203 27.6051C19.0934 27.6126 19.2015 27.4657 19.3242 27.3791C19.3314 27.3753 19.3494 27.3791 19.3458 27.364C19.3025 27.1983 19.4251 27.2586 19.4396 27.1795C19.454 27.0966 19.4756 27.0326 19.5225 26.9949C19.6163 26.9196 19.7172 26.8443 19.7713 26.7313C19.8254 26.6221 20.0454 26.656 20.0562 26.5166C20.0995 26.4601 20.1536 26.4262 20.15 26.3584C20.15 26.3019 20.0706 26.204 20.0201 26.1249C19.9913 26.0797 19.9733 26.027 19.9156 25.9931C19.8759 25.9667 19.8254 25.9366 19.7821 25.9102C19.9624 26.0006 20.1139 26.0345 20.1644 25.9818C20.186 25.9592 20.2834 25.9742 20.2185 25.9027C20.186 25.865 20.2978 25.865 20.323 25.8349C20.3411 25.8123 20.3122 25.7709 20.305 25.737C20.305 25.7294 20.3014 25.7219 20.3086 25.7181C20.4348 25.688 20.3735 25.5901 20.4204 25.5298C20.4709 25.4695 20.5214 25.4093 20.543 25.3377C20.5899 25.1758 20.6007 25.0138 20.5971 24.8519C20.5971 24.7991 20.6512 24.7426 20.5286 24.6899V24.6748Z" fill="#1D4C5C"/>
<path d="M12.5375 35.1831C12.5628 35.04 12.7936 35.0664 12.8549 34.9383C12.9198 34.8102 13.028 34.7199 13.1253 34.6219C13.1758 34.573 13.1974 34.5014 13.2047 34.411C13.2119 34.3244 13.3489 34.3583 13.284 34.2001C13.2768 34.185 13.2948 34.185 13.302 34.1775C13.4174 34.0532 13.4967 33.8837 13.6698 33.831C13.8718 33.7707 13.9619 33.5899 14.1278 33.4958C14.2396 33.1455 14.5605 33.0513 14.7877 32.8404C14.8562 32.7726 14.9139 32.6822 15.0546 32.7161C15.1736 32.7425 15.1628 32.5429 15.3286 32.637C15.3431 32.6446 15.3359 32.6032 15.3431 32.5881C15.3575 32.5542 15.3611 32.4977 15.3936 32.4939C15.5883 32.4713 15.5883 32.4751 15.664 32.3169C15.6748 32.2981 15.7289 32.347 15.7469 32.3395C15.8155 32.2981 15.8912 32.2679 15.9525 32.2114C16.0066 32.1625 16.1184 32.2077 16.1003 32.0307C16.0967 31.993 16.1364 32.0005 16.158 31.9892C16.223 31.9478 16.2951 31.9177 16.3528 31.8687C16.4213 31.8122 16.5259 31.8273 16.5439 31.6691C16.5511 31.5975 16.6701 31.7143 16.6737 31.6766C16.6809 31.6013 16.7098 31.5712 16.7494 31.5599C16.7891 31.5523 16.8504 31.59 16.8865 31.5749C16.9189 31.5599 16.9153 31.477 16.9442 31.4582C17.0163 31.4092 17.1245 31.4243 17.1641 31.3226C17.2074 31.2096 17.2904 31.1945 17.3625 31.1531C17.4382 31.1117 17.5284 31.0966 17.6005 31.0439C17.6582 31.0024 17.7375 31.0439 17.8096 31.0552C17.8782 31.0665 17.907 30.9309 18.0152 31.0627C18.0188 31.0702 18.0224 31.0627 18.0296 31.0589C18.1558 31.0326 18.2929 31.0326 18.4191 31.0024C18.6354 30.946 18.841 30.8631 19.0537 30.7991C19.115 30.7802 19.1619 30.7087 19.2521 30.8254C19.2701 30.848 19.2881 30.8028 19.3062 30.8179C19.3819 30.8782 19.3711 30.6183 19.454 30.72C19.5297 30.8104 19.5694 30.7388 19.6235 30.7388C19.6848 30.7388 19.7425 30.7087 19.8038 30.7011C19.8471 30.6974 19.8795 30.6672 19.8976 30.5881C19.9733 30.7275 20.0166 30.6107 20.0815 30.671C20.1248 30.7087 20.1861 30.7426 20.2041 30.6861C20.2438 30.5618 20.3087 30.6107 20.3628 30.5881C20.4457 30.558 20.5358 30.5957 20.6044 30.4714C20.6332 30.4187 20.6837 30.4413 20.727 30.4488C20.7666 30.4563 20.8099 30.5128 20.8496 30.5128C20.9217 30.5128 20.9902 30.4978 21.0551 30.4074C21.1092 30.332 21.1958 30.4563 21.2462 30.2944C21.2535 30.2718 21.2751 30.2793 21.2859 30.2944C21.358 30.3584 21.4229 30.3961 21.4915 30.2981C21.5492 30.2228 21.6321 30.2755 21.7006 30.2755C21.7763 30.2755 21.8521 30.2379 21.9278 30.2755C21.9747 30.3019 21.9963 30.0835 22.054 30.219C22.0865 30.2906 22.1442 30.2529 22.191 30.2529C22.2379 30.2529 22.2884 30.2228 22.3317 30.2529C22.5625 30.4413 22.8041 30.3094 23.0385 30.3772C23.1358 30.4074 23.2512 30.2831 23.3306 30.4789C23.4135 30.3396 23.4892 30.4714 23.565 30.3885C23.6155 30.3358 23.6515 30.3471 23.6912 30.3509C23.9508 30.3848 24.2069 30.4337 24.4665 30.4601C24.636 30.4865 24.8127 30.4789 24.9858 30.5015C25.0326 30.5091 25.0831 30.5015 25.1156 30.5994C25.1372 30.671 25.2057 30.6936 25.2815 30.5994C25.2959 30.5806 25.3211 30.5693 25.3247 30.5844C25.368 30.8066 25.5159 30.622 25.6096 30.6484C25.7935 30.6936 25.9306 30.8744 26.1109 30.9234C26.1505 30.9347 26.1758 31.0062 26.2479 30.8857C26.2407 31.0062 26.2804 30.961 26.3344 30.9234C26.3885 30.8857 26.4535 30.9008 26.4607 30.9761C26.4751 31.0778 26.522 31.0665 26.5616 31.0928C26.6013 31.123 26.6518 31.1267 26.6915 31.1531C26.8645 31.2586 27.0412 31.3603 27.2071 31.4732C27.2396 31.4958 27.2504 31.5636 27.2756 31.6013C27.3009 31.6427 27.3658 31.6013 27.3478 31.7256C27.3405 31.7708 27.391 31.7595 27.4163 31.7745C27.5028 31.8197 27.5641 31.9365 27.6831 31.8913C27.8021 31.8499 27.831 31.993 27.9824 31.8838C28.0257 31.8536 28.0365 31.9177 28.069 31.9252C28.2024 31.9591 28.2493 32.155 28.4512 32.0608C28.4368 32.1851 28.4945 32.1964 28.545 32.2152C28.581 32.2303 28.5883 32.3094 28.682 32.2152C28.6928 32.2039 28.7037 32.2114 28.7109 32.219C28.7361 32.2717 28.7289 32.3659 28.7866 32.3772C28.8335 32.3847 28.9056 32.3395 28.9453 32.3696C29.0895 32.4789 29.1508 32.7011 29.3275 32.7538C29.3095 32.8668 29.3636 32.8856 29.4032 32.9233C29.4754 32.9873 29.6232 32.9384 29.6809 33.025C29.7386 33.1078 29.7963 33.1982 29.9081 33.1982C30.1028 33.1982 30.1677 33.364 30.3012 33.4468C30.3336 33.4694 30.3985 33.4619 30.3444 33.5824C30.3336 33.6125 30.3733 33.6276 30.4057 33.6088C30.4742 33.5636 30.467 33.6238 30.5031 33.6163C30.6077 33.6012 30.449 33.8912 30.6509 33.7594L30.8168 33.9214C30.8709 33.9741 30.9286 34.0268 30.9791 34.0833C31.0007 34.1135 31.044 34.1172 31.0116 34.2039C30.9899 34.2641 31.0224 34.3131 31.0765 34.2943C31.1991 34.2491 31.2063 34.3281 31.2496 34.3696C31.3794 34.4901 31.4984 34.6257 31.6066 34.7688C31.6534 34.8291 31.6679 34.9232 31.6967 35.0023C31.7256 35.0814 31.841 35.089 31.8049 35.2245C31.8049 35.2358 31.8121 35.2358 31.8193 35.2396C31.8518 35.2547 31.8987 35.2547 31.9131 35.281C31.9311 35.3187 31.8842 35.4279 31.9311 35.4166C32.0285 35.3978 31.9708 35.4807 31.9816 35.5146C32.0177 35.6162 31.8698 35.8046 31.6426 35.9665C31.5921 36.0004 31.5308 36.0343 31.4876 36.0531C31.1991 36.1737 31.2171 36.1661 31.1269 36.0757C31.0152 35.9628 31.044 35.7217 30.8889 35.6351C30.9358 35.4468 30.7808 35.4317 30.7339 35.3225C30.6834 35.2095 30.6942 35.0325 30.55 35.0136C30.4093 34.9948 30.3444 34.9006 30.2687 34.8178C30.2074 34.7575 30.1894 34.6521 30.1353 34.5805C30.0812 34.5089 29.9874 34.475 29.9514 34.3846C29.9297 34.3281 29.9514 34.2114 29.872 34.2227C29.7025 34.2491 29.6881 34.0833 29.5619 34.0645C29.3888 34.0344 29.3095 33.8912 29.1544 33.8461C29.0715 33.8235 28.9849 33.8046 28.9272 33.7519C28.8984 33.7255 28.8695 33.7105 28.8731 33.6351C28.8767 33.556 28.8299 33.5184 28.7397 33.5636C28.7037 33.5824 28.6604 33.5862 28.6604 33.5485C28.6748 33.3979 28.5774 33.3979 28.5161 33.3564C28.4765 33.3301 28.4981 33.1945 28.4476 33.2208C28.3611 33.266 28.3467 33.2095 28.3034 33.1907C28.2745 33.1794 28.2204 33.1907 28.2565 33.0777C28.2673 33.0476 28.2421 33.025 28.2204 33.04C28.0978 33.138 28.0834 33.0401 28.0293 33.0175C27.9031 32.9534 27.7841 32.8781 27.6687 32.7952C27.5749 32.7237 27.4019 32.8141 27.3297 32.7048C27.1999 32.8065 27.1602 32.7124 27.0953 32.6747C27.0449 32.6483 27.016 32.573 26.9763 32.5203C26.9367 32.4676 26.8754 32.4676 26.8501 32.3772C26.8177 32.2679 26.7023 32.3018 26.6338 32.2566C26.5941 32.2303 26.5184 32.2868 26.5328 32.1399C26.5328 32.1211 26.5148 32.1135 26.5003 32.1286C26.3921 32.2416 26.3381 32.1738 26.3092 32.1022C26.2623 31.9817 26.1722 31.9855 26.1001 31.9403C26.0387 31.8988 25.9666 31.8988 25.9053 31.8649C25.8621 31.8386 25.8044 31.8536 25.7755 31.7783C25.7503 31.7181 25.6745 31.7783 25.6277 31.7745C25.5808 31.767 25.5339 31.7444 25.4906 31.7294L25.3428 31.6804C25.2923 31.6653 25.2454 31.6427 25.1913 31.6314C25.1372 31.6164 25.0759 31.6164 25.0254 31.5862C24.9786 31.5599 24.9389 31.4883 24.8884 31.4695C24.7442 31.4167 24.5675 31.5373 24.434 31.4431C24.3727 31.5373 24.3511 31.4544 24.3114 31.4243C24.2754 31.3979 24.2393 31.349 24.1816 31.4506C24.1672 31.4808 24.1455 31.4695 24.1275 31.477C24.0879 31.4883 24.0734 31.3791 24.0193 31.4506C23.9797 31.4996 23.9436 31.4393 23.9039 31.4469C23.8607 31.4544 23.8282 31.3678 23.7741 31.4996C23.7308 31.2849 23.6227 31.5862 23.565 31.4845C23.5469 31.4506 23.5217 31.4356 23.5037 31.413C23.4928 31.4017 23.482 31.3715 23.4712 31.3828C23.2657 31.5297 23.089 31.3904 22.8942 31.4243C22.869 31.428 22.8474 31.4695 22.8221 31.4845C22.8113 31.4921 22.7969 31.4958 22.786 31.4845C22.6851 31.4054 22.6851 31.4054 22.5877 31.477C22.5625 31.4958 22.5372 31.477 22.512 31.4845C22.4471 31.5034 22.3822 31.4619 22.3173 31.5448C22.2487 31.6314 22.1766 31.4845 22.1081 31.4205C22.0432 31.364 21.9819 31.3 21.9134 31.3113C21.7403 31.3339 21.5672 31.3301 21.3941 31.3377C21.3725 31.3377 21.34 31.3075 21.3292 31.3452C21.2895 31.4958 21.2571 31.6051 21.1885 31.3565C21.1885 31.3452 21.1669 31.349 21.1633 31.364C21.1345 31.5297 21.0732 31.4582 21.0263 31.4619C20.8424 31.4695 20.6909 31.6691 20.4998 31.6314C20.4709 31.6239 20.4349 31.6691 20.4096 31.6201C20.3555 31.5147 20.3664 31.6955 20.3303 31.6578C20.2978 31.6314 20.2726 31.703 20.2438 31.6653C20.1356 31.5222 20.0562 31.5938 19.9913 31.6653C19.93 31.7294 19.8723 31.8047 19.8002 31.7633C19.6524 31.6879 19.5406 31.7633 19.418 31.7783C19.2917 31.8047 19.1691 31.8499 19.0501 31.8988C18.9996 31.9177 18.9275 31.8725 18.9239 32.0231C18.9239 32.0533 18.8951 32.0457 18.877 32.042C18.8338 32.0307 18.7797 31.9892 18.74 32.0043C18.7039 32.0156 18.6823 32.0834 18.6535 32.1173C18.6282 32.1437 18.5922 32.1361 18.5886 32.219C18.5849 32.2792 18.5309 32.2529 18.4696 32.1964C18.3506 32.0872 18.2243 31.9742 18.1414 32.0382C18.0693 32.0947 17.9791 32.106 17.8998 32.1474C17.8673 32.1663 17.8313 32.1663 17.8205 32.2491C17.8132 32.3244 17.7483 32.3169 17.6906 32.2943C17.6005 32.2566 17.5392 32.2792 17.5175 32.3847C17.5103 32.4224 17.4851 32.4337 17.4635 32.445L17.056 32.6559C17.0235 32.6747 16.9983 32.7124 16.9261 32.637C16.9622 32.7613 16.9117 32.7425 16.8793 32.7538C16.8324 32.7689 16.7639 32.7463 16.717 32.7613C16.6593 32.7802 16.616 32.8216 16.6016 32.9158C16.5908 33.0062 16.479 32.9384 16.479 33.0589C16.479 33.0815 16.4249 33.0325 16.4141 33.0438C16.3708 33.1003 16.2482 33.0438 16.2879 33.2208C16.2879 33.2359 16.2807 33.2434 16.2662 33.2359C16.1148 33.1342 16.1184 33.2886 16.0787 33.3677C16.039 33.4581 15.8984 33.3828 15.8335 33.4318C15.7578 33.4882 15.7073 33.5824 15.6027 33.5862C15.4188 33.5862 15.3286 33.7293 15.2024 33.8122C15.069 33.895 14.9572 34.0042 14.8454 34.1172C14.7985 34.1662 14.7841 34.2566 14.7408 34.3131C14.694 34.3733 14.6291 34.4148 14.575 34.4675C14.5245 34.5165 14.474 34.5692 14.4199 34.6144C14.3947 34.637 14.4019 34.6973 14.3081 34.6408C14.2901 34.6295 14.2685 34.6408 14.2757 34.6558C14.3081 34.7839 14.2612 34.8178 14.1458 34.7876C14.1134 34.7801 14.1134 34.8178 14.0881 34.8215C14.0196 34.8328 14.0521 34.9421 14.0377 35.0023C14.0232 35.0588 13.9114 35.0249 13.9908 35.168C14.0016 35.1869 13.9872 35.2057 13.9655 35.1982C13.7059 35.0814 13.9475 35.4807 13.7095 35.3827C13.7924 35.5183 13.641 35.4279 13.6374 35.4694C13.6302 35.5259 13.6302 35.5861 13.6013 35.62C13.5725 35.6539 13.54 35.6803 13.5184 35.7217C13.4823 35.797 13.3777 35.8121 13.421 35.9552C13.4354 36.0042 13.4282 36.0569 13.3164 36.0079C13.2984 36.0004 13.2876 36.0155 13.2876 36.0268C13.2696 36.1247 13.1109 36.1247 12.9234 36.0117C12.8152 35.9439 12.689 35.846 12.5916 35.7594C12.5411 35.7142 12.5339 35.6539 12.5123 35.6049C12.4762 35.5146 12.4113 35.4053 12.4185 35.3451C12.4257 35.2697 12.487 35.2396 12.5375 35.1756V35.1831Z" fill="#1D4C5C" stroke="#1D4C5C" stroke-linejoin="round"/>
</svg>