<svg width="45" height="45" viewBox="0 0 45 45" fill="none" xmlns="http://www.w3.org/2000/svg">
<path d="M44.9851 23.6464C44.9599 23.3435 44.7832 23.0731 44.675 22.8026C44.6101 22.6439 44.5524 22.3987 44.455 22.3663C44.3829 22.341 44.3 22.3266 44.2206 22.323C44.2206 22.323 44.2206 22.3194 44.2206 22.3158C44.2206 22.3086 44.2206 22.3014 44.2206 22.2941C44.5199 22.2184 44.7363 21.9011 44.7616 21.4323C44.776 21.2303 44.9058 21.0464 44.7543 20.7868C44.6786 20.657 44.8084 20.336 44.8012 20.0944C44.794 19.9105 44.7111 19.7338 44.6606 19.5499C44.6498 19.5102 44.6389 19.4634 44.6462 19.4309C44.7616 18.9513 44.5452 18.4897 44.5019 18.0209C44.4586 17.5557 44.4118 17.0905 44.3108 16.6326C44.0548 15.5976 43.705 14.5843 43.2867 13.6034C43.1424 13.2825 43.0559 12.9219 42.753 12.6767C42.6231 12.5757 42.4753 12.2584 42.4789 12.0889C42.4825 11.8365 42.3599 11.6634 42.2553 11.4759C42.0317 11.072 41.8082 10.6681 41.5485 10.2858L41.1735 9.70526L40.7732 9.14271C40.2684 9.00568 40.3729 8.41428 40.0232 8.15464C39.9041 8.06449 39.8392 7.88418 39.6517 7.84451C39.5616 7.82648 39.3813 7.64257 39.3777 7.57406C39.3777 7.28918 39.1469 7.13051 38.9738 6.96823C38.3247 6.31192 37.708 5.60152 36.8858 5.12912C36.4026 4.86948 35.9663 4.44757 35.5227 4.09417C35.0612 3.70111 34.4878 3.57129 34.001 3.25395C33.7161 3.08447 33.4168 2.94383 33.2329 2.66616C32.2448 2.24064 31.3793 1.60597 30.3696 1.21651C30.0883 1.11193 29.8395 1.15521 29.5763 1.0939C29.259 1.01817 29.0462 0.830657 28.7757 0.711656C28.7289 0.690019 28.6459 0.668383 28.6171 0.682807C28.3755 0.812627 28.1339 0.64314 27.8958 0.599867C27.5713 0.538563 27.2359 0.488078 26.9835 0.271712C26.1613 0.387107 25.3752 0.0589525 24.5602 0.0517404C24.3619 0.0517404 24.1094 -0.038412 23.9688 0.0192855C23.7164 0.11665 23.4495 0.134681 23.1791 0.134681C22.9086 0.134681 22.6346 0.109438 22.3713 0.188772C22.1045 0.2645 21.8124 0.278924 21.5095 0.275318C21.2065 0.278924 20.8964 0.282531 20.6007 0.304167C20.4312 0.314985 20.1968 0.383501 20.1103 0.333016C19.8687 0.192378 19.6271 0.318591 19.3891 0.314985C19.1511 0.304167 18.9131 0.278924 18.6787 0.311379C17.4778 0.466441 16.2878 0.729686 15.1303 1.10472C14.8526 1.18405 14.5894 1.31387 14.3189 1.40403C14.0629 1.49057 13.8357 1.62039 13.5292 1.6276C13.302 1.6276 12.945 1.79709 12.7611 1.96658C12.588 2.13967 12.5014 2.2767 12.2598 2.21179C12.1841 2.47864 11.8884 2.51831 11.6828 2.64813C10.702 3.20707 9.67063 3.67947 8.7655 4.39709C8.53832 4.5846 8.35442 4.82261 8.15608 5.04618C7.96135 5.26976 7.74137 5.46449 7.41683 5.55104C7.36634 5.56185 7.29422 5.67004 7.26897 5.73495C7.15358 6.07031 6.83985 6.35159 6.60906 6.45256C6.29894 6.5932 6.11503 6.82038 5.9203 7.04035C5.23875 7.8373 4.62932 8.69195 4.05234 9.56102C3.16524 10.8736 2.38272 12.2656 1.78771 13.7369C1.70117 13.9605 1.60741 14.1732 1.59298 14.4473C1.57495 14.8764 1.24679 15.3236 1.3081 15.7923C1.09894 16.0267 0.994372 16.3152 0.918644 16.6145C0.846523 16.9138 0.821276 17.2276 0.73473 17.5197C0.345272 18.9152 0.381329 20.3757 0.100054 21.7965C0.0459622 22.067 0.0820311 22.3699 0.0856372 22.6584C0.0856372 22.9396 0.146939 23.2966 0.049574 23.4842C-0.119912 23.8339 0.201028 23.9602 0.182998 24.245C0.146937 24.6958 0.269549 25.161 0.323641 25.619C0.384944 26.0445 0.395757 26.5349 0.565243 26.8811C0.803245 27.303 0.821276 27.678 0.8357 28.1036C0.839306 28.1829 0.864553 28.3055 0.907827 28.3488C1.23238 28.6481 1.16747 29.1529 1.39465 29.4775C1.63987 29.8561 1.80213 30.2528 1.94998 30.6639C2.02571 30.8875 2.03293 31.1327 2.11587 31.3563C2.20242 31.5979 2.28536 31.8827 2.44042 32.0522C2.82266 32.4417 2.98493 32.9429 3.28063 33.3793C3.46815 33.675 3.57995 34.0212 3.91892 34.2231C4.07037 34.3133 4.18576 34.6342 4.25788 34.8506C4.36606 35.1787 4.71226 35.4203 4.70505 35.7773C4.92141 35.8819 5.08728 36.0442 5.23874 36.2497C5.4515 36.5526 5.72557 36.8087 5.95275 37.1044C6.15109 37.3676 6.454 37.5407 6.56218 37.8797C6.68479 38.2619 7.1644 38.197 7.35192 38.5324C7.4024 38.6225 7.56107 38.6911 7.58631 38.7704C7.72334 39.149 8.08035 39.3546 8.36884 39.6034C9.40379 40.4689 10.5361 41.2117 11.7009 41.8825C12.0362 42.0844 12.3788 42.2647 12.7142 42.4702C13.0532 42.665 13.4029 42.8417 13.7491 43.0256C13.7744 43.04 13.8176 43.0472 13.8249 43.0616C14.052 43.4042 14.51 43.415 14.8454 43.5954C15.188 43.7648 15.5017 43.9812 15.8948 44.0822C16.4068 44.1976 16.9009 44.3815 17.4201 44.4752C17.9106 44.5834 18.3938 44.6952 18.9167 44.67C19.4035 44.6411 19.9444 44.807 20.4637 44.8358C20.6728 44.8467 20.8892 44.7565 21.0911 44.7709C21.3255 44.7962 21.5527 44.8935 21.7943 44.9152C22.0395 44.9368 22.2703 44.9188 22.5192 44.8358C22.6526 44.7854 22.9807 45.0053 23.2079 44.9152C23.72 44.7168 24.2537 44.7673 24.7802 44.706C25.2345 44.6339 25.6961 44.5978 26.1505 44.5221C26.2911 44.4969 26.4859 44.5077 26.5688 44.4392C26.9366 44.1435 27.4126 44.1795 27.8345 44.0569C28.3033 43.9307 28.7721 43.7937 29.2445 43.6783C29.3599 43.6422 29.5114 43.6999 29.6087 43.653C30.4093 43.2528 30.3949 43.2528 31.4334 42.9787C31.6029 42.9282 31.758 42.7876 31.9166 42.6866C31.9816 42.6433 32.0537 42.5532 32.1042 42.5532C32.3999 42.5604 32.6487 42.4162 32.8975 42.2791C33.1463 42.1421 33.3771 41.9834 33.6295 41.9149C34.2318 41.7707 34.7005 41.4028 35.1802 41.0783C36.6839 40.0037 38.2562 38.9074 39.2911 37.3424C40.0917 36.5382 40.6939 35.5826 41.444 34.7099C42.1003 33.9563 42.5114 32.9862 42.9621 32.0811C42.9874 32.027 43.0342 31.9621 43.0306 31.926C42.9729 31.4825 43.3372 31.1507 43.4021 30.7468C43.4742 30.3357 43.5824 29.9535 43.7158 29.5568L43.9249 28.969L44.1052 28.3704C44.2315 27.9737 44.3144 27.5626 44.3829 27.1552C44.5163 26.3438 44.9166 25.6154 44.9022 24.8689C44.9635 24.4073 45.0212 24.0215 44.9923 23.6609L44.9851 23.6464Z" fill="#35BA95"/>
<path d="M20.1175 15.2408C20.1175 15.2408 20.1103 15.2336 20.1031 15.23C20.0887 15.2228 20.0634 15.2192 20.0598 15.2084C20.0201 15.1507 20.0742 15.0569 19.9516 15.0281C19.9769 14.9812 19.8471 14.9956 19.9156 14.9307C19.9228 14.9235 19.9228 14.9127 19.9084 14.9163C19.8182 14.9307 19.8543 14.8874 19.8326 14.873C19.8002 14.855 19.8326 14.8009 19.7497 14.8081C19.7028 14.8117 19.7353 14.7684 19.674 14.7793C19.6559 14.7829 19.7028 14.7396 19.6992 14.7252C19.6595 14.617 19.5477 14.5701 19.5405 14.4331C19.5333 14.3357 19.4071 14.3501 19.4179 14.2275C19.4179 14.2059 19.3675 14.2419 19.3566 14.2347C19.2989 14.1806 19.1799 14.2131 19.1403 14.141C19.1258 14.1193 19.1006 14.1085 19.0754 14.1013C19.0681 14.1013 19.0393 14.1266 19.0393 14.1157C19.0357 14.0653 19.0213 14.0256 18.9527 14.0869C18.9311 14.1049 18.9167 14.1013 18.9239 14.0725C18.9383 13.9931 18.8987 14.0148 18.8806 13.9967C18.859 13.9787 18.8301 13.9715 18.8013 13.9607C18.8229 13.8272 18.74 13.9607 18.722 13.9354C18.7003 13.9066 18.6643 13.921 18.6282 13.9462C18.5849 13.9751 18.5525 13.9462 18.52 13.9246C18.4876 13.903 18.4407 13.9426 18.4046 13.9571C18.3505 13.9823 18.3109 13.8849 18.2532 13.9931C18.2496 14.0003 18.2423 14.0003 18.2423 13.9859C18.2351 13.9066 18.2171 13.939 18.2063 13.939C18.1558 13.9462 18.1017 13.8922 18.0548 13.9859C18.044 14.0076 18.0296 13.9895 18.0188 13.9895C18.0079 13.9895 17.9935 13.9967 17.9827 13.9895C17.9683 13.9823 17.9503 13.9354 17.943 13.9643C17.9358 14.0039 17.9214 13.9895 17.9106 13.9967C17.907 13.9967 17.8962 13.9715 17.8889 13.9643C17.8817 13.9571 17.8709 13.9462 17.8637 13.9535C17.8493 13.9643 17.8493 14.0508 17.8276 14.0076C17.7988 13.9499 17.806 14.04 17.7844 14.0256C17.7663 14.0112 17.7519 14.0256 17.7375 14.0328C17.7267 14.0328 17.7195 14.0436 17.705 14.04C17.6906 14.0328 17.669 13.9967 17.6582 14.0039C17.6401 14.0112 17.6149 14.0039 17.6077 14.0436C17.6005 14.0761 17.568 14.0364 17.5464 14.04C17.5392 14.04 17.5428 14.0689 17.5392 14.0833C17.5392 14.0905 17.5356 14.1013 17.5283 14.0905C17.4851 14.0148 17.4851 14.0761 17.467 14.0653C17.4238 14.0508 17.431 14.141 17.3552 14.058C17.348 14.0472 17.3372 14.0508 17.3408 14.0653C17.3661 14.1518 17.3264 14.1193 17.3156 14.1338C17.2831 14.1806 17.1966 14.1446 17.2074 14.2564C17.2074 14.2708 17.1894 14.2564 17.1785 14.2564C17.1677 14.2528 17.1533 14.2419 17.1425 14.2419C17.0956 14.2347 17.1425 14.3501 17.0595 14.3033C17.0559 14.3033 17.0523 14.3069 17.0595 14.3177C17.0956 14.379 17.0595 14.3537 17.0595 14.3718C17.0595 14.415 16.9838 14.3646 16.9622 14.3862C16.8865 14.4547 16.8179 14.5304 16.753 14.6098C16.7494 14.617 16.735 14.6242 16.753 14.6422C16.7783 14.6747 16.7602 14.6675 16.7386 14.6603C16.6196 14.6314 16.598 14.6855 16.6088 14.7468C16.616 14.7937 16.634 14.8406 16.5475 14.8333C16.5258 14.8333 16.515 14.8442 16.5331 14.8658C16.6124 14.9487 16.5186 14.9487 16.5222 14.9956C16.5222 15.0028 16.4609 14.9956 16.4718 15.0028C16.5511 15.0533 16.4898 15.0497 16.4934 15.0714C16.4934 15.093 16.4862 15.1074 16.4754 15.1218C16.4645 15.1363 16.4754 15.1615 16.4285 15.1615C16.3527 15.1615 16.4681 15.2048 16.4465 15.2156V15.2192C16.3275 15.2084 16.4285 15.2517 16.4501 15.2769C16.4573 15.2841 16.4862 15.2985 16.4754 15.2985C16.3996 15.2985 16.3528 15.3166 16.4141 15.3526C16.3023 15.3562 16.36 15.3959 16.3527 15.4211C16.3311 15.4897 16.3347 15.5618 16.3311 15.6303C16.3239 15.7024 16.3311 15.7709 16.3383 15.8431C16.3527 15.9116 16.3888 15.9765 16.4213 16.0378C16.4249 16.045 16.4573 16.0486 16.4609 16.0558C16.4682 16.0738 16.4718 16.0919 16.4681 16.1099C16.4681 16.1207 16.4285 16.146 16.4501 16.146C16.5367 16.146 16.4934 16.1856 16.5186 16.2073C16.5367 16.2217 16.5078 16.2578 16.5871 16.2469C16.6088 16.2469 16.6124 16.2542 16.5944 16.2686C16.5258 16.3118 16.5655 16.3191 16.5655 16.3335C16.5691 16.3587 16.5872 16.3768 16.5944 16.402C16.6016 16.4272 16.6737 16.4164 16.6809 16.4417C16.7134 16.5282 16.7747 16.6003 16.8215 16.6761C16.8396 16.7121 16.9081 16.7013 16.8576 16.7951C16.8504 16.8059 16.8756 16.7951 16.8828 16.7951C16.8937 16.7951 16.9153 16.7842 16.9081 16.7915C16.8576 16.8528 16.8973 16.8419 16.9081 16.8528C16.9442 16.8996 16.9946 16.9321 17.0343 16.9754C17.0487 16.9898 17.0848 16.979 17.0523 17.0511C17.0451 17.0727 17.0596 17.0763 17.0812 17.0583C17.1209 17.0222 17.1172 17.0439 17.1281 17.0475C17.1425 17.0547 17.1605 17.0619 17.1677 17.0799C17.1785 17.098 17.1677 17.1413 17.1858 17.1485C17.2398 17.1629 17.2723 17.2098 17.3408 17.1953C17.4238 17.1773 17.4706 17.2386 17.5319 17.2711C17.5464 17.2783 17.55 17.3035 17.5824 17.253C17.5896 17.2386 17.6005 17.235 17.6005 17.2494C17.5896 17.3143 17.6113 17.2855 17.6221 17.2963C17.6618 17.3396 17.7267 17.2747 17.7736 17.2819C17.8709 17.2963 17.9683 17.3107 18.0693 17.3179C18.0873 17.3179 18.1017 17.2999 18.1197 17.3612C18.1342 17.4045 18.1594 17.3973 18.1738 17.354C18.1883 17.3107 18.1991 17.3071 18.2135 17.3143C18.2315 17.3252 18.2568 17.3973 18.2676 17.3071C18.2676 17.2999 18.2748 17.2963 18.2748 17.3071C18.3 17.3973 18.3145 17.3468 18.3325 17.3504C18.3613 17.3504 18.3902 17.3396 18.419 17.3396C18.4371 17.3396 18.4443 17.3107 18.4767 17.372C18.4948 17.4117 18.52 17.4009 18.52 17.3576C18.52 17.3035 18.5344 17.3107 18.5489 17.3071C18.6931 17.2675 18.8301 17.2098 18.96 17.134C18.9708 17.1268 18.9888 17.134 19.0068 17.1413C19.0429 17.1557 19.0501 17.116 19.0645 17.098C19.0645 17.0944 19.0609 17.0691 19.0681 17.0763C19.1294 17.1304 19.1114 17.0691 19.1403 17.0763C19.1655 17.0763 19.2016 17.0908 19.2196 17.0799C19.2412 17.0655 19.2881 17.0799 19.2484 16.9898C19.2845 16.9573 19.3242 16.9249 19.3566 16.8852C19.3638 16.878 19.3747 16.8744 19.4143 16.8996C19.4287 16.9069 19.436 16.8996 19.4215 16.8816C19.3783 16.8275 19.4071 16.8383 19.4107 16.8239C19.4251 16.7734 19.5153 16.7806 19.4612 16.6797C19.4576 16.6725 19.4828 16.6797 19.4937 16.6797C19.5009 16.6797 19.5189 16.6797 19.5081 16.6725C19.4612 16.6184 19.4792 16.6039 19.5189 16.6148C19.573 16.6292 19.573 16.6112 19.5766 16.5931C19.591 16.5462 19.6271 16.5102 19.6163 16.4525C19.6018 16.3912 19.6343 16.3479 19.7064 16.3227C19.7749 16.2974 19.7497 16.2289 19.7713 16.182C19.7749 16.1712 19.7317 16.146 19.7353 16.1351C19.7353 16.0702 19.7641 16.0125 19.7713 15.9332C19.7569 15.8719 19.829 15.7962 19.7425 15.7204C19.7172 15.6988 19.6884 15.688 19.6271 15.6808C19.6271 15.6808 19.6271 15.6772 19.6271 15.6736C19.6415 15.6736 19.6559 15.6736 19.6812 15.6736C19.9084 15.6736 20.0526 15.6375 20.0057 15.5942C19.9985 15.587 19.9841 15.5762 20.0057 15.569C20.0706 15.5474 20.0454 15.5257 20.0526 15.5041C20.0634 15.4824 20.0923 15.4608 20.0959 15.4392C20.1139 15.3707 20.0238 15.3238 20.1175 15.2408Z" fill="#1D4C5C"/>
<path d="M28.6532 15.2408C28.6532 15.2408 28.646 15.2336 28.6387 15.23C28.6243 15.2228 28.5991 15.2192 28.5955 15.2084C28.5558 15.1507 28.6099 15.0569 28.4873 15.0281C28.5125 14.9812 28.3827 14.9956 28.4512 14.9307C28.4584 14.9235 28.4584 14.9127 28.444 14.9163C28.3502 14.9307 28.3899 14.8874 28.3683 14.873C28.3358 14.855 28.3683 14.8009 28.2853 14.8081C28.2385 14.8117 28.2709 14.7684 28.2096 14.7793C28.1916 14.7829 28.2385 14.7396 28.2349 14.7252C28.1952 14.617 28.0834 14.5701 28.0762 14.4331C28.069 14.3357 27.9428 14.3501 27.9536 14.2275C27.9536 14.2059 27.9031 14.2419 27.8923 14.2347C27.8346 14.1806 27.7156 14.2131 27.6759 14.141C27.6615 14.1193 27.6362 14.1085 27.611 14.1013C27.6038 14.1013 27.5749 14.1266 27.5749 14.1157C27.5713 14.0653 27.5569 14.0256 27.4884 14.0869C27.4668 14.1049 27.4523 14.1013 27.4595 14.0725C27.474 13.9931 27.4343 14.0148 27.4163 13.9967C27.3946 13.9787 27.3658 13.9715 27.3369 13.9607C27.3586 13.8272 27.2756 13.9607 27.2576 13.9354C27.236 13.9066 27.1999 13.921 27.1638 13.9462C27.1206 13.9751 27.0881 13.9462 27.0557 13.9246C27.0232 13.903 26.9763 13.9426 26.9403 13.9571C26.8862 13.9823 26.8465 13.8849 26.7888 13.9931C26.7852 14.0003 26.778 14.0003 26.7744 13.9859C26.7672 13.9066 26.7491 13.939 26.7383 13.939C26.6878 13.9462 26.6337 13.8922 26.5869 13.9859C26.5761 14.0076 26.5616 13.9895 26.5508 13.9895C26.54 13.9895 26.5256 13.9967 26.5147 13.9895C26.5003 13.9823 26.4823 13.9354 26.4751 13.9643C26.4679 14.0039 26.4534 13.9895 26.4426 13.9967C26.439 13.9967 26.4282 13.9715 26.421 13.9643C26.4138 13.9571 26.403 13.9462 26.3957 13.9535C26.3813 13.9643 26.3813 14.0508 26.3597 14.0076C26.3308 13.9499 26.338 14.04 26.3164 14.0256C26.2984 14.0112 26.284 14.0256 26.2695 14.0328C26.2587 14.0328 26.2515 14.0436 26.2371 14.04C26.2227 14.0328 26.201 13.9967 26.1902 14.0039C26.1722 14.0112 26.1469 14.0039 26.1397 14.0436C26.1325 14.0761 26.1 14.0364 26.0784 14.04C26.0712 14.04 26.0748 14.0689 26.0712 14.0833C26.0712 14.0905 26.0676 14.1013 26.0604 14.0905C26.0171 14.0148 26.0171 14.0761 25.9991 14.0653C25.9558 14.0508 25.963 14.141 25.8873 14.058C25.8801 14.0472 25.8693 14.0508 25.8729 14.0653C25.8981 14.1518 25.8584 14.1193 25.8476 14.1338C25.8152 14.1806 25.7286 14.1446 25.7394 14.2564C25.7394 14.2708 25.7214 14.2564 25.7106 14.2564C25.6998 14.2528 25.6853 14.2419 25.6745 14.2419C25.6276 14.2347 25.6745 14.3501 25.5916 14.3033C25.588 14.3033 25.5844 14.3069 25.5916 14.3177C25.6276 14.379 25.5916 14.3537 25.5916 14.3718C25.5916 14.415 25.5159 14.3646 25.4942 14.3862C25.4185 14.4547 25.35 14.5304 25.2851 14.6098C25.2815 14.617 25.267 14.6242 25.2851 14.6422C25.3103 14.6747 25.2923 14.6675 25.2706 14.6603C25.1516 14.6314 25.13 14.6855 25.1408 14.7468C25.148 14.7937 25.1661 14.8406 25.0795 14.8333C25.0579 14.8333 25.0471 14.8442 25.0651 14.8658C25.1444 14.9487 25.0507 14.9487 25.0543 14.9956C25.0543 15.0028 24.993 14.9956 25.0038 15.0028C25.0831 15.0533 25.0218 15.0497 25.0254 15.0714C25.0254 15.093 25.0182 15.1074 25.0074 15.1218C24.9966 15.1363 25.0074 15.1615 24.9605 15.1615C24.8848 15.1615 25.0002 15.2048 24.9786 15.2156V15.2192C24.8596 15.2084 24.9605 15.2517 24.9822 15.2769C24.9894 15.2841 25.0182 15.2985 25.0074 15.2985C24.9317 15.2985 24.8848 15.3166 24.9461 15.3526C24.8343 15.3562 24.892 15.3959 24.8848 15.4211C24.8632 15.4897 24.8668 15.5618 24.8632 15.6303C24.8559 15.7024 24.8632 15.7709 24.8704 15.8431C24.8848 15.9116 24.9209 15.9765 24.9533 16.0378C24.9569 16.045 24.9894 16.0486 24.993 16.0558C25.0002 16.0738 25.0038 16.0919 25.0002 16.1099C25.0002 16.1207 24.9605 16.146 24.9822 16.146C25.0687 16.146 25.0254 16.1856 25.0507 16.2073C25.0687 16.2217 25.0399 16.2578 25.1192 16.2469C25.1408 16.2469 25.1444 16.2542 25.1264 16.2686C25.0579 16.3118 25.0976 16.3191 25.0976 16.3335C25.1012 16.3587 25.1192 16.3768 25.1264 16.402C25.1336 16.4272 25.2057 16.4164 25.2129 16.4417C25.2454 16.5282 25.3067 16.6003 25.3536 16.6761C25.3716 16.7121 25.4401 16.7013 25.3896 16.7951C25.3824 16.8059 25.4077 16.7951 25.4149 16.7951C25.4257 16.7951 25.4473 16.7842 25.4401 16.7915C25.3896 16.8528 25.4293 16.8419 25.4401 16.8528C25.4762 16.8996 25.5267 16.9321 25.5663 16.9754C25.5808 16.9898 25.6168 16.979 25.5844 17.0511C25.5772 17.0727 25.5916 17.0763 25.6132 17.0583C25.6529 17.0222 25.6493 17.0439 25.6601 17.0475C25.6745 17.0547 25.6926 17.0619 25.6998 17.0799C25.7106 17.098 25.6998 17.1413 25.7178 17.1485C25.7719 17.1629 25.8043 17.2098 25.8729 17.1953C25.9558 17.1773 26.0027 17.2386 26.064 17.2711C26.0784 17.2783 26.082 17.3035 26.1145 17.253C26.1217 17.2386 26.1325 17.235 26.1325 17.2494C26.1217 17.3143 26.1433 17.2855 26.1541 17.2963C26.1938 17.3396 26.2587 17.2747 26.3056 17.2819C26.403 17.2963 26.5003 17.3107 26.6013 17.3179C26.6193 17.3179 26.6337 17.2999 26.6518 17.3612C26.6662 17.4045 26.6914 17.3973 26.7059 17.354C26.7203 17.3107 26.7311 17.3071 26.7455 17.3143C26.7636 17.3252 26.7888 17.3973 26.7996 17.3071C26.7996 17.2999 26.8068 17.2963 26.8068 17.3071C26.8321 17.3973 26.8465 17.3468 26.8645 17.3504C26.8934 17.3504 26.9222 17.3396 26.9511 17.3396C26.9691 17.3396 26.9763 17.3107 27.0088 17.372C27.0268 17.4117 27.0521 17.4009 27.0521 17.3576C27.0521 17.3035 27.0665 17.3107 27.0809 17.3071C27.2251 17.2675 27.3622 17.2098 27.492 17.134C27.5028 17.1268 27.5209 17.134 27.5389 17.1413C27.5749 17.1557 27.5821 17.116 27.5966 17.098C27.5966 17.0944 27.593 17.0691 27.6002 17.0763C27.6615 17.1304 27.6435 17.0691 27.6723 17.0763C27.6976 17.0763 27.7336 17.0908 27.7516 17.0799C27.7733 17.0655 27.8202 17.0799 27.7805 16.9898C27.8165 16.9573 27.8562 16.9249 27.8887 16.8852C27.8959 16.878 27.9067 16.8744 27.9464 16.8996C27.9608 16.9069 27.968 16.8996 27.9536 16.8816C27.9103 16.8275 27.9392 16.8383 27.9428 16.8239C27.9572 16.7734 28.0473 16.7806 27.9932 16.6797C27.9896 16.6725 28.0149 16.6797 28.0257 16.6797C28.0329 16.6797 28.0509 16.6797 28.0401 16.6725C27.9932 16.6184 28.0113 16.6039 28.0509 16.6148C28.105 16.6292 28.105 16.6112 28.1086 16.5931C28.1231 16.5462 28.1591 16.5102 28.1483 16.4525C28.1339 16.3912 28.1663 16.3479 28.2385 16.3227C28.307 16.2974 28.2817 16.2289 28.3034 16.182C28.307 16.1712 28.2637 16.146 28.2673 16.1351C28.2673 16.0702 28.2962 16.0125 28.3034 15.9332C28.289 15.8719 28.3611 15.7962 28.2745 15.7204C28.2493 15.6988 28.2204 15.688 28.1591 15.6808C28.1591 15.6808 28.1591 15.6772 28.1591 15.6736C28.1735 15.6736 28.188 15.6736 28.2132 15.6736C28.4404 15.6736 28.5846 15.6375 28.5378 15.5942C28.5306 15.587 28.5161 15.5762 28.5378 15.569C28.6027 15.5474 28.5774 15.5257 28.5847 15.5041C28.5955 15.4824 28.6243 15.4608 28.6279 15.4392C28.646 15.3707 28.5558 15.3238 28.6496 15.2408H28.6532Z" fill="#1D4C5C"/>
<path d="M34.9313 25.5866V25.5614C34.9313 25.5614 34.9169 25.5614 34.9097 25.5614H34.8592H34.7546H34.5455C34.4445 25.5614 34.3904 25.5326 34.3399 25.464C34.2894 25.3847 34.1741 25.2296 33.9144 25.5037C33.8856 25.5362 33.8098 25.5614 33.7774 25.5542C33.6223 25.5289 33.4492 25.547 33.2833 25.5758L32.847 25.6624C32.7568 25.6768 32.6667 25.6624 32.5765 25.6624H32.3061C32.2231 25.6624 32.1438 25.666 32.0609 25.6624C31.9743 25.6588 31.8625 25.7129 31.8012 25.6191C31.6967 25.4532 31.6462 25.7742 31.5596 25.6696C31.5344 25.6407 31.4875 25.6912 31.4659 25.6552C31.3324 25.446 31.181 25.6119 31.0404 25.5578C30.8492 25.8715 30.6329 25.4676 30.4381 25.666C30.3768 25.4893 30.2903 25.5758 30.2109 25.5614C29.89 25.5037 29.5655 25.6768 29.2481 25.4568C29.2193 25.4352 29.1616 25.4316 29.1544 25.464C29.1039 25.6732 29.039 25.3306 28.9777 25.5037C28.92 25.6696 28.8514 25.464 28.7901 25.4604C28.5197 25.446 28.2492 25.4496 27.9788 25.4604C27.9427 25.4604 27.8922 25.5758 27.8778 25.5542C27.7516 25.3486 27.5965 25.4099 27.4811 25.4785C27.2648 25.6047 27.0484 25.5398 26.8356 25.5614C26.6481 25.5794 26.457 25.5542 26.2695 25.5686C26.1613 25.5758 26.0531 25.5217 25.9413 25.6552C25.88 25.7309 25.7682 25.6588 25.6889 25.6047C25.6312 25.565 25.5915 25.5903 25.5374 25.6155C25.3535 25.7056 25.1696 25.9292 24.9713 25.6804C24.9244 25.6191 24.8234 25.6227 24.7838 25.6912C24.708 25.8174 24.6287 25.7597 24.553 25.7778C24.4953 25.7922 24.4232 25.7417 24.3871 25.803C24.3042 25.9545 24.214 25.8715 24.1311 25.8787C24.0734 25.8823 23.9868 25.7453 23.9616 25.7922C23.8931 25.9184 23.8534 25.7633 23.7993 25.7742C23.5433 25.8319 23.2836 25.6732 23.0312 25.8787C22.9735 25.9256 22.8834 25.94 22.8401 25.8751C22.7139 25.6948 22.5768 26.041 22.4614 25.8066C22.1778 25.8787 21.9241 25.8439 21.7006 25.702C21.6717 25.684 21.6393 25.6876 21.6068 25.6732C21.4662 25.6047 21.3219 25.8427 21.1777 25.6768C21.1669 25.6624 21.138 25.7201 21.1164 25.7309C21.0695 25.7525 21.0226 25.7886 20.9793 25.7742C20.9072 25.7489 20.8567 25.5903 20.763 25.7309C20.7197 25.7958 20.6223 25.6804 20.5502 25.6768C20.4889 25.6768 20.424 25.6191 20.3663 25.7525C20.3447 25.7994 20.2834 25.803 20.2509 25.7742C20.1139 25.6552 19.9841 25.6011 19.847 25.7742C19.829 25.7994 19.7857 25.7994 19.7749 25.7742C19.692 25.583 19.5874 25.6696 19.4972 25.6768C19.0681 25.7129 18.6426 25.5794 18.2135 25.7669C18.0115 25.8571 17.8024 25.7093 17.5968 25.6768C17.0956 25.5975 16.5907 25.7886 16.0931 25.5614C15.9272 25.6516 15.7613 25.3559 15.5918 25.5614C15.581 25.5758 15.5522 25.5794 15.545 25.5614C15.4656 25.3631 15.361 25.4568 15.2709 25.4676C15.188 25.4749 15.1158 25.3018 15.0509 25.3703C14.9932 25.428 14.9716 25.4676 14.9103 25.3811C14.8634 25.3162 14.766 25.3018 14.7228 25.3631C14.6398 25.4857 14.5533 25.4532 14.4703 25.4568C14.4054 25.4568 14.3513 25.4785 14.2973 25.5866C14.254 25.6696 14.1927 25.8607 14.1097 25.6732C13.9222 25.6732 13.7275 25.6083 13.5472 25.6948C13.5147 25.7092 13.4931 25.7237 13.4498 25.7381C13.4029 25.7525 13.3561 25.7633 13.3092 25.7706C13.219 25.7886 13.1289 25.7886 13.0387 25.7633C12.6925 25.6588 12.285 25.6155 12.0939 25.7778C12.0651 25.7994 11.9966 25.8102 11.9425 25.7778C11.8271 25.702 11.7477 25.6804 11.6864 25.6768C11.654 25.6768 11.6287 25.6768 11.5999 25.6768H11.5566C11.5566 25.6768 11.5566 25.7056 11.5566 25.7201C11.535 26.1059 11.6179 26.5423 11.5314 26.9389C11.4917 27.1301 11.4845 27.3572 11.4989 27.5808C11.5278 27.7972 11.571 27.8837 11.6251 28.0172C11.6973 28.1866 11.8271 28.3273 11.6864 28.5256C11.7838 28.8177 11.7009 29.1675 11.993 29.4055C12.029 29.4343 12.0615 29.4993 12.0218 29.5281C11.8307 29.6832 12.0218 29.7337 12.1119 29.7841C12.1805 29.8238 12.2382 29.8563 12.2454 29.914C12.267 30.0546 12.267 30.2024 12.2959 30.3431C12.3175 30.4549 12.3572 30.5631 12.4149 30.664C12.469 30.7578 12.5555 30.8371 12.6204 30.9237C12.6673 30.985 12.6889 31.0643 12.725 31.1328L12.826 31.342C12.8548 31.4033 12.8764 31.4718 12.9197 31.5295C12.963 31.5908 12.9269 31.7026 13.0964 31.6773C13.0063 31.7927 13.0676 31.8504 13.1072 31.9081C13.1505 31.973 13.1902 32.038 13.2587 32.0812C13.3128 32.1209 13.4282 32.1173 13.4678 32.1642C13.5111 32.2146 13.5003 32.3048 13.5147 32.3733C13.5147 32.3805 13.5292 32.3877 13.54 32.3841C13.6914 32.3481 13.6734 32.4454 13.7095 32.4995C13.7816 32.5969 13.8429 32.6979 13.9042 32.7988C13.9583 32.8998 13.9547 33.0404 14.0268 33.1234C14.1819 33.2965 14.2936 33.502 14.4379 33.6859C14.5893 33.8626 14.7552 34.0285 14.9788 34.1331C15.0978 34.1872 15.2348 34.2521 15.1807 34.4757C15.5089 34.4612 15.5522 34.7606 15.7649 34.8687C15.8154 34.894 15.8551 34.9264 15.9308 34.9264C16.0318 34.9264 16.1183 34.9949 16.1328 35.0959C16.1436 35.1897 16.1868 35.233 16.2409 35.2618C16.3852 35.3411 16.4537 35.5359 16.6917 35.4746C16.7205 35.4673 16.7566 35.489 16.7494 35.5178C16.7061 35.7234 16.8504 35.709 16.9261 35.7667C17.0667 35.8748 17.2326 35.9542 17.3805 36.0515C17.4201 36.0768 17.4418 36.1345 17.4634 36.185C17.4959 36.2643 17.5463 36.304 17.6185 36.3328C17.9683 36.4771 18.2928 36.6826 18.6823 36.7403C19.0032 36.7764 19.2484 37.0468 19.6054 36.9639C19.7965 37.0757 20.0201 37.0865 20.2401 37.0973C20.4601 37.1081 20.6728 37.1189 20.8748 37.2055C21.0046 37.2632 21.1524 37.2668 21.2931 37.2776C21.3544 37.2776 21.4553 37.1694 21.477 37.2235C21.5383 37.3786 21.6393 37.3101 21.7222 37.3497C21.8196 37.3966 21.9205 37.3894 22.0179 37.4795C22.1477 37.5913 22.3244 37.4795 22.4651 37.631C22.4831 37.6526 22.5264 37.6599 22.5408 37.631C22.6273 37.4759 22.7175 37.5336 22.804 37.5481C22.9158 37.5661 23.0096 37.494 23.0997 37.3786C23.1322 37.3353 23.1646 37.3173 23.1791 37.2524C23.1791 37.2524 23.1863 37.2524 23.1899 37.2524C23.2007 37.2524 23.2115 37.2524 23.2223 37.2524C23.2007 37.3317 23.1935 37.4435 23.1899 37.5985C23.1899 38.0926 23.244 38.1972 23.5 38.1863C23.6695 38.1791 23.839 38.1395 24.0049 38.1683C24.1852 38.1936 24.333 38.0421 24.5025 38.006C24.6756 37.9772 24.8775 38.0529 25.0146 37.8329C25.029 37.8077 25.0759 37.7969 25.0903 37.8221C25.1877 37.988 25.267 37.8942 25.3499 37.8798C25.5519 37.8546 25.7466 37.7861 25.9305 37.6671C26.1469 37.5192 26.4137 37.5228 26.6589 37.4543C26.6842 37.4471 26.7094 37.4363 26.7347 37.4399C26.9583 37.4687 26.9546 37.4543 27.1205 37.3065C27.1999 37.2379 27.2864 37.1875 27.4162 37.2343C27.4992 37.2668 27.6218 37.2704 27.6398 37.1911C27.6759 37.0324 27.7768 37.0468 27.8562 36.9999C28.0184 36.9098 28.1807 36.8268 28.3538 36.7619C28.5017 36.7006 28.6134 36.5636 28.8262 36.6285C28.8911 36.6501 28.9741 36.6033 28.9741 36.5311C28.9741 36.3328 29.1544 36.4157 29.176 36.2895C29.2012 36.1417 29.2986 36.1164 29.3779 36.0551C29.5005 35.965 29.6736 35.9578 29.8035 35.882C30.1028 35.7162 30.3624 35.4926 30.6257 35.2762C30.6437 35.2582 30.6725 35.2474 30.6833 35.2221C30.8492 34.8759 31.0331 34.674 31.3397 34.6452C31.4623 34.6379 31.5308 34.5839 31.5957 34.5153L31.8625 34.2232L32.1294 33.9275C32.2231 33.8338 32.2989 33.722 32.3782 33.6174L32.6162 33.3001L32.8542 32.9827C32.9336 32.8782 32.9588 32.7303 33.0778 32.6546C33.1896 32.5789 33.1643 32.431 33.2509 32.3445C33.3014 32.294 33.305 32.2038 33.3843 32.1858C33.5827 32.1425 33.5682 31.973 33.6476 31.8613C33.6692 31.8324 33.5827 31.7278 33.6115 31.7206C33.8495 31.6665 33.8387 31.4862 33.8134 31.3023C33.8026 31.2338 33.8675 31.1725 33.9397 31.14C34.0334 31.0968 34.0731 31.0391 34.0334 30.9453C34.019 30.9092 34.0118 30.8515 34.0334 30.8515C34.174 30.8443 34.1416 30.7866 34.0695 30.7037C34.0442 30.6712 34.0623 30.6099 34.1019 30.6099C34.3003 30.5991 34.2534 30.4729 34.2858 30.3864C34.3507 30.2169 34.4229 30.0474 34.4842 29.8743C34.531 29.6976 34.5743 29.5209 34.6068 29.3406C34.6392 29.1603 34.715 28.9872 34.7654 28.8105C34.8087 28.6302 34.8123 28.4427 34.733 28.2479C34.8556 28.1939 34.751 28.1001 34.7654 28.028C34.7835 27.9342 34.8051 27.8368 34.8087 27.7395C34.8195 27.6241 34.8484 27.4294 34.8556 27.2563C34.8664 27.0796 34.8556 26.9029 34.7727 26.773C34.7366 26.719 34.7294 26.6036 34.7871 26.5314C34.971 26.2898 34.8881 26.1564 34.9097 25.9941C34.9241 25.8499 34.9349 25.7093 34.9385 25.5722L34.9313 25.5866Z" fill="#1D4C5C"/>
</svg>