<svg width="45" height="45" viewBox="0 0 45 45" fill="none" xmlns="http://www.w3.org/2000/svg">
<path d="M44.9851 23.6464C44.9599 23.3435 44.7832 23.0731 44.675 22.8026C44.6101 22.6439 44.5524 22.3987 44.455 22.3663C44.3829 22.341 44.3 22.3266 44.2206 22.323C44.2206 22.323 44.2206 22.3194 44.2206 22.3158C44.2206 22.3086 44.2206 22.3014 44.2206 22.2941C44.5199 22.2184 44.7363 21.9011 44.7616 21.4323C44.776 21.2303 44.9058 21.0464 44.7543 20.7868C44.6786 20.657 44.8084 20.336 44.8012 20.0944C44.794 19.9105 44.7111 19.7338 44.6606 19.5499C44.6498 19.5102 44.639 19.4634 44.6462 19.4309C44.7616 18.9513 44.5452 18.4897 44.5019 18.0209C44.4586 17.5557 44.4118 17.0905 44.3108 16.6326C44.0548 15.5976 43.705 14.5843 43.2867 13.6034C43.1424 13.2825 43.0559 12.9219 42.753 12.6767C42.6231 12.5757 42.4753 12.2584 42.4789 12.0889C42.4825 11.8365 42.3599 11.6634 42.2553 11.4759C42.0317 11.072 41.8082 10.6681 41.5485 10.2858L41.1735 9.70526L40.7732 9.14271C40.2684 9.00568 40.3729 8.41428 40.0232 8.15464C39.9041 8.06449 39.8392 7.88418 39.6517 7.84451C39.5616 7.82648 39.3813 7.64257 39.3777 7.57406C39.3777 7.28918 39.1469 7.13051 38.9738 6.96823C38.3247 6.31192 37.708 5.60152 36.8858 5.12912C36.4026 4.86948 35.9663 4.44757 35.5227 4.09417C35.0612 3.70111 34.4878 3.57129 34.001 3.25395C33.7161 3.08447 33.4168 2.94383 33.2329 2.66616C32.2448 2.24064 31.3793 1.60597 30.3696 1.21651C30.0884 1.11193 29.8395 1.15521 29.5763 1.0939C29.259 1.01817 29.0462 0.830657 28.7757 0.711656C28.7289 0.690019 28.6459 0.668383 28.6171 0.682807C28.3755 0.812627 28.1339 0.64314 27.8958 0.599867C27.5713 0.538563 27.2359 0.488078 26.9835 0.271712C26.1613 0.387107 25.3752 0.0589525 24.5602 0.0517404C24.3619 0.0517404 24.1094 -0.038412 23.9688 0.0192855C23.7164 0.11665 23.4495 0.134681 23.1791 0.134681C22.9086 0.134681 22.6346 0.109438 22.3713 0.188772C22.1045 0.2645 21.8124 0.278924 21.5095 0.275318C21.2065 0.278924 20.8964 0.282531 20.6007 0.304167C20.4312 0.314985 20.1968 0.383501 20.1103 0.333016C19.8687 0.192378 19.6271 0.318591 19.3891 0.314985C19.1511 0.304167 18.9131 0.278924 18.6787 0.311379C17.4778 0.466441 16.2878 0.729686 15.1303 1.10472C14.8526 1.18405 14.5894 1.31387 14.3189 1.40403C14.0629 1.49057 13.8357 1.62039 13.5292 1.6276C13.302 1.6276 12.945 1.79709 12.7611 1.96658C12.588 2.13967 12.5014 2.2767 12.2598 2.21179C12.1841 2.47864 11.8884 2.51831 11.6828 2.64813C10.702 3.20707 9.67064 3.67947 8.76551 4.39709C8.53832 4.5846 8.35442 4.82261 8.15608 5.04618C7.96135 5.26976 7.74138 5.46449 7.41683 5.55104C7.36634 5.56185 7.29422 5.67004 7.26898 5.73495C7.15358 6.07031 6.83985 6.35159 6.60906 6.45256C6.29894 6.5932 6.11503 6.82038 5.9203 7.04035C5.23874 7.8373 4.62932 8.69195 4.05234 9.56102C3.16524 10.8736 2.38272 12.2656 1.78771 13.7369C1.70117 13.9605 1.60741 14.1732 1.59298 14.4473C1.57495 14.8764 1.2468 15.3236 1.3081 15.7923C1.09895 16.0267 0.994372 16.3152 0.918644 16.6145C0.846522 16.9138 0.821281 17.2276 0.734735 17.5197C0.345277 18.9152 0.381334 20.3757 0.100059 21.7965C0.0459671 22.067 0.0820305 22.3699 0.0856366 22.6584C0.0856366 22.9396 0.146938 23.2966 0.0495734 23.4842C-0.119913 23.8339 0.201033 23.9602 0.183003 24.245C0.146942 24.6958 0.269549 25.161 0.32364 25.619C0.384944 26.0445 0.395761 26.5349 0.565248 26.8811C0.80325 27.303 0.821281 27.678 0.835705 28.1036C0.839311 28.1829 0.864553 28.3055 0.907826 28.3488C1.23237 28.6481 1.16747 29.1529 1.39465 29.4775C1.63987 29.8561 1.80214 30.2528 1.94999 30.6639C2.02572 30.8875 2.03293 31.1327 2.11587 31.3563C2.20242 31.5979 2.28535 31.8827 2.44042 32.0522C2.82266 32.4417 2.98494 32.9429 3.28064 33.3793C3.46815 33.675 3.57995 34.0212 3.91892 34.2231C4.07037 34.3133 4.18576 34.6342 4.25789 34.8506C4.36607 35.1787 4.71226 35.4203 4.70504 35.7773C4.92141 35.8819 5.08729 36.0442 5.23875 36.2497C5.4515 36.5526 5.72557 36.8087 5.95276 37.1044C6.15109 37.3676 6.454 37.5407 6.56218 37.8797C6.68479 38.2619 7.1644 38.197 7.35192 38.5324C7.4024 38.6225 7.56107 38.6911 7.58632 38.7704C7.72335 39.149 8.08035 39.3546 8.36884 39.6034C9.40379 40.4689 10.5361 41.2117 11.7009 41.8825C12.0362 42.0844 12.3788 42.2647 12.7142 42.4702C13.0532 42.665 13.4029 42.8417 13.7491 43.0256C13.7744 43.04 13.8176 43.0472 13.8249 43.0616C14.052 43.4042 14.51 43.415 14.8454 43.5954C15.188 43.7648 15.5017 43.9812 15.8948 44.0822C16.4068 44.1976 16.9009 44.3815 17.4201 44.4752C17.9106 44.5834 18.3938 44.6952 18.9167 44.67C19.4035 44.6411 19.9444 44.807 20.4637 44.8358C20.6728 44.8467 20.8892 44.7565 21.0911 44.7709C21.3255 44.7962 21.5527 44.8935 21.7943 44.9152C22.0395 44.9368 22.2703 44.9188 22.5192 44.8358C22.6526 44.7854 22.9807 45.0053 23.2079 44.9152C23.72 44.7168 24.2537 44.7673 24.7802 44.706C25.2345 44.6339 25.6961 44.5978 26.1505 44.5221C26.2911 44.4969 26.4859 44.5077 26.5688 44.4392C26.9366 44.1435 27.4126 44.1795 27.8346 44.0569C28.3033 43.9307 28.7721 43.7937 29.2445 43.6783C29.3599 43.6422 29.5114 43.6999 29.6087 43.653C30.4093 43.2528 30.3949 43.2528 31.4334 42.9787C31.6029 42.9282 31.758 42.7876 31.9166 42.6866C31.9816 42.6433 32.0537 42.5532 32.1042 42.5532C32.3999 42.5604 32.6487 42.4162 32.8975 42.2791C33.1463 42.1421 33.3771 41.9834 33.6295 41.9149C34.2318 41.7707 34.7006 41.4028 35.1802 41.0783C36.6839 40.0037 38.2562 38.9074 39.2911 37.3424C40.0917 36.5382 40.6939 35.5826 41.444 34.7099C42.1003 33.9563 42.5114 32.9862 42.9621 32.0811C42.9874 32.027 43.0342 31.9621 43.0306 31.926C42.9729 31.4825 43.3372 31.1507 43.4021 30.7468C43.4742 30.3357 43.5824 29.9535 43.7158 29.5568L43.9249 28.969L44.1053 28.3704C44.2315 27.9737 44.3144 27.5626 44.3829 27.1552C44.5163 26.3438 44.9166 25.6154 44.9022 24.8689C44.9635 24.4073 45.0212 24.0215 44.9923 23.6609L44.9851 23.6464Z" fill="#FFCD7D"/>
<path d="M19.9913 15.2406C19.9913 15.2406 19.9841 15.2334 19.9769 15.2298C19.9624 15.2226 19.9372 15.219 19.9336 15.2081C19.8939 15.1504 19.948 15.0567 19.8254 15.0278C19.8507 14.981 19.7208 14.9954 19.7894 14.9305C19.7966 14.9233 19.7966 14.9124 19.7821 14.916C19.692 14.9305 19.728 14.8872 19.7064 14.8728C19.674 14.8547 19.7064 14.8007 19.6235 14.8079C19.5766 14.8115 19.609 14.7682 19.5477 14.779C19.5297 14.7826 19.5766 14.7393 19.573 14.7249C19.5333 14.6167 19.4215 14.5699 19.4143 14.4328C19.4071 14.3355 19.2809 14.3499 19.2917 14.2273C19.2917 14.2056 19.2412 14.2417 19.2304 14.2345C19.1727 14.1804 19.0537 14.2129 19.014 14.1407C18.9996 14.1191 18.9744 14.1083 18.9491 14.1011C18.9419 14.1011 18.9131 14.1263 18.9131 14.1155C18.9095 14.065 18.895 14.0253 18.8265 14.0866C18.8049 14.1047 18.7905 14.1011 18.7977 14.0722C18.8121 13.9929 18.7724 14.0145 18.7544 13.9965C18.7328 13.9785 18.7039 13.9712 18.6751 13.9604C18.6967 13.827 18.6138 13.9604 18.5957 13.9352C18.5741 13.9063 18.538 13.9208 18.502 13.946C18.4587 13.9749 18.4262 13.946 18.3938 13.9244C18.3613 13.9027 18.3145 13.9424 18.2784 13.9568C18.2243 13.9821 18.1846 13.8847 18.1269 13.9929C18.1233 14.0001 18.1161 14.0001 18.1161 13.9857C18.1089 13.9063 18.0909 13.9388 18.0801 13.9388C18.0296 13.946 17.9755 13.8919 17.9286 13.9857C17.9178 14.0073 17.9034 13.9893 17.8925 13.9893C17.8817 13.9893 17.8673 13.9965 17.8565 13.9893C17.8421 13.9821 17.824 13.9352 17.8168 13.964C17.8096 14.0037 17.7952 13.9893 17.7844 13.9965C17.7808 13.9965 17.7699 13.9712 17.7627 13.964C17.7555 13.9568 17.7447 13.946 17.7375 13.9532C17.7231 13.964 17.7231 14.0506 17.7014 14.0073C17.6726 13.9496 17.6798 14.0398 17.6581 14.0253C17.6401 14.0109 17.6257 14.0253 17.6113 14.0326C17.6004 14.0326 17.5932 14.0434 17.5788 14.0398C17.5644 14.0326 17.5428 13.9965 17.5319 14.0037C17.5139 14.0109 17.4887 14.0037 17.4814 14.0434C17.4742 14.0758 17.4418 14.0362 17.4201 14.0398C17.4129 14.0398 17.4165 14.0686 17.4129 14.083C17.4129 14.0902 17.4093 14.1011 17.4021 14.0902C17.3588 14.0145 17.3588 14.0758 17.3408 14.065C17.2975 14.0506 17.3047 14.1407 17.229 14.0578C17.2218 14.047 17.211 14.0506 17.2146 14.065C17.2398 14.1516 17.2002 14.1191 17.1894 14.1335C17.1569 14.1804 17.0704 14.1443 17.0812 14.2561C17.0812 14.2706 17.0631 14.2561 17.0523 14.2561C17.0415 14.2525 17.0271 14.2417 17.0163 14.2417C16.9694 14.2345 17.0163 14.3499 16.9333 14.303C16.9297 14.303 16.9261 14.3066 16.9333 14.3174C16.9694 14.3787 16.9333 14.3535 16.9333 14.3715C16.9333 14.4148 16.8576 14.3643 16.836 14.3859C16.7602 14.4545 16.6917 14.5302 16.6268 14.6095C16.6232 14.6167 16.6088 14.624 16.6268 14.642C16.652 14.6744 16.634 14.6672 16.6124 14.66C16.4934 14.6312 16.4717 14.6853 16.4826 14.7466C16.4898 14.7934 16.5078 14.8403 16.4213 14.8331C16.3996 14.8331 16.3888 14.8439 16.4068 14.8656C16.4862 14.9485 16.3924 14.9485 16.396 14.9954C16.396 15.0026 16.3347 14.9954 16.3455 15.0026C16.4249 15.0531 16.3636 15.0495 16.3672 15.0711C16.3672 15.0927 16.36 15.1072 16.3491 15.1216C16.3383 15.136 16.3491 15.1613 16.3023 15.1613C16.2265 15.1613 16.3419 15.2045 16.3203 15.2154V15.219C16.2013 15.2081 16.3023 15.2514 16.3239 15.2767C16.3311 15.2839 16.36 15.2983 16.3491 15.2983C16.2734 15.2983 16.2265 15.3163 16.2878 15.3524C16.176 15.356 16.2337 15.3957 16.2265 15.4209C16.2049 15.4894 16.2085 15.5615 16.2049 15.6301C16.1977 15.7022 16.2049 15.7707 16.2121 15.8428C16.2265 15.9113 16.2626 15.9762 16.295 16.0375C16.2986 16.0448 16.3311 16.0484 16.3347 16.0556C16.3419 16.0736 16.3455 16.0916 16.3419 16.1097C16.3419 16.1205 16.3023 16.1457 16.3239 16.1457C16.4104 16.1457 16.3672 16.1854 16.3924 16.207C16.4104 16.2215 16.3816 16.2575 16.4609 16.2467C16.4826 16.2467 16.4862 16.2539 16.4681 16.2683C16.3996 16.3116 16.4393 16.3188 16.4393 16.3332C16.4429 16.3585 16.4609 16.3765 16.4681 16.4018C16.4753 16.427 16.5475 16.4162 16.5547 16.4414C16.5871 16.528 16.6484 16.6001 16.6953 16.6758C16.7134 16.7119 16.7819 16.7011 16.7314 16.7948C16.7242 16.8056 16.7494 16.7948 16.7566 16.7948C16.7674 16.7948 16.7891 16.784 16.7819 16.7912C16.7314 16.8525 16.7711 16.8417 16.7819 16.8525C16.8179 16.8994 16.8684 16.9319 16.9081 16.9751C16.9225 16.9896 16.9586 16.9787 16.9261 17.0509C16.9189 17.0725 16.9333 17.0761 16.955 17.0581C16.9946 17.022 16.991 17.0436 17.0018 17.0472C17.0163 17.0545 17.0343 17.0617 17.0415 17.0797C17.0523 17.0977 17.0415 17.141 17.0595 17.1482C17.1136 17.1626 17.1461 17.2095 17.2146 17.1951C17.2975 17.1771 17.3444 17.2384 17.4057 17.2708C17.4201 17.278 17.4238 17.3033 17.4562 17.2528C17.4634 17.2384 17.4742 17.2348 17.4742 17.2492C17.4634 17.3141 17.4851 17.2852 17.4959 17.2961C17.5355 17.3393 17.6005 17.2744 17.6473 17.2816C17.7447 17.2961 17.8421 17.3105 17.943 17.3177C17.9611 17.3177 17.9755 17.2997 17.9935 17.361C18.0079 17.4043 18.0332 17.397 18.0476 17.3538C18.062 17.3105 18.0728 17.3069 18.0873 17.3141C18.1053 17.3249 18.1305 17.397 18.1414 17.3069C18.1414 17.2997 18.1486 17.2961 18.1486 17.3069C18.1738 17.397 18.1882 17.3466 18.2063 17.3502C18.2351 17.3502 18.264 17.3393 18.2928 17.3393C18.3108 17.3393 18.3181 17.3105 18.3505 17.3718C18.3685 17.4115 18.3938 17.4006 18.3938 17.3574C18.3938 17.3033 18.4082 17.3105 18.4226 17.3069C18.5669 17.2672 18.7039 17.2095 18.8337 17.1338C18.8446 17.1266 18.8626 17.1338 18.8806 17.141C18.9167 17.1554 18.9239 17.1158 18.9383 17.0977C18.9383 17.0941 18.9347 17.0689 18.9419 17.0761C19.0032 17.1302 18.9852 17.0689 19.014 17.0761C19.0393 17.0761 19.0753 17.0905 19.0934 17.0797C19.115 17.0653 19.1619 17.0797 19.1222 16.9896C19.1583 16.9571 19.198 16.9246 19.2304 16.885C19.2376 16.8778 19.2484 16.8742 19.2881 16.8994C19.3025 16.9066 19.3097 16.8994 19.2953 16.8814C19.252 16.8273 19.2809 16.8381 19.2845 16.8237C19.2989 16.7732 19.3891 16.7804 19.335 16.6794C19.3314 16.6722 19.3566 16.6794 19.3674 16.6794C19.3747 16.6794 19.3927 16.6794 19.3819 16.6722C19.335 16.6181 19.353 16.6037 19.3927 16.6145C19.4468 16.6289 19.4468 16.6109 19.4504 16.5929C19.4648 16.546 19.5009 16.5099 19.49 16.4522C19.4756 16.3909 19.5081 16.3477 19.5802 16.3224C19.6487 16.2972 19.6235 16.2287 19.6451 16.1818C19.6487 16.171 19.6054 16.1457 19.609 16.1349C19.609 16.07 19.6379 16.0123 19.6451 15.933C19.6307 15.8717 19.7028 15.7959 19.6163 15.7202C19.591 15.6986 19.5622 15.6877 19.5009 15.6805C19.5009 15.6805 19.5009 15.6769 19.5009 15.6733C19.5153 15.6733 19.5297 15.6733 19.555 15.6733C19.7821 15.6733 19.9264 15.6373 19.8795 15.594C19.8723 15.5868 19.8579 15.576 19.8795 15.5687C19.9444 15.5471 19.9192 15.5255 19.9264 15.5038C19.9372 15.4822 19.9661 15.4606 19.9697 15.4389C19.9877 15.3704 19.8975 15.3235 19.9913 15.2406Z" fill="#1D4C5C"/>
<path d="M28.5269 15.2406C28.5269 15.2406 28.5197 15.2334 28.5125 15.2298C28.4981 15.2226 28.4728 15.219 28.4692 15.2081C28.4296 15.1504 28.4837 15.0567 28.3611 15.0278C28.3863 14.981 28.2565 14.9954 28.325 14.9305C28.3322 14.9233 28.3322 14.9124 28.3178 14.916C28.224 14.9305 28.2637 14.8872 28.2421 14.8728C28.2096 14.8547 28.2421 14.8007 28.1591 14.8079C28.1122 14.8115 28.1447 14.7682 28.0834 14.779C28.0654 14.7826 28.1122 14.7393 28.1086 14.7249C28.069 14.6167 27.9572 14.5699 27.95 14.4328C27.9427 14.3355 27.8165 14.3499 27.8274 14.2273C27.8274 14.2056 27.7769 14.2417 27.7661 14.2345C27.7084 14.1804 27.5894 14.2129 27.5497 14.1407C27.5353 14.1191 27.51 14.1083 27.4848 14.1011C27.4776 14.1011 27.4487 14.1263 27.4487 14.1155C27.4451 14.065 27.4307 14.0253 27.3622 14.0866C27.3405 14.1047 27.3261 14.1011 27.3333 14.0722C27.3477 13.9929 27.3081 14.0145 27.2901 13.9965C27.2684 13.9785 27.2396 13.9712 27.2107 13.9604C27.2324 13.827 27.1494 13.9604 27.1314 13.9352C27.1097 13.9063 27.0737 13.9208 27.0376 13.946C26.9943 13.9749 26.9619 13.946 26.9294 13.9244C26.897 13.9027 26.8501 13.9424 26.814 13.9568C26.76 13.9821 26.7203 13.8847 26.6626 13.9929C26.659 14.0001 26.6518 14.0001 26.6482 13.9857C26.641 13.9063 26.6229 13.9388 26.6121 13.9388C26.5616 13.946 26.5075 13.8919 26.4606 13.9857C26.4498 14.0073 26.4354 13.9893 26.4246 13.9893C26.4138 13.9893 26.3993 13.9965 26.3885 13.9893C26.3741 13.9821 26.3561 13.9352 26.3489 13.964C26.3416 14.0037 26.3272 13.9893 26.3164 13.9965C26.3128 13.9965 26.302 13.9712 26.2948 13.964C26.2876 13.9568 26.2767 13.946 26.2695 13.9532C26.2551 13.964 26.2551 14.0506 26.2335 14.0073C26.2046 13.9496 26.2118 14.0398 26.1902 14.0253C26.1722 14.0109 26.1577 14.0253 26.1433 14.0326C26.1325 14.0326 26.1253 14.0434 26.1109 14.0398C26.0964 14.0326 26.0748 13.9965 26.064 14.0037C26.046 14.0109 26.0207 14.0037 26.0135 14.0434C26.0063 14.0758 25.9738 14.0362 25.9522 14.0398C25.945 14.0398 25.9486 14.0686 25.945 14.083C25.945 14.0902 25.9414 14.1011 25.9342 14.0902C25.8909 14.0145 25.8909 14.0758 25.8729 14.065C25.8296 14.0506 25.8368 14.1407 25.7611 14.0578C25.7539 14.047 25.743 14.0506 25.7466 14.065C25.7719 14.1516 25.7322 14.1191 25.7214 14.1335C25.6889 14.1804 25.6024 14.1443 25.6132 14.2561C25.6132 14.2706 25.5952 14.2561 25.5844 14.2561C25.5735 14.2525 25.5591 14.2417 25.5483 14.2417C25.5014 14.2345 25.5483 14.3499 25.4654 14.303C25.4618 14.303 25.4582 14.3066 25.4654 14.3174C25.5014 14.3787 25.4654 14.3535 25.4654 14.3715C25.4654 14.4148 25.3896 14.3643 25.368 14.3859C25.2923 14.4545 25.2238 14.5302 25.1588 14.6095C25.1552 14.6167 25.1408 14.624 25.1588 14.642C25.1841 14.6744 25.1661 14.6672 25.1444 14.66C25.0254 14.6312 25.0038 14.6853 25.0146 14.7466C25.0218 14.7934 25.0398 14.8403 24.9533 14.8331C24.9317 14.8331 24.9208 14.8439 24.9389 14.8656C25.0182 14.9485 24.9244 14.9485 24.9281 14.9954C24.9281 15.0026 24.8668 14.9954 24.8776 15.0026C24.9569 15.0531 24.8956 15.0495 24.8992 15.0711C24.8992 15.0927 24.892 15.1072 24.8812 15.1216C24.8704 15.136 24.8812 15.1613 24.8343 15.1613C24.7586 15.1613 24.874 15.2045 24.8523 15.2154V15.219C24.7333 15.2081 24.8343 15.2514 24.8559 15.2767C24.8631 15.2839 24.892 15.2983 24.8812 15.2983C24.8054 15.2983 24.7586 15.3163 24.8199 15.3524C24.7081 15.356 24.7658 15.3957 24.7586 15.4209C24.7369 15.4894 24.7405 15.5615 24.7369 15.6301C24.7297 15.7022 24.7369 15.7707 24.7441 15.8428C24.7586 15.9113 24.7946 15.9762 24.8271 16.0375C24.8307 16.0448 24.8631 16.0484 24.8668 16.0556C24.874 16.0736 24.8776 16.0916 24.874 16.1097C24.874 16.1205 24.8343 16.1457 24.8559 16.1457C24.9425 16.1457 24.8992 16.1854 24.9245 16.207C24.9425 16.2215 24.9136 16.2575 24.993 16.2467C25.0146 16.2467 25.0182 16.2539 25.0002 16.2683C24.9317 16.3116 24.9713 16.3188 24.9713 16.3332C24.9749 16.3585 24.993 16.3765 25.0002 16.4018C25.0074 16.427 25.0795 16.4162 25.0867 16.4414C25.1192 16.528 25.1805 16.6001 25.2274 16.6758C25.2454 16.7119 25.3139 16.7011 25.2634 16.7948C25.2562 16.8056 25.2814 16.7948 25.2887 16.7948C25.2995 16.7948 25.3211 16.784 25.3139 16.7912C25.2634 16.8525 25.3031 16.8417 25.3139 16.8525C25.35 16.8994 25.4005 16.9319 25.4401 16.9751C25.4545 16.9896 25.4906 16.9787 25.4581 17.0509C25.4509 17.0725 25.4654 17.0761 25.487 17.0581C25.5267 17.022 25.5231 17.0436 25.5339 17.0472C25.5483 17.0545 25.5663 17.0617 25.5735 17.0797C25.5844 17.0977 25.5736 17.141 25.5916 17.1482C25.6457 17.1626 25.6781 17.2095 25.7466 17.1951C25.8296 17.1771 25.8765 17.2384 25.9378 17.2708C25.9522 17.278 25.9558 17.3033 25.9882 17.2528C25.9955 17.2384 26.0063 17.2348 26.0063 17.2492C25.9955 17.3141 26.0171 17.2852 26.0279 17.2961C26.0676 17.3393 26.1325 17.2744 26.1794 17.2816C26.2767 17.2961 26.3741 17.3105 26.4751 17.3177C26.4931 17.3177 26.5075 17.2997 26.5256 17.361C26.54 17.4043 26.5652 17.397 26.5797 17.3538C26.5941 17.3105 26.6049 17.3069 26.6193 17.3141C26.6373 17.3249 26.6626 17.397 26.6734 17.3069C26.6734 17.2997 26.6806 17.2961 26.6806 17.3069C26.7059 17.397 26.7203 17.3466 26.7383 17.3502C26.7672 17.3502 26.796 17.3393 26.8249 17.3393C26.8429 17.3393 26.8501 17.3105 26.8826 17.3718C26.9006 17.4115 26.9258 17.4006 26.9258 17.3574C26.9258 17.3033 26.9403 17.3105 26.9547 17.3069C27.0989 17.2672 27.236 17.2095 27.3658 17.1338C27.3766 17.1266 27.3946 17.1338 27.4127 17.141C27.4487 17.1554 27.4559 17.1158 27.4704 17.0977C27.4704 17.0941 27.4668 17.0689 27.474 17.0761C27.5353 17.1302 27.5172 17.0689 27.5461 17.0761C27.5713 17.0761 27.6074 17.0905 27.6254 17.0797C27.6471 17.0653 27.6939 17.0797 27.6543 16.9896C27.6903 16.9571 27.73 16.9246 27.7624 16.885C27.7697 16.8778 27.7805 16.8742 27.8201 16.8994C27.8346 16.9066 27.8418 16.8994 27.8274 16.8814C27.7841 16.8273 27.8129 16.8381 27.8165 16.8237C27.831 16.7732 27.9211 16.7804 27.867 16.6794C27.8634 16.6722 27.8887 16.6794 27.8995 16.6794C27.9067 16.6794 27.9247 16.6794 27.9139 16.6722C27.867 16.6181 27.8851 16.6037 27.9247 16.6145C27.9788 16.6289 27.9788 16.6109 27.9824 16.5929C27.9968 16.546 28.0329 16.5099 28.0221 16.4522C28.0077 16.3909 28.0401 16.3477 28.1122 16.3224C28.1808 16.2972 28.1555 16.2287 28.1771 16.1818C28.1808 16.171 28.1375 16.1457 28.1411 16.1349C28.1411 16.07 28.1699 16.0123 28.1771 15.933C28.1627 15.8717 28.2349 15.7959 28.1483 15.7202C28.1231 15.6986 28.0942 15.6877 28.0329 15.6805C28.0329 15.6805 28.0329 15.6769 28.0329 15.6733C28.0473 15.6733 28.0618 15.6733 28.087 15.6733C28.3142 15.6733 28.4584 15.6373 28.4115 15.594C28.4043 15.5868 28.3899 15.576 28.4115 15.5687C28.4765 15.5471 28.4512 15.5255 28.4584 15.5038C28.4692 15.4822 28.4981 15.4606 28.5017 15.4389C28.5197 15.3704 28.4296 15.3235 28.5233 15.2406H28.5269Z" fill="#1D4C5C"/>
<path d="M32.1619 28.5832C32.1366 28.7203 31.9058 28.695 31.8445 28.8176C31.7796 28.9402 31.6714 29.0268 31.5741 29.1205C31.5236 29.1674 31.5019 29.2359 31.4947 29.3225C31.4875 29.4054 31.3505 29.373 31.4154 29.5244C31.4226 29.5388 31.4046 29.5388 31.3974 29.5461C31.282 29.6651 31.2026 29.8273 31.0295 29.8778C30.8276 29.9355 30.7374 30.1086 30.5716 30.1988C30.4598 30.5341 30.1388 30.6243 29.9116 30.8262C29.8431 30.8911 29.7854 30.9777 29.6448 30.9452C29.5258 30.92 29.5366 31.1111 29.3707 31.0209C29.3563 31.0137 29.3635 31.0534 29.3563 31.0678C29.3419 31.1003 29.3383 31.1544 29.3058 31.158C29.1111 31.1796 29.1111 31.176 29.0354 31.3275C29.0245 31.3455 28.9704 31.2986 28.9524 31.3058C28.8839 31.3455 28.8082 31.3743 28.7469 31.4284C28.6928 31.4753 28.581 31.432 28.599 31.6015C28.6026 31.6376 28.563 31.6304 28.5413 31.6412C28.4764 31.6809 28.4043 31.7097 28.3466 31.7566C28.2781 31.8107 28.1735 31.7963 28.1555 31.9477C28.1483 32.0162 28.0293 31.9044 28.0257 31.9405C28.0184 32.0126 27.9896 32.0415 27.9499 32.0523C27.9103 32.0595 27.849 32.0234 27.8129 32.0379C27.7804 32.0523 27.7841 32.1316 27.7552 32.1497C27.6831 32.1965 27.5749 32.1821 27.5352 32.2795C27.492 32.3877 27.409 32.4021 27.3369 32.4417C27.2612 32.4814 27.171 32.4958 27.0989 32.5463C27.0412 32.586 26.9619 32.5463 26.8897 32.5355C26.8212 32.5247 26.7924 32.6545 26.6842 32.5283C26.6806 32.5211 26.677 32.5283 26.6698 32.5319C26.5436 32.5571 26.4065 32.5571 26.2803 32.586C26.0639 32.6401 25.8584 32.7194 25.6456 32.7807C25.5843 32.7987 25.5374 32.8673 25.4473 32.7555C25.4293 32.7338 25.4112 32.7771 25.3932 32.7627C25.3175 32.705 25.3283 32.9538 25.2454 32.8564C25.1696 32.7699 25.13 32.8384 25.0759 32.8384C25.0146 32.8384 24.9569 32.8673 24.8956 32.8745C24.8523 32.8781 24.8198 32.9069 24.8018 32.9827C24.7261 32.8492 24.6828 32.961 24.6179 32.9033C24.5746 32.8673 24.5133 32.8348 24.4953 32.8889C24.4556 33.0079 24.3907 32.961 24.3366 32.9827C24.2537 33.0115 24.1635 32.9754 24.095 33.0945C24.0662 33.1449 24.0157 33.1233 23.9724 33.1161C23.9327 33.1089 23.8895 33.0548 23.8498 33.0548C23.7777 33.0548 23.7092 33.0692 23.6442 33.1558C23.5902 33.2279 23.5036 33.1089 23.4531 33.2639C23.4459 33.2856 23.4243 33.2784 23.4135 33.2639C23.3413 33.2026 23.2764 33.1666 23.2079 33.2603C23.1502 33.3325 23.0673 33.282 22.9988 33.282C22.923 33.282 22.8473 33.318 22.7716 33.282C22.7247 33.2567 22.7031 33.4659 22.6454 33.3361C22.6129 33.2675 22.5552 33.3036 22.5083 33.3036C22.4614 33.3036 22.411 33.3325 22.3677 33.3036C22.1369 33.1233 21.8953 33.2495 21.6609 33.1846C21.5635 33.1558 21.4481 33.2748 21.3688 33.0872C21.2859 33.2207 21.2101 33.0945 21.1344 33.1738C21.0839 33.2243 21.0479 33.2135 21.0082 33.2098C20.7486 33.1774 20.4925 33.1305 20.2329 33.1053C20.0634 33.08 19.8867 33.0872 19.7136 33.0656C19.6667 33.0584 19.6162 33.0656 19.5838 32.9718C19.5621 32.9033 19.4936 32.8817 19.4179 32.9718C19.4035 32.9899 19.3782 33.0007 19.3746 32.9863C19.3314 32.7735 19.1835 32.9502 19.0897 32.925C18.9058 32.8817 18.7688 32.7086 18.5885 32.6617C18.5488 32.6509 18.5236 32.5824 18.4515 32.6978C18.4587 32.5824 18.419 32.6257 18.3649 32.6617C18.3108 32.6978 18.2459 32.6834 18.2387 32.6112C18.2243 32.5139 18.1774 32.5247 18.1377 32.4994C18.0981 32.4706 18.0476 32.467 18.0079 32.4417C17.8348 32.3408 17.6581 32.2434 17.4922 32.1352C17.4598 32.1136 17.449 32.0487 17.4237 32.0126C17.3985 31.973 17.3336 32.0126 17.3516 31.8936C17.3588 31.8503 17.3083 31.8612 17.2831 31.8467C17.1965 31.8035 17.1352 31.6917 17.0162 31.735C16.8972 31.7746 16.8684 31.6376 16.7169 31.7422C16.6737 31.771 16.6628 31.7097 16.6304 31.7025C16.497 31.67 16.4501 31.4825 16.2481 31.5727C16.2626 31.4537 16.2049 31.4429 16.1544 31.4248C16.1183 31.4104 16.1111 31.3347 16.0174 31.4248C16.0065 31.4356 15.9957 31.4284 15.9885 31.4212C15.9633 31.3707 15.9705 31.2806 15.9128 31.2698C15.8659 31.2626 15.7938 31.3058 15.7541 31.277C15.6099 31.1724 15.5486 30.9596 15.3719 30.9092C15.3899 30.801 15.3358 30.7829 15.2961 30.7469C15.224 30.6856 15.0762 30.7325 15.0185 30.6495C14.9608 30.5702 14.9031 30.4836 14.7913 30.4836C14.5966 30.4836 14.5316 30.325 14.3982 30.2456C14.3658 30.224 14.3009 30.2312 14.3549 30.1158C14.3658 30.087 14.3261 30.0725 14.2936 30.0906C14.2251 30.1338 14.2323 30.0761 14.1963 30.0834C14.0917 30.0978 14.2504 29.8201 14.0484 29.9463L13.8825 29.7913C13.8285 29.7408 13.7708 29.6903 13.7203 29.6362C13.6986 29.6074 13.6554 29.6037 13.6878 29.5208C13.7095 29.4631 13.677 29.4162 13.6229 29.4343C13.5003 29.4775 13.4931 29.4018 13.4498 29.3621C13.32 29.2467 13.201 29.1169 13.0928 28.9799C13.0459 28.9222 13.0315 28.832 13.0027 28.7563C12.9738 28.6806 12.8584 28.6734 12.8945 28.5436C12.8945 28.5327 12.8873 28.5327 12.8801 28.5291C12.8476 28.5147 12.8007 28.5147 12.7863 28.4895C12.7683 28.4534 12.8151 28.3488 12.7683 28.3596C12.6709 28.3777 12.7286 28.2983 12.7178 28.2659C12.6817 28.1685 12.8296 27.9882 13.0568 27.8332C13.1072 27.8007 13.1685 27.7682 13.2118 27.7502C13.5003 27.6348 13.4823 27.642 13.5724 27.7286C13.6842 27.8368 13.6554 28.0676 13.8104 28.1505C13.7635 28.3308 13.9186 28.3452 13.9655 28.4498C14.016 28.558 14.0052 28.7275 14.1494 28.7455C14.29 28.7635 14.3549 28.8537 14.4307 28.933C14.492 28.9907 14.51 29.0917 14.5641 29.1602C14.6182 29.2287 14.7119 29.2612 14.748 29.3477C14.7696 29.4018 14.748 29.5136 14.8273 29.5028C14.9968 29.4775 15.0113 29.6362 15.1375 29.6542C15.3106 29.6831 15.3899 29.8201 15.545 29.8634C15.6279 29.885 15.7144 29.9031 15.7721 29.9535C15.801 29.9788 15.8298 29.9932 15.8262 30.0653C15.8226 30.1411 15.8695 30.1771 15.9597 30.1338C15.9957 30.1158 16.039 30.1122 16.039 30.1483C16.0246 30.2925 16.1219 30.2925 16.1832 30.3322C16.2229 30.3574 16.2013 30.4872 16.2518 30.462C16.3383 30.4187 16.3527 30.4728 16.396 30.4908C16.4248 30.5017 16.4789 30.4909 16.4429 30.599C16.4321 30.6279 16.4573 30.6495 16.4789 30.6351C16.6015 30.5413 16.616 30.6351 16.6701 30.6567C16.7963 30.718 16.9153 30.7902 17.0307 30.8695C17.1244 30.938 17.2975 30.8515 17.3696 30.956C17.4995 30.8587 17.5391 30.9488 17.604 30.9849C17.6545 31.0101 17.6834 31.0822 17.723 31.1327C17.7627 31.1832 17.824 31.1832 17.8492 31.2698C17.8817 31.3743 17.9971 31.3419 18.0656 31.3852C18.1053 31.4104 18.181 31.3563 18.1666 31.497C18.1666 31.515 18.1846 31.5222 18.199 31.5078C18.3072 31.3996 18.3613 31.4645 18.3902 31.533C18.437 31.6484 18.5272 31.6448 18.5993 31.6881C18.6606 31.7277 18.7327 31.7277 18.7941 31.7602C18.8373 31.7854 18.895 31.771 18.9239 31.8431C18.9491 31.9008 19.0248 31.8431 19.0717 31.8467C19.1186 31.854 19.1655 31.8756 19.2087 31.89L19.3566 31.9369C19.4071 31.9513 19.454 31.973 19.5081 31.9838C19.5621 31.9982 19.6234 31.9982 19.6739 32.027C19.7208 32.0523 19.7605 32.1208 19.811 32.1388C19.9552 32.1893 20.1319 32.0739 20.2653 32.1641C20.3266 32.0739 20.3483 32.1533 20.3879 32.1821C20.424 32.2074 20.4601 32.2542 20.5178 32.1569C20.5322 32.128 20.5538 32.1388 20.5719 32.1316C20.6115 32.1208 20.6259 32.2254 20.68 32.1569C20.7197 32.11 20.7558 32.1677 20.7954 32.1605C20.8387 32.1533 20.8712 32.2362 20.9252 32.11C20.9685 32.3155 21.0767 32.027 21.1344 32.1244C21.1524 32.1569 21.1777 32.1713 21.1957 32.1929C21.2065 32.2037 21.2173 32.2326 21.2282 32.2218C21.4337 32.0811 21.6104 32.2146 21.8051 32.1821C21.8304 32.1785 21.852 32.1388 21.8773 32.1244C21.8881 32.1172 21.9025 32.1136 21.9133 32.1244C22.0143 32.2001 22.0143 32.2001 22.1117 32.1316C22.1369 32.1136 22.1621 32.1316 22.1874 32.1244C22.2523 32.1064 22.3172 32.146 22.3821 32.0667C22.4506 31.9838 22.5228 32.1244 22.5913 32.1857C22.6562 32.2398 22.7175 32.3011 22.786 32.2903C22.9591 32.2687 23.1322 32.2723 23.3053 32.265C23.3269 32.265 23.3594 32.2939 23.3702 32.2578C23.4098 32.1136 23.4423 32.009 23.5108 32.247C23.5108 32.2578 23.5325 32.2542 23.5361 32.2398C23.5649 32.0811 23.6262 32.1497 23.6731 32.146C23.857 32.1388 24.0085 31.9477 24.1996 31.9838C24.2284 31.991 24.2645 31.9477 24.2897 31.9946C24.3438 32.0956 24.333 31.9225 24.3691 31.9585C24.4015 31.9838 24.4268 31.9153 24.4556 31.9513C24.5638 32.0884 24.6431 32.0198 24.708 31.9513C24.7694 31.89 24.827 31.8179 24.8992 31.8576C25.047 31.9297 25.1588 31.8576 25.2814 31.8431C25.4076 31.8179 25.5302 31.7746 25.6492 31.7277C25.6997 31.7097 25.7718 31.753 25.7754 31.6087C25.7754 31.5799 25.8043 31.5871 25.8223 31.5907C25.8656 31.6015 25.9197 31.6412 25.9594 31.6268C25.9954 31.616 26.0171 31.551 26.0459 31.5186C26.0711 31.4933 26.1072 31.5006 26.1108 31.4212C26.1144 31.3635 26.1685 31.3888 26.2298 31.4429C26.3488 31.5474 26.475 31.6556 26.558 31.5943C26.6301 31.5402 26.7202 31.5294 26.7996 31.4897C26.832 31.4717 26.8681 31.4717 26.8789 31.3924C26.8861 31.3203 26.951 31.3275 27.0087 31.3491C27.0989 31.3852 27.1602 31.3635 27.1818 31.2626C27.189 31.2265 27.2143 31.2157 27.2359 31.2049L27.6434 31.0029C27.6759 30.9849 27.7011 30.9488 27.7732 31.0209C27.7372 30.9019 27.7877 30.92 27.8201 30.9092C27.867 30.8947 27.9355 30.9164 27.9824 30.9019C28.0401 30.8839 28.0834 30.8442 28.0978 30.7541C28.1086 30.6675 28.2204 30.7325 28.2204 30.6171C28.2204 30.5954 28.2745 30.6423 28.2853 30.6315C28.3286 30.5774 28.4512 30.6315 28.4115 30.462C28.4115 30.4476 28.4187 30.4404 28.4331 30.4476C28.5846 30.5449 28.581 30.3971 28.6207 30.3214C28.6603 30.2348 28.801 30.3069 28.8659 30.2601C28.9416 30.206 28.9921 30.1158 29.0967 30.1122C29.2806 30.1122 29.3707 29.9752 29.4969 29.8958C29.6304 29.8165 29.7422 29.7119 29.8539 29.6037C29.9008 29.5569 29.9152 29.4703 29.9585 29.4162C30.0054 29.3585 30.0703 29.3189 30.1244 29.2684C30.1749 29.2215 30.2254 29.171 30.2795 29.1277C30.3047 29.1061 30.2975 29.0484 30.3913 29.1025C30.4093 29.1133 30.4309 29.1025 30.4237 29.0881C30.3913 28.9655 30.4381 28.933 30.5535 28.9619C30.586 28.9691 30.586 28.933 30.6112 28.9294C30.6797 28.9186 30.6473 28.814 30.6617 28.7563C30.6761 28.7022 30.7879 28.7347 30.7086 28.5976C30.6978 28.5796 30.7122 28.5616 30.7338 28.5688C30.9935 28.6806 30.7519 28.2983 30.9899 28.3921C30.9069 28.2623 31.0584 28.3488 31.062 28.3092C31.0692 28.2551 31.0692 28.1974 31.098 28.1649C31.1269 28.1325 31.1594 28.1072 31.181 28.0676C31.2171 27.9954 31.3216 27.981 31.2784 27.844C31.2639 27.7971 31.2711 27.7466 31.3829 27.7935C31.401 27.8007 31.4118 27.7863 31.4118 27.7755C31.4298 27.6817 31.5885 27.6817 31.776 27.7899C31.8842 27.8548 32.0104 27.9486 32.1078 28.0315C32.1582 28.0748 32.1654 28.1325 32.1871 28.1793C32.2231 28.2659 32.2881 28.3705 32.2808 28.4282C32.2736 28.5003 32.2123 28.5291 32.1619 28.5904V28.5832Z" fill="#1D4C5C" stroke="#1D4C5C" stroke-linejoin="round"/>
</svg>