<svg width="331" height="336" viewBox="0 0 331 336" fill="none" xmlns="http://www.w3.org/2000/svg">
<path d="M328.805 172.277C328.463 170.205 327.981 169.074 327.423 168.718C327.423 168.68 327.423 168.642 327.423 168.604C327.423 168.477 327.423 168.362 327.423 168.235C327.968 167.79 328.564 166.951 329.11 165.871C330.188 163.685 331.228 160.482 330.962 157.8C330.188 146.36 329.769 135.417 326.433 123.99C320.56 103.958 311.224 84.8293 298.729 68.0515C292.438 59.6118 285.207 51.9093 277.406 44.855C269.605 37.788 261.258 31.3565 252.569 25.2682C243.195 18.7096 231.537 14.0322 220.349 10.0538C209.542 6.17717 198.442 3.0377 186.988 1.41076C177.969 0.165142 168.734 -0.343275 159.639 0.254115C150.95 0.826084 142.451 2.33862 133.99 4.15621C120.088 7.00335 106.502 11.5283 93.6651 17.6166C84.4559 22.0779 75.5891 27.3273 67.4581 33.4919C65.771 34.6739 64.0459 36.5678 62.4476 38.1185C61.6611 38.9065 60.9 39.631 60.2658 40.2284C59.6442 40.8385 59.0988 41.2961 58.6929 41.4994C57.2468 42.2239 55.8768 43.0882 54.5576 44.0415C53.2383 44.9948 52.0713 46.1387 50.879 47.2573C49.7119 48.4012 48.5196 49.5324 47.4287 50.7399C46.3378 51.9474 45.2342 53.1422 44.1052 54.2734C42.7606 55.5826 41.5175 56.9807 40.2871 58.3916C39.0693 59.8151 37.8135 61.2006 36.6719 62.675C34.4013 65.6365 32.1307 68.5853 30.1264 71.7248C28.0081 74.7753 26.1688 78.0038 24.2787 81.1814C23.3273 82.7702 22.5155 84.4352 21.6149 86.0622C20.7396 87.6891 19.839 89.3033 19.0525 90.9811C8.19424 112.64 1.4205 136.573 0.19006 160.888C-0.444186 173.09 0.545237 185.394 2.6763 197.431C4.80737 209.493 8.04202 221.276 11.8855 232.918C12.8242 235.727 14.1435 238.562 15.4754 241.422C16.9722 244.205 18.431 247.078 19.9785 249.785C21.6783 252.747 23.5557 255.823 25.5345 258.695C26.5112 260.131 27.3738 261.606 28.2998 262.966C29.2131 264.326 30.0376 265.673 30.748 266.97C33.8304 272.473 37.5091 275.46 40.9974 279.451C61.5977 303.016 89.0605 320.315 118.972 329.34L124.528 330.941L130.16 332.25C132.037 332.721 133.927 333.051 135.83 333.369C137.733 333.687 139.623 334.068 141.525 334.309C145.356 334.754 149.174 335.314 153.018 335.492C154.946 335.593 156.861 335.809 158.777 335.835L164.548 335.949C166.477 336.038 168.392 335.911 170.32 335.886C172.248 335.809 174.164 335.86 176.092 335.695C179.935 335.428 183.779 335.225 187.597 334.742C191.44 334.411 195.233 333.763 199.064 333.216C200.979 332.937 202.857 332.517 204.76 332.199C206.662 331.856 208.578 331.539 210.455 331.081C212.599 330.585 214.844 330.128 217.077 329.479C219.309 328.806 221.567 328.069 223.8 327.268C226.007 326.404 228.163 325.399 230.244 324.37C232.337 323.366 234.227 322.057 236.028 320.811C236.941 320.442 237.842 320.061 238.755 319.692L241.381 318.409C243.119 317.532 244.857 316.667 246.544 315.714C249.867 313.731 253.152 311.736 256.248 309.461C259.419 307.3 262.374 304.847 265.393 302.508C266.852 301.275 268.324 300.042 269.795 298.796L272.015 296.953L274.171 295.021C281.009 289.06 287.757 282.781 293.655 275.765C299.567 268.787 304.717 261.148 308.345 252.975C308.662 252.226 309.6 250.802 310.006 250.484C311.465 249.34 312.645 247.599 313.596 245.641C314.56 243.697 315.537 241.638 316.501 239.782C322.919 227.885 325.647 215.035 327.765 202.401C328.222 199.337 328.628 196.236 328.97 193.109C329.097 191.533 329.211 189.97 329.338 188.381C329.465 186.805 329.617 185.229 329.63 183.653C329.693 181.683 329.655 179.687 329.541 177.768C329.414 175.849 329.084 173.993 328.818 172.264L328.805 172.277Z" fill="#F6F8E3"/>
</svg>