<svg width="142" height="139" viewBox="0 0 142 139" fill="none" xmlns="http://www.w3.org/2000/svg">
<path d="M0 34C0 25.1634 7.16344 18 16 18H126C134.837 18 142 25.1634 142 34V139H0V34Z" fill="#1D4C5C"/>
<path d="M10 39C10 34.5817 13.5817 31 18 31H124C128.418 31 132 34.5817 132 39V139H10V39Z" fill="#F6F8E3"/>
<path d="M62.6361 32.4476C61.4698 46.9673 72.2469 59.7325 86.6986 60.9598C86.6986 60.9598 101.805 66.2031 116.588 59.0608C116.588 59.0608 110.906 57.4483 105.247 55.2743C110.672 50.9118 114.373 44.4132 114.977 36.8905C116.143 22.3708 105.366 9.60556 90.9141 8.37831C76.4624 7.15106 63.7978 17.9295 62.6361 32.4476Z" fill="#FFCD7D"/>
<path d="M63.1497 37.0617C63.1699 37.745 63.3049 38.3507 63.3986 38.929C63.4477 39.2172 63.4999 39.4992 63.5505 39.7764C63.601 40.0537 63.6499 40.3262 63.7426 40.5886C63.7959 40.7542 63.9715 40.9082 64.024 41.1163C64.1336 41.5308 64.2762 41.9494 64.4015 42.3636C64.454 42.5716 64.5268 42.7778 64.6027 42.9776C64.6739 43.179 64.7247 43.3824 64.7661 43.5891C64.8529 44.0433 64.9771 44.4842 65.1277 44.9105C65.2878 45.3335 65.5288 45.7174 65.7632 46.0825C65.991 46.4288 66.1907 46.7851 66.3763 47.1464C66.5791 47.4963 66.8099 47.8363 67.0344 48.1733C67.1877 48.3984 67.3535 48.6139 67.3861 48.9449C67.4094 49.1897 67.6121 49.5396 67.96 49.6591C68.0264 49.683 68.0694 49.8048 68.1086 49.8859C68.1511 49.9762 68.1567 50.1113 68.2203 50.1573C68.9404 50.6142 69.2489 51.4275 69.8839 51.9567C70.0325 52.0939 70.1213 52.3154 70.3821 52.3076C70.4496 52.3048 70.5888 52.4453 70.5933 52.5175C70.611 52.7168 70.7045 52.8471 70.8343 52.991C71.4418 53.5615 72.0817 54.1048 72.6968 54.6673C73.1679 54.7327 73.4789 55.076 73.8246 55.3385C74.0874 55.5303 74.2981 55.7984 74.5379 56.0298C74.7687 56.2802 75.1747 56.3107 75.3256 56.6631C75.3502 56.7177 75.4965 56.7292 75.579 56.7686C75.9487 56.9647 76.3599 57.1144 76.6572 57.3888C76.8074 57.5307 76.9654 57.6646 77.1523 57.7461C79.4605 58.954 81.9731 59.7261 84.5244 60.2052C84.7466 60.2373 84.9613 60.2932 85.217 60.1818C85.4182 60.0949 85.8198 60.1427 85.9841 60.2796C86.1181 60.3903 86.2557 60.4366 86.3913 60.4624C86.4638 60.4737 86.5236 60.4789 86.6054 60.4869C86.7314 60.5003 86.8006 60.5022 86.894 60.543C87.4018 60.7271 87.8908 60.8284 88.3886 60.9844C88.6825 61.0703 89.0463 61.0261 89.2468 61.3399C89.2677 61.3694 89.3609 61.3944 89.4014 61.3749C89.7897 61.206 90.0695 61.476 90.4014 61.5801C90.6401 61.6591 90.886 61.6987 91.177 61.6274C91.4587 61.5595 91.895 61.6161 92.1117 61.782C92.4081 62.0092 92.7157 61.9848 93.0166 62.0313C94.8039 62.3167 96.6117 62.4366 98.4167 62.4891C99.2744 62.4706 100.113 62.2795 100.974 62.3285C101.178 62.3405 101.398 62.2313 101.59 62.4007C101.628 62.4346 101.791 62.4034 101.854 62.3598C102.079 62.1908 102.317 62.2384 102.583 62.2289C103.185 62.2322 103.785 62.157 104.385 62.1085C104.984 62.0444 105.58 61.9865 106.144 61.7925C106.585 61.6526 107.024 61.5551 107.469 61.4717L108.132 61.3482C108.353 61.3019 108.567 61.2367 108.785 61.1699C109.072 61.0847 109.396 61.1228 109.7 61.0734C109.993 61.0225 110.284 60.9356 110.571 60.855C110.743 60.8048 110.932 60.8171 111.056 60.6153C111.125 60.5119 111.357 60.4087 111.472 60.4365C111.853 60.5287 112.221 60.3194 112.513 60.2214C113.222 60.0185 113.86 59.7085 114.55 59.4227C114.734 59.3471 114.61 59.2801 115.372 59.2005C115.479 59.1891 115.386 59.1484 115.387 59.1216C115.341 59.1114 115.234 59.1071 115.163 59.1005C115.077 59.0942 115.015 59.0843 115.032 59.073C115.194 58.9789 114.971 58.8839 114.694 58.8025C114.413 58.7226 114.08 58.661 113.829 58.576L111.796 57.9241C110.993 57.6651 110.193 57.3997 109.406 57.109C108.963 56.9441 108.514 56.9867 108.087 56.8215L107.459 56.5955C107.206 56.5058 106.921 56.4009 106.658 56.2987C106.302 56.1558 105.75 56.0557 105.695 55.7958C105.681 55.7269 105.439 55.6386 105.244 55.6232C104.882 55.5983 104.587 55.5234 104.378 55.4392C104.555 55.282 104.767 55.1226 104.918 54.969C105.105 54.7818 105.362 54.5854 105.585 54.396C105.807 54.2019 105.976 54.0103 106.077 53.7586C106.139 53.6207 106.482 53.4732 106.66 53.3207C106.836 53.1792 106.934 53.0816 107.042 52.9697C107.151 52.8624 107.259 52.7504 107.361 52.6355C107.46 52.5268 107.502 52.3642 107.601 52.2556C108.322 51.3736 109.004 50.4687 109.629 49.5256C109.965 49.0591 110.258 48.5604 110.573 48.0801C110.859 47.5784 111.168 47.0951 111.423 46.5782C111.971 45.5626 112.387 44.4881 112.82 43.418C112.971 43.0114 112.944 42.5153 113.356 42.2219C113.297 41.7845 113.484 41.481 113.773 41.1945C113.816 41.1529 113.765 41.0076 113.763 40.9134C113.755 40.6055 113.512 40.2751 113.903 40.0261C113.917 40.0211 113.912 39.9756 113.924 39.9503C114.029 39.697 113.737 39.4523 113.983 39.1493C114.139 38.9627 114.14 38.609 114.2 38.3298C114.254 38.0365 114.291 37.7389 114.298 37.4464C114.302 37.1446 114.499 36.8221 114.246 36.5218C114.207 36.4722 114.386 36.2615 114.38 36.1265C114.336 35.4515 114.599 34.7475 114.298 34.0897C114.218 33.9387 114.208 33.7 114.255 33.5357C114.425 32.9433 114.275 32.4007 114.156 31.8104C113.952 31.0393 113.748 30.2368 113.929 29.4085C113.962 29.2335 114.011 29.1477 113.863 29.0105C113.762 28.9196 113.727 28.7316 113.685 28.5831C113.262 26.9092 112.695 25.2756 111.951 23.7205C111.741 23.3047 111.757 22.7984 111.461 22.4077C111.34 22.2449 111.344 21.9745 111.078 21.9368C111.039 21.9297 110.986 21.8693 110.977 21.8302C110.867 21.2209 110.28 20.9014 110.06 20.3679C110.014 20.2524 109.985 20.1256 109.943 20.0085C109.9 19.8867 109.849 19.7415 109.758 19.6787C109.373 19.409 109.089 19.0668 108.818 18.7039C108.553 18.3394 108.316 17.9539 107.97 17.66C107.745 17.455 107.611 17.1227 107.251 17.0867C107.196 17.0798 107.109 16.9839 107.091 16.9167C107.019 16.6257 106.844 16.4135 106.649 16.219C106.434 16.0422 106.205 15.886 106.027 15.6802C105.845 15.465 105.509 15.3783 105.481 15.0299C105.475 14.9845 105.377 14.9296 105.312 14.8947C105.202 14.8385 105.063 14.819 104.977 14.7388C104.756 14.5008 104.534 14.2156 104.263 14.1057C103.923 13.9783 103.68 13.7532 103.405 13.5554C103.25 13.4466 103.157 13.2424 103.009 13.1052C102.876 12.9677 102.692 12.8956 102.532 12.7995C102.298 12.6606 102.034 12.5538 101.841 12.3797C101.638 12.1932 101.33 12.3071 101.161 12.0084C101.025 11.7877 100.704 11.8328 100.459 11.7665C100.339 11.7246 100.232 11.6464 100.13 11.5665C100.052 11.5097 100.001 11.3959 99.9224 11.3659C99.7341 11.2954 99.5731 11.1679 99.3327 11.1738C99.1663 11.1799 98.9829 10.9443 98.7907 10.8331C98.6002 10.7265 98.4007 10.6389 98.1936 10.5751C97.9897 10.5049 97.7879 10.3812 97.5787 10.3708C96.679 10.3304 95.9162 9.85689 95.0463 9.72164C94.8255 9.67846 94.5587 9.69896 94.4175 9.44848C94.3916 9.40495 94.2684 9.36944 94.1978 9.37857C93.3393 9.43955 92.5264 9.15241 91.6833 9.10783C91.3845 9.09748 91.089 9.09649 90.7889 9.09717C90.4907 9.11824 90.1908 9.13462 89.8917 9.10856C89.308 9.06717 88.695 8.97289 88.1311 9.0773C87.6664 9.19407 87.2158 9.30588 86.758 9.27795C86.3052 9.26408 85.9278 9.68731 85.4575 9.4003C85.011 9.47904 84.5678 9.56714 84.1194 9.62548C83.7402 9.68571 83.3731 9.81017 82.969 9.71056C82.8238 9.6723 82.5658 9.74765 82.4405 9.85519C82.0349 10.1988 81.5818 10.2588 81.0824 10.2772C80.9647 10.2871 80.857 10.4148 80.7338 10.4689C80.3673 10.6247 79.9978 10.7869 79.6164 10.9007C78.4492 11.1919 77.5398 12.0034 76.4929 12.5157C76.3014 12.615 76.1918 12.9014 76.0074 12.9613C75.4483 13.1536 74.9479 13.4674 74.4571 13.7937C73.9874 14.1494 73.5576 14.5437 73.0472 14.8295C71.5526 15.7002 70.4485 17.0495 69.3146 18.3145C69.1666 18.4775 68.866 18.5363 68.8382 18.6515C68.7725 19.0173 68.4448 19.2385 68.3857 19.5334C68.2773 20.0618 67.8726 20.3629 67.6382 20.7883C67.4994 21.1114 67.1817 21.3607 67.2315 21.77C67.242 21.8295 67.1715 21.9282 67.1172 21.9684C66.886 22.1345 66.7786 22.3674 66.6902 22.6094C66.6437 22.7313 66.6019 22.8515 66.5537 22.9686C66.5118 23.0888 66.4637 23.206 66.3838 23.308C66.3079 23.8091 66.1289 24.257 65.9216 24.6992C65.8219 24.9241 65.6905 25.1339 65.6129 25.3616C65.5306 25.591 65.4482 25.8203 65.3849 26.0588C65.3497 26.1977 65.3603 26.3468 65.3487 26.4931C65.3422 26.564 65.3485 26.6566 65.3133 26.7059C64.7072 27.4366 64.7528 28.4007 64.4662 29.245C64.3754 29.5248 64.2167 29.7916 64.1339 30.0791C64.0637 30.3727 64.1008 30.6863 63.879 30.9386C63.8113 31.0153 63.816 31.1928 63.8199 31.3231C63.8513 32.0235 63.3915 32.4969 62.7623 32.461C62.5357 32.4462 62.5409 32.2968 62.4736 32.1362C62.3516 31.8209 62.2832 31.5079 62.3489 31.1421C62.4003 30.8552 62.5113 30.5577 62.3301 30.2687C62.2978 30.2221 62.3253 30.0912 62.3603 30.0261C62.4258 29.9134 62.466 29.7885 62.5015 29.6653C62.5481 29.5434 62.5772 29.4172 62.6111 29.2893C62.6741 29.0351 62.7277 28.7843 62.8434 28.5748C63.023 28.2478 63.0752 27.9185 63.1936 27.5973C63.2877 27.3269 63.2474 27.0039 63.5422 26.7943C63.6384 26.7234 63.5635 26.4073 63.6213 26.213C63.7562 25.7595 63.9004 25.3028 64.0797 24.8705C64.7263 23.5986 64.9878 22.1465 65.8341 20.9621C65.9018 20.7063 66.0042 20.4593 66.121 20.2231C66.1802 20.1073 66.2441 19.9899 66.3096 19.8771L66.5443 19.557C66.8636 19.1333 67.1942 18.7266 67.4373 18.2665C67.7147 17.6942 68.1417 17.2324 68.5464 16.7521C68.9624 16.2889 69.3431 15.7854 69.7957 15.3514C69.9715 15.1628 70.1294 15.028 70.3459 14.9251C70.4862 14.8597 70.6342 14.7864 70.7472 14.6885L71.3979 14.0843C71.6288 13.9026 71.8644 13.7192 72.1049 13.5499C72.3626 13.3693 72.5609 13.0357 72.9388 13.0761C72.9939 13.0829 73.0991 12.993 73.1341 12.928C73.3773 12.3783 73.9703 12.2372 74.4046 11.9151C74.5721 11.7927 74.7496 11.6983 74.9877 11.6563C75.2478 11.6171 75.5567 11.4025 75.7305 11.1936C75.8677 11.0449 76.0187 10.9652 76.1725 10.8635C76.4941 10.655 76.8625 10.5195 77.2116 10.3592C77.5688 10.2067 77.8903 9.99816 78.1857 9.73041C78.6639 9.84598 79.0742 9.59031 79.4225 9.38291C79.7601 9.18984 80.0993 9.00146 80.4584 8.86929C80.8224 8.75118 81.1961 8.64546 81.5668 8.54609L82.6837 8.26203C83.0561 8.16734 83.4389 8.13218 83.8145 8.04686C84.1777 7.9712 84.5669 8.02864 84.9387 7.99211C85.1316 7.97136 85.3276 7.94427 85.5266 7.91084L86.1133 7.85631C86.322 7.83528 86.5748 7.90931 86.7202 7.69455C86.7309 7.68021 86.7684 7.66697 86.7905 7.66971C87.0187 7.68919 87.2508 7.74946 87.4671 7.72043C87.6631 7.69334 87.8411 7.54085 88.0444 7.49005C88.2853 7.42601 88.5372 7.45292 88.7886 7.44841C89.0276 7.45355 89.2877 7.41431 89.4766 7.60578C89.6722 7.38383 89.9479 7.50775 90.1865 7.49718C90.4159 7.48992 90.6441 7.5094 90.869 7.5195C91.127 7.53373 91.3761 7.58269 91.6344 7.61263C91.8896 7.6489 92.1452 7.70089 92.3968 7.71209C92.746 7.73097 93.1021 7.69472 93.453 7.71828C93.8256 7.72887 94.1892 7.84807 94.5462 7.94853C94.9902 8.0867 95.4208 8.26127 95.8635 8.41047C96.0438 8.47324 96.2163 8.45443 96.4217 8.42403C96.6838 8.40518 97.0572 8.28376 97.2671 8.68387C97.3063 8.76489 97.5257 8.8191 97.6593 8.82455C98.1767 8.84198 98.6712 8.98868 99.1385 9.19245C99.5936 9.42158 100.037 9.67607 100.514 9.84979C100.915 10.2983 101.47 10.3764 101.993 10.6341C102.381 10.8079 102.776 11.0004 103.154 11.2199C103.34 11.3282 103.529 11.4458 103.704 11.5683C103.879 11.6909 104.03 11.8485 104.181 11.9951C104.495 12.3163 104.838 12.5852 105.182 12.843C105.531 13.0992 105.886 13.3427 106.184 13.6642C106.355 13.8356 106.61 13.9457 106.625 14.2409C106.627 14.3085 106.772 14.4206 106.871 14.4597C107.208 14.6092 107.49 14.81 107.747 15.0458C107.984 15.2993 108.183 15.5927 108.377 15.9036C108.576 16.2284 108.928 16.4783 109.275 16.7298C109.544 16.9088 109.751 17.1675 109.941 17.4376C110.136 17.7059 110.325 17.987 110.523 18.249C110.484 18.6316 110.832 18.6458 111.014 18.6975C111.249 18.7672 111.399 18.8933 111.517 19.0939C111.681 19.3472 111.799 19.6216 112.099 19.7844C112.254 19.8665 112.42 20.1715 112.428 20.3584C112.442 20.6064 112.531 20.6488 112.709 20.7808C112.921 20.9326 112.839 21.2672 112.974 21.5304C113.125 21.8089 113.413 22.0866 113.291 22.4566C113.282 22.4913 113.327 22.5753 113.364 22.6046C113.873 23.015 113.792 23.6969 114.092 24.2023C114.179 24.6408 114.296 25.063 114.432 25.4785C114.505 25.6847 114.578 25.8908 114.651 26.0969C114.724 26.3031 114.773 26.5175 114.837 26.7269L115.21 27.9916C115.332 28.4121 115.45 28.8343 115.484 29.2753C115.565 29.9952 115.486 30.7399 115.726 31.4192C115.913 32.1435 115.983 32.8934 116.031 33.6406L116.06 34.1995L116.032 34.7626C116.017 35.1369 116.002 35.5112 116.002 35.8852C116.003 36.2011 116.114 36.5731 115.839 36.8389C115.805 36.8772 115.798 37.0219 115.821 37.0875C116.011 37.5791 115.893 38.037 115.672 38.4841C115.615 38.5936 115.585 38.8047 115.638 38.8807C115.785 39.1028 115.677 39.3201 115.64 39.5282C115.597 39.7804 115.372 40.0814 115.431 40.2501C115.559 40.6108 115.3 40.7443 115.213 40.9753C115.164 41.1192 115.174 41.2951 115.158 41.4588C115.153 41.5343 115.204 41.6481 115.174 41.6848C114.824 42.1091 115.019 42.6776 114.765 43.1206C114.715 43.2174 114.684 43.3233 114.627 43.417C114.313 43.9287 114.13 44.1724 113.994 44.4734C113.858 44.7744 113.773 45.1311 113.531 45.8332C113.081 46.066 113.311 46.7015 112.882 46.9795C112.729 47.0813 112.611 47.36 112.575 47.5728C112.486 48.0207 112.273 48.4174 112.044 48.7986C111.803 49.1739 111.528 49.5292 111.324 49.9226C111.241 50.0891 110.973 50.0782 110.982 50.3704C110.984 50.4803 110.653 50.6183 110.543 50.7837C110.387 51.0285 110.098 51.194 110.087 51.5509C110.08 51.6956 109.865 51.8614 109.759 52.0251C109.619 52.2539 109.368 52.3951 109.327 52.7102C109.303 52.8819 109.075 53.1469 108.904 53.2128C108.541 53.3513 108.3 53.5788 108.112 53.8509C108.02 53.9783 107.921 54.1451 107.862 54.2609L107.812 54.4629C107.789 54.534 107.798 54.5732 107.687 54.6019C107.528 54.6582 107.293 54.7252 107.39 54.7754C107.614 54.8279 107.37 54.8826 107.521 54.9081C107.677 54.9478 107.776 55.0183 107.929 55.0485C107.958 55.0543 107.945 55.0483 108.016 55.0706L108.269 55.1603L108.772 55.3461C109.114 55.4626 109.46 55.5617 109.831 55.599C110.229 55.6374 110.745 55.724 111.055 56.1255C111.092 56.1704 111.301 56.0755 111.413 56.1096L114.895 57.2242C115.085 57.2837 115.199 57.3963 115.338 57.4787C115.473 57.5627 115.627 57.6244 115.958 57.6074C116.315 57.5869 116.434 57.6869 116.532 57.7684C116.635 57.853 116.718 57.9238 117.141 57.8958C117.265 57.8889 117.619 57.9956 117.747 58.0609C118.353 58.3738 119.08 58.6122 119.935 58.853C119.809 58.9448 119.531 59.0535 119.319 59.1548L118.633 59.4657C118.17 59.6767 117.687 59.8897 117.167 60.0891C116.737 60.2572 116.422 60.5158 115.761 60.5387C115.446 60.8241 114.791 61.0291 114.253 61.1928C113.986 61.2872 113.693 61.3537 113.439 61.4541C113.189 61.5529 112.893 61.6997 112.817 61.8425C112.337 61.9281 111.91 62.3161 111.384 62.1856C111.297 62.1636 111.155 62.2668 111.065 62.2511C110.741 62.1862 110.681 62.6556 110.271 62.5262C110.039 62.4502 109.684 62.6232 109.386 62.6914L108.563 62.8979L107.647 63.0636C107.34 63.1194 107.033 63.1595 106.728 63.2357C106.423 63.3119 106.124 63.4225 105.826 63.5175C105.521 63.5937 105.211 63.6558 104.89 63.6584C104.821 63.6565 104.707 63.7073 104.686 63.7516C104.516 64.1492 104.165 63.9779 103.941 63.8939C103.752 63.8234 103.59 63.7965 103.394 63.8236C102.861 63.8803 102.322 63.9072 101.783 63.9185C101.463 63.9211 101.128 64.0607 100.819 63.8431C100.723 63.7819 100.471 63.7975 100.325 63.8488C99.6588 64.0949 98.9537 63.9488 98.2707 63.9847C97.9612 63.9886 97.6511 63.9612 97.338 63.9401C97.1051 63.9223 96.8579 64.0729 96.6302 63.9057C96.0448 64.0388 95.4611 63.9974 94.88 63.9339C94.296 63.8769 93.7174 63.7757 93.1378 63.7012C92.5614 63.6361 91.9834 63.5663 91.4126 63.4572C90.8387 63.3543 90.2679 63.2451 89.6981 63.1092C89.4156 63.0404 89.0678 63.1001 88.8736 62.7893C88.8364 62.7286 88.6313 62.6852 88.558 62.7164C88.3585 62.8079 88.2193 62.8466 88.077 62.6228C88.0511 62.5793 87.8846 62.5854 87.792 62.5918C87.5349 62.6247 87.3309 62.5545 87.1128 62.3997C86.9441 62.2802 86.7045 62.154 86.5033 62.1513L86.4498 62.1492L86.4358 62.1541L86.4126 62.1781L86.3942 62.2005C86.3942 62.2005 86.4306 62.2139 86.4369 62.217L86.3914 62.2225C86.2627 62.2311 86.1387 62.238 86.0127 62.2246C85.7641 62.207 85.5177 62.136 85.2806 61.9721C85.2233 61.9292 85.0262 62.0726 84.9127 62.0495C84.4819 61.9488 84.0012 62.0501 83.6108 61.7507C83.4515 61.6278 83.1827 61.6279 82.9661 61.5517C82.5992 61.4231 82.2103 61.4709 81.8332 61.2986C81.6446 61.2124 81.4362 61.1595 81.2248 61.113C81.0117 61.0619 80.8031 60.9933 80.5991 60.9231L79.3782 60.4956C78.9733 60.3488 78.5546 60.2228 78.1738 60.0253L76.9995 59.4759C76.6141 59.2801 76.2045 59.135 75.8403 58.8948L74.7268 58.2344C74.4663 58.0787 74.2432 57.9099 74.0331 57.6732C73.5343 57.0221 72.7769 56.5046 71.7319 55.978C71.6588 55.9353 71.6026 55.8656 71.5402 55.8086C70.7158 55.0565 69.8002 54.3893 69.1257 53.4946C68.8125 53.1152 68.5706 52.6843 68.2154 52.3355C67.9943 52.0975 67.8415 51.8142 67.5181 51.6597C67.2485 51.5231 67.1998 51.0871 66.8175 50.9745C66.6769 50.9346 66.4933 50.6833 66.4574 50.5221C66.3439 49.9772 65.9862 49.5766 65.7173 49.1289C65.4313 48.6028 65.0689 48.1143 64.8047 47.5753C64.6648 47.3138 64.606 47.0131 64.2948 46.8333C64.1423 46.7449 64.0432 46.3899 64.0202 46.1609C63.9998 45.9837 63.9498 45.8274 63.8811 45.6778C63.8265 45.5232 63.7484 45.3769 63.669 45.2416C63.319 44.6538 63.3003 44.6604 63.1955 43.9913C63.1831 43.9114 63.155 43.8317 63.1221 43.7537C63.0526 43.557 62.9737 43.3635 62.9135 43.1635L62.7611 42.5533C62.6549 42.1482 62.5425 41.7558 62.377 41.3768C62.2504 41.0632 62.1033 40.7516 62.0409 40.4258C61.9675 40.0987 61.9097 39.7713 61.852 39.4439C61.8064 39.1807 61.6426 38.896 61.8517 38.6377C61.8809 38.601 61.8546 38.4522 61.8127 38.3932C61.7209 38.2676 61.6572 38.132 61.6075 37.9915C61.5642 37.854 61.5536 37.7049 61.5384 37.5574C61.519 37.2639 61.534 36.9635 61.5116 36.6763C61.4764 36.1143 61.197 35.607 61.2447 35.0263C61.3103 34.4813 61.2847 33.9318 61.3046 33.3767C61.3305 32.5402 61.4878 32.3739 62.1614 32.431C62.7218 32.4806 62.8324 32.6892 62.9366 33.3269C63.0476 33.9991 63.025 34.6659 63.0286 35.3023C63.0683 35.9364 63.0823 36.5428 63.1564 37.0805L63.1497 37.0617Z" fill="#FFCD7D"/>
<path d="M83.9733 90.439C87.1988 106.094 77.1816 121.446 61.6091 124.729C61.6091 124.729 45.864 132.473 28.8043 126.686C28.8043 126.686 34.7745 124.165 40.6441 121.036C34.1486 117.015 29.2436 110.437 27.5732 102.326C24.3477 86.6712 34.3649 71.3186 49.9374 68.0359C65.5099 64.7532 80.7531 74.7854 83.9733 90.439Z" fill="#35BA95"/>
<path d="M84.0354 95.5329C84.1055 96.2797 84.04 96.9575 84.0159 97.5998C84.0011 97.9204 83.9823 98.2344 83.9645 98.5431C83.9468 98.8519 83.9303 99.1553 83.8647 99.4535C83.829 99.641 83.6584 99.8324 83.6293 100.066C83.5658 100.532 83.4668 101.007 83.3862 101.475C83.3571 101.709 83.3055 101.943 83.2498 102.171C83.1994 102.4 83.1714 102.628 83.1542 102.859C83.1209 103.365 83.045 103.862 82.9383 104.347C82.821 104.829 82.6102 105.279 82.4041 105.708C82.2027 106.116 82.0332 106.531 81.8797 106.95C81.7061 107.358 81.5005 107.759 81.3014 108.157C81.1647 108.422 81.0133 108.679 81.0223 109.044C81.0299 109.314 80.8563 109.722 80.4935 109.899C80.4244 109.934 80.394 110.073 80.3622 110.166C80.3281 110.27 80.3402 110.418 80.2771 110.477C79.5544 111.071 79.328 111.998 78.7078 112.66C78.5645 112.83 78.4976 113.083 78.2126 113.11C78.1387 113.116 78.006 113.287 78.0108 113.367C78.0184 113.586 77.9341 113.741 77.8121 113.915C77.2274 114.618 76.6037 115.296 76.0096 115.991C75.5054 116.126 75.2129 116.541 74.8718 116.874C74.6115 117.118 74.4182 117.438 74.1881 117.723C73.9705 118.026 73.5325 118.114 73.4156 118.518C73.3962 118.581 73.2384 118.613 73.1539 118.667C72.7777 118.931 72.35 119.149 72.0633 119.488C71.9188 119.663 71.7648 119.83 71.5722 119.944C69.2212 121.57 66.589 122.749 63.8752 123.615C63.6376 123.679 63.4113 123.769 63.1178 123.682C62.887 123.615 62.4561 123.721 62.2956 123.892C62.1646 124.031 62.021 124.1 61.8768 124.146C61.7994 124.168 61.735 124.182 61.6469 124.202C61.5115 124.233 61.4365 124.245 61.3402 124.301C60.812 124.57 60.2932 124.747 59.772 124.984C59.4636 125.117 59.0615 125.117 58.8854 125.486C58.8665 125.521 58.7685 125.561 58.7217 125.545C58.2761 125.414 58.0077 125.745 57.6603 125.903C57.411 126.021 57.1486 126.098 56.8221 126.059C56.5062 126.023 56.0387 126.144 55.825 126.353C55.5329 126.641 55.1946 126.656 54.8731 126.747C52.9653 127.298 51.0127 127.672 49.0541 127.973C48.1176 128.068 47.1783 127.973 46.2478 128.142C46.0267 128.183 45.7728 128.093 45.587 128.304C45.5498 128.346 45.3682 128.334 45.293 128.295C45.0254 128.141 44.7725 128.225 44.4822 128.25C43.8271 128.335 43.163 128.334 42.5037 128.362C41.8425 128.373 41.1856 128.39 40.5454 128.255C40.0467 128.162 39.5546 128.115 39.059 128.084L38.3208 128.039C38.0742 128.018 37.8322 127.976 37.585 127.932C37.262 127.878 36.9138 127.963 36.5761 127.95C36.2502 127.934 35.9219 127.879 35.5977 127.83C35.4037 127.798 35.1998 127.837 35.0379 127.634C34.949 127.531 34.6821 127.45 34.5604 127.496C34.1586 127.647 33.7289 127.469 33.3976 127.401C32.599 127.276 31.8616 127.024 31.0723 126.806C30.8616 126.748 30.9874 126.659 30.1465 126.675C30.0288 126.677 30.1251 126.62 30.1203 126.591C30.1688 126.574 30.2847 126.554 30.3609 126.538C30.4543 126.519 30.5199 126.5 30.4998 126.49C30.311 126.409 30.5413 126.276 30.8315 126.15C31.1269 126.025 31.4809 125.913 31.7432 125.787L33.869 124.803C34.7086 124.413 35.544 124.016 36.3627 123.594C36.8229 123.354 37.3173 123.34 37.7604 123.103L38.4137 122.772C38.6772 122.64 38.9732 122.488 39.2455 122.341C39.6141 122.138 40.2016 121.954 40.2264 121.664C40.2322 121.587 40.4839 121.458 40.6943 121.415C41.0851 121.339 41.3965 121.218 41.6127 121.098C41.3995 120.951 41.1467 120.806 40.9613 120.659C40.7326 120.48 40.4259 120.301 40.1577 120.125C39.8906 119.943 39.6803 119.757 39.5367 119.497C39.4506 119.355 39.0572 119.24 38.8428 119.098C38.6314 118.968 38.5124 118.875 38.3797 118.767C38.2458 118.665 38.1131 118.558 37.987 118.447C37.8649 118.342 37.7966 118.17 37.6745 118.065C36.7704 117.202 35.9063 116.308 35.0978 115.365C34.6693 114.903 34.2833 114.399 33.8755 113.918C33.496 113.411 33.0947 112.926 32.7477 112.397C32.0146 111.365 31.4169 110.251 30.8008 109.144C30.5812 108.722 30.5446 108.178 30.0556 107.914C30.0617 107.429 29.8163 107.124 29.4633 106.851C29.4105 106.811 29.4469 106.646 29.436 106.543C29.404 106.207 29.6244 105.815 29.1645 105.596C29.1485 105.593 29.1484 105.542 29.1318 105.516C28.9828 105.255 29.2678 104.949 28.9591 104.652C28.7648 104.47 28.7155 104.085 28.6132 103.789C28.5144 103.477 28.4339 103.157 28.3866 102.84C28.3416 102.512 28.0837 102.187 28.3195 101.826C28.3549 101.767 28.1321 101.561 28.12 101.414C28.0765 100.673 27.6959 99.9413 27.9351 99.1845C28.0016 99.0093 27.981 98.748 27.9073 98.5754C27.6423 97.9532 27.7321 97.3422 27.7822 96.6833C27.9006 95.8161 28.0152 94.9146 27.706 94.0371C27.6464 93.8509 27.5818 93.7641 27.7252 93.5947C27.8225 93.4821 27.8351 93.2727 27.8608 93.1053C28.0959 91.2255 28.4931 89.3701 29.0945 87.5765C29.2674 87.0953 29.1817 86.5461 29.4517 86.0808C29.5613 85.8872 29.5199 85.5933 29.8048 85.5165C29.8467 85.5034 29.8962 85.4306 29.9003 85.3868C29.938 84.7084 30.5344 84.2814 30.7023 83.6708C30.7369 83.5388 30.7514 83.3969 30.7807 83.2638C30.8112 83.1253 30.8475 82.9603 30.9378 82.8796C31.3209 82.5341 31.5845 82.1232 31.8302 81.6916C32.0706 81.2588 32.2761 80.8072 32.6136 80.4404C32.8313 80.1869 32.9317 79.807 33.3194 79.7193C33.3786 79.7044 33.4599 79.5883 33.471 79.5126C33.5094 79.1861 33.6715 78.9315 33.8579 78.6934C34.0686 78.4718 34.297 78.2708 34.4633 78.0227C34.6319 77.7639 34.9865 77.6243 34.9703 77.2411C34.9702 77.1908 35.07 77.1179 35.1361 77.071C35.2478 76.9951 35.3961 76.9552 35.4793 76.8563C35.6881 76.5673 35.8914 76.2268 36.1714 76.0707C36.5247 75.8861 36.7589 75.6083 37.0322 75.3558C37.1857 75.2165 37.2597 74.9816 37.4031 74.8122C37.5293 74.6446 37.7195 74.5413 37.8813 74.415C38.1169 74.2324 38.3904 74.0804 38.5774 73.8648C38.7733 73.6344 39.1235 73.717 39.2671 73.369C39.3855 73.1103 39.7415 73.1161 39.9991 73.0109C40.1244 72.9492 40.23 72.8496 40.3303 72.7489C40.4077 72.6766 40.4476 72.5458 40.5297 72.5025C40.7253 72.4004 40.8834 72.2398 41.1459 72.2138C41.3281 72.1981 41.496 71.9169 41.6903 71.7698C41.8834 71.6281 42.0889 71.5058 42.3058 71.4084C42.5185 71.3045 42.7216 71.1427 42.948 71.1032C43.9222 70.938 44.6892 70.3196 45.6183 70.0552C45.8529 69.9784 46.1462 69.9648 46.2663 69.6731C46.2886 69.6222 46.418 69.5669 46.4961 69.5673C47.4392 69.5181 48.2858 69.096 49.198 68.9339C49.5219 68.8824 49.8436 68.8415 50.1705 68.8018C50.4981 68.7846 50.8269 68.762 51.149 68.6934C51.7792 68.5697 52.434 68.3845 53.0622 68.4222C53.5839 68.4868 54.0896 68.5479 54.5844 68.4559C55.0757 68.3798 55.5437 68.7898 56.0172 68.4139C56.514 68.4396 57.0085 68.4758 57.5047 68.479C57.9257 68.4935 58.3422 68.5796 58.7689 68.4167C58.9219 68.3555 59.213 68.4028 59.364 68.503C59.8519 68.8226 60.3534 68.8269 60.8997 68.7796C61.0292 68.7747 61.1637 68.8992 61.3052 68.9415C61.7253 69.0618 62.1495 69.1887 62.5802 69.2612C63.8904 69.4212 64.9901 70.1824 66.1991 70.5993C66.4211 70.6816 66.579 70.9788 66.7878 71.0192C67.4226 71.1533 68.0098 71.4277 68.5882 71.7169C69.1477 72.041 69.6688 72.4126 70.263 72.655C72.0079 73.4019 73.392 74.7227 74.7972 75.9475C74.9802 76.105 75.3156 76.1286 75.3614 76.2503C75.4822 76.6398 75.8688 76.8366 75.9729 77.1498C76.1621 77.7106 76.6434 77.984 76.9559 78.4157C77.1506 78.7488 77.5301 78.9775 77.531 79.4299C77.5276 79.4962 77.6177 79.5942 77.6822 79.6307C77.9563 79.7804 78.1046 80.0196 78.2335 80.2712C78.3006 80.3976 78.3623 80.5229 78.4306 80.644C78.4923 80.7692 78.5606 80.8903 78.6613 80.9907C78.8114 81.5261 79.0666 81.9899 79.352 82.4435C79.4908 82.675 79.6622 82.8858 79.7774 83.1233C79.8979 83.3619 80.0184 83.6006 80.1195 83.8517C80.1765 83.9983 80.1851 84.1621 80.2174 84.3199C80.2341 84.3962 80.2396 84.4979 80.2847 84.5469C81.0431 85.2609 81.1233 86.3169 81.549 87.1978C81.6856 87.4903 81.8943 87.7595 82.0233 88.0614C82.1392 88.3717 82.1411 88.7182 82.4166 88.9631C82.5007 89.0374 82.5194 89.2314 82.5327 89.3738C82.5928 90.1407 83.1573 90.5944 83.8377 90.4706C84.0825 90.424 84.0567 90.262 84.1084 90.078C84.1987 89.7182 84.2311 89.3681 84.1103 88.9786C84.0157 88.673 83.8548 88.3641 84.0132 88.0249C84.042 87.9699 83.9945 87.831 83.9476 87.7648C83.861 87.6509 83.8004 87.5203 83.7452 87.3909C83.6781 87.2645 83.6294 87.1309 83.5753 86.9962C83.4724 86.7279 83.3802 86.462 83.226 86.2494C82.9865 85.9176 82.8852 85.5659 82.713 85.2321C82.5741 84.9503 82.5746 84.5931 82.2253 84.4046C82.111 84.3403 82.1499 83.986 82.0608 83.7822C81.8529 83.3066 81.6343 82.8286 81.3809 82.382C80.5054 81.0839 80.025 79.5379 78.944 78.362C78.8358 78.0926 78.691 77.8374 78.5321 77.5959C78.452 77.4777 78.3666 77.3585 78.28 77.2445L77.9813 76.9275C77.5766 76.5091 77.1618 76.1107 76.835 75.6424C76.456 75.0565 75.9288 74.6111 75.4234 74.1426C74.908 73.6942 74.4256 73.1972 73.8742 72.7855C73.6574 72.6038 73.4673 72.4782 73.2176 72.3954C73.0561 72.3431 72.885 72.2831 72.7488 72.1917L71.9588 71.6214C71.6829 71.4546 71.4016 71.2866 71.1169 71.1346C70.812 70.9726 70.5511 70.6361 70.145 70.7309C70.0859 70.7458 69.9592 70.6621 69.9124 70.596C69.5735 70.0301 68.9087 69.9563 68.3924 69.6641C68.1935 69.5533 67.9875 69.4745 67.7226 69.4608C67.434 69.4531 67.0687 69.261 66.8513 69.0569C66.6819 68.9135 66.5067 68.847 66.3255 68.7569C65.9473 68.5732 65.5278 68.4752 65.126 68.3477C64.7165 68.2297 64.3383 68.0459 63.9806 67.7941C63.4753 67.9844 62.9941 67.7612 62.5869 67.5823C62.1933 67.4175 61.7985 67.258 61.3897 67.1624C60.9773 67.0828 60.5562 67.018 60.1391 66.9597L58.8845 66.8008C58.4663 66.7479 58.0447 66.7611 57.6241 66.7188C57.2184 66.6853 56.8023 66.8003 56.3925 66.8106C56.1796 66.814 55.9626 66.8108 55.7414 66.8012L55.095 66.8209C54.865 66.8261 54.5997 66.9407 54.4124 66.7264C54.3988 66.7123 54.3562 66.7029 54.3325 66.7089C54.0866 66.7608 53.842 66.8577 53.6025 66.8552C53.3854 66.8521 53.1711 66.71 52.9428 66.6821C52.6718 66.6448 52.4011 66.708 52.1268 66.7369C51.8672 66.7747 51.5786 66.767 51.3987 67.001C51.1558 66.7856 50.8723 66.9577 50.611 66.9783C50.3603 67.0013 50.1144 67.0532 49.8708 67.0945C49.5918 67.1448 49.327 67.2316 49.0498 67.299C48.7767 67.3729 48.5055 67.4639 48.233 67.51C47.8552 67.5776 47.4625 67.5861 47.0836 67.659C46.6793 67.7207 46.2994 67.8995 45.9242 68.0569C45.4592 68.2672 45.0138 68.5153 44.5518 68.7374C44.3639 68.83 44.1735 68.8328 43.9458 68.8273C43.6578 68.8421 43.2348 68.7602 43.0601 69.2242C43.0284 69.3177 42.7967 69.4062 42.6519 69.4302C42.0909 69.5188 41.5721 69.7452 41.0907 70.03C40.6259 70.3408 40.1777 70.6776 39.6809 70.9311C39.3047 71.4736 38.7113 71.6333 38.1762 71.9844C37.7769 72.2259 37.373 72.4887 36.9909 72.7787C36.8032 72.9216 36.613 73.0751 36.4389 73.2322C36.2648 73.3892 36.122 73.5811 35.9763 73.7612C35.6779 74.1533 35.3409 74.4922 35.0009 74.8194C34.6556 75.1453 34.302 75.4583 34.0207 75.8485C33.8573 76.0582 33.5945 76.2125 33.6182 76.5359C33.6243 76.6098 33.4814 76.7515 33.3798 76.8073C33.0325 77.0155 32.7527 77.2722 32.5043 77.5636C32.2802 77.8716 32.1035 78.2179 31.9339 78.5825C31.7608 78.9631 31.4114 79.2826 31.0673 79.6032C30.7987 79.8344 30.6077 80.144 30.4368 80.4637C30.2606 80.7822 30.0928 81.1137 29.9124 81.4257C30.0061 81.8372 29.6295 81.8994 29.4387 81.9802C29.1917 82.0878 29.0454 82.2454 28.9435 82.4797C28.7998 82.7775 28.7082 83.0923 28.4035 83.3099C28.2452 83.4203 28.1058 83.7748 28.1222 83.9793C28.1405 84.2513 28.0495 84.3095 27.873 84.4772C27.6629 84.671 27.7972 85.0244 27.6855 85.3291C27.5584 85.6529 27.2823 85.9941 27.4653 86.3805C27.4795 86.4171 27.4413 86.5147 27.4053 86.5515C26.9066 87.067 27.0861 87.7987 26.8276 88.3894C26.7926 88.8786 26.7214 89.3542 26.6289 89.8251C26.5773 90.0594 26.5257 90.2937 26.4742 90.528C26.4226 90.7622 26.3976 91.0024 26.3567 91.239L26.1207 92.6665C26.0442 93.1409 25.973 93.6165 25.9947 94.1014C26.0039 94.8962 26.1907 95.6965 26.0207 96.4686C25.9141 97.2826 25.9388 98.1086 25.9872 98.9288L26.031 99.5414L26.1369 100.151C26.204 100.556 26.271 100.962 26.3209 101.369C26.3624 101.713 26.2923 102.133 26.6275 102.386C26.6696 102.423 26.6965 102.58 26.6801 102.654C26.5399 103.215 26.7295 103.698 27.0308 104.155C27.1068 104.267 27.1687 104.492 27.121 104.582C26.9908 104.844 27.1374 105.066 27.2058 105.288C27.2862 105.557 27.5724 105.854 27.5302 106.046C27.44 106.456 27.7394 106.566 27.8653 106.806C27.9383 106.956 27.9517 107.149 27.9911 107.325C28.0066 107.407 27.9667 107.538 28.0034 107.574C28.4425 107.988 28.306 108.634 28.6428 109.082C28.7104 109.181 28.7585 109.292 28.8326 109.386C29.2441 109.901 29.4758 110.142 29.6645 110.451C29.8531 110.761 29.9935 111.138 30.3515 111.87C30.8729 112.063 30.7082 112.786 31.2125 113.031C31.3937 113.121 31.5593 113.409 31.6265 113.636C31.7842 114.111 32.0695 114.515 32.3701 114.899C32.6837 115.275 33.0309 115.625 33.3055 116.026C33.4188 116.196 33.7085 116.148 33.7387 116.467C33.7514 116.588 34.13 116.693 34.2723 116.858C34.475 117.104 34.8124 117.245 34.8723 117.633C34.8993 117.789 35.1562 117.941 35.2932 118.105C35.4769 118.335 35.7687 118.455 35.8563 118.793C35.9052 118.976 36.189 119.234 36.3848 119.283C36.7978 119.385 37.091 119.6 37.3328 119.871C37.4501 119.998 37.5806 120.166 37.6607 120.284L37.7421 120.497C37.776 120.572 37.7719 120.616 37.8967 120.632C38.0778 120.672 38.3422 120.713 38.2436 120.781C38.0066 120.868 38.2799 120.895 38.1185 120.943C37.9537 121.007 37.8557 121.097 37.6932 121.151C37.663 121.161 37.676 121.153 37.6016 121.187L37.3381 121.318L36.8153 121.588C36.459 121.761 36.0956 121.916 35.696 122.006C35.2675 122.102 34.7178 122.266 34.4338 122.745C34.3996 122.799 34.1593 122.723 34.0417 122.776L30.3999 124.458C30.2014 124.549 30.0929 124.687 29.9517 124.795C29.8159 124.905 29.657 124.993 29.294 125.019C28.9031 125.044 28.7863 125.169 28.6913 125.271C28.5898 125.377 28.5089 125.466 28.0454 125.492C27.9094 125.501 27.5383 125.665 27.4072 125.754C26.7895 126.176 26.0297 126.533 25.1316 126.911C25.2808 126.994 25.5979 127.075 25.8423 127.156L26.6311 127.403C27.1637 127.57 27.7187 127.737 28.3116 127.884C28.8032 128.009 29.1804 128.248 29.9036 128.184C30.2855 128.453 31.0262 128.588 31.6337 128.694C31.9372 128.76 32.2649 128.793 32.5555 128.869C32.8406 128.943 33.1827 129.062 33.2847 129.208C33.82 129.236 34.337 129.601 34.8918 129.388C34.9834 129.353 35.1527 129.446 35.2485 129.417C35.5918 129.302 35.7212 129.805 36.1495 129.609C36.3924 129.495 36.8025 129.636 37.1355 129.67L38.0594 129.784L39.0797 129.841C39.4215 129.861 39.7615 129.863 40.104 129.905C40.4465 129.947 40.7861 130.027 41.1239 130.09C41.4664 130.132 41.8124 130.158 42.1618 130.118C42.2369 130.106 42.3677 130.146 42.3968 130.192C42.6359 130.602 42.9944 130.368 43.2278 130.246C43.4233 130.144 43.5965 130.093 43.8135 130.096C44.4019 130.086 44.992 130.043 45.5803 129.983C45.9297 129.942 46.3137 130.049 46.6207 129.771C46.7163 129.691 46.9936 129.674 47.1587 129.71C47.9178 129.889 48.666 129.635 49.4145 129.582C49.7521 129.544 50.0861 129.473 50.4243 129.407C50.6755 129.357 50.9649 129.487 51.1904 129.275C51.8458 129.341 52.4759 129.217 53.1001 129.07C53.7285 128.929 54.3449 128.741 54.9661 128.582C55.585 128.433 56.205 128.279 56.812 128.084C57.4231 127.894 58.03 127.698 58.6322 127.474C58.9306 127.361 59.3174 127.379 59.4869 127.014C59.5193 126.943 59.7368 126.868 59.8208 126.892C60.0504 126.965 60.2072 126.989 60.332 126.726C60.3544 126.675 60.5365 126.659 60.6382 126.654C60.9227 126.655 61.1354 126.551 61.352 126.353C61.5196 126.2 61.7635 126.03 61.9823 126L62.0402 125.991L62.0562 125.994L62.0846 126.017L62.1077 126.039C62.1077 126.039 62.0699 126.059 62.0634 126.063L62.1137 126.063C62.255 126.055 62.391 126.046 62.5264 126.014C62.7947 125.961 63.0535 125.851 63.2897 125.641C63.3463 125.586 63.5802 125.716 63.7007 125.675C64.1563 125.508 64.6934 125.553 65.0782 125.175C65.2352 125.019 65.5279 124.983 65.7535 124.871C66.1358 124.682 66.5657 124.681 66.9532 124.443C67.1469 124.324 67.3667 124.238 67.5907 124.159C67.8158 124.074 68.0338 123.972 68.2465 123.868L69.5185 123.238C69.9397 123.023 70.3787 122.83 70.7667 122.563L71.9716 121.807C72.3649 121.542 72.7914 121.329 73.1557 121.018L74.2793 120.149C74.5421 119.944 74.7622 119.73 74.9592 119.444C75.4147 118.668 76.1698 118.003 77.2369 117.288C77.3107 117.232 77.3626 117.149 77.4228 117.078C78.2193 116.148 79.1265 115.298 79.7406 114.233C80.0306 113.778 80.236 113.276 80.5758 112.848C80.7845 112.559 80.9128 112.23 81.2441 112.018C81.5193 111.833 81.5136 111.352 81.9148 111.178C82.0625 111.115 82.2287 110.817 82.2461 110.637C82.2963 110.028 82.6318 109.544 82.8644 109.02C83.105 108.408 83.4338 107.828 83.649 107.205C83.7661 106.901 83.7897 106.566 84.1044 106.328C84.2585 106.211 84.3186 105.812 84.3128 105.559C84.3112 105.363 84.3445 105.186 84.3992 105.014C84.4379 104.839 84.5032 104.669 84.5715 104.511C84.8735 103.823 84.8948 103.828 84.9187 103.085C84.9215 102.997 84.9414 102.906 84.9666 102.817C85.0159 102.593 85.0757 102.372 85.1143 102.146L85.1981 101.461C85.2593 101.005 85.3288 100.563 85.458 100.128C85.5537 99.7694 85.6718 99.4102 85.6959 99.0471C85.7318 98.6809 85.7506 98.3166 85.7694 97.9523C85.7836 97.6595 85.9237 97.3275 85.6612 97.0743C85.6245 97.0383 85.633 96.8727 85.6707 96.8029C85.7538 96.6537 85.8049 96.4974 85.8401 96.3377C85.8687 96.1821 85.8601 96.0183 85.8568 95.8557C85.8385 95.5334 85.7816 95.2083 85.7674 94.8925C85.7301 94.2758 85.966 93.6857 85.8359 93.0597C85.691 92.4752 85.6448 91.8732 85.5484 91.2714C85.4076 90.3639 85.2139 90.2041 84.488 90.3569C83.8845 90.4865 83.7921 90.7285 83.7646 91.437C83.7341 92.184 83.8485 92.907 83.9304 93.6005C83.9726 94.2965 84.0389 94.9587 84.0307 95.5542L84.0354 95.5329Z" fill="#35BA95"/>
<circle cx="81.129" cy="35.129" r="2.12903" fill="#FEFFF2"/>
<circle cx="89.6451" cy="35.129" r="2.12903" fill="#FEFFF2"/>
<circle cx="98.8707" cy="35.129" r="2.12903" fill="#FEFFF2"/>
<circle cx="48.129" cy="97.129" r="2.12903" fill="#FEFFF2"/>
<circle cx="56.6451" cy="97.129" r="2.12903" fill="#FEFFF2"/>
<circle cx="65.8707" cy="97.129" r="2.12903" fill="#FEFFF2"/>
</svg>
