<svg width="242" height="30" viewBox="0 0 242 30" fill="none" xmlns="http://www.w3.org/2000/svg">
<g clip-path="url(#clip0_813_137)">
<path d="M205.202 1.08211H194.584C188.082 1.08211 182.807 6.36714 182.807 12.8889C182.807 19.4106 188.077 24.6956 194.584 24.6956H199.039V29.9952C209.424 26.541 216.64 19.8744 216.979 12.8889C217.033 11.7923 217.217 8.03863 214.582 4.91303C211.263 0.971002 206.012 1.05313 205.197 1.08211H205.202Z" fill="#35BA95"/>
<path d="M13.0295 9.43924C12.7772 9.46339 12.5491 9.39576 12.3404 9.246C12.0881 9.06242 11.9619 8.86919 11.9522 8.6518C11.9522 8.43441 11.826 8.23151 11.5834 8.04793C10.9865 7.57933 10.2198 7.67112 9.30261 8.29914C8.38545 8.92716 8.76396 9.41991 10.4479 9.77257C10.6323 9.80639 10.8264 9.8547 11.0447 9.88851C11.2631 9.93199 11.4815 9.97064 11.7096 10.0045C14.4708 10.4827 16.6496 11.304 18.2462 12.4586C20.2164 13.8982 21.3422 15.7677 21.6382 18.0721C21.9342 20.3909 21.284 22.4537 19.702 24.2798C17.8337 26.4392 15.3006 27.6808 12.0978 27.9996C8.89984 28.3185 6.13379 27.647 3.80934 26.0045C1.80517 24.6083 0.553169 22.8402 0.0484869 20.7146C-0.169885 19.7098 0.334797 18.932 1.56253 18.3861C2.10118 18.1349 2.69807 17.9513 3.35318 17.8499C4.0083 17.7484 4.63915 17.6808 5.23118 17.6663C6.21629 17.6663 7.09948 17.7822 7.89047 18.0189C8.68147 18.246 9.12791 18.5793 9.24438 19.0141C9.25409 19.0962 9.28805 19.1832 9.33658 19.2653C9.46275 19.56 9.71509 19.7919 10.0936 19.9272C10.5401 20.1107 11.0544 20.0769 11.6513 19.845C12.2482 19.6132 12.4181 19.217 12.1657 18.6566C12.0298 18.3958 11.6707 18.1784 11.0884 18.0189C9.69083 17.6083 8.28839 17.2991 6.89081 17.0962C5.50294 16.8885 4.17329 16.3185 2.93585 15.4054C2.02839 14.7532 1.3296 13.874 0.824921 12.7581C0.320239 11.6373 0.150394 10.1446 0.310533 8.29431C0.553169 5.79672 1.75664 3.73875 3.93551 2.13006C5.20692 1.1832 6.66274 0.555179 8.29325 0.236338C9.92376 -0.0825025 11.5057 -0.0825025 13.0392 0.236338C14.5775 0.555179 15.9605 1.1832 17.1883 2.13006C18.416 3.07692 19.2652 4.34262 19.7359 5.9175C19.9203 6.52136 19.7359 7.04793 19.2216 7.48272C18.6926 7.9175 18.0521 8.27982 17.2708 8.56484C16.4895 8.84986 15.6888 9.06726 14.8735 9.21701C14.0583 9.36677 13.442 9.43441 13.0392 9.44407L13.0295 9.43441V9.43924Z" fill="#1D4C5C"/>
<path d="M41.8645 9.98551C41.3355 10.0097 40.8115 10.0435 40.2922 10.0773C39.7633 10.1111 39.2586 10.1691 38.7685 10.2609C37.5068 10.5121 36.3615 11.1063 35.3424 12.0435C34.3234 12.9807 33.9449 14.1449 34.2166 15.5266C34.3428 16.1546 34.6534 16.657 35.1095 17.0097C35.8568 17.5894 36.8419 17.8792 38.0794 17.8406C39.3168 17.8068 40.3844 17.6908 41.2773 17.4879C41.782 17.3188 42.277 17.3382 42.7574 17.5556C43.2038 17.7729 43.6066 18.1353 43.9609 18.6618C44.5238 19.5169 44.912 20.6715 45.1207 22.0966C45.3293 23.5362 45.2468 24.7101 44.878 25.6473C44.582 26.4106 44.121 26.8696 43.5144 27.0048C41.5442 27.7246 39.375 28.0676 37.0118 28.0531C34.6485 28.029 32.5279 27.5942 30.6596 26.7536C28.1265 25.6232 26.1902 23.9469 24.846 21.7295C23.5067 19.5169 22.968 17.0048 23.2398 14.1739C23.7105 9.70048 25.4866 6.19323 28.5826 3.6715C31.6786 1.14976 35.5317 0.135264 40.1418 0.623186C40.9085 0.705312 41.5879 1.10145 42.1702 1.82125C42.7428 2.54106 43.2233 3.78261 43.6018 5.56522C43.9803 7.34782 43.7522 8.64734 42.9272 9.4686C42.6167 9.77778 42.2527 9.9372 41.8499 9.94686L41.8596 9.98067L41.8645 9.98551Z" fill="#1D4C5C"/>
<path d="M57.1118 27.1884C56.8837 27.657 55.7482 27.942 53.7197 28.0435C51.6913 28.1449 50.2355 28 49.3766 27.6087C48.998 27.4251 48.6195 26.2029 48.2507 23.9227C47.8819 21.6377 47.5616 19.0966 47.2996 16.2657C47.023 13.4348 46.8289 10.7053 46.693 8.08212C46.5571 5.45894 46.5232 3.71014 46.5911 2.82125C46.659 2.09179 47.2656 1.54106 48.4157 1.15459C49.5513 0.777777 50.7984 0.560385 52.1669 0.516907C53.5208 0.473429 54.7679 0.599033 55.918 0.884057C57.0535 1.16908 57.6601 1.61353 57.7426 2.20773C57.8445 3.22222 57.9367 4.42029 58.0047 5.81642C58.0726 7.20773 58.1211 8.6715 58.1406 10.2126C59.1596 10.1691 60.2272 10.1304 61.3385 10.1111C61.2948 8.57971 61.2706 7.13043 61.2803 5.76328C61.2803 4.3913 61.3239 3.20773 61.3967 2.2029C61.4307 1.59903 62.0179 1.1401 63.1389 0.845409C64.2647 0.550723 65.5118 0.425119 66.8657 0.458936C68.2196 0.492752 69.4813 0.700482 70.6363 1.07729C71.7961 1.45411 72.4269 2 72.5386 2.7343C72.655 3.61353 72.6987 5.37198 72.6744 7.99517C72.6405 10.6184 72.558 13.3478 72.3978 16.1787C72.2377 19.0097 72.0436 21.5652 71.767 23.8357C71.4904 26.1063 71.1847 27.3285 70.8255 27.5121C69.9909 27.9227 68.5448 28.0725 66.5163 27.9903C64.4879 27.8986 63.3427 27.6232 63.0903 27.1594C62.8962 26.9082 62.7118 26.1787 62.5177 24.9807C62.3236 23.7826 62.1489 22.3237 61.9888 20.599C61.3142 20.7343 60.6349 20.8502 59.9458 20.9517C59.2567 21.0531 58.5822 21.1449 57.9173 21.2271C57.8251 22.7923 57.7087 24.1159 57.5728 25.1884C57.4369 26.2609 57.2962 26.9227 57.136 27.1739L57.1118 27.2077V27.1884Z" fill="#1D4C5C"/>
<path d="M101.499 16.3092C100.878 20.0773 99.0439 23.1111 95.9964 25.4058C92.9586 27.7102 89.4162 28.5314 85.3884 27.8599C81.5014 27.2222 78.4393 25.372 76.2022 22.3237C73.9651 19.2754 73.1499 15.9082 73.7467 12.1981C74.3097 8.76329 75.9838 5.8744 78.7596 3.53624C81.5354 1.19807 84.7673 0.193242 88.4505 0.512082C92.8858 0.888894 96.341 2.57972 98.8062 5.5459C101.271 8.52658 102.164 12.1111 101.48 16.2995L101.504 16.3092H101.499ZM91.168 14.7923C91.3378 13.7633 91.1437 12.8841 90.5808 12.1691C90.0179 11.4493 89.2026 10.9952 88.1399 10.8116C87.1305 10.6425 86.2473 10.8551 85.4806 11.4638C84.7139 12.0676 84.2529 12.8358 84.117 13.7488C83.9229 14.8551 84.2335 15.8358 85.0584 16.6957C85.8737 17.5507 86.883 17.9034 88.0865 17.7585C88.9115 17.6763 89.6006 17.3478 90.1635 16.7874C90.7118 16.2271 91.0564 15.5556 91.1825 14.7778L91.1728 14.8019L91.168 14.7923Z" fill="#1D4C5C"/>
<path d="M131.023 16.3092C130.402 20.0773 128.568 23.1111 125.52 25.4058C122.482 27.7102 118.94 28.5314 114.912 27.8599C111.025 27.2222 107.963 25.372 105.726 22.3237C103.489 19.2754 102.678 15.9082 103.285 12.1981C103.848 8.76329 105.522 5.8744 108.298 3.53624C111.074 1.19807 114.306 0.193242 117.989 0.512082C122.424 0.888894 125.879 2.57972 128.344 5.5459C130.81 8.52658 131.702 12.1111 131.013 16.2995L131.023 16.3092ZM120.692 14.7923C120.862 13.7633 120.667 12.8841 120.104 12.1691C119.542 11.4493 118.726 10.9952 117.664 10.8116C116.654 10.6425 115.771 10.8551 115.004 11.4638C114.238 12.0725 113.777 12.8358 113.641 13.7488C113.447 14.8551 113.757 15.8358 114.582 16.6957C115.397 17.5507 116.407 17.9034 117.61 17.7585C118.435 17.6763 119.124 17.3478 119.687 16.7874C120.236 16.2271 120.58 15.5556 120.706 14.7778L120.697 14.8019L120.692 14.7923Z" fill="#1D4C5C"/>
<path d="M143.999 1.65701C144.058 2.2174 144.101 3.26571 144.135 4.79711C144.169 6.32851 144.193 7.91305 144.218 9.57005C144.242 11.2126 144.261 12.7101 144.3 14.0435C144.334 15.3768 144.383 16.1208 144.436 16.2899C144.519 16.5652 144.916 16.7101 145.63 16.7488C146.338 16.7826 147.144 16.773 148.027 16.7246C148.91 16.6812 149.76 16.6232 150.575 16.5749C151.39 16.5169 151.953 16.5411 152.249 16.6329C152.686 16.7826 153.03 17.3961 153.302 18.5024C153.579 19.6087 153.748 20.7971 153.831 22.087C153.913 23.3768 153.875 24.5507 153.729 25.6377C153.579 26.7198 153.307 27.3044 152.904 27.4058C152.297 27.5652 151.07 27.7005 149.235 27.8406C147.401 27.9759 145.475 28.058 143.432 28.0821C141.389 28.1063 139.501 28.0483 137.754 27.8986C136.012 27.7488 134.944 27.4638 134.532 27.0435C134.119 26.6087 133.809 25.2174 133.59 22.8647C133.372 20.5121 133.221 17.9227 133.144 15.1015C133.061 12.2802 133.042 9.59904 133.052 7.05314C133.076 4.50725 133.134 2.83092 133.221 1.99517C133.265 1.50242 133.852 1.14976 134.964 0.92271C136.075 0.695657 137.303 0.579715 138.623 0.570053C139.942 0.570053 141.156 0.661841 142.267 0.845415C143.378 1.03865 143.951 1.30435 143.999 1.65701Z" fill="#1D4C5C"/>
<path d="M175.096 1.65701C175.154 2.2174 175.197 3.26571 175.236 4.79711C175.27 6.32851 175.295 7.91305 175.319 9.57005C175.343 11.2126 175.367 12.7101 175.401 14.0435C175.435 15.3768 175.484 16.1208 175.537 16.2899C175.62 16.5652 176.018 16.7101 176.731 16.7488C177.439 16.7826 178.245 16.773 179.128 16.7246C180.011 16.6812 180.861 16.6232 181.676 16.5749C182.491 16.5169 183.049 16.5411 183.35 16.6329C183.787 16.7826 184.131 17.3961 184.403 18.5024C184.68 19.6087 184.85 20.7971 184.932 22.087C185.014 23.3768 184.981 24.5507 184.83 25.6377C184.68 26.7198 184.408 27.3044 184.005 27.4058C183.399 27.5652 182.171 27.7005 180.336 27.8406C178.502 27.9759 176.576 28.058 174.533 28.0821C172.49 28.1063 170.602 28.0483 168.855 27.8986C167.113 27.7488 166.045 27.4638 165.633 27.0435C165.22 26.6087 164.91 25.2174 164.691 22.8647C164.473 20.5121 164.323 17.9227 164.245 15.1015C164.162 12.2802 164.143 9.59904 164.153 7.05314C164.177 4.50725 164.235 2.83092 164.323 1.99517C164.366 1.50242 164.953 1.14976 166.065 0.92271C167.176 0.695657 168.404 0.579715 169.724 0.570053C171.044 0.570053 172.257 0.661841 173.368 0.845415C174.479 1.03865 175.052 1.30435 175.1 1.65701H175.096Z" fill="#1D4C5C"/>
<path d="M194.327 13.0869C194.429 12.4927 194.312 11.9855 193.987 11.57C193.662 11.1546 193.192 10.8889 192.575 10.7826C191.993 10.686 191.483 10.8068 191.037 11.1594C190.59 11.5072 190.328 11.9517 190.246 12.4783C190.134 13.1159 190.314 13.686 190.789 14.1787C191.26 14.6715 191.842 14.8792 192.541 14.7923C193.017 14.744 193.415 14.5555 193.74 14.2319C194.06 13.9082 194.254 13.5217 194.327 13.0725V13.0869Z" fill="#1D4C5C"/>
<path d="M202.31 13.0869C202.412 12.4927 202.295 11.9855 201.97 11.57C201.645 11.1546 201.174 10.8889 200.558 10.7826C199.976 10.686 199.466 10.8068 199.02 11.1594C198.573 11.5072 198.311 11.9517 198.229 12.4783C198.117 13.1159 198.297 13.686 198.772 14.1787C199.243 14.6715 199.825 14.8792 200.524 14.7923C201 14.744 201.398 14.5555 201.723 14.2319C202.043 13.9082 202.237 13.5217 202.31 13.0725V13.0869Z" fill="#1D4C5C"/>
<path d="M210.297 13.0869C210.399 12.4927 210.283 11.9855 209.958 11.57C209.632 11.1546 209.162 10.8889 208.545 10.7826C207.963 10.686 207.454 10.8068 207.007 11.1594C206.561 11.5072 206.299 11.9517 206.216 12.4783C206.105 13.1159 206.284 13.686 206.76 14.1787C207.23 14.6715 207.813 14.8792 208.511 14.7923C208.987 14.744 209.385 14.5555 209.71 14.2319C210.03 13.9082 210.224 13.5217 210.297 13.0725V13.0869Z" fill="#1D4C5C"/>
<path d="M231.654 9.62319C230.562 9.56522 229.601 9.68116 228.752 9.96618C227.592 10.3865 226.743 11.0483 226.219 11.9758C225.69 12.8986 225.486 13.8261 225.612 14.7826C225.739 15.7391 226.175 16.5845 226.942 17.3285C227.709 18.0725 228.81 18.4831 230.257 18.5604C231.3 18.57 231.887 18.2415 231.999 17.5652C232.115 16.8937 232.227 16.2077 232.319 15.5314C232.27 15.0725 232.722 14.686 233.649 14.3672C234.58 14.0483 235.633 13.8309 236.788 13.7295C237.943 13.628 239.025 13.6377 240.035 13.7874C241.034 13.9372 241.573 14.256 241.641 14.7246C241.757 15.628 241.859 16.7585 241.918 18.1353C241.986 19.5169 242.01 20.8744 242 22.2126C241.99 23.5459 241.932 24.7343 241.825 25.7633C241.723 26.7923 241.573 27.3961 241.369 27.5797C241.175 27.8309 240.209 27.9807 238.482 28.0242C236.749 28.0676 235.512 27.9903 234.779 27.7729C234.677 27.7633 234.561 27.6715 234.459 27.4879C232.304 28 230.169 28.1836 228.083 28.0483C224.39 27.7633 221.294 26.3237 218.794 23.7343C216.295 21.1449 215.262 17.9372 215.674 14.1353C216.145 9.98068 217.669 6.73913 220.236 4.41063C222.808 2.08213 226.064 0.816427 229.985 0.608697C232.576 0.492755 234.925 1.01933 237.045 2.18358C239.166 3.35749 240.243 5.4686 240.292 8.5314C240.34 9 240.049 9.38647 239.409 9.70532C238.778 10.0242 238.021 10.2754 237.152 10.4589C236.279 10.6425 235.42 10.7681 234.571 10.8261C233.721 10.8841 233.105 10.8841 232.736 10.8261C232.222 10.7585 231.97 10.5507 231.994 10.2222C232.018 9.88889 231.892 9.69565 231.64 9.66184L231.664 9.62802L231.654 9.62319Z" fill="#1D4C5C"/>
</g>
<defs>
<clipPath id="clip0_813_137">
<rect width="242" height="30" fill="white"/>
</clipPath>
</defs>
</svg>
