<svg width="20" height="20" viewBox="0 0 20 20" fill="none" xmlns="http://www.w3.org/2000/svg">
<circle cx="10" cy="10" r="10" transform="rotate(-180 10 10)" fill="#1985C0"/>
<path d="M12.9808 9.06293L12.9809 9.06309C13.0402 9.12423 13.0856 9.19397 13.113 9.27243C13.1384 9.3452 13.1504 9.42167 13.15 9.50073M12.9808 9.06293L11.4523 9.60446L11.3509 9.5M12.9808 9.06293L9.09843 5.07365L12.9808 9.06293ZM13.15 9.50073L13 9.5L13.15 9.5C13.15 9.50024 13.15 9.50048 13.15 9.50073ZM13.15 9.50073C13.1499 9.5793 13.1378 9.65527 13.1126 9.72757C13.0852 9.80579 13.0402 9.87542 12.9813 9.93655L12.9809 9.93691L12.9809 9.93691L9.09843 13.9382C8.96128 14.0796 8.78739 14.15 8.58756 14.15C8.38454 14.15 8.2078 14.0734 8.06516 13.9264C7.92415 13.781 7.85 13.6055 7.85 13.4063C7.85 13.2071 7.92415 13.0316 8.06516 12.8863L11.3509 9.5M11.3509 9.5L8.06516 6.11369C7.92895 5.97331 7.86152 5.79855 7.86152 5.59937C7.86152 5.39713 7.93489 5.21938 8.07682 5.0735M11.3509 9.5L8.07682 5.0735M8.07682 5.0735C8.21783 4.92824 8.3901 4.85 8.58756 4.85C8.785 4.85 8.95727 4.92823 9.09828 5.07349L8.07682 5.0735Z" fill="#F6F8E3" stroke="#F6F8E3" stroke-width="0.3"/>
</svg>
