<svg width="49" height="56" viewBox="0 0 49 56" fill="none" xmlns="http://www.w3.org/2000/svg">
<path d="M3.04894 15.3752C-2.27192 27.2949 3.02223 41.2983 14.8662 46.6503C14.8662 46.6503 26.0645 55.5912 40.6868 53.9704C40.6868 53.9704 36.3678 50.9115 32.2358 47.385C38.1221 45.319 43.1892 40.9332 45.9454 34.7574C51.2662 22.8378 45.9721 8.83435 34.1282 3.48231C22.2842 -1.86972 8.36536 3.4556 3.04894 15.3752Z" fill="#1985C0"/>
<path d="M2.10466 19.4271C1.91765 20.0104 1.85086 20.5625 1.75735 21.079C1.71283 21.3373 1.67275 21.5911 1.63268 21.8404C1.59261 22.0898 1.55253 22.3347 1.55253 22.584C1.54808 22.7399 1.65049 22.9224 1.63268 23.1139C1.60151 23.4968 1.59706 23.8931 1.57925 24.2805C1.56144 24.4719 1.56144 24.6678 1.56589 24.8593C1.56589 25.0508 1.54808 25.2378 1.52137 25.4248C1.45903 25.8344 1.43231 26.2441 1.43231 26.6493C1.44122 27.0544 1.53027 27.4507 1.61932 27.8292C1.70838 28.1899 1.77071 28.5505 1.81969 28.9112C1.88648 29.2674 1.97998 29.6236 2.06904 29.9753C2.13137 30.2113 2.20707 30.4429 2.13583 30.7323C2.08239 30.946 2.14918 31.3022 2.40744 31.507C2.45641 31.5471 2.45641 31.6629 2.46532 31.743C2.47422 31.8321 2.4386 31.9479 2.47868 32.0057C2.95065 32.6068 2.96846 33.386 3.34694 34.0228C3.43154 34.1831 3.44044 34.3968 3.66307 34.468C3.72095 34.4858 3.79665 34.6461 3.77884 34.7085C3.73431 34.8821 3.77439 35.0201 3.84118 35.1804C4.18403 35.8439 4.5625 36.494 4.91425 37.153C5.29273 37.3489 5.45302 37.7318 5.66674 38.0568C5.83149 38.2973 5.92945 38.5867 6.06303 38.8538C6.18325 39.1344 6.51719 39.2813 6.53945 39.6241C6.54391 39.6776 6.66413 39.731 6.72201 39.7889C6.97581 40.065 7.27859 40.3143 7.44779 40.6349C7.53239 40.7996 7.62589 40.9599 7.75947 41.0846C9.34905 42.7944 11.2414 44.197 13.254 45.3636C13.4321 45.4571 13.5968 45.5684 13.8462 45.5506C14.0421 45.5372 14.3671 45.6975 14.4651 45.8622C14.5452 45.9958 14.6477 46.076 14.7545 46.1383C14.8124 46.1695 14.8614 46.1917 14.9282 46.2229C15.0306 46.2719 15.0885 46.2942 15.1553 46.3565C15.5293 46.6637 15.9122 46.8953 16.2862 47.1758C16.5088 47.3361 16.8294 47.4073 16.9051 47.7323C16.914 47.7635 16.9853 47.8125 17.0253 47.808C17.4038 47.7813 17.5597 48.093 17.809 48.28C17.9871 48.418 18.183 48.5249 18.4502 48.5516C18.7084 48.5783 19.0602 48.7564 19.1938 48.9613C19.3763 49.2418 19.6435 49.313 19.8839 49.4421C21.3088 50.2169 22.8004 50.8581 24.3098 51.4414C25.04 51.6818 25.8059 51.7709 26.5183 52.0692C26.6875 52.1404 26.9057 52.1137 27.017 52.3141C27.0393 52.3542 27.1862 52.3764 27.253 52.3586C27.4934 52.2829 27.6804 52.3942 27.9075 52.4655C28.4151 52.648 28.945 52.7638 29.4659 52.9018C29.9913 53.0265 30.5123 53.1556 31.0466 53.1601C31.4607 53.1734 31.8614 53.2224 32.2622 53.2847L32.8588 53.3783C33.0592 53.405 33.2596 53.4139 33.4644 53.4228C33.7315 53.4361 33.9942 53.5653 34.2658 53.6142C34.5285 53.6588 34.8002 53.6721 35.0673 53.6899C35.2276 53.6988 35.3834 53.7656 35.5482 53.632C35.6372 53.5653 35.8643 53.5475 35.9534 53.6053C36.2473 53.7968 36.6213 53.73 36.8973 53.7345C37.5563 53.7745 38.1886 53.7033 38.8565 53.6677C39.0346 53.6588 38.95 53.5653 39.6179 53.7256C39.7114 53.7478 39.6446 53.6855 39.6535 53.6632C39.6179 53.641 39.5288 53.6053 39.4709 53.5786C39.3997 53.5475 39.3507 53.5207 39.3685 53.5163C39.5333 53.4851 39.373 53.3382 39.1637 53.1868C38.95 53.0354 38.6873 52.884 38.5003 52.7371L36.9775 51.5794C36.3764 51.1208 35.7797 50.6577 35.2009 50.1768C34.8759 49.9052 34.484 49.8073 34.1723 49.5401L33.7093 49.1616C33.5223 49.0102 33.313 48.8366 33.1215 48.6718C32.8633 48.4448 32.4269 48.1954 32.4581 47.9594C32.467 47.8971 32.2889 47.7502 32.1286 47.6789C31.8303 47.5498 31.6032 47.3984 31.4518 47.2648C31.6477 47.1847 31.8748 47.1134 32.0484 47.0288C32.2622 46.9264 32.5382 46.8374 32.7831 46.7439C33.028 46.6459 33.2284 46.5346 33.3887 46.352C33.4822 46.2541 33.8161 46.2318 34.012 46.1561C34.2035 46.0893 34.3148 46.0359 34.4395 45.9736C34.5642 45.9157 34.6888 45.8533 34.8091 45.7866C34.9248 45.7242 35.0094 45.5995 35.1252 45.5372C35.9979 45.0074 36.8439 44.4463 37.6543 43.8363C38.0773 43.5424 38.4736 43.2085 38.8832 42.8968C39.275 42.5584 39.6802 42.2423 40.0498 41.8816C40.8156 41.187 41.488 40.4034 42.1737 39.6286C42.423 39.3303 42.5477 38.9028 42.9841 38.7782C43.0642 38.3908 43.3135 38.1904 43.643 38.0346C43.692 38.0123 43.692 37.8743 43.7187 37.7941C43.8033 37.5314 43.6965 37.1797 44.1017 37.0862C44.115 37.0862 44.1239 37.0461 44.1417 37.0283C44.3065 36.8457 44.1328 36.5518 44.4311 36.3693C44.6182 36.258 44.725 35.9597 44.8586 35.7415C44.9922 35.5099 45.1124 35.2695 45.2059 35.0246C45.2994 34.7708 45.5621 34.5571 45.4374 34.2276C45.4196 34.1742 45.6334 34.0495 45.669 33.9337C45.8337 33.3504 46.2656 32.8339 46.2077 32.1883C46.1855 32.0369 46.2478 31.8321 46.3369 31.7074C46.6575 31.2577 46.6931 30.7546 46.7688 30.2202C46.8267 29.5078 46.8934 28.7687 47.2942 28.1231C47.3743 27.985 47.4411 27.9271 47.3565 27.7669C47.2986 27.66 47.3253 27.4908 47.3343 27.3528C47.4767 25.8122 47.4856 24.2627 47.3209 22.7265C47.2675 22.3124 47.4322 21.8894 47.2986 21.4709C47.2452 21.2972 47.3298 21.0701 47.1161 20.9588C47.0849 20.941 47.0582 20.8742 47.0626 20.8386C47.1517 20.2909 46.751 19.8457 46.7242 19.3292C46.7198 19.2178 46.7332 19.1021 46.7332 18.9908C46.7332 18.875 46.7332 18.737 46.6753 18.6568C46.4304 18.314 46.2923 17.9399 46.1721 17.5526C46.0564 17.1652 45.9717 16.7689 45.7669 16.4172C45.6378 16.1767 45.6244 15.8561 45.3306 15.7181C45.286 15.6958 45.2415 15.589 45.246 15.5266C45.2727 15.2595 45.1881 15.0279 45.0812 14.8053C44.9521 14.5916 44.8052 14.3912 44.7161 14.1641C44.6271 13.9281 44.3688 13.7545 44.449 13.4517C44.4579 13.4116 44.3911 13.336 44.3466 13.287C44.2709 13.2068 44.1595 13.1489 44.1106 13.0554C43.9948 12.7883 43.8924 12.4811 43.6965 12.3074C43.4471 12.0981 43.3091 11.8354 43.1354 11.5861C43.0375 11.448 43.0197 11.2477 42.9351 11.0874C42.8638 10.9315 42.7303 10.8158 42.6234 10.6867C42.4675 10.4996 42.2761 10.3304 42.1648 10.1256C42.049 9.90744 41.7551 9.9119 41.7017 9.60912C41.6527 9.38204 41.3678 9.32415 41.1807 9.19503C41.0917 9.12379 41.0249 9.02583 40.9626 8.92787C40.9136 8.85663 40.9047 8.74531 40.8468 8.69634C40.7088 8.58057 40.6108 8.42473 40.406 8.35794C40.2635 8.31341 40.1789 8.05961 40.0498 7.90822C39.9207 7.76129 39.7782 7.62771 39.6223 7.51194C39.4709 7.39172 39.3374 7.22697 39.1637 7.15573C38.4157 6.85296 37.9125 6.22514 37.2179 5.85112C37.0443 5.74871 36.8127 5.68637 36.7682 5.43257C36.7593 5.38805 36.6658 5.32126 36.6035 5.3079C35.8599 5.10308 35.2588 4.61775 34.5597 4.32833C34.3104 4.23037 34.061 4.14132 33.8072 4.05227C33.549 3.98102 33.2907 3.90533 33.0458 3.79401C32.5649 3.58474 32.0752 3.32204 31.5676 3.24189C31.1401 3.20182 30.726 3.16174 30.3475 3.00145C29.9691 2.85451 29.5238 3.09941 29.2121 2.71648C28.8114 2.64969 28.4107 2.59181 28.0144 2.50721C27.676 2.44487 27.3287 2.44042 27.017 2.2356C26.9057 2.15991 26.6652 2.14655 26.5272 2.19998C26.082 2.36918 25.6812 2.28458 25.2538 2.151C25.1514 2.12429 25.0222 2.19998 24.902 2.20889C24.5458 2.23115 24.1851 2.25786 23.8289 2.24005C22.7559 2.13764 21.7451 2.55174 20.7077 2.67196C20.5162 2.69867 20.3381 2.90795 20.1644 2.90349C19.6346 2.89904 19.1181 3.01481 18.606 3.14393C18.1029 3.30423 17.622 3.50905 17.1055 3.5981C15.5827 3.88752 14.2469 4.69789 12.9111 5.42812C12.7375 5.52163 12.4659 5.48155 12.408 5.57061C12.2432 5.86002 11.9004 5.94908 11.7624 6.18061C11.513 6.5947 11.0811 6.72828 10.7561 7.0177C10.5423 7.24924 10.1995 7.36501 10.1194 7.72567C10.1104 7.7791 10.0214 7.84143 9.96351 7.85925C9.71862 7.93049 9.55832 8.09523 9.41139 8.27334C9.33569 8.36239 9.26445 8.45144 9.18876 8.53604C9.11752 8.62509 9.04182 8.70969 8.94386 8.77203C8.73014 9.17276 8.44517 9.49781 8.13794 9.80949C7.98655 9.96978 7.8129 10.1078 7.67932 10.277C7.54129 10.4462 7.40326 10.6154 7.27859 10.798C7.20735 10.9048 7.17172 11.034 7.11829 11.1542C7.09158 11.2121 7.06932 11.2922 7.02479 11.3234C6.29456 11.7597 6.04522 12.5879 5.55098 13.2157C5.39068 13.425 5.17696 13.6031 5.02112 13.8213C4.87418 14.0484 4.81184 14.3244 4.54914 14.4714C4.46899 14.5159 4.42001 14.6673 4.38439 14.7786C4.20184 15.3797 3.67197 15.6424 3.15102 15.4242C2.96401 15.3441 3.01299 15.2194 3.00408 15.0636C2.99518 14.7608 3.0308 14.4758 3.19555 14.1864C3.32467 13.9593 3.50723 13.7411 3.44044 13.4428C3.42708 13.3938 3.48942 13.2914 3.5384 13.2469C3.62745 13.1712 3.69869 13.0777 3.76548 12.9842C3.84117 12.8951 3.90351 12.7972 3.9703 12.6992C4.09943 12.5033 4.21965 12.3074 4.37994 12.1649C4.62929 11.9423 4.77177 11.6796 4.96768 11.4436C5.12798 11.2432 5.19032 10.9583 5.502 10.8692C5.60441 10.838 5.63558 10.5486 5.74244 10.4017C5.99178 10.0588 6.25004 9.71598 6.53055 9.4043C7.45669 8.52268 8.11123 7.37391 9.17985 6.62587C9.31343 6.42996 9.47372 6.25185 9.64292 6.08711C9.72752 6.00696 9.81658 5.92681 9.90563 5.85112L10.1995 5.65075C10.5958 5.38805 10.9965 5.14315 11.3394 4.82702C11.7446 4.42629 12.2432 4.16358 12.7286 3.87861C13.2184 3.61146 13.6903 3.29978 14.2024 3.06824C14.4072 2.96138 14.5809 2.89459 14.7946 2.87232C14.9326 2.85897 15.0796 2.84116 15.2042 2.79218L15.9345 2.47604C16.1838 2.39144 16.4376 2.30684 16.6914 2.2356C16.963 2.15991 17.2302 1.93728 17.5374 2.08421C17.5819 2.10648 17.6977 2.06195 17.7467 2.01742C18.1162 1.62559 18.6595 1.68348 19.1225 1.541C19.3006 1.48756 19.4787 1.46085 19.6925 1.49647C19.924 1.54099 20.249 1.45194 20.4583 1.32727C20.6186 1.24267 20.77 1.22041 20.9303 1.18033C21.2642 1.10019 21.616 1.09573 21.9588 1.06457C22.3061 1.0423 22.6401 0.962156 22.9696 0.824125C23.3391 1.06457 23.7621 0.971061 24.1184 0.899819C24.4612 0.837483 24.8041 0.779599 25.1469 0.775146C25.4898 0.784052 25.8371 0.806315 26.1799 0.83303L27.2085 0.926535C27.5513 0.957703 27.8853 1.0423 28.2281 1.08238C28.5576 1.1269 28.8693 1.29165 29.1943 1.3718C29.3635 1.41187 29.5372 1.44749 29.7153 1.47866L30.2273 1.60778C30.4099 1.65231 30.6014 1.79034 30.7884 1.65231C30.8017 1.6434 30.8373 1.6434 30.8552 1.65231C31.0422 1.73691 31.2203 1.85713 31.4117 1.8972C31.5854 1.93282 31.7813 1.85713 31.9683 1.87494C32.1909 1.89275 32.3957 1.99071 32.6095 2.06195C32.8098 2.13764 33.0414 2.18217 33.1438 2.40035C33.3753 2.27122 33.5712 2.45823 33.7761 2.52057C33.972 2.58291 34.159 2.6675 34.346 2.7432C34.5597 2.83225 34.7556 2.94802 34.9649 3.05043C35.1697 3.15729 35.3701 3.27751 35.5794 3.36211C35.8688 3.48233 36.1805 3.55803 36.4699 3.6827C36.7816 3.80292 37.0532 4.01219 37.3248 4.20365C37.6587 4.453 37.9704 4.72906 38.2999 4.98731C38.4335 5.09418 38.5849 5.1298 38.7674 5.16542C38.9945 5.22775 39.3463 5.23666 39.4042 5.63739C39.4131 5.71754 39.5823 5.82886 39.6936 5.87338C40.1255 6.04258 40.4995 6.31419 40.8334 6.62587C41.1496 6.95537 41.4479 7.30267 41.7997 7.59209C42.0045 8.09078 42.4497 8.32232 42.8149 8.69634C43.0909 8.95904 43.367 9.23955 43.6208 9.53788C43.7454 9.68481 43.8701 9.84066 43.9814 9.9965C44.0928 10.1523 44.1729 10.3304 44.2575 10.4996C44.4267 10.8648 44.636 11.1942 44.8497 11.5148C45.0679 11.8354 45.295 12.1471 45.4508 12.5078C45.5443 12.7037 45.7269 12.8729 45.6512 13.1267C45.6334 13.1846 45.7224 13.3226 45.7937 13.3849C46.0341 13.612 46.2122 13.8658 46.3591 14.1419C46.4838 14.4268 46.564 14.7341 46.6352 15.0547C46.7064 15.3886 46.9291 15.7047 47.1472 16.0209C47.3209 16.2524 47.4188 16.5329 47.499 16.8179C47.5836 17.1029 47.6593 17.3967 47.7483 17.6772C47.6014 17.9889 47.8908 18.1047 48.0289 18.2027C48.207 18.3318 48.296 18.4832 48.3361 18.688C48.3984 18.9507 48.4162 19.2178 48.6211 19.4449C48.7279 19.5607 48.7769 19.8679 48.7279 20.0282C48.6656 20.2419 48.7279 20.3043 48.8392 20.469C48.9728 20.6605 48.8036 20.9187 48.8392 21.1814C48.8838 21.462 49.0441 21.7825 48.8303 22.0586C48.8125 22.0853 48.8259 22.1699 48.8481 22.2055C49.1554 22.7042 48.8838 23.2564 48.9862 23.7729C48.9283 24.1691 48.9016 24.561 48.8927 24.9528C48.8927 25.1487 48.8927 25.3446 48.8927 25.5406C48.8927 25.7365 48.8704 25.9324 48.8615 26.1283L48.7992 27.3082C48.7769 27.7001 48.7502 28.0919 48.6478 28.4748C48.5008 29.1071 48.2114 29.7126 48.2114 30.3583C48.1535 31.0262 47.9888 31.6807 47.8062 32.3263L47.6637 32.8072L47.4723 33.2747C47.3476 33.5864 47.2229 33.8981 47.1116 34.2142C47.0181 34.4814 47.0003 34.8287 46.6886 34.9712C46.6485 34.9934 46.5996 35.1137 46.5996 35.176C46.6129 35.648 46.3769 35.9997 46.0564 36.3114C45.9762 36.3871 45.8872 36.5563 45.9094 36.6364C45.9673 36.868 45.8115 37.0194 45.718 37.1841C45.6066 37.3845 45.3261 37.5715 45.3261 37.7318C45.3261 38.0746 45.0679 38.1103 44.9254 38.2795C44.8408 38.3863 44.7963 38.5377 44.7339 38.6713C44.7072 38.7336 44.7161 38.8449 44.6805 38.8672C44.2575 39.121 44.253 39.6598 43.9057 39.9581C43.8345 40.0249 43.7766 40.105 43.7009 40.1674C43.2824 40.5058 43.0553 40.6572 42.8505 40.8709C42.6457 41.0846 42.4675 41.3607 42.0535 41.8816C41.6037 41.944 41.6082 42.5495 41.1629 42.6564C41.0026 42.6964 40.8201 42.8968 40.7266 43.066C40.5173 43.4178 40.219 43.6894 39.9118 43.9432C39.5956 44.1881 39.2572 44.4062 38.9678 44.6779C38.8476 44.7936 38.6249 44.7046 38.5448 44.9539C38.5136 45.0474 38.1931 45.0652 38.0506 45.1721C37.8457 45.3324 37.5519 45.3858 37.4361 45.6841C37.3871 45.8044 37.1556 45.8801 37.0176 45.9869C36.8305 46.1383 36.5768 46.1828 36.4476 46.4366C36.3764 46.5747 36.1048 46.7305 35.94 46.735C35.5927 46.7439 35.3211 46.8641 35.0807 47.0377C34.9649 47.1179 34.8313 47.2292 34.7467 47.3093L34.6443 47.4652C34.6042 47.5186 34.5998 47.5542 34.4974 47.5453C34.346 47.5453 34.1278 47.532 34.1946 47.6032C34.3683 47.7145 34.1456 47.6878 34.2658 47.7546C34.3861 47.8348 34.4484 47.9238 34.5686 47.995C34.5909 48.0084 34.582 47.9995 34.6354 48.0396L34.8224 48.191L35.192 48.4982C35.4458 48.6986 35.7085 48.8856 36.0113 49.0281C36.3363 49.1794 36.746 49.4065 36.8884 49.8384C36.9062 49.8874 37.1111 49.8696 37.1957 49.9319L39.8049 51.9133C39.9474 52.0202 40.0097 52.1493 40.1032 52.2606C40.1923 52.372 40.3036 52.4699 40.5886 52.5545C40.8958 52.6436 40.967 52.7638 41.0249 52.8617C41.0872 52.9642 41.1362 53.0488 41.5013 53.1512C41.6082 53.1823 41.8754 53.3783 41.9644 53.4718C42.3829 53.917 42.9262 54.3356 43.5762 54.7942C43.4427 54.8343 43.1755 54.8432 42.9662 54.8654L42.2939 54.9233C41.8397 54.9634 41.3678 54.999 40.8691 55.0124C40.455 55.0257 40.1121 55.1504 39.5466 54.9723C39.1949 55.1192 38.5804 55.097 38.0773 55.0747C37.8235 55.0747 37.5563 55.0435 37.3114 55.0524C37.071 55.0613 36.7771 55.097 36.6703 55.1949C36.2384 55.1237 35.7619 55.324 35.3567 55.0569C35.2899 55.0124 35.1386 55.0569 35.0673 55.0168C34.8135 54.8654 34.6221 55.2439 34.3148 55.0124C34.1412 54.8788 33.7894 54.9189 33.5178 54.8877L32.7609 54.8164L31.9371 54.6829C31.6611 54.6383 31.3895 54.5805 31.1089 54.5537C30.8284 54.527 30.5435 54.5315 30.263 54.5226C29.9824 54.4959 29.7019 54.4558 29.4303 54.3623C29.3724 54.34 29.2611 54.3489 29.2299 54.3801C28.9672 54.6651 28.7223 54.4157 28.5576 54.2777C28.4196 54.1619 28.2904 54.0907 28.1168 54.055C27.6493 53.9437 27.1862 53.8057 26.7276 53.6543C26.456 53.5608 26.1309 53.5786 25.935 53.3026C25.8727 53.2224 25.6545 53.1601 25.5165 53.1601C24.8797 53.169 24.3276 52.835 23.7399 52.6614C23.4772 52.5723 23.2234 52.4566 22.9651 52.3452C22.7737 52.2606 22.5199 52.3141 22.3774 52.1048C21.8431 52.0425 21.3622 51.8332 20.8902 51.6061C20.4138 51.3835 19.9552 51.1252 19.4876 50.8892C19.0201 50.6622 18.5526 50.4306 18.1029 50.1679C17.6487 49.9097 17.199 49.647 16.7582 49.362C16.54 49.2195 16.2283 49.1661 16.1571 48.8455C16.1437 48.7832 15.9834 48.6852 15.9122 48.6897C15.7163 48.7075 15.5872 48.6986 15.5337 48.467C15.5248 48.4225 15.3823 48.378 15.3022 48.3557C15.0751 48.3067 14.9237 48.1865 14.7857 47.9906C14.6788 47.8392 14.5141 47.6611 14.3449 47.5988L14.3004 47.581H14.287L14.2603 47.5943L14.238 47.6077C14.238 47.6077 14.2647 47.6299 14.2692 47.6344L14.2291 47.6255C14.1178 47.5943 14.0109 47.5631 13.9085 47.5142C13.7037 47.4251 13.5167 47.2915 13.3653 47.0823C13.3297 47.0288 13.1204 47.0912 13.0314 47.0377C12.6974 46.824 12.2611 46.7661 12.0206 46.3966C11.9227 46.2452 11.6956 46.165 11.5353 46.0359C11.2637 45.8177 10.9208 45.742 10.6537 45.4838C10.5201 45.3547 10.3598 45.2478 10.195 45.1454C10.0303 45.0385 9.87446 44.9183 9.72307 44.7981L8.81919 44.0723C8.52087 43.8274 8.20473 43.5959 7.94203 43.3154L7.11384 42.5005C6.84668 42.22 6.54391 41.9751 6.30792 41.6634L5.56433 40.7729C5.39068 40.5636 5.25265 40.3544 5.14579 40.0917C4.9187 39.3926 4.43337 38.7292 3.7076 37.9722C3.65862 37.9143 3.6319 37.8386 3.59628 37.7719C3.1243 36.8902 2.54992 36.0532 2.24714 35.0958C2.09575 34.6818 2.02006 34.2454 1.82414 33.8447C1.70837 33.5775 1.66385 33.2925 1.43677 33.0655C1.24976 32.8695 1.33881 32.4866 1.04939 32.2773C0.942527 32.2017 0.86238 31.9345 0.88019 31.7876C0.946979 31.2933 0.764422 30.8481 0.670917 30.3894C0.586318 29.8596 0.426024 29.3386 0.363688 28.8043C0.323614 28.5416 0.363687 28.27 0.154415 28.0251C0.0520047 27.9049 0.0742679 27.5754 0.123247 27.375C0.158867 27.2192 0.163321 27.0722 0.149963 26.9253C0.149963 26.7784 0.127699 26.6314 0.100984 26.4934C-0.0192366 25.8923 -0.0370476 25.8923 0.0742676 25.2957C0.0876254 25.2244 0.0876256 25.1487 0.083173 25.073C0.083173 24.886 0.0742678 24.699 0.083173 24.512L0.136604 23.951C0.167772 23.577 0.190036 23.2118 0.16332 22.8423C0.149962 22.5395 0.118794 22.2323 0.16332 21.9384C0.198941 21.6401 0.247919 21.3462 0.296898 21.0523C0.336971 20.8163 0.283541 20.5269 0.537339 20.3711C0.57296 20.3488 0.595223 20.2152 0.577413 20.1529C0.537339 20.0193 0.523982 19.8857 0.523982 19.7522C0.528435 19.623 0.564055 19.4939 0.595224 19.3648C0.666465 19.111 0.768876 18.8616 0.835665 18.6123C0.973696 18.127 0.889096 17.6149 1.10282 17.1385C1.321 16.6977 1.46348 16.2257 1.64604 15.7626C1.91765 15.0636 2.1002 14.9701 2.65233 15.2194C3.11095 15.4287 3.14211 15.638 3.0397 16.2079C2.93284 16.809 2.71467 17.3656 2.52766 17.9043C2.37181 18.452 2.20262 18.9685 2.10466 19.4449V19.4271Z" fill="#1985C0"/>
<circle cx="13.875" cy="25.2751" r="2.625" fill="#F6F8E3"/>
<circle cx="24.625" cy="25.2751" r="2.625" fill="#F6F8E3"/>
<circle cx="35.625" cy="25.2751" r="2.625" fill="#F6F8E3"/>
</svg>
