<svg width="20" height="20" viewBox="0 0 20 20" fill="none" xmlns="http://www.w3.org/2000/svg">
<circle cx="10" cy="10" r="10" fill="#1985C0"/>
<path d="M7.01924 10.9371L7.01908 10.9369C6.95976 10.8758 6.91438 10.806 6.88697 10.7276C6.86155 10.6548 6.84963 10.5783 6.85001 10.4993M7.01924 10.9371L8.54775 10.3955L8.6491 10.5M7.01924 10.9371L10.9016 14.9264L7.01924 10.9371ZM6.85001 10.4993L7.00001 10.5H6.85001C6.85001 10.4998 6.85001 10.4995 6.85001 10.4993ZM6.85001 10.4993C6.85008 10.4207 6.86218 10.3447 6.88743 10.2724C6.91475 10.1942 6.95981 10.1246 7.01873 10.0635L7.01908 10.0631L7.01908 10.0631L10.9016 6.06177C11.0387 5.92042 11.2126 5.85 11.4124 5.85C11.6155 5.85 11.7922 5.92664 11.9348 6.07364C12.0759 6.21897 12.15 6.39445 12.15 6.59367C12.15 6.79288 12.0759 6.96836 11.9348 7.11369L8.6491 10.5M8.6491 10.5L11.9348 13.8863C12.071 14.0267 12.1385 14.2014 12.1385 14.4006C12.1385 14.6029 12.0651 14.7806 11.9232 14.9265M8.6491 10.5L11.9232 14.9265M11.9232 14.9265C11.7822 15.0718 11.6099 15.15 11.4124 15.15C11.215 15.15 11.0427 15.0718 10.9017 14.9265L11.9232 14.9265Z" fill="#F6F8E3" stroke="#F6F8E3" stroke-width="0.3"/>
</svg>
