<svg width="162" height="21" viewBox="0 0 162 21" fill="none" xmlns="http://www.w3.org/2000/svg">
<g clip-path="url(#clip0_331_806)">
<path d="M137.367 0.72769H130.259C125.906 0.72769 122.375 4.28156 122.375 8.66705C122.375 13.0525 125.903 16.6064 130.259 16.6064H133.241V20.17C140.193 17.8473 145.023 13.3644 145.251 8.66705C145.287 7.92964 145.41 5.40555 143.646 3.30376C141.424 0.652975 137.909 0.708199 137.363 0.72769H137.367Z" fill="#35BA95"/>
<path d="M8.72215 6.34746C8.55322 6.3637 8.40054 6.31822 8.26086 6.21751C8.09194 6.09407 8.00747 5.96413 8.00098 5.81795C8.00098 5.67177 7.91652 5.53533 7.75409 5.41188C7.35452 5.09678 6.84126 5.1585 6.22729 5.58081C5.61332 6.00311 5.86671 6.33446 6.99394 6.5716C7.11738 6.59434 7.24732 6.62683 7.39351 6.64957C7.53969 6.6788 7.68587 6.70479 7.83855 6.72753C9.68695 7.04913 11.1455 7.60138 12.2143 8.37778C13.5332 9.34583 14.2868 10.603 14.485 12.1525C14.6832 13.7118 14.2479 15.0989 13.1888 16.3269C11.9382 17.779 10.2424 18.6138 8.09843 18.8282C5.95766 19.0426 4.10601 18.5911 2.54998 17.4866C1.20834 16.5478 0.370225 15.3588 0.0323795 13.9295C-0.113803 13.2538 0.224042 12.7308 1.04591 12.3637C1.4065 12.1948 1.80607 12.0713 2.24462 12.0031C2.68316 11.9349 3.10547 11.8894 3.50179 11.8797C4.16124 11.8797 4.75247 11.9576 5.28197 12.1168C5.81148 12.2695 6.11034 12.4936 6.18831 12.786C6.1948 12.8412 6.21754 12.8997 6.25003 12.9549C6.33449 13.1531 6.50341 13.309 6.7568 13.4C7.05566 13.5234 7.4 13.5007 7.79957 13.3447C8.19914 13.1888 8.31283 12.9224 8.14391 12.5456C8.05295 12.3702 7.81256 12.224 7.42274 12.1168C6.48717 11.8407 5.54835 11.6328 4.61278 11.4963C3.68371 11.3567 2.79361 10.9733 1.96524 10.3594C1.35777 9.92082 0.889986 9.32959 0.552141 8.57918C0.214296 7.82553 0.100598 6.82174 0.207799 5.57756C0.370225 3.89808 1.17586 2.51421 2.63444 1.43246C3.48555 0.795751 4.4601 0.373444 5.5516 0.159043C6.6431 -0.055359 7.70211 -0.055359 8.72864 0.159043C9.75842 0.373444 10.6842 0.795751 11.5061 1.43246C12.328 2.06917 12.8965 2.92028 13.2116 3.97929C13.335 4.38536 13.2116 4.73944 12.8672 5.03181C12.5132 5.32417 12.0844 5.56781 11.5613 5.75948C11.0383 5.95114 10.5023 6.09732 9.95658 6.19802C9.41083 6.29873 8.99827 6.34421 8.72864 6.3507L8.72215 6.34421V6.34746Z" fill="#1D4C5C"/>
<path d="M28.0248 6.71463C27.6707 6.73087 27.3199 6.75361 26.9723 6.77635C26.6182 6.79909 26.2803 6.83807 25.9522 6.89979C25.1076 7.06871 24.341 7.46828 23.6588 8.09849C22.9766 8.7287 22.7232 9.51159 22.9051 10.4407C22.9896 10.863 23.1975 11.2008 23.5029 11.438C24.0031 11.8278 24.6626 12.0227 25.491 11.9967C26.3193 11.974 27.034 11.896 27.6317 11.7596C27.9696 11.6459 28.3009 11.6589 28.6225 11.805C28.9214 11.9512 29.191 12.1949 29.4282 12.549C29.805 13.1239 30.0649 13.9003 30.2046 14.8586C30.3442 15.8267 30.289 16.6161 30.0421 17.2463C29.844 17.7596 29.5354 18.0682 29.1293 18.1591C27.8104 18.6432 26.3583 18.8738 24.7763 18.8641C23.1943 18.8478 21.7747 18.5555 20.524 17.9902C18.8283 17.2301 17.5321 16.1028 16.6323 14.6118C15.7357 13.1239 15.3751 11.4347 15.557 9.53109C15.8721 6.52296 17.0611 4.16455 19.1336 2.46882C21.2062 0.7731 23.7855 0.0909128 26.8716 0.419012C27.3848 0.474237 27.8396 0.740615 28.2295 1.22464C28.6128 1.70867 28.9344 2.54354 29.1878 3.74224C29.4411 4.94094 29.2885 5.81479 28.7362 6.36704C28.5283 6.57494 28.2847 6.68214 28.0151 6.68864L28.0216 6.71138L28.0248 6.71463Z" fill="#1D4C5C"/>
<path d="M38.2318 18.2827C38.0791 18.5978 37.3189 18.7894 35.9611 18.8577C34.6032 18.9259 33.6286 18.8284 33.0536 18.5653C32.8003 18.4419 32.5469 17.62 32.3 16.0867C32.0531 14.5501 31.8387 12.8414 31.6633 10.9378C31.4781 9.03416 31.3482 7.19876 31.2572 5.43481C31.1663 3.67087 31.1435 2.49491 31.189 1.89719C31.2345 1.40666 31.6405 1.03633 32.4104 0.776449C33.1706 0.523065 34.0055 0.376882 34.9215 0.347646C35.8279 0.318409 36.6627 0.402871 37.4326 0.594533C38.1928 0.786195 38.5989 1.08506 38.6541 1.48462C38.7223 2.16681 38.784 2.97244 38.8295 3.91126C38.875 4.84683 38.9075 5.83113 38.9205 6.86741C39.6026 6.83817 40.3173 6.81218 41.0612 6.79919C41.032 5.76941 41.0157 4.79486 41.0222 3.87553C41.0222 2.95295 41.0515 2.15707 41.1002 1.48138C41.1229 1.07531 41.516 0.766704 42.2664 0.568545C43.0201 0.370385 43.8549 0.285924 44.7613 0.308664C45.6676 0.331403 46.5122 0.471089 47.2854 0.724473C48.0618 0.977857 48.4841 1.34494 48.5588 1.83871C48.6367 2.42994 48.666 3.6124 48.6497 5.37634C48.627 7.14028 48.5718 8.97569 48.4646 10.8793C48.3574 12.7829 48.2274 14.5014 48.0423 16.0282C47.8571 17.555 47.6525 18.3769 47.4121 18.5003C46.8533 18.7764 45.8853 18.8772 44.5274 18.8219C43.1695 18.7602 42.4029 18.575 42.2339 18.2632C42.104 18.0943 41.9806 17.6037 41.8506 16.7981C41.7207 15.9925 41.6037 15.0114 41.4965 13.8517C41.045 13.9427 40.5902 14.0206 40.1289 14.0888C39.6676 14.1571 39.2161 14.2188 38.771 14.274C38.7093 15.3265 38.6313 16.2166 38.5404 16.9378C38.4494 17.659 38.3552 18.104 38.248 18.2729L38.2318 18.2957V18.2827Z" fill="#1D4C5C"/>
<path d="M67.9458 10.967C67.53 13.5009 66.3021 15.5409 64.262 17.084C62.2284 18.6335 59.857 19.1858 57.1608 18.7342C54.5587 18.3054 52.5089 17.0612 51.0113 15.0114C49.5138 12.9616 48.968 10.6974 49.3676 8.20253C49.7444 5.89284 50.8651 3.95023 52.7233 2.37795C54.5814 0.805675 56.7449 0.129984 59.2106 0.344386C62.1797 0.59777 64.4926 1.73475 66.1429 3.72933C67.7931 5.73367 68.3909 8.14406 67.9328 10.9605L67.9491 10.967H67.9458ZM61.0297 9.94699C61.1434 9.25505 61.0135 8.66382 60.6367 8.18304C60.2598 7.69902 59.7141 7.39365 59.0027 7.27021C58.327 7.15651 57.7357 7.29945 57.2225 7.70876C56.7092 8.11482 56.4006 8.63134 56.3096 9.24531C56.1797 9.98922 56.3876 10.6487 56.9399 11.2269C57.4856 11.8019 58.1613 12.039 58.9669 11.9416C59.5192 11.8863 59.9805 11.6654 60.3573 11.2886C60.7244 10.9118 60.955 10.4602 61.0395 9.93724L61.033 9.95348L61.0297 9.94699Z" fill="#1D4C5C"/>
<path d="M87.7098 10.967C87.294 13.5009 86.066 15.5409 84.026 17.084C81.9924 18.6335 79.621 19.1858 76.9247 18.7342C74.3227 18.3054 72.2729 17.0612 70.7753 15.0114C69.2777 12.9616 68.7352 10.6974 69.1413 8.20253C69.5181 5.89284 70.6389 3.95023 72.497 2.37795C74.3552 0.805675 76.5187 0.129984 78.9843 0.344386C81.9534 0.59777 84.2664 1.73475 85.9166 3.72933C87.5669 5.73367 88.1646 8.14406 87.7033 10.9605L87.7098 10.967ZM80.7937 9.94699C80.9074 9.25505 80.7775 8.66382 80.4006 8.18304C80.0238 7.69902 79.4781 7.39365 78.7666 7.27021C78.0909 7.15651 77.4997 7.29945 76.9865 7.70876C76.4732 8.11807 76.1646 8.63134 76.0736 9.24531C75.9437 9.98922 76.1516 10.6487 76.7038 11.2269C77.2496 11.8019 77.9253 12.039 78.7309 11.9416C79.2831 11.8863 79.7444 11.6654 80.1213 11.2886C80.4883 10.9118 80.719 10.4602 80.8035 9.93724L80.797 9.95348L80.7937 9.94699Z" fill="#1D4C5C"/>
<path d="M96.3963 1.11422C96.4353 1.49104 96.4646 2.19597 96.4873 3.22575C96.51 4.25553 96.5263 5.32104 96.5425 6.43528C96.5588 7.53977 96.5718 8.54681 96.5977 9.4434C96.6205 10.34 96.653 10.8403 96.6887 10.954C96.7439 11.1391 97.0103 11.2366 97.4878 11.2626C97.9621 11.2853 98.5014 11.2788 99.0926 11.2463C99.6838 11.2171 100.252 11.1781 100.798 11.1456C101.344 11.1066 101.721 11.1229 101.919 11.1846C102.211 11.2853 102.442 11.6979 102.624 12.4418C102.809 13.1857 102.923 13.9848 102.978 14.8522C103.033 15.7195 103.007 16.5089 102.91 17.2398C102.809 17.9675 102.627 18.3606 102.357 18.4288C101.951 18.536 101.129 18.6269 99.9015 18.7211C98.6735 18.8121 97.3839 18.8673 96.0163 18.8836C94.6486 18.8998 93.385 18.8608 92.2155 18.7601C91.0493 18.6594 90.3346 18.4678 90.0585 18.1851C89.7824 17.8928 89.5745 16.9572 89.4283 15.3752C89.2821 13.7932 89.1814 12.052 89.1294 10.1548C89.0742 8.25769 89.0612 6.45477 89.0677 4.7428C89.0839 3.03084 89.1229 1.9036 89.1814 1.34161C89.2106 1.01026 89.6037 0.773122 90.3476 0.620442C91.0915 0.467762 91.9134 0.389798 92.797 0.383301C93.6806 0.383301 94.4927 0.445023 95.2366 0.568466C95.9805 0.698406 96.3638 0.877074 96.3963 1.11422Z" fill="#1D4C5C"/>
<path d="M117.213 1.11422C117.252 1.49104 117.281 2.19597 117.307 3.22575C117.33 4.25553 117.346 5.32104 117.362 6.43528C117.378 7.53977 117.395 8.54681 117.417 9.4434C117.44 10.34 117.473 10.8403 117.508 10.954C117.564 11.1391 117.83 11.2366 118.307 11.2626C118.782 11.2853 119.321 11.2788 119.912 11.2463C120.503 11.2171 121.072 11.1781 121.618 11.1456C122.163 11.1066 122.537 11.1229 122.738 11.1846C123.031 11.2853 123.261 11.6979 123.443 12.4418C123.628 13.1857 123.742 13.9848 123.797 14.8522C123.853 15.7195 123.83 16.5089 123.729 17.2398C123.628 17.9675 123.447 18.3606 123.177 18.4288C122.771 18.536 121.949 18.6269 120.721 18.7211C119.493 18.8121 118.203 18.8673 116.836 18.8836C115.468 18.8998 114.205 18.8608 113.035 18.7601C111.869 18.6594 111.154 18.4678 110.878 18.1851C110.602 17.8928 110.394 16.9572 110.248 15.3752C110.102 13.7932 110.001 12.052 109.949 10.1548C109.894 8.25769 109.881 6.45477 109.887 4.7428C109.904 3.03084 109.943 1.9036 110.001 1.34161C110.03 1.01026 110.423 0.773122 111.167 0.620442C111.911 0.467762 112.733 0.389798 113.617 0.383301C114.5 0.383301 115.312 0.445023 116.056 0.568466C116.8 0.698406 117.183 0.877074 117.216 1.11422H117.213Z" fill="#1D4C5C"/>
<path d="M130.087 8.80022C130.155 8.40065 130.077 8.05956 129.859 7.78018C129.642 7.50081 129.327 7.32214 128.914 7.25068C128.524 7.18571 128.183 7.26692 127.884 7.50406C127.585 7.73795 127.41 8.03682 127.355 8.3909C127.28 8.81971 127.4 9.20303 127.719 9.53438C128.034 9.86573 128.423 10.0054 128.891 9.94694C129.21 9.91446 129.476 9.78776 129.694 9.57011C129.908 9.35246 130.038 9.09258 130.087 8.79047V8.80022Z" fill="#1D4C5C"/>
<path d="M135.43 8.80022C135.499 8.40065 135.421 8.05956 135.203 7.78018C134.985 7.50081 134.67 7.32214 134.258 7.25068C133.868 7.18571 133.527 7.26692 133.228 7.50406C132.929 7.73795 132.754 8.03682 132.698 8.3909C132.624 8.81971 132.744 9.20303 133.062 9.53438C133.377 9.86573 133.767 10.0054 134.235 9.94694C134.553 9.91446 134.82 9.78776 135.037 9.57011C135.252 9.35246 135.382 9.09258 135.43 8.79047V8.80022Z" fill="#1D4C5C"/>
<path d="M140.778 8.80022C140.846 8.40065 140.768 8.05956 140.55 7.78018C140.333 7.50081 140.017 7.32214 139.605 7.25068C139.215 7.18571 138.874 7.26692 138.575 7.50406C138.276 7.73795 138.101 8.03682 138.046 8.3909C137.971 8.81971 138.091 9.20303 138.409 9.53438C138.725 9.86573 139.114 10.0054 139.582 9.94694C139.901 9.91446 140.167 9.78776 140.385 9.57011C140.599 9.35246 140.729 9.09258 140.778 8.79047V8.80022Z" fill="#1D4C5C"/>
<path d="M155.074 6.47108C154.343 6.4321 153.7 6.51006 153.132 6.70172C152.355 6.98434 151.787 7.42939 151.436 8.0531C151.082 8.67357 150.945 9.29728 151.03 9.94049C151.114 10.5837 151.407 11.1522 151.92 11.6525C152.433 12.1527 153.171 12.4288 154.139 12.4808C154.837 12.4873 155.23 12.2664 155.305 11.8116C155.383 11.3601 155.458 10.8988 155.519 10.444C155.487 10.1354 155.789 9.87552 156.409 9.66112C157.033 9.44671 157.738 9.30053 158.511 9.23231C159.284 9.16409 160.009 9.17059 160.684 9.2713C161.354 9.372 161.714 9.5864 161.76 9.90151C161.838 10.509 161.906 11.2691 161.945 12.195C161.99 13.124 162.007 14.0369 162 14.9367C161.994 15.8333 161.955 16.6324 161.883 17.3244C161.815 18.0163 161.714 18.4223 161.578 18.5458C161.448 18.7147 160.801 18.8154 159.645 18.8447C158.485 18.8739 157.657 18.8219 157.166 18.6757C157.098 18.6692 157.02 18.6075 156.952 18.4841C155.51 18.8284 154.08 18.9519 152.683 18.8609C150.211 18.6692 148.139 17.7012 146.466 15.96C144.793 14.2188 144.101 12.0618 144.377 9.50519C144.692 6.71147 145.712 4.53172 147.431 2.96594C149.152 1.40015 151.332 0.549044 153.957 0.409358C155.691 0.331393 157.264 0.685481 158.683 1.46837C160.103 2.25776 160.824 3.67736 160.857 5.73692C160.889 6.05202 160.694 6.3119 160.265 6.5263C159.843 6.74071 159.336 6.90963 158.755 7.03307C158.17 7.15651 157.595 7.24098 157.027 7.27996C156.458 7.31894 156.046 7.31894 155.799 7.27996C155.454 7.23448 155.285 7.09479 155.302 6.87389C155.318 6.64975 155.233 6.51981 155.065 6.49707L155.081 6.47433L155.074 6.47108Z" fill="#1D4C5C"/>
</g>
<defs>
<clipPath id="clip0_331_806">
<rect width="162" height="20.1733" fill="white"/>
</clipPath>
</defs>
</svg>
