<svg width="240" height="57" viewBox="0 0 240 57" fill="none" xmlns="http://www.w3.org/2000/svg">
<rect width="240" height="57" fill="white"/>
<path d="M89.3799 23.8887C89.3799 25.3828 90.4053 26.8989 92.0605 27.5508L91.5039 28.4297C90.2368 27.9243 89.3286 26.9355 88.8672 25.7637C88.4131 27.0601 87.5049 28.1587 86.2158 28.7227L85.6299 27.8584C87.2925 27.1479 88.2812 25.5073 88.2959 23.8887V23.8594H85.8936V22.9365H88.2959V21.3838H89.3799V22.9365H91.7383V23.8594H89.3799V23.8887ZM87.2119 33.2344C89.4751 32.8828 91.6504 31.4766 91.665 29.7627V29.4404H92.8076V29.7627C92.8076 31.4766 95.0049 32.8828 97.2607 33.2344L96.8506 34.1279C94.873 33.8057 93.0273 32.7949 92.2363 31.3301C91.4453 32.7949 89.5923 33.8057 87.6367 34.1279L87.2119 33.2344ZM92.6758 28.8545V21.4131H93.7891V24.5039H95.4883V21.1787H96.5869V29.9824H95.4883V25.4707H93.7891V28.8545H92.6758ZM101.216 21.5156V22.9805H107.661V21.5156H108.804V26.291H104.995V27.7852H110.356V28.708H98.4912V27.7852H103.867V26.291H100.073V21.5156H101.216ZM99.4141 33.2344C101.758 32.9048 103.838 31.6304 103.838 29.9385V29.5723H104.995V29.9385C104.995 31.6304 107.068 32.9048 109.448 33.2344L109.009 34.1279C107.009 33.8057 105.2 32.8975 104.424 31.4985C103.64 32.8975 101.831 33.8057 99.8535 34.1279L99.4141 33.2344ZM101.216 25.3828H107.661V23.8887H101.216V25.3828ZM118.677 22.6143V23.2881C118.669 24.3208 118.669 26.042 118.296 28.459L117.139 28.3564C117.498 26.1738 117.527 24.5918 117.52 23.5518H112.056V22.6143H118.677ZM111.323 30.3633C112.18 30.356 113.132 30.3486 114.136 30.3267V26.335H115.264V30.29C116.707 30.2388 118.186 30.1436 119.541 29.9824L119.6 30.8467C116.86 31.2715 113.799 31.3301 111.47 31.3154L111.323 30.3633ZM120.361 34.1865V21.1641H121.504V26.6133H123.613V27.6094H121.504V34.1865H120.361ZM132.534 23.2734C132.534 25.0459 133.882 26.6719 135.771 27.3164L135.142 28.2246C133.706 27.6973 132.571 26.6206 132 25.2583C131.443 26.8037 130.278 27.9976 128.755 28.5908L128.14 27.668C130.088 26.9429 131.399 25.1997 131.406 23.1855V21.8379H132.534V23.2734ZM129.868 31.7842C129.875 30.2974 131.509 29.4258 134.189 29.4258C136.863 29.4258 138.481 30.2974 138.481 31.7842C138.481 33.3003 136.863 34.1572 134.189 34.1572C131.509 34.1572 129.875 33.3003 129.868 31.7842ZM131.025 31.7842C131.011 32.707 132.227 33.2417 134.189 33.249C136.16 33.2417 137.361 32.707 137.368 31.7842C137.361 30.8979 136.16 30.3486 134.189 30.3486C132.227 30.3486 131.011 30.8979 131.025 31.7842ZM137.222 29.0889V21.1641H138.364V24.5625H140.327V25.5293H138.364V29.0889H137.222ZM151.328 21.1641V24.3574H153.291V25.3242H151.328V28.5615H150.186V21.1641H151.328ZM141.763 27.7852V22.0576H147.534V22.9951H142.905V26.833C145.52 26.8477 147.007 26.7451 148.75 26.4082L148.896 27.3457C147.065 27.7192 145.513 27.7925 142.773 27.7852H141.763ZM143.11 34.0107V29.2354H151.328V34.0107H143.11ZM144.238 33.0732H150.186V30.1729H144.238V33.0732ZM164.189 21.1641V26.54H166.372V27.4922H164.189V34.1865H163.047V21.1641H164.189ZM154.038 24.2109V23.2588H157.393V21.3252H158.535V23.2588H161.787V24.2109H154.038ZM154.785 28.2832C154.778 26.5254 156.125 25.2949 157.979 25.2949C159.817 25.2949 161.157 26.5254 161.172 28.2832C161.157 30.0483 159.817 31.2715 157.979 31.2715C156.125 31.2715 154.778 30.0483 154.785 28.2832ZM155.884 28.2832C155.876 29.4697 156.763 30.3047 157.979 30.29C159.18 30.3047 160.059 29.4697 160.073 28.2832C160.059 27.104 159.18 26.2544 157.979 26.2617C156.763 26.2544 155.876 27.104 155.884 28.2832ZM177.842 21.1641V34.1865H176.685V21.1641H177.842ZM167.236 30.8027C170.759 29.1328 172.561 26.6353 172.817 23.5225H167.837V22.585H173.989C173.975 26.3276 172.231 29.6455 167.866 31.7402L167.236 30.8027Z" fill="black"/>
<path d="M62 20C57.5888 20 54 22.8712 54 26.4C54 28.7264 55.5176 30.8128 58 31.9472V36L62.272 32.7968C66.5576 32.6816 70 29.856 70 26.4C70 22.8712 66.4112 20 62 20ZM60 27.2C59.6817 27.2 59.3765 27.0736 59.1515 26.8485C58.9264 26.6235 58.8 26.3183 58.8 26C58.8 25.6817 58.9264 25.3765 59.1515 25.1515C59.3765 24.9264 59.6817 24.8 60 24.8C60.3183 24.8 60.6235 24.9264 60.8485 25.1515C61.0736 25.3765 61.2 25.6817 61.2 26C61.2 26.3183 61.0736 26.6235 60.8485 26.8485C60.6235 27.0736 60.3183 27.2 60 27.2ZM64 27.2C63.6817 27.2 63.3765 27.0736 63.1515 26.8485C62.9264 26.6235 62.8 26.3183 62.8 26C62.8 25.6817 62.9264 25.3765 63.1515 25.1515C63.3765 24.9264 63.6817 24.8 64 24.8C64.3183 24.8 64.6235 24.9264 64.8485 25.1515C65.0736 25.3765 65.2 25.6817 65.2 26C65.2 26.3183 65.0736 26.6235 64.8485 26.8485C64.6235 27.0736 64.3183 27.2 64 27.2Z" fill="#1D4C5C"/>
</svg>
