<svg width="311" height="79" viewBox="0 0 311 79" fill="none" xmlns="http://www.w3.org/2000/svg">
<path d="M33.8906 1.99609V3.96875H31.1562C31.166 5.74609 32.1816 7.44531 34.418 8.22656L33.3047 10.082C31.7227 9.52539 30.6582 8.5 30.0234 7.24023C29.3984 8.63672 28.3242 9.7793 26.7031 10.375L25.5312 8.57812C27.7676 7.71875 28.7734 5.87305 28.793 3.96875H26.0391V1.99609H28.793V0.238281H31.1562V1.99609H33.8906ZM27.6992 15.7852C31.498 15.3066 33.4023 13.373 33.4023 11.5078V11.2148H35.9023V11.5078C35.8926 13.373 37.8262 15.3066 41.6055 15.7852L40.7461 17.7188C37.8359 17.3281 35.7559 16.1172 34.6621 14.457C33.5586 16.1172 31.4688 17.3281 28.5781 17.7188L27.6992 15.7852ZM34.6914 10.4922V0.316406H37.0352V4.28125H38.4609V0.0429688H40.8242V12.0547H38.4609V6.3125H37.0352V10.4922H34.6914ZM47.3672 0.53125V2.07422H54.4961V0.53125H56.9766V7.23047H52.1719V8.67578H59.0469V10.6484H42.8359V8.67578H49.7109V7.23047H44.9062V0.53125H47.3672ZM43.9297 15.8047C47.7969 15.3945 49.6523 13.627 49.6719 11.8789V11.5469H52.1914V11.8789C52.1816 13.627 54.0371 15.3945 57.9531 15.8047L57.0938 17.7188C54.1445 17.3379 52.0352 16.2344 50.9316 14.6816C49.8184 16.2344 47.7285 17.3379 44.8086 17.7188L43.9297 15.8047ZM47.3672 5.29688H54.4961V3.92969H47.3672V5.29688ZM70.1211 1.80078V3.22656C70.1016 4.89648 70.1016 7.08398 69.6328 10.043L67.1719 9.84766C67.582 7.26953 67.6211 5.36523 67.6406 3.79297H60.9023V1.80078H70.1211ZM59.9648 12.1719C60.9609 12.1719 62.0742 12.1621 63.2266 12.1328V6.89844H65.6875V12.0547C67.4355 11.9863 69.2031 11.8594 70.8438 11.6445L71 13.5C67.3379 14.1152 63.3145 14.1836 60.1992 14.1641L59.9648 12.1719ZM71.6836 17.7969V0.0234375H74.2031V7.17188H76.625V9.24219H74.2031V17.7969H71.6836ZM91.1953 1.46875V4.73047H94.5156V0.0429688H96.9961V12.9727H94.5156V6.70312H91.1953V10.0234H82.7578V1.46875H91.1953ZM85.1992 17.4844V11.7422H87.6992V15.4922H97.4258V17.4844H85.1992ZM85.2383 8.07031H88.7539V3.44141H85.2383V8.07031ZM114.32 0.0234375V17.8359H111.82V8.24609H108.637V6.21484H111.82V0.0234375H114.32ZM99.0273 12.5234C102.006 11.1562 103.461 7.76758 103.461 4.47656V3.73438H99.7695V1.74219H109.711V3.73438H106.02V4.47656C106.01 7.60156 107.455 10.8633 110.453 12.1523L108.988 14.125C106.918 13.168 105.531 11.3027 104.77 9.03711C103.998 11.459 102.582 13.4707 100.512 14.4961L99.0273 12.5234ZM136.078 0.0234375V17.8359H133.559V0.0234375H136.078ZM121.723 7.60156C121.713 3.72461 123.695 1.27344 126.43 1.27344C129.105 1.27344 131.098 3.72461 131.098 7.60156C131.098 11.5078 129.105 13.9492 126.43 13.9492C123.695 13.9492 121.713 11.5078 121.723 7.60156ZM124.125 7.60156C124.115 10.248 125.043 11.6934 126.43 11.6836C127.777 11.6934 128.686 10.248 128.695 7.60156C128.686 4.96484 127.777 3.51953 126.43 3.51953C125.043 3.51953 124.115 4.96484 124.125 7.60156ZM143.266 1.27344C145.98 1.27344 147.943 3.72461 147.953 7.60156C147.943 11.5078 145.98 13.9492 143.266 13.9492C140.541 13.9492 138.568 11.5078 138.578 7.60156C138.568 3.72461 140.541 1.27344 143.266 1.27344ZM140.98 7.60156C140.98 10.248 141.908 11.6934 143.266 11.6836C144.652 11.6934 145.561 10.248 145.57 7.60156C145.561 4.96484 144.652 3.51953 143.266 3.51953C141.908 3.51953 140.98 4.96484 140.98 7.60156ZM150.004 17.7969V0.0234375H152.504V4.14453H155.023V6.23438H152.504V9.39844H155.023V11.4297H152.504V17.7969H150.004ZM170.707 0.0234375V17.7969H168.188V0.0234375H170.707ZM155.824 12.7578C160.414 10.5898 162.436 7.77734 162.836 3.83203H156.781V1.87891H165.375C165.365 7.26953 163.48 11.752 157.133 14.75L155.824 12.7578ZM189.301 7.99219V9.84766H173.031V7.99219H189.301ZM174.887 12.4453V10.7266H187.348V14.9258H177.387V15.9414H187.875V17.6406H174.906V13.3438H184.887V12.4453H174.887ZM175.023 2.03516V0.335938H187.328V4.51562H177.543V5.47266H187.641V7.15234H175.062V2.93359H184.828V2.03516H175.023ZM211.488 6.76172V8.79297H208.969V17.7578H206.469V0.0234375H208.969V6.76172H211.488ZM195.512 13.4219V1.72266H197.992V11.3613C200.268 11.3223 202.709 11.1074 205.277 10.5898L205.531 12.6602C202.553 13.2656 199.672 13.4219 197.055 13.4219H195.512ZM227.289 0.0429688V17.7969H224.789V13.7344H221.117V11.8203H224.789V0.0429688H227.289ZM212.055 8.75391C215.541 8.76367 219.74 8.75391 223.48 8.36328L223.617 10.2188C222.123 10.4141 220.6 10.5508 219.105 10.6289V17.2695H216.605V10.7363C215.121 10.7754 213.686 10.7754 212.348 10.7656L212.055 8.75391ZM213.656 6.99609V0.863281H216.156V5.00391H222.523V6.99609H213.656ZM245.785 13.6953V15.7266H229.516V13.6953H236.371V10.4141H231.234V1.15625H233.734V3.91016H241.488V1.15625H243.969V10.4141H238.852V13.6953H245.785ZM233.734 8.42188H241.488V5.90234H233.734V8.42188ZM252.504 4.49609C252.494 7.37695 253.295 10.3457 255.727 11.8984L254.379 13.832C252.836 12.9043 251.869 11.3613 251.303 9.54492C250.668 11.5566 249.604 13.2461 247.992 14.2227L246.469 12.3867C249.105 10.7559 250.082 7.62109 250.082 4.61328V1.54688H252.504V4.49609ZM253.852 8.05078V6.01953H256.156V0.277344H258.48V16.9766H256.156V8.05078H253.852ZM259.828 17.7969V0.0234375H262.211V17.7969H259.828ZM280.355 13.6758V15.7266H264.086V13.6758H267.719V9.32031C266.342 8.49023 265.512 7.23047 265.512 5.66797C265.512 2.78711 268.324 0.892578 272.191 0.882812C276.039 0.892578 278.881 2.78711 278.891 5.66797C278.881 7.20117 278.08 8.44141 276.742 9.27148V13.6758H280.355ZM267.973 5.66797C267.973 7.40625 269.643 8.48047 272.191 8.48047C274.701 8.48047 276.42 7.40625 276.43 5.66797C276.42 3.88086 274.701 2.8457 272.191 2.85547C269.643 2.8457 267.973 3.88086 267.973 5.66797ZM270.18 13.6758H274.223V10.2188C273.588 10.3457 272.904 10.4141 272.191 10.4141C271.479 10.4141 270.805 10.3457 270.18 10.2285V13.6758ZM285.414 1.85938L285.16 11.7617H282.66L282.406 1.85938H285.414ZM282.289 14.5352C282.27 13.6367 283.012 12.9043 283.93 12.9141C284.799 12.9043 285.551 13.6367 285.551 14.5352C285.551 15.4434 284.799 16.1758 283.93 16.1758C283.012 16.1758 282.27 15.4434 282.289 14.5352Z" fill="#1D4C5C"/>
<path d="M26.0537 48.6348V49.6016H20.6191V54.1865H19.4912V49.6016H14.1299V48.6348H26.0537ZM15.4775 44.5625C15.4849 42.7974 17.3232 41.6987 20.0625 41.6914C22.7944 41.6987 24.6475 42.7974 24.6475 44.5625C24.6475 46.2983 22.7944 47.397 20.0625 47.3896C17.3232 47.397 15.4849 46.2983 15.4775 44.5625ZM16.6641 44.5625C16.6494 45.7197 18.0337 46.4668 20.0625 46.4668C22.0913 46.4668 23.4683 45.7197 23.4756 44.5625C23.4683 43.3833 22.0913 42.6289 20.0625 42.6289C18.0337 42.6289 16.6494 43.3833 16.6641 44.5625ZM38.9736 47.7412V48.6787H27.1084V47.7412H38.9736ZM27.8115 46.1152C30.2505 45.9028 32.3159 44.8921 32.4111 43.4053H28.3389V42.4824H32.4697V41.1348H33.5977V42.4824H37.7725V43.4053H33.6709C33.7515 44.8921 35.8096 45.9028 38.2705 46.1152L37.8896 47.0234C35.7437 46.7817 33.8247 45.998 33.041 44.6797C32.2427 45.998 30.3237 46.7817 28.1924 47.0234L27.8115 46.1152ZM28.4268 51.0225V50.085H37.5088V54.1865H36.3516V51.0225H28.4268ZM44.335 42.1162C46.3784 42.1235 47.8286 43.3687 47.8359 45.1777C47.8286 46.9941 46.3784 48.2319 44.335 48.2393C42.2769 48.2319 40.812 46.9941 40.8193 45.1777C40.812 43.3687 42.2769 42.1235 44.335 42.1162ZM40.1455 50.3633C42.5479 50.3706 45.8657 50.3486 48.7441 49.9238L48.832 50.7734C45.8511 51.3301 42.6504 51.3447 40.3066 51.3447L40.1455 50.3633ZM41.9473 45.1777C41.9399 46.3936 42.9434 47.2285 44.335 47.2285C45.7119 47.2285 46.7153 46.3936 46.708 45.1777C46.7153 43.9692 45.7119 43.127 44.335 43.127C42.9434 43.127 41.9399 43.9692 41.9473 45.1777ZM49.6084 54.2158V41.1641H50.751V54.2158H49.6084ZM62.2646 42.6875V46.0859H64.2422V41.4424H65.3408V53.5273H64.2422V47.0381H62.2646V50.6855H57.2842V42.6875H62.2646ZM58.3682 49.7627H61.1807V43.6104H58.3682V49.7627ZM66.8496 54.1865V41.1641H67.9629V54.1865H66.8496ZM80.2383 45.5732V46.5254H71.2734V41.8379H72.4453V45.5732H80.2383ZM69.7646 49.3672V48.415H81.6299V49.3672H78.5391V54.1865H77.3965V49.3672H74.0127V54.1865H72.8701V49.3672H69.7646ZM93.8906 41.1641V54.1865H92.7773V41.1641H93.8906ZM82.8896 46.7891C82.897 44.0205 83.9956 42.27 85.6875 42.2627C87.2695 42.27 88.3389 43.7935 88.4854 46.2471H90.1699V41.4424H91.2686V53.5273H90.1699V47.1992H88.4927C88.3828 49.7334 87.2915 51.3228 85.6875 51.3154C83.9956 51.3228 82.897 49.5576 82.8896 46.7891ZM83.9736 46.7891C83.959 48.8984 84.6328 50.2314 85.6875 50.2168C86.7495 50.2314 87.4233 48.8984 87.416 46.7891C87.4233 44.6724 86.7495 43.3467 85.6875 43.3467C84.6328 43.3467 83.959 44.6724 83.9736 46.7891ZM100.277 44.665C100.27 47.0234 101.786 49.3965 103.676 50.2607L102.987 51.1982C101.508 50.4365 100.285 48.8838 99.7061 47.0308C99.1274 48.979 97.9043 50.6489 96.4248 51.4326L95.6777 50.5098C97.5894 49.5723 99.0981 47.0674 99.1055 44.665V42.292H100.277V44.665ZM102.255 46.5547V45.6172H105.346V41.1641H106.488V54.2158H105.346V46.5547H102.255ZM112.436 46.3789L113.578 42.3945H114.662L113.856 46.3789H112.436ZM119.584 43.8887C119.584 45.3828 120.609 46.8989 122.265 47.5508L121.708 48.4297C120.441 47.9243 119.533 46.9355 119.071 45.7637C118.617 47.0601 117.709 48.1587 116.42 48.7227L115.834 47.8584C117.497 47.1479 118.485 45.5073 118.5 43.8887V43.8594H116.098V42.9365H118.5V41.3838H119.584V42.9365H121.942V43.8594H119.584V43.8887ZM117.416 53.2344C119.679 52.8828 121.854 51.4766 121.869 49.7627V49.4404H123.012V49.7627C123.012 51.4766 125.209 52.8828 127.465 53.2344L127.055 54.1279C125.077 53.8057 123.231 52.7949 122.44 51.3301C121.649 52.7949 119.796 53.8057 117.841 54.1279L117.416 53.2344ZM122.88 48.8545V41.4131H123.993V44.5039H125.692V41.1787H126.791V49.9824H125.692V45.4707H123.993V48.8545H122.88ZM131.42 41.5156V42.9805H137.865V41.5156H139.008V46.291H135.199V47.7852H140.561V48.708H128.695V47.7852H134.071V46.291H130.277V41.5156H131.42ZM129.618 53.2344C131.962 52.9048 134.042 51.6304 134.042 49.9385V49.5723H135.199V49.9385C135.199 51.6304 137.272 52.9048 139.652 53.2344L139.213 54.1279C137.213 53.8057 135.404 52.8975 134.628 51.4985C133.844 52.8975 132.035 53.8057 130.058 54.1279L129.618 53.2344ZM131.42 45.3828H137.865V43.8887H131.42V45.3828ZM148.881 42.6143V43.2881C148.874 44.3208 148.874 46.042 148.5 48.459L147.343 48.3564C147.702 46.1738 147.731 44.5918 147.724 43.5518H142.26V42.6143H148.881ZM141.527 50.3633C142.384 50.356 143.336 50.3486 144.34 50.3267V46.335H145.468V50.29C146.911 50.2388 148.39 50.1436 149.745 49.9824L149.804 50.8467C147.064 51.2715 144.003 51.3301 141.674 51.3154L141.527 50.3633ZM150.565 54.1865V41.1641H151.708V46.6133H153.817V47.6094H151.708V54.1865H150.565ZM162.738 43.2734C162.738 45.0459 164.086 46.6719 165.976 47.3164L165.346 48.2246C163.91 47.6973 162.775 46.6206 162.204 45.2583C161.647 46.8037 160.482 47.9976 158.959 48.5908L158.344 47.668C160.292 46.9429 161.603 45.1997 161.61 43.1855V41.8379H162.738V43.2734ZM160.072 51.7842C160.08 50.2974 161.713 49.4258 164.394 49.4258C167.067 49.4258 168.686 50.2974 168.686 51.7842C168.686 53.3003 167.067 54.1572 164.394 54.1572C161.713 54.1572 160.08 53.3003 160.072 51.7842ZM161.229 51.7842C161.215 52.707 162.431 53.2417 164.394 53.249C166.364 53.2417 167.565 52.707 167.572 51.7842C167.565 50.8979 166.364 50.3486 164.394 50.3486C162.431 50.3486 161.215 50.8979 161.229 51.7842ZM167.426 49.0889V41.1641H168.568V44.5625H170.531V45.5293H168.568V49.0889H167.426ZM181.532 41.1641V44.3574H183.495V45.3242H181.532V48.5615H180.39V41.1641H181.532ZM171.967 47.7852V42.0576H177.738V42.9951H173.109V46.833C175.724 46.8477 177.211 46.7451 178.954 46.4082L179.101 47.3457C177.27 47.7192 175.717 47.7925 172.978 47.7852H171.967ZM173.314 54.0107V49.2354H181.532V54.0107H173.314ZM174.442 53.0732H180.39V50.1729H174.442V53.0732ZM194.394 41.1641V46.54H196.576V47.4922H194.394V54.1865H193.251V41.1641H194.394ZM184.242 44.2109V43.2588H187.597V41.3252H188.739V43.2588H191.991V44.2109H184.242ZM184.989 48.2832C184.982 46.5254 186.33 45.2949 188.183 45.2949C190.021 45.2949 191.361 46.5254 191.376 48.2832C191.361 50.0483 190.021 51.2715 188.183 51.2715C186.33 51.2715 184.982 50.0483 184.989 48.2832ZM186.088 48.2832C186.081 49.4697 186.967 50.3047 188.183 50.29C189.384 50.3047 190.263 49.4697 190.277 48.2832C190.263 47.104 189.384 46.2544 188.183 46.2617C186.967 46.2544 186.081 47.104 186.088 48.2832ZM208.046 41.1641V54.1865H206.889V41.1641H208.046ZM197.44 50.8027C200.963 49.1328 202.765 46.6353 203.021 43.5225H198.041V42.585H204.193C204.179 46.3276 202.436 49.6455 198.07 51.7402L197.44 50.8027ZM212.484 42.4092L211.342 46.3936H210.258L211.063 42.4092H212.484ZM225.463 47.2139V48.1221H213.539V47.2139H225.463ZM214.975 50.0264V49.1621H223.969V51.9307H216.146V53.1758H224.394V54.0107H214.989V51.1396H222.826V50.0264H214.975ZM215.048 42.3945V41.5596H223.925V44.2549H216.234V45.3975H224.159V46.2324H215.092V43.4639H222.768V42.3945H215.048ZM240.785 44.2988V45.251H231.894V41.3838H233.021V44.2988H240.785ZM230.268 47.3311V46.3936H242.191V47.3311H236.757V48.7227H240.653V51.6963H232.948V53.1172H241.122V54.04H231.791V50.8613H239.525V49.6162H231.762V48.7227H235.644V47.3311H230.268ZM254.027 41.1641V54.2158H252.885V47.1406H250.351V46.1738H252.885V41.1641H254.027ZM243.7 43.332V42.3799H249.56V46.9355H244.887V50.0996C247.135 50.0996 248.761 50.0264 250.658 49.6748L250.746 50.6416C248.791 50.9932 247.099 51.0737 244.74 51.0811H243.744V45.9834H248.446V43.332H243.7ZM262.787 43.0098C262.78 44.7529 265.102 46.2324 267.372 46.5693L266.947 47.4775C264.918 47.1333 262.934 46.0493 262.143 44.4819C261.352 46.0493 259.367 47.1333 257.367 47.4775L256.913 46.5693C259.176 46.2324 261.491 44.7529 261.498 43.0098V42.9219H257.323V41.9844H266.947V42.9219H262.787V43.0098ZM256.21 49.543V48.5908H268.075V49.543H262.685V54.1865H261.557V49.543H256.21ZM273.041 44.8701C273.041 46.9429 274.052 49.1768 275.78 50.2021L275.121 51.0957C273.861 50.334 272.96 48.9424 272.506 47.353C272.03 49.0889 271.063 50.583 269.76 51.374L269.027 50.5098C270.829 49.4551 271.928 47.1479 271.928 44.9141V42.3945H273.041V44.8701ZM274.345 46.8184V45.8369H276.557V41.4424H277.641V53.5273H276.557V46.8184H274.345ZM279.223 54.1865V41.1641H280.336V54.1865H279.223ZM294.062 51.5498V52.5166H282.138V51.5498H285.097V48.0415C283.983 47.4629 283.31 46.5254 283.31 45.3389C283.31 43.3247 285.287 41.999 288.07 41.9844C290.854 41.999 292.831 43.3247 292.831 45.3389C292.831 46.5034 292.179 47.4263 291.103 48.0049V51.5498H294.062ZM284.423 45.3389C284.416 46.7964 285.932 47.7705 288.07 47.7705C290.187 47.7705 291.718 46.7964 291.718 45.3389C291.718 43.8813 290.187 42.9219 288.07 42.9365C285.932 42.9219 284.416 43.8813 284.423 45.3389ZM286.225 51.5498H289.945V48.4517C289.381 48.5981 288.751 48.6787 288.07 48.6787C287.404 48.6787 286.781 48.6055 286.225 48.459V51.5498ZM296.479 53.0879C295.966 53.0806 295.526 52.6558 295.541 52.1357C295.526 51.623 295.966 51.1982 296.479 51.1982C296.999 51.1982 297.423 51.623 297.416 52.1357C297.423 52.6558 296.999 53.0806 296.479 53.0879ZM4.5791 67.8887C4.5791 69.3828 5.60449 70.8989 7.25977 71.5508L6.70312 72.4297C5.43604 71.9243 4.52783 70.9355 4.06641 69.7637C3.6123 71.0601 2.7041 72.1587 1.41504 72.7227L0.829102 71.8584C2.4917 71.1479 3.48047 69.5073 3.49512 67.8887V67.8594H1.09277V66.9365H3.49512V65.3838H4.5791V66.9365H6.9375V67.8594H4.5791V67.8887ZM2.41113 77.2344C4.67432 76.8828 6.84961 75.4766 6.86426 73.7627V73.4404H8.00684V73.7627C8.00684 75.4766 10.2041 76.8828 12.46 77.2344L12.0498 78.1279C10.0723 77.8057 8.22656 76.7949 7.43555 75.3301C6.64453 76.7949 4.7915 77.8057 2.83594 78.1279L2.41113 77.2344ZM7.875 72.8545V65.4131H8.98828V68.5039H10.6875V65.1787H11.7861V73.9824H10.6875V69.4707H8.98828V72.8545H7.875ZM16.415 65.5156V66.9805H22.8604V65.5156H24.0029V70.291H20.1943V71.7852H25.5557V72.708H13.6904V71.7852H19.0664V70.291H15.2725V65.5156H16.415ZM14.6133 77.2344C16.957 76.9048 19.0371 75.6304 19.0371 73.9385V73.5723H20.1943V73.9385C20.1943 75.6304 22.2671 76.9048 24.6475 77.2344L24.208 78.1279C22.2085 77.8057 20.3994 76.8975 19.623 75.4985C18.8394 76.8975 17.0303 77.8057 15.0527 78.1279L14.6133 77.2344ZM16.415 69.3828H22.8604V67.8887H16.415V69.3828ZM33.876 66.6143V67.2881C33.8687 68.3208 33.8687 70.042 33.4951 72.459L32.3379 72.3564C32.6968 70.1738 32.7261 68.5918 32.7188 67.5518H27.2549V66.6143H33.876ZM26.5225 74.3633C27.3794 74.356 28.3315 74.3486 29.335 74.3267V70.335H30.4629V74.29C31.9058 74.2388 33.3853 74.1436 34.7402 73.9824L34.7988 74.8467C32.0596 75.2715 28.998 75.3301 26.6689 75.3154L26.5225 74.3633ZM35.5605 78.1865V65.1641H36.7031V70.6133H38.8125V71.6094H36.7031V78.1865H35.5605ZM47.7334 67.2734C47.7334 69.0459 49.0811 70.6719 50.9707 71.3164L50.3408 72.2246C48.9053 71.6973 47.77 70.6206 47.1987 69.2583C46.6421 70.8037 45.4775 71.9976 43.9541 72.5908L43.3389 71.668C45.2871 70.9429 46.5981 69.1997 46.6055 67.1855V65.8379H47.7334V67.2734ZM45.0674 75.7842C45.0747 74.2974 46.708 73.4258 49.3887 73.4258C52.062 73.4258 53.6807 74.2974 53.6807 75.7842C53.6807 77.3003 52.062 78.1572 49.3887 78.1572C46.708 78.1572 45.0747 77.3003 45.0674 75.7842ZM46.2246 75.7842C46.21 76.707 47.4258 77.2417 49.3887 77.249C51.3589 77.2417 52.5601 76.707 52.5674 75.7842C52.5601 74.8979 51.3589 74.3486 49.3887 74.3486C47.4258 74.3486 46.21 74.8979 46.2246 75.7842ZM52.4209 73.0889V65.1641H53.5635V68.5625H55.5264V69.5293H53.5635V73.0889H52.4209ZM66.5273 65.1641V68.3574H68.4902V69.3242H66.5273V72.5615H65.3848V65.1641H66.5273ZM56.9619 71.7852V66.0576H62.7334V66.9951H58.1045V70.833C60.7192 70.8477 62.2061 70.7451 63.9492 70.4082L64.0957 71.3457C62.2646 71.7192 60.7119 71.7925 57.9727 71.7852H56.9619ZM58.3096 78.0107V73.2354H66.5273V78.0107H58.3096ZM59.4375 77.0732H65.3848V74.1729H59.4375V77.0732ZM80.0479 65.1641V78.2158H78.8906V65.1641H80.0479ZM69.7939 70.7158C69.8013 67.9473 71.1782 66.1821 73.1191 66.1748C75.0527 66.1821 76.4517 67.9473 76.4443 70.7158C76.4517 73.4917 75.0527 75.2495 73.1191 75.2422C71.1782 75.2495 69.8013 73.4917 69.7939 70.7158ZM70.9072 70.7158C70.9072 72.8325 71.8154 74.2241 73.1191 74.2168C74.4302 74.2241 75.3311 72.8325 75.3311 70.7158C75.3311 68.5991 74.4302 67.2075 73.1191 67.2002C71.8154 67.2075 70.9072 68.5991 70.9072 70.7158ZM92.5283 69.793V71.6533H97.9043V72.6055H86.0391V71.6533H91.4004V69.793H92.5283ZM86.6982 69.5293C88.9688 69.2876 91.144 68.1743 91.2246 66.7168H87.123V65.7793H96.8496V66.7168H92.7188C92.7993 68.167 94.9746 69.2876 97.2451 69.5293L96.8203 70.4375C94.689 70.1738 92.6895 69.2437 91.9717 67.8008C91.2539 69.2437 89.269 70.1738 87.123 70.4375L86.6982 69.5293ZM87.4746 75.916C87.4673 74.4731 89.1445 73.6748 91.9717 73.6748C94.7695 73.6748 96.4395 74.4731 96.4541 75.916C96.4395 77.3662 94.7695 78.1572 91.9717 78.1572C89.1445 78.1572 87.4673 77.3662 87.4746 75.916ZM88.6465 75.916C88.6318 76.7729 89.8623 77.271 91.9717 77.2637C94.0591 77.271 95.2896 76.7729 95.2969 75.916C95.2896 75.0664 94.0591 74.5757 91.9717 74.583C89.8623 74.5757 88.6318 75.0664 88.6465 75.916ZM110.927 75.6084V76.5752H99.0029V75.6084H102.357V73.1328H100.497V69.1191H108.29V67.083H100.468V66.1309H109.418V70.0713H101.64V72.1807H109.726V73.1328H107.689V75.6084H110.927ZM103.485 75.6084H106.562V73.1328H103.485V75.6084ZM119.54 69.4414V70.3789H116.903V72.1953C118.119 72.144 119.335 72.0562 120.463 71.9316L120.551 72.7812C117.746 73.1694 114.647 73.25 112.201 73.25L112.025 72.3125C113.168 72.3052 114.45 72.2905 115.761 72.2466V70.3789H113.212V66.0137H119.438V66.9658H114.369V69.4414H119.54ZM114.252 77.9082V74.2461H115.395V76.9414H123.129V77.9082H114.252ZM121.547 74.9199V65.1787H122.704V74.9199H121.547ZM139.872 66.6582V67.6104H129.311V66.6582H134.057V65.0908H135.185V66.6582H139.872ZM128.695 74.5537V73.6016H140.619V74.5537H135.185V78.2158H134.057V74.5537H128.695ZM130.38 70.54C130.365 69.1338 131.962 68.3574 134.628 68.3574C137.272 68.3574 138.869 69.1338 138.876 70.54C138.869 71.917 137.272 72.6934 134.628 72.708C131.962 72.6934 130.365 71.917 130.38 70.54ZM131.566 70.54C131.552 71.3457 132.687 71.8218 134.628 71.8145C136.547 71.8218 137.675 71.3457 137.689 70.54C137.675 69.7197 136.547 69.2437 134.628 69.2363C132.687 69.2437 131.552 69.7197 131.566 70.54ZM149.877 67.625C149.877 69.4414 151.195 71.1553 153.1 71.8438L152.455 72.7373C151.027 72.1733 149.884 71.0454 149.328 69.6245C148.778 71.1992 147.592 72.4443 146.054 73.0596L145.438 72.1221C147.394 71.4043 148.742 69.5806 148.749 67.5811V65.9697H149.877V67.625ZM147.797 77.9082V73.8213H148.954V76.9414H156.513V77.9082H147.797ZM152.162 69.207V68.2402H155.062V65.1787H156.22V74.9346H155.062V69.207H152.162ZM162.27 67.7568C162.277 69.1997 163.28 70.6572 164.95 71.2871L164.35 72.166C163.097 71.6826 162.196 70.7524 161.728 69.6318C161.251 70.8696 160.314 71.9756 159.032 72.5322L158.402 71.6387C160.116 70.8916 161.164 69.207 161.171 67.7568V65.9844H162.27V67.7568ZM160.775 75.8428C160.761 74.3706 162.431 73.5063 165.141 73.5137C167.836 73.5063 169.513 74.3706 169.521 75.8428C169.513 77.3003 167.836 78.1572 165.141 78.1572C162.431 78.1572 160.761 77.3003 160.775 75.8428ZM161.918 75.8428C161.903 76.729 163.141 77.271 165.141 77.2637C167.118 77.271 168.363 76.729 168.378 75.8428C168.363 74.9419 167.118 74.3999 165.141 74.3926C163.141 74.3999 161.903 74.9419 161.918 75.8428ZM165.536 72.8105V65.4277H166.62V68.6797H168.349V65.1787H169.447V73.2207H168.349V69.6318H166.62V72.8105H165.536ZM182.089 65.1641V72.5615H180.961V65.1641H182.089ZM172.172 71.5654V65.9404H173.329V70.584C175.482 70.5693 177.409 70.4229 179.481 69.9834L179.657 70.9502C177.453 71.397 175.475 71.5508 173.227 71.5654H172.172ZM173.637 78.0107V73.1621H182.089V78.0107H173.637ZM174.765 77.0732H180.961V74.085H174.765V77.0732ZM191.537 66.6143V67.2881C191.53 68.3208 191.53 70.042 191.156 72.459L189.999 72.3564C190.358 70.1738 190.387 68.5918 190.38 67.5518H184.916V66.6143H191.537ZM184.184 74.3633C185.041 74.356 185.993 74.3486 186.996 74.3267V70.335H188.124V74.29C189.567 74.2388 191.046 74.1436 192.401 73.9824L192.46 74.8467C189.721 75.2715 186.659 75.3301 184.33 75.3154L184.184 74.3633ZM193.222 78.1865V65.1641H194.364V70.6133H196.474V71.6094H194.364V78.1865H193.222ZM201.542 66.1162C203.585 66.1235 205.036 67.3687 205.043 69.1777C205.036 70.9941 203.585 72.2319 201.542 72.2393C199.484 72.2319 198.019 70.9941 198.026 69.1777C198.019 67.3687 199.484 66.1235 201.542 66.1162ZM197.353 74.3633C199.755 74.3706 203.073 74.3486 205.951 73.9238L206.039 74.7734C203.058 75.3301 199.857 75.3447 197.514 75.3447L197.353 74.3633ZM199.154 69.1777C199.147 70.3936 200.15 71.2285 201.542 71.2285C202.919 71.2285 203.922 70.3936 203.915 69.1777C203.922 67.9692 202.919 67.127 201.542 67.127C200.15 67.127 199.147 67.9692 199.154 69.1777ZM206.815 78.2158V65.1641H207.958V78.2158H206.815ZM218.358 67.2734C218.358 69.0459 219.706 70.6719 221.596 71.3164L220.966 72.2246C219.53 71.6973 218.395 70.6206 217.824 69.2583C217.267 70.8037 216.103 71.9976 214.579 72.5908L213.964 71.668C215.912 70.9429 217.223 69.1997 217.23 67.1855V65.8379H218.358V67.2734ZM215.692 75.7842C215.7 74.2974 217.333 73.4258 220.014 73.4258C222.687 73.4258 224.306 74.2974 224.306 75.7842C224.306 77.3003 222.687 78.1572 220.014 78.1572C217.333 78.1572 215.7 77.3003 215.692 75.7842ZM216.85 75.7842C216.835 76.707 218.051 77.2417 220.014 77.249C221.984 77.2417 223.185 76.707 223.192 75.7842C223.185 74.8979 221.984 74.3486 220.014 74.3486C218.051 74.3486 216.835 74.8979 216.85 75.7842ZM223.046 73.0889V65.1641H224.188V68.5625H226.151V69.5293H224.188V73.0889H223.046ZM237.152 65.1641V68.3574H239.115V69.3242H237.152V72.5615H236.01V65.1641H237.152ZM227.587 71.7852V66.0576H233.358V66.9951H228.729V70.833C231.344 70.8477 232.831 70.7451 234.574 70.4082L234.721 71.3457C232.89 71.7192 231.337 71.7925 228.598 71.7852H227.587ZM228.935 78.0107V73.2354H237.152V78.0107H228.935ZM230.062 77.0732H236.01V74.1729H230.062V77.0732ZM250.673 65.1641V78.2158H249.516V65.1641H250.673ZM240.419 70.7158C240.426 67.9473 241.803 66.1821 243.744 66.1748C245.678 66.1821 247.077 67.9473 247.069 70.7158C247.077 73.4917 245.678 75.2495 243.744 75.2422C241.803 75.2495 240.426 73.4917 240.419 70.7158ZM241.532 70.7158C241.532 72.8325 242.44 74.2241 243.744 74.2168C245.055 74.2241 245.956 72.8325 245.956 70.7158C245.956 68.5991 245.055 67.2075 243.744 67.2002C242.44 67.2075 241.532 68.5991 241.532 70.7158ZM261.352 67.9619C261.359 69.7197 262.743 71.3018 264.691 71.917L264.105 72.8398C262.589 72.3198 261.388 71.2505 260.795 69.8809C260.231 71.3604 259.008 72.5322 257.455 73.1035L256.854 72.1807C258.81 71.4995 260.187 69.8076 260.194 67.9619V67.2002H257.147V66.2627H264.354V67.2002H261.352V67.9619ZM259.008 77.9082V73.8213H260.15V76.9414H267.826V77.9082H259.008ZM266.273 74.7295V65.1787H267.416V74.7295H266.273ZM280.688 65.1641V73.4111H279.589V69.6758H277.846V72.9424H276.762V65.4277H277.846V68.7236H279.589V65.1641H280.688ZM269.555 67.6543V66.7314H272.338V65.2666H273.48V66.7314H276.234V67.6543H269.555ZM270.126 70.584C270.119 69.2217 271.269 68.3501 272.909 68.3574C274.557 68.3501 275.7 69.2217 275.707 70.584C275.7 71.9243 274.557 72.7959 272.909 72.7959C271.269 72.7959 270.119 71.9243 270.126 70.584ZM271.151 70.584C271.151 71.3823 271.869 71.9316 272.909 71.9316C273.949 71.9316 274.667 71.3823 274.667 70.584C274.667 69.7563 273.949 69.207 272.909 69.207C271.869 69.207 271.151 69.7563 271.151 70.584ZM272.016 75.916C272.001 74.4512 273.634 73.6309 276.381 73.6309C279.12 73.6309 280.753 74.4512 280.761 75.916C280.753 77.3442 279.12 78.1572 276.381 78.1572C273.634 78.1572 272.001 77.3442 272.016 75.916ZM273.158 75.916C273.144 76.7583 274.352 77.271 276.381 77.2637C278.402 77.271 279.604 76.7583 279.618 75.916C279.604 75.0225 278.402 74.5244 276.381 74.5391C274.352 74.5244 273.144 75.0225 273.158 75.916ZM282.431 74.3926C283.266 74.3926 284.313 74.3853 285.404 74.3486V71.7412H283.134V66.4971H288.671V67.4492H284.262V70.7891H288.788V71.7412H286.518V74.312C287.477 74.2681 288.429 74.1948 289.257 74.0996L289.315 74.9346C287.162 75.3008 284.372 75.3667 282.606 75.3594L282.431 74.3926ZM289.857 77.498V65.457H290.927V70.5986H292.553V65.1641H293.666V78.1865H292.553V71.5361H290.927V77.498H289.857ZM307.479 75.5498V76.5166H295.556V75.5498H298.515V72.0415C297.401 71.4629 296.728 70.5254 296.728 69.3389C296.728 67.3247 298.705 65.999 301.488 65.9844C304.271 65.999 306.249 67.3247 306.249 69.3389C306.249 70.5034 305.597 71.4263 304.521 72.0049V75.5498H307.479ZM297.841 69.3389C297.833 70.7964 299.35 71.7705 301.488 71.7705C303.605 71.7705 305.136 70.7964 305.136 69.3389C305.136 67.8813 303.605 66.9219 301.488 66.9365C299.35 66.9219 297.833 67.8813 297.841 69.3389ZM299.643 75.5498H303.363V72.4517C302.799 72.5981 302.169 72.6787 301.488 72.6787C300.822 72.6787 300.199 72.6055 299.643 72.459V75.5498ZM309.896 77.0879C309.384 77.0806 308.944 76.6558 308.959 76.1357C308.944 75.623 309.384 75.1982 309.896 75.1982C310.417 75.1982 310.841 75.623 310.834 76.1357C310.841 76.6558 310.417 77.0806 309.896 77.0879Z" fill="#696969"/>
</svg>
