<svg width="20" height="20" viewBox="0 0 20 20" fill="none" xmlns="http://www.w3.org/2000/svg">
<path d="M12.2014 9.85858L12.06 9.99993L12.2013 10.1413L19.2709 17.2184L19.2769 17.2243L19.2833 17.2298C19.4374 17.3599 19.5627 17.5206 19.6514 17.7017C19.7401 17.8828 19.7903 18.0803 19.7987 18.2818C19.8072 18.4832 19.7737 18.6843 19.7005 18.8721C19.6272 19.06 19.5158 19.2306 19.3732 19.3732C19.2306 19.5158 19.06 19.6272 18.8721 19.7005C18.6843 19.7737 18.4832 19.8072 18.2818 19.7987C18.0803 19.7903 17.8828 19.7401 17.7017 19.6514C17.5206 19.5627 17.3599 19.4374 17.2298 19.2833L17.2244 19.2769L17.2184 19.271L10.1414 12.194L10 12.0526L9.85858 12.194L2.78767 19.2649C2.50952 19.4973 2.15464 19.6178 1.79231 19.6026C1.42726 19.5873 1.08129 19.4354 0.822935 19.1771C0.564584 18.9187 0.412711 18.5727 0.39741 18.2077C0.382222 17.8454 0.502687 17.4905 0.735091 17.2123L7.806 10.1414L7.94743 10L7.806 9.85858L0.728981 2.78156L0.723053 2.77563L0.71665 2.77022C0.562636 2.64007 0.43731 2.47937 0.348599 2.29829C0.259888 2.11721 0.209723 1.91969 0.201279 1.71823C0.192834 1.51677 0.226292 1.31574 0.299538 1.12788C0.372784 0.940008 0.484222 0.769385 0.626804 0.626804C0.769385 0.484222 0.940008 0.372784 1.12788 0.299538C1.31574 0.226292 1.51677 0.192834 1.71823 0.201279C1.91969 0.209723 2.11721 0.259888 2.29829 0.348599C2.47937 0.43731 2.64007 0.562636 2.77022 0.71665L2.77563 0.723053L2.78156 0.728981L9.85858 7.806L10 7.94743L10.1414 7.806L17.214 0.733402C17.491 0.490088 17.85 0.360769 18.2187 0.371657C18.5893 0.382603 18.9419 0.534427 19.2045 0.796204L19.3457 0.654561L19.2045 0.796205C19.4671 1.05798 19.62 1.41002 19.6321 1.78062C19.6442 2.14915 19.5161 2.50847 19.2737 2.7862L12.2014 9.85858Z" fill="#ACACAC" stroke="white" stroke-width="0.4"/>
</svg>
