<svg width="265" height="47" viewBox="0 0 265 47" fill="none" xmlns="http://www.w3.org/2000/svg">
<path d="M32.3691 2.81641C32.3594 4.97461 33.6191 7.04492 36.4316 7.91406L35.1035 9.84766C33.2188 9.22266 31.9004 8.01172 31.1387 6.45898C30.3672 8.24609 28.9902 9.65234 26.959 10.3359L25.6113 8.38281C28.5801 7.39648 29.8496 5.0332 29.8691 2.58203V0.960938H32.3691V2.81641ZM28.0723 14.3594C28.0625 12.2012 30.416 10.9219 34.166 10.9219C37.8477 10.9219 40.1523 12.2012 40.1621 14.3594C40.1523 16.5371 37.8477 17.8066 34.166 17.7969C30.416 17.8066 28.0625 16.5371 28.0723 14.3594ZM30.5723 14.3594C30.5527 15.3652 31.832 15.8438 34.166 15.8438C36.4707 15.8438 37.7012 15.3652 37.7012 14.3594C37.7012 13.3926 36.4707 12.875 34.166 12.875C31.832 12.875 30.5527 13.3926 30.5723 14.3594ZM37.4863 10.5703V0.0234375H39.9863V4.18359H42.3887V6.25391H39.9863V10.5703H37.4863ZM57.2715 0.0234375V4.02734H59.6738V6.07812H57.2715V10.0039H54.7715V0.0234375H57.2715ZM43.8535 9.33984V1.13672H51.7832V3.10938H46.3535V7.34766C49.5762 7.32812 51.3438 7.20117 53.3262 6.80078L53.5801 8.75391C51.3438 9.27148 49.293 9.33984 45.3574 9.33984H43.8535ZM45.6504 17.582V10.7461H57.2715V17.582H45.6504ZM48.1113 15.6289H54.8105V12.7188H48.1113V15.6289ZM75.4355 0.0234375V8.96875H72.9551V7.60156H68.8926V5.70703H72.9551V4.14453H69.0879C67.9844 6.81055 65.4453 8.51953 61.5098 9.37891L60.6699 7.34766C64.7422 6.54688 66.6172 4.85742 66.9492 2.71875H61.666V0.707031H69.7129C69.7129 1.24414 69.6738 1.76172 69.5957 2.25H72.9551V0.0234375H75.4355ZM63.6191 11.5664V9.61328H75.4355V14.4766H66.1387V15.6484H75.8262V17.6211H63.6387V12.6406H72.9355V11.5664H63.6191ZM87.7402 1.80078V3.22656C87.7207 4.89648 87.7207 7.08398 87.252 10.043L84.791 9.84766C85.2012 7.26953 85.2402 5.36523 85.2598 3.79297H78.5215V1.80078H87.7402ZM77.584 12.1719C78.5801 12.1719 79.6934 12.1621 80.8457 12.1328V6.89844H83.3066V12.0547C85.0547 11.9863 86.8223 11.8594 88.4629 11.6445L88.6191 13.5C84.957 14.1152 80.9336 14.1836 77.8184 14.1641L77.584 12.1719ZM89.3027 17.7969V0.0234375H91.8223V7.17188H94.2441V9.24219H91.8223V17.7969H89.3027ZM111.275 7.99219V9.84766H95.0059V7.99219H111.275ZM96.8613 12.4453V10.7266H109.322V14.9258H99.3613V15.9414H109.85V17.6406H96.8809V13.3438H106.861V12.4453H96.8613ZM96.998 2.03516V0.335938H109.303V4.51562H99.5176V5.47266H109.615V7.15234H97.0371V2.93359H106.803V2.03516H96.998ZM133.17 9.14453V11.0977H126.471V13.9688H124.01V11.0977H116.9V9.14453H133.17ZM118.814 17.4844V12.5625H121.275V15.4922H131.373V17.4844H118.814ZM118.99 7.89453V0.589844H121.451V2.44531H128.58V0.589844H131.061V7.89453H118.99ZM121.451 5.92188H128.58V4.30078H121.451V5.92188ZM140.865 2.79688C140.855 5.01367 142.096 7.16211 144.908 8.05078L143.58 10.0234C141.676 9.37891 140.367 8.09961 139.615 6.48828C138.834 8.24609 137.438 9.62305 135.436 10.3359L134.088 8.34375C137.066 7.39648 138.336 5.07227 138.346 2.64062V0.941406H140.865V2.79688ZM136.979 13.3828V11.4102H149.186V17.7969H146.705V13.3828H136.979ZM143.365 5.375V3.32422H146.705V0.0234375H149.186V10.6094H146.705V5.375H143.365ZM165.514 0.0234375V6.97656H168.131V9.02734H165.514V17.7969H163.053V0.0234375H165.514ZM151.393 4.67188V2.67969H155.416V0.296875H157.916V2.67969H161.842V4.67188H151.393ZM152.115 9.90625C152.105 7.42578 154.039 5.6582 156.666 5.66797C159.254 5.6582 161.197 7.42578 161.197 9.90625C161.197 12.3867 159.254 14.1348 156.666 14.1445C154.039 14.1348 152.105 12.3867 152.115 9.90625ZM154.498 9.90625C154.498 11.2832 155.406 12.1035 156.666 12.0938C157.906 12.1035 158.814 11.2832 158.814 9.90625C158.814 8.53906 157.906 7.69922 156.666 7.67969C155.406 7.69922 154.498 8.53906 154.498 9.90625ZM183.424 1.56641V3.24609C183.414 5.47266 183.414 7.97266 182.701 11.7422L180.201 11.4883C180.885 8.12891 180.914 5.62891 180.924 3.53906H170.455V1.56641H183.424ZM168.775 15.6289V13.5977H174.576V7.48438H177.057V13.5977H184.986V15.6289H168.775ZM197.135 11.4297C197.135 12.8555 197.74 14.3398 199.176 15.3164C200.65 14.2715 201.295 12.748 201.295 11.4297V10.8242H203.756V11.4297C203.736 13.2852 204.723 14.9941 207.096 15.7266L205.885 17.543C204.186 16.9668 203.072 15.8828 202.457 14.5059C201.871 15.8828 200.836 17.0742 199.244 17.6992C197.574 17.0938 196.529 15.9414 195.953 14.5742C195.318 15.8926 194.225 16.9668 192.604 17.543L191.373 15.7266C193.707 14.9258 194.703 13.1582 194.713 11.4297V10.8242H197.135V11.4297ZM190.943 5.21875C190.943 2.69922 193.033 0.941406 195.807 0.941406C198.57 0.941406 200.66 2.69922 200.67 5.21875C200.66 7.68945 198.57 9.4668 195.807 9.45703C193.033 9.4668 190.943 7.68945 190.943 5.21875ZM193.385 5.21875C193.365 6.55664 194.381 7.39648 195.807 7.38672C197.193 7.39648 198.199 6.55664 198.209 5.21875C198.199 3.8418 197.193 3.03125 195.807 3.03125C194.381 3.03125 193.365 3.8418 193.385 5.21875ZM203.053 10.082V0.0429688H205.553V10.082H203.053ZM212.857 1.27344C215.26 1.27344 217.057 3.24609 217.408 6.44922H220.494V0.0234375H222.955V17.8359H220.494V8.44141H217.438C217.174 11.8594 215.338 13.9492 212.857 13.9492C210.162 13.9492 208.229 11.5078 208.248 7.60156C208.229 3.72461 210.162 1.27344 212.857 1.27344ZM210.631 7.60156C210.621 10.248 211.529 11.6934 212.857 11.6836C214.195 11.6934 215.084 10.248 215.084 7.60156C215.084 4.96484 214.195 3.51953 212.857 3.51953C211.529 3.51953 210.621 4.96484 210.631 7.60156ZM241.51 13.6758V15.7266H225.24V13.6758H228.873V9.32031C227.496 8.49023 226.666 7.23047 226.666 5.66797C226.666 2.78711 229.479 0.892578 233.346 0.882812C237.193 0.892578 240.035 2.78711 240.045 5.66797C240.035 7.20117 239.234 8.44141 237.896 9.27148V13.6758H241.51ZM229.127 5.66797C229.127 7.40625 230.797 8.48047 233.346 8.48047C235.855 8.48047 237.574 7.40625 237.584 5.66797C237.574 3.88086 235.855 2.8457 233.346 2.85547C230.797 2.8457 229.127 3.88086 229.127 5.66797ZM231.334 13.6758H235.377V10.2188C234.742 10.3457 234.059 10.4141 233.346 10.4141C232.633 10.4141 231.959 10.3457 231.334 10.2285V13.6758ZM244.83 16.1758C243.912 16.1758 243.17 15.4434 243.189 14.5352C243.17 13.6367 243.912 12.9043 244.83 12.9141C245.699 12.9043 246.451 13.6367 246.451 14.5352C246.451 15.4434 245.699 16.1758 244.83 16.1758Z" fill="#1D4C5C"/>
<path d="M11.6743 33.1787V46.2012H10.5464V33.1787H11.6743ZM0.878418 40.2686C3.47852 40.2539 6.73047 40.2319 9.60889 39.917L9.66748 40.7959C8.41504 40.9717 7.11865 41.0742 5.84424 41.1401V45.791H4.70166V41.1914C3.40527 41.2427 2.15283 41.25 1.0249 41.25L0.878418 40.2686ZM2.12354 38.6133V33.9111H8.43701V34.8486H3.28076V37.6465H8.61279V38.6133H2.12354ZM25.8247 43.6084V44.5752H13.9009V43.6084H19.2622V41.1475H15.395V37.1338H23.188V35.083H15.3657V34.1309H24.3159V38.0713H16.5376V40.1953H24.6235V41.1475H20.3901V43.6084H25.8247ZM36.9429 33.1641V38.4668H39.0522V39.4336H36.9429V46.1865H35.8003V33.1641H36.9429ZM26.9526 42.8027C30.3145 41.1328 32.1455 38.6206 32.4092 35.5371H27.5532V34.5703H33.5737C33.5664 38.2544 31.8379 41.6162 27.5972 43.7109L26.9526 42.8027ZM50.5952 33.1641V46.1865H49.438V33.1641H50.5952ZM39.9897 42.8027C43.5127 41.1328 45.3145 38.6353 45.5708 35.5225H40.5903V34.585H46.7427C46.728 38.3276 44.9849 41.6455 40.6196 43.7402L39.9897 42.8027ZM67.353 33.1641V46.2158H66.2104V38.9648H63.0903V42.9199H57.0845V34.1895H58.2417V37.5879H61.9624V34.1895H63.0903V38.0127H66.2104V33.1641H67.353ZM58.2417 41.9678H61.9624V38.5107H58.2417V41.9678ZM81.3862 40.3857V41.3232H69.5063V40.3857H81.3862ZM71.0591 45.9082V42.2754H72.2017V44.9414H80.1411V45.9082H71.0591ZM71.0884 39.1553V33.6621H79.9067V34.585H72.2456V35.9473H79.5552V36.8408H72.2456V38.2471H79.98V39.1553H71.0884ZM88.4175 33.3984C91.3105 33.3984 93.0098 34.1968 93.0171 35.6396C93.0098 37.1191 91.3105 37.9175 88.4175 37.9248C85.5098 37.9175 83.8032 37.1191 83.8032 35.6396C83.8032 34.1968 85.5098 33.3984 88.4175 33.3984ZM82.4849 39.7412V38.8037H94.3501V39.7412H82.4849ZM83.9204 41.748V40.8691H92.8267V43.7842H85.0923V45.1318H93.2222V46.04H83.9497V42.9346H91.6987V41.748H83.9204ZM85.0044 35.6396C84.9897 36.5479 86.2568 37.0459 88.4175 37.0459C90.5781 37.0459 91.8379 36.5479 91.8452 35.6396C91.8379 34.7827 90.5781 34.27 88.4175 34.2627C86.2568 34.27 84.9897 34.7827 85.0044 35.6396ZM109.731 37.5586V38.5107H100.751V33.8379H101.894V37.5586H109.731ZM99.2134 41.4404V40.4736H111.137V41.4404H105.688V46.1865H104.545V41.4404H99.2134ZM124.101 43.5791V44.5459H112.177V43.5791H124.101ZM113.642 35.1123V34.1602H122.592V38.1006H114.814V40.2393H122.9V41.1621H113.671V37.1631H121.464V35.1123H113.642ZM129.799 37.1631C129.807 39.375 131.411 41.6235 133.33 42.4512L132.685 43.3594C131.162 42.6709 129.851 41.1694 129.243 39.3677C128.635 41.2793 127.316 42.9346 125.83 43.6816L125.141 42.7734C127.009 41.8799 128.635 39.4189 128.642 37.1631V35.4639H125.566V34.5117H132.905V35.4639H129.799V37.1631ZM134.721 46.1865V33.1641H135.878V46.1865H134.721ZM145.502 33.9111C147.451 33.9185 148.886 35.1562 148.886 36.9141C148.886 38.6938 147.451 39.9243 145.502 39.9316C143.562 39.9243 142.111 38.6938 142.119 36.9141C142.111 35.1562 143.562 33.9185 145.502 33.9111ZM143.247 36.9141C143.239 38.1079 144.221 38.9795 145.502 38.9795C146.792 38.9795 147.766 38.1079 147.758 36.9141C147.766 35.7422 146.792 34.8779 145.502 34.8779C144.221 34.8779 143.239 35.7422 143.247 36.9141ZM143.261 45.835V41.0889H144.375V44.8901C145.129 44.8608 146.132 44.751 147.055 44.4434L147.231 45.3662C145.964 45.7837 144.726 45.8423 143.876 45.835H143.261ZM146.777 42.041V41.1475H149.516V39.9902H150.644V41.1475H153.354V42.041H146.777ZM147.641 44.3262C147.634 43.1982 148.623 42.4805 150.058 42.4805C151.486 42.4805 152.49 43.1982 152.504 44.3262C152.49 45.4541 151.486 46.1572 150.058 46.1572C148.623 46.1572 147.634 45.4541 147.641 44.3262ZM148.667 44.3262C148.667 44.9414 149.245 45.3296 150.058 45.3369C150.871 45.3296 151.45 44.9414 151.45 44.3262C151.45 43.7256 150.871 43.3228 150.058 43.3154C149.245 43.3228 148.667 43.7256 148.667 44.3262ZM150.908 39.6826V33.1641H152.05V36.1084H154.013V37.0605H152.05V39.6826H150.908ZM165.351 39.2725V40.21H161.323V43.5791H166.757V44.5459H154.833V43.5791H160.195V40.21H156.357V34.2334H165.219V35.1709H157.514V39.2725H165.351ZM179.707 40.3418V41.2939H167.783V40.3418H173.173V38.9648H169.335V35.7861H177.011V34.4385H169.292V33.501H178.168V36.6504H170.478V38.042H178.447V38.9648H174.301V40.3418H179.707ZM169.116 43.2275V42.29H178.242V46.0693H177.084V43.2275H169.116ZM191.103 35.0098C191.096 36.7529 193.417 38.2324 195.688 38.5693L195.263 39.4775C193.234 39.1333 191.25 38.0493 190.458 36.4819C189.667 38.0493 187.683 39.1333 185.683 39.4775L185.229 38.5693C187.492 38.2324 189.807 36.7529 189.814 35.0098V34.9219H185.639V33.9844H195.263V34.9219H191.103V35.0098ZM184.526 41.543V40.5908H196.391V41.543H191V46.1865H189.873V41.543H184.526ZM201.752 34.1162C203.796 34.1235 205.246 35.3687 205.253 37.1777C205.246 38.9941 203.796 40.2319 201.752 40.2393C199.694 40.2319 198.229 38.9941 198.237 37.1777C198.229 35.3687 199.694 34.1235 201.752 34.1162ZM197.563 42.3633C199.965 42.3706 203.283 42.3486 206.162 41.9238L206.25 42.7734C203.269 43.3301 200.068 43.3447 197.724 43.3447L197.563 42.3633ZM199.365 37.1777C199.357 38.3936 200.361 39.2285 201.752 39.2285C203.129 39.2285 204.133 38.3936 204.125 37.1777C204.133 35.9692 203.129 35.127 201.752 35.127C200.361 35.127 199.357 35.9692 199.365 37.1777ZM207.026 46.2158V33.1641H208.168V46.2158H207.026ZM216.958 35.4199V36.3574H210.424V35.4199H213.134V33.5596H214.277V35.4199H216.958ZM210.893 40.1953C210.893 38.4668 212.072 37.2437 213.691 37.2363C215.332 37.2437 216.503 38.4668 216.518 40.1953C216.503 41.9458 215.332 43.1763 213.691 43.1836C212.072 43.1763 210.893 41.9458 210.893 40.1953ZM211.918 40.1953C211.918 41.3525 212.658 42.1802 213.691 42.1729C214.731 42.1802 215.493 41.3525 215.493 40.1953C215.493 39.0527 214.731 38.2178 213.691 38.2031C212.658 38.2178 211.918 39.0527 211.918 40.1953ZM217.631 45.542V33.4863H218.715V38.6572H220.444V33.1641H221.542V46.1865H220.444V39.6094H218.715V45.542H217.631ZM229.995 35.0098C229.987 36.7529 232.309 38.2324 234.58 38.5693L234.155 39.4775C232.126 39.1333 230.141 38.0493 229.35 36.4819C228.559 38.0493 226.574 39.1333 224.575 39.4775L224.121 38.5693C226.384 38.2324 228.698 36.7529 228.706 35.0098V34.9219H224.531V33.9844H234.155V34.9219H229.995V35.0098ZM223.417 41.543V40.5908H235.283V41.543H229.892V46.1865H228.764V41.543H223.417ZM240.249 36.8701C240.249 38.9429 241.259 41.1768 242.988 42.2021L242.329 43.0957C241.069 42.334 240.168 40.9424 239.714 39.353C239.238 41.0889 238.271 42.583 236.967 43.374L236.235 42.5098C238.037 41.4551 239.135 39.1479 239.135 36.9141V34.3945H240.249V36.8701ZM241.552 38.8184V37.8369H243.764V33.4424H244.848V45.5273H243.764V38.8184H241.552ZM246.43 46.1865V33.1641H247.543V46.1865H246.43ZM261.269 43.5498V44.5166H249.345V43.5498H252.304V40.0415C251.191 39.4629 250.517 38.5254 250.517 37.3389C250.517 35.3247 252.495 33.999 255.278 33.9844C258.061 33.999 260.039 35.3247 260.039 37.3389C260.039 38.5034 259.387 39.4263 258.31 40.0049V43.5498H261.269ZM251.63 37.3389C251.623 38.7964 253.139 39.7705 255.278 39.7705C257.395 39.7705 258.925 38.7964 258.925 37.3389C258.925 35.8813 257.395 34.9219 255.278 34.9365C253.139 34.9219 251.623 35.8813 251.63 37.3389ZM253.432 43.5498H257.153V40.4517C256.589 40.5981 255.959 40.6787 255.278 40.6787C254.611 40.6787 253.989 40.6055 253.432 40.459V43.5498ZM263.686 45.0879C263.173 45.0806 262.734 44.6558 262.749 44.1357C262.734 43.623 263.173 43.1982 263.686 43.1982C264.206 43.1982 264.631 43.623 264.624 44.1357C264.631 44.6558 264.206 45.0806 263.686 45.0879Z" fill="#696969"/>
</svg>
