<svg width="292" height="279" viewBox="0 0 292 279" fill="none" xmlns="http://www.w3.org/2000/svg">
<path d="M0 75H292" stroke="#1D4C5C" stroke-width="2"/>
<circle cx="6.5" cy="102.5" r="2.5" fill="black"/>
<path d="M24.2559 99.0664C24.2559 100.859 25.4863 102.679 27.4727 103.461L26.8047 104.516C25.2842 103.909 24.1943 102.723 23.6406 101.316C23.0957 102.872 22.0059 104.19 20.459 104.867L19.7559 103.83C21.751 102.978 22.9375 101.009 22.9551 99.0664V99.0312H20.0723V97.9238H22.9551V96.0605H24.2559V97.9238H27.0859V99.0312H24.2559V99.0664ZM21.6543 110.281C24.3701 109.859 26.9805 108.172 26.998 106.115V105.729H28.3691V106.115C28.3691 108.172 31.0059 109.859 33.7129 110.281L33.2207 111.354C30.8477 110.967 28.6328 109.754 27.6836 107.996C26.7344 109.754 24.5107 110.967 22.1641 111.354L21.6543 110.281ZM28.2109 105.025V96.0957H29.5469V99.8047H31.5859V95.8145H32.9043V106.379H31.5859V100.965H29.5469V105.025H28.2109ZM38.459 96.2188V97.9766H46.1934V96.2188H47.5645V101.949H42.9941V103.742H49.4277V104.85H35.1895V103.742H41.6406V101.949H37.0879V96.2188H38.459ZM36.2969 110.281C39.1094 109.886 41.6055 108.356 41.6055 106.326V105.887H42.9941V106.326C42.9941 108.356 45.4814 109.886 48.3379 110.281L47.8105 111.354C45.4111 110.967 43.2402 109.877 42.3086 108.198C41.3682 109.877 39.1973 110.967 36.8242 111.354L36.2969 110.281ZM38.459 100.859H46.1934V99.0664H38.459V100.859ZM59.4121 97.5371V98.3457C59.4033 99.585 59.4033 101.65 58.9551 104.551L57.5664 104.428C57.9971 101.809 58.0322 99.9102 58.0234 98.6621H51.4668V97.5371H59.4121ZM50.5879 106.836C51.6162 106.827 52.7588 106.818 53.9629 106.792V102.002H55.3164V106.748C57.0479 106.687 58.8232 106.572 60.4492 106.379L60.5195 107.416C57.2324 107.926 53.5586 107.996 50.7637 107.979L50.5879 106.836ZM61.4336 111.424V95.7969H62.8047V102.336H65.3359V103.531H62.8047V111.424H61.4336ZM71.418 96.9395C73.8701 96.9482 75.6104 98.4424 75.6191 100.613C75.6104 102.793 73.8701 104.278 71.418 104.287C68.9482 104.278 67.1904 102.793 67.1992 100.613C67.1904 98.4424 68.9482 96.9482 71.418 96.9395ZM66.3906 106.836C69.2734 106.845 73.2549 106.818 76.709 106.309L76.8145 107.328C73.2373 107.996 69.3965 108.014 66.584 108.014L66.3906 106.836ZM68.5527 100.613C68.5439 102.072 69.748 103.074 71.418 103.074C73.0703 103.074 74.2744 102.072 74.2656 100.613C74.2744 99.1631 73.0703 98.1523 71.418 98.1523C69.748 98.1523 68.5439 99.1631 68.5527 100.613ZM77.7461 111.459V95.7969H79.1172V111.459H77.7461ZM91.5977 98.3281C91.5977 100.455 93.2148 102.406 95.4824 103.18L94.7266 104.27C93.0039 103.637 91.6416 102.345 90.9561 100.71C90.2881 102.564 88.8906 103.997 87.0625 104.709L86.3242 103.602C88.6621 102.731 90.2354 100.64 90.2441 98.2227V96.6055H91.5977V98.3281ZM88.3984 108.541C88.4072 106.757 90.3672 105.711 93.584 105.711C96.792 105.711 98.7344 106.757 98.7344 108.541C98.7344 110.36 96.792 111.389 93.584 111.389C90.3672 111.389 88.4072 110.36 88.3984 108.541ZM89.7871 108.541C89.7695 109.648 91.2285 110.29 93.584 110.299C95.9482 110.29 97.3896 109.648 97.3984 108.541C97.3896 107.478 95.9482 106.818 93.584 106.818C91.2285 106.818 89.7695 107.478 89.7871 108.541ZM97.2227 105.307V95.7969H98.5938V99.875H100.949V101.035H98.5938V105.307H97.2227ZM114.15 95.7969V99.6289H116.506V100.789H114.15V104.674H112.779V95.7969H114.15ZM102.672 103.742V96.8691H109.598V97.9941H104.043V102.6C107.181 102.617 108.965 102.494 111.057 102.09L111.232 103.215C109.035 103.663 107.172 103.751 103.885 103.742H102.672ZM104.289 111.213V105.482H114.15V111.213H104.289ZM105.643 110.088H112.779V106.607H105.643V110.088ZM134.963 95.7969V103.795H133.574V102.16H129.408V101.07H133.574V99.1895H129.637C128.661 101.65 126.235 103.312 122.764 104.146L122.271 103.004C126.104 102.116 128.327 100.253 128.591 97.7305H123.062V96.5879H130.111C130.111 97.1064 130.059 97.6074 129.962 98.082H133.574V95.7969H134.963ZM124.838 105.623V104.498H134.963V108.312H126.244V110.141H135.49V111.283H124.873V107.258H133.574V105.623H124.838ZM146.23 97.5371V98.3457C146.222 99.585 146.222 101.65 145.773 104.551L144.385 104.428C144.815 101.809 144.851 99.9102 144.842 98.6621H138.285V97.5371H146.23ZM137.406 106.836C138.435 106.827 139.577 106.818 140.781 106.792V102.002H142.135V106.748C143.866 106.687 145.642 106.572 147.268 106.379L147.338 107.416C144.051 107.926 140.377 107.996 137.582 107.979L137.406 106.836ZM148.252 111.424V95.7969H149.623V102.336H152.154V103.531H149.623V111.424H148.252ZM167.412 103.057V104.146H153.104V103.057H167.412ZM154.826 106.432V105.395H165.619V108.717H156.232V110.211H166.129V111.213H154.844V107.768H164.248V106.432H154.826ZM154.914 97.2734V96.2715H165.566V99.5059H156.338V100.877H165.848V101.879H154.967V98.5566H164.178V97.2734H154.914ZM185.289 95.7969V101.949H187.908V103.145H185.289V111.424H183.918V95.7969H185.289ZM173.846 107.68V97.1328H175.217V101.264H179.787V97.1328H181.158V107.68H173.846ZM175.217 106.52H179.787V102.371H175.217V106.52ZM200.969 95.7969V99.875H203.324V101.018H200.969V105.412H199.598V95.7969H200.969ZM189.49 104.34V96.9043H196.68V98.0293H190.861V100.033H196.381V101.141H190.861V103.215C193.911 103.224 195.643 103.145 197.699 102.793L197.857 103.9C195.704 104.296 193.902 104.357 190.668 104.34H189.49ZM190.809 108.611C190.791 106.827 192.769 105.808 195.994 105.816C199.193 105.808 201.145 106.827 201.145 108.611C201.145 110.387 199.193 111.389 195.994 111.389C192.769 111.389 190.791 110.387 190.809 108.611ZM192.18 108.611C192.171 109.675 193.604 110.325 195.994 110.316C198.341 110.325 199.782 109.675 199.773 108.611C199.782 107.539 198.341 106.906 195.994 106.906C193.604 106.906 192.171 107.539 192.18 108.611ZM211.428 96.8164C214.688 96.8252 217.141 98.5303 217.141 101.105C217.141 103.707 214.688 105.412 211.428 105.395C208.167 105.412 205.715 103.707 205.715 101.105C205.715 98.5303 208.167 96.8252 211.428 96.8164ZM204.309 109.35V108.189H218.617V109.35H204.309ZM207.033 101.105C207.016 103.004 208.905 104.27 211.428 104.27C213.933 104.27 215.805 103.004 215.805 101.105C215.805 99.2334 213.933 97.9326 211.428 97.9414C208.905 97.9326 207.016 99.2334 207.033 101.105ZM234.174 108.33V109.49H219.865V108.33H226.299V105.377H221.658V100.561H231.01V98.0996H221.623V96.957H232.363V101.686H223.029V104.234H232.732V105.377H227.652V108.33H234.174ZM24.9766 127.75C24.9766 129.93 26.5586 131.986 28.8438 132.812L28.0703 133.885C26.3564 133.208 24.9854 131.854 24.3174 130.149C23.6582 132.039 22.2344 133.533 20.3887 134.271L19.6504 133.146C21.9971 132.285 23.6143 130.097 23.623 127.697V125.764H24.9766V127.75ZM22.4805 140.09V135.186H23.8691V138.93H32.9395V140.09H22.4805ZM27.7188 129.648V128.488H31.1992V124.814H32.5879V136.521H31.1992V129.648H27.7188ZM39.8477 127.908C39.8564 129.64 41.0605 131.389 43.0645 132.145L42.3438 133.199C40.8408 132.619 39.7598 131.503 39.1973 130.158C38.626 131.644 37.501 132.971 35.9629 133.639L35.207 132.566C37.2637 131.67 38.5205 129.648 38.5293 127.908V125.781H39.8477V127.908ZM38.0547 137.611C38.0371 135.845 40.041 134.808 43.293 134.816C46.5273 134.808 48.54 135.845 48.5488 137.611C48.54 139.36 46.5273 140.389 43.293 140.389C40.041 140.389 38.0371 139.36 38.0547 137.611ZM39.4258 137.611C39.4082 138.675 40.8936 139.325 43.293 139.316C45.666 139.325 47.1602 138.675 47.1777 137.611C47.1602 136.53 45.666 135.88 43.293 135.871C40.8936 135.88 39.4082 136.53 39.4258 137.611ZM43.7676 133.973V125.113H45.0684V129.016H47.1426V124.814H48.4609V134.465H47.1426V130.158H45.0684V133.973H43.7676ZM63.6309 124.797V133.674H62.2773V124.797H63.6309ZM51.7305 132.479V125.729H53.1191V131.301C55.7031 131.283 58.0146 131.107 60.502 130.58L60.7129 131.74C58.0674 132.276 55.6943 132.461 52.9961 132.479H51.7305ZM53.4883 140.213V134.395H63.6309V140.213H53.4883ZM54.8418 139.088H62.2773V135.502H54.8418V139.088ZM74.9688 126.537V127.346C74.96 128.585 74.96 130.65 74.5117 133.551L73.123 133.428C73.5537 130.809 73.5889 128.91 73.5801 127.662H67.0234V126.537H74.9688ZM66.1445 135.836C67.1729 135.827 68.3154 135.818 69.5195 135.792V131.002H70.873V135.748C72.6045 135.687 74.3799 135.572 76.0059 135.379L76.0762 136.416C72.7891 136.926 69.1152 136.996 66.3203 136.979L66.1445 135.836ZM76.9902 140.424V124.797H78.3613V131.336H80.8926V132.531H78.3613V140.424H76.9902ZM91.5977 127.328C91.5977 129.455 93.2148 131.406 95.4824 132.18L94.7266 133.27C93.0039 132.637 91.6416 131.345 90.9561 129.71C90.2881 131.564 88.8906 132.997 87.0625 133.709L86.3242 132.602C88.6621 131.731 90.2354 129.64 90.2441 127.223V125.605H91.5977V127.328ZM88.3984 137.541C88.4072 135.757 90.3672 134.711 93.584 134.711C96.792 134.711 98.7344 135.757 98.7344 137.541C98.7344 139.36 96.792 140.389 93.584 140.389C90.3672 140.389 88.4072 139.36 88.3984 137.541ZM89.7871 137.541C89.7695 138.648 91.2285 139.29 93.584 139.299C95.9482 139.29 97.3896 138.648 97.3984 137.541C97.3896 136.478 95.9482 135.818 93.584 135.818C91.2285 135.818 89.7695 136.478 89.7871 137.541ZM97.2227 134.307V124.797H98.5938V128.875H100.949V130.035H98.5938V134.307H97.2227ZM114.15 124.797V128.629H116.506V129.789H114.15V133.674H112.779V124.797H114.15ZM102.672 132.742V125.869H109.598V126.994H104.043V131.6C107.181 131.617 108.965 131.494 111.057 131.09L111.232 132.215C109.035 132.663 107.172 132.751 103.885 132.742H102.672ZM104.289 140.213V134.482H114.15V140.213H104.289ZM105.643 139.088H112.779V135.607H105.643V139.088ZM129.707 124.744V128.541H132.08V129.684H129.707V133.393H128.336V124.744H129.707ZM117.525 127.328V126.221H121.498V124.639H122.869V126.221H126.842V127.328H117.525ZM118.422 130.598C118.413 129.016 119.907 128.04 122.184 128.031C124.451 128.04 125.928 129.016 125.945 130.598C125.928 132.188 124.451 133.155 122.184 133.164C119.907 133.155 118.413 132.188 118.422 130.598ZM119.74 135.238V134.201H129.707V137.664H121.129V139.193H130.287V140.248H119.775V136.645H128.336V135.238H119.74ZM119.74 130.598C119.731 131.538 120.698 132.127 122.184 132.127C123.66 132.127 124.627 131.538 124.645 130.598C124.627 129.666 123.66 129.06 122.184 129.051C120.698 129.06 119.731 129.666 119.74 130.598ZM145.404 126.256C145.413 128.462 148.278 130.36 151.1 130.756L150.537 131.881C148.111 131.477 145.703 130.132 144.701 128.216C143.699 130.149 141.3 131.477 138.865 131.881L138.303 130.756C141.124 130.36 143.98 128.497 143.98 126.256V125.359H145.404V126.256ZM137.564 134.764V133.604H151.803V134.764H145.334V140.424H143.98V134.764H137.564ZM162.93 135.291C162.921 136.671 163.668 138.139 165.153 138.982C166.647 138.06 167.438 136.495 167.43 135.291V134.43H168.783V135.291C168.774 136.899 169.961 138.499 171.965 139.193L171.279 140.213C169.715 139.659 168.625 138.569 168.08 137.26C167.597 138.525 166.639 139.729 165.197 140.336C163.677 139.756 162.71 138.613 162.244 137.304C161.682 138.561 160.609 139.65 159.115 140.213L158.412 139.193C160.39 138.455 161.576 136.785 161.594 135.291V134.43H162.93V135.291ZM158.008 129.385C157.999 127.205 159.73 125.72 162.104 125.729C164.477 125.72 166.19 127.205 166.199 129.385C166.19 131.529 164.477 133.006 162.104 133.006C159.73 133.006 157.999 131.529 158.008 129.385ZM159.361 129.385C159.344 130.835 160.495 131.854 162.104 131.863C163.694 131.854 164.846 130.835 164.846 129.385C164.846 127.926 163.694 126.889 162.104 126.906C160.495 126.889 159.344 127.926 159.361 129.385ZM169.17 133.744V124.814H170.541V133.744H169.17ZM177.396 126.01C179.523 126.019 181.062 127.847 181.272 130.773H184.779V124.797H186.15V140.459H184.779V131.916H181.29C181.141 134.983 179.576 136.899 177.396 136.891C175.085 136.899 173.468 134.79 173.477 131.459C173.468 128.137 175.085 126.019 177.396 126.01ZM174.795 131.459C174.804 133.999 175.858 135.669 177.396 135.66C178.926 135.669 179.998 133.999 179.998 131.459C179.998 128.919 178.926 127.249 177.396 127.24C175.858 127.249 174.804 128.919 174.795 131.459ZM203.061 137.26V138.42H188.752V137.26H192.303V133.05C190.967 132.355 190.158 131.23 190.158 129.807C190.158 127.39 192.531 125.799 195.871 125.781C199.211 125.799 201.584 127.39 201.584 129.807C201.584 131.204 200.802 132.312 199.51 133.006V137.26H203.061ZM191.494 129.807C191.485 131.556 193.305 132.725 195.871 132.725C198.411 132.725 200.248 131.556 200.248 129.807C200.248 128.058 198.411 126.906 195.871 126.924C193.305 126.906 191.485 128.058 191.494 129.807ZM193.656 137.26H198.121V133.542C197.444 133.718 196.688 133.814 195.871 133.814C195.071 133.814 194.324 133.727 193.656 133.551V137.26ZM205.961 139.105C205.346 139.097 204.818 138.587 204.836 137.963C204.818 137.348 205.346 136.838 205.961 136.838C206.585 136.838 207.095 137.348 207.086 137.963C207.095 138.587 206.585 139.097 205.961 139.105Z" fill="black"/>
<circle cx="6.5" cy="170.5" r="2.5" fill="black"/>
<path d="M24.8535 166.328C24.8535 168.455 26.4707 170.406 28.7383 171.18L27.9824 172.27C26.2598 171.637 24.8975 170.345 24.2119 168.71C23.5439 170.564 22.1465 171.997 20.3184 172.709L19.5801 171.602C21.918 170.731 23.4912 168.64 23.5 166.223V164.605H24.8535V166.328ZM21.6543 176.541C21.6631 174.757 23.623 173.711 26.8398 173.711C30.0479 173.711 31.9902 174.757 31.9902 176.541C31.9902 178.36 30.0479 179.389 26.8398 179.389C23.623 179.389 21.6631 178.36 21.6543 176.541ZM23.043 176.541C23.0254 177.648 24.4844 178.29 26.8398 178.299C29.2041 178.29 30.6455 177.648 30.6543 176.541C30.6455 175.478 29.2041 174.818 26.8398 174.818C24.4844 174.818 23.0254 175.478 23.043 176.541ZM30.4785 173.307V163.797H31.8496V167.875H34.2051V169.035H31.8496V173.307H30.4785ZM47.4062 163.797V167.629H49.7617V168.789H47.4062V172.674H46.0352V163.797H47.4062ZM35.9277 171.742V164.869H42.8535V165.994H37.2988V170.6C40.4365 170.617 42.2207 170.494 44.3125 170.09L44.4883 171.215C42.291 171.663 40.4277 171.751 37.1406 171.742H35.9277ZM37.5449 179.213V173.482H47.4062V179.213H37.5449ZM38.8984 178.088H46.0352V174.607H38.8984V178.088ZM68.2188 163.797V171.795H66.8301V170.16H62.6641V169.07H66.8301V167.189H62.8926C61.917 169.65 59.4912 171.312 56.0195 172.146L55.5273 171.004C59.3594 170.116 61.583 168.253 61.8467 165.73H56.3184V164.588H63.3672C63.3672 165.106 63.3145 165.607 63.2178 166.082H66.8301V163.797H68.2188ZM58.0938 173.623V172.498H68.2188V176.312H59.5V178.141H68.7461V179.283H58.1289V175.258H66.8301V173.623H58.0938ZM79.4863 165.537V166.346C79.4775 167.585 79.4775 169.65 79.0293 172.551L77.6406 172.428C78.0713 169.809 78.1064 167.91 78.0977 166.662H71.541V165.537H79.4863ZM70.6621 174.836C71.6904 174.827 72.833 174.818 74.0371 174.792V170.002H75.3906V174.748C77.1221 174.687 78.8975 174.572 80.5234 174.379L80.5938 175.416C77.3066 175.926 73.6328 175.996 70.8379 175.979L70.6621 174.836ZM81.5078 179.424V163.797H82.8789V170.336H85.4102V171.531H82.8789V179.424H81.5078ZM91.4922 164.939C93.9443 164.948 95.6846 166.442 95.6934 168.613C95.6846 170.793 93.9443 172.278 91.4922 172.287C89.0225 172.278 87.2646 170.793 87.2734 168.613C87.2646 166.442 89.0225 164.948 91.4922 164.939ZM86.4648 174.836C89.3477 174.845 93.3291 174.818 96.7832 174.309L96.8887 175.328C93.3115 175.996 89.4707 176.014 86.6582 176.014L86.4648 174.836ZM88.627 168.613C88.6182 170.072 89.8223 171.074 91.4922 171.074C93.1445 171.074 94.3486 170.072 94.3398 168.613C94.3486 167.163 93.1445 166.152 91.4922 166.152C89.8223 166.152 88.6182 167.163 88.627 168.613ZM97.8203 179.459V163.797H99.1914V179.459H97.8203ZM106.469 170.055L107.84 165.273H109.141L108.174 170.055H106.469ZM115.645 166.328C115.645 168.455 117.262 170.406 119.529 171.18L118.773 172.27C117.051 171.637 115.688 170.345 115.003 168.71C114.335 170.564 112.938 171.997 111.109 172.709L110.371 171.602C112.709 170.731 114.282 168.64 114.291 166.223V164.605H115.645V166.328ZM112.445 176.541C112.454 174.757 114.414 173.711 117.631 173.711C120.839 173.711 122.781 174.757 122.781 176.541C122.781 178.36 120.839 179.389 117.631 179.389C114.414 179.389 112.454 178.36 112.445 176.541ZM113.834 176.541C113.816 177.648 115.275 178.29 117.631 178.299C119.995 178.29 121.437 177.648 121.445 176.541C121.437 175.478 119.995 174.818 117.631 174.818C115.275 174.818 113.816 175.478 113.834 176.541ZM121.27 173.307V163.797H122.641V167.875H124.996V169.035H122.641V173.307H121.27ZM138.197 163.797V167.629H140.553V168.789H138.197V172.674H136.826V163.797H138.197ZM126.719 171.742V164.869H133.645V165.994H128.09V170.6C131.228 170.617 133.012 170.494 135.104 170.09L135.279 171.215C133.082 171.663 131.219 171.751 127.932 171.742H126.719ZM128.336 179.213V173.482H138.197V179.213H128.336ZM129.689 178.088H136.826V174.607H129.689V178.088ZM158.957 163.814V175.275H157.586V163.814H158.957ZM146.213 171.936C148.577 171.013 150.186 168.728 150.186 166.258V164.693H151.592V166.258C151.574 168.64 153.2 170.775 155.529 171.619L154.809 172.727C152.998 172.032 151.592 170.626 150.897 168.824C150.221 170.74 148.797 172.278 146.969 173.008L146.213 171.936ZM148.867 179.09V174.221H150.238V177.93H159.449V179.09H148.867ZM166.938 167.154C166.946 169.097 168.625 170.854 170.928 171.531L170.26 172.604C168.449 172.059 167.008 170.881 166.296 169.343C165.628 171.048 164.195 172.393 162.332 173.008L161.664 171.953C163.958 171.18 165.575 169.272 165.584 167.154V166.82H162.051V165.713H165.584V163.727H166.973V165.713H170.471V166.82H166.938V167.154ZM164.143 176.541C164.134 174.722 166.129 173.685 169.381 173.693C172.624 173.685 174.619 174.722 174.619 176.541C174.619 178.352 172.624 179.389 169.381 179.389C166.129 179.389 164.134 178.352 164.143 176.541ZM165.514 176.541C165.505 177.631 166.981 178.299 169.381 178.299C171.78 178.299 173.248 177.631 173.248 176.541C173.248 175.425 171.78 174.783 169.381 174.766C166.981 174.783 165.505 175.425 165.514 176.541ZM169.979 169.422V168.279H173.178V163.797H174.566V173.271H173.178V169.422H169.979ZM189.262 163.797V170.248H191.881V171.391H189.262V179.424H187.891V163.797H189.262ZM177.08 167.453V166.311H181.105V163.99H182.477V166.311H186.379V167.453H177.08ZM177.977 172.34C177.968 170.23 179.585 168.754 181.809 168.754C184.015 168.754 185.623 170.23 185.641 172.34C185.623 174.458 184.015 175.926 181.809 175.926C179.585 175.926 177.968 174.458 177.977 172.34ZM179.295 172.34C179.286 173.764 180.35 174.766 181.809 174.748C183.25 174.766 184.305 173.764 184.322 172.34C184.305 170.925 183.25 169.905 181.809 169.914C180.35 169.905 179.286 170.925 179.295 172.34ZM205.645 163.797V179.424H204.256V163.797H205.645ZM192.918 175.363C197.146 173.359 199.308 170.362 199.615 166.627H193.639V165.502H201.021C201.004 169.993 198.912 173.975 193.674 176.488L192.918 175.363ZM210.971 165.291L209.6 170.072H208.299L209.266 165.291H210.971ZM226.545 171.057V172.146H212.236V171.057H226.545ZM213.959 174.432V173.395H224.752V176.717H215.365V178.211H225.262V179.213H213.977V175.768H223.381V174.432H213.959ZM214.047 165.273V164.271H224.699V167.506H215.471V168.877H224.98V169.879H214.1V166.557H223.311V165.273H214.047ZM246.566 172.094V173.219H232.311V172.094H238.744V170.547H234.209V164.254H244.791V165.379H235.598V166.838H244.369V167.893H235.598V169.439H244.879V170.547H240.115V172.094H246.566ZM234.051 176.893C234.042 175.267 235.984 174.379 239.447 174.396C242.875 174.379 244.809 175.267 244.826 176.893C244.809 178.536 242.875 179.389 239.447 179.389C235.984 179.389 234.042 178.536 234.051 176.893ZM235.439 176.893C235.422 177.842 236.863 178.334 239.447 178.316C242.005 178.334 243.429 177.842 243.438 176.893C243.429 175.961 242.005 175.442 239.447 175.434C236.863 175.442 235.422 175.961 235.439 176.893ZM255.689 166.504V167.629H247.85V166.504H251.102V164.271H252.473V166.504H255.689ZM248.412 172.234C248.412 170.16 249.827 168.692 251.77 168.684C253.738 168.692 255.145 170.16 255.162 172.234C255.145 174.335 253.738 175.812 251.77 175.82C249.827 175.812 248.412 174.335 248.412 172.234ZM249.643 172.234C249.643 173.623 250.53 174.616 251.77 174.607C253.018 174.616 253.932 173.623 253.932 172.234C253.932 170.863 253.018 169.861 251.77 169.844C250.53 169.861 249.643 170.863 249.643 172.234ZM256.498 178.65V164.184H257.799V170.389H259.873V163.797H261.191V179.424H259.873V171.531H257.799V178.65H256.498ZM24.9766 195.75C24.9766 197.93 26.5586 199.986 28.8438 200.812L28.0703 201.885C26.3564 201.208 24.9854 199.854 24.3174 198.149C23.6582 200.039 22.2344 201.533 20.3887 202.271L19.6504 201.146C21.9971 200.285 23.6143 198.097 23.623 195.697V193.764H24.9766V195.75ZM22.4805 208.09V203.186H23.8691V206.93H32.9395V208.09H22.4805ZM27.7188 197.648V196.488H31.1992V192.814H32.5879V204.521H31.1992V197.648H27.7188ZM39.8477 195.908C39.8564 197.64 41.0605 199.389 43.0645 200.145L42.3438 201.199C40.8408 200.619 39.7598 199.503 39.1973 198.158C38.626 199.644 37.501 200.971 35.9629 201.639L35.207 200.566C37.2637 199.67 38.5205 197.648 38.5293 195.908V193.781H39.8477V195.908ZM38.0547 205.611C38.0371 203.845 40.041 202.808 43.293 202.816C46.5273 202.808 48.54 203.845 48.5488 205.611C48.54 207.36 46.5273 208.389 43.293 208.389C40.041 208.389 38.0371 207.36 38.0547 205.611ZM39.4258 205.611C39.4082 206.675 40.8936 207.325 43.293 207.316C45.666 207.325 47.1602 206.675 47.1777 205.611C47.1602 204.53 45.666 203.88 43.293 203.871C40.8936 203.88 39.4082 204.53 39.4258 205.611ZM43.7676 201.973V193.113H45.0684V197.016H47.1426V192.814H48.4609V202.465H47.1426V198.158H45.0684V201.973H43.7676ZM63.6309 192.797V201.674H62.2773V192.797H63.6309ZM51.7305 200.479V193.729H53.1191V199.301C55.7031 199.283 58.0146 199.107 60.502 198.58L60.7129 199.74C58.0674 200.276 55.6943 200.461 52.9961 200.479H51.7305ZM53.4883 208.213V202.395H63.6309V208.213H53.4883ZM54.8418 207.088H62.2773V203.502H54.8418V207.088ZM79.6973 192.797V208.424H78.3613V192.797H79.6973ZM66.4961 199.547C66.5049 196.225 67.8232 194.124 69.8535 194.115C71.752 194.124 73.0352 195.952 73.2109 198.896H75.2324V193.131H76.5508V207.633H75.2324V200.039H73.2197C73.0879 203.08 71.7783 204.987 69.8535 204.979C67.8232 204.987 66.5049 202.869 66.4961 199.547ZM67.7969 199.547C67.7793 202.078 68.5879 203.678 69.8535 203.66C71.1279 203.678 71.9365 202.078 71.9277 199.547C71.9365 197.007 71.1279 195.416 69.8535 195.416C68.5879 195.416 67.7793 197.007 67.7969 199.547ZM95.2363 192.797V208.424H93.918V192.797H95.2363ZM81.877 204.047C85.2695 202.034 86.9746 199.213 87.2383 195.943H82.5449V194.801H88.6094C88.6094 196.339 88.3633 197.824 87.8271 199.213H90.6309V193.219H91.9492V207.633H90.6309V200.338H87.3174C86.377 202.157 84.8652 203.766 82.6855 205.049L81.877 204.047ZM107.154 195.328C107.154 197.455 108.771 199.406 111.039 200.18L110.283 201.27C108.561 200.637 107.198 199.345 106.513 197.71C105.845 199.564 104.447 200.997 102.619 201.709L101.881 200.602C104.219 199.731 105.792 197.64 105.801 195.223V193.605H107.154V195.328ZM103.955 205.541C103.964 203.757 105.924 202.711 109.141 202.711C112.349 202.711 114.291 203.757 114.291 205.541C114.291 207.36 112.349 208.389 109.141 208.389C105.924 208.389 103.964 207.36 103.955 205.541ZM105.344 205.541C105.326 206.648 106.785 207.29 109.141 207.299C111.505 207.29 112.946 206.648 112.955 205.541C112.946 204.478 111.505 203.818 109.141 203.818C106.785 203.818 105.326 204.478 105.344 205.541ZM112.779 202.307V192.797H114.15V196.875H116.506V198.035H114.15V202.307H112.779ZM129.707 192.797V196.629H132.062V197.789H129.707V201.674H128.336V192.797H129.707ZM118.229 200.742V193.869H125.154V194.994H119.6V199.6C122.737 199.617 124.521 199.494 126.613 199.09L126.789 200.215C124.592 200.663 122.729 200.751 119.441 200.742H118.229ZM119.846 208.213V202.482H129.707V208.213H119.846ZM121.199 207.088H128.336V203.607H121.199V207.088ZM140.166 193.078C143.638 193.078 145.677 194.036 145.686 195.768C145.677 197.543 143.638 198.501 140.166 198.51C136.677 198.501 134.629 197.543 134.629 195.768C134.629 194.036 136.677 193.078 140.166 193.078ZM133.047 200.689V199.564H147.285V200.689H133.047ZM134.77 203.098V202.043H145.457V205.541H136.176V207.158H145.932V208.248H134.805V204.521H144.104V203.098H134.77ZM136.07 195.768C136.053 196.857 137.573 197.455 140.166 197.455C142.759 197.455 144.271 196.857 144.279 195.768C144.271 194.739 142.759 194.124 140.166 194.115C137.573 194.124 136.053 194.739 136.07 195.768ZM166.023 192.814V204.275H164.652V192.814H166.023ZM153.279 200.936C155.644 200.013 157.252 197.728 157.252 195.258V193.693H158.658V195.258C158.641 197.64 160.267 199.775 162.596 200.619L161.875 201.727C160.064 201.032 158.658 199.626 157.964 197.824C157.287 199.74 155.863 201.278 154.035 202.008L153.279 200.936ZM155.934 208.09V203.221H157.305V206.93H166.516V208.09H155.934ZM174.004 196.154C174.013 198.097 175.691 199.854 177.994 200.531L177.326 201.604C175.516 201.059 174.074 199.881 173.362 198.343C172.694 200.048 171.262 201.393 169.398 202.008L168.73 200.953C171.024 200.18 172.642 198.272 172.65 196.154V195.82H169.117V194.713H172.65V192.727H174.039V194.713H177.537V195.82H174.004V196.154ZM171.209 205.541C171.2 203.722 173.195 202.685 176.447 202.693C179.69 202.685 181.686 203.722 181.686 205.541C181.686 207.352 179.69 208.389 176.447 208.389C173.195 208.389 171.2 207.352 171.209 205.541ZM172.58 205.541C172.571 206.631 174.048 207.299 176.447 207.299C178.847 207.299 180.314 206.631 180.314 205.541C180.314 204.425 178.847 203.783 176.447 203.766C174.048 203.783 172.571 204.425 172.58 205.541ZM177.045 198.422V197.279H180.244V192.797H181.633V202.271H180.244V198.422H177.045ZM196.451 192.744V196.541H198.824V197.684H196.451V201.393H195.08V192.744H196.451ZM184.27 195.328V194.221H188.242V192.639H189.613V194.221H193.586V195.328H184.27ZM185.166 198.598C185.157 197.016 186.651 196.04 188.928 196.031C191.195 196.04 192.672 197.016 192.689 198.598C192.672 200.188 191.195 201.155 188.928 201.164C186.651 201.155 185.157 200.188 185.166 198.598ZM186.484 203.238V202.201H196.451V205.664H187.873V207.193H197.031V208.248H186.52V204.645H195.08V203.238H186.484ZM186.484 198.598C186.476 199.538 187.442 200.127 188.928 200.127C190.404 200.127 191.371 199.538 191.389 198.598C191.371 197.666 190.404 197.06 188.928 197.051C187.442 197.06 186.476 197.666 186.484 198.598ZM212.148 194.256C212.157 196.462 215.022 198.36 217.844 198.756L217.281 199.881C214.855 199.477 212.447 198.132 211.445 196.216C210.443 198.149 208.044 199.477 205.609 199.881L205.047 198.756C207.868 198.36 210.725 196.497 210.725 194.256V193.359H212.148V194.256ZM204.309 202.764V201.604H218.547V202.764H212.078V208.424H210.725V202.764H204.309ZM229.674 203.291C229.665 204.671 230.412 206.139 231.897 206.982C233.392 206.06 234.183 204.495 234.174 203.291V202.43H235.527V203.291C235.519 204.899 236.705 206.499 238.709 207.193L238.023 208.213C236.459 207.659 235.369 206.569 234.824 205.26C234.341 206.525 233.383 207.729 231.941 208.336C230.421 207.756 229.454 206.613 228.988 205.304C228.426 206.561 227.354 207.65 225.859 208.213L225.156 207.193C227.134 206.455 228.32 204.785 228.338 203.291V202.43H229.674V203.291ZM224.752 197.385C224.743 195.205 226.475 193.72 228.848 193.729C231.221 193.72 232.935 195.205 232.943 197.385C232.935 199.529 231.221 201.006 228.848 201.006C226.475 201.006 224.743 199.529 224.752 197.385ZM226.105 197.385C226.088 198.835 227.239 199.854 228.848 199.863C230.438 199.854 231.59 198.835 231.59 197.385C231.59 195.926 230.438 194.889 228.848 194.906C227.239 194.889 226.088 195.926 226.105 197.385ZM235.914 201.744V192.814H237.285V201.744H235.914ZM244.141 194.01C246.268 194.019 247.806 195.847 248.017 198.773H251.523V192.797H252.895V208.459H251.523V199.916H248.034C247.885 202.983 246.32 204.899 244.141 204.891C241.829 204.899 240.212 202.79 240.221 199.459C240.212 196.137 241.829 194.019 244.141 194.01ZM241.539 199.459C241.548 201.999 242.603 203.669 244.141 203.66C245.67 203.669 246.742 201.999 246.742 199.459C246.742 196.919 245.67 195.249 244.141 195.24C242.603 195.249 241.548 196.919 241.539 199.459ZM269.805 205.26V206.42H255.496V205.26H259.047V201.05C257.711 200.355 256.902 199.23 256.902 197.807C256.902 195.39 259.275 193.799 262.615 193.781C265.955 193.799 268.328 195.39 268.328 197.807C268.328 199.204 267.546 200.312 266.254 201.006V205.26H269.805ZM258.238 197.807C258.229 199.556 260.049 200.725 262.615 200.725C265.155 200.725 266.992 199.556 266.992 197.807C266.992 196.058 265.155 194.906 262.615 194.924C260.049 194.906 258.229 196.058 258.238 197.807ZM260.4 205.26H264.865V201.542C264.188 201.718 263.433 201.814 262.615 201.814C261.815 201.814 261.068 201.727 260.4 201.551V205.26ZM272.705 207.105C272.09 207.097 271.562 206.587 271.58 205.963C271.562 205.348 272.09 204.838 272.705 204.838C273.329 204.838 273.839 205.348 273.83 205.963C273.839 206.587 273.329 207.097 272.705 207.105Z" fill="black"/>
<path d="M7.21875 12.7793H9.77539L11.0967 14.5195C11.9883 13.5957 12.5146 12.1562 12.5039 10.2227C12.5146 6.66699 10.7314 4.74414 8.18555 4.74414C5.65039 4.74414 3.85645 6.66699 3.86719 10.2227C3.85645 13.7783 5.65039 15.7012 8.18555 15.7012C8.59375 15.7012 8.98047 15.6475 9.3457 15.5508L7.21875 12.7793ZM1.05273 10.2227C1.04199 5.19531 4.09277 2.23047 8.18555 2.23047C12.2568 2.23047 15.3291 5.19531 15.3184 10.2227C15.3291 13.0479 14.3623 15.2178 12.7939 16.582L14.9531 19.3535H12.2246L10.9248 17.71C10.0869 18.043 9.16309 18.2148 8.18555 18.2148C4.09277 18.2148 1.04199 15.2393 1.05273 10.2227ZM18.4121 18.1719C17.4883 18.1719 16.7256 17.4199 16.7363 16.4961C16.7256 15.5938 17.4883 14.8525 18.4121 14.8418C19.3037 14.8525 20.0664 15.5938 20.0664 16.4961C20.0664 17.4199 19.3037 18.1719 18.4121 18.1719ZM33.6445 3.58398C33.6445 6.02246 35.2236 8.33203 38.2207 9.27734L36.9316 11.1465C34.8369 10.4375 33.333 9.01953 32.4844 7.21484C31.6465 9.27734 30.0781 10.8994 27.8438 11.6836L26.5547 9.81445C29.6807 8.72949 31.249 6.14062 31.2598 3.36914V1.52148H33.6445V3.58398ZM29.1973 16.1953C29.1973 13.8965 31.7217 12.5322 35.7715 12.543C39.7891 12.5322 42.2705 13.8965 42.2812 16.1953C42.2705 18.5479 39.7891 19.8906 35.7715 19.8906C31.7217 19.8906 29.1973 18.5479 29.1973 16.1953ZM31.582 16.1953C31.582 17.3984 33.1074 18 35.7715 18C38.4248 18 39.918 17.3984 39.918 16.1953C39.918 15.0566 38.4248 14.4121 35.7715 14.4121C33.1074 14.4121 31.582 15.0566 31.582 16.1953ZM39.7031 12.1133V0.490234H42.0879V5.2168H44.7949V7.19336H42.0879V12.1133H39.7031ZM61.1016 0.490234V5.00195H63.8086V6.97852H61.1016V11.4258H58.7168V0.490234H61.1016ZM46.5996 10.5664V1.73633H55.2363V3.66992H48.9629V8.63281C52.6152 8.62207 54.6455 8.49316 56.9551 8.03125L57.2129 9.92188C54.667 10.4805 52.4111 10.5664 48.168 10.5664H46.5996ZM48.5547 19.6543V12.3066H61.1016V19.6543H48.5547ZM50.918 17.7637H58.7383V14.2188H50.918V17.7637ZM77.0859 3.92773C77.0752 6.50586 78.6221 9.01953 81.6406 10.0508L80.3301 11.9199C78.2354 11.1357 76.7422 9.62109 75.915 7.70898C75.0879 9.84668 73.498 11.5225 71.2207 12.3711L69.9531 10.4805C73.0791 9.42773 74.6689 6.74219 74.6797 3.90625V1.69336H77.0859V3.92773ZM73.4766 19.5254V13.3594H75.9043V17.5918H86.7109V19.5254H73.4766ZM80.0293 6.74219V4.78711H83.8965V0.511719H86.2812V14.9277H83.8965V6.74219H80.0293ZM95.0898 4.09961C95.1006 6.19434 96.3252 8.31055 98.8711 9.27734L97.6035 11.1035C95.874 10.4482 94.6709 9.20215 93.9727 7.69824C93.2637 9.42773 91.9961 10.9102 90.1484 11.6836L88.8594 9.85742C91.5342 8.67578 92.7803 6.24805 92.791 4.09961V1.69336H95.0898V4.09961ZM92.4258 16.3027C92.415 14.0684 94.9932 12.7363 99.0859 12.7363C103.146 12.7363 105.735 14.0684 105.746 16.3027C105.735 18.5479 103.146 19.8906 99.0859 19.8906C94.9932 19.8906 92.415 18.5479 92.4258 16.3027ZM94.8105 16.3027C94.7998 17.4521 96.3896 18.0752 99.0859 18.0645C101.739 18.0752 103.329 17.4521 103.34 16.3027C103.329 15.1641 101.739 14.541 99.0859 14.541C96.3896 14.541 94.7998 15.1641 94.8105 16.3027ZM99.1934 11.8125V0.876953H101.428V5.41016H103.361V0.511719H105.639V12.4141H103.361V7.36523H101.428V11.8125H99.1934ZM124.18 0.490234V11.4258H121.816V0.490234H124.18ZM109.184 10.3086V1.62891H111.59V8.28906C114.63 8.26758 117.24 8.04199 119.99 7.45117L120.291 9.42773C117.197 10.0615 114.275 10.2871 110.838 10.3086H109.184ZM111.354 19.6543V12.2637H124.18V19.6543H111.354ZM113.695 17.7637H121.859V14.1328H113.695V17.7637ZM137.908 2.50977V3.88477C137.908 5.61426 137.908 8.06348 137.371 11.4043L135.008 11.2109C135.48 8.26758 135.534 6.08691 135.545 4.42188H127.918V2.50977H137.908ZM126.887 13.918C128.036 13.9072 129.314 13.8965 130.646 13.8643V8.05273H133.01V13.7891C134.986 13.7031 137.017 13.5635 138.875 13.3379L139.004 15.1211C134.997 15.7764 130.55 15.8516 127.123 15.8301L126.887 13.918ZM139.885 19.9121V0.490234H142.291V8.39648H145.105V10.416H142.291V19.9121H139.885ZM7.51953 35.584C7.51953 38.0225 9.09863 40.332 12.0957 41.2773L10.8066 43.1465C8.71191 42.4375 7.20801 41.0195 6.35938 39.2148C5.52148 41.2773 3.95312 42.8994 1.71875 43.6836L0.429688 41.8145C3.55566 40.7295 5.12402 38.1406 5.13477 35.3691V33.5215H7.51953V35.584ZM3.07227 48.1953C3.07227 45.8965 5.59668 44.5322 9.64648 44.543C13.6641 44.5322 16.1455 45.8965 16.1562 48.1953C16.1455 50.5479 13.6641 51.8906 9.64648 51.8906C5.59668 51.8906 3.07227 50.5479 3.07227 48.1953ZM5.45703 48.1953C5.45703 49.3984 6.98242 50 9.64648 50C12.2998 50 13.793 49.3984 13.793 48.1953C13.793 47.0566 12.2998 46.4121 9.64648 46.4121C6.98242 46.4121 5.45703 47.0566 5.45703 48.1953ZM13.5781 44.1133V32.4902H15.9629V37.2168H18.6699V39.1934H15.9629V44.1133H13.5781ZM34.9766 32.4902V37.002H37.6836V38.9785H34.9766V43.4258H32.5918V32.4902H34.9766ZM20.4746 42.5664V33.7363H29.1113V35.6699H22.8379V40.6328C26.4902 40.6221 28.5205 40.4932 30.8301 40.0312L31.0879 41.9219C28.542 42.4805 26.2861 42.5664 22.043 42.5664H20.4746ZM22.4297 51.6543V44.3066H34.9766V51.6543H22.4297ZM24.793 49.7637H32.6133V46.2188H24.793V49.7637ZM47.502 32.791C51.9277 32.8018 54.4951 33.9727 54.5059 36.1211C54.4951 38.291 51.9277 39.4619 47.502 39.4727C43.0869 39.4619 40.498 38.291 40.498 36.1211C40.498 33.9727 43.0869 32.8018 47.502 32.791ZM38.6719 42.416V40.5039H56.375V42.416H38.6719ZM40.7559 45.4883V43.7266H54.1621V48.4746H43.1191V49.9141H54.6992V51.7402H40.7773V46.7773H51.8203V45.4883H40.7559ZM43.0117 36.1211C43.001 37.1953 44.5479 37.6895 47.502 37.6895C50.499 37.6895 52.0352 37.1953 52.0352 36.1211C52.0352 35.1221 50.499 34.5527 47.502 34.5527C44.5479 34.5527 43.001 35.1221 43.0117 36.1211ZM78.1172 32.4902V40.2246H81.1035V42.2012H78.1172V51.9121H75.7539V32.4902H78.1172ZM62.7988 37.3887V35.4766H67.3965V32.7695H69.7812V35.4766H74.25V37.3887H62.7988ZM63.7012 43.2324C63.6797 40.5469 65.7637 38.6455 68.5996 38.6562C71.3926 38.6455 73.4658 40.5469 73.4766 43.2324C73.4658 45.9072 71.3926 47.7871 68.5996 47.7871C65.7637 47.7871 63.6797 45.9072 63.7012 43.2324ZM65.9785 43.2324C65.9678 44.8115 67.0742 45.8213 68.5996 45.8105C70.0928 45.8213 71.1777 44.8115 71.1992 43.2324C71.1777 41.6533 70.0928 40.6113 68.5996 40.6113C67.0742 40.6113 65.9678 41.6533 65.9785 43.2324ZM97.7754 34.2734V36.1426C97.7539 38.5596 97.7539 41.2559 97.002 45.3164L94.5957 45.0586C95.3584 41.2773 95.3584 38.5166 95.3691 36.1855H83.7676V34.2734H97.7754ZM81.9199 49.3984V47.4434H88.4512V40.6973H90.8145V47.4434H99.623V49.3984H81.9199ZM122.332 32.5117V43.2754H119.926V32.5117H122.332ZM106.154 41.0625C109.291 40.085 110.935 37.625 110.924 35.0684V33.1992H113.395V35.0684C113.384 37.5068 115.027 39.8379 118.1 40.7188L116.961 42.6309C114.694 41.9326 113.072 40.4932 112.191 38.6348C111.3 40.6328 109.646 42.2119 107.314 42.9531L106.154 41.0625ZM109.033 51.6758V49.7422H111.676V46.1328H109.205V44.2422H122.439V46.1328H119.99V49.7422H122.611V51.6758H109.033ZM114.039 49.7422H117.627V46.1328H114.039V49.7422ZM130.475 33.9082C133.096 33.9082 135.04 36.0996 135.384 39.6445H139.09V32.4902H141.453V51.9336H139.09V41.5781H135.405C135.147 45.3271 133.171 47.6367 130.475 47.6367C127.553 47.6367 125.479 44.9834 125.49 40.7617C125.479 36.5723 127.553 33.9082 130.475 33.9082ZM127.789 40.7617C127.778 43.748 128.874 45.4775 130.475 45.4883C132.086 45.4775 133.171 43.748 133.182 40.7617C133.171 37.7969 132.086 36.0566 130.475 36.0566C128.874 36.0566 127.778 37.7969 127.789 40.7617ZM161.928 47.5938V49.5488H144.182V47.5938H148.285V42.6846C146.738 41.793 145.804 40.3965 145.814 38.6777C145.804 35.584 148.833 33.543 153.012 33.543C157.212 33.543 160.263 35.584 160.252 38.6777C160.263 40.375 159.35 41.7393 157.846 42.6309V47.5938H161.928ZM148.156 38.6777C148.146 40.665 150.111 41.9326 153.012 41.9219C155.901 41.9326 157.91 40.665 157.91 38.6777C157.91 36.6582 155.901 35.4229 153.012 35.4336C150.111 35.4229 148.146 36.6582 148.156 38.6777ZM150.648 47.5938H155.418V43.5439C154.677 43.7051 153.871 43.791 153.012 43.791C152.174 43.791 151.379 43.7051 150.648 43.5547V47.5938ZM165.559 50.1719C164.635 50.1719 163.872 49.4199 163.883 48.4961C163.872 47.5938 164.635 46.8525 165.559 46.8418C166.45 46.8525 167.213 47.5938 167.213 48.4961C167.213 49.4199 166.45 50.1719 165.559 50.1719Z" fill="#1D4C5C"/>
<circle cx="6.5" cy="238.5" r="2.5" fill="black"/>
<path d="M24.8535 234.328C24.8535 236.455 26.4707 238.406 28.7383 239.18L27.9824 240.27C26.2598 239.637 24.8975 238.345 24.2119 236.71C23.5439 238.564 22.1465 239.997 20.3184 240.709L19.5801 239.602C21.918 238.731 23.4912 236.64 23.5 234.223V232.605H24.8535V234.328ZM21.6543 244.541C21.6631 242.757 23.623 241.711 26.8398 241.711C30.0479 241.711 31.9902 242.757 31.9902 244.541C31.9902 246.36 30.0479 247.389 26.8398 247.389C23.623 247.389 21.6631 246.36 21.6543 244.541ZM23.043 244.541C23.0254 245.648 24.4844 246.29 26.8398 246.299C29.2041 246.29 30.6455 245.648 30.6543 244.541C30.6455 243.478 29.2041 242.818 26.8398 242.818C24.4844 242.818 23.0254 243.478 23.043 244.541ZM30.4785 241.307V231.797H31.8496V235.875H34.2051V237.035H31.8496V241.307H30.4785ZM47.4062 231.797V235.629H49.7617V236.789H47.4062V240.674H46.0352V231.797H47.4062ZM35.9277 239.742V232.869H42.8535V233.994H37.2988V238.6C40.4365 238.617 42.2207 238.494 44.3125 238.09L44.4883 239.215C42.291 239.663 40.4277 239.751 37.1406 239.742H35.9277ZM37.5449 247.213V241.482H47.4062V247.213H37.5449ZM38.8984 246.088H46.0352V242.607H38.8984V246.088ZM57.8652 232.078C61.3369 232.078 63.376 233.036 63.3848 234.768C63.376 236.543 61.3369 237.501 57.8652 237.51C54.376 237.501 52.3281 236.543 52.3281 234.768C52.3281 233.036 54.376 232.078 57.8652 232.078ZM50.7461 239.689V238.564H64.9844V239.689H50.7461ZM52.4688 242.098V241.043H63.1562V244.541H53.875V246.158H63.6309V247.248H52.5039V243.521H61.8027V242.098H52.4688ZM53.7695 234.768C53.752 235.857 55.2725 236.455 57.8652 236.455C60.458 236.455 61.9697 235.857 61.9785 234.768C61.9697 233.739 60.458 233.124 57.8652 233.115C55.2725 233.124 53.752 233.739 53.7695 234.768ZM83.7227 231.814V243.275H82.3516V231.814H83.7227ZM70.9785 239.936C73.3428 239.013 74.9512 236.728 74.9512 234.258V232.693H76.3574V234.258C76.3398 236.64 77.9658 238.775 80.2949 239.619L79.5742 240.727C77.7637 240.032 76.3574 238.626 75.6631 236.824C74.9863 238.74 73.5625 240.278 71.7344 241.008L70.9785 239.936ZM73.6328 247.09V242.221H75.0039V245.93H84.2148V247.09H73.6328ZM91.7031 235.154C91.7119 237.097 93.3906 238.854 95.6934 239.531L95.0254 240.604C93.2148 240.059 91.7734 238.881 91.0615 237.343C90.3936 239.048 88.9609 240.393 87.0977 241.008L86.4297 239.953C88.7236 239.18 90.3408 237.272 90.3496 235.154V234.82H86.8164V233.713H90.3496V231.727H91.7383V233.713H95.2363V234.82H91.7031V235.154ZM88.9082 244.541C88.8994 242.722 90.8945 241.685 94.1465 241.693C97.3896 241.685 99.3848 242.722 99.3848 244.541C99.3848 246.352 97.3896 247.389 94.1465 247.389C90.8945 247.389 88.8994 246.352 88.9082 244.541ZM90.2793 244.541C90.2705 245.631 91.7471 246.299 94.1465 246.299C96.5459 246.299 98.0137 245.631 98.0137 244.541C98.0137 243.425 96.5459 242.783 94.1465 242.766C91.7471 242.783 90.2705 243.425 90.2793 244.541ZM94.7441 237.422V236.279H97.9434V231.797H99.332V241.271H97.9434V237.422H94.7441ZM114.027 231.797V238.248H116.646V239.391H114.027V247.424H112.656V231.797H114.027ZM101.846 235.453V234.311H105.871V231.99H107.242V234.311H111.145V235.453H101.846ZM102.742 240.34C102.733 238.23 104.351 236.754 106.574 236.754C108.78 236.754 110.389 238.23 110.406 240.34C110.389 242.458 108.78 243.926 106.574 243.926C104.351 243.926 102.733 242.458 102.742 240.34ZM104.061 240.34C104.052 241.764 105.115 242.766 106.574 242.748C108.016 242.766 109.07 241.764 109.088 240.34C109.07 238.925 108.016 237.905 106.574 237.914C105.115 237.905 104.052 238.925 104.061 240.34ZM125.4 233.168V234.557H129.057V231.814H130.445V243.223H129.057V239.057H125.4V240.463H118.229V233.168H125.4ZM119.6 239.355H124.047V234.311H119.6V239.355ZM120.338 247.09V242.203H121.727V245.93H130.797V247.09H120.338ZM125.4 237.914H129.057V235.717H125.4V237.914ZM142.188 235.066C142.188 236.859 143.418 238.679 145.404 239.461L144.736 240.516C143.216 239.909 142.126 238.723 141.572 237.316C141.027 238.872 139.938 240.19 138.391 240.867L137.688 239.83C139.683 238.978 140.869 237.009 140.887 235.066V235.031H138.004V233.924H140.887V232.061H142.188V233.924H145.018V235.031H142.188V235.066ZM139.586 246.281C142.302 245.859 144.912 244.172 144.93 242.115V241.729H146.301V242.115C146.301 244.172 148.938 245.859 151.645 246.281L151.152 247.354C148.779 246.967 146.564 245.754 145.615 243.996C144.666 245.754 142.442 246.967 140.096 247.354L139.586 246.281ZM146.143 241.025V232.096H147.479V235.805H149.518V231.814H150.836V242.379H149.518V236.965H147.479V241.025H146.143ZM156.391 232.219V233.977H164.125V232.219H165.496V237.949H160.926V239.742H167.359V240.85H153.121V239.742H159.572V237.949H155.02V232.219H156.391ZM154.229 246.281C157.041 245.886 159.537 244.356 159.537 242.326V241.887H160.926V242.326C160.926 244.356 163.413 245.886 166.27 246.281L165.742 247.354C163.343 246.967 161.172 245.877 160.24 244.198C159.3 245.877 157.129 246.967 154.756 247.354L154.229 246.281ZM156.391 236.859H164.125V235.066H156.391V236.859ZM177.344 233.537V234.346C177.335 235.585 177.335 237.65 176.887 240.551L175.498 240.428C175.929 237.809 175.964 235.91 175.955 234.662H169.398V233.537H177.344ZM168.52 242.836C169.548 242.827 170.69 242.818 171.895 242.792V238.002H173.248V242.748C174.979 242.687 176.755 242.572 178.381 242.379L178.451 243.416C175.164 243.926 171.49 243.996 168.695 243.979L168.52 242.836ZM179.365 247.424V231.797H180.736V238.336H183.268V239.531H180.736V247.424H179.365ZM189.35 232.939C191.802 232.948 193.542 234.442 193.551 236.613C193.542 238.793 191.802 240.278 189.35 240.287C186.88 240.278 185.122 238.793 185.131 236.613C185.122 234.442 186.88 232.948 189.35 232.939ZM184.322 242.836C187.205 242.845 191.187 242.818 194.641 242.309L194.746 243.328C191.169 243.996 187.328 244.014 184.516 244.014L184.322 242.836ZM186.484 236.613C186.476 238.072 187.68 239.074 189.35 239.074C191.002 239.074 192.206 238.072 192.197 236.613C192.206 235.163 191.002 234.152 189.35 234.152C187.68 234.152 186.476 235.163 186.484 236.613ZM195.678 247.459V231.797H197.049V247.459H195.678ZM217.668 231.797V247.424H216.35V239.232H214.047V246.615H212.781V232.148H214.047V238.09H216.35V231.797H217.668ZM204.889 243.557V233.713H210.742V234.855H206.26V242.379C208.413 242.37 209.898 242.291 211.639 241.939L211.762 243.1C209.881 243.486 208.29 243.548 205.891 243.557H204.889ZM231.994 231.797V238.459H234.49V239.619H231.994V247.424H230.605V231.797H231.994ZM219.672 243.258C220.946 243.258 222.432 243.249 223.979 243.205V241.482C222.159 241.271 220.973 240.199 220.99 238.652C220.973 236.886 222.467 235.743 224.682 235.752C226.861 235.743 228.382 236.886 228.391 238.652C228.382 240.208 227.178 241.271 225.367 241.482V243.152C226.817 243.082 228.294 242.959 229.656 242.766L229.744 243.82C226.334 244.4 222.643 244.436 219.9 244.436L219.672 243.258ZM219.953 234.838V233.713H223.979V231.832H225.367V233.713H229.375V234.838H219.953ZM222.273 238.652C222.282 239.733 223.231 240.445 224.682 240.428C226.105 240.445 227.063 239.733 227.072 238.652C227.063 237.562 226.105 236.824 224.682 236.824C223.231 236.824 222.282 237.562 222.273 238.652ZM253.281 231.797V247.424H251.928V239.338H249.678V246.615H248.377V232.148H249.678V238.16H251.928V231.797H253.281ZM240.73 243.381V233.713H242.102V242.15C243.648 242.142 245.318 242.027 247.217 241.641L247.393 242.871C245.213 243.267 243.42 243.381 241.697 243.381H240.73ZM269.734 239.531V240.674H255.496V239.531H259.029V237.325C257.781 236.842 257.078 236.051 257.078 234.996C257.078 233.159 259.188 232.104 262.615 232.096C266.017 232.104 268.126 233.159 268.135 234.996C268.126 236.042 267.432 236.833 266.201 237.325V239.531H269.734ZM257.219 244.629C257.21 242.845 259.223 241.86 262.615 241.869C265.964 241.86 267.977 242.845 267.994 244.629C267.977 246.413 265.964 247.389 262.615 247.389C259.223 247.389 257.21 246.413 257.219 244.629ZM258.502 234.996C258.493 236.139 260.058 236.798 262.615 236.807C265.146 236.798 266.72 236.139 266.729 234.996C266.72 233.871 265.146 233.186 262.615 233.186C260.058 233.186 258.493 233.871 258.502 234.996ZM258.625 244.629C258.607 245.692 260.11 246.325 262.615 246.316C265.094 246.325 266.597 245.692 266.605 244.629C266.597 243.565 265.094 242.941 262.615 242.924C260.11 242.941 258.607 243.565 258.625 244.629ZM260.4 239.531H264.83V237.694C264.171 237.817 263.433 237.879 262.615 237.879C261.798 237.879 261.06 237.817 260.4 237.703V239.531ZM279.719 233.537V234.346C279.71 235.585 279.71 237.65 279.262 240.551L277.873 240.428C278.304 237.809 278.339 235.91 278.33 234.662H271.773V233.537H279.719ZM270.895 242.836C271.923 242.827 273.065 242.818 274.27 242.792V238.002H275.623V242.748C277.354 242.687 279.13 242.572 280.756 242.379L280.826 243.416C277.539 243.926 273.865 243.996 271.07 243.979L270.895 242.836ZM281.74 247.424V231.797H283.111V238.336H285.643V239.531H283.111V247.424H281.74ZM32.5879 260.797V268.795H31.1992V267.16H27.0332V266.07H31.1992V264.189H27.2617C26.2861 266.65 23.8604 268.312 20.3887 269.146L19.8965 268.004C23.7285 267.116 25.9521 265.253 26.2158 262.73H20.6875V261.588H27.7363C27.7363 262.106 27.6836 262.607 27.5869 263.082H31.1992V260.797H32.5879ZM22.4629 270.623V269.498H32.5879V273.312H23.8691V275.141H33.1152V276.283H22.498V272.258H31.1992V270.623H22.4629ZM43.8555 262.537V263.346C43.8467 264.585 43.8467 266.65 43.3984 269.551L42.0098 269.428C42.4404 266.809 42.4756 264.91 42.4668 263.662H35.9102V262.537H43.8555ZM35.0312 271.836C36.0596 271.827 37.2021 271.818 38.4062 271.792V267.002H39.7598V271.748C41.4912 271.687 43.2666 271.572 44.8926 271.379L44.9629 272.416C41.6758 272.926 38.002 272.996 35.207 272.979L35.0312 271.836ZM45.877 276.424V260.797H47.248V267.336H49.7793V268.531H47.248V276.424H45.877ZM62.8398 260.797V267.16H65.3711V268.32H62.8398V276.424H61.4688V260.797H62.8398ZM50.8516 272.363C54.8857 270.359 57.083 267.345 57.3994 263.645H51.5723V262.484H58.7969C58.7881 266.905 56.7139 270.939 51.625 273.453L50.8516 272.363ZM76.1641 263.75C76.1641 265.93 77.7461 267.986 80.0312 268.812L79.2578 269.885C77.5439 269.208 76.1729 267.854 75.5049 266.149C74.8457 268.039 73.4219 269.533 71.5762 270.271L70.8379 269.146C73.1846 268.285 74.8018 266.097 74.8105 263.697V261.764H76.1641V263.75ZM73.668 276.09V271.186H75.0566V274.93H84.127V276.09H73.668ZM78.9062 265.648V264.488H82.3867V260.814H83.7754V272.521H82.3867V265.648H78.9062ZM91.0352 263.908C91.0439 265.64 92.248 267.389 94.252 268.145L93.5312 269.199C92.0283 268.619 90.9473 267.503 90.3848 266.158C89.8135 267.644 88.6885 268.971 87.1504 269.639L86.3945 268.566C88.4512 267.67 89.708 265.648 89.7168 263.908V261.781H91.0352V263.908ZM89.2422 273.611C89.2246 271.845 91.2285 270.808 94.4805 270.816C97.7148 270.808 99.7275 271.845 99.7363 273.611C99.7275 275.36 97.7148 276.389 94.4805 276.389C91.2285 276.389 89.2246 275.36 89.2422 273.611ZM90.6133 273.611C90.5957 274.675 92.0811 275.325 94.4805 275.316C96.8535 275.325 98.3477 274.675 98.3652 273.611C98.3477 272.53 96.8535 271.88 94.4805 271.871C92.0811 271.88 90.5957 272.53 90.6133 273.611ZM94.9551 269.973V261.113H96.2559V265.016H98.3301V260.814H99.6484V270.465H98.3301V266.158H96.2559V269.973H94.9551ZM114.818 260.797V269.674H113.465V260.797H114.818ZM102.918 268.479V261.729H104.307V267.301C106.891 267.283 109.202 267.107 111.689 266.58L111.9 267.74C109.255 268.276 106.882 268.461 104.184 268.479H102.918ZM104.676 276.213V270.395H114.818V276.213H104.676ZM106.029 275.088H113.465V271.502H106.029V275.088ZM130.885 260.797V276.424H129.549V260.797H130.885ZM117.684 267.547C117.692 264.225 119.011 262.124 121.041 262.115C122.939 262.124 124.223 263.952 124.398 266.896H126.42V261.131H127.738V275.633H126.42V268.039H124.407C124.275 271.08 122.966 272.987 121.041 272.979C119.011 272.987 117.692 270.869 117.684 267.547ZM118.984 267.547C118.967 270.078 119.775 271.678 121.041 271.66C122.315 271.678 123.124 270.078 123.115 267.547C123.124 265.007 122.315 263.416 121.041 263.416C119.775 263.416 118.967 265.007 118.984 267.547ZM146.424 260.797V276.424H145.105V260.797H146.424ZM133.064 272.047C136.457 270.034 138.162 267.213 138.426 263.943H133.732V262.801H139.797C139.797 264.339 139.551 265.824 139.015 267.213H141.818V261.219H143.137V275.633H141.818V268.338H138.505C137.564 270.157 136.053 271.766 133.873 273.049L133.064 272.047ZM160.188 270.676C163.536 270.676 165.663 271.73 165.672 273.541C165.663 275.334 163.536 276.389 160.188 276.389C156.839 276.389 154.712 275.334 154.721 273.541C154.712 271.73 156.839 270.676 160.188 270.676ZM153.139 269.217V268.092H159.027V265.068H160.381V268.092H167.359V269.217H153.139ZM154.826 262.73V261.605H165.549V262.924C165.54 264.189 165.54 265.455 165.109 267.072L163.756 266.914C164.178 265.306 164.178 264.146 164.178 262.924V262.73H154.826ZM156.092 273.541C156.083 274.631 157.7 275.299 160.188 275.299C162.684 275.299 164.283 274.631 164.301 273.541C164.283 272.425 162.684 271.739 160.188 271.73C157.7 271.739 156.083 272.425 156.092 273.541ZM182.969 269.709V270.852H179.189V276.424H177.801V270.852H173.793V276.424H172.369V270.852H168.66V269.709H182.969ZM170.277 264.84C170.286 262.757 172.492 261.438 175.779 261.43C179.058 261.438 181.281 262.757 181.281 264.84C181.281 266.923 179.058 268.224 175.779 268.215C172.492 268.224 170.286 266.923 170.277 264.84ZM171.701 264.84C171.684 266.22 173.345 267.107 175.779 267.107C178.214 267.107 179.866 266.22 179.875 264.84C179.866 263.451 178.214 262.555 175.779 262.555C173.345 262.555 171.684 263.451 171.701 264.84ZM184.041 271.871C185.043 271.871 186.3 271.862 187.609 271.818V268.689H184.885V262.396H191.529V263.539H186.238V267.547H191.67V268.689H188.945V271.774C190.097 271.722 191.239 271.634 192.232 271.52L192.303 272.521C189.719 272.961 186.37 273.04 184.252 273.031L184.041 271.871ZM192.953 275.598V261.148H194.236V267.318H196.188V260.797H197.523V276.424H196.188V268.443H194.236V275.598H192.953ZM214.1 273.26V274.42H199.791V273.26H203.342V269.05C202.006 268.355 201.197 267.23 201.197 265.807C201.197 263.39 203.57 261.799 206.91 261.781C210.25 261.799 212.623 263.39 212.623 265.807C212.623 267.204 211.841 268.312 210.549 269.006V273.26H214.1ZM202.533 265.807C202.524 267.556 204.344 268.725 206.91 268.725C209.45 268.725 211.287 267.556 211.287 265.807C211.287 264.058 209.45 262.906 206.91 262.924C204.344 262.906 202.524 264.058 202.533 265.807ZM204.695 273.26H209.16V269.542C208.483 269.718 207.728 269.814 206.91 269.814C206.11 269.814 205.363 269.727 204.695 269.551V273.26ZM217 275.105C216.385 275.097 215.857 274.587 215.875 273.963C215.857 273.348 216.385 272.838 217 272.838C217.624 272.838 218.134 273.348 218.125 273.963C218.134 274.587 217.624 275.097 217 275.105Z" fill="black"/>
</svg>
