<svg width="292" height="248" viewBox="0 0 292 248" fill="none" xmlns="http://www.w3.org/2000/svg">
<path d="M0 75H292" stroke="#1D4C5C" stroke-width="2"/>
<path d="M7.21875 12.7793H9.77539L11.0967 14.5195C11.9883 13.5957 12.5146 12.1562 12.5039 10.2227C12.5146 6.66699 10.7314 4.74414 8.18555 4.74414C5.65039 4.74414 3.85645 6.66699 3.86719 10.2227C3.85645 13.7783 5.65039 15.7012 8.18555 15.7012C8.59375 15.7012 8.98047 15.6475 9.3457 15.5508L7.21875 12.7793ZM1.05273 10.2227C1.04199 5.19531 4.09277 2.23047 8.18555 2.23047C12.2568 2.23047 15.3291 5.19531 15.3184 10.2227C15.3291 13.0479 14.3623 15.2178 12.7939 16.582L14.9531 19.3535H12.2246L10.9248 17.71C10.0869 18.043 9.16309 18.2148 8.18555 18.2148C4.09277 18.2148 1.04199 15.2393 1.05273 10.2227ZM18.4121 18.1719C17.4883 18.1719 16.7256 17.4199 16.7363 16.4961C16.7256 15.5938 17.4883 14.8525 18.4121 14.8418C19.3037 14.8525 20.0664 15.5938 20.0664 16.4961C20.0664 17.4199 19.3037 18.1719 18.4121 18.1719ZM43.4844 0.490234V19.9121H41.207V10.0078H39.0156V18.9238H36.8242V0.855469H39.0156V8.0957H41.207V0.490234H43.4844ZM27.3711 15.3789V2.78906H34.6328V4.72266H29.7773V13.3594C31.8828 13.3379 33.623 13.2305 35.5996 12.8652L35.7715 14.8203C33.4189 15.293 31.3887 15.3574 28.6816 15.3789H27.3711ZM61.1445 0.490234V8.50391H63.873V10.502H61.1445V19.9121H58.7383V0.490234H61.1445ZM45.5469 14.5195C47.0186 14.5195 48.7266 14.5195 50.5098 14.4766V12.6611C48.3936 12.2959 47.0186 10.9746 47.0293 9.14844C47.0186 6.95703 48.9414 5.50684 51.7344 5.49609C54.4951 5.50684 56.4395 6.95703 56.4609 9.14844C56.4395 10.9854 55.0322 12.3066 52.916 12.6611V14.3906C54.5488 14.3047 56.1816 14.1758 57.707 13.9609L57.8574 15.7012C53.6895 16.4639 49.1992 16.4961 45.8906 16.4961L45.5469 14.5195ZM45.9121 4.61523V2.72461H50.5098V0.576172H52.916V2.72461H57.4922V4.61523H45.9121ZM49.2852 9.14844C49.2744 10.2656 50.2627 10.9209 51.7344 10.9102C53.1846 10.9209 54.1621 10.2656 54.1621 9.14844C54.1621 8.02051 53.1846 7.33301 51.7344 7.32227C50.2627 7.33301 49.2744 8.02051 49.2852 9.14844ZM82.5215 9.29883V11.1035H64.7754V9.29883H82.5215ZM66.8379 13.9395V12.2637H80.373V16.6895H69.2441V18.043H80.9531V19.6973H66.8594V15.1426H78.0098V13.9395H66.8379ZM66.9668 2.57422V0.919922H80.3301V5.30273H69.3945V6.57031H80.6738V8.20312H67.0312V3.75586H77.9453V2.57422H66.9668ZM99.043 7.42969V9.90039H106.734V11.834H89.0312V9.90039H96.6797V7.42969H99.043ZM89.8691 6.61328C93.457 6.25879 95.7881 4.85156 96.1855 3.26172H90.6426V1.34961H105.145V3.26172H99.5479C99.9453 4.84082 102.276 6.25879 105.896 6.61328L105.037 8.48242C101.514 8.11719 98.9141 6.74219 97.8613 4.78711C96.8086 6.74219 94.2305 8.11719 90.707 8.48242L89.8691 6.61328ZM91.0938 16.4746C91.0938 14.2939 93.6182 13.0801 97.8613 13.0801C102.072 13.0801 104.575 14.2939 104.586 16.4746C104.575 18.6768 102.072 19.8906 97.8613 19.8906C93.6182 19.8906 91.0938 18.6768 91.0938 16.4746ZM93.5215 16.4746C93.5107 17.5381 95.0039 18.0859 97.8613 18.0859C100.665 18.0859 102.18 17.5381 102.201 16.4746C102.18 15.4434 100.665 14.917 97.8613 14.9062C95.0039 14.917 93.5107 15.4434 93.5215 16.4746ZM125.791 15.6797V17.6562H108.045V15.6797H112.75V12.4785H110.15V6.14062H121.322V3.75586H110.107V1.82227H123.686V8.05273H112.535V10.5449H124.137V12.4785H121.301V15.6797H125.791ZM115.07 15.6797H118.959V12.4785H115.07V15.6797ZM149.016 2.57422V4.50781H133.16V2.57422H139.928V0.447266H142.291V2.57422H149.016ZM132.279 14.9922V13.0371H150.025V14.9922H142.291V19.9336H139.928V14.9922H132.279ZM134.535 8.67578C134.535 6.54883 137.006 5.38867 141.109 5.38867C145.213 5.38867 147.684 6.54883 147.684 8.67578C147.684 10.792 145.213 11.9629 141.109 11.9629C137.006 11.9629 134.535 10.792 134.535 8.67578ZM137.027 8.67578C137.017 9.6748 138.424 10.1904 141.109 10.1797C143.784 10.1904 145.202 9.6748 145.213 8.67578C145.202 7.6875 143.784 7.17188 141.109 7.17188C138.424 7.17188 137.017 7.6875 137.027 8.67578ZM162.572 4.09961C162.583 6.19434 163.808 8.31055 166.354 9.27734L165.086 11.1035C163.356 10.4482 162.153 9.20215 161.455 7.69824C160.746 9.42773 159.479 10.9102 157.631 11.6836L156.342 9.85742C159.017 8.67578 160.263 6.24805 160.273 4.09961V1.69336H162.572V4.09961ZM159.908 16.3027C159.897 14.0684 162.476 12.7363 166.568 12.7363C170.629 12.7363 173.218 14.0684 173.229 16.3027C173.218 18.5479 170.629 19.8906 166.568 19.8906C162.476 19.8906 159.897 18.5479 159.908 16.3027ZM162.293 16.3027C162.282 17.4521 163.872 18.0752 166.568 18.0645C169.222 18.0752 170.812 17.4521 170.822 16.3027C170.812 15.1641 169.222 14.541 166.568 14.541C163.872 14.541 162.282 15.1641 162.293 16.3027ZM166.676 11.8125V0.876953H168.91V5.41016H170.844V0.511719H173.121V12.4141H170.844V7.36523H168.91V11.8125H166.676ZM182.639 3.2832C182.628 5.92578 184.175 8.34277 187.215 9.29883L185.926 11.168C183.81 10.416 182.327 8.99805 181.5 7.16113C180.641 9.27734 179.019 10.9424 176.666 11.7695L175.398 9.83594C178.61 8.7832 180.222 6.19434 180.232 3.39062V1.54297H182.639V3.2832ZM178.621 16.1738C178.6 13.8105 181.124 12.4248 185.217 12.4355C189.331 12.4248 191.845 13.8105 191.855 16.1738C191.845 18.5371 189.331 19.8906 185.217 19.8906C181.124 19.8906 178.6 18.5371 178.621 16.1738ZM180.984 16.1738C180.974 17.3555 182.521 18.0107 185.217 18.0215C187.935 18.0107 189.471 17.3555 189.471 16.1738C189.471 14.9492 187.935 14.2939 185.217 14.2832C182.521 14.2939 180.974 14.9492 180.984 16.1738ZM185.539 6.20508V4.25H189.406V0.490234H191.791V11.9199H189.406V6.20508H185.539ZM206.1 8.54688V10.4805H202.168V13.8643C203.865 13.7998 205.562 13.6816 207.174 13.5098L207.367 15.2715C203.092 15.9053 198.591 15.9482 194.928 15.959L194.627 13.9824C196.228 13.9932 197.979 13.9824 199.783 13.9502V10.4805H195.98V2.27344H206.014V4.16406H198.344V8.54688H206.1ZM208.334 19.9336V0.490234H210.719V19.9336H208.334ZM229.281 5.99023V7.88086H215.832V1.19922H218.195V5.99023H229.281ZM213.533 12.0273V10.1367H231.279V12.0273H213.533ZM215.66 19.4609V13.7461H218.045V17.5273H229.41V19.4609H215.66ZM7.51953 35.584C7.51953 38.0225 9.09863 40.332 12.0957 41.2773L10.8066 43.1465C8.71191 42.4375 7.20801 41.0195 6.35938 39.2148C5.52148 41.2773 3.95312 42.8994 1.71875 43.6836L0.429688 41.8145C3.55566 40.7295 5.12402 38.1406 5.13477 35.3691V33.5215H7.51953V35.584ZM3.07227 48.1953C3.07227 45.8965 5.59668 44.5322 9.64648 44.543C13.6641 44.5322 16.1455 45.8965 16.1562 48.1953C16.1455 50.5479 13.6641 51.8906 9.64648 51.8906C5.59668 51.8906 3.07227 50.5479 3.07227 48.1953ZM5.45703 48.1953C5.45703 49.3984 6.98242 50 9.64648 50C12.2998 50 13.793 49.3984 13.793 48.1953C13.793 47.0566 12.2998 46.4121 9.64648 46.4121C6.98242 46.4121 5.45703 47.0566 5.45703 48.1953ZM13.5781 44.1133V32.4902H15.9629V37.2168H18.6699V39.1934H15.9629V44.1133H13.5781ZM34.9766 32.4902V37.002H37.6836V38.9785H34.9766V43.4258H32.5918V32.4902H34.9766ZM20.4746 42.5664V33.7363H29.1113V35.6699H22.8379V40.6328C26.4902 40.6221 28.5205 40.4932 30.8301 40.0312L31.0879 41.9219C28.542 42.4805 26.2861 42.5664 22.043 42.5664H20.4746ZM22.4297 51.6543V44.3066H34.9766V51.6543H22.4297ZM24.793 49.7637H32.6133V46.2188H24.793V49.7637ZM60.1562 32.4902V42.3301H57.7715V40.6328H53.0879V38.8066H57.7715V36.8945H53.335C52.1318 39.8594 49.2852 41.793 44.9883 42.7598L44.1504 40.8047C48.7158 39.8486 50.9932 37.8398 51.3262 35.2617H45.2246V33.3281H53.9902C53.9902 33.9404 53.9365 34.5205 53.8506 35.0684H57.7715V32.4902H60.1562ZM47.373 44.9727V43.082H60.1562V48.1953H49.7793V49.8066H60.6719V51.7188H47.3945V46.4121H57.7715V44.9727H47.373ZM73.7559 34.5098V35.8848C73.7559 37.6143 73.7559 40.0635 73.2188 43.4043L70.8555 43.2109C71.3281 40.2676 71.3818 38.0869 71.3926 36.4219H63.7656V34.5098H73.7559ZM62.7344 45.918C63.8838 45.9072 65.1621 45.8965 66.4941 45.8643V40.0527H68.8574V45.7891C70.834 45.7031 72.8643 45.5635 74.7227 45.3379L74.8516 47.1211C70.8447 47.7764 66.3975 47.8516 62.9707 47.8301L62.7344 45.918ZM75.7324 51.9121V32.4902H78.1387V40.3965H80.9531V42.416H78.1387V51.9121H75.7324ZM97.6465 37.9902V39.8809H84.1973V33.1992H86.5605V37.9902H97.6465ZM81.8984 44.0273V42.1367H99.6445V44.0273H81.8984ZM84.0254 51.4609V45.7461H86.4102V49.5273H97.7754V51.4609H84.0254ZM123.879 43.4902V45.4238H116.145V51.8906H113.781V45.4238H106.133V43.4902H123.879ZM108.303 41.2129V33.4785H121.709V41.2129H108.303ZM110.645 39.3438H119.324V35.3906H110.645V39.3438ZM141.432 32.4902V45.6387H139.047V39.5371H135.534C135.051 41.7607 133.063 43.2754 130.561 43.2754C127.628 43.2754 125.426 41.2773 125.426 38.5059C125.426 35.7021 127.628 33.7686 130.561 33.7578C133.117 33.7686 135.137 35.2939 135.566 37.6035H139.047V32.4902H141.432ZM127.445 49.9141C131.259 49.334 133.751 47.0996 133.762 44.9512V44.3066H136.232V44.9512C136.211 47.207 138.639 49.3662 142.57 49.9141L141.625 51.7832C138.521 51.3105 136.146 49.8496 134.976 47.8623C133.783 49.8281 131.398 51.3105 128.305 51.7832L127.445 49.9141ZM127.703 38.5059C127.703 40.1709 128.896 41.2344 130.561 41.2344C132.15 41.2344 133.364 40.1709 133.375 38.5059C133.364 36.8838 132.15 35.7773 130.561 35.7773C128.896 35.7773 127.703 36.8838 127.703 38.5059ZM160.359 32.5117V46.541H157.953V32.5117H160.359ZM144.525 38.6348C144.525 35.8096 146.813 33.79 149.768 33.7793C152.722 33.79 154.999 35.8096 154.988 38.6348C154.999 41.5029 152.722 43.5117 149.768 43.5117C146.813 43.5117 144.525 41.5029 144.525 38.6348ZM146.867 38.6348C146.856 40.3535 148.103 41.4277 149.768 41.4277C151.39 41.4277 152.646 40.3535 152.646 38.6348C152.646 36.959 151.39 35.8633 149.768 35.8633C148.103 35.8633 146.856 36.959 146.867 38.6348ZM147.512 51.5254V45.123H149.918V49.5918H160.896V51.5254H147.512ZM178.406 32.4902V40.0742H181.285V42.0723H178.406V51.8691H176.021V32.4902H178.406ZM163.088 46.5625C167.814 44.1992 170.371 40.9121 170.844 36.4863H164.141V34.5098H173.271C173.261 40.2139 170.897 45.2305 164.441 48.4102L163.088 46.5625ZM199.955 47.5938V49.5488H182.209V47.5938H186.312V42.6846C184.766 41.793 183.831 40.3965 183.842 38.6777C183.831 35.584 186.86 33.543 191.039 33.543C195.239 33.543 198.29 35.584 198.279 38.6777C198.29 40.375 197.377 41.7393 195.873 42.6309V47.5938H199.955ZM186.184 38.6777C186.173 40.665 188.139 41.9326 191.039 41.9219C193.929 41.9326 195.938 40.665 195.938 38.6777C195.938 36.6582 193.929 35.4229 191.039 35.4336C188.139 35.4229 186.173 36.6582 186.184 38.6777ZM188.676 47.5938H193.445V43.5439C192.704 43.7051 191.898 43.791 191.039 43.791C190.201 43.791 189.406 43.7051 188.676 43.5547V47.5938ZM204.51 45.2305C204.531 42.4912 205.305 41.6533 206.658 40.8262C207.571 40.2354 208.28 39.5156 208.27 38.4414C208.28 37.2383 207.335 36.4648 206.164 36.4648C205.101 36.4648 204.069 37.1523 203.994 38.5918H201.309C201.384 35.7021 203.532 34.2305 206.186 34.2305C209.086 34.2305 211.073 35.8418 211.084 38.3984C211.073 40.1494 210.203 41.2881 208.807 42.1152C207.561 42.8779 207.045 43.6191 207.023 45.2305V45.4238H204.51V45.2305ZM204.166 48.4961C204.155 47.5938 204.918 46.8525 205.842 46.8418C206.733 46.8525 207.496 47.5938 207.496 48.4961C207.496 49.4199 206.733 50.1719 205.842 50.1719C204.918 50.1719 204.155 49.4199 204.166 48.4961Z" fill="#1D4C5C"/>
<circle cx="6.5" cy="110.5" r="2.5" fill="black"/>
<path d="M24.2559 107.066C24.2559 108.859 25.4863 110.679 27.4727 111.461L26.8047 112.516C25.2842 111.909 24.1943 110.723 23.6406 109.316C23.0957 110.872 22.0059 112.19 20.459 112.867L19.7559 111.83C21.751 110.978 22.9375 109.009 22.9551 107.066V107.031H20.0723V105.924H22.9551V104.061H24.2559V105.924H27.0859V107.031H24.2559V107.066ZM21.6543 118.281C24.3701 117.859 26.9805 116.172 26.998 114.115V113.729H28.3691V114.115C28.3691 116.172 31.0059 117.859 33.7129 118.281L33.2207 119.354C30.8477 118.967 28.6328 117.754 27.6836 115.996C26.7344 117.754 24.5107 118.967 22.1641 119.354L21.6543 118.281ZM28.2109 113.025V104.096H29.5469V107.805H31.5859V103.814H32.9043V114.379H31.5859V108.965H29.5469V113.025H28.2109ZM38.459 104.219V105.977H46.1934V104.219H47.5645V109.949H42.9941V111.742H49.4277V112.85H35.1895V111.742H41.6406V109.949H37.0879V104.219H38.459ZM36.2969 118.281C39.1094 117.886 41.6055 116.356 41.6055 114.326V113.887H42.9941V114.326C42.9941 116.356 45.4814 117.886 48.3379 118.281L47.8105 119.354C45.4111 118.967 43.2402 117.877 42.3086 116.198C41.3682 117.877 39.1973 118.967 36.8242 119.354L36.2969 118.281ZM38.459 108.859H46.1934V107.066H38.459V108.859ZM59.4121 105.537V106.346C59.4033 107.585 59.4033 109.65 58.9551 112.551L57.5664 112.428C57.9971 109.809 58.0322 107.91 58.0234 106.662H51.4668V105.537H59.4121ZM50.5879 114.836C51.6162 114.827 52.7588 114.818 53.9629 114.792V110.002H55.3164V114.748C57.0479 114.687 58.8232 114.572 60.4492 114.379L60.5195 115.416C57.2324 115.926 53.5586 115.996 50.7637 115.979L50.5879 114.836ZM61.4336 119.424V103.797H62.8047V110.336H65.3359V111.531H62.8047V119.424H61.4336ZM71.418 104.939C73.8701 104.948 75.6104 106.442 75.6191 108.613C75.6104 110.793 73.8701 112.278 71.418 112.287C68.9482 112.278 67.1904 110.793 67.1992 108.613C67.1904 106.442 68.9482 104.948 71.418 104.939ZM66.3906 114.836C69.2734 114.845 73.2549 114.818 76.709 114.309L76.8145 115.328C73.2373 115.996 69.3965 116.014 66.584 116.014L66.3906 114.836ZM68.5527 108.613C68.5439 110.072 69.748 111.074 71.418 111.074C73.0703 111.074 74.2744 110.072 74.2656 108.613C74.2744 107.163 73.0703 106.152 71.418 106.152C69.748 106.152 68.5439 107.163 68.5527 108.613ZM77.7461 119.459V103.797H79.1172V119.459H77.7461ZM99.7363 103.797V119.424H98.418V111.232H96.1152V118.615H94.8496V104.148H96.1152V110.09H98.418V103.797H99.7363ZM86.957 115.557V105.713H92.8105V106.855H88.3281V114.379C90.4814 114.37 91.9668 114.291 93.707 113.939L93.8301 115.1C91.9492 115.486 90.3584 115.548 87.959 115.557H86.957ZM114.062 103.797V110.459H116.559V111.619H114.062V119.424H112.674V103.797H114.062ZM101.74 115.258C103.015 115.258 104.5 115.249 106.047 115.205V113.482C104.228 113.271 103.041 112.199 103.059 110.652C103.041 108.886 104.535 107.743 106.75 107.752C108.93 107.743 110.45 108.886 110.459 110.652C110.45 112.208 109.246 113.271 107.436 113.482V115.152C108.886 115.082 110.362 114.959 111.725 114.766L111.812 115.82C108.402 116.4 104.711 116.436 101.969 116.436L101.74 115.258ZM102.021 106.838V105.713H106.047V103.832H107.436V105.713H111.443V106.838H102.021ZM104.342 110.652C104.351 111.733 105.3 112.445 106.75 112.428C108.174 112.445 109.132 111.733 109.141 110.652C109.132 109.562 108.174 108.824 106.75 108.824C105.3 108.824 104.351 109.562 104.342 110.652ZM131.781 111.057V112.146H117.473V111.057H131.781ZM119.195 114.432V113.395H129.988V116.717H120.602V118.211H130.498V119.213H119.213V115.768H128.617V114.432H119.195ZM119.283 105.273V104.271H129.936V107.506H120.707V108.877H130.217V109.879H119.336V106.557H128.547V105.273H119.283ZM151.855 112.076V113.201H145.492V116.26H144.121V113.201H137.547V112.076H151.855ZM139.375 119.09V114.818H140.746V117.93H150.256V119.09H139.375ZM139.463 110.547V104.307H140.834V106.311H148.568V104.307H149.939V110.547H139.463ZM140.834 109.422H148.568V107.365H140.834V109.422ZM158.447 106.311C158.438 108.464 160.047 110.45 162.314 111.232L161.559 112.34C159.827 111.698 158.465 110.371 157.797 108.701C157.138 110.547 155.731 111.988 153.895 112.709L153.139 111.566C155.512 110.731 157.076 108.666 157.094 106.258V104.605H158.447V106.311ZM155.564 115.012V113.904H166.076V119.424H164.688V115.012H155.564ZM161.207 108.244V107.084H164.688V103.797H166.076V113.043H164.688V108.244H161.207ZM176.482 106.504V107.629H168.643V106.504H171.895V104.271H173.266V106.504H176.482ZM169.205 112.234C169.205 110.16 170.62 108.692 172.562 108.684C174.531 108.692 175.938 110.16 175.955 112.234C175.938 114.335 174.531 115.812 172.562 115.82C170.62 115.812 169.205 114.335 169.205 112.234ZM170.436 112.234C170.436 113.623 171.323 114.616 172.562 114.607C173.811 114.616 174.725 113.623 174.725 112.234C174.725 110.863 173.811 109.861 172.562 109.844C171.323 109.861 170.436 110.863 170.436 112.234ZM177.291 118.65V104.184H178.592V110.389H180.666V103.797H181.984V119.424H180.666V111.531H178.592V118.65H177.291ZM189.736 107.998C189.728 110.828 191.547 113.676 193.814 114.713L192.988 115.838C191.213 114.924 189.745 113.061 189.051 110.837C188.356 113.175 186.889 115.179 185.113 116.119L184.217 115.012C186.511 113.887 188.321 110.881 188.33 107.998V105.15H189.736V107.998ZM192.109 110.266V109.141H195.818V103.797H197.189V119.459H195.818V110.266H192.109ZM218.6 112.762V113.922H212.078V119.424H210.725V113.922H204.291V112.762H218.6ZM205.908 107.875C205.917 105.757 208.123 104.438 211.41 104.43C214.688 104.438 216.912 105.757 216.912 107.875C216.912 109.958 214.688 111.276 211.41 111.268C208.123 111.276 205.917 109.958 205.908 107.875ZM207.332 107.875C207.314 109.264 208.976 110.16 211.41 110.16C213.845 110.16 215.497 109.264 215.506 107.875C215.497 106.46 213.845 105.555 211.41 105.555C208.976 105.555 207.314 106.46 207.332 107.875ZM226.984 103.99C230.456 103.99 232.495 104.957 232.504 106.697C232.495 108.455 230.456 109.413 226.984 109.422C223.495 109.413 221.447 108.455 221.447 106.697C221.447 104.957 223.495 103.99 226.984 103.99ZM219.865 111.566V110.459H234.104V111.566H227.652V113.043H232.275V116.541H222.994V118.158H232.75V119.248H221.623V115.521H230.922V114.098H221.588V113.043H226.281V111.566H219.865ZM222.889 106.697C222.871 107.77 224.392 108.35 226.984 108.367C229.577 108.35 231.089 107.77 231.098 106.697C231.089 105.669 229.577 105.062 226.984 105.045C224.392 105.062 222.871 105.669 222.889 106.697ZM248.043 111.127V112.252H243.209V116.295H249.73V117.455H235.422V116.295H241.855V112.252H237.25V105.08H247.885V106.205H238.639V111.127H248.043ZM253.545 116.822L252.174 121.604H250.873L251.84 116.822H253.545ZM24.2734 137.244C24.2734 139.731 25.4863 142.412 27.5605 143.643L26.7695 144.715C25.2578 143.801 24.1768 142.131 23.6318 140.224C23.0605 142.307 21.9004 144.1 20.3359 145.049L19.457 144.012C21.6191 142.746 22.9375 139.978 22.9375 137.297V134.273H24.2734V137.244ZM25.8379 139.582V138.404H28.4922V133.131H29.793V147.633H28.4922V139.582H25.8379ZM31.6914 148.424V132.797H33.0273V148.424H31.6914ZM49.4805 142.078V143.203H42.959V148.424H41.6055V143.203H35.1719V142.078H49.4805ZM37 140.18V133.447H38.3711V135.609H46.2461V133.447H47.6348V140.18H37ZM38.3711 139.055H46.2461V136.734H38.3711V139.055ZM67.4805 132.797V136.629H69.8359V137.771H67.4805V141.674H66.1094V132.797H67.4805ZM55.2461 140.725C59.0869 139.688 61.4336 137.604 61.7236 134.959H55.9492V133.816H63.209C63.1914 137.754 60.4404 140.575 55.8086 141.832L55.2461 140.725ZM57.584 148.213V142.395H67.4805V148.213H57.584ZM58.9551 147.088H66.1094V143.537H58.9551V147.088ZM83.7754 132.797V142.113H82.3867V138.018H79.2402V136.875H82.3867V132.797H83.7754ZM70.8906 140.865C73.2109 140.03 74.8633 137.912 74.8633 135.68V135.1H71.3301V133.939H79.75V135.1H76.252V135.662C76.252 137.701 77.8164 139.644 80.1016 140.426L79.3809 141.533C77.6318 140.9 76.2695 139.582 75.5928 137.974C74.9248 139.802 73.4746 141.261 71.6113 141.973L70.8906 140.865ZM73.3516 145.506C73.3428 143.669 75.3379 142.597 78.5898 142.605C81.833 142.597 83.8281 143.669 83.8281 145.506C83.8281 147.352 81.833 148.406 78.5898 148.424C75.3379 148.406 73.3428 147.352 73.3516 145.506ZM74.7227 145.506C74.7139 146.64 76.1904 147.325 78.5898 147.316C80.9805 147.325 82.457 146.64 82.457 145.506C82.457 144.363 80.9805 143.678 78.5898 143.678C76.1904 143.678 74.7139 144.363 74.7227 145.506ZM88.9434 145.822L87.5723 150.604H86.2715L87.2383 145.822H88.9434ZM103.393 135.012C103.384 137.104 106.17 138.879 108.895 139.283L108.385 140.373C105.95 139.96 103.568 138.659 102.619 136.778C101.67 138.659 99.2881 139.96 96.8887 140.373L96.3438 139.283C99.0596 138.879 101.837 137.104 101.846 135.012V134.906H96.8359V133.781H108.385V134.906H103.393V135.012ZM95.5 142.852V141.709H109.738V142.852H103.27V148.424H101.916V142.852H95.5ZM125.365 145.26V146.42H111.057V145.26H114.607V141.05C113.271 140.355 112.463 139.23 112.463 137.807C112.463 135.39 114.836 133.799 118.176 133.781C121.516 133.799 123.889 135.39 123.889 137.807C123.889 139.204 123.106 140.312 121.814 141.006V145.26H125.365ZM113.799 137.807C113.79 139.556 115.609 140.725 118.176 140.725C120.716 140.725 122.553 139.556 122.553 137.807C122.553 136.058 120.716 134.906 118.176 134.924C115.609 134.906 113.79 136.058 113.799 137.807ZM115.961 145.26H120.426V141.542C119.749 141.718 118.993 141.814 118.176 141.814C117.376 141.814 116.629 141.727 115.961 141.551V145.26ZM139.516 134.432C139.498 138.94 137.872 143.106 132.221 145.875L131.447 144.768C134.383 143.361 136.193 141.56 137.178 139.441L131.746 139.969L131.518 138.738L137.617 138.334C137.898 137.464 138.065 136.541 138.136 135.574H132.309V134.432H139.516ZM142.662 148.424V132.797H144.051V148.424H142.662ZM159.625 132.814V148.441H158.219V144.557H154.615V143.502H158.219V132.814H159.625ZM146.617 141.041C149.597 141.032 153.561 141.023 157.006 140.531L157.094 141.568C155.547 141.832 153.938 141.981 152.383 142.078V147.949H150.994V142.148C149.5 142.201 148.067 142.219 146.811 142.219L146.617 141.041ZM147.812 136.664C147.804 134.827 149.421 133.588 151.768 133.588C154.088 133.588 155.714 134.827 155.705 136.664C155.714 138.519 154.088 139.714 151.768 139.723C149.421 139.714 147.804 138.519 147.812 136.664ZM149.113 136.664C149.104 137.851 150.194 138.659 151.768 138.65C153.306 138.659 154.396 137.851 154.404 136.664C154.396 135.486 153.306 134.669 151.768 134.66C150.194 134.669 149.104 135.486 149.113 136.664ZM174.865 140.32V141.463H164.072V134.256H174.707V135.398H165.443V140.32H174.865ZM162.244 146.297V145.137H176.553V146.297H162.244ZM180.367 145.822L178.996 150.604H177.695L178.662 145.822H180.367ZM200.283 132.797V148.424H198.965V140.232H196.662V147.615H195.396V133.148H196.662V139.09H198.965V132.797H200.283ZM187.504 144.557V134.713H193.357V135.855H188.875V143.379C191.028 143.37 192.514 143.291 194.254 142.939L194.377 144.1C192.496 144.486 190.905 144.548 188.506 144.557H187.504ZM214.609 132.797V139.459H217.105V140.619H214.609V148.424H213.221V132.797H214.609ZM202.287 144.258C203.562 144.258 205.047 144.249 206.594 144.205V142.482C204.774 142.271 203.588 141.199 203.605 139.652C203.588 137.886 205.082 136.743 207.297 136.752C209.477 136.743 210.997 137.886 211.006 139.652C210.997 141.208 209.793 142.271 207.982 142.482V144.152C209.433 144.082 210.909 143.959 212.271 143.766L212.359 144.82C208.949 145.4 205.258 145.436 202.516 145.436L202.287 144.258ZM202.568 135.838V134.713H206.594V132.832H207.982V134.713H211.99V135.838H202.568ZM204.889 139.652C204.897 140.733 205.847 141.445 207.297 141.428C208.721 141.445 209.679 140.733 209.688 139.652C209.679 138.562 208.721 137.824 207.297 137.824C205.847 137.824 204.897 138.562 204.889 139.652ZM236.863 145.26V146.42H222.555V145.26H226.105V141.05C224.77 140.355 223.961 139.23 223.961 137.807C223.961 135.39 226.334 133.799 229.674 133.781C233.014 133.799 235.387 135.39 235.387 137.807C235.387 139.204 234.604 140.312 233.312 141.006V145.26H236.863ZM225.297 137.807C225.288 139.556 227.107 140.725 229.674 140.725C232.214 140.725 234.051 139.556 234.051 137.807C234.051 136.058 232.214 134.906 229.674 134.924C227.107 134.906 225.288 136.058 225.297 137.807ZM227.459 145.26H231.924V141.542C231.247 141.718 230.491 141.814 229.674 141.814C228.874 141.814 228.127 141.727 227.459 141.551V145.26ZM252.648 135.223V136.348H250.328V138.545H252.648V139.723H250.328V142.096H248.957V132.797H250.328V135.223H252.648ZM238.41 137.42C238.401 135.249 240.142 133.737 242.506 133.746C244.888 133.737 246.602 135.249 246.619 137.42C246.602 139.617 244.888 141.12 242.506 141.129C240.142 141.12 238.401 139.617 238.41 137.42ZM239.764 137.42C239.755 138.923 240.924 139.951 242.506 139.934C244.105 139.951 245.257 138.923 245.266 137.42C245.257 135.952 244.105 134.933 242.506 134.924C240.924 134.933 239.755 135.952 239.764 137.42ZM240.098 143.959V142.816H250.328V148.424H248.957V143.959H240.098ZM260.787 133.078C264.259 133.078 266.298 134.036 266.307 135.768C266.298 137.543 264.259 138.501 260.787 138.51C257.298 138.501 255.25 137.543 255.25 135.768C255.25 134.036 257.298 133.078 260.787 133.078ZM253.668 140.689V139.564H267.906V140.689H253.668ZM255.391 143.098V142.043H266.078V145.541H256.797V147.158H266.553V148.248H255.426V144.521H264.725V143.098H255.391ZM256.691 135.768C256.674 136.857 258.194 137.455 260.787 137.455C263.38 137.455 264.892 136.857 264.9 135.768C264.892 134.739 263.38 134.124 260.787 134.115C258.194 134.124 256.674 134.739 256.691 135.768ZM32.2539 169.127V170.252H27.4199V174.295H33.9414V175.455H19.6328V174.295H26.0664V170.252H21.4609V163.08H32.0957V164.205H22.8496V169.127H32.2539ZM49.4277 168.758V169.83H42.9766V171.289H47.5996V174.664H38.3184V176.193H48.0742V177.248H36.9473V173.68H46.2461V172.326H36.9121V171.289H41.623V169.83H35.207V168.758H49.4277ZM35.9629 166.982C38.8281 166.798 41.2715 165.822 41.5264 164.258H36.666V163.168H41.623V161.709H42.9766V163.168H47.9863V164.258H43.082C43.3281 165.822 45.7715 166.798 48.6543 166.982L48.2324 168.037C45.6221 167.817 43.2666 167.009 42.3086 165.523C41.3418 167.009 38.9863 167.817 36.3672 168.037L35.9629 166.982ZM58.5508 164.504V165.629H50.7109V164.504H53.9629V162.271H55.334V164.504H58.5508ZM51.2734 170.234C51.2734 168.16 52.6885 166.692 54.6309 166.684C56.5996 166.692 58.0059 168.16 58.0234 170.234C58.0059 172.335 56.5996 173.812 54.6309 173.82C52.6885 173.812 51.2734 172.335 51.2734 170.234ZM52.5039 170.234C52.5039 171.623 53.3916 172.616 54.6309 172.607C55.8789 172.616 56.793 171.623 56.793 170.234C56.793 168.863 55.8789 167.861 54.6309 167.844C53.3916 167.861 52.5039 168.863 52.5039 170.234ZM59.3594 176.65V162.184H60.6602V168.389H62.7344V161.797H64.0527V177.424H62.7344V169.531H60.6602V176.65H59.3594ZM80.6113 174.26V175.42H66.3027V174.26H69.8535V170.05C68.5176 169.355 67.709 168.23 67.709 166.807C67.709 164.39 70.082 162.799 73.4219 162.781C76.7617 162.799 79.1348 164.39 79.1348 166.807C79.1348 168.204 78.3525 169.312 77.0605 170.006V174.26H80.6113ZM69.0449 166.807C69.0361 168.556 70.8555 169.725 73.4219 169.725C75.9619 169.725 77.7988 168.556 77.7988 166.807C77.7988 165.058 75.9619 163.906 73.4219 163.924C70.8555 163.906 69.0361 165.058 69.0449 166.807ZM71.207 174.26H75.6719V170.542C74.9951 170.718 74.2393 170.814 73.4219 170.814C72.6221 170.814 71.875 170.727 71.207 170.551V174.26ZM83.5117 176.105C82.8965 176.097 82.3691 175.587 82.3867 174.963C82.3691 174.348 82.8965 173.838 83.5117 173.838C84.1357 173.838 84.6455 174.348 84.6367 174.963C84.6455 175.587 84.1357 176.097 83.5117 176.105Z" fill="black"/>
<circle cx="6.5" cy="207.5" r="2.5" fill="black"/>
<path d="M24.8535 203.328C24.8535 205.455 26.4707 207.406 28.7383 208.18L27.9824 209.27C26.2598 208.637 24.8975 207.345 24.2119 205.71C23.5439 207.564 22.1465 208.997 20.3184 209.709L19.5801 208.602C21.918 207.731 23.4912 205.64 23.5 203.223V201.605H24.8535V203.328ZM21.6543 213.541C21.6631 211.757 23.623 210.711 26.8398 210.711C30.0479 210.711 31.9902 211.757 31.9902 213.541C31.9902 215.36 30.0479 216.389 26.8398 216.389C23.623 216.389 21.6631 215.36 21.6543 213.541ZM23.043 213.541C23.0254 214.648 24.4844 215.29 26.8398 215.299C29.2041 215.29 30.6455 214.648 30.6543 213.541C30.6455 212.478 29.2041 211.818 26.8398 211.818C24.4844 211.818 23.0254 212.478 23.043 213.541ZM30.4785 210.307V200.797H31.8496V204.875H34.2051V206.035H31.8496V210.307H30.4785ZM47.4062 200.797V204.629H49.7617V205.789H47.4062V209.674H46.0352V200.797H47.4062ZM35.9277 208.742V201.869H42.8535V202.994H37.2988V207.6C40.4365 207.617 42.2207 207.494 44.3125 207.09L44.4883 208.215C42.291 208.663 40.4277 208.751 37.1406 208.742H35.9277ZM37.5449 216.213V210.482H47.4062V216.213H37.5449ZM38.8984 215.088H46.0352V211.607H38.8984V215.088ZM68.2188 200.797V208.795H66.8301V207.16H62.6641V206.07H66.8301V204.189H62.8926C61.917 206.65 59.4912 208.312 56.0195 209.146L55.5273 208.004C59.3594 207.116 61.583 205.253 61.8467 202.73H56.3184V201.588H63.3672C63.3672 202.106 63.3145 202.607 63.2178 203.082H66.8301V200.797H68.2188ZM58.0938 210.623V209.498H68.2188V213.312H59.5V215.141H68.7461V216.283H58.1289V212.258H66.8301V210.623H58.0938ZM79.4863 202.537V203.346C79.4775 204.585 79.4775 206.65 79.0293 209.551L77.6406 209.428C78.0713 206.809 78.1064 204.91 78.0977 203.662H71.541V202.537H79.4863ZM70.6621 211.836C71.6904 211.827 72.833 211.818 74.0371 211.792V207.002H75.3906V211.748C77.1221 211.687 78.8975 211.572 80.5234 211.379L80.5938 212.416C77.3066 212.926 73.6328 212.996 70.8379 212.979L70.6621 211.836ZM81.5078 216.424V200.797H82.8789V207.336H85.4102V208.531H82.8789V216.424H81.5078ZM99.0156 205.543V206.65H88.3105V201.377H89.6816V205.543H99.0156ZM86.3594 209.902V208.777H100.668V209.902H86.3594ZM88.2227 216.037V211.502H89.5938V214.895H99.1035V216.037H88.2227ZM120.76 213.33V214.49H106.451V213.33H112.885V210.377H108.244V205.561H117.596V203.1H108.209V201.957H118.949V206.686H109.615V209.234H119.318V210.377H114.238V213.33H120.76ZM134.33 202.467V204.031C134.33 206 134.33 208.224 133.75 211.625L132.344 211.484C132.977 208.285 132.977 205.947 132.977 204.031V203.609H123.555V202.467H134.33ZM122.008 214.121V212.979H136.246V214.121H122.008ZM150.467 200.814V212.24H149.096V200.814H150.467ZM137.934 205.736C137.925 203.486 139.691 201.913 142.029 201.904C144.367 201.913 146.116 203.486 146.125 205.736C146.116 208.013 144.367 209.595 142.029 209.586C139.691 209.595 137.925 208.013 137.934 205.736ZM139.287 205.736C139.27 207.292 140.447 208.373 142.029 208.373C143.585 208.373 144.771 207.292 144.771 205.736C144.771 204.207 143.585 203.117 142.029 203.117C140.447 203.117 139.27 204.207 139.287 205.736ZM140.377 216.09V211.08H141.748V214.93H150.959V216.09H140.377ZM160.24 201.078C163.712 201.078 165.751 202.036 165.76 203.768C165.751 205.543 163.712 206.501 160.24 206.51C156.751 206.501 154.703 205.543 154.703 203.768C154.703 202.036 156.751 201.078 160.24 201.078ZM153.121 208.689V207.564H167.359V208.689H153.121ZM154.844 211.098V210.043H165.531V213.541H156.25V215.158H166.006V216.248H154.879V212.521H164.178V211.098H154.844ZM156.145 203.768C156.127 204.857 157.647 205.455 160.24 205.455C162.833 205.455 164.345 204.857 164.354 203.768C164.345 202.739 162.833 202.124 160.24 202.115C157.647 202.124 156.127 202.739 156.145 203.768ZM181 203.504V204.629H173.16V203.504H176.412V201.271H177.783V203.504H181ZM173.723 209.234C173.723 207.16 175.138 205.692 177.08 205.684C179.049 205.692 180.455 207.16 180.473 209.234C180.455 211.335 179.049 212.812 177.08 212.82C175.138 212.812 173.723 211.335 173.723 209.234ZM174.953 209.234C174.953 210.623 175.841 211.616 177.08 211.607C178.328 211.616 179.242 210.623 179.242 209.234C179.242 207.863 178.328 206.861 177.08 206.844C175.841 206.861 174.953 207.863 174.953 209.234ZM181.809 215.65V201.184H183.109V207.389H185.184V200.797H186.502V216.424H185.184V208.531H183.109V215.65H181.809ZM192.936 202.01C195.238 202.019 196.873 204.137 196.891 207.459C196.873 210.79 195.238 212.899 192.936 212.891C190.615 212.899 188.989 210.79 188.998 207.459C188.989 204.137 190.615 202.019 192.936 202.01ZM190.299 207.459C190.308 209.999 191.389 211.669 192.936 211.66C194.5 211.669 195.555 209.999 195.555 207.459C195.555 204.919 194.5 203.249 192.936 203.24C191.389 203.249 190.308 204.919 190.299 207.459ZM199.475 216.424V200.797H200.846V204.734H203.377V205.912H200.846V209.393H203.377V210.553H200.846V216.424H199.475ZM212.201 202.221V209.41H204.977V202.221H212.201ZM206.33 208.303H210.865V203.346H206.33V208.303ZM206.752 216.09V211.168H208.105V214.93H217.246V216.09H206.752ZM215.154 212.258V200.797H216.525V205.561H218.881V206.721H216.525V212.258H215.154ZM23.9395 230.359C25.3193 230.351 26.4795 230.86 27.2002 231.713H31.1992V229.797H32.5703V237.83H31.1992V236.037H27.2354C26.5234 236.925 25.3457 237.452 23.9395 237.443C21.584 237.452 19.8701 236.011 19.8789 233.893C19.8701 231.792 21.584 230.351 23.9395 230.359ZM21.1973 233.893C21.1973 235.308 22.3398 236.318 23.9395 236.336C25.4863 236.318 26.6465 235.308 26.6465 233.893C26.6465 232.486 25.4863 231.484 23.9395 231.502C22.3398 231.484 21.1973 232.486 21.1973 233.893ZM22.4453 239.729V238.621H32.5703V242.365H23.8516V244.105H33.168V245.213H22.4805V241.311H31.1992V239.729H22.4453ZM27.8154 232.82C27.9209 233.154 27.9824 233.515 27.9824 233.893C27.9824 234.262 27.9297 234.604 27.8242 234.93H31.1992V232.82H27.8154ZM47.4062 229.814V233.822H49.7793V235H47.4062V239.131H46.0352V229.814H47.4062ZM35.8574 231.801V230.658H42.9414V234.93H37.2461V237.145C40.0234 237.153 42.0361 237.065 44.4707 236.67L44.6113 237.777C42.1064 238.217 40.0146 238.305 37.1055 238.305H35.8926V233.857H41.5879V231.801H35.8574ZM37.5098 245.213V239.904H47.4062V245.213H37.5098ZM38.8633 244.088H46.0703V240.977H38.8633V244.088ZM62.9629 229.744V233.541H65.3359V234.684H62.9629V238.393H61.5918V229.744H62.9629ZM50.7812 232.328V231.221H54.7539V229.639H56.125V231.221H60.0977V232.328H50.7812ZM51.6777 235.598C51.6689 234.016 53.1631 233.04 55.4395 233.031C57.707 233.04 59.1836 234.016 59.2012 235.598C59.1836 237.188 57.707 238.155 55.4395 238.164C53.1631 238.155 51.6689 237.188 51.6777 235.598ZM52.9961 240.238V239.201H62.9629V242.664H54.3848V244.193H63.543V245.248H53.0312V241.645H61.5918V240.238H52.9961ZM52.9961 235.598C52.9873 236.538 53.9541 237.127 55.4395 237.127C56.916 237.127 57.8828 236.538 57.9004 235.598C57.8828 234.666 56.916 234.06 55.4395 234.051C53.9541 234.06 52.9873 234.666 52.9961 235.598ZM78.6602 231.256C78.6689 233.462 81.5342 235.36 84.3555 235.756L83.793 236.881C81.3672 236.477 78.959 235.132 77.957 233.216C76.9551 235.149 74.5557 236.477 72.1211 236.881L71.5586 235.756C74.3799 235.36 77.2363 233.497 77.2363 231.256V230.359H78.6602V231.256ZM70.8203 239.764V238.604H85.0586V239.764H78.5898V245.424H77.2363V239.764H70.8203ZM91.668 240.291C91.6592 241.671 92.4062 243.139 93.8916 243.982C95.3857 243.06 96.1768 241.495 96.168 240.291V239.43H97.5215V240.291C97.5127 241.899 98.6992 243.499 100.703 244.193L100.018 245.213C98.4531 244.659 97.3633 243.569 96.8184 242.26C96.335 243.525 95.377 244.729 93.9355 245.336C92.415 244.756 91.4482 243.613 90.9824 242.304C90.4199 243.561 89.3477 244.65 87.8535 245.213L87.1504 244.193C89.1279 243.455 90.3145 241.785 90.332 240.291V239.43H91.668V240.291ZM86.7461 234.385C86.7373 232.205 88.4688 230.72 90.8418 230.729C93.2148 230.72 94.9287 232.205 94.9375 234.385C94.9287 236.529 93.2148 238.006 90.8418 238.006C88.4688 238.006 86.7373 236.529 86.7461 234.385ZM88.0996 234.385C88.082 235.835 89.2334 236.854 90.8418 236.863C92.4326 236.854 93.584 235.835 93.584 234.385C93.584 232.926 92.4326 231.889 90.8418 231.906C89.2334 231.889 88.082 232.926 88.0996 234.385ZM97.9082 238.744V229.814H99.2793V238.744H97.9082ZM106.135 231.01C108.262 231.019 109.8 232.847 110.011 235.773H113.518V229.797H114.889V245.459H113.518V236.916H110.028C109.879 239.983 108.314 241.899 106.135 241.891C103.823 241.899 102.206 239.79 102.215 236.459C102.206 233.137 103.823 231.019 106.135 231.01ZM103.533 236.459C103.542 238.999 104.597 240.669 106.135 240.66C107.664 240.669 108.736 238.999 108.736 236.459C108.736 233.919 107.664 232.249 106.135 232.24C104.597 232.249 103.542 233.919 103.533 236.459ZM131.799 242.26V243.42H117.49V242.26H121.041V238.05C119.705 237.355 118.896 236.23 118.896 234.807C118.896 232.39 121.27 230.799 124.609 230.781C127.949 230.799 130.322 232.39 130.322 234.807C130.322 236.204 129.54 237.312 128.248 238.006V242.26H131.799ZM120.232 234.807C120.224 236.556 122.043 237.725 124.609 237.725C127.149 237.725 128.986 236.556 128.986 234.807C128.986 233.058 127.149 231.906 124.609 231.924C122.043 231.906 120.224 233.058 120.232 234.807ZM122.395 242.26H126.859V238.542C126.183 238.718 125.427 238.814 124.609 238.814C123.81 238.814 123.062 238.727 122.395 238.551V242.26ZM134.699 244.105C134.084 244.097 133.557 243.587 133.574 242.963C133.557 242.348 134.084 241.838 134.699 241.838C135.323 241.838 135.833 242.348 135.824 242.963C135.833 243.587 135.323 244.097 134.699 244.105Z" fill="black"/>
</svg>
