<svg width="292" height="207" viewBox="0 0 292 207" fill="none" xmlns="http://www.w3.org/2000/svg">
<path d="M0 75H292" stroke="#1D4C5C" stroke-width="2"/>
<path d="M7.21875 12.7793H9.77539L11.0967 14.5195C11.9883 13.5957 12.5146 12.1562 12.5039 10.2227C12.5146 6.66699 10.7314 4.74414 8.18555 4.74414C5.65039 4.74414 3.85645 6.66699 3.86719 10.2227C3.85645 13.7783 5.65039 15.7012 8.18555 15.7012C8.59375 15.7012 8.98047 15.6475 9.3457 15.5508L7.21875 12.7793ZM1.05273 10.2227C1.04199 5.19531 4.09277 2.23047 8.18555 2.23047C12.2568 2.23047 15.3291 5.19531 15.3184 10.2227C15.3291 13.0479 14.3623 15.2178 12.7939 16.582L14.9531 19.3535H12.2246L10.9248 17.71C10.0869 18.043 9.16309 18.2148 8.18555 18.2148C4.09277 18.2148 1.04199 15.2393 1.05273 10.2227ZM18.4121 18.1719C17.4883 18.1719 16.7256 17.4199 16.7363 16.4961C16.7256 15.5938 17.4883 14.8525 18.4121 14.8418C19.3037 14.8525 20.0664 15.5938 20.0664 16.4961C20.0664 17.4199 19.3037 18.1719 18.4121 18.1719ZM36.8027 3.1543C36.8027 6.15137 39.7354 9.16992 43.8066 9.87891L42.7324 11.877C39.4775 11.2002 36.8135 9.22363 35.5459 6.61328C34.2676 9.20215 31.6035 11.1895 28.3594 11.877L27.3066 9.87891C31.3135 9.14844 34.2568 6.14062 34.2676 3.1543V1.71484H36.8027V3.1543ZM26.7695 17.4414V15.4648H44.5156V17.4414H26.7695ZM61.3594 1.2207V2.81055C61.3701 4.28223 61.3701 5.91504 60.9619 7.9668H63.4434V9.85742H55.7949V11.4258H61.4668V16.3672H50.1875V17.8066H62.1543V19.6758H47.8242V14.627H59.082V13.252H47.7812V11.4258H53.4316V9.85742H45.8262V7.9668H58.5557C58.6953 7.30078 58.7812 6.68848 58.8457 6.1084L47.7598 6.57031L47.4805 4.70117L58.9531 4.44336C58.9746 3.9707 58.9746 3.51953 58.9746 3.06836H47.9746V1.2207H61.3594ZM82.543 15.6797V17.6562H64.7969V15.6797H72.4453V12.5215H66.9023V6.16211H78.0742V3.75586H66.8594V1.82227H80.4375V8.05273H69.2871V10.5664H80.8887V12.5215H74.8086V15.6797H82.543ZM99.2578 2.38086V4.57227C99.2578 7.17188 99.2578 9.84668 98.5488 13.9395L96.1211 13.7246C96.873 9.91113 96.873 7.09668 96.873 4.57227V4.31445H85.6797V2.38086H99.2578ZM83.8105 17.248V15.293H101.514V17.248H83.8105ZM114.039 4.70117C114.039 6.73145 115.274 8.74023 117.734 9.64258L116.66 11.4258C114.877 10.7705 113.652 9.5459 112.965 8.05273C112.277 9.70703 111.053 11.0713 109.227 11.791L108.066 10.0293C110.548 9.0625 111.762 6.89258 111.783 4.70117H108.582V2.81055H111.783V0.748047H114.039V2.81055H117.197V4.70117H114.039ZM110.451 17.957C114.34 17.4414 116.789 15.3359 116.811 13.123V12.7363H119.195V13.123C119.185 15.3359 121.677 17.4414 125.555 17.957L124.717 19.8047C121.602 19.3643 119.195 17.9785 118.003 16.0557C116.8 17.9785 114.394 19.3643 111.289 19.8047L110.451 17.957ZM118.25 11.9414V0.833984H120.506V5.25977H122.375V0.511719H124.652V13.6172H122.375V7.21484H120.506V11.9414H118.25ZM131.721 1.02734V2.875H140.1V1.02734H142.463V8.28906H137.092V10.0723H144.762V11.9844H127.059V10.0723H134.729V8.28906H129.357V1.02734H131.721ZM128.305 17.9785C132.301 17.5059 134.675 15.5938 134.686 13.4883V13.0586H137.092V13.4883C137.092 15.5938 139.466 17.5059 143.494 17.9785L142.656 19.8047C139.498 19.375 137.092 18.1182 135.889 16.3027C134.686 18.1182 132.29 19.375 129.164 19.8047L128.305 17.9785ZM131.721 6.41992H140.1V4.70117H131.721V6.41992ZM158.168 3.58398C158.168 6.02246 159.747 8.33203 162.744 9.27734L161.455 11.1465C159.36 10.4375 157.856 9.01953 157.008 7.21484C156.17 9.27734 154.602 10.8994 152.367 11.6836L151.078 9.81445C154.204 8.72949 155.772 6.14062 155.783 3.36914V1.52148H158.168V3.58398ZM153.721 16.1953C153.721 13.8965 156.245 12.5322 160.295 12.543C164.312 12.5322 166.794 13.8965 166.805 16.1953C166.794 18.5479 164.312 19.8906 160.295 19.8906C156.245 19.8906 153.721 18.5479 153.721 16.1953ZM156.105 16.1953C156.105 17.3984 157.631 18 160.295 18C162.948 18 164.441 17.3984 164.441 16.1953C164.441 15.0566 162.948 14.4121 160.295 14.4121C157.631 14.4121 156.105 15.0566 156.105 16.1953ZM164.227 12.1133V0.490234H166.611V5.2168H169.318V7.19336H166.611V12.1133H164.227ZM185.625 0.490234V5.00195H188.332V6.97852H185.625V11.4258H183.24V0.490234H185.625ZM171.123 10.5664V1.73633H179.76V3.66992H173.486V8.63281C177.139 8.62207 179.169 8.49316 181.479 8.03125L181.736 9.92188C179.19 10.4805 176.935 10.5664 172.691 10.5664H171.123ZM173.078 19.6543V12.3066H185.625V19.6543H173.078ZM175.441 17.7637H183.262V14.2188H175.441V17.7637ZM207.023 10.5234V12.4355H189.32V10.5234H207.023ZM191.146 5.04492C191.146 2.58496 193.907 1.10254 198.15 1.11328C202.383 1.10254 205.144 2.58496 205.154 5.04492C205.144 7.51562 202.383 9.01953 198.15 9.01953C193.907 9.01953 191.146 7.51562 191.146 5.04492ZM191.512 19.5254V13.875H193.896V17.5918H205.025V19.5254H191.512ZM193.639 5.04492C193.617 6.36621 195.325 7.0752 198.15 7.06445C200.986 7.0752 202.684 6.36621 202.684 5.04492C202.684 3.7666 200.986 3.02539 198.15 3.02539C195.325 3.02539 193.617 3.7666 193.639 5.04492ZM18.3691 43.4902V45.4238H10.6348V51.8906H8.27148V45.4238H0.623047V43.4902H18.3691ZM2.79297 41.2129V33.4785H16.1992V41.2129H2.79297ZM5.13477 39.3438H13.8145V35.3906H5.13477V39.3438ZM35.9219 32.4902V45.6387H33.5371V39.5371H30.0244C29.541 41.7607 27.5537 43.2754 25.0508 43.2754C22.1182 43.2754 19.916 41.2773 19.916 38.5059C19.916 35.7021 22.1182 33.7686 25.0508 33.7578C27.6074 33.7686 29.627 35.2939 30.0566 37.6035H33.5371V32.4902H35.9219ZM21.9355 49.9141C25.749 49.334 28.2412 47.0996 28.252 44.9512V44.3066H30.7227V44.9512C30.7012 47.207 33.1289 49.3662 37.0605 49.9141L36.1152 51.7832C33.0107 51.3105 30.6367 49.8496 29.4658 47.8623C28.2734 49.8281 25.8887 51.3105 22.7949 51.7832L21.9355 49.9141ZM22.1934 38.5059C22.1934 40.1709 23.3857 41.2344 25.0508 41.2344C26.6406 41.2344 27.8545 40.1709 27.8652 38.5059C27.8545 36.8838 26.6406 35.7773 25.0508 35.7773C23.3857 35.7773 22.1934 36.8838 22.1934 38.5059ZM54.8496 32.5117V46.541H52.4434V32.5117H54.8496ZM39.0156 38.6348C39.0156 35.8096 41.3037 33.79 44.2578 33.7793C47.2119 33.79 49.4893 35.8096 49.4785 38.6348C49.4893 41.5029 47.2119 43.5117 44.2578 43.5117C41.3037 43.5117 39.0156 41.5029 39.0156 38.6348ZM41.3574 38.6348C41.3467 40.3535 42.5928 41.4277 44.2578 41.4277C45.8799 41.4277 47.1367 40.3535 47.1367 38.6348C47.1367 36.959 45.8799 35.8633 44.2578 35.8633C42.5928 35.8633 41.3467 36.959 41.3574 38.6348ZM42.002 51.5254V45.123H44.4082V49.5918H55.3867V51.5254H42.002ZM72.8965 32.4902V40.0742H75.7754V42.0723H72.8965V51.8691H70.5117V32.4902H72.8965ZM57.5781 46.5625C62.3047 44.1992 64.8613 40.9121 65.334 36.4863H58.6309V34.5098H67.7617C67.751 40.2139 65.3877 45.2305 58.9316 48.4102L57.5781 46.5625ZM94.4453 47.5938V49.5488H76.6992V47.5938H80.8027V42.6846C79.2559 41.793 78.3213 40.3965 78.332 38.6777C78.3213 35.584 81.3506 33.543 85.5293 33.543C89.7295 33.543 92.7803 35.584 92.7695 38.6777C92.7803 40.375 91.8672 41.7393 90.3633 42.6309V47.5938H94.4453ZM80.6738 38.6777C80.6631 40.665 82.6289 41.9326 85.5293 41.9219C88.4189 41.9326 90.4277 40.665 90.4277 38.6777C90.4277 36.6582 88.4189 35.4229 85.5293 35.4336C82.6289 35.4229 80.6631 36.6582 80.6738 38.6777ZM83.166 47.5938H87.9355V43.5439C87.1943 43.7051 86.3887 43.791 85.5293 43.791C84.6914 43.791 83.8965 43.7051 83.166 43.5547V47.5938ZM99 45.2305C99.0215 42.4912 99.7949 41.6533 101.148 40.8262C102.062 40.2354 102.771 39.5156 102.76 38.4414C102.771 37.2383 101.825 36.4648 100.654 36.4648C99.5908 36.4648 98.5596 37.1523 98.4844 38.5918H95.7988C95.874 35.7021 98.0225 34.2305 100.676 34.2305C103.576 34.2305 105.563 35.8418 105.574 38.3984C105.563 40.1494 104.693 41.2881 103.297 42.1152C102.051 42.8779 101.535 43.6191 101.514 45.2305V45.4238H99V45.2305ZM98.6562 48.4961C98.6455 47.5938 99.4082 46.8525 100.332 46.8418C101.224 46.8525 101.986 47.5938 101.986 48.4961C101.986 49.4199 101.224 50.1719 100.332 50.1719C99.4082 50.1719 98.6455 49.4199 98.6562 48.4961Z" fill="#1D4C5C"/>
<path d="M13.166 105.379V106.943C13.1484 108.859 13.1484 111.004 12.5859 114.15L11.1797 113.992C11.7686 111.004 11.7686 108.815 11.7773 106.943V106.521H2.14453V105.379H13.166ZM0.632812 117.209V116.066H6.22266V110.477H7.57617V116.066H14.8711V117.209H0.632812ZM24.3457 105.168V112.41H17.0156V105.168H24.3457ZM18.3691 111.303H22.9922V106.311H18.3691V111.303ZM19.002 118.896V113.957H20.373V117.754H29.584V118.896H19.002ZM27.7207 115.047V103.814H29.0918V115.047H27.7207ZM38.8652 104.078C42.3369 104.078 44.376 105.036 44.3848 106.768C44.376 108.543 42.3369 109.501 38.8652 109.51C35.376 109.501 33.3281 108.543 33.3281 106.768C33.3281 105.036 35.376 104.078 38.8652 104.078ZM31.7461 111.689V110.564H45.9844V111.689H31.7461ZM33.4688 114.098V113.043H44.1562V116.541H34.875V118.158H44.6309V119.248H33.5039V115.521H42.8027V114.098H33.4688ZM34.7695 106.768C34.752 107.857 36.2725 108.455 38.8652 108.455C41.458 108.455 42.9697 107.857 42.9785 106.768C42.9697 105.739 41.458 105.124 38.8652 105.115C36.2725 105.124 34.752 105.739 34.7695 106.768ZM66.0762 110.371V111.479H51.8203V110.371H66.0762ZM53.543 113.957V112.885H64.2305V116.506H54.9492V118.123H64.7051V119.248H53.5781V115.469H62.877V113.957H53.543ZM53.7188 109.088V104.342H64.2129V105.449H55.1074V107.963H64.3711V109.088H53.7188ZM71.5781 105.01C73.7051 105.019 75.2432 106.847 75.4541 109.773H78.9609V103.797H80.332V119.459H78.9609V110.916H75.4717C75.3223 113.983 73.7578 115.899 71.5781 115.891C69.2666 115.899 67.6494 113.79 67.6582 110.459C67.6494 107.137 69.2666 105.019 71.5781 105.01ZM68.9766 110.459C68.9854 112.999 70.04 114.669 71.5781 114.66C73.1074 114.669 74.1797 112.999 74.1797 110.459C74.1797 107.919 73.1074 106.249 71.5781 106.24C70.04 106.249 68.9854 107.919 68.9766 110.459ZM90.8262 106.012C90.8174 108.104 93.6035 109.879 96.3281 110.283L95.8184 111.373C93.3838 110.96 91.002 109.659 90.0527 107.778C89.1035 109.659 86.7217 110.96 84.3223 111.373L83.7773 110.283C86.4932 109.879 89.2705 108.104 89.2793 106.012V105.906H84.2695V104.781H95.8184V105.906H90.8262V106.012ZM82.9336 113.852V112.709H97.1719V113.852H90.7031V119.424H89.3496V113.852H82.9336ZM111.023 105.379V106.943C111.006 108.859 111.006 111.004 110.443 114.15L109.037 113.992C109.626 111.004 109.626 108.815 109.635 106.943V106.521H100.002V105.379H111.023ZM98.4902 117.209V116.066H104.08V110.477H105.434V116.066H112.729V117.209H98.4902ZM116.613 116.822L115.242 121.604H113.941L114.908 116.822H116.613ZM136.529 103.797V119.424H135.211V111.232H132.908V118.615H131.643V104.148H132.908V110.09H135.211V103.797H136.529ZM123.75 115.557V105.713H129.604V106.855H125.121V114.379C127.274 114.37 128.76 114.291 130.5 113.939L130.623 115.1C128.742 115.486 127.151 115.548 124.752 115.557H123.75ZM150.855 103.797V110.459H153.352V111.619H150.855V119.424H149.467V103.797H150.855ZM138.533 115.258C139.808 115.258 141.293 115.249 142.84 115.205V113.482C141.021 113.271 139.834 112.199 139.852 110.652C139.834 108.886 141.328 107.743 143.543 107.752C145.723 107.743 147.243 108.886 147.252 110.652C147.243 112.208 146.039 113.271 144.229 113.482V115.152C145.679 115.082 147.155 114.959 148.518 114.766L148.605 115.82C145.195 116.4 141.504 116.436 138.762 116.436L138.533 115.258ZM138.814 106.838V105.713H142.84V103.832H144.229V105.713H148.236V106.838H138.814ZM141.135 110.652C141.144 111.733 142.093 112.445 143.543 112.428C144.967 112.445 145.925 111.733 145.934 110.652C145.925 109.562 144.967 108.824 143.543 108.824C142.093 108.824 141.144 109.562 141.135 110.652ZM168.574 111.057V112.146H154.266V111.057H168.574ZM155.988 114.432V113.395H166.781V116.717H157.395V118.211H167.291V119.213H156.006V115.768H165.41V114.432H155.988ZM156.076 105.273V104.271H166.729V107.506H157.5V108.877H167.01V109.879H156.129V106.557H165.34V105.273H156.076ZM187.242 103.797V119.459H185.854V103.797H187.242ZM174.938 110.459C174.946 107.137 176.599 105.019 178.928 105.01C181.248 105.019 182.927 107.137 182.918 110.459C182.927 113.79 181.248 115.899 178.928 115.891C176.599 115.899 174.946 113.79 174.938 110.459ZM176.273 110.459C176.273 112.999 177.363 114.669 178.928 114.66C180.501 114.669 181.582 112.999 181.582 110.459C181.582 107.919 180.501 106.249 178.928 106.24C177.363 106.249 176.273 107.919 176.273 110.459ZM204.205 109.545V110.67H189.914V109.545H194.335C194.818 107.761 194.915 106.451 194.933 105.555H191.162V104.412H196.295V104.939C196.295 105.757 196.295 107.374 195.741 109.545H200.514C200.944 107.787 201.032 106.46 201.05 105.555H197.367V104.412H202.395V104.957C202.386 105.81 202.386 107.392 201.911 109.545H204.205ZM191.619 113.43V112.322H202.377V116.189H193.043V118.105H202.887V119.213H191.654V115.135H200.988V113.43H191.619ZM209.672 105.01C211.799 105.019 213.337 106.847 213.548 109.773H217.055V103.797H218.426V119.459H217.055V110.916H213.565C213.416 113.983 211.852 115.899 209.672 115.891C207.36 115.899 205.743 113.79 205.752 110.459C205.743 107.137 207.36 105.019 209.672 105.01ZM207.07 110.459C207.079 112.999 208.134 114.669 209.672 114.66C211.201 114.669 212.273 112.999 212.273 110.459C212.273 107.919 211.201 106.249 209.672 106.24C208.134 106.249 207.079 107.919 207.07 110.459ZM237.639 103.797V110.16H240.17V111.32H237.639V119.424H236.268V103.797H237.639ZM225.65 115.363C229.685 113.359 231.882 110.345 232.198 106.645H226.371V105.484H233.596C233.587 109.905 231.513 113.939 226.424 116.453L225.65 115.363ZM253.74 108.543V109.65H243.035V104.377H244.406V108.543H253.74ZM241.084 112.902V111.777H255.393V112.902H241.084ZM242.947 119.037V114.502H244.318V117.895H253.828V119.037H242.947ZM262.512 118H260.859L265.518 105.273H267.188L271.846 118H270.176L268.901 114.414H263.786L262.512 118ZM264.27 113.025H268.418L266.396 107.33H266.291L264.27 113.025ZM275.15 105.273V118H273.568V105.273H275.15ZM5.25586 136.066C5.25586 137.859 6.48633 139.679 8.47266 140.461L7.80469 141.516C6.28418 140.909 5.19434 139.723 4.64062 138.316C4.0957 139.872 3.00586 141.19 1.45898 141.867L0.755859 140.83C2.75098 139.978 3.9375 138.009 3.95508 136.066V136.031H1.07227V134.924H3.95508V133.061H5.25586V134.924H8.08594V136.031H5.25586V136.066ZM2.6543 147.281C5.37012 146.859 7.98047 145.172 7.99805 143.115V142.729H9.36914V143.115C9.36914 145.172 12.0059 146.859 14.7129 147.281L14.2207 148.354C11.8477 147.967 9.63281 146.754 8.68359 144.996C7.73438 146.754 5.51074 147.967 3.16406 148.354L2.6543 147.281ZM9.21094 142.025V133.096H10.5469V136.805H12.5859V132.814H13.9043V143.379H12.5859V137.965H10.5469V142.025H9.21094ZM19.459 133.219V134.977H27.1934V133.219H28.5645V138.949H23.9941V140.742H30.4277V141.85H16.1895V140.742H22.6406V138.949H18.0879V133.219H19.459ZM17.2969 147.281C20.1094 146.886 22.6055 145.356 22.6055 143.326V142.887H23.9941V143.326C23.9941 145.356 26.4814 146.886 29.3379 147.281L28.8105 148.354C26.4111 147.967 24.2402 146.877 23.3086 145.198C22.3682 146.877 20.1973 147.967 17.8242 148.354L17.2969 147.281ZM19.459 137.859H27.1934V136.066H19.459V137.859ZM44.6309 132.797V148.459H43.2422V132.797H44.6309ZM32.3262 139.459C32.335 136.137 33.9873 134.019 36.3164 134.01C38.6367 134.019 40.3154 136.137 40.3066 139.459C40.3154 142.79 38.6367 144.899 36.3164 144.891C33.9873 144.899 32.335 142.79 32.3262 139.459ZM33.6621 139.459C33.6621 141.999 34.752 143.669 36.3164 143.66C37.8896 143.669 38.9707 141.999 38.9707 139.459C38.9707 136.919 37.8896 135.249 36.3164 135.24C34.752 135.249 33.6621 136.919 33.6621 139.459ZM60.6973 132.797V148.424H59.3613V132.797H60.6973ZM47.4961 139.547C47.5049 136.225 48.8232 134.124 50.8535 134.115C52.752 134.124 54.0352 135.952 54.2109 138.896H56.2324V133.131H57.5508V147.633H56.2324V140.039H54.2197C54.0879 143.08 52.7783 144.987 50.8535 144.979C48.8232 144.987 47.5049 142.869 47.4961 139.547ZM48.7969 139.547C48.7793 142.078 49.5879 143.678 50.8535 143.66C52.1279 143.678 52.9365 142.078 52.9277 139.547C52.9365 137.007 52.1279 135.416 50.8535 135.416C49.5879 135.416 48.7793 137.007 48.7969 139.547ZM77.168 145.26V146.42H62.8594V145.26H66.4102V141.05C65.0742 140.355 64.2656 139.23 64.2656 137.807C64.2656 135.39 66.6387 133.799 69.9785 133.781C73.3184 133.799 75.6914 135.39 75.6914 137.807C75.6914 139.204 74.9092 140.312 73.6172 141.006V145.26H77.168ZM65.6016 137.807C65.5928 139.556 67.4121 140.725 69.9785 140.725C72.5186 140.725 74.3555 139.556 74.3555 137.807C74.3555 136.058 72.5186 134.906 69.9785 134.924C67.4121 134.906 65.5928 136.058 65.6016 137.807ZM67.7637 145.26H72.2285V141.542C71.5518 141.718 70.7959 141.814 69.9785 141.814C69.1787 141.814 68.4316 141.727 67.7637 141.551V145.26ZM80.0684 147.105C79.4531 147.097 78.9258 146.587 78.9434 145.963C78.9258 145.348 79.4531 144.838 80.0684 144.838C80.6924 144.838 81.2021 145.348 81.1934 145.963C81.2021 146.587 80.6924 147.097 80.0684 147.105ZM5.25586 165.066C5.25586 166.859 6.48633 168.679 8.47266 169.461L7.80469 170.516C6.28418 169.909 5.19434 168.723 4.64062 167.316C4.0957 168.872 3.00586 170.19 1.45898 170.867L0.755859 169.83C2.75098 168.978 3.9375 167.009 3.95508 165.066V165.031H1.07227V163.924H3.95508V162.061H5.25586V163.924H8.08594V165.031H5.25586V165.066ZM2.6543 176.281C5.37012 175.859 7.98047 174.172 7.99805 172.115V171.729H9.36914V172.115C9.36914 174.172 12.0059 175.859 14.7129 176.281L14.2207 177.354C11.8477 176.967 9.63281 175.754 8.68359 173.996C7.73438 175.754 5.51074 176.967 3.16406 177.354L2.6543 176.281ZM9.21094 171.025V162.096H10.5469V165.805H12.5859V161.814H13.9043V172.379H12.5859V166.965H10.5469V171.025H9.21094ZM19.459 162.219V163.977H27.1934V162.219H28.5645V167.949H23.9941V169.742H30.4277V170.85H16.1895V169.742H22.6406V167.949H18.0879V162.219H19.459ZM17.2969 176.281C20.1094 175.886 22.6055 174.356 22.6055 172.326V171.887H23.9941V172.326C23.9941 174.356 26.4814 175.886 29.3379 176.281L28.8105 177.354C26.4111 176.967 24.2402 175.877 23.3086 174.198C22.3682 175.877 20.1973 176.967 17.8242 177.354L17.2969 176.281ZM19.459 166.859H27.1934V165.066H19.459V166.859ZM45.1406 161.797V177.424H43.8047V161.797H45.1406ZM31.9395 168.547C31.9482 165.225 33.2666 163.124 35.2969 163.115C37.1953 163.124 38.4785 164.952 38.6543 167.896H40.6758V162.131H41.9941V176.633H40.6758V169.039H38.6631C38.5312 172.08 37.2217 173.987 35.2969 173.979C33.2666 173.987 31.9482 171.869 31.9395 168.547ZM33.2402 168.547C33.2227 171.078 34.0312 172.678 35.2969 172.66C36.5713 172.678 37.3799 171.078 37.3711 168.547C37.3799 166.007 36.5713 164.416 35.2969 164.416C34.0312 164.416 33.2227 166.007 33.2402 168.547ZM60.6797 161.797V177.424H59.3613V161.797H60.6797ZM47.3203 173.047C50.7129 171.034 52.418 168.213 52.6816 164.943H47.9883V163.801H54.0527C54.0527 165.339 53.8066 166.824 53.2705 168.213H56.0742V162.219H57.3926V176.633H56.0742V169.338H52.7607C51.8203 171.157 50.3086 172.766 48.1289 174.049L47.3203 173.047ZM79.9102 163.379V164.943C79.8926 166.859 79.8926 169.004 79.3301 172.15L77.9238 171.992C78.5127 169.004 78.5127 166.815 78.5215 164.943V164.521H68.8887V163.379H79.9102ZM67.377 175.209V174.066H72.9668V168.477H74.3203V174.066H81.6152V175.209H67.377ZM91.0898 163.168V170.41H83.7598V163.168H91.0898ZM85.1133 169.303H89.7363V164.311H85.1133V169.303ZM85.7461 176.896V171.957H87.1172V175.754H96.3281V176.896H85.7461ZM94.4648 173.047V161.814H95.8359V173.047H94.4648ZM105.609 162.078C109.081 162.078 111.12 163.036 111.129 164.768C111.12 166.543 109.081 167.501 105.609 167.51C102.12 167.501 100.072 166.543 100.072 164.768C100.072 163.036 102.12 162.078 105.609 162.078ZM98.4902 169.689V168.564H112.729V169.689H98.4902ZM100.213 172.098V171.043H110.9V174.541H101.619V176.158H111.375V177.248H100.248V173.521H109.547V172.098H100.213ZM101.514 164.768C101.496 165.857 103.017 166.455 105.609 166.455C108.202 166.455 109.714 165.857 109.723 164.768C109.714 163.739 108.202 163.124 105.609 163.115C103.017 163.124 101.496 163.739 101.514 164.768ZM130.781 161.797V165.189H133.137V166.35H130.781V169.76H129.41V161.797H130.781ZM119.232 168.934V162.693H126.457V168.934H119.232ZM120.586 167.826H125.121V163.818H120.586V167.826ZM120.814 171.605V170.498H130.781V174.312H122.203V176.105H131.361V177.213H120.85V173.258H129.41V171.605H120.814ZM141.926 164.504V165.629H134.086V164.504H137.338V162.271H138.709V164.504H141.926ZM134.648 170.234C134.648 168.16 136.063 166.692 138.006 166.684C139.975 166.692 141.381 168.16 141.398 170.234C141.381 172.335 139.975 173.812 138.006 173.82C136.063 173.812 134.648 172.335 134.648 170.234ZM135.879 170.234C135.879 171.623 136.767 172.616 138.006 172.607C139.254 172.616 140.168 171.623 140.168 170.234C140.168 168.863 139.254 167.861 138.006 167.844C136.767 167.861 135.879 168.863 135.879 170.234ZM142.734 176.65V162.184H144.035V168.389H146.109V161.797H147.428V177.424H146.109V169.531H144.035V176.65H142.734ZM163.986 174.277V175.42H149.678V174.277H156.111V170.902H151.365V162.904H152.754V165.734H160.875V162.904H162.229V170.902H157.465V174.277H163.986ZM152.754 169.777H160.875V166.859H152.754V169.777ZM169.875 166.244C169.875 168.731 171.088 171.412 173.162 172.643L172.371 173.715C170.859 172.801 169.778 171.131 169.233 169.224C168.662 171.307 167.502 173.1 165.938 174.049L165.059 173.012C167.221 171.746 168.539 168.978 168.539 166.297V163.273H169.875V166.244ZM171.439 168.582V167.404H174.094V162.131H175.395V176.633H174.094V168.582H171.439ZM177.293 177.424V161.797H178.629V177.424H177.293ZM195.1 174.26V175.42H180.791V174.26H184.342V170.05C183.006 169.355 182.197 168.23 182.197 166.807C182.197 164.39 184.57 162.799 187.91 162.781C191.25 162.799 193.623 164.39 193.623 166.807C193.623 168.204 192.841 169.312 191.549 170.006V174.26H195.1ZM183.533 166.807C183.524 168.556 185.344 169.725 187.91 169.725C190.45 169.725 192.287 168.556 192.287 166.807C192.287 165.058 190.45 163.906 187.91 163.924C185.344 163.906 183.524 165.058 183.533 166.807ZM185.695 174.26H190.16V170.542C189.483 170.718 188.728 170.814 187.91 170.814C187.11 170.814 186.363 170.727 185.695 170.551V174.26ZM198 176.105C197.385 176.097 196.857 175.587 196.875 174.963C196.857 174.348 197.385 173.838 198 173.838C198.624 173.838 199.134 174.348 199.125 174.963C199.134 175.587 198.624 176.097 198 176.105ZM9.4043 191.992V193.135H7.80469V198.136C8.52539 198.083 9.2373 198.021 9.91406 197.934L9.98438 198.988C6.93457 199.454 3.38379 199.507 0.84375 199.498L0.667969 198.338C1.29199 198.338 1.96875 198.338 2.68945 198.329V193.135H1.10742V191.992H9.4043ZM3.16406 203.576C3.15527 201.792 5.13281 200.772 8.40234 200.781C11.6719 200.772 13.6406 201.792 13.6406 203.576C13.6406 205.36 11.6719 206.389 8.40234 206.389C5.13281 206.389 3.15527 205.36 3.16406 203.576ZM4.02539 198.303C4.8252 198.285 5.65137 198.259 6.46875 198.215V193.135H4.02539V198.303ZM4.53516 203.576C4.52637 204.666 5.99414 205.299 8.40234 205.299C10.8018 205.299 12.2695 204.666 12.2695 203.576C12.2695 202.504 10.8018 201.854 8.40234 201.854C5.99414 201.854 4.52637 202.504 4.53516 203.576ZM9.5625 197.547V196.404H12.1992V194.752H9.5625V193.609H12.1992V190.797H13.5879V200.447H12.1992V197.547H9.5625ZM18.3516 191.693V194.189H22.7109V191.693H24.0645V194.77H27.7559V190.797H29.1445V199.867H27.7559V195.93H24.0645V198.988H16.9805V191.693H18.3516ZM18.3516 197.863H22.7109V195.297H18.3516V197.863ZM18.9316 206.213V200.641H29.1445V206.213H18.9316ZM20.3027 205.088H27.791V201.748H20.3027V205.088ZM43.9629 190.814V195.965H46.3184V197.125H43.9629V202.521H42.5918V190.814H43.9629ZM31.7812 193.855V192.73H35.7539V190.814H37.125V192.73H41.0977V193.855H31.7812ZM32.6777 197.635C32.6689 195.859 34.1807 194.717 36.4395 194.717C38.6719 194.717 40.1836 195.859 40.2012 197.635C40.1836 199.393 38.6719 200.526 36.4395 200.518C34.1807 200.526 32.6689 199.393 32.6777 197.635ZM33.9961 197.635C33.9873 198.733 34.9629 199.445 36.4395 199.428C37.8984 199.445 38.8828 198.733 38.9004 197.635C38.8828 196.519 37.8984 195.798 36.4395 195.807C34.9629 195.798 33.9873 196.519 33.9961 197.635ZM34.1895 206.09V201.59H35.543V204.93H44.6836V206.09H34.1895ZM56.25 191.377C58.5879 191.386 60.2842 192.81 60.293 194.84C60.2842 196.879 58.5879 198.285 56.25 198.285C53.8857 198.285 52.1807 196.879 52.1895 194.84C52.1807 192.81 53.8857 191.386 56.25 191.377ZM53.543 194.84C53.5254 196.211 54.6768 197.16 56.25 197.16C57.7969 197.16 58.957 196.211 58.957 194.84C58.957 193.486 57.7969 192.528 56.25 192.537C54.6768 192.528 53.5254 193.486 53.543 194.84ZM54.5625 200.693V199.586H64.7227V203.348H55.9512V205.105H65.2852V206.213H54.5977V202.311H63.3516V200.693H54.5625ZM63.3516 198.83V190.797H64.7227V198.83H63.3516ZM72.5977 193.328C72.5977 195.455 74.2148 197.406 76.4824 198.18L75.7266 199.27C74.0039 198.637 72.6416 197.345 71.9561 195.71C71.2881 197.564 69.8906 198.997 68.0625 199.709L67.3242 198.602C69.6621 197.731 71.2354 195.64 71.2441 193.223V191.605H72.5977V193.328ZM69.3984 203.541C69.4072 201.757 71.3672 200.711 74.584 200.711C77.792 200.711 79.7344 201.757 79.7344 203.541C79.7344 205.36 77.792 206.389 74.584 206.389C71.3672 206.389 69.4072 205.36 69.3984 203.541ZM70.7871 203.541C70.7695 204.648 72.2285 205.29 74.584 205.299C76.9482 205.29 78.3896 204.648 78.3984 203.541C78.3896 202.478 76.9482 201.818 74.584 201.818C72.2285 201.818 70.7695 202.478 70.7871 203.541ZM78.2227 200.307V190.797H79.5938V194.875H81.9492V196.035H79.5938V200.307H78.2227ZM100.811 190.797V206.424H99.4922V198.232H97.1895V205.615H95.9238V191.148H97.1895V197.09H99.4922V190.797H100.811ZM88.0312 202.557V192.713H93.8848V193.855H89.4023V201.379C91.5557 201.37 93.041 201.291 94.7812 200.939L94.9043 202.1C93.0234 202.486 91.4326 202.548 89.0332 202.557H88.0312ZM115.137 190.797V197.459H117.633V198.619H115.137V206.424H113.748V190.797H115.137ZM102.814 202.258C104.089 202.258 105.574 202.249 107.121 202.205V200.482C105.302 200.271 104.115 199.199 104.133 197.652C104.115 195.886 105.609 194.743 107.824 194.752C110.004 194.743 111.524 195.886 111.533 197.652C111.524 199.208 110.32 200.271 108.51 200.482V202.152C109.96 202.082 111.437 201.959 112.799 201.766L112.887 202.82C109.477 203.4 105.785 203.436 103.043 203.436L102.814 202.258ZM103.096 193.838V192.713H107.121V190.832H108.51V192.713H112.518V193.838H103.096ZM105.416 197.652C105.425 198.733 106.374 199.445 107.824 199.428C109.248 199.445 110.206 198.733 110.215 197.652C110.206 196.562 109.248 195.824 107.824 195.824C106.374 195.824 105.425 196.562 105.416 197.652ZM131.186 198.127V199.252H126.352V203.295H132.873V204.455H118.564V203.295H124.998V199.252H120.393V192.08H131.027V193.205H121.781V198.127H131.186ZM150.732 190.797V197.16H153.264V198.32H150.732V206.424H149.361V190.797H150.732ZM138.744 202.363C142.778 200.359 144.976 197.345 145.292 193.645H139.465V192.484H146.689C146.681 196.905 144.606 200.939 139.518 203.453L138.744 202.363ZM166.816 195.174V196.316H156.146V191.113H157.518V195.174H166.816ZM154.195 199.287V198.145H168.451V199.287H154.195ZM155.918 203.523C155.909 201.704 157.939 200.685 161.314 200.693C164.663 200.685 166.676 201.704 166.693 203.523C166.676 205.334 164.663 206.354 161.314 206.354C157.939 206.354 155.909 205.334 155.918 203.523ZM157.324 203.523C157.307 204.613 158.81 205.272 161.314 205.281C163.793 205.272 165.296 204.613 165.305 203.523C165.296 202.416 163.793 201.792 161.314 201.783C158.81 201.792 157.307 202.416 157.324 203.523ZM177.557 193.504V194.629H169.717V193.504H172.969V191.271H174.34V193.504H177.557ZM170.279 199.234C170.279 197.16 171.694 195.692 173.637 195.684C175.605 195.692 177.012 197.16 177.029 199.234C177.012 201.335 175.605 202.812 173.637 202.82C171.694 202.812 170.279 201.335 170.279 199.234ZM171.51 199.234C171.51 200.623 172.397 201.616 173.637 201.607C174.885 201.616 175.799 200.623 175.799 199.234C175.799 197.863 174.885 196.861 173.637 196.844C172.397 196.861 171.51 197.863 171.51 199.234ZM178.365 205.65V191.184H179.666V197.389H181.74V190.797H183.059V206.424H181.74V198.531H179.666V205.65H178.365ZM199.617 203.26V204.42H185.309V203.26H188.859V199.05C187.523 198.355 186.715 197.23 186.715 195.807C186.715 193.39 189.088 191.799 192.428 191.781C195.768 191.799 198.141 193.39 198.141 195.807C198.141 197.204 197.358 198.312 196.066 199.006V203.26H199.617ZM188.051 195.807C188.042 197.556 189.861 198.725 192.428 198.725C194.968 198.725 196.805 197.556 196.805 195.807C196.805 194.058 194.968 192.906 192.428 192.924C189.861 192.906 188.042 194.058 188.051 195.807ZM190.213 203.26H194.678V199.542C194.001 199.718 193.245 199.814 192.428 199.814C191.628 199.814 190.881 199.727 190.213 199.551V203.26ZM202.518 205.105C201.902 205.097 201.375 204.587 201.393 203.963C201.375 203.348 201.902 202.838 202.518 202.838C203.142 202.838 203.651 203.348 203.643 203.963C203.651 204.587 203.142 205.097 202.518 205.105Z" fill="black"/>
</svg>
