<svg width="292" height="219" viewBox="0 0 292 219" fill="none" xmlns="http://www.w3.org/2000/svg">
<circle cx="6.5" cy="110.5" r="2.5" fill="black"/>
<path d="M24.8535 106.328C24.8535 108.455 26.4707 110.406 28.7383 111.18L27.9824 112.27C26.2598 111.637 24.8975 110.345 24.2119 108.71C23.5439 110.564 22.1465 111.997 20.3184 112.709L19.5801 111.602C21.918 110.731 23.4912 108.64 23.5 106.223V104.605H24.8535V106.328ZM21.6543 116.541C21.6631 114.757 23.623 113.711 26.8398 113.711C30.0479 113.711 31.9902 114.757 31.9902 116.541C31.9902 118.36 30.0479 119.389 26.8398 119.389C23.623 119.389 21.6631 118.36 21.6543 116.541ZM23.043 116.541C23.0254 117.648 24.4844 118.29 26.8398 118.299C29.2041 118.29 30.6455 117.648 30.6543 116.541C30.6455 115.478 29.2041 114.818 26.8398 114.818C24.4844 114.818 23.0254 115.478 23.043 116.541ZM30.4785 113.307V103.797H31.8496V107.875H34.2051V109.035H31.8496V113.307H30.4785ZM47.4062 103.797V107.629H49.7617V108.789H47.4062V112.674H46.0352V103.797H47.4062ZM35.9277 111.742V104.869H42.8535V105.994H37.2988V110.6C40.4365 110.617 42.2207 110.494 44.3125 110.09L44.4883 111.215C42.291 111.663 40.4277 111.751 37.1406 111.742H35.9277ZM37.5449 119.213V113.482H47.4062V119.213H37.5449ZM38.8984 118.088H46.0352V114.607H38.8984V118.088ZM68.166 103.814V115.275H66.7949V103.814H68.166ZM55.4219 111.936C57.7861 111.013 59.3945 108.728 59.3945 106.258V104.693H60.8008V106.258C60.7832 108.64 62.4092 110.775 64.7383 111.619L64.0176 112.727C62.207 112.032 60.8008 110.626 60.1064 108.824C59.4297 110.74 58.0059 112.278 56.1777 113.008L55.4219 111.936ZM58.0762 119.09V114.221H59.4473V117.93H68.6582V119.09H58.0762ZM76.1465 107.154C76.1553 109.097 77.834 110.854 80.1367 111.531L79.4688 112.604C77.6582 112.059 76.2168 110.881 75.5049 109.343C74.8369 111.048 73.4043 112.393 71.541 113.008L70.873 111.953C73.167 111.18 74.7842 109.272 74.793 107.154V106.82H71.2598V105.713H74.793V103.727H76.1816V105.713H79.6797V106.82H76.1465V107.154ZM73.3516 116.541C73.3428 114.722 75.3379 113.685 78.5898 113.693C81.833 113.685 83.8281 114.722 83.8281 116.541C83.8281 118.352 81.833 119.389 78.5898 119.389C75.3379 119.389 73.3428 118.352 73.3516 116.541ZM74.7227 116.541C74.7139 117.631 76.1904 118.299 78.5898 118.299C80.9893 118.299 82.457 117.631 82.457 116.541C82.457 115.425 80.9893 114.783 78.5898 114.766C76.1904 114.783 74.7139 115.425 74.7227 116.541ZM79.1875 109.422V108.279H82.3867V103.797H83.7754V113.271H82.3867V109.422H79.1875ZM98.4707 103.797V110.248H101.09V111.391H98.4707V119.424H97.0996V103.797H98.4707ZM86.2891 107.453V106.311H90.3145V103.99H91.6855V106.311H95.5879V107.453H86.2891ZM87.1855 112.34C87.1768 110.23 88.7939 108.754 91.0176 108.754C93.2236 108.754 94.832 110.23 94.8496 112.34C94.832 114.458 93.2236 115.926 91.0176 115.926C88.7939 115.926 87.1768 114.458 87.1855 112.34ZM88.5039 112.34C88.4951 113.764 89.5586 114.766 91.0176 114.748C92.459 114.766 93.5137 113.764 93.5312 112.34C93.5137 110.925 92.459 109.905 91.0176 109.914C89.5586 109.905 88.4951 110.925 88.5039 112.34ZM114.854 103.797V119.424H113.465V103.797H114.854ZM102.127 115.363C106.354 113.359 108.517 110.362 108.824 106.627H102.848V105.502H110.23C110.213 109.993 108.121 113.975 102.883 116.488L102.127 115.363ZM134.893 103.797V119.459H133.504V103.797H134.893ZM122.588 110.459C122.597 107.137 124.249 105.019 126.578 105.01C128.898 105.019 130.577 107.137 130.568 110.459C130.577 113.79 128.898 115.899 126.578 115.891C124.249 115.899 122.597 113.79 122.588 110.459ZM123.924 110.459C123.924 112.999 125.014 114.669 126.578 114.66C128.151 114.669 129.232 112.999 129.232 110.459C129.232 107.919 128.151 106.249 126.578 106.24C125.014 106.249 123.924 107.919 123.924 110.459ZM150.52 103.814V115.275H149.131V109.281H145.914V108.139H149.131V103.814H150.52ZM137.635 112.146C139.938 111.338 141.607 109.272 141.607 107.031V106.223H138.074V105.08H146.494V106.223H142.996V107.031C142.996 109.053 144.561 111.013 146.846 111.795L146.125 112.902C144.367 112.261 143.005 110.951 142.328 109.334C141.651 111.145 140.21 112.577 138.355 113.271L137.635 112.146ZM140.482 119.09V114.238H141.871V117.93H150.959V119.09H140.482ZM158.236 104.939C160.688 104.948 162.429 106.442 162.438 108.613C162.429 110.793 160.688 112.278 158.236 112.287C155.767 112.278 154.009 110.793 154.018 108.613C154.009 106.442 155.767 104.948 158.236 104.939ZM153.209 114.836C156.092 114.845 160.073 114.818 163.527 114.309L163.633 115.328C160.056 115.996 156.215 116.014 153.402 116.014L153.209 114.836ZM155.371 108.613C155.362 110.072 156.566 111.074 158.236 111.074C159.889 111.074 161.093 110.072 161.084 108.613C161.093 107.163 159.889 106.152 158.236 106.152C156.566 106.152 155.362 107.163 155.371 108.613ZM164.564 119.459V103.797H165.936V119.459H164.564ZM186.555 103.797V119.424H185.236V111.232H182.934V118.615H181.668V104.148H182.934V110.09H185.236V103.797H186.555ZM173.775 115.557V105.713H179.629V106.855H175.146V114.379C177.3 114.37 178.785 114.291 180.525 113.939L180.648 115.1C178.768 115.486 177.177 115.548 174.777 115.557H173.775ZM200.881 103.797V110.459H203.377V111.619H200.881V119.424H199.492V103.797H200.881ZM188.559 115.258C189.833 115.258 191.318 115.249 192.865 115.205V113.482C191.046 113.271 189.859 112.199 189.877 110.652C189.859 108.886 191.354 107.743 193.568 107.752C195.748 107.743 197.269 108.886 197.277 110.652C197.269 112.208 196.064 113.271 194.254 113.482V115.152C195.704 115.082 197.181 114.959 198.543 114.766L198.631 115.82C195.221 116.4 191.529 116.436 188.787 116.436L188.559 115.258ZM188.84 106.838V105.713H192.865V103.832H194.254V105.713H198.262V106.838H188.84ZM191.16 110.652C191.169 111.733 192.118 112.445 193.568 112.428C194.992 112.445 195.95 111.733 195.959 110.652C195.95 109.562 194.992 108.824 193.568 108.824C192.118 108.824 191.169 109.562 191.16 110.652ZM222.168 103.797V119.424H220.814V111.338H218.564V118.615H217.264V104.148H218.564V110.16H220.814V103.797H222.168ZM209.617 115.381V105.713H210.988V114.15C212.535 114.142 214.205 114.027 216.104 113.641L216.279 114.871C214.1 115.267 212.307 115.381 210.584 115.381H209.617ZM238.621 111.531V112.674H224.383V111.531H227.916V109.325C226.668 108.842 225.965 108.051 225.965 106.996C225.965 105.159 228.074 104.104 231.502 104.096C234.903 104.104 237.013 105.159 237.021 106.996C237.013 108.042 236.318 108.833 235.088 109.325V111.531H238.621ZM226.105 116.629C226.097 114.845 228.109 113.86 231.502 113.869C234.851 113.86 236.863 114.845 236.881 116.629C236.863 118.413 234.851 119.389 231.502 119.389C228.109 119.389 226.097 118.413 226.105 116.629ZM227.389 106.996C227.38 108.139 228.944 108.798 231.502 108.807C234.033 108.798 235.606 108.139 235.615 106.996C235.606 105.871 234.033 105.186 231.502 105.186C228.944 105.186 227.38 105.871 227.389 106.996ZM227.512 116.629C227.494 117.692 228.997 118.325 231.502 118.316C233.98 118.325 235.483 117.692 235.492 116.629C235.483 115.565 233.98 114.941 231.502 114.924C228.997 114.941 227.494 115.565 227.512 116.629ZM229.287 111.531H233.717V109.694C233.058 109.817 232.319 109.879 231.502 109.879C230.685 109.879 229.946 109.817 229.287 109.703V111.531ZM254.178 112.041V113.166H239.939V112.041H254.178ZM241.521 107.453C241.521 105.493 243.666 104.342 247.059 104.359C250.416 104.342 252.569 105.493 252.578 107.453C252.569 109.396 250.416 110.564 247.059 110.564C243.666 110.564 241.521 109.396 241.521 107.453ZM241.785 119.09V114.537H243.174V117.93H252.596V119.09H241.785ZM242.945 107.453C242.937 108.692 244.536 109.439 247.059 109.439C249.563 109.439 251.163 108.692 251.172 107.453C251.163 106.231 249.563 105.467 247.059 105.467C244.536 105.467 242.937 106.231 242.945 107.453ZM23.834 134.01C25.9609 134.019 27.499 135.847 27.71 138.773H31.2168V132.797H32.5879V148.459H31.2168V139.916H27.7275C27.5781 142.983 26.0137 144.899 23.834 144.891C21.5225 144.899 19.9053 142.79 19.9141 139.459C19.9053 136.137 21.5225 134.019 23.834 134.01ZM21.2324 139.459C21.2412 141.999 22.2959 143.669 23.834 143.66C25.3633 143.669 26.4355 141.999 26.4355 139.459C26.4355 136.919 25.3633 135.249 23.834 135.24C22.2959 135.249 21.2412 136.919 21.2324 139.459ZM48.0742 132.797V148.459H46.6855V132.797H48.0742ZM36.209 144.574V134.291H43.6445V135.451H37.5977V143.379C40.6387 143.379 42.6338 143.291 44.9805 142.869L45.1211 144.029C42.6953 144.46 40.6387 144.565 37.4746 144.574H36.209ZM64.1406 132.797V148.424H62.8047V132.797H64.1406ZM50.9395 139.547C50.9482 136.225 52.2666 134.124 54.2969 134.115C56.1953 134.124 57.4785 135.952 57.6543 138.896H59.6758V133.131H60.9941V147.633H59.6758V140.039H57.6631C57.5312 143.08 56.2217 144.987 54.2969 144.979C52.2666 144.987 50.9482 142.869 50.9395 139.547ZM52.2402 139.547C52.2227 142.078 53.0312 143.678 54.2969 143.66C55.5713 143.678 56.3799 142.078 56.3711 139.547C56.3799 137.007 55.5713 135.416 54.2969 135.416C53.0312 135.416 52.2227 137.007 52.2402 139.547ZM78.9238 140.127V141.252H74.0898V145.295H80.6113V146.455H66.3027V145.295H72.7363V141.252H68.1309V134.08H78.7656V135.205H69.5195V140.127H78.9238ZM93.4434 142.676C96.792 142.676 98.9189 143.73 98.9277 145.541C98.9189 147.334 96.792 148.389 93.4434 148.389C90.0947 148.389 87.9678 147.334 87.9766 145.541C87.9678 143.73 90.0947 142.676 93.4434 142.676ZM86.3945 141.217V140.092H92.2832V137.068H93.6367V140.092H100.615V141.217H86.3945ZM88.082 134.73V133.605H98.8047V134.924C98.7959 136.189 98.7959 137.455 98.3652 139.072L97.0117 138.914C97.4336 137.306 97.4336 136.146 97.4336 134.924V134.73H88.082ZM89.3477 145.541C89.3389 146.631 90.9561 147.299 93.4434 147.299C95.9395 147.299 97.5391 146.631 97.5566 145.541C97.5391 144.425 95.9395 143.739 93.4434 143.73C90.9561 143.739 89.3389 144.425 89.3477 145.541ZM116.225 141.709V142.852H112.445V148.424H111.057V142.852H107.049V148.424H105.625V142.852H101.916V141.709H116.225ZM103.533 136.84C103.542 134.757 105.748 133.438 109.035 133.43C112.313 133.438 114.537 134.757 114.537 136.84C114.537 138.923 112.313 140.224 109.035 140.215C105.748 140.224 103.542 138.923 103.533 136.84ZM104.957 136.84C104.939 138.22 106.601 139.107 109.035 139.107C111.47 139.107 113.122 138.22 113.131 136.84C113.122 135.451 111.47 134.555 109.035 134.555C106.601 134.555 104.939 135.451 104.957 136.84ZM126.807 139.547V140.689H123.379V143.766C124.908 143.704 126.446 143.599 127.896 143.432L128.002 144.469C124.539 144.97 120.76 145.04 117.771 145.031L117.578 143.871C118.94 143.871 120.452 143.862 122.008 143.818V140.689H118.773V134.291H126.736V135.416H120.127V139.547H126.807ZM128.934 148.459V132.797H130.305V148.459H128.934ZM138.637 137.596C138.646 140.25 140.57 142.948 142.873 143.941L142.1 145.031C140.271 144.205 138.698 142.403 137.969 140.241C137.239 142.535 135.657 144.521 133.873 145.418L133.047 144.328C135.288 143.256 137.239 140.303 137.248 137.596V135.557H133.557V134.414H142.363V135.557H138.637V137.596ZM144.543 148.424V132.797H145.932V148.424H144.543ZM157.48 133.693C159.818 133.702 161.541 135.188 161.541 137.297C161.541 139.433 159.818 140.909 157.48 140.918C155.151 140.909 153.411 139.433 153.42 137.297C153.411 135.188 155.151 133.702 157.48 133.693ZM154.773 137.297C154.765 138.729 155.942 139.775 157.48 139.775C159.027 139.775 160.196 138.729 160.188 137.297C160.196 135.891 159.027 134.854 157.48 134.854C155.942 134.854 154.765 135.891 154.773 137.297ZM154.791 148.002V142.307H156.127V146.868C157.032 146.833 158.236 146.701 159.344 146.332L159.555 147.439C158.034 147.94 156.549 148.011 155.529 148.002H154.791ZM159.01 143.449V142.377H162.297V140.988H163.65V142.377H166.902V143.449H159.01ZM160.047 146.191C160.038 144.838 161.225 143.977 162.947 143.977C164.661 143.977 165.865 144.838 165.883 146.191C165.865 147.545 164.661 148.389 162.947 148.389C161.225 148.389 160.038 147.545 160.047 146.191ZM161.277 146.191C161.277 146.93 161.972 147.396 162.947 147.404C163.923 147.396 164.617 146.93 164.617 146.191C164.617 145.471 163.923 144.987 162.947 144.979C161.972 144.987 161.277 145.471 161.277 146.191ZM163.967 140.619V132.797H165.338V136.33H167.693V137.473H165.338V140.619H163.967ZM172.861 134.01C175.164 134.019 176.799 136.137 176.816 139.459C176.799 142.79 175.164 144.899 172.861 144.891C170.541 144.899 168.915 142.79 168.924 139.459C168.915 136.137 170.541 134.019 172.861 134.01ZM170.225 139.459C170.233 141.999 171.314 143.669 172.861 143.66C174.426 143.669 175.48 141.999 175.48 139.459C175.48 136.919 174.426 135.249 172.861 135.24C171.314 135.249 170.233 136.919 170.225 139.459ZM179.4 148.424V132.797H180.771V139.037H183.391V140.232H180.771V148.424H179.4ZM198.543 145.26V146.42H184.234V145.26H187.785V141.05C186.449 140.355 185.641 139.23 185.641 137.807C185.641 135.39 188.014 133.799 191.354 133.781C194.693 133.799 197.066 135.39 197.066 137.807C197.066 139.204 196.284 140.312 194.992 141.006V145.26H198.543ZM186.977 137.807C186.968 139.556 188.787 140.725 191.354 140.725C193.894 140.725 195.73 139.556 195.73 137.807C195.73 136.058 193.894 134.906 191.354 134.924C188.787 134.906 186.968 136.058 186.977 137.807ZM189.139 145.26H193.604V141.542C192.927 141.718 192.171 141.814 191.354 141.814C190.554 141.814 189.807 141.727 189.139 141.551V145.26ZM201.443 147.105C200.828 147.097 200.301 146.587 200.318 145.963C200.301 145.348 200.828 144.838 201.443 144.838C202.067 144.838 202.577 145.348 202.568 145.963C202.577 146.587 202.067 147.097 201.443 147.105Z" fill="black"/>
<circle cx="6.5" cy="178.5" r="2.5" fill="black"/>
<path d="M24.8711 175.998C24.8711 178.749 26.6904 181.588 28.9141 182.678L28.0703 183.785C26.3477 182.889 24.9062 181.034 24.2119 178.863C23.5176 181.166 22.041 183.144 20.2832 184.084L19.4043 182.977C21.6895 181.852 23.5 178.854 23.5176 175.998V173.15H24.8711V175.998ZM30.3555 187.424V171.797H31.7266V178.143H34.3457V179.338H31.7266V187.424H30.3555ZM40.6211 174.68C40.6211 176.71 42.1855 178.652 44.4707 179.443L43.75 180.533C41.9922 179.9 40.6299 178.591 39.9619 176.982C39.2852 178.775 37.835 180.217 35.9805 180.902L35.2598 179.812C37.5625 178.986 39.2324 176.903 39.2324 174.697V174.012H35.6992V172.887H44.1191V174.012H40.6211V174.68ZM37.6328 183.135V181.992H48.1445V187.424H46.7559V183.135H37.6328ZM43.627 177.053V175.893H46.7559V171.797H48.1445V181.166H46.7559V177.053H43.627ZM63.6484 171.814V183.24H62.2773V171.814H63.6484ZM51.1152 176.736C51.1064 174.486 52.873 172.913 55.2109 172.904C57.5488 172.913 59.2979 174.486 59.3066 176.736C59.2979 179.013 57.5488 180.595 55.2109 180.586C52.873 180.595 51.1064 179.013 51.1152 176.736ZM52.4688 176.736C52.4512 178.292 53.6289 179.373 55.2109 179.373C56.7666 179.373 57.9531 178.292 57.9531 176.736C57.9531 175.207 56.7666 174.117 55.2109 174.117C53.6289 174.117 52.4512 175.207 52.4688 176.736ZM53.5586 187.09V182.08H54.9297V185.93H64.1406V187.09H53.5586ZM84.1797 171.797V187.424H82.8613V179.232H80.5586V186.615H79.293V172.148H80.5586V178.09H82.8613V171.797H84.1797ZM71.4004 183.557V173.713H77.2539V174.855H72.7715V182.379C74.9248 182.37 76.4102 182.291 78.1504 181.939L78.2734 183.1C76.3926 183.486 74.8018 183.548 72.4023 183.557H71.4004ZM98.5059 171.797V178.459H101.002V179.619H98.5059V187.424H97.1172V171.797H98.5059ZM86.1836 183.258C87.458 183.258 88.9434 183.249 90.4902 183.205V181.482C88.6709 181.271 87.4844 180.199 87.502 178.652C87.4844 176.886 88.9785 175.743 91.1934 175.752C93.373 175.743 94.8936 176.886 94.9023 178.652C94.8936 180.208 93.6895 181.271 91.8789 181.482V183.152C93.3291 183.082 94.8057 182.959 96.168 182.766L96.2559 183.82C92.8457 184.4 89.1543 184.436 86.4121 184.436L86.1836 183.258ZM86.4648 174.838V173.713H90.4902V171.832H91.8789V173.713H95.8867V174.838H86.4648ZM88.7852 178.652C88.7939 179.733 89.7432 180.445 91.1934 180.428C92.6172 180.445 93.5752 179.733 93.584 178.652C93.5752 177.562 92.6172 176.824 91.1934 176.824C89.7432 176.824 88.7939 177.562 88.7852 178.652ZM114.027 171.797V178.16H116.559V179.32H114.027V187.424H112.656V171.797H114.027ZM102.039 183.363C106.073 181.359 108.271 178.345 108.587 174.645H102.76V173.484H109.984C109.976 177.905 107.901 181.939 102.812 184.453L102.039 183.363ZM136.299 180.709V181.852H132.52V187.424H131.131V181.852H127.123V187.424H125.699V181.852H121.99V180.709H136.299ZM123.607 175.84C123.616 173.757 125.822 172.438 129.109 172.43C132.388 172.438 134.611 173.757 134.611 175.84C134.611 177.923 132.388 179.224 129.109 179.215C125.822 179.224 123.616 177.923 123.607 175.84ZM125.031 175.84C125.014 177.22 126.675 178.107 129.109 178.107C131.544 178.107 133.196 177.22 133.205 175.84C133.196 174.451 131.544 173.555 129.109 173.555C126.675 173.555 125.014 174.451 125.031 175.84ZM151.803 178.758V179.83H145.352V181.289H149.975V184.664H140.693V186.193H150.449V187.248H139.322V183.68H148.621V182.326H139.287V181.289H143.998V179.83H137.582V178.758H151.803ZM138.338 176.982C141.203 176.798 143.646 175.822 143.901 174.258H139.041V173.168H143.998V171.709H145.352V173.168H150.361V174.258H145.457C145.703 175.822 148.146 176.798 151.029 176.982L150.607 178.037C147.997 177.817 145.642 177.009 144.684 175.523C143.717 177.009 141.361 177.817 138.742 178.037L138.338 176.982ZM162.209 175.928V177.018H159.062V178.608C160.539 178.538 162.024 178.433 163.404 178.266L163.475 179.232C160.135 179.751 156.364 179.848 153.402 179.848L153.209 178.74C154.58 178.74 156.109 178.723 157.674 178.661V177.018H154.65V172.482H162.033V173.555H156.074V175.928H162.209ZM155.652 182.045V180.938H166.023V184.559H157.059V186.123H166.586V187.248H155.688V183.504H164.67V182.045H155.652ZM164.652 180.234V171.814H166.023V180.234H164.652ZM181.281 172.816C181.272 176.736 178.469 179.549 173.969 180.832L173.389 179.742C177.142 178.688 179.515 176.613 179.813 173.959H174.197V172.816H181.281ZM175.639 182.801V181.676H186.15V187.406H184.762V182.801H175.639ZM181.352 177.07V175.91H184.762V171.814H186.15V180.99H184.762V177.07H181.352ZM201.707 171.797V181.113H200.318V177.018H197.172V175.875H200.318V171.797H201.707ZM188.822 179.865C191.143 179.03 192.795 176.912 192.795 174.68V174.1H189.262V172.939H197.682V174.1H194.184V174.662C194.184 176.701 195.748 178.644 198.033 179.426L197.312 180.533C195.563 179.9 194.201 178.582 193.524 176.974C192.856 178.802 191.406 180.261 189.543 180.973L188.822 179.865ZM191.283 184.506C191.274 182.669 193.27 181.597 196.521 181.605C199.765 181.597 201.76 182.669 201.76 184.506C201.76 186.352 199.765 187.406 196.521 187.424C193.27 187.406 191.274 186.352 191.283 184.506ZM192.654 184.506C192.646 185.64 194.122 186.325 196.521 186.316C198.912 186.325 200.389 185.64 200.389 184.506C200.389 183.363 198.912 182.678 196.521 182.678C194.122 182.678 192.646 183.363 192.654 184.506ZM211.938 180.973V182.924H214.785V180.973H216.068V187.213H210.637V180.973H211.938ZM209.072 176.086C209.063 173.95 210.751 172.5 213.133 172.5C215.233 172.5 216.824 173.687 217.123 175.488H220.393V171.797H221.781V180.076H220.393V176.631H217.132C216.859 178.477 215.251 179.689 213.133 179.689C210.751 179.689 209.063 178.23 209.072 176.086ZM210.391 176.086C210.391 177.519 211.524 178.538 213.133 178.547C214.706 178.538 215.84 177.519 215.84 176.086C215.84 174.662 214.706 173.66 213.133 173.66C211.524 173.66 210.391 174.662 210.391 176.086ZM211.938 186.123H214.785V183.979H211.938V186.123ZM216.279 186.281C218.16 185.499 219.153 183.785 219.162 182.203V180.867H220.533V182.203C220.516 183.847 221.509 185.578 223.416 186.281L222.695 187.336C221.254 186.765 220.313 185.657 219.83 184.365C219.338 185.64 218.38 186.747 217 187.336L216.279 186.281ZM237.268 171.797V187.459H235.879V171.797H237.268ZM224.963 178.459C224.972 175.137 226.624 173.019 228.953 173.01C231.273 173.019 232.952 175.137 232.943 178.459C232.952 181.79 231.273 183.899 228.953 183.891C226.624 183.899 224.972 181.79 224.963 178.459ZM226.299 178.459C226.299 180.999 227.389 182.669 228.953 182.66C230.526 182.669 231.607 180.999 231.607 178.459C231.607 175.919 230.526 174.249 228.953 174.24C227.389 174.249 226.299 175.919 226.299 178.459ZM24.2559 204.066C24.2559 205.859 25.4863 207.679 27.4727 208.461L26.8047 209.516C25.2842 208.909 24.1943 207.723 23.6406 206.316C23.0957 207.872 22.0059 209.19 20.459 209.867L19.7559 208.83C21.751 207.978 22.9375 206.009 22.9551 204.066V204.031H20.0723V202.924H22.9551V201.061H24.2559V202.924H27.0859V204.031H24.2559V204.066ZM21.6543 215.281C24.3701 214.859 26.9805 213.172 26.998 211.115V210.729H28.3691V211.115C28.3691 213.172 31.0059 214.859 33.7129 215.281L33.2207 216.354C30.8477 215.967 28.6328 214.754 27.6836 212.996C26.7344 214.754 24.5107 215.967 22.1641 216.354L21.6543 215.281ZM28.2109 210.025V201.096H29.5469V204.805H31.5859V200.814H32.9043V211.379H31.5859V205.965H29.5469V210.025H28.2109ZM38.459 201.219V202.977H46.1934V201.219H47.5645V206.949H42.9941V208.742H49.4277V209.85H35.1895V208.742H41.6406V206.949H37.0879V201.219H38.459ZM36.2969 215.281C39.1094 214.886 41.6055 213.356 41.6055 211.326V210.887H42.9941V211.326C42.9941 213.356 45.4814 214.886 48.3379 215.281L47.8105 216.354C45.4111 215.967 43.2402 214.877 42.3086 213.198C41.3682 214.877 39.1973 215.967 36.8242 216.354L36.2969 215.281ZM38.459 205.859H46.1934V204.066H38.459V205.859ZM59.4121 202.537V203.346C59.4033 204.585 59.4033 206.65 58.9551 209.551L57.5664 209.428C57.9971 206.809 58.0322 204.91 58.0234 203.662H51.4668V202.537H59.4121ZM50.5879 211.836C51.6162 211.827 52.7588 211.818 53.9629 211.792V207.002H55.3164V211.748C57.0479 211.687 58.8232 211.572 60.4492 211.379L60.5195 212.416C57.2324 212.926 53.5586 212.996 50.7637 212.979L50.5879 211.836ZM61.4336 216.424V200.797H62.8047V207.336H65.3359V208.531H62.8047V216.424H61.4336ZM84.1797 200.797V216.424H82.8613V208.232H80.5586V215.615H79.293V201.148H80.5586V207.09H82.8613V200.797H84.1797ZM71.4004 212.557V202.713H77.2539V203.855H72.7715V211.379C74.9248 211.37 76.4102 211.291 78.1504 210.939L78.2734 212.1C76.3926 212.486 74.8018 212.548 72.4023 212.557H71.4004ZM98.5059 200.797V207.459H101.002V208.619H98.5059V216.424H97.1172V200.797H98.5059ZM86.1836 212.258C87.458 212.258 88.9434 212.249 90.4902 212.205V210.482C88.6709 210.271 87.4844 209.199 87.502 207.652C87.4844 205.886 88.9785 204.743 91.1934 204.752C93.373 204.743 94.8936 205.886 94.9023 207.652C94.8936 209.208 93.6895 210.271 91.8789 210.482V212.152C93.3291 212.082 94.8057 211.959 96.168 211.766L96.2559 212.82C92.8457 213.4 89.1543 213.436 86.4121 213.436L86.1836 212.258ZM86.4648 203.838V202.713H90.4902V200.832H91.8789V202.713H95.8867V203.838H86.4648ZM88.7852 207.652C88.7939 208.733 89.7432 209.445 91.1934 209.428C92.6172 209.445 93.5752 208.733 93.584 207.652C93.5752 206.562 92.6172 205.824 91.1934 205.824C89.7432 205.824 88.7939 206.562 88.7852 207.652ZM109.738 203.504V204.629H101.898V203.504H105.15V201.271H106.521V203.504H109.738ZM102.461 209.234C102.461 207.16 103.876 205.692 105.818 205.684C107.787 205.692 109.193 207.16 109.211 209.234C109.193 211.335 107.787 212.812 105.818 212.82C103.876 212.812 102.461 211.335 102.461 209.234ZM103.691 209.234C103.691 210.623 104.579 211.616 105.818 211.607C107.066 211.616 107.98 210.623 107.98 209.234C107.98 207.863 107.066 206.861 105.818 206.844C104.579 206.861 103.691 207.863 103.691 209.234ZM110.547 215.65V201.184H111.848V207.389H113.922V200.797H115.24V216.424H113.922V208.531H111.848V215.65H110.547ZM131.799 213.26V214.42H117.49V213.26H121.041V209.05C119.705 208.355 118.896 207.23 118.896 205.807C118.896 203.39 121.27 201.799 124.609 201.781C127.949 201.799 130.322 203.39 130.322 205.807C130.322 207.204 129.54 208.312 128.248 209.006V213.26H131.799ZM120.232 205.807C120.224 207.556 122.043 208.725 124.609 208.725C127.149 208.725 128.986 207.556 128.986 205.807C128.986 204.058 127.149 202.906 124.609 202.924C122.043 202.906 120.224 204.058 120.232 205.807ZM122.395 213.26H126.859V209.542C126.183 209.718 125.427 209.814 124.609 209.814C123.81 209.814 123.062 209.727 122.395 209.551V213.26ZM134.699 215.105C134.084 215.097 133.557 214.587 133.574 213.963C133.557 213.348 134.084 212.838 134.699 212.838C135.323 212.838 135.833 213.348 135.824 213.963C135.833 214.587 135.323 215.097 134.699 215.105Z" fill="black"/>
<path d="M0 75H292" stroke="#1D4C5C" stroke-width="2"/>
<path d="M7.21875 12.7793H9.77539L11.0967 14.5195C11.9883 13.5957 12.5146 12.1562 12.5039 10.2227C12.5146 6.66699 10.7314 4.74414 8.18555 4.74414C5.65039 4.74414 3.85645 6.66699 3.86719 10.2227C3.85645 13.7783 5.65039 15.7012 8.18555 15.7012C8.59375 15.7012 8.98047 15.6475 9.3457 15.5508L7.21875 12.7793ZM1.05273 10.2227C1.04199 5.19531 4.09277 2.23047 8.18555 2.23047C12.2568 2.23047 15.3291 5.19531 15.3184 10.2227C15.3291 13.0479 14.3623 15.2178 12.7939 16.582L14.9531 19.3535H12.2246L10.9248 17.71C10.0869 18.043 9.16309 18.2148 8.18555 18.2148C4.09277 18.2148 1.04199 15.2393 1.05273 10.2227ZM18.4121 18.1719C17.4883 18.1719 16.7256 17.4199 16.7363 16.4961C16.7256 15.5938 17.4883 14.8525 18.4121 14.8418C19.3037 14.8525 20.0664 15.5938 20.0664 16.4961C20.0664 17.4199 19.3037 18.1719 18.4121 18.1719ZM32.7637 4.70117C32.7637 6.73145 33.999 8.74023 36.459 9.64258L35.3848 11.4258C33.6016 10.7705 32.377 9.5459 31.6895 8.05273C31.002 9.70703 29.7773 11.0713 27.9512 11.791L26.791 10.0293C29.2725 9.0625 30.4863 6.89258 30.5078 4.70117H27.3066V2.81055H30.5078V0.748047H32.7637V2.81055H35.9219V4.70117H32.7637ZM29.1758 17.957C33.0645 17.4414 35.5137 15.3359 35.5352 13.123V12.7363H37.9199V13.123C37.9092 15.3359 40.4014 17.4414 44.2793 17.957L43.4414 19.8047C40.3262 19.3643 37.9199 17.9785 36.7275 16.0557C35.5244 17.9785 33.1182 19.3643 30.0137 19.8047L29.1758 17.957ZM36.9746 11.9414V0.833984H39.2305V5.25977H41.0996V0.511719H43.377V13.6172H41.0996V7.21484H39.2305V11.9414H36.9746ZM50.4453 1.02734V2.875H58.8242V1.02734H61.1875V8.28906H55.8164V10.0723H63.4863V11.9844H45.7832V10.0723H53.4531V8.28906H48.082V1.02734H50.4453ZM47.0293 17.9785C51.0254 17.5059 53.3994 15.5938 53.4102 13.4883V13.0586H55.8164V13.4883C55.8164 15.5938 58.1904 17.5059 62.2188 17.9785L61.3809 19.8047C58.2227 19.375 55.8164 18.1182 54.6133 16.3027C53.4102 18.1182 51.0146 19.375 47.8887 19.8047L47.0293 17.9785ZM50.4453 6.41992H58.8242V4.70117H50.4453V6.41992ZM75.6465 2.50977V3.88477C75.6465 5.61426 75.6465 8.06348 75.1094 11.4043L72.7461 11.2109C73.2188 8.26758 73.2725 6.08691 73.2832 4.42188H65.6562V2.50977H75.6465ZM64.625 13.918C65.7744 13.9072 67.0527 13.8965 68.3848 13.8643V8.05273H70.748V13.7891C72.7246 13.7031 74.7549 13.5635 76.6133 13.3379L76.7422 15.1211C72.7354 15.7764 68.2881 15.8516 64.8613 15.8301L64.625 13.918ZM77.623 19.9121V0.490234H80.0293V8.39648H82.8438V10.416H80.0293V19.9121H77.623ZM90.1055 1.84375C93.1885 1.83301 95.4336 3.77734 95.4551 6.52734C95.4336 9.28809 93.1885 11.2217 90.1055 11.2324C87.0547 11.2217 84.7666 9.28809 84.7773 6.52734C84.7666 3.77734 87.0547 1.83301 90.1055 1.84375ZM83.8965 13.918C87.3984 13.918 92.2432 13.875 96.4434 13.2734L96.6367 15.0137C92.2861 15.8408 87.624 15.873 84.1973 15.873L83.8965 13.918ZM87.1406 6.52734C87.1299 8.14941 88.4082 9.14844 90.1055 9.14844C91.8242 9.14844 93.1025 8.14941 93.1133 6.52734C93.1025 4.91602 91.835 3.90625 90.1055 3.90625C88.4082 3.90625 87.1299 4.91602 87.1406 6.52734ZM97.6035 19.9336V0.490234H99.9883V19.9336H97.6035ZM124.76 0.490234V19.9121H122.482V10.0078H120.291V18.9238H118.1V0.855469H120.291V8.0957H122.482V0.490234H124.76ZM108.646 15.3789V2.78906H115.908V4.72266H111.053V13.3594C113.158 13.3379 114.898 13.2305 116.875 12.8652L117.047 14.8203C114.694 15.293 112.664 15.3574 109.957 15.3789H108.646ZM142.42 0.490234V8.50391H145.148V10.502H142.42V19.9121H140.014V0.490234H142.42ZM126.822 14.5195C128.294 14.5195 130.002 14.5195 131.785 14.4766V12.6611C129.669 12.2959 128.294 10.9746 128.305 9.14844C128.294 6.95703 130.217 5.50684 133.01 5.49609C135.771 5.50684 137.715 6.95703 137.736 9.14844C137.715 10.9854 136.308 12.3066 134.191 12.6611V14.3906C135.824 14.3047 137.457 14.1758 138.982 13.9609L139.133 15.7012C134.965 16.4639 130.475 16.4961 127.166 16.4961L126.822 14.5195ZM127.188 4.61523V2.72461H131.785V0.576172H134.191V2.72461H138.768V4.61523H127.188ZM130.561 9.14844C130.55 10.2656 131.538 10.9209 133.01 10.9102C134.46 10.9209 135.438 10.2656 135.438 9.14844C135.438 8.02051 134.46 7.33301 133.01 7.32227C131.538 7.33301 130.55 8.02051 130.561 9.14844ZM167.965 0.490234V19.9121H165.666V10.0938H163.518V18.9238H161.283V0.855469H163.518V8.13867H165.666V0.490234H167.965ZM152.131 15.0781V2.72461H154.537V12.9727C156.213 12.9404 158.039 12.79 160.08 12.3926L160.316 14.4766C157.695 14.9385 155.472 15.0781 153.42 15.0781H152.131ZM188.01 9.83594V11.748H170.307V9.83594H174.432V7.37598C172.96 6.75293 172.133 5.77539 172.133 4.50781C172.133 2.17676 174.851 0.8125 179.137 0.8125C183.412 0.8125 186.13 2.17676 186.141 4.50781C186.13 5.78613 185.292 6.76367 183.82 7.37598V9.83594H188.01ZM172.369 16.3887C172.369 14.1543 174.894 12.9082 179.137 12.9297C183.315 12.9082 185.851 14.1543 185.861 16.3887C185.851 18.6445 183.315 19.8691 179.137 19.8691C174.894 19.8691 172.369 18.6445 172.369 16.3887ZM174.625 4.50781C174.604 5.68945 176.269 6.32324 179.137 6.3125C181.994 6.32324 183.67 5.68945 183.67 4.50781C183.67 3.31543 181.994 2.64941 179.137 2.66016C176.269 2.64941 174.604 3.31543 174.625 4.50781ZM174.797 16.3887C174.786 17.4844 176.312 18.0752 179.137 18.0645C181.919 18.0752 183.455 17.4844 183.477 16.3887C183.455 15.3037 181.919 14.7451 179.137 14.7344C176.312 14.7451 174.786 15.3037 174.797 16.3887ZM176.838 9.83594H181.436V7.98828C180.737 8.08496 179.964 8.13867 179.137 8.13867C178.31 8.13867 177.536 8.08496 176.838 7.98828V9.83594ZM198.15 0.791016C202.576 0.801758 205.144 1.97266 205.154 4.12109C205.144 6.29102 202.576 7.46191 198.15 7.47266C193.735 7.46191 191.146 6.29102 191.146 4.12109C191.146 1.97266 193.735 0.801758 198.15 0.791016ZM189.32 10.416V8.50391H207.023V10.416H189.32ZM191.404 13.4883V11.7266H204.811V16.4746H193.768V17.9141H205.348V19.7402H191.426V14.7773H202.469V13.4883H191.404ZM193.66 4.12109C193.649 5.19531 195.196 5.68945 198.15 5.68945C201.147 5.68945 202.684 5.19531 202.684 4.12109C202.684 3.12207 201.147 2.55273 198.15 2.55273C195.196 2.55273 193.649 3.12207 193.66 4.12109ZM15.8555 32.4902V39.8594H18.8418V41.8145H15.8555V51.9336H13.4707V32.4902H15.8555ZM1.43945 47.1855V34.3379H10.5273V36.2715H3.82422V45.1875C6.84277 45.1768 9.23828 45.0264 11.9023 44.5645L12.1816 46.584C9.16309 47.0996 6.55273 47.1855 3.05078 47.1855H1.43945ZM37.3828 43.082V44.9941H19.6367V43.082H37.3828ZM21.8281 34.875V33.0059H35.1914V38.1836H24.2559V39.8379H35.5781V41.6426H21.8926V36.4648H32.8066V34.875H21.8281ZM21.9141 51.5254V46.2188H24.3203V49.5918H35.6211V51.5254H21.9141ZM50.832 37.1523C50.8105 40.6221 52.5508 44.124 55.5586 45.5742L54.0977 47.4863C51.9922 46.4229 50.4775 44.3711 49.6504 41.9004C48.8018 44.543 47.2119 46.7344 44.9883 47.8516L43.5273 45.9395C46.6533 44.457 48.4365 40.7402 48.4473 37.1523V34.0586H50.832V37.1523ZM56.7188 51.9121V32.4902H59.1035V40.0957H62.0898V42.1367H59.1035V51.9121H56.7188ZM78.2246 32.5117V37.2383H80.9531V39.2363H78.2246V44.0488H75.8398V32.5117H78.2246ZM63.6367 35.4121V33.5H72.5098V39.1934H66.043V41.2773C69.3301 41.2666 71.6074 41.1699 74.25 40.7188L74.5078 42.6094C71.6182 43.1465 69.083 43.2432 65.248 43.2324H63.6582V37.3887H70.168V35.4121H63.6367ZM65.6562 51.6758V44.9082H78.2246V51.6758H65.6562ZM67.998 49.7422H75.8828V46.7773H67.998V49.7422ZM97.6895 41.3203V43.2109H91.9316V47.6582H99.666V49.6133H81.9199V47.6582H89.5684V43.2109H84.0684V33.9297H97.5391V35.8418H86.4531V41.3203H97.6895ZM110.816 32.791V34.3164H119.195V32.791H121.559V39.2578H116.145V40.7402H123.857V42.6309H106.154V40.7402H113.781V39.2578H108.453V32.791H110.816ZM108.238 45.6172V43.8555H121.645V48.5605H110.602V49.9141H122.182V51.7402H108.26V46.8848H119.303V45.6172H108.238ZM110.816 37.4746H119.195V36.0566H110.816V37.4746ZM140.508 34.1016C140.497 36.54 143.236 39.0215 147.383 39.5586L146.438 41.4922C143.14 40.998 140.519 39.376 139.251 37.1846C137.983 39.376 135.373 40.998 132.107 41.4922L131.162 39.5586C135.266 39.0215 137.994 36.5615 137.994 34.1016V33.1133H140.508V34.1016ZM130.389 45.1445V43.168H148.092V45.1445H140.379V51.9121H138.016V45.1445H130.389ZM161.52 45.123C161.52 46.7451 162.261 48.4316 163.926 49.5059C165.623 48.3564 166.407 46.5947 166.418 45.123V44.3281H168.76V45.123C168.749 47.1533 169.952 49.0654 172.498 49.8711L171.338 51.6113C169.447 50.9775 168.201 49.7422 167.524 48.1846C166.891 49.7207 165.752 51.0742 163.99 51.7832C162.143 51.1064 160.982 49.7959 160.37 48.2598C159.672 49.7529 158.437 50.9668 156.643 51.6113L155.461 49.8711C157.975 48.9902 159.188 47.0137 159.199 45.123V44.3281H161.52V45.123ZM154.967 38.1621C154.967 35.4336 157.201 33.543 160.209 33.543C163.206 33.543 165.44 35.4336 165.43 38.1621C165.44 40.8584 163.206 42.7705 160.209 42.7598C157.201 42.7705 154.967 40.8584 154.967 38.1621ZM157.309 38.1621C157.298 39.752 158.512 40.7725 160.209 40.7832C161.874 40.7725 163.088 39.752 163.088 38.1621C163.088 36.5723 161.874 35.5518 160.209 35.5625C158.512 35.5518 157.298 36.5723 157.309 38.1621ZM168.395 43.5117V32.5117H170.801V43.5117H168.395ZM191.727 39.9883V41.9434H188.848V51.8691H186.463V32.4902H188.848V39.9883H191.727ZM174.324 47.0781V34.3809H176.688V45.1016C179.276 45.0586 182.026 44.833 184.959 44.2207L185.217 46.2402C181.94 46.8955 178.836 47.0674 175.957 47.0781H174.324ZM210.396 47.5938V49.5488H192.65V47.5938H196.754V42.6846C195.207 41.793 194.272 40.3965 194.283 38.6777C194.272 35.584 197.302 33.543 201.48 33.543C205.681 33.543 208.731 35.584 208.721 38.6777C208.731 40.375 207.818 41.7393 206.314 42.6309V47.5938H210.396ZM196.625 38.6777C196.614 40.665 198.58 41.9326 201.48 41.9219C204.37 41.9326 206.379 40.665 206.379 38.6777C206.379 36.6582 204.37 35.4229 201.48 35.4336C198.58 35.4229 196.614 36.6582 196.625 38.6777ZM199.117 47.5938H203.887V43.5439C203.146 43.7051 202.34 43.791 201.48 43.791C200.643 43.791 199.848 43.7051 199.117 43.5547V47.5938ZM214.951 45.2305C214.973 42.4912 215.746 41.6533 217.1 40.8262C218.013 40.2354 218.722 39.5156 218.711 38.4414C218.722 37.2383 217.776 36.4648 216.605 36.4648C215.542 36.4648 214.511 37.1523 214.436 38.5918H211.75C211.825 35.7021 213.974 34.2305 216.627 34.2305C219.527 34.2305 221.515 35.8418 221.525 38.3984C221.515 40.1494 220.645 41.2881 219.248 42.1152C218.002 42.8779 217.486 43.6191 217.465 45.2305V45.4238H214.951V45.2305ZM214.607 48.4961C214.597 47.5938 215.359 46.8525 216.283 46.8418C217.175 46.8525 217.938 47.5938 217.938 48.4961C217.938 49.4199 217.175 50.1719 216.283 50.1719C215.359 50.1719 214.597 49.4199 214.607 48.4961Z" fill="#1D4C5C"/>
</svg>
