<svg width="303" height="89" viewBox="0 0 303 89" fill="none" xmlns="http://www.w3.org/2000/svg">
<rect width="303" height="28" fill="#FEFFF2"/>
<rect y="61" width="303" height="28" fill="#FEFFF2"/>
<path d="M30.6406 3.21875V12.1406H28.75V8.35938H27.6094V11.6719H25.75V3.48438H27.6094V6.73438H28.75V3.21875H30.6406ZM18.3438 6.23438V4.6875H20.8594V3.34375H22.8438V4.6875H25.3281V6.23438H18.3438ZM18.7812 9.1875C18.7734 7.69531 20.0781 6.70312 21.8594 6.70312C23.6641 6.70312 24.9609 7.69531 24.9688 9.1875C24.9609 10.6641 23.6641 11.6484 21.8594 11.6562C20.0781 11.6484 18.7734 10.6641 18.7812 9.1875ZM20.5625 9.1875C20.5547 9.84375 21.0781 10.2422 21.8594 10.2344C22.6328 10.2422 23.1641 9.84375 23.1719 9.1875C23.1641 8.52344 22.6328 8.13281 21.8594 8.14062C21.0859 8.13281 20.5547 8.52344 20.5625 9.1875ZM20.8594 14.8594C20.8516 13.2109 22.7188 12.2734 25.7812 12.2656C28.8516 12.2734 30.7031 13.2109 30.7188 14.8594C30.7031 16.5 28.8516 17.4453 25.7812 17.4375C22.7188 17.4453 20.8516 16.5 20.8594 14.8594ZM22.8594 14.8594C22.8438 15.5781 23.8516 15.9375 25.7812 15.9375C27.7188 15.9375 28.7031 15.5781 28.7031 14.8594C28.7031 14.1094 27.7188 13.7578 25.7812 13.7656C23.8516 13.7578 22.8438 14.1094 22.8594 14.8594ZM45.2188 10.2656V11.875H32.25V10.2656H37.7188V9.0625H33.9062V3.5625H35.875V4.85938H41.5781V3.5625H43.5625V9.0625H39.7188V10.2656H45.2188ZM33.6875 14.4219V12.8438H43.6406V17.4375H41.6562V14.4219H33.6875ZM35.875 7.5H41.5781V6.32812H35.875V7.5Z" fill="black"/>
<path d="M271.578 11.1719V12.7969H266.015V17.4531H264.046V12.7969H258.562V11.1719H271.578ZM259.875 6.92188C259.867 4.94531 261.976 3.69531 265.031 3.6875C268.086 3.69531 270.218 4.94531 270.218 6.92188C270.218 8.85156 268.086 10.0938 265.031 10.0938C261.976 10.0938 259.867 8.85156 259.875 6.92188ZM261.921 6.92188C261.914 7.9375 263.125 8.50781 265.031 8.51562C266.953 8.50781 268.156 7.9375 268.156 6.92188C268.156 5.86719 266.953 5.28906 265.031 5.28125C263.125 5.28906 261.914 5.86719 261.921 6.92188ZM278.89 3.34375C282.164 3.34375 284.054 4.20312 284.062 5.78125C284.054 7.35156 282.164 8.20312 278.89 8.20312C275.609 8.20312 273.703 7.35156 273.703 5.78125C273.703 4.20312 275.609 3.34375 278.89 3.34375ZM272.406 10.4062V8.84375H285.375V10.4062H279.875V11.3594H283.796V14.9844H275.875V15.8438H284.171V17.3438H273.921V13.5938H281.828V12.8125H273.906V11.3594H277.875V10.4062H272.406ZM275.796 5.78125C275.789 6.46094 276.804 6.74219 278.89 6.75C280.992 6.74219 282 6.46094 282 5.78125C282 5.13281 280.992 4.8125 278.89 4.8125C276.804 4.8125 275.789 5.13281 275.796 5.78125Z" fill="black"/>
<rect y="28" width="7" height="33" fill="#FEFFF2"/>
<rect x="296" y="28" width="7" height="33" fill="#FEFFF2"/>
<path d="M24 61C18.3333 60.8431 7 57.4235 7 45V61H24Z" fill="#FEFFF2" stroke="#FEFFF2" stroke-width="0.1"/>
<path d="M7 45C7.15686 39.3333 10.5765 28 23 28H7L7 45Z" fill="#FEFFF2" stroke="#FEFFF2" stroke-width="0.1"/>
<path d="M296 44C295.843 49.6667 292.424 61 280 61H296V44Z" fill="#FEFFF2" stroke="#FEFFF2" stroke-width="0.1"/>
<path d="M279 28C284.667 28.1569 296 31.5765 296 44V28L279 28Z" fill="#FEFFF2" stroke="#FEFFF2" stroke-width="0.1"/>
</svg>

