<svg width="42" height="42" viewBox="0 0 42 42" fill="none" xmlns="http://www.w3.org/2000/svg">
<circle cx="21" cy="21" r="21" fill="#6BD861"/>
<path d="M28.7351 13.1044C28.9438 13.2561 29.0292 13.4585 28.9912 13.7115L26.5627 28.2829C26.5311 28.4663 26.4299 28.6086 26.2592 28.7098C26.1706 28.7604 26.0726 28.7857 25.9651 28.7857C25.8955 28.7857 25.8196 28.7699 25.7374 28.7383L21.44 26.9833L19.1443 29.7818C19.0305 29.9273 18.8756 30 18.6795 30C18.5973 30 18.5277 29.9874 18.4708 29.9621C18.3506 29.9178 18.2542 29.8435 18.1815 29.7391C18.1087 29.6348 18.0724 29.5193 18.0724 29.3929V26.082L26.2686 16.0357L16.1276 24.8108L12.3805 23.274C12.1465 23.1855 12.02 23.0115 12.0011 22.7522C11.9884 22.4993 12.0896 22.3127 12.3046 22.1925L28.09 13.0854C28.1849 13.0285 28.2861 13 28.3936 13C28.5201 13 28.6339 13.0348 28.7351 13.1044Z" fill="white"/>
</svg>
