<svg width="16" height="14" viewBox="0 0 16 14" fill="none" xmlns="http://www.w3.org/2000/svg">
<path d="M6.20748 0.909984C5.00325 0.30633 3.32006 0.0106264 1.06658 0.000128051C0.854053 -0.00290349 0.645697 0.0621623 0.469296 0.186649C0.324504 0.289403 0.20598 0.427938 0.124148 0.59007C0.0423158 0.752202 -0.000316094 0.932962 1.76447e-06 1.11645V11.1284C1.76447e-06 11.8052 0.45863 12.3157 1.06658 12.3157C3.43538 12.3157 5.81152 12.5481 7.23473 13.9605C7.2542 13.9799 7.27867 13.9929 7.30511 13.9978C7.33154 14.0027 7.35877 13.9994 7.38341 13.9882C7.40806 13.977 7.42903 13.9585 7.44372 13.9349C7.45841 13.9113 7.46617 13.8837 7.46604 13.8555V2.0585C7.4661 1.97891 7.44989 1.90023 7.41849 1.82778C7.38709 1.75534 7.34125 1.69081 7.28406 1.63857C6.95806 1.34596 6.59593 1.10088 6.20748 0.909984ZM15.5294 0.185599C15.3529 0.0614222 15.1445 -0.00328026 14.9321 0.000128051C12.6786 0.0106264 10.9954 0.30493 9.79118 0.909984C9.40276 1.10054 9.04053 1.34513 8.71427 1.63717C8.65721 1.6895 8.61148 1.75406 8.58014 1.82649C8.54881 1.89892 8.53261 1.97755 8.53262 2.0571V13.8548C8.53261 13.8819 8.54021 13.9084 8.55448 13.9309C8.56874 13.9535 8.58904 13.9711 8.61282 13.9816C8.6366 13.9921 8.66281 13.995 8.68815 13.99C8.71349 13.9849 8.73684 13.9721 8.75527 13.9531C9.61087 13.0608 11.1124 12.3147 14.9334 12.315C15.2163 12.315 15.4876 12.1971 15.6876 11.987C15.8876 11.777 16 11.4922 16 11.1952V1.1168C16.0004 0.93295 15.9577 0.751825 15.8756 0.58942C15.7935 0.427015 15.6746 0.288326 15.5294 0.185599Z" fill="black"/>
</svg>
