<svg width="16" height="16" viewBox="0 0 16 16" fill="none" xmlns="http://www.w3.org/2000/svg">
<path d="M8 0C3.5888 0 0 2.8712 0 6.4C0 8.7264 1.5176 10.8128 4 11.9472V16L8.272 12.7968C12.5576 12.6816 16 9.856 16 6.4C16 2.8712 12.4112 0 8 0ZM6 7.2C5.68174 7.2 5.37652 7.07357 5.15147 6.84853C4.92643 6.62348 4.8 6.31826 4.8 6C4.8 5.68174 4.92643 5.37652 5.15147 5.15147C5.37652 4.92643 5.68174 4.8 6 4.8C6.31826 4.8 6.62348 4.92643 6.84853 5.15147C7.07357 5.37652 7.2 5.68174 7.2 6C7.2 6.31826 7.07357 6.62348 6.84853 6.84853C6.62348 7.07357 6.31826 7.2 6 7.2ZM10 7.2C9.68174 7.2 9.37652 7.07357 9.15147 6.84853C8.92643 6.62348 8.8 6.31826 8.8 6C8.8 5.68174 8.92643 5.37652 9.15147 5.15147C9.37652 4.92643 9.68174 4.8 10 4.8C10.3183 4.8 10.6235 4.92643 10.8485 5.15147C11.0736 5.37652 11.2 5.68174 11.2 6C11.2 6.31826 11.0736 6.62348 10.8485 6.84853C10.6235 7.07357 10.3183 7.2 10 7.2Z" fill="black"/>
</svg>
