<svg width="17" height="13" viewBox="0 0 17 13" fill="none" xmlns="http://www.w3.org/2000/svg">
<path fill-rule="evenodd" clip-rule="evenodd" d="M12.1086 7.41809C13.1673 8.17372 13.9091 9.19747 13.9091 10.5625V13H16.2273C16.6523 13 17 12.6343 17 12.1875V10.5625C17 8.79122 14.2414 7.74309 12.1086 7.41809Z" fill="black"/>
<path d="M6.18172 6.5C7.88878 6.5 9.27263 5.04492 9.27263 3.25C9.27263 1.45507 7.88878 0 6.18172 0C4.47466 0 3.09082 1.45507 3.09082 3.25C3.09082 5.04492 4.47466 6.5 6.18172 6.5Z" fill="black"/>
<path fill-rule="evenodd" clip-rule="evenodd" d="M10.8182 6.5C12.5259 6.5 13.9091 5.04562 13.9091 3.25C13.9091 1.45437 12.5259 0 10.8182 0C10.455 0 10.115 0.0812498 9.79044 0.195C10.4554 1.05968 10.8181 2.13801 10.8181 3.25C10.8181 4.36198 10.4554 5.44032 9.79044 6.305C10.115 6.41875 10.455 6.5 10.8182 6.5ZM6.18181 7.3125C4.11863 7.3125 0 8.40125 0 10.5625V12.1875C0 12.6344 0.347727 13 0.772726 13H11.5909C12.0159 13 12.3636 12.6344 12.3636 12.1875V10.5625C12.3636 8.40125 8.24498 7.3125 6.18181 7.3125Z" fill="black"/>
</svg>
