<svg width="15" height="15" viewBox="0 0 15 15" fill="none" xmlns="http://www.w3.org/2000/svg">
<path d="M7.5 0C5.51088 2.96403e-08 3.60322 0.790176 2.1967 2.1967C0.790176 3.60322 0 5.51088 0 7.5C0 9.48912 0.790176 11.3968 2.1967 12.8033C3.60322 14.2098 5.51088 15 7.5 15C7.74222 14.9999 7.97921 14.9295 8.18217 14.7973C8.38512 14.6651 8.54531 14.4768 8.64328 14.2552C8.74125 14.0337 8.77277 13.7885 8.73402 13.5494C8.69527 13.3103 8.58792 13.0876 8.425 12.9083C8.26472 12.7288 8.15989 12.5066 8.1232 12.2687C8.08651 12.0309 8.11954 11.7874 8.21827 11.5679C8.317 11.3484 8.47722 11.1622 8.67955 11.0319C8.88188 10.9015 9.11764 10.8325 9.35833 10.8333H10.8333C11.9384 10.8333 12.9982 10.3943 13.7796 9.61295C14.561 8.83154 15 7.77174 15 6.66667C15 2.98333 11.6417 0 7.5 0ZM2.91667 7.5C2.66944 7.5 2.42777 7.42669 2.2222 7.28934C2.01664 7.15199 1.85643 6.95676 1.76182 6.72835C1.66721 6.49995 1.64245 6.24861 1.69069 6.00614C1.73892 5.76366 1.85797 5.54093 2.03278 5.36612C2.2076 5.1913 2.43033 5.07225 2.6728 5.02402C2.91528 4.97579 3.16661 5.00054 3.39502 5.09515C3.62343 5.18976 3.81865 5.34998 3.956 5.55554C4.09336 5.7611 4.16667 6.00277 4.16667 6.25C4.16689 6.41421 4.1347 6.57686 4.07196 6.72861C4.00922 6.88037 3.91716 7.01826 3.80104 7.13437C3.68492 7.25049 3.54704 7.34256 3.39528 7.4053C3.24352 7.46804 3.08088 7.50022 2.91667 7.5ZM5.41667 4.16667C5.16944 4.16667 4.92777 4.09336 4.7222 3.956C4.51664 3.81865 4.35643 3.62343 4.26182 3.39502C4.16721 3.16661 4.14245 2.91528 4.19069 2.6728C4.23892 2.43033 4.35797 2.2076 4.53278 2.03278C4.7076 1.85797 4.93033 1.73892 5.1728 1.69069C5.41528 1.64245 5.66661 1.66721 5.89502 1.76182C6.12343 1.85643 6.31865 2.01664 6.456 2.2222C6.59336 2.42777 6.66667 2.66944 6.66667 2.91667C6.66689 3.08088 6.6347 3.24352 6.57196 3.39528C6.50922 3.54704 6.41716 3.68492 6.30104 3.80104C6.18492 3.91716 6.04704 4.00922 5.89528 4.07196C5.74352 4.1347 5.58088 4.16689 5.41667 4.16667ZM9.58333 4.16667C9.33611 4.16667 9.09443 4.09336 8.88887 3.956C8.68331 3.81865 8.52309 3.62343 8.42848 3.39502C8.33387 3.16661 8.30912 2.91528 8.35735 2.6728C8.40558 2.43033 8.52463 2.2076 8.69945 2.03278C8.87427 1.85797 9.09699 1.73892 9.33947 1.69069C9.58195 1.64245 9.83328 1.66721 10.0617 1.76182C10.2901 1.85643 10.4853 2.01664 10.6227 2.2222C10.76 2.42777 10.8333 2.66944 10.8333 2.91667C10.8336 3.08088 10.8014 3.24352 10.7386 3.39528C10.6759 3.54704 10.5838 3.68492 10.4677 3.80104C10.3516 3.91716 10.2137 4.00922 10.0619 4.07196C9.91019 4.1347 9.74755 4.16689 9.58333 4.16667ZM12.0833 7.5C11.8361 7.5 11.5944 7.42669 11.3889 7.28934C11.1833 7.15199 11.0231 6.95676 10.9285 6.72835C10.8339 6.49995 10.8091 6.24861 10.8574 6.00614C10.9056 5.76366 11.0246 5.54093 11.1995 5.36612C11.3743 5.1913 11.597 5.07225 11.8395 5.02402C12.0819 4.97579 12.3333 5.00054 12.5617 5.09515C12.7901 5.18976 12.9853 5.34998 13.1227 5.55554C13.26 5.7611 13.3333 6.00277 13.3333 6.25C13.3336 6.41421 13.3014 6.57686 13.2386 6.72861C13.1759 6.88037 13.0838 7.01826 12.9677 7.13437C12.8516 7.25049 12.7137 7.34256 12.5619 7.4053C12.4102 7.46804 12.2475 7.50022 12.0833 7.5Z" fill="#1D4C5C"/>
</svg>
