<svg width="15" height="16" viewBox="0 0 15 16" fill="none" xmlns="http://www.w3.org/2000/svg">
<path d="M1.56322 0H8.5977C9.01229 0 9.4099 0.164696 9.70306 0.457856C9.99622 0.751016 10.1609 1.14863 10.1609 1.56322V2.34483C10.1609 2.55212 10.0786 2.75093 9.93199 2.89751C9.78541 3.04409 9.58661 3.12644 9.37931 3.12644C9.17201 3.12644 8.97321 3.04409 8.82663 2.89751C8.68005 2.75093 8.5977 2.55212 8.5977 2.34483V1.56322H1.56322V14.069H8.5977V13.2874C8.5977 13.0801 8.68005 12.8813 8.82663 12.7347C8.97321 12.5881 9.17201 12.5057 9.37931 12.5057C9.58661 12.5057 9.78541 12.5881 9.93199 12.7347C10.0786 12.8813 10.1609 13.0801 10.1609 13.2874V14.069C10.1609 14.4836 9.99622 14.8812 9.70306 15.1743C9.4099 15.4675 9.01229 15.6322 8.5977 15.6322H1.56322C1.14863 15.6322 0.751016 15.4675 0.457856 15.1743C0.164696 14.8812 0 14.4836 0 14.069V1.56322C0 1.14863 0.164696 0.751016 0.457856 0.457856C0.751016 0.164696 1.14863 0 1.56322 0Z" fill="#1D4C5C"/>
<path d="M10.0007 11.1731C10.3055 11.478 10.7979 11.478 11.1027 11.1731L13.9071 8.36872C14.0537 8.22215 14.136 8.02338 14.136 7.81613C14.136 7.60887 14.0537 7.4101 13.9071 7.26353L11.1027 4.45911C10.9542 4.32483 10.7597 4.25276 10.5595 4.25782C10.3593 4.26287 10.1686 4.34466 10.027 4.48627C9.88543 4.62788 9.80364 4.81849 9.79859 5.01869C9.79353 5.2189 9.8656 5.41339 9.99988 5.56196L11.4662 7.03452H4.68963C4.48233 7.03452 4.28353 7.11686 4.13695 7.26344C3.99037 7.41002 3.90802 7.60883 3.90802 7.81613C3.90802 8.02342 3.99037 8.22223 4.13695 8.36881C4.28353 8.51539 4.48233 8.59773 4.68963 8.59773H11.4662L9.99988 10.0703C9.85398 10.2168 9.77213 10.4151 9.77228 10.6219C9.77242 10.8286 9.85456 11.0269 10.0007 11.1731Z" fill="#1D4C5C"/>
</svg>
