<svg width="71" height="81" viewBox="0 0 71 81" fill="none" xmlns="http://www.w3.org/2000/svg">
<path d="M35.2337 0C30.5699 0.0627739 26.1185 1.98787 22.8454 5.35764C19.5723 8.72741 17.7414 13.27 17.75 18C17.4837 25.38 16.9069 33.615 13.4456 38.655C25.3381 45.99 35.5 45 35.5 45C35.5 45 45.6619 45.99 57.5544 38.655C53.7825 32.49 52.9837 24.93 53.25 18C53.25 8.055 45.3069 0 35.5 0H35.2337ZM21.5662 46.44C8.875 49.185 0 55.575 0 63V81H35.5L22.1875 63H11.0938M35.5 81L43.3988 48.645C43.3988 48.645 39.9375 49.5 35.5 49.5C31.0625 49.5 27.6013 48.645 27.6013 48.645M35.5 81H71V63C71 55.575 62.125 49.185 49.4338 46.44L59.9062 63H48.8125L35.5 81Z" fill="#E3E3E3"/>
</svg>
