<svg width="18" height="12" viewBox="0 0 18 12" fill="none" xmlns="http://www.w3.org/2000/svg">
<path fill-rule="evenodd" clip-rule="evenodd" d="M17.5 0.75C17.5 0.948912 17.421 1.13968 17.2803 1.28033C17.1397 1.42098 16.9489 1.5 16.75 1.5H0.75C0.551088 1.5 0.360322 1.42098 0.21967 1.28033C0.0790175 1.13968 0 0.948912 0 0.75C0 0.551088 0.0790175 0.360322 0.21967 0.21967C0.360322 0.0790175 0.551088 0 0.75 0H16.75C16.9489 0 17.1397 0.0790175 17.2803 0.21967C17.421 0.360322 17.5 0.551088 17.5 0.75ZM17.5 5.75C17.5 5.94891 17.421 6.13968 17.2803 6.28033C17.1397 6.42098 16.9489 6.5 16.75 6.5H0.75C0.551088 6.5 0.360322 6.42098 0.21967 6.28033C0.0790175 6.13968 0 5.94891 0 5.75C0 5.55109 0.0790175 5.36032 0.21967 5.21967C0.360322 5.07902 0.551088 5 0.75 5H16.75C16.9489 5 17.1397 5.07902 17.2803 5.21967C17.421 5.36032 17.5 5.55109 17.5 5.75ZM17.5 10.75C17.5 10.9489 17.421 11.1397 17.2803 11.2803C17.1397 11.421 16.9489 11.5 16.75 11.5H0.75C0.551088 11.5 0.360322 11.421 0.21967 11.2803C0.0790175 11.1397 0 10.9489 0 10.75C0 10.5511 0.0790175 10.3603 0.21967 10.2197C0.360322 10.079 0.551088 10 0.75 10H16.75C16.9489 10 17.1397 10.079 17.2803 10.2197C17.421 10.3603 17.5 10.5511 17.5 10.75Z" fill="black"/>
</svg>
