<svg width="81" height="47" viewBox="0 0 81 47" fill="none" xmlns="http://www.w3.org/2000/svg">
<path d="M7.89746 27.4336C7.89746 29.7217 9.0791 31.9561 12.2803 32.9121L10.6475 35.2969C8.5957 34.6523 7.19922 33.3955 6.37207 31.7842C5.52344 33.6533 4.05176 35.125 1.83887 35.8555L0.163086 33.4492C3.55762 32.3428 4.77148 29.7217 4.78223 27.1113V25.4141H7.89746V27.4336ZM2.91309 40.1738C2.90234 37.7461 5.54492 36.2959 9.72363 36.3066C13.8271 36.2959 16.4268 37.7461 16.4268 40.1738C16.4268 42.6445 13.8271 44.084 9.72363 44.0625C5.54492 44.084 2.90234 42.6445 2.91309 40.1738ZM6.00684 40.1738C5.99609 41.2158 7.27441 41.6455 9.72363 41.6562C12.1514 41.6455 13.3652 41.2158 13.376 40.1738C13.3652 39.207 12.1514 38.7021 9.72363 38.7129C7.27441 38.7021 5.99609 39.207 6.00684 40.1738ZM13.1396 35.9414V24.3398H16.2334V28.7871H18.79V31.3438H16.2334V35.9414H13.1396ZM35.2471 24.3398V28.6582H37.8037V31.1934H35.2471V35.3613H32.1533V24.3398H35.2471ZM20.251 34.7812V25.543H29.0596V27.9922H23.3447V32.3105C26.7822 32.2891 28.6514 32.1494 30.7139 31.7305L31.0361 34.1582C28.6406 34.7061 26.3955 34.7812 21.9482 34.7812H20.251ZM22.2275 43.8262V36.1348H35.2471V43.8262H22.2275ZM25.2783 41.4199H32.1963V38.584H25.2783V41.4199ZM53.9814 31.4297V33.6641H61.458V36.1133H43.4756V33.6641H50.8877V31.4297H53.9814ZM44.1846 30.1836C47.7832 29.8613 49.5449 28.7334 50.1035 27.584H45.1084V25.1562H59.8252V27.584H54.7979C55.3564 28.7227 57.1074 29.8613 60.749 30.1836L59.6748 32.5898C55.8291 32.2461 53.4551 30.8926 52.4346 29.0664C51.4141 30.8926 49.083 32.2461 45.2588 32.5898L44.1846 30.1836ZM45.4951 40.5391C45.4951 38.2939 48.0947 37.0371 52.4346 37.0371C56.7422 37.0371 59.3096 38.2939 59.3096 40.5391C59.3096 42.8164 56.7422 44.084 52.4346 44.0625C48.0947 44.084 45.4951 42.8164 45.4951 40.5391ZM48.6533 40.5391C48.6318 41.4092 49.8135 41.7852 52.4346 41.7852C54.9805 41.7852 56.2051 41.4092 56.2158 40.5391C56.2051 39.7227 54.9805 39.3789 52.4346 39.3789C49.8135 39.3789 48.6318 39.7227 48.6533 40.5391ZM80.5146 39.4219V41.9355H62.4893V39.4219H66.958V36.6289H64.5088V29.8398H75.4443V28.0352H64.4873V25.5645H78.4951V32.2891H67.6025V34.1367H78.9463V36.6289H76.2822V39.4219H80.5146ZM69.9658 39.4219H73.2314V36.6289H69.9658V39.4219Z" fill="#1B4A5A"/>
<path d="M21.8452 6.54395C21.7793 5.7749 21.208 5.31348 20.1899 5.31348C19.1792 5.31348 18.6592 5.75293 18.6519 6.35352C18.6372 7.0127 19.2817 7.33496 20.2339 7.54004L21.1567 7.75977C23.2002 8.20654 24.3867 9.22461 24.394 10.9238C24.3867 12.9307 22.8267 14.1392 20.1899 14.1465C17.5459 14.1392 15.8394 12.9526 15.7954 10.5137H18.1978C18.2563 11.5391 19.0254 12.0664 20.1606 12.0664C21.2153 12.0664 21.8452 11.605 21.8599 10.9238C21.8452 10.3086 21.3032 9.98633 20.1313 9.72266L19.0181 9.45898C17.1943 9.03418 16.0737 8.12598 16.0737 6.5293C16.0664 4.55908 17.8022 3.24805 20.2046 3.24805C22.6509 3.24805 24.2256 4.58105 24.2476 6.54395H21.8452ZM25.3169 5.43066V3.39453H34.2378V5.43066H31.0151V14H28.5396V5.43066H25.3169ZM35.4829 14V3.39453H42.8218V5.43066H37.9731V7.67188H42.4409V9.70801H37.9731V11.9639H42.8364V14H35.4829ZM44.4185 14V3.39453H48.7544C51.1421 3.39453 52.6143 4.88135 52.6069 7.04199C52.6143 9.23193 51.1128 10.6748 48.6812 10.6748H46.9087V14H44.4185ZM46.9087 8.69727H48.2271C49.4062 8.70459 50.0288 8.04541 50.0288 7.04199C50.0288 6.05322 49.4062 5.41602 48.2271 5.41602H46.9087V8.69727ZM57.1919 14V12.1982L61.0591 8.7998C61.96 7.97949 62.4727 7.4375 62.48 6.63184C62.4727 5.74561 61.8208 5.20361 60.9272 5.19629C60.019 5.20361 59.4111 5.7749 59.4185 6.73438H57.0454C57.0381 4.5957 58.6055 3.24805 60.9419 3.24805C63.3296 3.24805 64.8896 4.54443 64.897 6.44141C64.8896 7.65723 64.2891 8.67529 61.9966 10.6748L60.6636 11.9053V11.9785H65.0288V14H57.1919Z" fill="#35BA95"/>
</svg>
