<svg width="124" height="47" viewBox="0 0 124 47" fill="none" xmlns="http://www.w3.org/2000/svg">
<path d="M7.92383 27.4336C7.92383 29.7217 9.10547 31.9561 12.3066 32.9121L10.6738 35.2969C8.62207 34.6523 7.22559 33.3955 6.39844 31.7842C5.5498 33.6533 4.07812 35.125 1.86523 35.8555L0.189453 33.4492C3.58398 32.3428 4.79785 29.7217 4.80859 27.1113V25.4141H7.92383V27.4336ZM2.93945 40.1738C2.92871 37.7461 5.57129 36.2959 9.75 36.3066C13.8535 36.2959 16.4531 37.7461 16.4531 40.1738C16.4531 42.6445 13.8535 44.084 9.75 44.0625C5.57129 44.084 2.92871 42.6445 2.93945 40.1738ZM6.0332 40.1738C6.02246 41.2158 7.30078 41.6455 9.75 41.6562C12.1777 41.6455 13.3916 41.2158 13.4023 40.1738C13.3916 39.207 12.1777 38.7021 9.75 38.7129C7.30078 38.7021 6.02246 39.207 6.0332 40.1738ZM13.166 35.9414V24.3398H16.2598V28.7871H18.8164V31.3438H16.2598V35.9414H13.166ZM35.2734 24.3398V28.6582H37.8301V31.1934H35.2734V35.3613H32.1797V24.3398H35.2734ZM20.2773 34.7812V25.543H29.0859V27.9922H23.3711V32.3105C26.8086 32.2891 28.6777 32.1494 30.7402 31.7305L31.0625 34.1582C28.667 34.7061 26.4219 34.7812 21.9746 34.7812H20.2773ZM22.2539 43.8262V36.1348H35.2734V43.8262H22.2539ZM25.3047 41.4199H32.2227V38.584H25.3047V41.4199ZM60.1953 24.3398V34.2227H57.123V32.8691H52.8691V30.5273H57.123V29.0234H53.0518C51.8379 31.9238 49.0986 33.75 44.748 34.6523L43.7168 32.1602C48.1104 31.333 49.9902 29.6143 50.334 27.498H44.8555V25.0488H53.7715C53.7715 25.6289 53.7393 26.1768 53.6641 26.7031H57.123V24.3398H60.1953ZM46.9824 37.2734V34.8672H60.1953V40.4531H50.0977V41.4199H60.5605V43.8691H47.0254V38.1758H57.1016V37.2734H46.9824ZM73.6445 26.252V28.0137C73.6338 29.958 73.6338 32.332 73.1074 35.4688L70.0781 35.2324C70.5078 32.5146 70.5508 30.4844 70.5723 28.7012H63.3535V26.252H73.6445ZM62.3652 37.6816C63.418 37.6709 64.5674 37.6709 65.7812 37.6387V31.9023H68.8105V37.542C70.6689 37.4668 72.5488 37.3271 74.2891 37.1016L74.4824 39.4004C70.4541 40.0879 66.0498 40.1523 62.623 40.1309L62.3652 37.6816ZM75.1055 44.0625V24.3398H78.2422V32.1602H80.7559V34.7383H78.2422V44.0625H75.1055ZM103.143 24.3613V38.7344H100.07V31.8379H97.1055V29.3457H100.07V24.3613H103.143ZM86.2773 34.1367C89.6396 33.1162 90.9072 30.5596 90.918 28.1211V28.0781H87.1367V25.6074H97.8359V28.0781H94.0762V28.1426C94.0762 30.3662 95.3008 32.7939 98.502 33.8145L96.998 36.2637C94.8389 35.5762 93.3887 34.2227 92.54 32.5254C91.6699 34.4053 90.1553 35.8984 87.8672 36.6289L86.2773 34.1367ZM89.9297 43.7402V37.4883H93.0234V41.2695H103.594V43.7402H89.9297ZM115.969 31.3438V33.6211H123.445V36.0918H105.463V33.6211H112.875V31.3438H115.969ZM106.344 30.1621C110.984 29.6035 112.832 27.3369 112.832 25.2422V24.6836H115.99V25.2422C115.99 27.4443 117.773 29.6035 122.521 30.1621L121.34 32.5684C117.945 32.085 115.614 30.7422 114.379 28.8623C113.133 30.7314 110.812 32.085 107.439 32.5684L106.344 30.1621ZM107.482 40.5391C107.482 38.2939 110.082 36.9941 114.422 36.9941C118.729 36.9941 121.297 38.2939 121.297 40.5391C121.297 42.8164 118.729 44.084 114.422 44.0625C110.082 44.084 107.482 42.8164 107.482 40.5391ZM110.641 40.5391C110.619 41.4092 111.801 41.7852 114.422 41.7852C116.968 41.7852 118.192 41.4092 118.203 40.5391C118.192 39.6797 116.968 39.3359 114.422 39.3359C111.801 39.3359 110.619 39.6797 110.641 40.5391Z" fill="#1B4A5A"/>
<path d="M42.9717 6.54395C42.9058 5.7749 42.3345 5.31348 41.3164 5.31348C40.3057 5.31348 39.7856 5.75293 39.7783 6.35352C39.7637 7.0127 40.4082 7.33496 41.3604 7.54004L42.2832 7.75977C44.3267 8.20654 45.5132 9.22461 45.5205 10.9238C45.5132 12.9307 43.9531 14.1392 41.3164 14.1465C38.6724 14.1392 36.9658 12.9526 36.9219 10.5137H39.3242C39.3828 11.5391 40.1519 12.0664 41.2871 12.0664C42.3418 12.0664 42.9717 11.605 42.9863 10.9238C42.9717 10.3086 42.4297 9.98633 41.2578 9.72266L40.1445 9.45898C38.3208 9.03418 37.2002 8.12598 37.2002 6.5293C37.1929 4.55908 38.9287 3.24805 41.3311 3.24805C43.7773 3.24805 45.3521 4.58105 45.374 6.54395H42.9717ZM46.4434 5.43066V3.39453H55.3643V5.43066H52.1416V14H49.666V5.43066H46.4434ZM56.6094 14V3.39453H63.9482V5.43066H59.0996V7.67188H63.5674V9.70801H59.0996V11.9639H63.9629V14H56.6094ZM65.5449 14V3.39453H69.8809C72.2686 3.39453 73.7407 4.88135 73.7334 7.04199C73.7407 9.23193 72.2393 10.6748 69.8076 10.6748H68.0352V14H65.5449ZM68.0352 8.69727H69.3535C70.5327 8.70459 71.1553 8.04541 71.1553 7.04199C71.1553 6.05322 70.5327 5.41602 69.3535 5.41602H68.0352V8.69727ZM78.1719 12.2129V10.2646L82.5664 3.39453H85.7158V10.25H87.0049V12.2129H85.7158V14H83.3281V12.2129H78.1719ZM80.6621 10.25H83.3721V6.0459H83.2842L80.6621 10.1621V10.25Z" fill="#35BA95"/>
</svg>
