<svg width="81" height="47" viewBox="0 0 81 47" fill="none" xmlns="http://www.w3.org/2000/svg">
<path d="M7.89746 27.4336C7.89746 29.7217 9.0791 31.9561 12.2803 32.9121L10.6475 35.2969C8.5957 34.6523 7.19922 33.3955 6.37207 31.7842C5.52344 33.6533 4.05176 35.125 1.83887 35.8555L0.163086 33.4492C3.55762 32.3428 4.77148 29.7217 4.78223 27.1113V25.4141H7.89746V27.4336ZM2.91309 40.1738C2.90234 37.7461 5.54492 36.2959 9.72363 36.3066C13.8271 36.2959 16.4268 37.7461 16.4268 40.1738C16.4268 42.6445 13.8271 44.084 9.72363 44.0625C5.54492 44.084 2.90234 42.6445 2.91309 40.1738ZM6.00684 40.1738C5.99609 41.2158 7.27441 41.6455 9.72363 41.6562C12.1514 41.6455 13.3652 41.2158 13.376 40.1738C13.3652 39.207 12.1514 38.7021 9.72363 38.7129C7.27441 38.7021 5.99609 39.207 6.00684 40.1738ZM13.1396 35.9414V24.3398H16.2334V28.7871H18.79V31.3438H16.2334V35.9414H13.1396ZM35.2471 24.3398V28.6582H37.8037V31.1934H35.2471V35.3613H32.1533V24.3398H35.2471ZM20.251 34.7812V25.543H29.0596V27.9922H23.3447V32.3105C26.7822 32.2891 28.6514 32.1494 30.7139 31.7305L31.0361 34.1582C28.6406 34.7061 26.3955 34.7812 21.9482 34.7812H20.251ZM22.2275 43.8262V36.1348H35.2471V43.8262H22.2275ZM25.2783 41.4199H32.1963V38.584H25.2783V41.4199ZM61.4795 34.3516V36.7578H54.2607V39.7227H51.21V36.7578H43.4541V34.3516H61.4795ZM45.4951 43.7402V38.2617H48.5674V41.2695H59.5029V43.7402H45.4951ZM45.7529 33.1484V24.9629H48.7822V26.875H56.1084V24.9629H59.1592V33.1484H45.7529ZM48.7822 30.7207H56.1084V29.1523H48.7822V30.7207ZM70.0732 27.3906C70.0732 29.7646 71.2334 32.1064 74.4346 33.084L72.8232 35.5547C70.7285 34.8564 69.332 33.5244 68.5156 31.8379C67.6455 33.6641 66.1631 35.1035 63.9717 35.8555L62.2959 33.3848C65.7119 32.3428 66.9365 29.7754 66.9365 27.1973V25.3711H70.0732V27.3906ZM65.5615 39.3574V36.9297H79.1826V44.0625H76.1104V39.3574H65.5615ZM72.6299 30.377V27.8633H76.1104V24.3398H79.1826V36.1133H76.1104V30.377H72.6299Z" fill="#1B4A5A"/>
<path d="M21.6328 6.54395C21.5669 5.7749 20.9956 5.31348 19.9775 5.31348C18.9668 5.31348 18.4468 5.75293 18.4395 6.35352C18.4248 7.0127 19.0693 7.33496 20.0215 7.54004L20.9443 7.75977C22.9878 8.20654 24.1743 9.22461 24.1816 10.9238C24.1743 12.9307 22.6143 14.1392 19.9775 14.1465C17.3335 14.1392 15.627 12.9526 15.583 10.5137H17.9854C18.0439 11.5391 18.813 12.0664 19.9482 12.0664C21.0029 12.0664 21.6328 11.605 21.6475 10.9238C21.6328 10.3086 21.0908 9.98633 19.9189 9.72266L18.8057 9.45898C16.9819 9.03418 15.8613 8.12598 15.8613 6.5293C15.854 4.55908 17.5898 3.24805 19.9922 3.24805C22.4385 3.24805 24.0132 4.58105 24.0352 6.54395H21.6328ZM25.1045 5.43066V3.39453H34.0254V5.43066H30.8027V14H28.3271V5.43066H25.1045ZM35.2705 14V3.39453H42.6094V5.43066H37.7607V7.67188H42.2285V9.70801H37.7607V11.9639H42.624V14H35.2705ZM44.2061 14V3.39453H48.542C50.9297 3.39453 52.4019 4.88135 52.3945 7.04199C52.4019 9.23193 50.9004 10.6748 48.4688 10.6748H46.6963V14H44.2061ZM46.6963 8.69727H48.0146C49.1938 8.70459 49.8164 8.04541 49.8164 7.04199C49.8164 6.05322 49.1938 5.41602 48.0146 5.41602H46.6963V8.69727ZM61.0078 14.1465C58.5908 14.1465 56.8696 12.8135 56.8477 10.9092H59.3672C59.3892 11.6196 60.0776 12.103 61.0225 12.1104C61.96 12.103 62.6338 11.5757 62.6191 10.8066C62.6338 10.0376 61.916 9.49561 60.8027 9.48828H59.7773V7.70117H60.8027C61.7695 7.7085 62.4434 7.18848 62.4434 6.42676C62.4434 5.70898 61.8721 5.20361 61.0225 5.19629C60.1509 5.20361 59.4697 5.70166 59.4551 6.44141H57.0527C57.082 4.55908 58.752 3.24805 61.0371 3.24805C63.3003 3.24805 64.853 4.55176 64.8457 6.28027C64.853 7.4668 63.9888 8.29443 62.7656 8.47754V8.55078C64.3916 8.74854 65.2485 9.67871 65.2412 10.9971C65.2485 12.8354 63.4834 14.1465 61.0078 14.1465Z" fill="#35BA95"/>
</svg>
