<svg width="196" height="51" viewBox="0 0 196 51" fill="none" xmlns="http://www.w3.org/2000/svg">
<path d="M195.5 0.5H47C38.4396 0.5 31.5 7.43959 31.5 16V35C31.5 43.5604 38.4396 50.5 47 50.5H180C188.56 50.5 195.5 43.5604 195.5 35V0.5Z" fill="white" stroke="#D7D7D7"/>
<path d="M48.321 17.181C48.321 18.314 49.476 19.051 51.049 19.051C52.622 19.051 53.766 18.314 53.766 17.181C53.766 16.048 52.622 15.311 51.049 15.311C49.476 15.311 48.321 16.048 48.321 17.181ZM51.5 21.801H55.537V22.549H46.572V21.801H50.587V19.744C48.75 19.612 47.452 18.633 47.452 17.181C47.452 15.608 48.959 14.596 51.049 14.596C53.128 14.596 54.624 15.608 54.624 17.181C54.624 18.633 53.337 19.612 51.5 19.744V21.801ZM64.6001 16.301V17.027H57.9011V14.09H58.7921V16.301H64.6001ZM58.7261 21.933V22.978H64.8421V23.682H57.8241V21.262H63.6101V20.316H57.8021V19.612H64.5121V21.933H58.7261ZM56.6911 17.995H65.6451V18.732H56.6911V17.995ZM75.767 14.992V15.718H69.948V14.992H72.401V13.892H73.303V14.992H75.767ZM71.356 18.006C71.356 18.666 71.95 19.095 72.852 19.095C73.754 19.095 74.359 18.666 74.359 18.006C74.359 17.357 73.754 16.928 72.852 16.928C71.95 16.928 71.356 17.357 71.356 18.006ZM75.217 18.006C75.217 19.095 74.26 19.788 72.852 19.788C71.455 19.788 70.498 19.095 70.498 18.006C70.498 16.928 71.455 16.224 72.852 16.224C74.26 16.224 75.217 16.928 75.217 18.006ZM71.169 21.394V20.657H77.571V23.825H76.669V21.394H71.169ZM79.034 16.675V17.423H77.571V20.118H76.669V13.958H77.571V16.675H79.034ZM87.0082 16.026V15.674H80.9582V14.937H87.9102V16.026C87.9102 17.28 87.9102 18.567 87.5582 20.415L86.6672 20.305C87.0082 18.545 87.0082 17.247 87.0082 16.026ZM85.5562 21.691H88.9552V22.428H80.0342V21.691H82.2232V18.424H83.1142V21.691H84.6652V18.424H85.5562V21.691ZM92.3863 20.811C93.1563 20.811 93.6623 19.81 93.6623 18.193C93.6623 16.609 93.1563 15.608 92.3863 15.608C91.5943 15.608 91.0993 16.609 91.0993 18.193C91.0993 19.81 91.5943 20.811 92.3863 20.811ZM95.7193 17.786V14.167H96.5773V23.33H95.7193V18.523H94.4763C94.3993 20.459 93.5963 21.647 92.3863 21.647C91.0993 21.647 90.2743 20.327 90.2743 18.193C90.2743 16.092 91.0993 14.772 92.3863 14.772C93.5743 14.772 94.3663 15.927 94.4763 17.786H95.7193ZM97.6773 13.947H98.5353V23.814H97.6773V13.947ZM103.726 14.794V16.565C103.726 18.358 104.848 20.151 106.278 20.833L105.75 21.548C104.628 20.987 103.726 19.81 103.275 18.424C102.846 19.887 101.933 21.13 100.822 21.724L100.272 21.009C101.702 20.294 102.824 18.391 102.824 16.565V14.794H103.726ZM107.499 13.947H108.401V23.825H107.499V18.028H105.211V17.291H107.499V13.947ZM121.581 13.958V21.24H120.679V13.958H121.581ZM119.557 19.161L119.128 19.865C117.984 19.502 117.082 18.721 116.631 17.709C116.202 18.798 115.3 19.656 114.134 20.052L113.694 19.348C115.168 18.864 116.169 17.621 116.169 16.246V15.993H113.925V15.267H116.169V13.991H117.071V15.267H119.293V15.993H117.06V16.246C117.06 17.544 118.094 18.71 119.557 19.161ZM116.136 22.857H121.878V23.594H115.234V20.569H116.136V22.857ZM132.536 18.831V19.568H128.51V23.825H127.597V19.568H123.615V18.831H130.16C130.468 17.412 130.468 16.367 130.468 15.443V15.311H124.726V14.585H131.348V15.443C131.348 16.367 131.348 17.412 131.073 18.831H132.536ZM139.532 18.281L139.62 19.018C138.058 19.282 136.76 19.337 134.934 19.337H134.153V16.543H137.684V15.3H134.131V14.563H138.575V17.236H135.044V18.6C136.771 18.6 138.036 18.545 139.532 18.281ZM138.234 23.11C139.708 23.11 140.588 22.703 140.588 22.01C140.588 21.317 139.708 20.91 138.234 20.91C136.76 20.91 135.869 21.317 135.869 22.01C135.869 22.703 136.76 23.11 138.234 23.11ZM138.234 20.206C140.236 20.206 141.479 20.866 141.479 22.01C141.479 23.154 140.236 23.803 138.234 23.803C136.221 23.803 134.989 23.154 134.989 22.01C134.989 20.866 136.221 20.206 138.234 20.206ZM141.38 16.422H142.843V17.17H141.38V19.898H140.478V13.958H141.38V16.422ZM151.931 14.816V17.038C151.931 18.347 152.25 20.041 153.449 20.91L152.888 21.57C152.173 21.042 151.744 20.173 151.502 19.238C151.282 20.206 150.875 21.108 150.116 21.658V21.647V21.658C149.368 21.097 148.95 20.173 148.741 19.216C148.499 20.14 148.081 21.009 147.377 21.548L146.794 20.91C147.982 20.03 148.312 18.303 148.312 17.038V14.816H149.17V17.038C149.17 18.039 149.335 19.491 150.116 20.492C150.897 19.513 151.062 18.094 151.062 17.038V14.816H151.931ZM156.1 17.819V18.567H154.714V23.803H153.812V13.947H154.714V17.819H156.1ZM160.235 15.135C159.278 15.135 158.607 15.641 158.607 16.378C158.607 17.137 159.278 17.632 160.235 17.632C161.192 17.632 161.863 17.137 161.863 16.378C161.863 15.641 161.192 15.135 160.235 15.135ZM160.235 18.325C158.772 18.325 157.76 17.544 157.76 16.378C157.76 15.223 158.772 14.442 160.235 14.442C161.698 14.442 162.71 15.223 162.71 16.378C162.71 17.544 161.698 18.325 160.235 18.325ZM163.513 18.82L163.568 19.491C162.6 19.656 161.61 19.755 160.642 19.81V23.517H159.74V19.854C158.805 19.887 157.914 19.898 157.133 19.898L157.023 19.139C158.882 19.139 161.368 19.128 163.513 18.82ZM164.261 13.958H165.163V23.825H164.261V21.394H162.028V20.69H164.261V13.958ZM170.629 14.794V16.565C170.629 18.358 171.751 20.151 173.181 20.833L172.653 21.548C171.531 20.987 170.629 19.81 170.178 18.424C169.749 19.887 168.836 21.13 167.725 21.724L167.175 21.009C168.605 20.294 169.727 18.391 169.727 16.565V14.794H170.629ZM174.402 13.947H175.304V23.825H174.402V18.028H172.114V17.291H174.402V13.947ZM47.166 32.014H51.786C51.786 34.863 50.477 37.371 47.199 38.977L46.715 38.24C49.366 36.975 50.686 35.083 50.873 32.74H47.166V32.014ZM53.777 30.947H54.679V40.814H53.777V30.947ZM63.5661 34.489V33.213H58.7701V34.489H63.5661ZM64.4571 31.255V35.204H57.8791V31.255H58.7701V32.52H63.5661V31.255H64.4571ZM58.7151 37.91V39.857H64.6441V40.594H57.8241V37.91H58.7151ZM56.6801 36.161H65.6451V36.887H61.6851V38.801H60.7831V36.887H56.6801V36.161ZM73.9933 30.947H74.8953V40.836H73.9933V30.947ZM69.6923 31.706C71.1553 31.706 72.2003 33.048 72.2003 35.149C72.2003 37.25 71.1553 38.592 69.6923 38.592C68.2293 38.592 67.1843 37.25 67.1843 35.149C67.1843 33.048 68.2293 31.706 69.6923 31.706ZM69.6923 32.52C68.7243 32.52 68.0423 33.554 68.0423 35.149C68.0423 36.755 68.7243 37.789 69.6923 37.789C70.6493 37.789 71.3313 36.755 71.3313 35.149C71.3313 33.554 70.6493 32.52 69.6923 32.52ZM84.4782 32.069C82.9822 32.069 81.9592 32.63 81.9592 33.499C81.9592 34.379 82.9822 34.94 84.4782 34.94C85.9852 34.94 87.0082 34.379 87.0082 33.499C87.0082 32.63 85.9852 32.069 84.4782 32.069ZM84.4782 35.666C82.4322 35.666 81.0352 34.83 81.0352 33.499C81.0352 32.179 82.4322 31.343 84.4782 31.343C86.5352 31.343 87.9322 32.179 87.9322 33.499C87.9322 34.83 86.5352 35.666 84.4782 35.666ZM88.9662 36.601V37.349H84.9292V40.825H84.0272V37.349H80.0342V36.601H88.9662ZM94.6083 31.739C92.9913 31.739 92.0673 32.113 92.0673 32.773C92.0673 33.433 92.9913 33.807 94.6083 33.807C96.2253 33.807 97.1493 33.433 97.1493 32.773C97.1493 32.113 96.2253 31.739 94.6083 31.739ZM94.6083 34.478C92.4413 34.478 91.1433 33.884 91.1433 32.773C91.1433 31.662 92.4413 31.057 94.6083 31.057C96.7863 31.057 98.0733 31.662 98.0733 32.773C98.0733 33.884 96.7863 34.478 94.6083 34.478ZM99.0633 35.853H95.0593V36.777H97.9303V38.999H92.1333V40H98.2273V40.704H91.2533V38.339H97.0393V37.459H91.2313V36.777H94.1573V35.853H90.1533V35.127H99.0633V35.853ZM102.714 37.778C103.473 37.778 104.023 37.151 104.023 36.271C104.023 35.413 103.473 34.786 102.714 34.786C101.944 34.786 101.405 35.413 101.405 36.271C101.405 37.151 101.944 37.778 102.714 37.778ZM102.714 34.027C103.935 34.027 104.826 34.951 104.826 36.271C104.826 37.613 103.935 38.526 102.714 38.526C101.493 38.526 100.602 37.613 100.602 36.271C100.602 34.951 101.493 34.027 102.714 34.027ZM103.154 31.233V32.63H105.156V33.367H100.261V32.63H102.263V31.233H103.154ZM107.763 30.936H108.632V40.803H107.763V35.842H106.498V40.33H105.651V31.167H106.498V35.105H107.763V30.936ZM111.324 40.0625C111.132 40.0625 110.966 39.9935 110.828 39.8555C110.69 39.7174 110.621 39.5521 110.621 39.3594C110.621 39.1667 110.69 39.0013 110.828 38.8633C110.966 38.7253 111.132 38.6562 111.324 38.6562C111.517 38.6562 111.682 38.7253 111.82 38.8633C111.958 39.0013 112.027 39.1667 112.027 39.3594C112.027 39.487 111.995 39.6042 111.93 39.7109C111.867 39.8177 111.783 39.9036 111.676 39.9687C111.572 40.0313 111.454 40.0625 111.324 40.0625Z" fill="black"/>
<path d="M3.44531 36.9297V44H2.55664V37.8477H2.51758L0.798828 38.9902V38.1016L2.55664 36.9297H3.44531ZM7.83008 36.9297V44H6.94141V37.8477H6.90234L5.18359 38.9902V38.1016L6.94141 36.9297H7.83008ZM10.3203 43.0625C9.97852 43.0576 9.68555 42.7744 9.69531 42.4277C9.68555 42.0859 9.97852 41.8027 10.3203 41.8027C10.667 41.8027 10.9502 42.0859 10.9453 42.4277C10.9502 42.7744 10.667 43.0576 10.3203 43.0625ZM9.69531 38.502C9.68555 38.1602 9.97852 37.877 10.3203 37.877C10.667 37.877 10.9502 38.1602 10.9453 38.502C10.9502 38.8486 10.667 39.1318 10.3203 39.1367C9.97852 39.1318 9.68555 38.8486 9.69531 38.502ZM14.6953 44.0977C13.2891 44.0977 12.2783 43.3457 12.2344 42.2227H13.123C13.1719 42.8965 13.8408 43.3164 14.6855 43.3164C15.6182 43.3164 16.292 42.8135 16.2969 42.0762C16.292 41.3047 15.6768 40.7627 14.5781 40.7578H14.002V39.9863H14.5781C15.4375 39.9863 16.0381 39.5029 16.0332 38.7754C16.0381 38.0674 15.5205 37.5986 14.7148 37.5938C13.958 37.5986 13.2695 38.0137 13.2305 38.707H12.3809C12.4248 37.584 13.4697 36.832 14.7246 36.832C16.0723 36.832 16.8926 37.7158 16.8828 38.7266C16.8926 39.5322 16.4238 40.1182 15.6816 40.3281V40.377C16.6045 40.5186 17.1611 41.1777 17.1562 42.0762C17.1611 43.2383 16.1064 44.0977 14.6953 44.0977ZM20.7402 44.0977C19.1729 44.0977 18.2646 42.7793 18.2695 40.4648C18.2646 38.1699 19.1826 36.832 20.7402 36.832C22.293 36.832 23.2109 38.1699 23.2109 40.4648C23.2109 42.7793 22.3076 44.0977 20.7402 44.0977ZM19.1191 40.4648C19.124 42.2959 19.7148 43.3164 20.7402 43.3164C21.7607 43.3164 22.3564 42.2959 22.3516 40.4648C22.3564 38.6338 21.7559 37.5986 20.7402 37.5938C19.7246 37.5986 19.124 38.6338 19.1191 40.4648Z" fill="#696969"/>
</svg>
