<svg width="14" height="26" viewBox="0 0 14 26" fill="none" xmlns="http://www.w3.org/2000/svg">
<path d="M2.77419 0.514514L13.6451 12.0396C13.7742 12.1768 13.8658 12.3254 13.92 12.4855C13.9742 12.6456 14.0008 12.8171 14 13C14 13.1829 13.9729 13.3544 13.9187 13.5145C13.8645 13.6746 13.7733 13.8232 13.6451 13.9604L2.77419 25.5198C2.47311 25.8399 2.09677 26 1.64516 26C1.19354 26 0.806449 25.8285 0.483869 25.4855C0.161288 25.1425 -1.7974e-06 24.7423 -1.75742e-06 24.285C-1.71743e-06 23.8276 0.161288 23.4274 0.483869 23.0844L9.96773 13L0.483871 2.91557C0.182796 2.59543 0.0322582 2.20074 0.0322582 1.73151C0.0322583 1.26227 0.193548 0.856606 0.516129 0.514514C0.838708 0.171506 1.21505 2.697e-06 1.64516 2.7346e-06C2.07527 2.7722e-06 2.45161 0.171506 2.77419 0.514514Z" fill="#1985C0"/>
</svg>
