<svg width="294" height="39" viewBox="0 0 294 39" fill="none" xmlns="http://www.w3.org/2000/svg">
<path d="M2 19.8999H15.1532" stroke="#35BA95" stroke-width="3" stroke-linecap="round"/>
<path d="M8.57642 13.0923V26.7077" stroke="#35BA95" stroke-width="3" stroke-linecap="round"/>
<ellipse cx="275.586" cy="19.4461" rx="18.4144" ry="19.0615" fill="#35BA95"/>
<path d="M281.214 12.558C281.379 12.6826 281.447 12.8486 281.417 13.0562L279.492 25.0111C279.467 25.1616 279.387 25.2783 279.252 25.3614C279.181 25.4029 279.104 25.4236 279.018 25.4236C278.963 25.4236 278.903 25.4107 278.838 25.3847L275.432 23.9448L273.612 26.2409C273.522 26.3602 273.399 26.4199 273.244 26.4199C273.179 26.4199 273.124 26.4095 273.079 26.3887C272.983 26.3524 272.907 26.2915 272.849 26.2058C272.792 26.1202 272.763 26.0255 272.763 25.9218V23.2054L279.259 14.963L271.221 22.1625L268.252 20.9016C268.066 20.829 267.966 20.6863 267.951 20.4735C267.941 20.266 268.021 20.1129 268.191 20.0143L280.703 12.5425C280.778 12.4958 280.858 12.4724 280.943 12.4724C281.044 12.4724 281.134 12.501 281.214 12.558Z" fill="white"/>
<rect x="30.5" y="0.5" width="219" height="38" rx="19" stroke="#D7D7D7"/>
</svg>
