<svg width="36" height="36" viewBox="0 0 36 36" fill="none" xmlns="http://www.w3.org/2000/svg">
<circle cx="18" cy="18" r="18" fill="#1B4A5A"/>
<path d="M13.179 25V22.7841L18.3565 17.9901C18.7969 17.5639 19.1662 17.1804 19.4645 16.8395C19.7675 16.4986 19.9972 16.1648 20.1534 15.8381C20.3097 15.5066 20.3878 15.1491 20.3878 14.7656C20.3878 14.3395 20.2907 13.9725 20.0966 13.6648C19.9025 13.3523 19.6373 13.1132 19.3011 12.9474C18.965 12.777 18.5838 12.6918 18.1577 12.6918C17.7126 12.6918 17.3243 12.7817 16.9929 12.9616C16.6615 13.1416 16.4058 13.3996 16.2259 13.7358C16.0459 14.072 15.956 14.4721 15.956 14.9361H13.0369C13.0369 13.9844 13.2524 13.1581 13.6832 12.4574C14.1141 11.7566 14.7178 11.2145 15.4943 10.831C16.2708 10.4474 17.1657 10.2557 18.179 10.2557C19.2206 10.2557 20.1274 10.4403 20.8991 10.8097C21.6757 11.1742 22.2794 11.6809 22.7102 12.3295C23.1411 12.9782 23.3565 13.7216 23.3565 14.5597C23.3565 15.1089 23.2476 15.651 23.0298 16.1861C22.8168 16.7211 22.4356 17.3153 21.8864 17.9688C21.3371 18.6174 20.563 19.3963 19.5639 20.3054L17.4403 22.3864V22.4858H23.5483V25H13.179Z" fill="white"/>
</svg>
