<svg width="77" height="47" viewBox="0 0 77 47" fill="none" xmlns="http://www.w3.org/2000/svg">
<path d="M8.35742 27.4336C8.35742 29.7217 9.53906 31.9561 12.7402 32.9121L11.1074 35.2969C9.05566 34.6523 7.65918 33.3955 6.83203 31.7842C5.9834 33.6533 4.51172 35.125 2.29883 35.8555L0.623047 33.4492C4.01758 32.3428 5.23145 29.7217 5.24219 27.1113V25.4141H8.35742V27.4336ZM3.37305 40.1738C3.3623 37.7461 6.00488 36.2959 10.1836 36.3066C14.2871 36.2959 16.8867 37.7461 16.8867 40.1738C16.8867 42.6445 14.2871 44.084 10.1836 44.0625C6.00488 44.084 3.3623 42.6445 3.37305 40.1738ZM6.4668 40.1738C6.45605 41.2158 7.73438 41.6455 10.1836 41.6562C12.6113 41.6455 13.8252 41.2158 13.8359 40.1738C13.8252 39.207 12.6113 38.7021 10.1836 38.7129C7.73438 38.7021 6.45605 39.207 6.4668 40.1738ZM13.5996 35.9414V24.3398H16.6934V28.7871H19.25V31.3438H16.6934V35.9414H13.5996ZM35.707 24.3398V28.6582H38.2637V31.1934H35.707V35.3613H32.6133V24.3398H35.707ZM20.7109 34.7812V25.543H29.5195V27.9922H23.8047V32.3105C27.2422 32.2891 29.1113 32.1494 31.1738 31.7305L31.4961 34.1582C29.1006 34.7061 26.8555 34.7812 22.4082 34.7812H20.7109ZM22.6875 43.8262V36.1348H35.707V43.8262H22.6875ZM25.7383 41.4199H32.6562V38.584H25.7383V41.4199ZM54.6562 24.3398V31.9238H57.4492V34.4805H54.6562V44.0625H51.6055V24.3398H54.6562ZM38.9082 29.668V27.2188H43.1836V24.6621H46.2773V27.2188H50.4453V29.668H38.9082ZM39.6172 35.3613C39.5957 32.5791 41.7764 30.6025 44.7305 30.6133C47.6094 30.6025 49.8115 32.5791 49.8223 35.3613C49.8115 38.1436 47.6094 40.1094 44.7305 40.1094C41.7764 40.1094 39.5957 38.1436 39.6172 35.3613ZM42.582 35.3613C42.5605 36.8115 43.4629 37.6064 44.7305 37.5957C45.9551 37.6064 46.8467 36.8115 46.8574 35.3613C46.8467 33.9434 45.9551 33.1162 44.7305 33.1055C43.4629 33.1162 42.5605 33.9434 42.582 35.3613ZM74.6797 24.3398V44.0625H71.543V24.3398H74.6797ZM58.0293 38.3262C63.0459 35.9629 65.1514 33.041 65.5918 28.7871H59.1465V26.3809H68.75C68.7393 32.4609 66.8164 37.4131 59.6406 40.7754L58.0293 38.3262Z" fill="#1B4A5A"/>
<path d="M20.8926 6.54395C20.8267 5.7749 20.2554 5.31348 19.2373 5.31348C18.2266 5.31348 17.7065 5.75293 17.6992 6.35352C17.6846 7.0127 18.3291 7.33496 19.2812 7.54004L20.2041 7.75977C22.2476 8.20654 23.4341 9.22461 23.4414 10.9238C23.4341 12.9307 21.874 14.1392 19.2373 14.1465C16.5933 14.1392 14.8867 12.9526 14.8428 10.5137H17.2451C17.3037 11.5391 18.0728 12.0664 19.208 12.0664C20.2627 12.0664 20.8926 11.605 20.9072 10.9238C20.8926 10.3086 20.3506 9.98633 19.1787 9.72266L18.0654 9.45898C16.2417 9.03418 15.1211 8.12598 15.1211 6.5293C15.1138 4.55908 16.8496 3.24805 19.252 3.24805C21.6982 3.24805 23.2729 4.58105 23.2949 6.54395H20.8926ZM24.3643 5.43066V3.39453H33.2852V5.43066H30.0625V14H27.5869V5.43066H24.3643ZM34.5303 14V3.39453H41.8691V5.43066H37.0205V7.67188H41.4883V9.70801H37.0205V11.9639H41.8838V14H34.5303ZM43.4658 14V3.39453H47.8018C50.1895 3.39453 51.6616 4.88135 51.6543 7.04199C51.6616 9.23193 50.1602 10.6748 47.7285 10.6748H45.9561V14H43.4658ZM45.9561 8.69727H47.2744C48.4536 8.70459 49.0762 8.04541 49.0762 7.04199C49.0762 6.05322 48.4536 5.41602 47.2744 5.41602H45.9561V8.69727ZM61.0879 3.39453V14H58.583V5.73828H58.5244L56.1367 7.20312V5.03516L58.7588 3.39453H61.0879Z" fill="#35BA95"/>
</svg>
