<svg width="14" height="26" viewBox="0 0 14 26" fill="none" xmlns="http://www.w3.org/2000/svg">
<path d="M11.2258 0.514511L0.354857 12.0396C0.225825 12.1768 0.134212 12.3254 0.0800188 12.4855C0.0258254 12.6456 -0.000841205 12.8171 1.90248e-05 13C1.90408e-05 13.1829 0.0271158 13.3544 0.0813093 13.5145C0.135503 13.6746 0.226685 13.8232 0.354857 13.9604L11.2258 25.5198C11.5269 25.8399 11.9032 26 12.3548 26C12.8065 26 13.1936 25.8285 13.5161 25.4855C13.8387 25.1425 14 24.7423 14 24.285C14 23.8276 13.8387 23.4274 13.5161 23.0844L4.03227 13L13.5161 2.91557C13.8172 2.59542 13.9677 2.20074 13.9677 1.7315C13.9677 1.26227 13.8065 0.856603 13.4839 0.514511C13.1613 0.171503 12.7849 -4.0244e-07 12.3548 -3.64838e-07C11.9247 -3.27237e-07 11.5484 0.171503 11.2258 0.514511Z" fill="#D7D7D7"/>
</svg>
